<svg width="31" height="31" viewBox="0 0 31 31" fill="none" xmlns="http://www.w3.org/2000/svg">
<path d="M27.6308 20.2466C27.6008 20.1965 27.5693 20.1485 27.5378 20.1061C27.2247 19.6684 26.7592 19.3792 26.228 19.2918C25.6995 19.2045 25.1637 19.329 24.7276 19.6421L18.9513 23.7667H12.9166C12.6319 23.7667 12.4 23.5352 12.4 23.25C12.4 22.9649 12.6319 22.7334 12.9166 22.7334H16.275C17.2721 22.7334 18.0833 21.9222 18.0833 20.925C18.0833 20.9193 18.0828 20.8718 18.0823 20.8667C18.0503 19.87 17.2096 19.0929 16.2337 19.1167H9.51238C8.91666 19.1219 8.33644 19.3353 7.87919 19.7166L5.35269 21.8194C5.23486 21.9181 5.16669 22.0633 5.16669 22.2167V28.4167C5.16669 28.7025 5.39816 28.9334 5.68333 28.9334H18.5024C19.3414 28.9324 20.1588 28.6368 20.8047 28.1021L27.0682 22.9267C27.9191 22.3205 28.1661 21.1436 27.6308 20.2466ZM26.4399 22.1076L20.1463 27.3058C19.6844 27.6882 19.1001 27.8989 18.5018 27.9H6.19998V22.4589L8.54096 20.51C8.81585 20.2812 9.16357 20.153 9.51698 20.1499L16.2502 20.1494C16.6785 20.1489 17.036 20.4729 17.05 20.925C17.05 21.3523 16.7023 21.7 16.275 21.7H12.9166C12.0621 21.7 11.3666 22.3954 11.3666 23.25C11.3666 24.1045 12.0621 24.8 12.9166 24.8H19.1166C19.2241 24.8 19.329 24.7664 19.4178 24.7039L25.3295 20.4822C25.5424 20.3293 25.8012 20.2699 26.0606 20.3112C26.3195 20.354 26.5458 20.4945 26.7013 20.7115C26.7168 20.7327 26.7307 20.7544 26.7441 20.7766C27.0056 21.2143 26.8842 21.7893 26.4399 22.1076Z" fill="#787882"/>
<path d="M5.66785 21.1833H0V22.2167H5.15115V29.9667H0V31H5.66785C5.95303 31 6.1845 30.7691 6.1845 30.4833V21.7C6.1845 21.4143 5.95303 21.1833 5.66785 21.1833Z" fill="#787882"/>
<path d="M2.58339 25.8334C1.72883 25.8334 1.03339 26.5288 1.03339 27.3834C1.03339 28.2379 1.72883 28.9334 2.58339 28.9334C3.43794 28.9334 4.13339 28.2379 4.13339 27.3834C4.13339 26.5288 3.43794 25.8334 2.58339 25.8334ZM2.58339 27.9C2.29869 27.9 2.06674 27.6686 2.06674 27.3834C2.06674 27.0982 2.29869 26.8667 2.58339 26.8667C2.86808 26.8667 3.10003 27.0982 3.10003 27.3834C3.10003 27.6686 2.86808 27.9 2.58339 27.9Z" fill="#787882"/>
<path d="M30.4834 16.0166H0.516647C0.231471 16.0166 0 16.2475 0 16.5332C0 18.5271 1.62235 20.1499 3.61665 20.1499H27.3833C29.3771 20.1499 30.9999 18.5271 30.9999 16.5332C31 16.2476 30.7691 16.0166 30.4834 16.0166ZM27.3834 19.1166H3.61665C2.3689 19.1166 1.32525 18.2274 1.08548 17.05H29.9145C29.6748 18.2274 28.6311 19.1166 27.3834 19.1166Z" fill="#787882"/>
<path d="M15.5 2.58337C8.09306 2.58337 2.06665 8.60979 2.06665 16.0167V16.5334C2.06665 16.8191 2.29812 17.05 2.5833 17.05H28.4167C28.7024 17.05 28.9333 16.8191 28.9333 16.5334V16.0167C28.9334 8.60973 22.9074 2.58337 15.5 2.58337ZM3.1 16.0167C3.1 9.17959 8.66293 3.61667 15.5 3.61667C22.3371 3.61667 27.9 9.17959 27.9 16.0167H3.1Z" fill="#787882"/>
<path d="M7.00186 8.47693C6.6407 8.88302 6.30594 9.31756 6.00677 9.76912L6.86805 10.34C7.14088 9.92872 7.44567 9.53244 7.77426 9.16305L7.00186 8.47693Z" fill="#787882"/>
<path d="M15.5 4.65002C12.5984 4.6516 9.83579 5.74792 7.72162 7.73555L8.42947 8.48833C10.3515 6.68101 12.863 5.68489 15.5006 5.68338L15.5 4.65002Z" fill="#787882"/>
<path d="M17.05 0H13.95V1.03335H17.05V0Z" fill="#787882"/>
<path d="M16.0167 0.516602H14.9833V3.09996H16.0167V0.516602Z" fill="#787882"/>
</svg>
