<svg width="33" height="33" viewBox="0 0 33 33" fill="none" xmlns="http://www.w3.org/2000/svg">
<g clip-path="url(#clip0)">
<path d="M31.8483 14.0761C31.5693 13.2913 30.6858 11.0993 28.8526 8.88557C27.5328 7.29185 25.9933 6.02109 24.2766 5.10851C22.8877 4.3702 21.3815 3.86895 19.7774 3.60598C19.6431 2.22965 18.4797 1.15039 17.0687 1.15039C15.6581 1.15039 14.4949 2.22901 14.36 3.60469C12.8794 3.84736 11.4822 4.29395 10.1848 4.94157C8.50642 5.77933 6.98804 6.95463 5.67179 8.43485C5.25716 8.90111 5.97936 9.54383 6.39418 9.07738C8.69611 6.4887 11.5484 4.95556 14.8938 4.50052C14.8962 4.5002 14.8986 4.50026 14.9011 4.49988C17.9142 4.08822 21.1015 4.52121 23.8036 5.95194C25.406 6.80039 26.8466 7.98562 28.0852 9.47474C29.5864 11.2795 30.4285 13.1054 30.7965 14.0319H3.34059C3.63437 13.2914 4.23036 11.9771 5.22217 10.5617C5.5782 10.0537 4.79078 9.49272 4.43055 10.0068C3.1687 11.8074 2.52075 13.4261 2.28924 14.076C1.62866 14.2388 1.13727 14.836 1.13727 15.5461C1.13727 16.381 1.81654 17.0602 2.65146 17.0602H9.95146L5.72599 22.496H0.483397C0.216433 22.496 0 22.7125 0 22.9794C0 22.9794 0 31.3295 0 31.366C0 31.5067 0.0641951 31.636 0.164226 31.7254C0.250142 31.8022 0.362547 31.8496 0.483397 31.8496C0.502281 31.8496 0.52123 31.8485 0.540179 31.8462L6.01932 31.1983C6.26263 31.1696 6.44593 30.9633 6.44593 30.7183V28.9227L17.9238 26.0875C18.2773 26.0222 18.5985 25.8542 18.8539 25.6008C18.8599 25.5949 18.8658 25.5887 18.8715 25.5824L24.7261 19.1256C25.2807 18.5667 25.3877 17.7275 25.0458 17.0602H31.4858C32.3207 17.0602 33 16.3809 33 15.5461C33 14.8361 32.5087 14.239 31.8483 14.0761ZM18.6196 3.4589C17.9548 3.39922 17.2867 3.37788 16.6194 3.39483C16.2696 3.4036 15.9203 3.42422 15.5716 3.45419C15.5009 3.46032 15.4297 3.4656 15.3594 3.47256C15.5407 2.69668 16.2383 2.11718 17.0686 2.11718C17.8989 2.11718 18.5965 2.69668 18.7778 3.47256C18.7254 3.46734 18.6723 3.4636 18.6196 3.4589ZM5.47907 30.2887L0.966793 30.8222V23.4628H5.47907V30.2887ZM24.0352 18.4492C24.0293 18.4551 24.0233 18.4613 24.0177 18.4675L18.1648 24.9225C18.0476 25.0357 17.9009 25.1102 17.7399 25.1383C17.7289 25.1402 17.7179 25.1425 17.707 25.1452L6.44587 27.9268V23.1452C6.44587 23.1452 10.9992 17.2875 11.0037 17.2818C11.2689 16.9408 11.8605 17.0247 12.1338 17.2962C12.4145 17.575 12.4544 18.0123 12.2287 18.336C12.1838 18.4004 9.69964 22.2175 9.69668 22.2221C9.49011 22.5395 9.72832 22.9669 10.1033 22.9669H16.9771C17.1047 22.9669 17.2271 22.9165 17.3176 22.8267C17.3176 22.8267 22.8847 17.3021 22.8908 17.296C23.2056 16.9836 23.7276 16.9859 24.0396 17.3003C24.3551 17.6183 24.3531 18.1337 24.0352 18.4492ZM13.1432 17.0602H15.9531L11.0126 21.963C11.0126 21.963 12.9756 18.9552 13.0218 18.8889C13.4073 18.336 13.4382 17.6329 13.1432 17.0602ZM13.8766 22.0001H12.3478L17.0881 17.296C17.2413 17.144 17.4444 17.0603 17.6603 17.0603C17.9678 17.0603 18.2589 17.2423 18.3916 17.5196L13.8766 22.0001ZM19.9894 17.296C20.1426 17.144 20.3458 17.0603 20.5616 17.0603C20.8705 17.0603 21.1596 17.2411 21.293 17.5196L16.7779 22.0002H15.2491L19.9894 17.296ZM31.4857 16.0934H2.65146C2.34963 16.0934 2.10406 15.8479 2.10406 15.5461C2.10406 15.2442 2.34963 14.9987 2.65146 14.9987H31.4857C31.7875 14.9987 32.0331 15.2443 32.0331 15.5461C32.0331 15.8478 31.7875 16.0934 31.4857 16.0934Z" fill="#787882"/>
</g>
<defs>
<clipPath id="clip0">
<rect width="33" height="33" fill="white"/>
</clipPath>
</defs>
</svg>
