<svg width="33" height="33" viewBox="0 0 33 33" fill="none" xmlns="http://www.w3.org/2000/svg">
<g clip-path="url(#clip0)">
<path d="M2.06298 31.717H30.9368C32.0743 31.717 32.9993 30.792 32.9993 29.6545V29.1389C32.9993 28.8537 32.7688 28.6233 32.4837 28.6233H31.9681V26.0503C31.9676 18.102 25.941 11.5381 18.218 10.6811C18.4345 10.3547 18.5619 9.96441 18.5619 9.54418C18.5619 8.40672 17.6369 7.48169 16.4994 7.48169C15.3619 7.48169 14.4369 8.40672 14.4369 9.54418C14.4369 9.96441 14.5643 10.3547 14.7813 10.6811C7.05885 11.5396 1.03328 18.1025 1.03277 26.0498V28.6227H0.517142H0.516627H0.516111C0.230972 28.6227 0.000488281 28.8532 0.000488281 29.1384V29.654C0.000488281 30.792 0.925516 31.717 2.06298 31.717ZM16.4994 8.51294C17.0681 8.51294 17.5306 8.97545 17.5306 9.54418C17.5306 10.1129 17.0681 10.5754 16.4994 10.5754C15.9307 10.5754 15.4681 10.1129 15.4681 9.54418C15.4681 8.97545 15.9307 8.51294 16.4994 8.51294ZM2.06401 26.0508C2.06401 18.0906 8.54024 11.6144 16.5004 11.6144C24.4606 11.6144 30.9368 18.0906 30.9368 26.0508V28.6227H2.06401V26.0508ZM31.9681 29.6545C31.9681 30.2232 31.5056 30.6858 30.9368 30.6858H2.06298C1.49425 30.6858 1.03173 30.2232 1.03173 29.6545H31.9681Z" fill="#787882"/>
<path d="M16.4932 12.6379C16.2081 12.6379 15.9776 12.8684 15.9776 13.1536C15.9776 13.4387 16.2081 13.6692 16.4932 13.6692C23.3201 13.6692 28.8744 19.223 28.8744 26.0503C28.8744 26.3355 29.1048 26.5659 29.39 26.5659C29.6751 26.5659 29.9056 26.3355 29.9056 26.0503C29.9056 18.6547 23.8888 12.6379 16.4932 12.6379Z" fill="#787882"/>
<path d="M8.91252 9.39775C9.01358 9.50242 9.14867 9.55553 9.28377 9.55553C9.41267 9.55553 9.54209 9.50757 9.64161 9.41115C10.2882 8.78673 11.1328 7.08569 9.70039 5.11653C8.47166 3.42735 9.51631 2.29556 9.64367 2.1682C9.84683 1.96968 9.85147 1.64484 9.6545 1.44117C9.45702 1.23698 9.12959 1.23028 8.92541 1.42828C8.27882 2.0527 7.43423 3.75374 8.86663 5.7229C10.0979 7.41569 9.04658 8.548 8.92541 8.66917C8.72071 8.86614 8.71503 9.19253 8.91252 9.39775Z" fill="#787882"/>
<path d="M23.332 9.39775C23.433 9.50242 23.5681 9.55553 23.7032 9.55553C23.8321 9.55553 23.9615 9.50757 24.061 9.41115C24.7076 8.78673 25.5522 7.08569 24.1198 5.11653C22.8911 3.42735 23.9357 2.29556 24.0631 2.1682C24.2663 1.96968 24.2709 1.64484 24.0739 1.44117C23.8764 1.23698 23.549 1.23028 23.3448 1.42828C22.6983 2.0527 21.8537 3.75374 23.2861 5.7229C24.5174 7.41569 23.466 8.548 23.3448 8.66917C23.1401 8.86614 23.1345 9.19253 23.332 9.39775Z" fill="#787882"/>
<path d="M16.8717 1.44068C16.6742 1.23649 16.3468 1.22979 16.1426 1.42779C15.496 2.05221 14.6515 3.75325 16.0839 5.72241C16.1844 5.86163 16.3417 5.93485 16.5015 5.93485C16.6067 5.93485 16.7124 5.90237 16.8042 5.83637C17.0347 5.6693 17.0857 5.34652 16.9181 5.11656C15.6889 3.42634 16.7356 2.29404 16.8619 2.16771C17.0635 1.96919 17.0687 1.64435 16.8717 1.44068Z" fill="#787882"/>
</g>
<defs>
<clipPath id="clip0">
<rect width="32.9999" height="32.9999" fill="white"/>
</clipPath>
</defs>
</svg>
