<svg width="29" height="29" viewBox="0 0 29 29" fill="none" xmlns="http://www.w3.org/2000/svg">
<g clip-path="url(#clip0)">
<path d="M19.33 13.0351C19.5303 11.7328 19.5413 10.4086 19.3629 9.10315L18.2477 0.408361C18.2177 0.174946 18.019 0 17.7838 0H11.2354C10.9999 0 10.8012 0.174946 10.7713 0.408361L9.65633 9.10315C9.47796 10.4077 9.48892 11.731 9.68899 13.0321C10.1433 15.8046 11.314 17.5122 13.1064 18.0549V26.693C13.0488 26.7695 12.9659 26.8232 12.8725 26.8442C12.8572 26.8493 12.8424 26.8552 12.828 26.862L10.1026 28.1075C9.90276 28.1997 9.79428 28.4185 9.84178 28.6332C9.88929 28.8481 10.08 29.0007 10.2999 29H18.7193C18.939 28.9998 19.129 28.8465 19.1758 28.6318C19.2227 28.4172 19.1137 28.1988 18.9139 28.107L16.1883 26.8616C16.1739 26.8547 16.159 26.8488 16.1437 26.8438C16.0549 26.82 15.9747 26.7714 15.9128 26.7033V18.0549C17.7048 17.5122 18.876 15.8046 19.33 13.0351ZM11.647 0.935484H17.3722L17.8521 4.67742H11.1671L11.647 0.935484ZM10.6128 12.883C10.4265 11.6705 10.4169 10.4374 10.5843 9.22192L11.052 5.59006C11.0886 5.6024 11.1267 5.61016 11.1653 5.6129H17.8914C17.9179 5.60993 17.9444 5.60468 17.9699 5.59692L18.4349 9.22192C18.6024 10.4374 18.5928 11.6707 18.4064 12.8835C17.924 15.818 16.6377 17.3065 14.5788 17.3065H14.4384C12.3808 17.3065 11.095 15.818 10.6128 12.883ZM15.8192 27.7212L16.5704 28.0645H12.4486L13.1998 27.7212C13.6705 27.5986 14.0099 27.1882 14.0419 26.7029V18.2241C14.1723 18.2339 14.3043 18.2419 14.4404 18.2419H14.5806C14.7168 18.2419 14.8488 18.2339 14.9792 18.2241V26.7029C15.0109 27.1877 15.3494 27.5979 15.8192 27.7212Z" fill="#787882"/>
<path d="M17.4835 12.7325C17.6548 11.609 17.6625 10.4669 17.5068 9.34136C17.4741 9.08511 17.2398 8.90376 16.9835 8.93665C16.7273 8.96954 16.5459 9.20387 16.5788 9.46012C16.7232 10.4959 16.717 11.5469 16.5601 12.5808C16.0924 15.4341 15.0315 15.4341 14.5788 15.4341C14.3205 15.4341 14.1111 15.6435 14.1111 15.9019C14.1111 16.1602 14.3205 16.3696 14.5788 16.3696C15.1498 16.371 16.8872 16.371 17.4835 12.7325Z" fill="#787882"/>
</g>
<defs>
<clipPath id="clip0">
<rect width="29" height="29" fill="white"/>
</clipPath>
</defs>
</svg>
