<svg width="34" height="34" viewBox="0 0 34 34" fill="none" xmlns="http://www.w3.org/2000/svg">
<path d="M17.0009 18.7535C19.8851 18.7535 22.8159 11.6284 22.8159 7.64818C22.8159 6.80643 22.6711 5.78924 22.4232 4.72217H11.5786C11.3308 5.78924 11.1859 6.80643 11.1859 7.64818C11.1859 11.6284 14.1168 18.7535 17.0009 18.7535Z" fill="#787882"/>
<path d="M18.1806 31.758C17.8796 31.346 17.5352 31.2494 17.4161 30.8245C17.6044 27.2225 17.7171 21.393 17.7428 19.8093C21.3271 18.8823 23.9666 11.4739 23.9666 7.64497C23.9666 5.54623 23.215 2.60734 22.053 0.160947L21.9757 0H12.0244L11.9455 0.164166C10.7835 2.61056 10.0319 5.54783 10.0319 7.64819C10.0319 11.4771 12.673 18.8823 16.2557 19.8142C16.283 21.3947 16.3957 27.2241 16.5824 30.8261C16.4665 31.251 16.1189 31.3508 15.8195 31.7628C13.5196 31.8787 11.8039 32.3278 11.8039 32.8653C11.8039 33.4946 14.1296 34 16.9992 34C19.8673 34 22.1946 33.4914 22.1946 32.8653C22.1946 32.3262 20.4805 31.8787 18.1806 31.758ZM10.6081 7.64819C10.6081 5.70556 11.3194 2.88578 12.3881 0.577799H21.6088C22.6774 2.88738 23.3888 5.70556 23.3888 7.64819C23.3888 9.69543 22.6147 12.6633 21.4607 15.0324C20.1908 17.6446 18.6506 19.1881 17.1988 19.32C17.0701 19.3168 16.9349 19.3168 16.8045 19.32C13.3973 19.0432 10.6081 11.5238 10.6081 7.64819Z" fill="#787882"/>
</svg>
