<svg width="16" height="34" viewBox="0 0 16 34" fill="none" xmlns="http://www.w3.org/2000/svg">
<path d="M12.0224 1.9L11.8625 1.14997C11.8144 0.765091 11.6706 0.599976 11.5092 0.599976H4.89699C4.7429 0.599976 4.60442 0.740901 4.5503 1.10001C4.19248 3.47066 3.3606 7.82442 3.3606 11.0377C3.3606 17.6749 5.52066 23.0751 8.17568 23.0751C10.8306 23.0751 12.9906 17.6749 12.9906 11.0377C12.9906 8.4209 12.4314 5.07432 12.0224 1.9Z" fill="#ECEFF1"/>
<path d="M12.2632 10.788H3.98735C3.77975 10.788 3.61127 10.4994 3.61127 10.144C3.61127 9.78864 3.77975 9.5 3.98735 9.5H12.2632C12.4708 9.5 12.6394 9.78864 12.6394 10.144C12.6394 10.4994 12.4708 10.788 12.2632 10.788Z" fill="#787882"/>
<path d="M8.30591 21.8714C6.07533 21.8714 4.19285 17.6366 3.61127 10.7L13.0006 10.7C12.419 17.6365 10.5365 21.8714 8.30591 21.8714Z" fill="#DC0101"/>
<path d="M8.00012 29.5453C4.60563 29.5453 1 30.7133 1 32.8786C1 33.2468 1.28524 33.5453 1.63644 33.5453H14.3636C14.715 33.5453 15 33.2468 15 32.8786C15 30.7133 11.3944 29.5453 8.00012 29.5453Z" fill="#CFD8DC"/>
<path d="M8.29 23.0751C5.63498 23.0751 3 17.675 3 11.0378C3 7.82817 4.19246 3.41895 4.54946 1.04999C4.6044 0.689189 4.74207 0.52002 4.89616 0.52002H11.5092C11.6714 0.52002 11.961 0.665113 12.01 1.04999L12.17 1.9C12.17 1.9 13.35 8.42092 13.35 11.0378C13.35 17.675 10.9449 23.0751 8.29 23.0751ZM5.45 1.85002C4.92548 5.41329 4.10131 8.79122 4.10131 11.0378C4.10131 16.6546 6.04394 21.75 8.29 21.75C10.5359 21.75 12.2499 16.6546 12.2499 11.0378C12.2499 8.71153 11.5611 5.35339 11.19 2.47002L11.11 1.85002H5.45Z" fill="#787882"/>
<path d="M8.24742 30.5C7.83169 30.5 7.66998 30.3052 7.66998 30.0651L7.67003 22.235C7.67003 21.9948 7.83169 21.8 8.24742 21.8C8.66286 21.8 9.00002 21.9948 9.00002 22.235V30.0651C9.00002 30.3052 8.66286 30.5 8.24742 30.5Z" fill="#787882"/>
<path d="M15.0031 33.5453H1.6669C1.29889 33.5453 1 33.2468 1 32.8786C1 30.7133 4.77965 29.5453 8.33512 29.5453C11.8906 29.5453 15.67 30.7133 15.67 32.8786C15.67 33.2468 15.3714 33.5453 15.0031 33.5453ZM2.76846 32.2121H13.9015C13.0654 31.5388 11.0689 30.8786 8.33512 30.8786C5.60112 30.8786 3.60458 31.5388 2.76846 32.2121Z" fill="#787882"/>
</svg>
