<svg width="19" height="34" viewBox="0 0 19 34" fill="none" xmlns="http://www.w3.org/2000/svg">
<path d="M13.0225 1.9L12.8625 1.14997C12.8144 0.765091 12.6706 0.599976 12.5092 0.599976H5.89701C5.74292 0.599976 5.60443 0.740901 5.55031 1.10001C5.19249 3.47066 4.36061 7.82442 4.36061 11.0377C4.36061 17.6749 6.52068 23.0751 9.1757 23.0751C11.8306 23.0751 13.9907 17.6749 13.9907 11.0377C13.9907 8.4209 13.4314 5.07432 13.0225 1.9Z" fill="#ECEFF1"/>
<path d="M13.2632 10.788H4.98732C4.77972 10.788 4.61124 10.4994 4.61124 10.144C4.61124 9.78864 4.77972 9.5 4.98732 9.5H13.2632C13.4708 9.5 13.6394 9.78864 13.6394 10.144C13.6394 10.4994 13.4708 10.788 13.2632 10.788Z" fill="#787882"/>
<path d="M9.30591 21.8713C7.07533 21.8713 5.19285 17.6365 4.61127 10.7L14.0006 10.6999C13.419 17.6365 11.5365 21.8713 9.30591 21.8713Z" fill="#DC0101"/>
<path d="M9.00012 30C5.60563 30 2 31.168 2 33.3333C2 33.7014 2.28524 34 2.63644 34H15.3636C15.715 34 16 33.7014 16 33.3333C16 31.168 12.3944 30 9.00012 30Z" fill="#CFD8DC"/>
<path d="M9.28998 23.0751C6.63497 23.0751 3.99998 17.675 3.99998 11.0378C3.99998 7.82817 5.19244 3.41895 5.54945 1.04999C5.60438 0.689189 5.74206 0.52002 5.89614 0.52002H12.5091C12.6714 0.52002 12.961 0.665113 13.01 1.04999L13.17 1.9C13.17 1.9 14.35 8.42092 14.35 11.0378C14.35 17.675 11.9449 23.0751 9.28998 23.0751ZM6.44998 1.85002C5.92546 5.41329 5.10129 8.79122 5.10129 11.0378C5.10129 16.6546 7.04392 21.75 9.28998 21.75C11.5359 21.75 13.2499 16.6546 13.2499 11.0378C13.2499 8.71153 12.5611 5.35339 12.19 2.47002L12.11 1.85002H6.44998Z" fill="#787882"/>
<path d="M9.24743 30.5C8.83171 30.5 8.67 30.3052 8.67 30.0652L8.67004 22.2351C8.67004 21.9949 8.83171 21.8 9.24743 21.8C9.66288 21.8 10 21.9949 10 22.2351V30.0652C10 30.3052 9.66288 30.5 9.24743 30.5Z" fill="#787882"/>
<path d="M16.0031 34H2.6669C2.29889 34 2 33.7014 2 33.3333C2 31.168 5.77965 30 9.33512 30C12.8906 30 16.67 31.168 16.67 33.3333C16.67 33.7014 16.3714 34 16.0031 34ZM3.76846 32.6667H14.9015C14.0654 31.9934 12.0689 31.3333 9.33512 31.3333C6.60112 31.3333 4.60458 31.9934 3.76846 32.6667Z" fill="#787882"/>
<circle cx="7.60188" cy="13.5054" r="0.601878" fill="#FEB6B6"/>
<circle cx="11.2131" cy="12.3018" r="0.601878" fill="#FEB6B6"/>
<circle cx="10.0095" cy="15.9132" r="0.601878" fill="#FEB6B6"/>
<circle cx="7.60188" cy="18.3206" r="0.601878" fill="#FEB6B6"/>
<circle cx="10.0095" cy="19.5244" r="0.601878" fill="#FEB6B6"/>
</svg>
