<svg width="31" height="31" viewBox="0 0 31 31" fill="none" xmlns="http://www.w3.org/2000/svg">
<g clip-path="url(#clip0)">
<path d="M24.2395 14.7178C23.9663 14.7178 23.7448 14.9392 23.7448 15.2125V23.7447H17.9735C17.7003 23.7447 17.4788 23.9661 17.4788 24.2393V30.0106H1.97883V0.989347H23.8001C23.8825 1.14804 24.0483 1.25647 24.2395 1.25647C24.5127 1.25647 24.7342 1.03506 24.7342 0.761793V0.494666C24.7342 0.221404 24.5127 -1.52588e-05 24.2395 -1.52588e-05H1.48415C1.21096 -1.52588e-05 0.989471 0.221404 0.989471 0.494666V30.5053C0.989471 30.7786 1.21096 31 1.48415 31H17.9735C17.9901 31 18.0066 30.9991 18.0229 30.9975C18.0352 30.9962 18.0472 30.9942 18.0591 30.9921C18.063 30.9914 18.067 30.9911 18.0709 30.9904C18.085 30.9875 18.0988 30.9838 18.1124 30.9799C18.1141 30.9794 18.116 30.9791 18.1177 30.9785C18.1314 30.9744 18.1447 30.9694 18.1579 30.9642C18.1596 30.9634 18.1614 30.9629 18.1632 30.9623C18.1757 30.957 18.1877 30.9512 18.1996 30.945C18.2021 30.9437 18.2046 30.9427 18.207 30.9414C18.2179 30.9356 18.2283 30.9291 18.2387 30.9225C18.242 30.9204 18.2454 30.9186 18.2486 30.9164C18.2583 30.91 18.2674 30.9029 18.2765 30.8958C18.2802 30.8929 18.284 30.8904 18.2875 30.8875C18.2987 30.8784 18.3093 30.8686 18.3196 30.8586C18.3208 30.8573 18.3222 30.8564 18.3234 30.8551L24.5893 24.5892C24.5903 24.5882 24.5911 24.5871 24.5921 24.5862C24.6024 24.5756 24.6124 24.5648 24.6218 24.5533C24.6244 24.5502 24.6265 24.5468 24.629 24.5437C24.6365 24.5341 24.644 24.5245 24.6508 24.5143C24.6526 24.5116 24.6541 24.5087 24.6559 24.5059C24.6629 24.4951 24.6696 24.4841 24.6757 24.4727C24.6768 24.4707 24.6776 24.4685 24.6787 24.4665C24.685 24.4542 24.6911 24.4418 24.6964 24.429C24.697 24.4275 24.6974 24.426 24.698 24.4246C24.7034 24.4112 24.7085 24.3975 24.7127 24.3835C24.7132 24.3819 24.7135 24.3801 24.714 24.3785C24.7181 24.3647 24.7217 24.3509 24.7245 24.3368C24.7253 24.3327 24.7256 24.3287 24.7264 24.3247C24.7284 24.3128 24.7305 24.301 24.7317 24.2887C24.7334 24.2724 24.7342 24.2559 24.7342 24.2393V15.2125C24.7342 14.9392 24.5127 14.7178 24.2395 14.7178ZM23.0452 24.734L18.4682 29.3111V24.734H23.0452Z" fill="#787882"/>
<path d="M30.0108 6.31521C30.0108 5.653 29.7544 5.03187 29.2888 4.56615L27.4232 2.70061C27.2486 2.52608 27.0521 2.38085 26.8398 2.2676C26.486 2.07883 26.0882 1.97864 25.6743 1.97864C25.254 1.97864 24.8505 2.08226 24.4926 2.2767C24.2865 2.3887 24.0955 2.53057 23.9253 2.70067L21.5933 5.0326C21.5932 5.03267 19.8552 6.77078 19.8552 6.77078L6.37745 20.2485C6.37646 20.2495 6.3756 20.2506 6.37461 20.2516C6.37059 20.2558 6.3669 20.2602 6.36301 20.2644C6.32383 20.3072 6.2919 20.3562 6.26981 20.41L4.36588 25.0338C4.36502 25.0359 4.3641 25.038 4.36331 25.0401L3.00511 28.3387C2.92906 28.5233 2.97154 28.7356 3.11275 28.8768C3.12456 28.8887 3.13689 28.8998 3.14969 28.9102C3.23906 28.9832 3.35 29.0217 3.46266 29.0217C3.52604 29.0217 3.59002 29.0095 3.6509 28.9845L6.95075 27.6257C6.95187 27.6252 6.95299 27.6247 6.95412 27.6243L11.5795 25.7198C11.6332 25.6976 11.6822 25.6658 11.725 25.6266C11.7293 25.6227 11.7337 25.619 11.7379 25.6149C11.7389 25.6139 11.7399 25.6131 11.7409 25.6121L25.2185 12.1346C25.2189 12.134 29.2887 8.06427 29.2887 8.06427C29.7544 7.59854 30.0108 6.97742 30.0108 6.31521ZM6.88275 26.5836L5.40583 25.1067L7.00233 21.2294C7.19288 21.3281 7.37018 21.4569 7.52623 21.6129C7.99367 22.0804 8.21028 22.7152 8.10554 23.3109C8.07764 23.4698 8.12888 23.6323 8.24292 23.7464C8.35697 23.8604 8.51935 23.9118 8.67838 23.8838C9.27424 23.7792 9.90894 23.9957 10.3764 24.4631C10.5324 24.6192 10.6613 24.7965 10.76 24.987L6.88275 26.5836ZM19.8553 12.1342C19.9518 12.2308 20.0785 12.2791 20.205 12.2791C20.3316 12.2791 20.4582 12.2308 20.5548 12.1342L22.537 10.152L24.1693 11.7844L11.5618 24.392C11.4287 24.1649 11.2657 23.9533 11.076 23.7636C10.6882 23.3758 10.2178 23.1057 9.71925 22.9699L18.6893 13.9998C18.8825 13.8066 18.8825 13.4934 18.6893 13.3002C18.4961 13.1071 18.1829 13.1071 17.9898 13.3002L9.01957 22.2702C8.8837 21.7717 8.61361 21.3013 8.22578 20.9134C8.03608 20.7238 7.82449 20.5608 7.5974 20.4278L20.205 7.82023L21.8373 9.45254L19.8551 11.4347C19.6621 11.6278 19.6621 11.941 19.8553 12.1342ZM20.9046 7.12048L21.9431 6.08205L25.9074 10.0464L24.8689 11.0848L20.9046 7.12048ZM4.99775 26.0978L5.89167 26.9917L4.37201 27.6175L4.99775 26.0978ZM29.0143 6.46308C28.9811 6.80488 28.8331 7.12068 28.5892 7.36452L26.6071 9.34674L22.6428 5.38244L24.625 3.40022C24.6605 3.36467 24.6975 3.33143 24.7356 3.30023C24.7521 3.28671 24.7698 3.27503 24.7868 3.2623C24.8089 3.24575 24.8307 3.22847 24.8535 3.2133C24.8781 3.197 24.9038 3.18282 24.9292 3.16805C24.9453 3.15862 24.961 3.14826 24.9775 3.13949C25.0134 3.12049 25.0504 3.10354 25.0878 3.08758C25.094 3.08494 25.0999 3.08164 25.1061 3.07907C25.2836 3.00619 25.4758 2.96787 25.6744 2.96787C25.873 2.96787 26.0653 3.00612 26.2428 3.07914C26.2477 3.08112 26.2523 3.08369 26.257 3.0858C26.2959 3.10222 26.3342 3.1199 26.3715 3.13962C26.3866 3.14767 26.4011 3.15736 26.4161 3.16594C26.4428 3.18131 26.4696 3.19628 26.4953 3.21336C26.5172 3.22787 26.5379 3.24443 26.5591 3.26019C26.5771 3.27358 26.5957 3.28598 26.6132 3.30023C26.6513 3.33143 26.6883 3.3646 26.7237 3.40015L28.5893 5.26569C28.8332 5.5096 28.9812 5.82541 29.0144 6.1672C29.0191 6.21601 29.0215 6.26534 29.0215 6.31508C29.0215 6.36481 29.0191 6.41428 29.0143 6.46308Z" fill="#787882"/>
</g>
<defs>
<clipPath id="clip0">
<rect width="31" height="31" fill="white"/>
</clipPath>
</defs>
</svg>
