<svg width="30" height="32" viewBox="0 0 30 32" fill="none" xmlns="http://www.w3.org/2000/svg">
<path d="M28.9301 14.0088C28.8265 13.2485 28.4463 12.5919 27.8243 12.1427C26.5801 11.2096 24.7831 11.4515 23.85 12.6956L23.4353 13.2485V4.29781C23.4353 4.12501 23.3662 3.98678 23.2625 3.8831L19.5647 0.185306C19.461 0.0816298 19.2882 0.0125122 19.15 0.0125122H0.833821C0.488232 0.0125122 0.211761 0.288983 0.211761 0.634571V30.4588C0.211761 30.8044 0.488232 31.0809 0.833821 31.0809H22.8478C23.1934 31.0809 23.4698 30.8044 23.4698 30.4588V22.6831L28.4118 16.1169C28.8265 15.4949 29.0338 14.7346 28.9301 14.0088ZM19.7375 2.08604L21.3618 3.71031H19.7375V2.08604ZM22.2257 29.8368H1.42132V1.22207H18.5279V4.29781C18.5279 4.64339 18.8044 4.91986 19.15 4.91986H22.2257V14.8382L16.6272 22.303C16.5581 22.3721 16.5235 22.5794 16.5235 22.5794C16.5235 22.5794 15.936 26.139 15.7632 27.314C15.6596 27.9015 16.2816 28.1088 16.6272 27.9706C17.6985 27.4522 20.9471 25.9316 20.9471 25.9316C20.9471 25.9316 21.1198 25.828 21.189 25.7588L22.2603 24.3419L22.2257 29.8368ZM17.5257 23.7544L19.4956 25.2405L17.111 26.3809L17.5257 23.7544ZM27.4096 15.3912L20.5323 24.5147L17.9404 22.5449L24.8176 13.4213C25.3706 12.6956 26.3728 12.5574 27.0985 13.1103C27.8243 13.6287 27.9625 14.6655 27.4096 15.3912Z" fill="#787882"/>
<path d="M6.22497 6.3022C5.11909 6.3022 4.186 7.20073 4.186 8.34117C4.186 9.48161 5.08453 10.3801 6.22497 10.3801C7.36542 10.3801 8.26395 9.48161 8.26395 8.34117C8.26395 7.20073 7.36542 6.3022 6.22497 6.3022ZM6.22497 9.13602C5.77571 9.13602 5.39556 8.75588 5.39556 8.30661C5.39556 7.85735 5.77571 7.4772 6.22497 7.4772C6.67424 7.4772 7.05439 7.85735 7.05439 8.30661C7.05439 8.75588 6.67424 9.13602 6.22497 9.13602Z" fill="#787882"/>
<path d="M10.1992 8.92867H18.8389C19.1845 8.92867 19.461 8.6522 19.461 8.30661C19.461 7.96103 19.1845 7.68456 18.8389 7.68456H10.1992C9.85365 7.68456 9.57718 7.96103 9.57718 8.30661C9.57718 8.6522 9.88821 8.92867 10.1992 8.92867Z" fill="#787882"/>
<path d="M6.22497 12.0735C5.11909 12.0735 4.186 12.9721 4.186 14.1125C4.186 15.2529 5.08453 16.1515 6.22497 16.1515C7.36542 16.1515 8.26395 15.2529 8.26395 14.1125C8.26395 12.9721 7.36542 12.0735 6.22497 12.0735ZM6.22497 14.9419C5.77571 14.9419 5.39556 14.5618 5.39556 14.1125C5.39556 13.6632 5.77571 13.2831 6.22497 13.2831C6.67424 13.2831 7.05439 13.6632 7.05439 14.1125C7.05439 14.5618 6.67424 14.9074 6.22497 14.9419Z" fill="#787882"/>
<path d="M10.1992 14.7H18.8389C19.1845 14.7 19.461 14.4235 19.461 14.0779C19.461 13.7324 19.1845 13.4559 18.8389 13.4559H10.1992C9.85365 13.4559 9.57718 13.7324 9.57718 14.0779C9.57718 14.4235 9.88821 14.7 10.1992 14.7Z" fill="#787882"/>
<path d="M6.22497 17.8794C5.11909 17.8794 4.186 18.778 4.186 19.9184C4.186 21.0588 5.08453 21.9574 6.22497 21.9574C7.36542 21.9574 8.26395 21.0588 8.26395 19.9184C8.26395 18.778 7.36542 17.8794 6.22497 17.8794ZM6.22497 20.7132C5.77571 20.7132 5.39556 20.3331 5.39556 19.8838C5.39556 19.4346 5.77571 19.0544 6.22497 19.0544C6.67424 19.0544 7.05439 19.4346 7.05439 19.8838C7.05439 20.3331 6.67424 20.7132 6.22497 20.7132Z" fill="#787882"/>
<path d="M10.1992 20.5059H15.7287C16.0742 20.5059 16.3507 20.2294 16.3507 19.8838C16.3507 19.5382 16.0742 19.2618 15.7287 19.2618H10.1992C9.85365 19.2618 9.57718 19.5382 9.57718 19.8838C9.57718 20.2294 9.88821 20.5059 10.1992 20.5059Z" fill="#787882"/>
<path d="M6.22497 23.6507C5.11909 23.6507 4.186 24.5493 4.186 25.6897C4.186 26.8302 5.08453 27.7287 6.22497 27.7287C7.36542 27.7287 8.26395 26.8302 8.26395 25.6897C8.26395 24.5493 7.36542 23.6507 6.22497 23.6507ZM6.22497 26.5191C5.77571 26.5191 5.39556 26.139 5.39556 25.6897C5.39556 25.2404 5.77571 24.8603 6.22497 24.8603C6.67424 24.8603 7.05439 25.2404 7.05439 25.6897C7.05439 26.139 6.67424 26.4846 6.22497 26.5191Z" fill="#787882"/>
<path d="M13.6897 25.0676H10.2338C9.8882 25.0676 9.61172 25.3441 9.61172 25.6897C9.61172 26.0353 9.8882 26.3118 10.2338 26.3118H13.6897C14.0353 26.3118 14.3117 26.0353 14.3117 25.6897C14.3117 25.3441 14.0007 25.0676 13.6897 25.0676Z" fill="#787882"/>
</svg>
