<svg width="34" height="34" viewBox="0 0 34 34" fill="none" xmlns="http://www.w3.org/2000/svg">
<path d="M32.4373 12.5099H24.8122L19.452 2.17466C19.2599 1.80411 18.9349 1.53058 18.537 1.40441C18.1391 1.27824 17.7159 1.31463 17.3454 1.50681C17.2166 1.57362 17.1013 1.65623 17 1.75072C16.8987 1.65629 16.7834 1.57362 16.6546 1.50681C16.2841 1.31463 15.8608 1.27831 15.4629 1.40441C15.065 1.53052 14.7401 1.80411 14.5479 2.17466L8.89791 13.0687C8.70573 13.4393 8.66934 13.8625 8.79551 14.2604C8.83854 14.3962 8.90003 14.5228 8.97547 14.6392H1.56267C1.25023 14.6392 0.996094 14.385 0.996094 14.0726C0.996094 13.7602 1.2503 13.506 1.56267 13.506H7.24074C7.51579 13.506 7.73879 13.2831 7.73879 13.008C7.73879 12.7329 7.51579 12.5099 7.24074 12.5099H1.56267C0.701051 12.5099 0 13.211 0 14.0726C0 14.7872 0.482242 15.3908 1.13827 15.5762L4.02289 30.9606C4.2085 31.9508 5.0745 32.6695 6.08202 32.6695H27.9181C28.9256 32.6695 29.7915 31.9508 29.9772 30.9606L32.8618 15.5762C33.5178 15.3908 34 14.7872 34 14.0726C34 13.2109 33.299 12.5099 32.4373 12.5099ZM17.804 2.39114C17.9383 2.32148 18.0918 2.30827 18.236 2.35402C18.3803 2.39971 18.4981 2.49892 18.5678 2.63326L24.2178 13.5274C24.2874 13.6617 24.3006 13.8152 24.2549 13.9594C24.2092 14.1037 24.11 14.2215 23.9756 14.2912C23.8413 14.3609 23.6878 14.3741 23.5435 14.3284C23.3992 14.2827 23.2814 14.1835 23.2118 14.0492L17.5619 3.15495C17.418 2.87764 17.5267 2.53498 17.804 2.39114ZM24.4361 15.6353L23.9648 20.4948H17.498V15.6353H24.4361ZM17 4.23511L22.3276 14.5076C22.3511 14.553 22.3768 14.5969 22.4042 14.6392H11.5958C11.6232 14.5969 11.6489 14.553 11.6724 14.5077L12.1919 13.5061H19.7725C20.0475 13.5061 20.2705 13.2832 20.2705 13.008C20.2705 12.733 20.0475 12.51 19.7725 12.51H12.7084L17 4.23511ZM9.78217 13.5273L15.4322 2.63319C15.5019 2.49885 15.6197 2.39964 15.764 2.35396C15.8204 2.33603 15.8783 2.32719 15.9358 2.32719C16.0254 2.32719 16.1143 2.34871 16.196 2.39108C16.4733 2.53498 16.582 2.87757 16.4381 3.15488L10.7881 14.049C10.7184 14.1834 10.6006 14.2826 10.4563 14.3283C10.3122 14.374 10.1587 14.3608 10.0243 14.2911C9.88995 14.2214 9.79074 14.1036 9.74505 13.9593C9.6993 13.8151 9.71251 13.6617 9.78217 13.5273ZM2.16279 15.6353H8.56315L9.03444 20.4948H3.07395L2.16279 15.6353ZM3.26075 21.4908H9.13106L9.60234 26.3503H4.17184L3.26075 21.4908ZM6.08195 31.6735C5.55349 31.6735 5.09927 31.2965 5.00192 30.7771L4.35864 27.3463H9.6989L10.1186 31.6735H6.08195ZM16.502 31.6735H11.1193L10.6996 27.3463H16.502V31.6735ZM16.502 26.3503H10.603L10.1317 21.4908H16.502V26.3503ZM16.502 20.4948H10.0352L9.56389 15.6353H16.502V20.4948ZM22.8807 31.6735H17.498V27.3463H23.3004L22.8807 31.6735ZM23.397 26.3503H17.498V21.4909H23.8683L23.397 26.3503ZM28.9981 30.7771C28.9007 31.2965 28.4464 31.6735 27.918 31.6735H23.8814L24.3011 27.3463H29.6414L28.9981 30.7771ZM29.8282 26.3503H24.3977L24.869 21.4909H30.7393L29.8282 26.3503ZM30.9261 20.4947H24.9656L25.4369 15.6353H31.8372L30.9261 20.4947ZM32.4373 14.6392H32.4292C32.4289 14.6392 32.4286 14.6392 32.4283 14.6392H25.0245C25.1 14.5228 25.1614 14.3963 25.2045 14.2605C25.2831 14.0126 25.2985 13.7548 25.2526 13.5061H32.4373C32.7498 13.5061 33.0039 13.7603 33.0039 14.0727C33.0039 14.385 32.7497 14.6392 32.4373 14.6392Z" fill="#787882"/>
</svg>
