<svg width="34" height="34" viewBox="0 0 34 34" fill="none" xmlns="http://www.w3.org/2000/svg">
<path d="M26.2083 18.4166C21.9116 18.4166 18.4167 21.9115 18.4167 26.2083C18.4167 30.505 21.9116 33.9999 26.2083 33.9999C30.5051 33.9999 34 30.5051 34 26.2083C34 21.9116 30.5051 18.4166 26.2083 18.4166ZM26.2083 32.5833C22.6936 32.5833 19.8333 29.7231 19.8333 26.2083C19.8333 22.6936 22.6936 19.8333 26.2083 19.8333C29.7231 19.8333 32.5833 22.6936 32.5833 26.2083C32.5833 29.7231 29.7231 32.5833 26.2083 32.5833Z" fill="#787882"/>
<path d="M31.875 8.49988H0.708355C0.317355 8.49988 0 8.81723 0 9.20823C0 9.59923 0.317355 9.91659 0.708355 9.91659H31.875C32.266 9.91659 32.5834 9.59923 32.5834 9.20823C32.5834 8.81723 32.266 8.49988 31.875 8.49988Z" fill="#787882"/>
<path d="M30.6439 8.524C30.2699 8.422 29.876 8.643 29.774 9.02125L27.8417 16.1088C27.7383 16.4856 27.9607 16.8752 28.339 16.9786C28.4013 16.997 28.4636 17.0041 28.526 17.0041C28.8376 17.0041 29.1238 16.7973 29.2088 16.4814L31.1412 9.39379C31.2446 9.017 31.0221 8.62739 30.6439 8.524Z" fill="#787882"/>
<path d="M16.2916 24.0833H8.53964C7.58339 24.0833 6.74049 23.4387 6.48828 22.5179L2.80785 9.02271C2.70585 8.64446 2.31485 8.42346 1.93946 8.52546C1.56121 8.62746 1.33881 9.01707 1.44221 9.39386L5.12271 22.8905C5.54206 24.4276 6.94596 25.5 8.53971 25.5H16.2917C16.6827 25.5 17.0001 25.1826 17.0001 24.7916C17 24.4006 16.6826 24.0833 16.2916 24.0833Z" fill="#787882"/>
<path d="M15.2674 0.118996C14.9401 -0.0977544 14.501 -0.00850438 14.2856 0.31589L8.61899 8.81589C8.40224 9.14174 8.4901 9.58089 8.81589 9.79764C8.93628 9.87839 9.07228 9.91664 9.20828 9.91664C9.43638 9.91664 9.66163 9.80614 9.79763 9.60075L15.4643 1.10075C15.6811 0.77489 15.5932 0.335746 15.2674 0.118996Z" fill="#787882"/>
<path d="M23.9629 8.81578L18.2962 0.315781C18.0795 -0.0100749 17.6404 -0.097864 17.3145 0.118886C16.9886 0.335636 16.9009 0.774781 17.1176 1.10064L22.7842 9.60064C22.9216 9.80603 23.1455 9.91653 23.375 9.91653C23.511 9.91653 23.647 9.87828 23.766 9.79753C24.0919 9.58078 24.1796 9.14164 23.9629 8.81578Z" fill="#787882"/>
<path d="M29.0416 25.4999H23.375C22.984 25.4999 22.6666 25.8172 22.6666 26.2082C22.6666 26.5992 22.984 26.9166 23.375 26.9166H29.0416C29.4326 26.9166 29.75 26.5992 29.75 26.2082C29.75 25.8172 29.4326 25.4999 29.0416 25.4999Z" fill="#787882"/>
<path d="M26.2084 22.6666C25.8174 22.6666 25.5 22.984 25.5 23.375V29.0416C25.5 29.4326 25.8174 29.75 26.2084 29.75C26.5994 29.75 26.9167 29.4326 26.9167 29.0416V23.375C26.9166 22.984 26.5994 22.6666 26.2084 22.6666Z" fill="#787882"/>
</svg>
