<svg width="31" height="31" viewBox="0 0 31 31" fill="none" xmlns="http://www.w3.org/2000/svg">
<path d="M30.2172 12.9229C30.171 12.8677 30.1029 12.8359 30.0312 12.8359H21.5547C21.421 12.8359 21.3125 12.9444 21.3125 13.0781C21.3125 13.2118 21.421 13.3203 21.5547 13.3203H29.7416L26.6806 30.2734H4.31963L1.25862 13.3203H9.44528C9.57897 13.3203 9.68747 13.2118 9.68747 13.0781C9.68747 12.9444 9.57897 12.8359 9.44528 12.8359H0.968722C0.897034 12.8359 0.828979 12.8677 0.782722 12.9229C0.736706 12.9779 0.717573 13.0505 0.730409 13.1212L3.87885 30.5587C3.89968 30.674 3.99994 30.7578 4.11716 30.7578H26.8828C27 30.7578 27.1003 30.674 27.1211 30.5587L30.2695 13.1212C30.2824 13.0505 30.2632 12.9779 30.2172 12.9229Z" fill="#787882"/>
<path d="M20.1016 12.8359H10.8984C10.7648 12.8359 10.6562 12.9444 10.6562 13.0781C10.6562 13.2118 10.7648 13.3203 10.8984 13.3203H20.1016C20.2353 13.3203 20.3438 13.2118 20.3438 13.0781C20.3438 12.9444 20.2353 12.8359 20.1016 12.8359Z" fill="#787882"/>
<path d="M20.1016 12.8362H10.8984C10.7648 12.8362 10.6562 12.9447 10.6562 13.0784C10.6562 13.2121 10.7648 13.3206 10.8984 13.3206H20.1016C20.2353 13.3206 20.3438 13.2121 20.3438 13.0784C20.3438 12.9447 20.2353 12.8362 20.1016 12.8362Z" fill="#787882"/>
<path d="M30.2734 11.3831H21.3125C21.1788 11.3831 21.0703 11.4916 21.0703 11.6252C21.0703 11.7589 21.1788 11.8674 21.3125 11.8674H30.2734C30.4069 11.8674 30.5156 11.9762 30.5156 12.1096V12.594C30.5156 12.7274 30.4069 12.8362 30.2734 12.8362H21.5547C21.421 12.8362 21.3125 12.9447 21.3125 13.0784C21.3125 13.2121 21.421 13.3206 21.5547 13.3206H30.2734C30.674 13.3206 31 12.9946 31 12.594V12.1096C31 11.709 30.674 11.3831 30.2734 11.3831Z" fill="#787882"/>
<path d="M19.6172 11.3831H11.3828C11.2491 11.3831 11.1406 11.4916 11.1406 11.6252C11.1406 11.7589 11.2491 11.8674 11.3828 11.8674H19.6172C19.7509 11.8674 19.8594 11.7589 19.8594 11.6252C19.8594 11.4916 19.7509 11.3831 19.6172 11.3831Z" fill="#787882"/>
<path d="M9.6875 11.3831H0.726562C0.325984 11.3831 0 11.709 0 12.1096V12.594C0 12.9946 0.325984 13.3206 0.726562 13.3206H9.44531C9.579 13.3206 9.6875 13.2121 9.6875 13.0784C9.6875 12.9447 9.579 12.8362 9.44531 12.8362H0.726562C0.593117 12.8362 0.484375 12.7274 0.484375 12.594V12.1096C0.484375 11.9762 0.593117 11.8674 0.726562 11.8674H9.6875C9.82119 11.8674 9.92969 11.7589 9.92969 11.6252C9.92969 11.4916 9.82119 11.3831 9.6875 11.3831Z" fill="#787882"/>
<path d="M29.3047 15.7422H1.69531C1.56163 15.7422 1.45312 15.8507 1.45312 15.9844C1.45312 16.1181 1.56163 16.2266 1.69531 16.2266H29.3047C29.4384 16.2266 29.5469 16.1181 29.5469 15.9844C29.5469 15.8507 29.4384 15.7422 29.3047 15.7422Z" fill="#787882"/>
<path d="M27.8516 24.4609H3.14844C3.01475 24.4609 2.90625 24.5694 2.90625 24.7031C2.90625 24.8368 3.01475 24.9453 3.14844 24.9453H27.8516C27.9853 24.9453 28.0938 24.8368 28.0938 24.7031C28.0938 24.5694 27.9853 24.4609 27.8516 24.4609Z" fill="#787882"/>
<path d="M28.8203 18.6484H2.17969C2.046 18.6484 1.9375 18.7569 1.9375 18.8906C1.9375 19.0243 2.046 19.1328 2.17969 19.1328H28.8203C28.954 19.1328 29.0625 19.0243 29.0625 18.8906C29.0625 18.7569 28.954 18.6484 28.8203 18.6484Z" fill="#787882"/>
<path d="M28.3359 21.5547H2.66406C2.53038 21.5547 2.42188 21.6632 2.42188 21.7969C2.42188 21.9306 2.53038 22.0391 2.66406 22.0391H28.3359C28.4696 22.0391 28.5781 21.9306 28.5781 21.7969C28.5781 21.6632 28.4696 21.5547 28.3359 21.5547Z" fill="#787882"/>
<path d="M27.3672 27.3672H3.63281C3.49913 27.3672 3.39062 27.4757 3.39062 27.6094C3.39062 27.7431 3.49913 27.8516 3.63281 27.8516H27.3672C27.5009 27.8516 27.6094 27.7431 27.6094 27.6094C27.6094 27.4757 27.5009 27.3672 27.3672 27.3672Z" fill="#787882"/>
<path d="M8.718 13.0615C8.70856 12.928 8.59279 12.828 8.45959 12.8367C8.32614 12.8459 8.22563 12.9617 8.23484 13.0951L9.44578 30.5326C9.45474 30.6605 9.56106 30.7581 9.68724 30.7581C9.69281 30.7581 9.69862 30.7579 9.70419 30.7574C9.83763 30.7482 9.93814 30.6324 9.92894 30.499L8.718 13.0615Z" fill="#787882"/>
<path d="M12.3516 13.0718C12.348 12.9381 12.2395 12.8323 12.1029 12.8364C11.969 12.8401 11.8636 12.9515 11.8675 13.0851L12.3518 30.5226C12.3555 30.6539 12.463 30.7581 12.5938 30.7581C12.596 30.7581 12.5984 30.7581 12.6006 30.7581C12.7345 30.7544 12.8399 30.643 12.836 30.5093L12.3516 13.0718Z" fill="#787882"/>
<path d="M7.02198 30.489L5.08448 13.0515C5.0697 12.9185 4.94934 12.8226 4.8171 12.8376C4.68414 12.8524 4.58848 12.972 4.60325 13.105L6.54075 30.5425C6.55431 30.6665 6.65942 30.758 6.781 30.758C6.78996 30.758 6.79892 30.7575 6.80813 30.7563C6.94109 30.7416 7.03675 30.6219 7.02198 30.489Z" fill="#787882"/>
<path d="M15.5 12.8359C15.3663 12.8359 15.2578 12.9444 15.2578 13.0781V30.5156C15.2578 30.6493 15.3663 30.7578 15.5 30.7578C15.6337 30.7578 15.7422 30.6493 15.7422 30.5156V13.0781C15.7422 12.9444 15.6337 12.8359 15.5 12.8359Z" fill="#787882"/>
<path d="M22.5404 12.837C22.4082 12.8292 22.2912 12.9283 22.282 13.0617L21.0711 30.4992C21.0619 30.6327 21.1624 30.7484 21.2958 30.7576C21.3014 30.7579 21.3072 30.7581 21.3128 30.7581C21.4387 30.7581 21.5453 30.6605 21.5542 30.5329L22.7652 13.0954C22.7744 12.9619 22.6739 12.8462 22.5404 12.837Z" fill="#787882"/>
<path d="M18.8971 12.8364C18.753 12.8265 18.652 12.9381 18.6484 13.0718L18.164 30.5093C18.1604 30.643 18.2658 30.7544 18.3994 30.7581C18.4016 30.7581 18.404 30.7581 18.4062 30.7581C18.537 30.7581 18.6445 30.6539 18.6482 30.5227L19.1325 13.0852C19.1362 12.9515 19.0308 12.8401 18.8971 12.8364Z" fill="#787882"/>
<path d="M26.1829 12.8379C26.0499 12.8234 25.9303 12.9188 25.9155 13.0517L23.978 30.4892C23.9632 30.6222 24.0589 30.7418 24.1919 30.7566C24.2011 30.7576 24.21 30.7581 24.219 30.7581C24.3408 30.7581 24.4457 30.6665 24.4592 30.5428L26.3967 13.1053C26.4115 12.9723 26.3158 12.8527 26.1829 12.8379Z" fill="#787882"/>
<path d="M21.7455 12.2816L17.8705 0.898756C17.7366 0.505928 17.368 0.241943 16.9534 0.241943C16.8473 0.241943 16.7422 0.259381 16.6412 0.293771C16.3963 0.377326 16.1985 0.551217 16.0842 0.783232C15.9698 1.01549 15.9529 1.27826 16.0362 1.52312L19.9112 12.9059C20.0451 13.2988 20.4135 13.5627 20.8281 13.5627C20.9344 13.5627 21.0398 13.5453 21.1405 13.5109C21.3854 13.4274 21.5833 13.2535 21.6976 13.0215C21.8119 12.7892 21.8288 12.5264 21.7455 12.2816ZM21.2631 12.8074C21.2059 12.9236 21.1071 13.0106 20.9843 13.0522C20.7356 13.1367 20.4537 12.9965 20.3699 12.7497L16.4949 1.3669C16.4532 1.24436 16.4617 1.11309 16.5189 0.997084C16.5758 0.881076 16.6748 0.794131 16.7974 0.752475C16.848 0.735037 16.9006 0.726318 16.9534 0.726318C17.1607 0.726318 17.345 0.858311 17.4121 1.05472L21.2871 12.4375C21.3287 12.5601 21.3202 12.6913 21.2631 12.8074Z" fill="#787882"/>
<path d="M14.9163 0.783232C14.8023 0.551217 14.6044 0.377326 14.3595 0.294014C14.2583 0.259381 14.1532 0.241943 14.0471 0.241943C13.6322 0.241943 13.2636 0.505928 13.1299 0.898756L9.25495 12.2816C9.17164 12.5264 9.18859 12.7892 9.3029 13.0215C9.41721 13.2535 9.61508 13.4274 9.85969 13.5107C9.96068 13.5453 10.066 13.5627 10.1724 13.5627C10.587 13.5627 10.9553 13.2988 11.0893 12.9059L14.9643 1.52312C15.0476 1.27826 15.0306 1.01549 14.9163 0.783232ZM14.5058 1.36666L10.6308 12.7495C10.5468 12.9965 10.2658 13.1375 10.0161 13.052C9.8936 13.0103 9.79479 12.9234 9.73763 12.8074C9.68047 12.6913 9.672 12.5601 9.71365 12.4375L13.5887 1.05472C13.6555 0.858311 13.8398 0.726318 14.0471 0.726318C14.0999 0.726318 14.1525 0.735037 14.2033 0.752232C14.3259 0.793889 14.4247 0.880834 14.4818 0.996842C14.539 1.11285 14.5475 1.24412 14.5058 1.36666Z" fill="#787882"/>
<path d="M21.7455 12.2816L17.8705 0.898756C17.7366 0.505928 17.368 0.241943 16.9534 0.241943C16.8473 0.241943 16.7422 0.259381 16.6412 0.293771C16.3963 0.377326 16.1985 0.551217 16.0842 0.783232C15.9698 1.01549 15.9529 1.27826 16.0362 1.52312L19.9112 12.9059C20.0451 13.2988 20.4135 13.5627 20.8281 13.5627C20.9344 13.5627 21.0398 13.5453 21.1405 13.5109C21.3854 13.4274 21.5833 13.2535 21.6976 13.0215C21.8119 12.7892 21.8288 12.5264 21.7455 12.2816ZM21.2631 12.8074C21.2059 12.9236 21.1071 13.0106 20.9843 13.0522C20.7356 13.1367 20.4537 12.9965 20.3699 12.7497L16.4949 1.3669C16.4532 1.24436 16.4617 1.11309 16.5189 0.997084C16.5758 0.881076 16.6748 0.794131 16.7974 0.752475C16.848 0.735037 16.9006 0.726318 16.9534 0.726318C17.1607 0.726318 17.345 0.858311 17.4121 1.05472L21.2871 12.4375C21.3287 12.5601 21.3202 12.6913 21.2631 12.8074Z" fill="#787882"/>
<path d="M14.9163 0.783232C14.8023 0.551217 14.6044 0.377326 14.3595 0.294014C14.2583 0.259381 14.1532 0.241943 14.0471 0.241943C13.6322 0.241943 13.2636 0.505928 13.1299 0.898756L9.25495 12.2816C9.17164 12.5264 9.18859 12.7892 9.3029 13.0215C9.41721 13.2535 9.61508 13.4274 9.85969 13.5107C9.96068 13.5453 10.066 13.5627 10.1724 13.5627C10.587 13.5627 10.9553 13.2988 11.0893 12.9059L14.9643 1.52312C15.0476 1.27826 15.0306 1.01549 14.9163 0.783232ZM14.5058 1.36666L10.6308 12.7495C10.5468 12.9965 10.2658 13.1375 10.0161 13.052C9.8936 13.0103 9.79479 12.9234 9.73763 12.8074C9.68047 12.6913 9.672 12.5601 9.71365 12.4375L13.5887 1.05472C13.6555 0.858311 13.8398 0.726318 14.0471 0.726318C14.0999 0.726318 14.1525 0.735037 14.2033 0.752232C14.3259 0.793889 14.4247 0.880834 14.4818 0.996842C14.539 1.11285 14.5475 1.24412 14.5058 1.36666Z" fill="#787882"/>
<path d="M10.3438 12.4218C10.2542 12.3322 10.092 12.3322 9.99992 12.4218C9.95633 12.4678 9.92969 12.5308 9.92969 12.5938C9.92969 12.6567 9.95633 12.7197 9.99992 12.7657C10.0459 12.8093 10.1089 12.836 10.1719 12.836C10.2348 12.836 10.2978 12.8093 10.3438 12.7657C10.3874 12.7197 10.4141 12.6592 10.4141 12.5938C10.4141 12.5308 10.3874 12.4678 10.3438 12.4218Z" fill="#787882"/>
<path d="M21.0001 12.4218C20.9105 12.3322 20.7458 12.3322 20.6562 12.4218C20.6126 12.4678 20.5859 12.5284 20.5859 12.5938C20.5859 12.6592 20.6126 12.7197 20.6562 12.7657C20.7022 12.8093 20.7652 12.836 20.8281 12.836C20.8911 12.836 20.9541 12.8093 21.0001 12.7657C21.0437 12.7197 21.0703 12.6567 21.0703 12.5938C21.0703 12.5308 21.0437 12.4678 21.0001 12.4218Z" fill="#787882"/>
</svg>
