<svg width="29" height="29" viewBox="0 0 29 29" fill="none" xmlns="http://www.w3.org/2000/svg">
<path d="M27.6638 28.2777L25.4969 8.08966C25.4608 7.76463 25.1719 7.51183 24.8469 7.51183H20.8382V6.28393C20.8382 2.81694 18.0212 0 14.5542 0C11.0872 0 8.2703 2.81694 8.2703 6.28393V7.51183H4.15323C3.8282 7.51183 3.53929 7.76463 3.50317 8.08966L1.3363 28.2777C1.30018 28.4583 1.37241 28.6389 1.48076 28.7833C1.5891 28.9278 1.76967 29 1.95025 29H27.0499C27.2304 29 27.411 28.9278 27.5194 28.7833C27.6277 28.6389 27.6999 28.4583 27.6638 28.2777ZM20.1881 11.1594C20.5131 11.1594 20.7659 11.4122 20.7659 11.7372C20.7659 12.0623 20.5131 12.3151 20.1881 12.3151C19.8631 12.3151 19.6103 12.0623 19.6103 11.7372C19.6103 11.4122 19.8631 11.1594 20.1881 11.1594ZM9.57042 6.28393C9.57042 3.53923 11.8095 1.30012 14.5542 1.30012C17.2989 1.30012 19.538 3.53923 19.538 6.28393V7.51183H9.57042V6.28393ZM8.92036 11.1594C9.24539 11.1594 9.49819 11.4122 9.49819 11.7372C9.49819 12.0623 9.24539 12.3151 8.92036 12.3151C8.59533 12.3151 8.34253 12.0623 8.34253 11.7372C8.34253 11.4122 8.59533 11.1594 8.92036 11.1594ZM2.70865 27.6638L4.73107 8.77584H8.2703V9.96762C7.548 10.2204 7.0424 10.9066 7.0424 11.7011C7.0424 12.7123 7.87304 13.543 8.88424 13.543C9.89545 13.543 10.7261 12.7123 10.7261 11.7011C10.7261 10.9066 10.2205 10.2204 9.49819 9.96762V8.77584H19.4658V9.96762C18.7435 10.2204 18.2379 10.9066 18.2379 11.7011C18.2379 12.7123 19.0686 13.543 20.0798 13.543C21.091 13.543 21.9216 12.7123 21.9216 11.7011C21.9216 10.9066 21.416 10.2204 20.6937 9.96762V8.77584H24.3774L26.3998 27.6638H2.70865Z" fill="#787882"/>
</svg>
