<svg width="28" height="28" viewBox="0 0 28 28" fill="none" xmlns="http://www.w3.org/2000/svg">
<path d="M5.60205 21.6759C6.04591 22.1197 6.76558 22.1197 7.20943 21.6759L13.6389 15.2464L20.0684 21.6759C20.5123 22.1197 21.2319 22.1197 21.6758 21.6759C22.1196 21.232 22.1196 20.5123 21.6758 20.0685L15.2463 13.639L21.6758 7.20949C22.1196 6.76564 22.1196 6.04597 21.6758 5.60212C21.2319 5.15826 20.5123 5.15826 20.0684 5.60212L13.6389 12.0316L7.20943 5.60212C6.76558 5.15826 6.04591 5.15826 5.60205 5.60212C5.1582 6.04597 5.1582 6.76564 5.60205 7.20949L12.0315 13.639L5.60205 20.0685C5.1582 20.5124 5.1582 21.232 5.60205 21.6759Z" fill="#787882"/>
<path d="M26.1414 0H1.13656C0.508851 0 0 0.508851 0 1.13656V26.1413C0 26.7691 0.508851 27.2779 1.13656 27.2779H26.1413C26.769 27.2779 27.2779 26.7691 27.2779 26.1414V1.13656C27.2779 0.508851 26.7691 0 26.1414 0ZM25.0048 25.0048H2.27318V2.27318H25.0048V25.0048H25.0048Z" fill="#787882"/>
</svg>
