<svg width="28" height="28" viewBox="0 0 28 28" fill="none" xmlns="http://www.w3.org/2000/svg">
<g clip-path="url(#clip0)">
<path d="M26.1414 0H1.13656C0.508052 0 0 0.50917 0 1.13656V26.1413C0 26.7699 0.508052 27.2779 1.13656 27.2779H26.1413C26.7687 27.2779 27.2779 26.7699 27.2779 26.1414V1.13656C27.2779 0.50917 26.7688 0 26.1414 0ZM21.6757 20.0686C22.1201 20.513 22.1201 21.2313 21.6757 21.6757C21.4541 21.8974 21.1631 22.0088 20.8721 22.0088C20.5812 22.0088 20.2902 21.8974 20.0686 21.6757L13.639 15.2461L7.20819 21.6757C6.98656 21.8974 6.69561 22.0088 6.40461 22.0088C6.11479 22.0088 5.82384 21.8974 5.60103 21.6757C5.15777 21.2313 5.15777 20.513 5.60103 20.0686L12.0319 13.639L5.60109 7.21048C5.15782 6.7661 5.15782 6.04664 5.60109 5.60221C6.04547 5.15894 6.76493 5.15894 7.20819 5.60221L13.639 12.0319L20.0686 5.60221C20.513 5.15894 21.2313 5.15894 21.6757 5.60221C22.1201 6.04659 22.1201 6.76605 21.6757 7.21048L15.2461 13.639L21.6757 20.0686Z" fill="#787882"/>
</g>
<defs>
<clipPath id="clip0">
<rect width="27.2779" height="27.2779" fill="white"/>
</clipPath>
</defs>
</svg>
