<svg width="28" height="28" viewBox="0 0 28 28" fill="none" xmlns="http://www.w3.org/2000/svg">
<path d="M26.7231 3.92067C26.3439 2.72801 25.8299 1.87406 25.8081 1.83817C25.7239 1.69926 25.5504 1.627 25.3932 1.66305C25.3525 1.67234 24.3819 1.89889 23.2623 2.45805C21.7508 3.21267 20.695 4.22012 20.2085 5.37096C19.8037 6.32938 19.7455 7.50105 20.0328 8.79544C19.4209 8.11212 18.7326 7.51435 17.9823 7.0111C17.7532 6.55849 17.1474 5.44418 16.2004 4.27956C15.8884 3.89616 15.2884 4.37729 15.6036 4.76454C16.2417 5.54944 16.7221 6.32137 17.0225 6.85169L13.5196 6.16884L10.1916 1.6294C10.5148 1.63389 10.839 1.66513 11.1617 1.72842C12.1847 1.92869 13.1952 2.44972 14.1656 3.27676C14.5458 3.60088 15.0396 3.01096 14.6644 2.69132C13.5924 1.77776 12.4636 1.1997 11.3094 0.973634C9.54753 0.628846 7.49258 1.08146 5.36617 2.28309C3.7813 3.17871 2.72146 4.16244 2.67725 4.20378C2.53545 4.33628 2.51286 4.57692 2.63158 4.73169C2.78699 5.05052 3.37595 6.20073 4.35632 7.43904C4.93423 8.16916 5.54369 8.794 6.17415 9.3075C5.99503 9.45762 5.82071 9.61464 5.652 9.77982C4.75094 10.6612 4.06104 11.7008 3.60811 12.8374C3.20772 13.8417 2.99239 14.922 2.98038 16.0355C2.96051 17.8564 3.48811 19.6125 4.50645 21.1144C5.50124 22.5813 6.89192 23.7077 8.52806 24.3715C8.98596 24.5568 9.27548 23.8447 8.81726 23.6588C8.22445 23.4183 7.66754 23.1102 7.15388 22.7438C7.21957 22.3795 7.37193 21.0683 6.50099 19.7109C6.37907 19.521 6.74356 18.7754 6.96114 18.33C7.18576 17.871 7.4176 17.3964 7.5259 16.9495C7.64094 16.4748 7.51148 16.0764 7.1518 15.7968C6.88776 15.5915 6.54217 15.4853 6.2376 15.3916C6.03973 15.3307 5.81542 15.2618 5.73531 15.195C5.57029 15.0567 5.3008 14.5458 5.08419 14.1355C4.84386 13.6803 4.61507 13.2471 4.38148 12.9803C4.90715 11.7319 5.7515 10.6272 6.80893 9.78206C7.77488 10.4401 8.87734 10.8941 10.0492 10.9861C8.6902 12.039 8.25057 13.3837 8.87894 14.6754C9.61273 16.1837 11.1231 15.9427 12.4556 15.7305C12.6862 15.6936 12.9247 15.6556 13.1532 15.6271C13.2389 15.6164 13.2647 15.6398 13.282 15.655C13.5738 15.9145 13.5651 17.1541 13.5589 18.0594C13.5504 19.3115 13.5424 20.4942 14.0088 21.1014C14.2467 21.411 14.5817 21.5693 14.9744 21.5693C15.2098 21.5693 15.4655 21.5125 15.7337 21.3975C16.8935 20.9008 18.0991 19.406 17.9152 18.2233C17.7545 17.1892 17.6481 16.5061 17.8989 15.9554C18.1307 15.4457 18.6911 14.9739 19.7949 14.3718C19.927 14.967 19.9937 15.5863 19.9868 16.2215C19.9633 18.3899 19.0965 20.4194 17.5464 21.9358C15.8139 23.6306 13.3791 24.4676 10.9706 24.2021C10.4798 24.1489 10.3951 24.9125 10.8865 24.9667C13.5228 25.257 16.1884 24.3405 18.0841 22.4857C19.7812 20.8254 20.7301 18.6038 20.7559 16.2297C20.7901 13.0819 19.175 10.2932 16.7163 8.68666C17.2243 8.32441 17.6028 8.01118 17.8127 7.82933C18.7091 8.47245 19.5042 9.26472 20.1658 10.1877C21.7538 12.404 22.3837 15.1058 21.9395 17.7958C21.0223 23.3488 15.7587 27.1208 10.2047 26.2032C7.51453 25.7589 5.15853 24.2939 3.57046 22.0776C1.98222 19.8615 1.35241 17.1594 1.79669 14.4695C1.87648 13.9855 1.11817 13.8585 1.03806 14.3443C0.560133 17.237 1.23769 20.1425 2.94513 22.5258C4.65289 24.9087 7.18672 26.4842 10.0794 26.9622C10.6844 27.062 11.29 27.1113 11.8915 27.1113C14.165 27.1113 16.3766 26.4054 18.2613 25.0549C20.6448 23.3472 22.2206 20.8138 22.6982 17.9211C23.0482 15.8014 22.7773 13.6749 21.9359 11.7519C22.3242 11.6374 22.9851 11.415 23.709 11.0535C25.2201 10.2989 26.2761 9.29148 26.7624 8.14064C27.2491 6.98947 27.2355 5.53022 26.7231 3.92067ZM4.40391 14.4944C4.69006 15.0369 4.96066 15.5496 5.24184 15.7848C5.44099 15.9512 5.71817 16.0365 6.01153 16.1267C6.76311 16.3577 6.85043 16.4711 6.77833 16.7683C6.68989 17.1338 6.47648 17.5702 6.27028 17.9921C5.8731 18.8047 5.49803 19.5718 5.85355 20.1262C6.35776 20.9119 6.44412 21.6854 6.43546 22.1665C4.145 20.1012 3.21237 16.839 4.06553 13.874C4.17864 14.0679 4.29752 14.2931 4.40391 14.4944ZM23.0091 6.9374L21.9163 4.28901C22.4481 3.7917 23.0651 3.41743 23.5906 3.15387C24.0382 2.92925 24.4641 2.76134 24.8057 2.6423L23.0091 6.9374ZM25.5146 2.94046C25.6673 3.26859 25.8444 3.69172 25.9956 4.16997C26.1614 4.69484 26.3136 5.34532 26.3439 6.02384L23.7828 7.08048L25.5146 2.94046ZM20.9169 5.67041C21.0303 5.4022 21.1769 5.15354 21.3463 4.92395L22.5903 7.93844L21.4739 10.608C21.3171 10.2752 21.1324 9.83814 20.9757 9.34163C20.6612 8.34748 20.3958 6.90328 20.9169 5.67041ZM23.3805 10.3577C22.9497 10.574 22.5386 10.7378 22.2037 10.8558L23.3623 8.08616L26.3112 6.86931C26.2684 7.19968 26.1869 7.52716 26.0541 7.84119C25.5332 9.07406 24.3127 9.89037 23.3805 10.3577ZM9.5142 10.1389C9.37834 10.1123 9.24423 10.0797 9.11205 10.0427L13.3681 6.92298L16.8725 7.60599C15.5959 8.61184 12.4891 10.7217 9.5142 10.1389ZM5.6246 7.73288C4.71441 6.75187 4.04726 5.70293 3.66418 5.0313L8.12383 5.9008L5.6246 7.73288ZM6.41223 2.60224L8.27812 5.1473L3.78963 4.27235C4.35472 3.82614 5.28751 3.15627 6.41223 2.60224ZM9.39067 5.36423L7.12856 2.2786C7.8058 2.00031 8.53271 1.78129 9.27788 1.68388L12.4072 5.95207L9.39067 5.36423ZM9.15131 6.10107L12.3408 6.72271L8.24736 9.7231C7.47543 9.36662 6.78073 8.85408 6.17287 8.28435L9.15131 6.10107ZM19.5859 13.6105C18.1996 14.3491 17.5207 14.9292 17.1987 15.6369C16.8528 16.3968 16.9795 17.2125 17.155 18.3414C17.2586 19.0071 16.4675 20.2467 15.4309 20.6906C15.0473 20.8548 14.7741 20.8355 14.6186 20.6328C14.313 20.2351 14.3214 19.0316 14.3279 18.0647C14.3371 16.7268 14.3451 15.5715 13.7931 15.0805C13.5946 14.9039 13.3407 14.8292 13.0585 14.8638C12.8168 14.894 12.5715 14.9331 12.3345 14.9709C10.9209 15.1961 10.0314 15.2863 9.5706 14.339C8.82398 12.8046 10.3353 11.668 11.0198 11.2506C11.1592 11.1657 11.2884 11.0656 11.4086 10.9541C13.0629 10.7563 14.6259 10.0466 16.0189 9.15754C17.689 10.1554 18.971 11.7345 19.5859 13.6105Z" fill="#0E7C03"/>
</svg>
