<svg width="69" height="68" viewBox="0 0 69 68" fill="none" xmlns="http://www.w3.org/2000/svg">
<path d="M67.85 65.5617H66.2174L53.9169 44.0369C52.9902 42.4138 51.2636 41.4117 49.3936 41.4117H47.1534C45.7793 41.4117 44.4165 41.149 43.1377 40.6381L41.8501 40.123C40.5134 39.5879 39.104 39.2619 37.6709 39.153C38.0544 38.4595 38.4341 37.7043 38.7985 36.8904C39.7009 36.0229 40.7706 35.5069 42.7898 34.8707C43.054 34.7875 43.0836 34.778 43.6437 34.6078C49.5525 37.2625 53.5956 36.3497 55.9892 33.0672C56.3805 32.5306 56.697 31.9692 56.9728 31.3658C57.1187 31.0471 57.3863 30.3829 57.3825 30.3912C57.6467 29.8136 57.3926 29.1313 56.8152 28.8671C57.0784 28.9876 55.733 28.2897 55.0225 27.9912C52.8491 27.0783 50.6759 26.7264 48.5668 27.2762C46.2199 27.8881 44.2705 29.5801 42.8529 32.4442C42.8113 32.4569 42.7726 32.4688 42.735 32.4802C42.4912 32.5546 42.2893 32.617 42.0988 32.6771C41.3546 32.9116 40.7115 33.1379 40.1395 33.3751C41.2049 30.0135 41.6705 26.5649 41.3871 23.1036C48.3674 24.4041 52.9946 22.3373 55.5963 18.015C56.2085 16.9981 56.6629 15.9233 57.0018 14.8041C57.1247 14.398 57.2255 14.0098 57.317 13.6079C57.361 13.4149 57.4565 12.9643 57.4655 12.9257C57.6107 12.3074 57.2273 11.6886 56.609 11.5433C56.3274 11.4771 56.026 11.4142 55.6389 11.3472C55.072 11.2492 54.4636 11.1699 53.8201 11.1176C52.0659 10.975 50.2982 11.0494 48.5899 11.4169C44.948 12.2004 42.0594 14.1979 40.2801 17.599C39.7179 15.8701 38.9456 14.1482 37.9466 12.4419C37.877 6.4098 34.971 2.71628 30.2477 1.02079C27.9005 0.178239 25.6757 -0.0434502 23.3039 0.00668264C23.0957 0.0113994 23.0368 0.0127471 22.9999 0.0127471C22.3648 0.0127471 21.85 0.527552 21.85 1.1627C21.85 1.2154 21.8486 1.27739 21.8438 1.47751C21.7943 3.60492 22.0238 5.38127 22.9465 7.31987C24.8613 11.3429 29.0894 13.7398 36.0846 13.813C37.5497 16.3703 38.4566 18.9659 38.8796 21.5657C38.8792 21.5734 38.8789 21.581 38.8787 21.5889C38.8781 21.6037 38.8785 21.6184 38.8785 21.6331C38.8785 21.6557 38.8785 21.6782 38.8797 21.701C38.8807 21.7158 38.8824 21.7305 38.8839 21.7453C38.8861 21.7678 38.8882 21.7902 38.8919 21.8127C38.8942 21.8267 38.8973 21.8406 38.9 21.8545C38.9044 21.8773 38.9089 21.8999 38.9148 21.9225C38.9183 21.9359 38.9226 21.9488 38.9266 21.962C38.9332 21.9841 38.9397 22.0062 38.9478 22.0282C39.0881 23.0247 39.1595 24.0214 39.1637 25.0165C37.9265 23.3046 36.2366 22.217 34.2032 21.7054C32.3304 21.2343 30.3864 21.2903 28.4775 21.663C28.0203 21.7522 27.6487 21.843 27.3147 21.9318C26.7045 22.0806 26.3265 22.6915 26.4658 23.304C26.472 23.3311 26.5414 23.6682 26.5735 23.8133C26.6403 24.1152 26.7138 24.4056 26.8037 24.7088C27.0514 25.5453 27.3855 26.3478 27.8388 27.1095C29.7669 30.3484 33.2277 31.9161 38.412 31.0318C38.0372 32.5308 37.5311 34.0171 36.9048 35.4831C36.4185 36.6212 35.8981 37.644 35.3792 38.5339C35.2486 38.758 35.1322 38.9499 35.0307 39.1122H33.9884C32.4747 39.1122 31.0722 39.9061 30.294 41.2036L28.099 44.8621H24.5676C23.2128 44.8621 21.9408 45.5165 21.1535 46.6191L17.9314 51.1292C17.1329 52.2482 15.843 52.912 14.4683 52.912C12.2257 52.912 10.1392 54.0573 8.93685 55.9487L2.81876 65.5617H1.14996C0.514805 65.5617 0 66.0765 0 66.7116C0 67.3468 0.514805 67.8616 1.14996 67.8616H3.45H65.55H67.85C68.4852 67.8616 69 67.3468 69 66.7116C69 66.0765 68.4852 65.5617 67.85 65.5617ZM49.1471 29.5016C50.6831 29.1012 52.3814 29.3762 54.1318 30.1114C54.3843 30.2175 54.6247 30.3276 54.8647 30.4452C54.653 30.9033 54.4154 31.3218 54.1309 31.7119C52.6657 33.7211 50.3794 34.4971 46.7141 33.3352C47.4941 33.0761 48.2844 32.8778 49.1078 32.741C49.7343 32.6368 50.1579 32.0445 50.0537 31.418C49.9495 30.7915 49.3572 30.3679 48.7307 30.4721C48.0239 30.5896 47.3391 30.7467 46.6662 30.9416C47.417 30.205 48.2462 29.7365 49.1471 29.5016ZM49.0738 13.6653C50.542 13.3494 52.0893 13.2843 53.6339 13.4098C54.1246 13.4497 54.5636 13.5027 54.9612 13.5644C54.912 13.7545 54.8592 13.9439 54.8006 14.1373C54.5135 15.0853 54.1319 15.988 53.6259 16.8285C51.6753 20.069 48.3662 21.7302 43.0815 21.0478C43.8331 20.5572 44.7026 19.9915 45.0624 19.768C46.8463 18.6603 48.2398 18.0034 49.7482 17.6289C50.3646 17.4758 50.7402 16.8521 50.5872 16.2357C50.4342 15.6193 49.8105 15.2437 49.194 15.3966C47.4154 15.8383 45.8194 16.5905 43.8491 17.8141C43.5345 18.0093 42.8669 18.4421 42.2148 18.867C43.6619 15.9614 46.0173 14.323 49.0738 13.6653ZM25.0233 6.33137C24.3977 5.017 24.1683 3.75937 24.1406 2.30134C25.9631 2.31913 27.6992 2.54958 29.4708 3.18553C32.4468 4.25382 34.4741 6.20981 35.2711 9.3574C33.8371 8.02524 32.264 6.88862 30.4492 5.90227C29.8912 5.59905 29.1929 5.80551 28.8897 6.36358C28.5865 6.92164 28.7929 7.61986 29.351 7.92309C31.1585 8.90539 32.6971 10.0489 34.102 11.4197C29.1978 10.9933 26.365 9.1504 25.0233 6.33137ZM29.8149 25.9325C29.4673 25.3487 29.2055 24.7195 29.0087 24.0552C28.9943 24.0067 28.9804 23.9584 28.9671 23.9105C30.5569 23.6056 32.1632 23.5634 33.6419 23.9355C35.2772 24.347 36.593 25.2313 37.5344 26.7097C37.4089 26.635 37.2865 26.5635 37.1643 26.4931C36.8161 26.293 36.4839 26.1129 36.1556 25.9477C35.5882 25.6621 34.8969 25.8906 34.6113 26.4579C34.3257 27.0253 34.5542 27.7167 35.1215 28.0022C35.4101 28.1475 35.7052 28.3073 36.0181 28.4872C36.2559 28.6239 36.4976 28.7682 36.7691 28.9352C33.2727 29.2523 31.1016 28.0939 29.8149 25.9325ZM5.54507 65.5617L10.8775 57.1826C11.6579 55.9549 13.0122 55.2117 14.4682 55.2117C14.5808 55.2117 14.693 55.2072 14.8049 55.2016C14.8527 55.2076 14.9008 55.2117 14.9501 55.2117C16.8576 55.2117 18.4001 56.7542 18.4001 58.6617C18.4001 59.2968 18.9149 59.8116 19.55 59.8116C20.1852 59.8116 20.7 59.2968 20.7 58.6617C20.7 56.7295 19.748 55.0225 18.2882 53.9802C18.8653 53.5662 19.3797 53.0584 19.803 52.4653L23.025 47.9555C23.3806 47.4574 23.9554 47.1616 24.5675 47.1616H28.7501C30.6576 47.1616 32.2001 48.7041 32.2001 50.6116C32.2001 51.2467 32.7149 51.7615 33.35 51.7615C33.9852 51.7615 34.5 51.2467 34.5 50.6116C34.5 48.0807 32.8677 45.9356 30.5981 45.1664L32.2661 42.3862C32.6288 41.7816 33.2824 41.4115 33.9883 41.4115H36.5976C38.1055 41.4115 39.5979 41.6989 40.9957 42.2584L42.2839 42.7737C43.8344 43.3931 45.4869 43.7116 47.1534 43.7116H49.3936C50.3487 43.7116 51.2356 44.1807 51.7763 44.9538C48.4982 45.4899 46 48.3307 46 51.7615C46 52.3967 46.5148 52.9115 47.1499 52.9115C47.7851 52.9115 48.2999 52.3967 48.2999 51.7615C48.2999 49.2181 50.3564 47.1616 52.8998 47.1616C52.95 47.1616 52.9989 47.1573 53.0473 47.1511L63.5681 65.5615H5.54507V65.5617Z" fill="#787882"/>
</svg>
