<svg width="26" height="32" viewBox="0 0 26 32" fill="none" xmlns="http://www.w3.org/2000/svg">
<g clip-path="url(#clip0)">
<path d="M25.4691 7.75482C25.7048 7.50823 25.771 7.14424 25.6368 6.8314C25.5026 6.51772 25.194 6.31391 24.8535 6.31391H18.3669L19.3532 4.19952C20.2943 4.49643 21.3049 4.11565 21.705 3.26101C22.1033 2.40636 21.7452 1.38817 20.9132 0.857267L21.1246 0.404364C21.1908 0.261783 21.1296 0.0932024 20.987 0.0269444C20.8444 -0.0393137 20.6759 0.0219121 20.6096 0.164493L20.3983 0.617396C19.4564 0.320493 18.4466 0.701267 18.0473 1.55591C17.6481 2.41056 18.0071 3.42875 18.8391 3.95965L17.7395 6.31307H1.45683C1.11548 6.31307 0.807672 6.51688 0.673478 6.83056C0.539284 7.14423 0.605542 7.50823 0.84122 7.75398L12.3777 19.8071V29.8531H9.17296C8.76116 29.8531 8.42735 30.1869 8.42735 30.5988C8.42735 31.0106 8.76032 31.3452 9.17296 31.3452H17.1382C17.55 31.3452 17.8838 31.0114 17.8838 30.5988C17.8838 30.1878 17.5508 29.8531 17.1382 29.8531H13.9326V19.8079L25.4691 7.75482ZM16.9444 8.01817L15.8415 10.3842H6.9638L13.156 16.8531L19.3482 10.3842H16.4689L17.5718 8.01817H22.8582L13.156 18.1548L3.45212 8.01817H16.9444Z" fill="#787882"/>
</g>
<defs>
<clipPath id="clip0">
<path d="M0 0H26V31.871H0V0Z" fill="white"/>
</clipPath>
</defs>
</svg>
