<svg width="32" height="21" viewBox="0 0 32 21" fill="none" xmlns="http://www.w3.org/2000/svg">
<g clip-path="url(#clip0)">
<path d="M6.77698 10.3128H12.412V9.61416C12.412 8.57245 11.8357 7.61858 10.908 7.12498L10.6089 6.96573V5.29688H8.57996V6.96573L8.28101 7.12498C7.35329 7.61873 6.77698 8.57245 6.77698 9.61416V10.3128Z" fill="#787882"/>
<path d="M20.3036 9.61416V10.3128H25.9385V9.61416C25.9385 8.57245 25.3622 7.61858 24.4345 7.12498L24.1355 6.96573V5.29688H22.1066V6.96573L21.8075 7.12498C20.8798 7.61873 20.3036 8.57245 20.3036 9.61416Z" fill="#787882"/>
<path d="M22.1066 0.830078H24.1353V4.16867H22.1066V0.830078Z" fill="#787882"/>
<path d="M8.57996 0.830078H10.6089V4.16867H8.57996V0.830078Z" fill="#787882"/>
<path d="M6.77698 18.3926H12.412V20.0849H6.77698V18.3926Z" fill="#787882"/>
<path d="M20.3036 11.4414H25.9385V17.2649H20.3036V11.4414Z" fill="#787882"/>
<path d="M20.3036 18.3926H25.9385V20.0849H20.3036V18.3926Z" fill="#787882"/>
<path d="M6.77698 11.4414H12.412V17.2649H6.77698V11.4414Z" fill="#787882"/>
<path d="M13.5403 9.61416V10.3128H19.1753V9.61416C19.1753 8.57245 18.599 7.61858 17.6713 7.12498L17.3722 6.96573V5.29688H15.3433V6.96573L15.0443 7.12498C14.1165 7.61873 13.5403 8.57245 13.5403 9.61416Z" fill="#787882"/>
<path d="M15.3433 0.830078H17.3722V4.16867H15.3433V0.830078Z" fill="#787882"/>
<path d="M13.5403 11.4414H19.1753V17.2649H13.5403V11.4414Z" fill="#787882"/>
<path d="M13.5403 18.3926H19.1753V20.0849H13.5403V18.3926Z" fill="#787882"/>
</g>
<defs>
<clipPath id="clip0">
<rect width="19.2553" height="19.2553" fill="white" transform="translate(6.73938 0.830078)"/>
</clipPath>
</defs>
</svg>
