<svg width="19" height="20" viewBox="0 0 19 20" fill="none" xmlns="http://www.w3.org/2000/svg">
<path d="M14.4447 9.49673H15.7879C16.0915 9.49673 16.3386 9.24969 16.3386 8.94604V7.6029C16.3386 7.29926 16.0915 7.05221 15.7879 7.05221H14.4447C14.1411 7.05221 13.894 7.29926 13.894 7.6029V8.94604C13.894 9.24969 14.1411 9.49673 14.4447 9.49673ZM14.4582 7.61633H15.7744V8.93261H14.4582V7.61633ZM14.4447 13.0695H15.7879C16.0915 13.0695 16.3386 12.8224 16.3386 12.5188V11.1757C16.3386 10.872 16.0915 10.625 15.7879 10.625H14.4447C14.1411 10.625 13.894 10.872 13.894 11.1757V12.5188C13.894 12.8224 14.1411 13.0695 14.4447 13.0695ZM14.4582 11.1891H15.7744V12.5054H14.4582V11.1891ZM10.6119 9.49673H11.955C12.2586 9.49673 12.5057 9.24969 12.5057 8.94604V7.6029C12.5057 7.29926 12.2586 7.05221 11.955 7.05221H10.6119C10.3082 7.05221 10.0612 7.29926 10.0612 7.6029V8.94604C10.0612 9.24969 10.3082 9.49673 10.6119 9.49673ZM10.6253 7.61633H11.9416V8.93261H10.6253V7.61633ZM4.28928 14.0302H2.94614C2.6425 14.0302 2.39545 14.2773 2.39545 14.5809V15.9241C2.39545 16.2277 2.6425 16.4748 2.94614 16.4748H4.28928C4.59293 16.4748 4.83997 16.2277 4.83997 15.9241V14.5809C4.83997 14.2773 4.59293 14.0302 4.28928 14.0302ZM4.27585 15.9106H2.95957V14.5944H4.27585V15.9106ZM4.28928 7.05221H2.94614C2.6425 7.05221 2.39545 7.29926 2.39545 7.6029V8.94604C2.39545 9.24969 2.6425 9.49673 2.94614 9.49673H4.28928C4.59293 9.49673 4.83997 9.24969 4.83997 8.94604V7.6029C4.83997 7.29922 4.59293 7.05221 4.28928 7.05221ZM4.27585 8.93261H2.95957V7.61633H4.27585V8.93261ZM10.6119 12.9857H11.955C12.2586 12.9857 12.5057 12.7387 12.5057 12.4351V11.0919C12.5057 10.7883 12.2586 10.5412 11.955 10.5412H10.6119C10.3082 10.5412 10.0612 10.7883 10.0612 11.0919V12.4351C10.0612 12.7387 10.3082 12.9857 10.6119 12.9857ZM10.6253 11.1053H11.9416V12.4216H10.6253V11.1053ZM16.6187 1.32902H15.4128V0.897766C15.4128 0.424807 15.028 0.0400391 14.555 0.0400391H14.4255C13.9526 0.0400391 13.5678 0.424807 13.5678 0.897766V1.32902H5.16618V0.897766C5.16618 0.424807 4.78142 0.0400391 4.30846 0.0400391H4.17894C3.70598 0.0400391 3.32121 0.424807 3.32121 0.897766V1.32902H2.11531C1.33663 1.32902 0.703125 1.96252 0.703125 2.7412V17.8851C0.703125 18.6627 1.33577 19.2954 2.11343 19.2954H16.6207C17.3983 19.2954 18.031 18.6627 18.031 17.8851V2.7412C18.0309 1.96252 17.3974 1.32902 16.6187 1.32902ZM14.1319 0.897766C14.1319 0.735863 14.2636 0.60416 14.4255 0.60416H14.5551C14.717 0.60416 14.8487 0.735863 14.8487 0.897766V1.32902H14.1319V0.897766ZM3.88537 0.897766C3.88537 0.735863 4.01707 0.60416 4.17897 0.60416H4.3085C4.4704 0.60416 4.6021 0.735863 4.6021 0.897766V1.32902H3.88541V0.897766H3.88537ZM17.4668 17.8851C17.4668 18.3517 17.0872 18.7312 16.6206 18.7312H2.11339C1.64679 18.7312 1.26721 18.3517 1.26721 17.8851V17.8833C1.50354 18.0614 1.79729 18.1671 2.11531 18.1671H13.5513C13.9285 18.1671 14.2831 18.0202 14.5498 17.7535L17.4668 14.8365V17.8851ZM14.262 17.2435C14.2841 17.1522 14.2962 17.057 14.2962 16.9591V15.0763C14.2962 14.7212 14.585 14.4324 14.9401 14.4324H16.8229C16.9208 14.4324 17.016 14.4203 17.1073 14.3982L14.262 17.2435ZM17.4668 5.35985H5.44825C5.29247 5.35985 5.16618 5.48614 5.16618 5.64191C5.16618 5.79768 5.29247 5.92397 5.44825 5.92397H17.4668V13.2244C17.4668 13.5794 17.1779 13.8683 16.8229 13.8683H14.9401C14.274 13.8683 13.7321 14.4102 13.7321 15.0763V16.9591C13.7321 17.3142 13.4432 17.603 13.0882 17.603H2.11531C1.64769 17.603 1.26725 17.2226 1.26725 16.7549V5.92397H4.32C4.47578 5.92397 4.60206 5.79768 4.60206 5.64191C4.60206 5.48614 4.47578 5.35985 4.32 5.35985H1.26721V2.7412C1.26721 2.27358 1.64765 1.89314 2.11527 1.89314H3.32121V2.72247C3.32121 3.19543 3.70598 3.5802 4.17894 3.5802C4.33471 3.5802 4.461 3.45391 4.461 3.29814C4.461 3.14236 4.33471 3.01608 4.17894 3.01608C4.01703 3.01608 3.88533 2.88437 3.88533 2.72247V1.89314H13.5678V2.72247C13.5678 3.19543 13.9526 3.5802 14.4255 3.5802C14.5813 3.5802 14.7076 3.45391 14.7076 3.29814C14.7076 3.14236 14.5813 3.01608 14.4255 3.01608C14.2636 3.01608 14.1319 2.88437 14.1319 2.72247V1.89314H16.6187C17.0864 1.89314 17.4668 2.27358 17.4668 2.7412V5.35985ZM4.28928 10.5412H2.94614C2.6425 10.5412 2.39545 10.7883 2.39545 11.0919V12.4351C2.39545 12.7387 2.6425 12.9857 2.94614 12.9857H4.28928C4.59293 12.9857 4.83997 12.7387 4.83997 12.4351V11.0919C4.83997 10.7882 4.59293 10.5412 4.28928 10.5412ZM4.27585 12.4216H2.95957V11.1053H4.27585V12.4216ZM6.77901 9.49673H8.12214C8.42579 9.49673 8.67283 9.24969 8.67283 8.94604V7.6029C8.67283 7.29926 8.42579 7.05221 8.12214 7.05221H6.77901C6.47536 7.05221 6.22831 7.29926 6.22831 7.6029V8.94604C6.22831 9.24969 6.47536 9.49673 6.77901 9.49673ZM6.79243 7.61633H8.10871V8.93261H6.79243V7.61633ZM10.625 15.9106C10.618 15.7611 10.4945 15.642 10.3432 15.642C10.1874 15.642 10.0611 15.7683 10.0611 15.9241C10.0611 16.2277 10.3082 16.4748 10.6118 16.4748H11.955C12.2586 16.4748 12.5057 16.2277 12.5057 15.9241V14.5809C12.5057 14.2773 12.2586 14.0302 11.955 14.0302H10.6118C10.3082 14.0302 10.0611 14.2773 10.0611 14.5809V14.9683C10.0611 15.1241 10.1874 15.2503 10.3432 15.2503C10.499 15.2503 10.6253 15.1241 10.6253 14.9683V14.5944H11.9415V15.9106H10.625ZM6.77901 12.9857H8.12214C8.42579 12.9857 8.67283 12.7387 8.67283 12.4351V11.0919C8.67283 10.7883 8.42579 10.5412 8.12214 10.5412H6.77901C6.47536 10.5412 6.22831 10.7883 6.22831 11.0919V12.4351C6.22831 12.7387 6.47536 12.9857 6.77901 12.9857ZM6.79243 11.1053H8.10871V12.4216H6.79243V11.1053ZM6.77901 16.4748H8.12214C8.42579 16.4748 8.67283 16.2277 8.67283 15.9241V14.5809C8.67283 14.2773 8.42579 14.0302 8.12214 14.0302H6.77901C6.47536 14.0302 6.22831 14.2773 6.22831 14.5809V15.9241C6.22831 16.2277 6.47536 16.4748 6.77901 16.4748ZM6.79243 14.5944H8.10871V15.9106H6.79243V14.5944Z" fill="#787882"/>
</svg>
