<svg width="15" height="15" viewBox="0 0 15 15" fill="none" xmlns="http://www.w3.org/2000/svg">
<g clip-path="url(#clip0)">
<path d="M6.5815 13.7522C2.95272 13.7522 0 10.7996 0 7.17085C0 3.54207 2.95272 0.589355 6.5815 0.589355C7.84335 0.589355 9.07102 0.948914 10.1318 1.6298C10.3401 1.76389 10.4011 2.0415 10.267 2.25031C10.1325 2.45913 9.85543 2.51949 9.64662 2.3855C8.73118 1.79731 7.67102 1.48683 6.5815 1.48683C3.44747 1.48683 0.897472 4.03682 0.897472 7.17085C0.897472 10.3048 3.44747 12.8548 6.5815 12.8548C9.71542 12.8548 12.2654 10.3048 12.2654 7.17085C12.2654 6.98351 12.2564 6.79804 12.2391 6.61563C12.2152 6.36847 12.3959 6.14947 12.6424 6.12559C12.8901 6.1028 13.1084 6.28236 13.1324 6.52886C13.1527 6.74008 13.1629 6.95426 13.1629 7.17085C13.1629 10.7996 10.2103 13.7522 6.5815 13.7522Z" fill="#850B0B" fill-opacity="0.91"/>
<path d="M7.32941 8.66674C7.2146 8.66674 7.09967 8.62303 7.01236 8.53516L4.31994 5.84275C4.14465 5.66735 4.14465 5.38317 4.31994 5.20788C4.49523 5.03259 4.77941 5.03259 4.9547 5.20788L7.33007 7.58324L13.5938 1.31945C13.7691 1.14417 14.0533 1.14417 14.2286 1.31945C14.4039 1.49474 14.4039 1.77893 14.2286 1.95421L7.64712 8.53571C7.55915 8.62303 7.44433 8.66674 7.32941 8.66674Z" fill="#850B0B" fill-opacity="0.91"/>
</g>
<defs>
<clipPath id="clip0">
<rect width="14.36" height="14.36" fill="white"/>
</clipPath>
</defs>
</svg>
