<svg width="33" height="33" viewBox="0 0 33 33" fill="none" xmlns="http://www.w3.org/2000/svg">
<path d="M33 13.6641V7.86328H28.7035L24.8363 0H8.1637L4.29651 7.86328H0V13.6641H1.99805V31.0664H0V33H33V31.0664H31.002V13.6641H33ZM9.36755 1.93359H23.6324L26.5487 7.86328H6.45131L9.36755 1.93359ZM1.93359 9.79688H31.0664V11.7305H1.93359V9.79688ZM25.2012 31.0664H20.4276C21.6663 29.4796 21.754 27.5538 20.6476 25.8667C19.7563 24.5077 18.9619 24.2741 17.0786 21.9631L16.2103 20.8976L15.501 22.0749C14.166 24.291 14.5772 25.8723 14.975 27.4015C14.9984 27.4916 15.0222 27.5831 15.0458 27.6755C14.5104 27.577 14.0406 27.2413 13.7228 26.7186L12.7485 25.1158C12.5627 25.5458 11.9263 27.0136 11.8913 27.1289C11.4544 28.5652 11.6872 29.9215 12.5626 31.0663H7.79883V19.4648H8.55693C9.91985 19.4648 11.2663 19.1316 12.5589 18.4743C15.0267 17.2194 17.9733 17.2194 20.4411 18.4743C21.7337 19.1316 23.0801 19.4648 24.443 19.4648H25.2012V31.0664ZM17.0248 27.6245C16.719 26.3249 16.3577 25.4368 16.6029 24.3699C17.8292 25.702 18.4721 26.075 19.0306 26.9269C20.3553 28.9469 18.4883 31.0805 16.4697 31.0663C15.1717 31.0594 14.1016 30.2199 13.7421 29.2635C14.2675 29.5182 14.8485 29.65 15.4501 29.6386C16.5712 29.6178 17.2752 28.6892 17.0248 27.6245ZM29.0684 31.0664H27.1348V17.5312H24.443C23.3876 17.5312 22.336 17.2687 21.3175 16.7507C18.3009 15.2168 14.6991 15.2168 11.6825 16.7507C10.6639 17.2686 9.61235 17.5312 8.55693 17.5312H5.86523V31.0664H3.93164V13.6641H29.0684V31.0664Z" fill="#787882"/>
</svg>
