<svg width="28" height="28" viewBox="0 0 28 28" fill="none" xmlns="http://www.w3.org/2000/svg">
<g clip-path="url(#clip0)">
<path d="M25.4706 22.7639C25.4907 22.7562 25.5098 22.7478 25.5278 22.7388L25.5279 22.7388C27.4135 21.8035 27.4423 19.9393 27.4427 19.8457V19.8449V14.4696V14.4696C27.4426 14.1143 27.1546 13.8263 26.7992 13.8263C26.4439 13.8263 26.1558 14.1144 26.1558 14.4697V19.8391C26.1546 19.8948 26.1146 20.9947 24.9827 21.5727C23.0443 22.3051 19.2519 23.2615 15.3057 21.6347L15.2168 21.8504L15.3057 21.6347C12.0652 20.2988 9.01788 20.0306 7.03487 20.0384H7.03474C5.8167 20.0439 4.84551 20.1495 4.21854 20.2433V2.78469C5.5805 2.56375 9.55758 2.14305 14.0117 3.75134C14.3457 3.87203 14.7147 3.69895 14.8354 3.36474L14.8355 3.36469C14.9561 3.03049 14.783 2.66172 14.4488 2.54101L14.4488 2.541C11.394 1.43796 8.57118 1.24637 6.74101 1.27909L6.74097 1.27909C5.65967 1.2986 4.79405 1.39468 4.21854 1.4808V1.18854C4.21854 1.18854 4.21854 1.18853 4.21854 1.18853C4.21859 0.349886 3.42234 -0.233333 2.51985 -0.233333H2.2562C1.35371 -0.233333 0.557621 0.349921 0.557621 1.18853V26.8115C0.557621 27.6501 1.35373 28.2333 2.2562 28.2333H2.51985C3.42235 28.2333 4.21859 27.6501 4.21859 26.8115V21.5468C4.77789 21.4553 5.77956 21.3292 7.06694 21.3251L7.13001 21.325C8.99309 21.325 11.8185 21.5889 14.8153 22.8243C18.2555 24.2425 22.0703 24.0572 25.4706 22.7639ZM25.4706 22.7639C25.4705 22.7639 25.4705 22.7639 25.4704 22.7639L25.3877 22.5457L25.4707 22.7638C25.4707 22.7638 25.4706 22.7639 25.4706 22.7639ZM2.93177 26.7988C2.92789 26.8054 2.91241 26.8293 2.85932 26.8618C2.78383 26.9079 2.66527 26.9465 2.51985 26.9465H2.2562C2.11085 26.9465 1.99234 26.9079 1.91687 26.8618C1.86379 26.8293 1.84832 26.8054 1.84444 26.7988V1.20122C1.84831 1.19464 1.86377 1.17069 1.91687 1.13823C1.99232 1.09211 2.11083 1.05348 2.2562 1.05348H2.51985C2.66527 1.05348 2.78383 1.09211 2.85931 1.13823C2.91243 1.17069 2.9279 1.19464 2.93177 1.20122V1.20174V1.20643V1.21167V1.21746V1.22379V1.23067V1.23809V1.24605V1.25455V1.26358V1.27315V1.28325V1.29387V1.30502V1.3167V1.3289V1.34161V1.35485V1.3686V1.38286V1.39764V1.41292V1.42871V1.445V1.4618V1.4791V1.49689V1.51518V1.53396V1.55324V1.573V1.59325V1.61399V1.63521V1.6569V1.67908V1.70173V1.72486V1.74846V1.77252V1.79706V1.82205V1.84752V1.87344V1.89982V1.92665V1.95394V1.98168V2.00988V2.03852V2.0676V2.09713V2.12709V2.1575V2.18834V2.21962V2.25133V2.28347V2.31603V2.34902V2.38244V2.41628V2.45053V2.4852V2.52029V2.55578V2.59169V2.62801V2.66473V2.70186V2.73938V2.77731V2.81563V2.85435V2.89346V2.93296V2.97284V3.01312V3.05377V3.09481V3.13623V3.17803V3.2202V3.26274V3.30565V3.34894V3.39259V3.4366V3.48097V3.5257V3.5708V3.61624V3.66204V3.70819V3.75469V3.80153V3.84872V3.89625V3.94413V3.99233V4.04088V4.08976V4.13896V4.1885V4.23837V4.28855V4.33906V4.38989V4.44104V4.49251V4.54429V4.59637V4.64877V4.70148V4.75449V4.8078V4.86141V4.91532V4.96953V5.02403V5.07882V5.1339V5.18927V5.24493V5.30086V5.35708V5.41358V5.47035V5.52739V5.58471V5.6423V5.70015V5.75827V5.81665V5.8753V5.9342V5.99336V6.05277V6.11243V6.17235V6.23251V6.29292V6.35357V6.41446V6.47559V6.53696V6.59856V6.6604V6.72246V6.78475V6.84727V6.91001V6.97298V7.03616V7.09956V7.16317V7.227V7.29103V7.35528V7.41973V7.48438V7.54924V7.6143V7.67955V7.745V7.81064V7.87647V7.94249V8.00869V8.07508V8.14166V8.20841V8.27534V8.34244V8.40972V8.47716V8.54478V8.61256V8.68051V8.74862V8.81689V8.88532V8.9539V9.02264V9.09152V9.16056V9.22974V9.29907V9.36854V9.43815V9.50789V9.57778V9.64779V9.71794V9.78822V9.85862V9.92915V9.9998V10.0706V10.1415V10.2125V10.2836V10.3548V10.4262V10.4976V10.5692V10.6408V10.7126V10.7844V10.8564V10.9284V11.0006V11.0728V11.1451V11.2175V11.29V11.3626V11.4352V11.5079V11.5807V11.6536V11.7265V11.7995V11.8726V11.9457V12.0189V12.0922V12.1655V12.2388V12.3122V12.3857V12.4592V12.5328V12.6064V12.68V12.7537V12.8274V12.9012V12.975V13.0488V13.1226V13.1965V13.2704V13.3443V13.4183V13.4922V13.5662V13.6402V13.7142V13.7882V13.8622V13.9362V14.0102V14.0842V14.1582V14.2322V14.3062V14.3802V14.4542V14.5282V14.6021V14.676V14.75V14.8238V14.8977V14.9716V15.0454V15.1191V15.1929V15.2666V15.3403V15.4139V15.4875V15.561V15.6345V15.708V15.7814V15.8547V15.928V16.0013V16.0744V16.1476V16.2206V16.2936V16.3665V16.4394V16.5121V16.5848V16.6574V16.73V16.8024V16.8748V16.9471V17.0193V17.0914V17.1634V17.2354V17.3072V17.3789V17.4505V17.5221V17.5935V17.6648V17.736V17.8071V17.8781V17.9489V18.0197V18.0903V18.1608V18.2311V18.3014V18.3715V18.4415V18.5113V18.581V18.6506V18.72V18.7893V18.8584V18.9274V18.9963V19.065V19.1335V19.2019V19.2701V19.3382V19.4061V19.4738V19.5414V19.6088V19.676V19.7431V19.81V19.8767V19.9432V20.0095V20.0757V20.1416V20.2074V20.273V20.3384V20.4036V20.4686V20.5334V20.598V20.6624V20.7266V20.7905V20.8543V20.9179V20.9812V21.0443V21.1072V21.1699V21.2324V21.2946V21.3566V21.4184V21.4799V21.5412V21.6022V21.6631V21.7237V21.784V21.8441V21.9039V21.9635V22.0229V22.082V22.1408V22.1994V22.2577V22.3157V22.3735V22.431V22.4882V22.5452V22.6019V22.6583V22.7145V22.7703V22.8259V22.8812V22.9362V22.9909V23.0453V23.0994V23.1532V23.2068V23.26V23.3129V23.3655V23.4179V23.4699V23.5215V23.5729V23.624V23.6747V23.7251V23.7752V23.825V23.8745V23.9236V23.9723V24.0208V24.0689V24.1167V24.1641V24.2112V24.258V24.3044V24.3504V24.3961V24.4415V24.4864V24.5311V24.5753V24.6193V24.6628V24.706V24.7488V24.7912V24.8333V24.875V24.9163V24.9572V24.9978V25.0379V25.0777V25.1171V25.1561V25.1947V25.2329V25.2707V25.3081V25.3452V25.3818V25.418V25.4538V25.4891V25.5241V25.5587V25.5928V25.6265V25.6598V25.6927V25.7251V25.7571V25.7887V25.8199V25.8506V25.8809V25.9107V25.9401V25.9691V25.9976V26.0257V26.0533V26.0804V26.1072V26.1334V26.1592V26.1845V26.2094V26.2338V26.2577V26.2812V26.3042V26.3267V26.3487V26.3703V26.3914V26.412V26.4321V26.4517V26.4709V26.4895V26.5077V26.5253V26.5425V26.5591V26.5753V26.5909V26.6061V26.6207V26.6348V26.6484V26.6615V26.6741V26.6861V26.6976V26.7086V26.7191V26.7291V26.7385V26.7474V26.7557V26.7635V26.7708V26.7775V26.7837V26.7893V26.7944V26.7988Z" fill="#787882" stroke="#787882" stroke-width="0.466667"/>
<path d="M16.3328 3.24045L16.3329 3.24048C19.2222 4.1287 22.3901 3.8298 25.1677 2.73863C25.624 2.55732 26.1858 2.51553 26.6477 2.74997C27.1292 2.99431 27.4424 3.507 27.4425 4.30356V12.556C27.4425 12.9114 27.1544 13.1995 26.799 13.1995C26.4435 13.1995 26.1556 12.9113 26.1556 12.556V4.30351C26.1556 4.22475 26.1501 4.12399 26.1303 4.03556C26.1204 3.99172 26.1085 3.95734 26.0959 3.93271C26.0833 3.90786 26.0744 3.90126 26.0745 3.90136M16.3328 3.24045L15.5288 3.66647C15.4244 4.0061 15.6152 4.36607 15.9547 4.47048L15.9548 4.47049C19.1356 5.44826 22.6009 5.1271 25.6228 3.94239C25.7211 3.91032 25.8277 3.88737 25.9199 3.88231C26.0224 3.87669 26.0661 3.89532 26.0745 3.90136M16.3328 3.24045C15.9934 3.13626 15.6333 3.32654 15.5288 3.6664L16.3328 3.24045ZM26.0745 3.90136L26.2106 3.71184L26.0745 3.90138C26.0745 3.90137 26.0745 3.90136 26.0745 3.90136Z" fill="#787882" stroke="#787882" stroke-width="0.466667"/>
</g>
<defs>
<clipPath id="clip0">
<rect width="28" height="28" fill="white"/>
</clipPath>
</defs>
</svg>
