<svg width="24" height="24" viewBox="0 0 24 24" fill="none" xmlns="http://www.w3.org/2000/svg">
<g clip-path="url(#clip0)">
<path d="M0.00183105 20.4844C0.00183105 22.4274 1.57426 24 3.51747 24C4.74691 24 5.84492 23.3713 6.48129 22.3748C8.08977 23.4954 10.3604 23.0915 11.4532 21.3805C12.8218 22.334 14.7235 22.2053 15.9472 20.9816C17.1683 19.7604 17.3006 17.8575 16.3459 16.4874C19.1011 14.7296 18.1491 10.4967 14.9515 10.0448L18.9303 6.06598C19.7563 5.23999 21.152 5.24004 21.9779 6.06598C22.8003 6.88845 22.8003 8.22664 21.9779 9.04911C21.7031 9.32394 21.2584 9.32394 20.9835 9.04911C20.7088 8.77433 20.7087 8.32958 20.9835 8.05475C21.2581 7.78016 21.2581 7.33498 20.9835 7.06039C20.709 6.78579 20.2638 6.78579 19.9892 7.06039C19.1667 7.88281 19.1667 9.22105 19.9892 10.0435C20.8135 10.8679 22.1479 10.868 22.9723 10.0435C24.343 8.67275 24.343 6.44234 22.9723 5.07161C21.6887 3.78803 19.6209 3.70975 18.2411 4.80124C18.2734 3.44261 17.7596 2.15893 16.8009 1.20029L15.8065 0.205876C15.5321 -0.0685315 15.0867 -0.068719 14.8121 0.205876C12.8886 2.1294 12.8884 5.2428 14.8121 7.16647L15.3266 7.68092L13.957 9.05047C13.5054 5.85359 9.27276 4.90019 7.51452 7.65598C6.14445 6.70132 4.2415 6.83356 3.02031 8.0547C1.79917 9.2758 1.66688 11.1787 2.6214 12.5487C0.928647 13.6298 0.495052 15.8958 1.62704 17.5206C0.627755 18.1587 0.00183105 19.2581 0.00183105 20.4844ZM15.3588 1.74685L15.8065 2.1946C17.0188 3.40689 17.1523 5.26732 16.2543 6.61985L15.8065 6.1721C14.5942 4.95977 14.4607 3.09934 15.3588 1.74685ZM6.99776 20.9816C5.9382 19.922 6.29393 18.1146 7.68458 17.54C8.37163 17.9507 9.17938 18.1118 9.9824 17.9984C9.87149 18.7812 10.024 19.5944 10.4399 20.2934C9.86587 21.6854 8.05752 22.0413 6.99776 20.9816ZM14.9528 19.9872C14.1303 20.8096 12.7921 20.8096 11.9696 19.9872C10.9093 18.9268 11.2667 17.1186 12.6578 16.5451C13.3398 16.9509 14.1484 17.1162 14.9513 17.0028C14.9518 17.0032 14.9523 17.0036 14.9527 17.0041C15.7752 17.8265 15.7752 19.1647 14.9528 19.9872ZM15.9471 12.0322C16.7696 12.8547 16.7696 14.1929 15.9471 15.0153C15.1247 15.8378 13.7865 15.8378 12.964 15.0153C12.1416 14.1929 12.1416 12.8547 12.964 12.0322C13.7865 11.2098 15.1246 11.2097 15.9471 12.0322ZM8.98649 8.0547C9.80901 7.23223 11.1472 7.23228 11.9696 8.0547C12.7921 8.87713 12.7921 10.2154 11.9696 11.0378C11.1472 11.8602 9.80896 11.8603 8.98649 11.0378C8.16407 10.2154 8.16407 8.87718 8.98649 8.0547ZM8.68026 12.5676C9.35015 12.9661 10.158 13.1413 10.977 13.0249C10.8656 13.8082 11.0181 14.6221 11.4343 15.3216C10.8626 16.7082 9.05877 17.0763 7.99218 16.0097C6.92609 14.9437 7.29275 13.1397 8.68026 12.5676ZM4.01463 9.04911C4.83705 8.22664 6.17529 8.22669 6.99772 9.04907C6.99819 9.04954 6.99866 9.05005 6.99912 9.05057C6.88859 9.83291 7.04117 10.6455 7.45677 11.3441C6.88386 12.7336 5.07659 13.0941 4.01468 12.0323C3.1922 11.2097 3.1922 9.87154 4.01463 9.04911ZM3.70839 13.562C4.39127 13.9682 5.20057 14.1332 6.0034 14.0194C5.88992 14.8232 6.0514 15.6307 6.46175 16.3173C5.88739 17.7075 4.08016 18.064 3.02026 17.0041C1.95985 15.9436 2.31732 14.1356 3.70839 13.562ZM2.71403 18.5338C3.38402 18.9324 4.19191 19.1075 5.01077 18.9911C4.8994 19.7744 5.05188 20.5883 5.46804 21.2879C5.15571 22.0453 4.41021 22.5938 3.51752 22.5938C2.35178 22.5938 1.40813 21.6504 1.40813 20.4844C1.40809 19.5934 1.95498 18.8468 2.71403 18.5338Z" fill="#787882"/>
</g>
<defs>
<clipPath id="clip0">
<path d="M0 0H24V24H0V0Z" fill="white"/>
</clipPath>
</defs>
</svg>
