<svg width="17" height="17" viewBox="0 0 17 17" fill="none" xmlns="http://www.w3.org/2000/svg">
<g clip-path="url(#clip0)">
<path d="M2.33389 11.1268C2.61056 11.4034 3.05902 11.4033 3.33559 11.1266C3.61216 10.8499 3.61209 10.4015 3.33542 10.1249L1.7101 8.50016L4.16706 6.04319C5.65012 4.56014 7.75548 3.95586 9.77026 4.38038C10.153 4.46103 10.5287 4.2161 10.6094 3.83332C10.69 3.45053 10.4451 3.07485 10.0623 2.99421C7.58379 2.47201 4.99056 3.21626 3.16533 5.04149L0.207453 7.99937C-0.0691842 8.27601 -0.069151 8.72457 0.207553 9.00114L2.33389 11.1268Z" fill="#787882"/>
<path d="M16.7924 7.99901L14.6661 5.8734C14.3894 5.59683 13.9409 5.59689 13.6644 5.87356C13.3878 6.15023 13.3879 6.59869 13.6645 6.87526L15.2899 8.50002L12.8329 10.957C11.3499 12.4401 9.24449 13.0443 7.22971 12.6198C6.84693 12.5392 6.47125 12.7841 6.3906 13.1669C6.30996 13.5496 6.55489 13.9253 6.93767 14.006C9.41618 14.5282 12.0094 13.7839 13.8346 11.9587L16.7925 9.00081C17.0692 8.72413 17.0691 8.27558 16.7924 7.99901Z" fill="#787882"/>
<path d="M4.9585 8.50048C4.9585 8.89167 5.27561 9.20878 5.66679 9.20878C6.05797 9.20878 6.37508 8.89167 6.37508 8.50048C6.37508 7.32703 7.32655 6.37557 8.5 6.37557C8.89118 6.37557 9.20829 6.05846 9.20829 5.66728C9.20829 5.27609 8.89118 4.95898 8.5 4.95898C6.54418 4.95895 4.9585 6.54463 4.9585 8.50048Z" fill="#787882"/>
<path d="M10.625 8.50032C10.625 9.67377 9.67349 10.6252 8.50004 10.6252C8.10886 10.6252 7.79175 10.9423 7.79175 11.3335C7.79175 11.7247 8.10886 12.0418 8.50004 12.0418C10.4559 12.0418 12.0416 10.4561 12.0416 8.50029C12.0416 8.1091 11.7245 7.79199 11.3333 7.79199C10.9421 7.79199 10.625 8.10914 10.625 8.50032Z" fill="#787882"/>
<path d="M16.7937 0.209406C16.5171 -0.0671979 16.0686 -0.0671979 15.792 0.209406L0.209284 15.7921C-0.0673199 16.0687 -0.0673199 16.5172 0.209284 16.7938C0.485888 17.0704 0.934377 17.0704 1.21098 16.7938L16.7937 1.2111C17.0703 0.934499 17.0703 0.48601 16.7937 0.209406Z" fill="#787882"/>
</g>
<defs>
<clipPath id="clip0">
<rect width="17" height="17" fill="white"/>
</clipPath>
</defs>
</svg>
