<svg width="23" height="23" viewBox="0 0 23 23" fill="none" xmlns="http://www.w3.org/2000/svg">
<path d="M18.8377 3.81854C17.6133 2.59446 16.1084 1.68818 14.4538 1.17859C12.7992 0.669001 11.0451 0.571544 9.34428 0.894705C7.64342 1.21787 6.04733 1.95185 4.69493 3.03276C3.34254 4.11368 2.27483 5.50876 1.58476 7.09658C1.39646 7.12976 1.22063 7.21321 1.07586 7.3381C0.931087 7.463 0.822761 7.6247 0.762334 7.8061C0.701908 7.9875 0.691629 8.18186 0.732583 8.36862C0.773537 8.55539 0.864202 8.72761 0.99499 8.86708C0.351754 11.5812 0.799149 14.4394 2.241 16.8271C1.7431 17.7717 1.46335 18.8159 1.42236 19.8829C1.18524 19.9652 0.98494 20.1289 0.856977 20.3448C0.729015 20.5607 0.681666 20.815 0.723327 21.0625C0.764989 21.31 0.892968 21.5348 1.08457 21.6969C1.27616 21.8591 1.519 21.9481 1.76999 21.9482H7.43405C7.60205 21.9482 7.76763 21.9082 7.91718 21.8317C8.06672 21.7551 8.19595 21.6442 8.29424 21.5079C10.5592 22.1827 12.9845 22.0828 15.1862 21.224C17.388 20.3653 19.2405 18.7967 20.4505 16.7666C21.6605 14.7366 22.1588 12.3609 21.8667 10.0157C21.5746 7.67054 20.5087 5.48976 18.8377 3.81854ZM1.76999 7.78808H7.43405C7.52794 7.78808 7.61799 7.82537 7.68437 7.89176C7.75076 7.95815 7.78806 8.04819 7.78806 8.14208C7.78806 8.23597 7.75076 8.32601 7.68437 8.3924C7.61799 8.45879 7.52794 8.49609 7.43405 8.49609H1.76999C1.67611 8.49609 1.58606 8.45879 1.51967 8.3924C1.45329 8.32601 1.41599 8.23597 1.41599 8.14208C1.41599 8.04819 1.45329 7.95815 1.51967 7.89176C1.58606 7.82537 1.67611 7.78808 1.76999 7.78808ZM5.18117 13.4344C5.08987 13.5256 5.01051 13.6281 4.94501 13.7392C4.90667 13.7945 4.85544 13.8396 4.79575 13.8706C4.73607 13.9016 4.66973 13.9176 4.60247 13.9173C4.53503 13.9177 4.46851 13.9016 4.40866 13.8706C4.34881 13.8395 4.29743 13.7943 4.25895 13.7389C4.19347 13.6279 4.11417 13.5256 4.02296 13.4344C3.91405 13.3255 3.8096 13.2134 3.70962 13.0981H5.4946C5.39442 13.2132 5.28994 13.3253 5.18117 13.4344ZM6.03021 12.3901H3.17384C2.55146 11.4388 2.19262 10.3394 2.13395 9.20409H7.07032C7.01158 10.3394 6.65267 11.4388 6.03021 12.3901ZM3.52231 13.935C3.65306 14.0655 3.73574 14.2365 3.75687 14.42C3.77801 14.6035 3.73635 14.7888 3.63869 14.9456C3.41615 14.4753 3.23794 13.9853 3.10636 13.4819C3.23796 13.6377 3.37661 13.7888 3.52231 13.935ZM4.02287 15.5939C4.28418 15.3327 4.44148 14.9854 4.46538 14.6168C4.51076 14.6223 4.55644 14.6251 4.60216 14.6251H4.60247C4.64785 14.6251 4.69318 14.6223 4.73823 14.6168C4.76214 14.9854 4.91944 15.3327 5.18073 15.5939C6.17538 16.5829 6.81954 17.87 7.01514 19.259L4.85191 17.0958C4.81903 17.0629 4.78001 17.0368 4.73706 17.019C4.69411 17.0012 4.64807 16.9921 4.60158 16.9921C4.55509 16.9921 4.50906 17.0012 4.46611 17.019C4.42315 17.0368 4.38413 17.0629 4.35126 17.0958L2.18847 19.2591C2.38404 17.87 3.02821 16.583 4.02287 15.5939ZM4.60202 17.8468L6.5794 19.8242H2.62465L4.60202 17.8468ZM7.48525 18.1024L7.74062 18.2498L8.09463 17.6366L7.48149 17.2826L7.30776 17.5835C6.94567 16.649 6.39176 15.8007 5.68174 15.0933C5.60567 15.0173 5.54533 14.927 5.50416 14.8276C5.46299 14.7282 5.4418 14.6217 5.4418 14.5142C5.4418 14.4066 5.46299 14.3001 5.50416 14.2007C5.54533 14.1013 5.60567 14.011 5.68174 13.935C6.96227 12.6615 7.7126 10.95 7.78155 9.14537C8.01866 9.06307 8.21896 8.89946 8.34692 8.68354C8.47488 8.46763 8.52224 8.21337 8.4806 7.96587C8.43896 7.71836 8.311 7.49361 8.11942 7.33146C7.92785 7.16931 7.68504 7.08025 7.43405 7.08007H3.96862C4.71434 5.78816 5.7871 4.7154 7.07901 3.96968C8.37092 3.22397 9.83641 2.83159 11.3281 2.83202C16.0129 2.83202 19.8242 6.64336 19.8242 11.3281C19.8242 16.0129 16.0129 19.8242 11.3281 19.8242C10.0709 19.8277 8.82891 19.5492 7.69358 19.0092C7.64391 18.7027 7.57431 18.3998 7.48525 18.1024ZM1.41599 11.3281C1.41622 10.8814 1.44637 10.4352 1.50622 9.9925C1.61783 10.6981 1.83509 11.3828 2.15068 12.0236C2.23928 13.2422 2.57254 14.4304 3.13056 15.5174C2.96206 15.7147 2.80435 15.9211 2.6581 16.1354C1.84187 14.6648 1.41435 13.0101 1.41599 11.3281ZM7.43405 21.2402H1.76999C1.67611 21.2402 1.58606 21.2029 1.51967 21.1365C1.45329 21.0702 1.41599 20.9801 1.41599 20.8862C1.41599 20.7923 1.45329 20.7023 1.51967 20.6359C1.58606 20.5695 1.67611 20.5322 1.76999 20.5322H7.43405C7.52794 20.5322 7.61799 20.5695 7.68437 20.6359C7.75076 20.7023 7.78806 20.7923 7.78806 20.8862C7.78806 20.9801 7.75076 21.0702 7.68437 21.1365C7.61799 21.2029 7.52794 21.2402 7.43405 21.2402ZM18.337 18.337C17.0727 19.5999 15.4908 20.498 13.7584 20.9366C12.0261 21.3751 10.2074 21.3378 8.49447 20.8287C8.48278 20.6181 8.40877 20.4158 8.28185 20.2474C8.15493 20.0789 7.98083 19.952 7.78164 19.8828C7.78085 19.8627 7.7804 19.8425 7.77943 19.8225C8.90297 20.2939 10.1097 20.5353 11.3281 20.5322C16.4032 20.5322 20.5322 16.4032 20.5322 11.3281C20.5322 6.25298 16.4032 2.12402 11.3281 2.12402C9.6437 2.12339 7.99145 2.58521 6.5515 3.45915C5.11156 4.33308 3.93918 5.58558 3.1622 7.08007H2.36968C2.98875 5.77457 3.88572 4.62017 4.99778 3.69771C6.10983 2.77524 7.41009 2.10702 8.8075 1.73982C10.2049 1.37262 11.6657 1.31533 13.0876 1.57195C14.5095 1.82856 15.8581 2.39289 17.039 3.22542C18.2198 4.05795 19.2045 5.13854 19.9239 6.39155C20.6433 7.64455 21.0802 9.03967 21.2038 10.4792C21.3275 11.9188 21.135 13.368 20.6398 14.7253C20.1446 16.0826 19.3586 17.3153 18.337 18.337Z" fill="#787882"/>
<path d="M10.9741 3.54004H11.6821V4.95605H10.9741V3.54004Z" fill="#787882"/>
<path d="M17.7002 10.9741H19.1162V11.6821H17.7002V10.9741Z" fill="#787882"/>
<path d="M10.9741 17.7002H11.6821V19.1162H10.9741V17.7002Z" fill="#787882"/>
<path d="M7.12738 4.76038L7.74048 4.40639L8.09448 5.01953L7.48138 5.37351L7.12738 4.76038Z" fill="#787882"/>
<path d="M14.5612 17.6362L15.1743 17.2822L15.5283 17.8953L14.9152 18.2493L14.5612 17.6362Z" fill="#787882"/>
<path d="M17.2823 15.1751L17.6363 14.562L18.2494 14.916L17.8954 15.5291L17.2823 15.1751Z" fill="#787882"/>
<path d="M17.2822 7.48132L17.8954 7.12732L18.2494 7.74045L17.6362 8.09446L17.2822 7.48132Z" fill="#787882"/>
<path d="M14.5612 5.01965L14.9152 4.40652L15.5283 4.7605L15.1743 5.37364L14.5612 5.01965Z" fill="#787882"/>
<path d="M11.9197 12.2097L14.0481 13.3425L13.4648 13.4988L13.648 14.1826L15.0988 13.794C15.1437 13.7819 15.1858 13.7612 15.2227 13.7329C15.2596 13.7045 15.2906 13.6693 15.3138 13.629C15.337 13.5887 15.3521 13.5443 15.3582 13.4982C15.3643 13.4521 15.3612 13.4052 15.3491 13.3603L14.9604 11.9096L14.2765 12.0928L14.4544 12.7566L12.3452 11.6338C12.4238 11.3725 12.3988 11.0909 12.2753 10.8476C12.1518 10.6043 11.9394 10.4179 11.6821 10.327V6.51873L12.1398 6.97641L12.6404 6.47576L11.5784 5.41375C11.5455 5.38088 11.5065 5.3548 11.4636 5.33701C11.4206 5.31922 11.3746 5.31006 11.3281 5.31006C11.2816 5.31006 11.2356 5.31922 11.1926 5.33701C11.1497 5.3548 11.1106 5.38088 11.0778 5.41375L10.0157 6.47576L10.5164 6.97641L10.9741 6.51873V10.327C10.8317 10.377 10.7017 10.4568 10.5926 10.561C10.4835 10.6652 10.3978 10.7915 10.3414 10.9314C10.2849 11.0713 10.2589 11.2216 10.265 11.3724C10.2712 11.5231 10.3094 11.6708 10.3771 11.8056C10.4448 11.9405 10.5405 12.0593 10.6577 12.1543C10.775 12.2492 10.9111 12.3181 11.0571 12.3563C11.203 12.3946 11.3554 12.4012 11.5042 12.376C11.6529 12.3507 11.7946 12.294 11.9197 12.2097ZM10.9741 11.3281C10.9741 11.2581 10.9948 11.1897 11.0337 11.1315C11.0726 11.0732 11.1279 11.0279 11.1926 11.0011C11.2573 10.9743 11.3285 10.9673 11.3971 10.9809C11.4658 10.9946 11.5289 11.0283 11.5784 11.0778C11.6279 11.1273 11.6616 11.1904 11.6753 11.2591C11.6889 11.3277 11.6819 11.3989 11.6551 11.4636C11.6283 11.5283 11.583 11.5836 11.5248 11.6225C11.4665 11.6614 11.3981 11.6821 11.3281 11.6821C11.2342 11.682 11.1442 11.6447 11.0779 11.5783C11.0115 11.512 10.9742 11.422 10.9741 11.3281Z" fill="#787882"/>
</svg>
