<svg width="35" height="24" viewBox="0 0 35 24" fill="none" xmlns="http://www.w3.org/2000/svg">
<g clip-path="url(#clip0)">
<path d="M33.7906 20.0282L31.5508 21.2411L28.0339 14.747C29.0314 14.0832 29.7227 13.0481 29.9532 11.8722C30.1841 10.6961 29.9351 9.47676 29.2623 8.48509L25.4302 2.83604C25.3121 2.6617 25.0813 2.60545 24.8963 2.70568L18.9433 5.92994C18.7583 6.02991 18.6794 6.2541 18.7607 6.44817L21.398 12.7442C21.8615 13.8494 22.7468 14.7238 23.8577 15.1733C24.9685 15.6224 26.2129 15.6099 27.3141 15.1381L30.8308 21.6311L28.591 22.844C28.3922 22.9517 28.3183 23.2002 28.426 23.399C28.5337 23.5979 28.7822 23.6717 28.981 23.5641L34.1806 20.7482C34.3113 20.6797 34.395 20.5459 34.3998 20.3984C34.4046 20.2508 34.3294 20.1121 34.2033 20.0356C34.0772 19.9589 33.9194 19.9559 33.7906 20.0282ZM20.5918 8.69995L19.6591 6.47349L24.9605 3.60218L26.3147 5.59858L20.5918 8.69995Z" fill="#787882"/>
<path d="M5.66565 24.0047C5.85465 24.005 6.0194 23.8757 6.06392 23.6917C6.1087 23.5081 6.02153 23.3177 5.85359 23.2311L3.58928 22.064L6.97215 15.5003C8.08297 15.95 9.32736 15.9375 10.4289 15.4654C11.5304 14.9933 12.3975 14.1005 12.8379 12.986L15.3459 6.63716C15.4232 6.44149 15.3398 6.2189 15.1526 6.12266L9.13489 3.0213C8.94775 2.9248 8.71823 2.98585 8.6036 3.16232L4.88804 8.88894C4.23573 9.89421 4.0118 11.1183 4.26665 12.2894C4.52123 13.4605 5.23353 14.4812 6.24439 15.1245L2.86125 21.6889L0.597209 20.5221C0.39621 20.4184 0.149359 20.4973 0.0456599 20.6983C-0.0580387 20.8993 0.0208682 21.1464 0.221868 21.2499L5.47824 23.9588C5.53609 23.989 5.60034 24.0044 5.66565 24.0047ZM9.08904 3.91887L14.448 6.68088L13.715 8.53732L7.75482 5.97525L9.08904 3.91887Z" fill="#787882"/>
<path d="M15.6013 3.57684C15.7484 3.74851 16.007 3.76824 16.1787 3.62109C16.3504 3.47394 16.3701 3.21536 16.2229 3.04368L14.2663 0.76151C14.1191 0.589834 13.8605 0.569841 13.6888 0.716992C13.5172 0.864409 13.4974 1.12272 13.6446 1.2944L15.6013 3.57684Z" fill="#787882"/>
<path d="M17.9439 3.65733C18.1353 3.77729 18.388 3.71918 18.508 3.52778L19.766 1.51831C19.8859 1.32664 19.8278 1.07393 19.6361 0.953968C19.4445 0.834008 19.1918 0.892122 19.0718 1.08379L17.8138 3.09325C17.6941 3.28492 17.7522 3.53737 17.9439 3.65733Z" fill="#787882"/>
<path d="M19.5858 13.131C19.733 13.3027 19.9915 13.3224 20.1632 13.1753C20.3349 13.0281 20.3546 12.7695 20.2075 12.5979L18.2508 10.3157C18.1034 10.144 17.8451 10.124 17.6734 10.2712C17.5017 10.4186 17.4817 10.6769 17.6289 10.8486L19.5858 13.131Z" fill="#787882"/>
<path d="M14.4328 13.0009C14.5738 13.0009 14.7053 12.9284 14.7802 12.8087L16.0379 10.7992C16.1555 10.6076 16.0965 10.3573 15.9062 10.2381C15.7159 10.1189 15.4647 10.1755 15.3437 10.3647L14.086 12.3742C14.0071 12.5003 14.0028 12.6594 14.0748 12.7895C14.1468 12.9199 14.2838 13.0006 14.4328 13.0009Z" fill="#787882"/>
</g>
<defs>
<clipPath id="clip0">
<path d="M0 0H34.4V24.5714H0V0Z" fill="white"/>
</clipPath>
</defs>
</svg>
