<svg width="24" height="24" viewBox="0 0 24 24" fill="none" xmlns="http://www.w3.org/2000/svg">
<path d="M21.3916 15.6748C21.3684 15.636 21.3439 15.5988 21.3196 15.566C21.0772 15.2272 20.7167 15.0033 20.3056 14.9356C19.8963 14.868 19.4815 14.9644 19.144 15.2068L14.6719 18.4H9.99995C9.77955 18.4 9.59997 18.2208 9.59997 18.0001C9.59997 17.7793 9.77955 17.6001 9.99995 17.6001H12.6C13.372 17.6001 14 16.9721 14 16.2001C14 16.1957 13.9996 16.1589 13.9992 16.1549C13.9744 15.3833 13.3236 14.7817 12.568 14.8001H7.36441C6.9032 14.8041 6.454 14.9693 6.1 15.2645L4.144 16.8925C4.05278 16.9689 4 17.0813 4 17.2001V22.0001C4 22.2213 4.1792 22.4001 4.39998 22.4001H14.3244C14.974 22.3993 15.6068 22.1705 16.1068 21.7565L20.956 17.7497C21.6148 17.2804 21.806 16.3692 21.3916 15.6748ZM20.4696 17.1156L15.5972 21.14C15.2395 21.436 14.7872 21.5992 14.3239 21.6H4.79997V17.3876L6.61234 15.8788C6.82516 15.7016 7.09436 15.6024 7.36797 15.6L12.5808 15.5996C12.9123 15.5992 13.1891 15.85 13.2 16.2C13.2 16.5308 12.9308 16.8 12.6 16.8H9.99995C9.33836 16.8 8.79995 17.3384 8.79995 18C8.79995 18.6616 9.33836 19.2 9.99995 19.2H14.8C14.8832 19.2 14.9643 19.174 15.0332 19.1256L19.6099 15.8572C19.7748 15.7388 19.9751 15.6928 20.176 15.7248C20.3763 15.758 20.5516 15.8668 20.6719 16.0348C20.6839 16.0512 20.6947 16.068 20.7051 16.0852C20.9076 16.424 20.8135 16.8692 20.4696 17.1156Z" fill="#787882"/>
<path d="M4.38802 16.4H0V17.2H3.98798V23.2H0V24H4.38802C4.6088 24 4.788 23.8212 4.788 23.6V16.8C4.788 16.5788 4.6088 16.4 4.38802 16.4Z" fill="#787882"/>
<path d="M1.99999 20C1.33839 20 0.799988 20.5384 0.799988 21.2C0.799988 21.8616 1.33839 22.4 1.99999 22.4C2.66158 22.4 3.19999 21.8616 3.19999 21.2C3.19999 20.5384 2.66158 20 1.99999 20ZM1.99999 21.6C1.77958 21.6 1.6 21.4208 1.6 21.2C1.6 20.9792 1.77958 20.8 1.99999 20.8C2.22039 20.8 2.39997 20.9792 2.39997 21.2C2.39997 21.4208 2.22039 21.6 1.99999 21.6Z" fill="#787882"/>
<path d="M23.6 12.4H0.399984C0.179203 12.4 0 12.5788 0 12.8C0 14.3436 1.25602 15.6 2.79998 15.6H21.2C22.7436 15.6 24 14.3436 24 12.8C24 12.5788 23.8212 12.4 23.6 12.4ZM21.2 14.8H2.79998C1.83398 14.8 1.026 14.1116 0.840375 13.2H23.1596C22.974 14.1116 22.166 14.8 21.2 14.8Z" fill="#787882"/>
<path d="M12 2.00003C6.26559 2.00003 1.59998 6.66564 1.59998 12.4V12.8C1.59998 13.0212 1.77918 13.2 1.99996 13.2H22C22.2212 13.2 22.4 13.0212 22.4 12.8V12.4C22.4 6.66559 17.7348 2.00003 12 2.00003ZM2.39999 12.4C2.39999 7.10678 6.70677 2.8 12 2.8C17.2932 2.8 21.6 7.10678 21.6 12.4H2.39999Z" fill="#787882"/>
<path d="M5.42084 6.56277C5.14123 6.87717 4.88206 7.21359 4.65045 7.56318L5.31725 8.00517C5.52847 7.68674 5.76444 7.37995 6.01883 7.09396L5.42084 6.56277Z" fill="#787882"/>
<path d="M12 3.59998C9.75362 3.60119 7.61481 4.44996 5.97803 5.98877L6.52604 6.57157C8.01404 5.17235 9.95842 4.40116 12.0004 4.39999L12 3.59998Z" fill="#787882"/>
<path d="M13.2 0H10.8V0.800016H13.2V0Z" fill="#787882"/>
<path d="M12.4 0.399963H11.6V2.39998H12.4V0.399963Z" fill="#787882"/>
</svg>
