<svg width="20" height="20" viewBox="0 0 20 20" fill="none" xmlns="http://www.w3.org/2000/svg">
<g clip-path="url(#clip0)">
<path d="M5.23085 18.6367C5.07587 18.6367 4.93364 18.5383 4.87884 18.3933C4.8228 18.2449 4.86884 18.0704 4.99204 17.97C5.11581 17.8692 5.29336 17.8577 5.42916 17.9415C5.55703 18.0204 5.62668 18.174 5.6017 18.3221C5.57143 18.5012 5.41284 18.6367 5.23085 18.6367Z" fill="#787882"/>
<path d="M19.6156 12.7072C19.3245 12.416 18.9374 12.2556 18.5257 12.2556C18.3467 12.2556 18.1723 12.286 18.0086 12.3441C17.972 12.3113 17.9358 12.279 17.9219 12.2677C17.3071 11.7648 16.4196 11.8095 15.8574 12.3716L14.0809 14.1481C13.9323 14.2966 13.326 14.6453 13.1496 14.6674H12.0651C11.8749 14.6674 11.8002 14.5225 11.7818 14.4781C11.7662 14.4405 11.7283 14.3234 11.7986 14.2068L12.6575 13.958C13.1219 13.8235 13.4803 13.4653 13.6164 12.9998C13.7497 12.5437 13.6437 12.0598 13.3325 11.7053C13.318 11.6887 13.3031 11.6723 13.2878 11.6562C13.0385 11.393 12.5798 11.3655 11.7047 11.5615C11.088 11.6995 10.3756 11.9301 9.88643 12.0993C8.8245 12.4666 8.00089 13.2835 7.63553 14.3152H7.25362V14.0202C7.25362 13.8125 7.08525 13.6442 6.87754 13.6442H1.11546C0.90775 13.6442 0.73938 13.8125 0.73938 14.0202V18.2606C0.73938 18.4683 0.90775 18.6366 1.11546 18.6366H3.52371C3.73142 18.6366 3.89979 18.4683 3.89979 18.2606C3.89979 18.0528 3.73142 17.8845 3.52371 17.8845H1.49154V14.3963H6.50139V18.2606C6.50139 18.4683 6.66976 18.6366 6.87747 18.6366C7.08517 18.6366 7.25354 18.4683 7.25354 18.2606V17.9656H8.37757C9.48342 18.3427 10.6259 18.5327 11.7838 18.5327C12.038 18.5326 12.293 18.5235 12.5484 18.5052C13.9831 18.4022 15.3562 18.0151 16.6295 17.3545C16.9345 17.1963 17.0442 17.1206 17.108 17.059L19.4378 14.8965C19.4412 14.8933 19.4446 14.8901 19.4478 14.8868C19.7332 14.6017 19.927 14.2235 19.9796 13.8494C20.0414 13.4094 19.9122 13.0038 19.6156 12.7072ZM16.3892 12.9035C16.6507 12.6419 17.0497 12.5991 17.3564 12.7865L15.659 14.4838C15.5407 14.6022 15.3833 14.6674 15.2159 14.6674H14.6253L16.3892 12.9035ZM16.5827 16.5208C16.5842 16.5192 16.586 16.5174 16.5879 16.5156C16.5862 16.5174 16.5844 16.5191 16.5827 16.5208ZM19.2348 13.7447C19.2047 13.9585 19.0903 14.1789 18.9206 14.3504L16.5927 16.5111C16.5923 16.5115 16.592 16.5118 16.5917 16.5121C16.5773 16.5228 16.5097 16.5695 16.2832 16.687C13.9217 17.912 11.1172 18.1146 8.58915 17.2432L8.56305 17.2341C8.5236 17.2205 8.48219 17.2136 8.44045 17.2136H7.25354V15.0675H7.91266C8.08336 15.0675 8.23266 14.9525 8.27625 14.7875C8.51935 13.8673 9.21317 13.1281 10.1322 12.8103C12.1426 12.115 12.6715 12.1762 12.7645 12.1985C12.7654 12.1996 12.7664 12.2007 12.7673 12.2017C12.9096 12.3639 12.956 12.578 12.8943 12.7889C12.8308 13.0061 12.6641 13.173 12.4482 13.2356L11.4777 13.5167C11.4167 13.5343 11.3612 13.5671 11.3164 13.612C11.0077 13.9207 10.9198 14.3628 11.0868 14.766C11.2538 15.1692 11.6286 15.4196 12.0651 15.4196H15.2159C15.5842 15.4196 15.9305 15.2762 16.1909 15.0157L17.9676 13.239C18.1167 13.09 18.3148 13.0079 18.5257 13.0079C18.7365 13.0079 18.9347 13.09 19.0838 13.239C19.213 13.3682 19.2638 13.5384 19.2348 13.7447Z" fill="#787882"/>
<path d="M15.38 5.30537C15.3616 5.29887 15.3435 5.29247 15.3259 5.28619V4.69082C15.3314 4.69657 15.3362 4.70237 15.3402 4.70808C15.4596 4.87811 15.6941 4.91921 15.8641 4.79988C16.0341 4.68059 16.0752 4.44603 15.9559 4.276C15.8286 4.09458 15.6088 3.93994 15.3244 3.87247C15.3072 3.68063 15.1461 3.53027 14.9498 3.53027C14.7453 3.53027 14.5789 3.69353 14.5739 3.89688C14.5589 3.90098 14.5438 3.9053 14.5287 3.90985C14.1521 4.02331 13.868 4.3877 13.8377 4.79601C13.8075 5.20259 14.0223 5.55505 14.4123 5.73896C14.4516 5.75746 14.5062 5.78074 14.5737 5.80789V6.59525C14.5141 6.56378 14.4626 6.52463 14.4247 6.47754C14.2945 6.31575 14.0576 6.29029 13.8959 6.42056C13.7341 6.55084 13.7087 6.78762 13.8389 6.94937C14.0308 7.18762 14.3037 7.32523 14.5771 7.39315C14.6019 7.57682 14.7593 7.71842 14.9498 7.71842C15.1309 7.71842 15.2821 7.59036 15.3179 7.41981C15.8109 7.32515 16.156 6.99198 16.2134 6.54023C16.2807 6.01041 15.938 5.50263 15.38 5.30537ZM15.4672 6.4455C15.4555 6.53801 15.3972 6.59638 15.3259 6.63312V6.12782C15.4336 6.22323 15.48 6.34524 15.4672 6.4455Z" fill="#787882"/>
<path d="M14.9887 8.95591C13.1517 8.95591 11.6572 7.46141 11.6572 5.62446C11.6572 3.78747 13.1517 2.29297 14.9887 2.29297C16.8257 2.29297 18.3202 3.78747 18.3202 5.62446C18.3202 7.46141 16.8256 8.95591 14.9887 8.95591ZM14.9887 3.04513C13.5665 3.04513 12.4094 4.2022 12.4094 5.62446C12.4094 7.04671 13.5665 8.20375 14.9887 8.20375C16.4109 8.20375 17.568 7.04667 17.568 5.62446C17.568 4.20224 16.4109 3.04513 14.9887 3.04513Z" fill="#787882"/>
<path d="M14.9887 10.6299C12.2284 10.6299 9.98279 8.38429 9.98279 5.62403C9.98279 2.86376 12.2284 0.618164 14.9887 0.618164C17.7489 0.618164 19.9946 2.8638 19.9946 5.62403C19.9946 8.38429 17.7489 10.6299 14.9887 10.6299ZM14.9887 1.37032C12.6432 1.37032 10.7349 3.27854 10.7349 5.62403C10.7349 7.96952 12.6432 9.87777 14.9887 9.87777C17.3342 9.87777 19.2424 7.96955 19.2424 5.62403C19.2424 3.2785 17.3342 1.37032 14.9887 1.37032Z" fill="#787882"/>
</g>
<defs>
<clipPath id="clip0">
<rect width="19.2553" height="19.2553" fill="white" transform="translate(0.73938)"/>
</clipPath>
</defs>
</svg>
