<svg width="30" height="24" viewBox="0 0 30 24" fill="none" xmlns="http://www.w3.org/2000/svg">
<g clip-path="url(#clip0)">
<path d="M24.9203 13.5214L29.4685 22.8646C29.6534 23.2446 29.459 23.5555 29.0364 23.5555H0.502088C0.0794752 23.5555 -0.114986 23.2446 0.0700152 22.8646L4.61826 13.5214C4.69061 13.3727 4.88507 13.2511 5.05033 13.2511H8.95023C9.07041 13.2511 9.23273 13.3264 9.3114 13.4172C9.57599 13.723 9.84551 14.0217 10.1142 14.3174C10.3695 14.5981 10.6261 14.8824 10.8806 15.1734H6.25239C6.08708 15.1734 5.89261 15.295 5.82031 15.4436L2.80729 21.6333H26.731L23.7183 15.4436C23.646 15.295 23.4515 15.1734 23.2861 15.1734H18.6474C18.9019 14.8824 19.1586 14.5981 19.4138 14.3174C19.6834 14.0209 19.9544 13.7227 20.2196 13.4169C20.2982 13.3262 20.4602 13.2511 20.5802 13.2511H24.4883C24.6535 13.2511 24.8479 13.3727 24.9203 13.5214ZM21.456 7.13622C21.456 12.2415 17.2058 13.199 15.207 18.1053C15.0446 18.5039 14.4833 18.5019 14.3208 18.1033C12.5177 13.6798 8.8843 12.4667 8.18913 8.52593C7.50468 4.6464 10.1908 0.846172 14.1127 0.475445C18.1014 0.0983955 21.456 3.22556 21.456 7.13622ZM18.2981 7.13622C18.2981 5.18456 16.716 3.60242 14.7643 3.60242C12.8126 3.60242 11.2305 5.18456 11.2305 7.13622C11.2305 9.08793 12.8126 10.67 14.7643 10.67C16.716 10.67 18.2981 9.08793 18.2981 7.13622Z" fill="#787882"/>
</g>
<defs>
<clipPath id="clip0">
<path d="M0 0H29.5385V24H0V0Z" fill="white"/>
</clipPath>
</defs>
</svg>
