<svg width="32" height="32" viewBox="0 0 32 32" fill="none" xmlns="http://www.w3.org/2000/svg">
<path d="M13.5893 10.036L21.2653 18.344C21.4547 18.5507 21.7213 18.6667 22 18.6667C22.2787 18.6667 22.5453 18.5507 22.7347 18.3453L30.4107 10.0373C32.5187 7.75467 32.5187 4.03867 30.4107 1.756C29.364 0.624 27.968 0 26.476 0C24.9867 0 23.5893 0.624 22.544 1.75467L22 2.34533L21.456 1.756C20.4106 0.624 19.0133 0 17.524 0C16.0333 0 14.636 0.624 13.5907 1.75467C11.4813 4.03733 11.4813 7.75333 13.5893 10.036ZM15.0587 3.112C15.7213 2.39467 16.596 2 17.524 2C18.4493 2 19.3253 2.39467 19.988 3.112L21.2667 4.49733C21.644 4.90667 22.3573 4.90667 22.736 4.49733L24.0147 3.112C25.34 1.676 27.6173 1.67867 28.9427 3.112C30.3587 4.64667 30.3587 7.144 28.9427 8.68L22 16.1933L15.0587 8.68C13.6413 7.144 13.6413 4.64667 15.0587 3.112Z" fill="#787882"/>
<path d="M27.6667 23C26.1707 23 24.568 23.5333 23.0173 24.0507C22.9813 24.0627 22.9453 24.0747 22.9093 24.0867C22.6067 22.6907 21.5093 21.556 20.068 21.2613L8.27067 18.848L8.29733 18.748C8.404 18.356 8.26267 17.9387 7.93867 17.692C7.85067 17.6227 5.67467 16 1 16C0.448 16 0 16.448 0 17V28.3333C0 28.8853 0.448 29.3333 1 29.3333H4.66667C5.11867 29.3333 5.51467 29.0307 5.632 28.5947L5.724 28.256C9.204 29.8467 14.4427 32 17.3333 32C21.5427 32 31.08 26.7653 31.4827 26.5413C31.924 26.2973 32.116 25.764 31.928 25.2947C31.8907 25.2013 30.972 23 27.6667 23ZM2 27.3333V18.028C4.10533 18.1507 5.468 18.6413 6.16533 18.9707L4.15867 26.3827C4.152 26.3947 4.14133 26.4013 4.136 26.4133C4.07467 26.5413 4.04667 26.6773 4.04267 26.8107L3.90133 27.3333H2ZM17.3333 30C15.3733 30 11.3533 28.648 6.25467 26.296L7.748 20.7813L19.6667 23.2187C20.3827 23.3653 20.896 23.972 20.9707 24.6867C20.2707 24.872 19.5987 25 19 25C16.544 25 13.0427 23.74 13.008 23.7267C12.4907 23.54 11.9173 23.8067 11.7267 24.3253C11.5373 24.844 11.8067 25.4173 12.3253 25.6067C12.4813 25.6627 16.1893 27 19 27C20.0293 27 21.108 26.7413 22.1867 26.416C22.2733 26.3987 22.3573 26.3827 22.4333 26.3453C22.84 26.2187 23.2467 26.084 23.6493 25.9493C25.048 25.4813 26.496 25 27.6667 25C28.4707 25 29.0227 25.1827 29.3933 25.3947C26.176 27.08 20.0373 30 17.3333 30Z" fill="#787882"/>
</svg>
