<svg width="22" height="21" viewBox="0 0 22 21" fill="none" xmlns="http://www.w3.org/2000/svg">
<path d="M3.30901 16.9648H7.0873C7.49998 16.9648 7.8482 16.6473 7.8482 16.2399C7.8482 15.8325 7.49998 15.5149 7.0873 15.5149H3.30901C2.79557 15.5149 2.39062 15.1224 2.39062 14.6565V3.17717C2.39062 2.71129 2.79557 2.31871 3.30901 2.31871H15.6933C16.2067 2.31871 16.6117 2.71129 16.6117 3.17717V6.73973C16.6117 7.1471 16.9599 7.46468 17.3726 7.46468C17.7853 7.46468 18.1335 7.1471 18.1335 6.73973V3.17717C18.1335 1.89655 17.0321 0.86881 15.6933 0.86881H3.30901C1.9702 0.86881 0.86881 1.89655 0.86881 3.17717V14.6565C0.86881 15.9371 1.9702 16.9648 3.30901 16.9648Z" fill="#787882" stroke="#787882" stroke-width="0.26238"/>
<path d="M8.42536 12.8749C8.42536 15.5742 10.7508 17.7561 13.5943 17.7561C16.4377 17.7561 18.7632 15.5742 18.7632 12.8749C18.7632 10.1755 16.4377 7.9936 13.5943 7.9936C10.7508 7.9936 8.42536 10.1755 8.42536 12.8749ZM9.94717 12.8749C9.94717 10.9903 11.5762 9.4435 13.5943 9.4435C15.6124 9.4435 17.2414 10.9903 17.2414 12.8749C17.2414 14.7595 15.6124 16.3062 13.5943 16.3062C11.5762 16.3062 9.94717 14.7595 9.94717 12.8749Z" fill="#787882" stroke="#787882" stroke-width="0.26238"/>
<path d="M21.0571 19.9213L21.057 19.9214C20.9075 20.0622 20.7135 20.1312 20.5212 20.1312C20.3291 20.1312 20.1349 20.0623 19.986 19.9212C19.986 19.9212 19.9859 19.9212 19.9859 19.9211L16.1743 16.327C16.1743 16.327 16.1743 16.327 16.1743 16.327C15.8734 16.0433 15.8734 15.58 16.1743 15.2963L21.0571 19.9213ZM21.0571 19.9213C21.3579 19.6375 21.358 19.1741 21.057 18.8904L17.2452 15.2962C16.9486 15.0165 16.4709 15.0165 16.1743 15.2962L21.0571 19.9213Z" fill="#787882" stroke="#787882" stroke-width="0.26238"/>
</svg>
