<svg width="34" height="33" viewBox="0 0 34 33" fill="none" xmlns="http://www.w3.org/2000/svg">
<path d="M31.1471 4.8232H29.3293C29.2531 4.44979 29.1042 4.10275 28.9002 3.79558L30.1881 2.50768C30.4173 2.27848 30.4173 1.90799 30.1881 1.67879C29.9589 1.44958 29.5884 1.44958 29.3592 1.67879L28.0713 2.96668C27.7641 2.76268 27.4171 2.61379 27.0437 2.53758V0.719752C27.0437 0.395579 26.7816 0.133545 26.4575 0.133545C26.1333 0.133545 25.8713 0.395579 25.8713 0.719752V2.53758C25.4979 2.61379 25.1508 2.76268 24.8436 2.96668L23.5557 1.67879C23.3265 1.44958 22.9561 1.44958 22.7269 1.67879C22.4976 1.90799 22.4976 2.27848 22.7269 2.50768L24.0147 3.79558C23.8107 4.10275 23.6619 4.44979 23.5856 4.8232H21.7678C21.4436 4.8232 21.1816 5.08523 21.1816 5.40941C21.1816 5.73358 21.4436 5.99561 21.7678 5.99561H23.5856C23.6619 6.36903 23.8107 6.71606 24.0147 7.02323L22.7269 8.31113C22.4976 8.54034 22.4976 8.91082 22.7269 9.14003C22.8412 9.25434 22.9912 9.31179 23.1413 9.31179C23.2914 9.31179 23.4414 9.25434 23.5557 9.14003L24.8436 7.85213C25.1508 8.05613 25.4979 8.20503 25.8713 8.28123V10.0991C25.8713 10.4232 26.1333 10.6853 26.4575 10.6853C26.7816 10.6853 27.0437 10.4232 27.0437 10.0991V8.28123C27.4171 8.20503 27.7641 8.05613 28.0713 7.85213L29.3592 9.14003C29.4735 9.25434 29.6236 9.31179 29.7736 9.31179C29.9237 9.31179 30.0738 9.25434 30.1881 9.14003C30.4173 8.91082 30.4173 8.54034 30.1881 8.31113L28.9002 7.02323C29.1042 6.71606 29.2531 6.36903 29.3293 5.99561H31.1471C31.4713 5.99561 31.7333 5.73358 31.7333 5.40941C31.7333 5.08523 31.4713 4.8232 31.1471 4.8232ZM26.4575 7.16803C25.4879 7.16803 24.6989 6.37899 24.6989 5.40941C24.6989 4.43982 25.4879 3.65079 26.4575 3.65079C27.4271 3.65079 28.2161 4.43982 28.2161 5.40941C28.2161 6.37899 27.4271 7.16803 26.4575 7.16803Z" fill="#787882"/>
<path d="M33.4138 31.8276H31.3896C30.6035 30.7179 27.2311 27.1379 16.9584 27.1379C16.3757 27.1379 15.8276 27.1526 15.2414 27.1743C15.2414 27.1737 15.2414 27.1731 15.2414 27.1731L12.3191 16.1125C12.6867 15.5803 13.2366 15.1904 13.8679 15.021C14.5719 14.8323 15.3182 14.9284 15.9501 15.2942C15.9583 15.2989 15.973 15.3001 15.9818 15.3048C16.0064 15.3176 16.0357 15.3264 16.0621 15.3352C16.0908 15.3452 16.1207 15.3552 16.15 15.3604C16.1588 15.3622 16.167 15.3663 16.1758 15.3675C16.2016 15.371 16.2274 15.3728 16.2526 15.3728C16.2596 15.3728 16.2661 15.3704 16.2725 15.3698C16.2948 15.3692 16.3165 15.3645 16.3388 15.361C16.3704 15.3563 16.4015 15.3511 16.432 15.3411C16.4531 15.3341 16.473 15.3253 16.4935 15.3159C16.524 15.3018 16.5527 15.286 16.5809 15.2672C16.5902 15.2608 16.6008 15.2579 16.6096 15.2514C16.6184 15.245 16.6237 15.2356 16.6313 15.2285C16.6571 15.2069 16.6799 15.1822 16.7016 15.1559C16.7157 15.1389 16.7298 15.1224 16.7415 15.1043C16.7473 15.0955 16.755 15.089 16.7602 15.0796C17.1243 14.4483 17.7134 13.9963 18.4174 13.8076C19.1209 13.62 19.8572 13.7155 20.4891 14.0808C20.6943 14.1986 20.9516 14.1822 21.1386 14.038C21.3268 13.8938 21.4094 13.6505 21.3479 13.4213C20.6591 10.8496 19.0101 8.70054 16.7046 7.36985C14.5696 6.13706 12.1087 5.75427 9.71579 6.2502L9.25328 4.52441C9.16886 4.21137 8.84821 4.02554 8.53517 4.10996C8.22214 4.19378 8.03631 4.51503 8.12072 4.82806L8.58324 6.55385C6.26245 7.32178 4.32386 8.88285 3.09107 11.0178C1.75979 13.3234 1.40631 16.0088 2.09569 18.5793C2.15666 18.8085 2.35069 18.9779 2.58517 19.0084C2.61097 19.0119 2.63676 19.0137 2.66197 19.0137C2.86948 19.0137 3.0641 18.9035 3.16962 18.7206C3.92172 17.4169 5.59534 16.9696 6.89848 17.7217C6.90669 17.7264 6.91666 17.7275 6.92486 17.7322C6.94948 17.7451 6.97586 17.7539 7.00283 17.7627C7.03155 17.7727 7.05969 17.7826 7.08959 17.7879C7.09838 17.7897 7.106 17.7938 7.11479 17.795C7.14059 17.7985 7.16638 17.8002 7.19159 17.8002C7.19862 17.8002 7.20448 17.7979 7.21152 17.7979C7.23379 17.7973 7.25548 17.7926 7.27717 17.7891C7.30883 17.7844 7.34048 17.7791 7.37097 17.7692C7.39207 17.7621 7.41141 17.7533 7.43193 17.744C7.463 17.7299 7.49172 17.7141 7.51986 17.6947C7.52866 17.6883 7.53979 17.6859 7.548 17.6789C7.55621 17.6724 7.56148 17.6636 7.5691 17.6566C7.5949 17.6343 7.61835 17.6097 7.64062 17.5828C7.65469 17.5658 7.66817 17.5499 7.68048 17.5312C7.68635 17.5224 7.69397 17.5159 7.69924 17.5065C8.41383 16.2685 9.95555 15.8148 11.2264 16.4168L14.127 27.2405C6.06607 27.8279 3.31148 30.8228 2.60803 31.8276H0.586207C0.262035 31.8276 0 32.0896 0 32.4138C0 32.738 0.262035 33 0.586207 33H2.93103H31.069H33.4138C33.738 33 34 32.738 34 32.4138C34 32.0896 33.738 31.8276 33.4138 31.8276ZM6.68979 8.81544C6.6259 8.96727 6.57138 9.13258 6.51569 9.29672C6.48872 9.37703 6.45707 9.45148 6.43186 9.53472C6.35566 9.78854 6.28766 10.0547 6.23021 10.3343C6.18214 10.5705 6.14286 10.815 6.10945 11.063C6.09831 11.1462 6.09128 11.2324 6.0819 11.3168C6.06314 11.485 6.04555 11.6544 6.03324 11.828C6.02621 11.9294 6.02152 12.0325 6.01683 12.1357C6.00921 12.2975 6.00393 12.4605 6.00159 12.6258C6.00041 12.7348 5.99983 12.8439 6.001 12.9541C6.00276 13.1211 6.00803 13.2894 6.01566 13.4594C6.02035 13.5678 6.02445 13.6757 6.03148 13.7847C6.04321 13.9717 6.06021 14.1599 6.07897 14.3492C6.08835 14.4436 6.09479 14.5362 6.10593 14.6312C6.13817 14.9138 6.17628 15.1975 6.22317 15.4841C6.22962 15.5222 6.23783 15.5609 6.24428 15.5996C6.28238 15.8235 6.32224 16.0481 6.36914 16.2732C5.17797 16.0129 3.92524 16.3306 3.00079 17.1185C2.75224 15.2156 3.13328 13.2935 4.10931 11.6034C4.76762 10.4627 5.65338 9.50423 6.70445 8.77499C6.69917 8.78789 6.69507 8.80254 6.68979 8.81544ZM16.1207 8.38516C17.8107 9.36061 19.1004 10.8343 19.8372 12.6053C19.2716 12.5009 18.6865 12.5209 18.1156 12.675C17.5036 12.8386 16.9531 13.1416 16.4976 13.5567C16.4255 13.338 16.3476 13.1235 16.2684 12.9101C16.2555 12.8749 16.2438 12.838 16.2303 12.8028C16.1271 12.5296 16.0175 12.2623 15.9032 12.0003C15.8686 11.9206 15.8311 11.8438 15.7959 11.7652C15.7139 11.5841 15.6306 11.4041 15.5439 11.2289C15.4981 11.1362 15.4501 11.046 15.4032 10.9557C15.3217 10.7986 15.2384 10.6444 15.1534 10.4932C15.1019 10.4017 15.0497 10.3114 14.9963 10.2223C14.9096 10.0758 14.8205 9.93275 14.7296 9.79206C14.6763 9.70882 14.6235 9.62558 14.569 9.54527C14.4693 9.39754 14.3668 9.2551 14.263 9.11499C14.2149 9.04992 14.168 8.98251 14.1194 8.9192C13.9658 8.71989 13.8093 8.52761 13.6487 8.34706C13.4599 8.13368 13.2688 7.93789 13.0759 7.75675C13.0068 7.69168 12.937 7.63834 12.8672 7.57737C12.743 7.46834 12.6187 7.35754 12.4932 7.26258C12.4815 7.25379 12.4704 7.24206 12.4587 7.23327C13.7337 7.33937 14.9805 7.72627 16.1207 8.38516ZM7.49993 15.932C7.47121 15.7907 7.44424 15.6494 7.41903 15.5093C7.40497 15.4308 7.38914 15.3516 7.37683 15.2737C7.33403 15.0081 7.29652 14.7449 7.26662 14.4835C7.26193 14.4448 7.26017 14.4073 7.25607 14.3686C7.23262 14.1464 7.21269 13.9254 7.19921 13.7073C7.19393 13.62 7.191 13.535 7.18748 13.4482C7.17986 13.28 7.174 13.1123 7.17224 12.947C7.17107 12.8526 7.17224 12.7594 7.17283 12.6662C7.17459 12.5091 7.17869 12.3544 7.18631 12.2014C7.19041 12.1111 7.19452 12.0208 7.20097 11.9317C7.2121 11.7705 7.22793 11.6128 7.24552 11.4569C7.25372 11.3824 7.26017 11.3068 7.27014 11.2335C7.30003 11.0073 7.33579 10.7845 7.37976 10.57C7.41903 10.3771 7.46534 10.1942 7.51517 10.0166C7.53159 9.95913 7.54976 9.9052 7.56676 9.84892C7.6031 9.73051 7.64179 9.61503 7.68283 9.50423C7.70452 9.44561 7.72738 9.38816 7.75024 9.33189C7.79303 9.22754 7.83817 9.1273 7.88448 9.03116C7.90793 8.98251 7.93079 8.93268 7.95541 8.88579C8.01814 8.76679 8.08379 8.65482 8.15297 8.54989C8.1641 8.53347 8.17348 8.51413 8.18462 8.49772C8.26493 8.3793 8.34993 8.27261 8.43786 8.17296C8.466 8.14072 8.4959 8.11375 8.52521 8.08327C8.58793 8.01878 8.65183 7.95782 8.71748 7.90272C8.75324 7.87282 8.78959 7.84527 8.82652 7.8183C8.85407 7.79779 8.88338 7.78196 8.91152 7.7632L10.8648 15.0515C9.67007 14.8041 8.41852 15.1318 7.49993 15.932ZM11.0623 11.2652L10.0429 7.46013C10.0787 7.46247 10.1138 7.4613 10.1502 7.46541C10.1918 7.4701 10.234 7.47537 10.2762 7.48299C10.3647 7.49823 10.4544 7.51992 10.5447 7.5463C10.5816 7.55685 10.6186 7.56506 10.6555 7.57737C10.7821 7.61958 10.9105 7.67058 11.04 7.7333C11.0553 7.74092 11.0705 7.75089 11.0858 7.75851C11.2007 7.81596 11.3161 7.88161 11.4316 7.95489C11.4756 7.98303 11.5201 8.01468 11.5647 8.04458C11.6538 8.10496 11.7429 8.16885 11.832 8.23803C11.8801 8.27554 11.9287 8.31423 11.9768 8.3541C12.0677 8.42913 12.1585 8.51003 12.2494 8.59444C12.2922 8.6343 12.335 8.67182 12.3772 8.71344C12.5091 8.84241 12.641 8.97782 12.7711 9.12496C12.9165 9.28909 13.0583 9.4632 13.1973 9.64434C13.243 9.70354 13.287 9.76685 13.3321 9.82841C13.4247 9.95385 13.5162 10.0816 13.6059 10.2147C13.6563 10.2898 13.7061 10.3671 13.7553 10.4439C13.8374 10.5717 13.9177 10.7019 13.9963 10.8355C14.0449 10.9176 14.093 10.9996 14.1399 11.0835C14.2196 11.2253 14.297 11.3707 14.3732 11.5179C14.4142 11.597 14.4559 11.6744 14.4963 11.7553C14.5919 11.9481 14.6839 12.1463 14.773 12.3473C14.79 12.3854 14.8082 12.4218 14.8252 12.4605C14.9289 12.6996 15.028 12.9453 15.123 13.1944C15.1534 13.2741 15.181 13.3568 15.2103 13.4377C15.2572 13.5666 15.3023 13.6974 15.3463 13.8287C14.7701 13.7132 14.1704 13.7314 13.5859 13.8885C12.9862 14.0491 12.4452 14.3434 11.995 14.7461L11.0623 11.2652ZM4.16793 31.8276C5.49921 30.5555 8.98538 28.3103 17 28.3103C24.9806 28.3103 28.4814 30.5555 29.8233 31.8276H4.16793Z" fill="#787882"/>
</svg>
