<svg width="32" height="25" viewBox="0 0 32 25" fill="none" xmlns="http://www.w3.org/2000/svg">
<g clip-path="url(#clip0)">
<path d="M12.7927 12.5625C12.7823 13.9406 13.1156 14.5968 13.6604 14.5968C14.2063 14.5968 14.5021 13.9125 14.5021 12.5448C14.5021 11.2125 14.2167 10.5093 13.6521 10.5093C13.1354 10.5093 12.7823 11.1666 12.7927 12.5625Z" fill="#787882"/>
<path d="M29.4604 0.638519H1.6875C0.755208 0.638519 0 1.39373 0 2.32498V22.5708C0 23.5031 0.755208 24.2583 1.6875 24.2583H23.2156V18.2854C23.2156 17.2583 24.051 16.4239 25.0781 16.4239H31.149V2.32498C31.1469 1.39373 30.3917 0.638519 29.4604 0.638519ZM22.3479 15.6604C21.9604 15.6604 21.6073 15.6135 21.3115 15.5437C21.1375 15.5021 20.9875 15.3937 20.8948 15.2427C20.801 15.0906 20.7719 14.9083 20.8125 14.7344L20.826 14.6791C20.85 14.5781 20.9135 14.4916 21.0042 14.4406C21.0948 14.3885 21.2021 14.376 21.301 14.4062C21.5792 14.4906 21.9313 14.5594 22.2833 14.5594C22.8656 14.5594 23.4865 14.2812 23.4865 13.6437C23.4865 13.0239 22.9958 12.6448 21.7948 12.6448C21.7792 12.6448 21.7635 12.6448 21.7479 12.6448C21.5552 12.6458 21.3729 12.5646 21.2448 12.4208C21.1177 12.2771 21.0583 12.0844 21.0823 11.8937L21.2729 10.3823C21.3333 9.90519 21.7396 9.54685 22.2198 9.54685H24.1115C24.4312 9.54685 24.6896 9.80519 24.6896 10.125C24.6896 10.4448 24.4312 10.7031 24.1115 10.7031H22.3594L22.2292 11.6281C22.3594 11.6094 22.4698 11.6094 22.6188 11.6094C23.1917 11.6094 23.775 11.7385 24.2 12.0437C24.6531 12.3489 24.9313 12.8479 24.9313 13.5521C24.9271 14.6708 23.9656 15.6604 22.3479 15.6604ZM29.4271 14.9302C29.4271 15.2166 29.1948 15.4489 28.9083 15.4489C28.6219 15.4489 28.3885 15.2166 28.3885 14.9302V3.95102C28.3885 3.86039 28.3146 3.78539 28.2229 3.78539H2.92396C2.83229 3.78539 2.75833 3.85935 2.75833 3.95102V20.9448C2.75833 21.0364 2.83229 21.1104 2.92396 21.1104H21.7219C22.0083 21.1104 22.2406 21.3427 22.2406 21.6291C22.2406 21.9156 22.0083 22.1489 21.7219 22.1489H2.92396C2.26042 22.1489 1.71979 21.6083 1.71979 20.9448V3.95102C1.71979 3.28644 2.26042 2.74685 2.92396 2.74685H28.224C28.8875 2.74685 29.4281 3.28644 29.4281 3.95102V14.9302H29.4271ZM18.0531 10.8979L17.5021 11.1604C17.3583 11.2281 17.1906 11.2281 17.0479 11.1583C16.9042 11.0875 16.801 10.9552 16.7656 10.8C16.7135 10.5594 16.8333 10.3156 17.0552 10.2135L18.074 9.73956C18.2 9.68019 18.3375 9.64998 18.4771 9.64998C19.0031 9.64998 19.4312 10.0781 19.4312 10.6052V14.9823C19.4312 15.3573 19.1271 15.6625 18.751 15.6625C18.376 15.6625 18.0719 15.3573 18.0719 14.9823V10.9H18.0531V10.8979ZM15.9094 12.525C15.9094 14.3844 15.1604 15.6604 13.625 15.6604C12.0708 15.6604 11.3865 14.2646 11.3771 12.5625C11.3771 10.8239 12.1167 9.44581 13.6698 9.44581C15.2802 9.44685 15.9094 10.8802 15.9094 12.525ZM8.09063 10.575C7.80313 10.575 7.53542 10.6552 7.3 10.7677C7.16667 10.8312 7.01146 10.8364 6.87292 10.7823C6.73438 10.7281 6.625 10.6187 6.57083 10.4802L6.55625 10.4448C6.46354 10.2104 6.56354 9.94477 6.78646 9.82706C7.21458 9.6031 7.76354 9.44581 8.37708 9.44581C9.73646 9.44581 10.4854 10.2416 10.4854 11.3344C10.4854 12.3416 9.75417 13.1469 8.88542 13.9229L8.33125 14.3854V14.4041H10.0198C10.3396 14.4041 10.5979 14.6625 10.5979 14.9823C10.5979 15.3021 10.3385 15.5604 10.0198 15.5604H6.92292C6.59688 15.5604 6.33333 15.2969 6.33333 14.9708C6.33333 14.8041 6.40417 14.6458 6.52708 14.5344L7.11042 14.0073C8.42292 12.8333 9.06146 12.1583 9.08021 11.4552C9.08125 10.9635 8.78542 10.575 8.09063 10.575Z" fill="#787882"/>
<path d="M25.077 17.4614C24.6218 17.4614 24.2531 17.8302 24.2531 18.2854V23.2812L30.0728 17.4614H25.077Z" fill="#787882"/>
<path d="M29.4604 24.2583C30.3927 24.2583 31.1479 23.5031 31.1479 22.5708V17.8541L24.7438 24.2583H29.4604Z" fill="#787882"/>
<rect x="4.00647" y="8.01282" width="21.6346" height="8.01282" fill="#787882"/>
</g>
<defs>
<clipPath id="clip0">
<path d="M0 0H31.25V25H0V0Z" fill="white"/>
</clipPath>
</defs>
</svg>
