<svg width="11" height="19" viewBox="0 0 11 19" fill="none" xmlns="http://www.w3.org/2000/svg">
<g clip-path="url(#clip0)">
<path d="M5.05087 16.3701C3.05054 16.3701 0.925781 17.0271 0.925781 18.2451C0.925781 18.4522 1.09387 18.6201 1.30083 18.6201H8.80078C9.00787 18.6201 9.17583 18.4522 9.17583 18.2451C9.17583 17.0271 7.05107 16.3701 5.05087 16.3701Z" fill="#CFD8DC"/>
<path d="M8.94548 1.38957L8.78357 0.882553C8.73482 0.726685 8.58925 0.620117 8.42583 0.620117H1.73131C1.5753 0.620117 1.43509 0.716934 1.38029 0.862366C1.01802 1.82243 0.175781 4.19383 0.175781 5.49516C0.175781 8.18311 2.36275 10.3701 5.05083 10.3701C7.73877 10.3701 9.92574 8.18311 9.92574 5.49516C9.92574 4.43539 9.35953 2.67511 8.94548 1.38957V1.38957Z" fill="#ECEFF1"/>
<path d="M5.05081 9.62007C3.16679 9.62007 1.5768 8.34882 1.08557 6.62012H9.01605C8.52483 8.34882 6.93483 9.62007 5.05081 9.62007Z" fill="#FFFB97"/>
<path d="M5.05083 10.3701C2.36275 10.3701 0.175781 8.18311 0.175781 5.49516C0.175781 4.19534 1.01802 1.82243 1.37947 0.863052C1.43509 0.716934 1.57448 0.620117 1.73048 0.620117H8.42583C8.59007 0.620117 8.73399 0.726685 8.78357 0.882553L8.9463 1.38957C9.35953 2.67511 9.92574 4.43539 9.92574 5.49516C9.92574 8.18311 7.73877 10.3701 5.05083 10.3701ZM1.99155 1.37007C1.46049 2.81313 0.925735 4.58536 0.925735 5.49516C0.925735 7.76988 2.77679 9.62012 5.05083 9.62012C7.32472 9.62012 9.17578 7.76988 9.17578 5.49516C9.17578 4.55309 8.60724 2.78758 8.23151 1.61987L8.15199 1.37007H1.99155Z" fill="#787882"/>
<path d="M5.05083 17.1201C4.84373 17.1201 4.67578 16.9521 4.67578 16.7452V9.99516C4.67578 9.78807 4.84373 9.62012 5.05083 9.62012C5.25778 9.62012 5.42573 9.78807 5.42573 9.99516V16.7452C5.42573 16.9521 5.25778 17.1201 5.05083 17.1201Z" fill="#787882"/>
<path d="M8.80078 18.6201H1.30083C1.09387 18.6201 0.925781 18.4522 0.925781 18.2451C0.925781 17.0271 3.05136 16.3701 5.05087 16.3701C7.05038 16.3701 9.17583 17.0271 9.17583 18.2451C9.17583 18.4522 9.00787 18.6201 8.80078 18.6201ZM1.92032 17.8702H8.18129C7.71107 17.4914 6.58827 17.1201 5.05087 17.1201C3.51334 17.1201 2.39053 17.4914 1.92032 17.8702Z" fill="#787882"/>
<path d="M9.17574 6.62028H0.92569C0.718735 6.62028 0.550781 6.45219 0.550781 6.24523C0.550781 6.03828 0.718735 5.89648 0.92569 5.89648H9.17574C9.38269 5.89648 9.55078 6.03828 9.55078 6.24523C9.55078 6.45219 9.38269 6.62028 9.17574 6.62028Z" fill="#787882"/>
</g>
<defs>
<clipPath id="clip0">
<rect width="10.125" height="18" fill="white" transform="translate(0 0.620117)"/>
</clipPath>
</defs>
</svg>
