<svg width="22" height="22" viewBox="0 0 22 22" fill="none" xmlns="http://www.w3.org/2000/svg">
<g clip-path="url(#clip0)">
<path d="M21.8312 20.4071L19.0719 17.6479C18.748 17.3238 18.3477 17.121 17.9284 17.0396V11.474C18.0185 11.4816 18.1083 11.4853 18.198 11.4853C19.0498 11.4853 19.8719 11.1509 20.4902 10.5326C21.2833 9.73948 21.6091 8.61171 21.3619 7.51551C21.3254 7.3537 21.1991 7.22748 21.0372 7.19089C19.9412 6.94382 18.8133 7.26961 18.0204 8.06269C17.9888 8.09408 17.9584 8.1263 17.9284 8.1587V5.90988C18.5882 5.40517 18.9756 4.62888 18.9756 3.7883C18.9756 2.86615 18.5093 2.02087 17.7283 1.52741C17.588 1.43878 17.4094 1.43878 17.2691 1.52741C16.4881 2.02087 16.0218 2.86615 16.0218 3.7883C16.0218 4.62888 16.4092 5.40517 17.069 5.90988V6.47385C16.3624 5.7741 15.3617 5.48725 14.389 5.70662C14.2272 5.74321 14.1008 5.8696 14.0644 6.03124C13.844 7.00878 14.1345 8.01452 14.8417 8.72182C15.3932 9.27337 16.1264 9.57146 16.8861 9.57146C16.947 9.57146 17.0079 9.56894 17.069 9.56525V11.2911C17.0131 11.2264 16.9549 11.1633 16.8938 11.1022C16.0403 10.2489 14.8301 9.89339 13.6498 10.147C13.5543 9.48049 12.9799 8.96654 12.2877 8.96654H9.52648L8.23993 7.19828C8.05799 6.94802 7.8314 6.73854 7.5761 6.5759C8.32587 6.2627 8.85425 5.52199 8.85425 4.6601V3.63288H9.51675C9.75408 3.63288 9.94643 3.44052 9.94643 3.20319C9.94643 2.96585 9.75408 2.7735 9.51675 2.7735H8.97242V2.08516C8.97242 1.40924 8.42255 0.859375 7.74663 0.859375H5.71518C5.03926 0.859375 4.4894 1.40924 4.4894 2.08516V2.7735H3.94507C3.70774 2.7735 3.51538 2.96585 3.51538 3.20319C3.51538 3.44052 3.70774 3.63288 3.94507 3.63288H4.70374V4.6601C4.70374 5.32914 5.02231 5.92499 5.51545 6.30483C4.52632 6.62021 3.80777 7.54757 3.80777 8.63991V13.3185C3.80777 14.324 4.35713 15.2032 5.17119 15.673V18.4336H1.31055C0.564301 18.4336 -0.0429688 19.0409 -0.0429688 19.7871C-0.0429688 20.5334 0.564301 21.1406 1.31055 21.1406H1.86377C2.10111 21.1406 2.29346 20.9483 2.29346 20.711C2.29346 20.4736 2.10111 20.2813 1.86377 20.2813H1.31055C1.03813 20.2813 0.816407 20.0595 0.816407 19.7871C0.816407 19.5147 1.03813 19.293 1.31055 19.293H5.60088C5.83822 19.293 6.03057 19.1006 6.03057 18.8633V15.9899C6.19103 16.0196 6.35619 16.0359 6.52521 16.0359H7.37636V18.8151C7.37636 19.6236 6.71857 20.2813 5.91022 20.2813H5.30127C5.06394 20.2813 4.87159 20.4736 4.87159 20.711C4.87159 20.9483 5.06394 21.1406 5.30127 21.1406H5.91022C7.19257 21.1406 8.23574 20.0975 8.23574 18.8151V16.0359H9.80729V19.7871C9.80729 20.5334 10.4146 21.1406 11.1608 21.1406C11.9072 21.1406 12.5143 20.5334 12.5143 19.7871V15.125C12.5143 13.8427 11.4713 12.7995 10.189 12.7995H8.11909V11.6988C8.16105 11.7122 8.20519 11.7194 8.25034 11.7194H12.2877C12.6385 11.7194 12.9589 11.5873 13.2023 11.3704C13.2283 12.2595 13.5894 13.112 14.2366 13.7594C14.909 14.4318 15.8028 14.7952 16.7288 14.7952C16.8419 14.7952 16.9554 14.7895 17.069 14.7786V17.0411C16.6521 17.1234 16.2545 17.3255 15.9322 17.6479L13.1857 20.3944C13.0179 20.5621 13.0179 20.8342 13.1857 21.002C13.3534 21.1698 13.6256 21.1698 13.7933 21.002L16.5398 18.2557C17.0704 17.725 17.9336 17.725 18.4643 18.2557L21.2236 21.0148C21.3075 21.0987 21.4174 21.1406 21.5274 21.1406C21.6373 21.1406 21.7472 21.0987 21.8312 21.0148C21.999 20.8469 21.999 20.5748 21.8312 20.4071ZM17.0621 8.70437C16.4666 8.75489 15.8795 8.54407 15.4495 8.11422C15.0196 7.68419 14.8085 7.09723 14.8593 6.50154C15.4548 6.45086 16.042 6.66184 16.472 7.09169C16.9018 7.52172 17.1128 8.10885 17.0621 8.70437ZM18.628 8.67029C19.1444 8.154 19.8538 7.90676 20.5698 7.98313C20.646 8.69883 20.3989 9.40848 19.8826 9.92478C19.3662 10.4412 18.6568 10.6883 17.9408 10.6119C17.9331 10.5391 17.9296 10.4664 17.9284 10.3939V10.3103C17.9403 9.70003 18.1844 9.11391 18.628 8.67029ZM17.4987 2.42505C17.8896 2.76695 18.1162 3.25908 18.1162 3.78847C18.1162 4.31769 17.8896 4.80982 17.4987 5.15172C17.1078 4.80982 16.8812 4.31786 16.8812 3.78847C16.8812 3.25908 17.1078 2.76695 17.4987 2.42505ZM7.99488 4.6601C7.99488 5.33048 7.44938 5.87598 6.779 5.87598C6.10845 5.87598 5.56311 5.33048 5.56311 4.6601V3.63288H7.99488V4.6601ZM5.34877 2.08516C5.34877 1.88307 5.5131 1.71875 5.71518 1.71875H7.74663C7.94872 1.71875 8.11304 1.88307 8.11304 2.08516V2.7735H5.34877V2.08516ZM10.189 13.6589C10.9973 13.6589 11.6549 14.3167 11.6549 15.125V19.7871C11.6549 20.0595 11.4334 20.2813 11.1608 20.2813C10.8884 20.2813 10.6667 20.0595 10.6667 19.7871V15.6062C10.6667 15.3691 10.4743 15.1765 10.237 15.1765H6.52504C5.61699 15.1765 4.85933 14.5214 4.69887 13.6589H10.189ZM12.2877 10.86H8.44303L7.60833 9.92159C7.45055 9.74418 7.17898 9.7284 7.00156 9.88601C6.82432 10.0438 6.80837 10.3154 6.96615 10.4928L7.25971 10.8226V12.7995H4.66715V8.63991C4.66715 7.76258 5.381 7.04873 6.25834 7.04873C6.76557 7.04873 7.24662 7.29361 7.54505 7.70383L8.96033 9.64901C9.04124 9.76029 9.17031 9.82592 9.30778 9.82592H12.2877C12.5729 9.82592 12.8049 10.0579 12.8049 10.3431C12.8049 10.6281 12.5727 10.86 12.2877 10.86ZM17.0509 13.9165C16.2385 14.0134 15.4303 13.7378 14.8444 13.1518C14.2584 12.5659 13.9825 11.7575 14.0795 10.9451C14.8917 10.8478 15.7002 11.124 16.2862 11.71C16.7899 12.2137 17.0636 12.8819 17.069 13.5756V13.6364C17.0677 13.7295 17.062 13.823 17.0509 13.9165Z" fill="#787882"/>
<path d="M3.58231 20.2812C3.46918 20.2812 3.3589 20.3272 3.2785 20.4071C3.19861 20.487 3.15295 20.598 3.15295 20.7109C3.15295 20.8239 3.19861 20.9348 3.2785 21.0147C3.3589 21.0946 3.46918 21.1406 3.58231 21.1406C3.69527 21.1406 3.80605 21.0946 3.88644 21.0147C3.96634 20.9348 4.01233 20.8239 4.01233 20.7109C4.01233 20.598 3.96634 20.487 3.88644 20.4071C3.80605 20.3272 3.69527 20.2812 3.58231 20.2812Z" fill="#787882"/>
</g>
<defs>
<clipPath id="clip0">
<path d="M0 0H22V22H0V0Z" fill="white"/>
</clipPath>
</defs>
</svg>
