<svg id="Filledoutline" height="512" viewBox="0 0 512 512" width="512" xmlns="http://www.w3.org/2000/svg"><path d="m416 195.53v271.98a16 16 0 0 1 -12.82 15.68 258.372 258.372 0 0 1 -51.18 4.81c-8.3 0-15.9-.34-22.75-.89a236.841 236.841 0 0 1 -28.43-3.92 16 16 0 0 1 -12.82-15.68v-271.98a23.989 23.989 0 0 1 9.01-18.74l19.8-15.84 11.19-8.95v-128h48v128l30.99 24.79a23.989 23.989 0 0 1 9.01 18.74z" fill="#686869"/><path d="m328 24h48v104h-48z" fill="#d4342f"/><path d="m336 195.54v271.97a31.925 31.925 0 0 1 -6.75 19.6 236.841 236.841 0 0 1 -28.43-3.92 16 16 0 0 1 -12.82-15.68v-271.98a23.989 23.989 0 0 1 9.01-18.74l19.8-15.84 4.18 3.35a39.807 39.807 0 0 1 15.01 31.24z" fill="#4e4e4f"/><path d="m288 224h128v192h-128z" fill="#e3e4e2"/><path d="m288 224h48v192h-48z" fill="#c9c9c8"/><path d="m384 288a32.01 32.01 0 1 1 -32-32 32 32 0 0 1 32 32z" fill="#d4342f"/><path d="m336 260.28v55.44a32.012 32.012 0 0 1 0-55.44z" fill="#bd3a2d"/><path d="m96 195.53v271.98a16 16 0 0 0 12.82 15.68 258.372 258.372 0 0 0 51.18 4.81c8.3 0 15.9-.34 22.75-.89a236.841 236.841 0 0 0 28.43-3.92 16 16 0 0 0 12.82-15.68v-271.98a23.989 23.989 0 0 0 -9.01-18.74l-19.8-15.84-11.19-8.95v-128h-48v128l-30.99 24.79a23.989 23.989 0 0 0 -9.01 18.74z" fill="#686869"/><path d="m136 24h48v104h-48z" fill="#d4342f"/><path d="m176 195.54v271.97a31.925 31.925 0 0 0 6.75 19.6 236.841 236.841 0 0 0 28.43-3.92 16 16 0 0 0 12.82-15.68v-271.98a23.989 23.989 0 0 0 -9.01-18.74l-19.8-15.84-4.18 3.35a39.807 39.807 0 0 0 -15.01 31.24z" fill="#4e4e4f"/><path d="m96 224h128v192h-128z" fill="#e3e4e2"/><path d="m176 224h48v192h-48z" fill="#c9c9c8"/><path d="m128 288a32.01 32.01 0 1 0 32-32 32 32 0 0 0 -32 32z" fill="#d4342f"/><path d="m176 260.28v55.44a32.012 32.012 0 0 0 0-55.44z" fill="#bd3a2d"/><path d="m320 467.513v-271.978a24 24 0 0 0 -9.007-18.741l-30.993-24.794v-128h-48v128l-30.993 24.794a24 24 0 0 0 -9.007 18.741v271.978a16 16 0 0 0 12.821 15.687 258.536 258.536 0 0 0 51.179 4.8 258.536 258.536 0 0 0 51.179-4.805 16 16 0 0 0 12.821-15.682z" fill="#686869"/><path d="m192 224h128v192h-128z" fill="#e3e4e2"/><circle cx="256" cy="288" fill="#d4342f" r="32"/><path d="m232 24h48v104h-48z" fill="#d4342f"/><path d="m315.99 170.547-27.99-22.392v-124.155a8 8 0 0 0 -8-8h-48a8 8 0 0 0 -8 8v124.155l-27.991 22.393a31.844 31.844 0 0 0 -12.009 24.987v271.978a24.093 24.093 0 0 0 19.223 23.521 266.908 266.908 0 0 0 52.777 4.966 266.929 266.929 0 0 0 52.778-4.966 24.093 24.093 0 0 0 19.222-23.521v-271.978a31.845 31.845 0 0 0 -12.01-24.988zm-43.99-50.547h-32v-56h32zm0-88v16h-32v-16zm-66 151.041 31-24.794a8 8 0 0 0 3-6.247v-16h32v16a8 8 0 0 0 3 6.247l31 24.793a15.923 15.923 0 0 1 6 12.5v20.46h-112v-20.465a15.922 15.922 0 0 1 6-12.494zm106 48.959v176h-112v-176zm-6.418 243.356a250.707 250.707 0 0 1 -49.582 4.644 250.686 250.686 0 0 1 -49.581-4.644 8.038 8.038 0 0 1 -6.419-7.843v-43.513h112v43.513a8.038 8.038 0 0 1 -6.418 7.843z"/><path d="m248 344h16v16h-16z"/><path d="m224 376h64v16h-64z"/><path d="m256 328a40 40 0 1 0 -40-40 40.045 40.045 0 0 0 40 40zm0-64a24 24 0 1 1 -24 24 24.028 24.028 0 0 1 24-24z"/><path d="m248 280h16v16h-16z"/><path d="m411.99 170.547-27.99-22.392v-124.155a8 8 0 0 0 -8-8h-48a8 8 0 0 0 -8 8v124.155l-5 4 10 12.494 8-6.4a8 8 0 0 0 3-6.249v-16h32v16a8 8 0 0 0 3 6.247l31 24.793a15.923 15.923 0 0 1 6 12.5v20.46h-64v16h64v176h-64v16h64v43.513a8.038 8.038 0 0 1 -6.418 7.843 250.707 250.707 0 0 1 -49.582 4.644c-5.226 0-10.461-.143-15.56-.424l-.88 15.977c5.391.3 10.922.447 16.44.447a266.929 266.929 0 0 0 52.778-4.966 24.093 24.093 0 0 0 19.222-23.521v-271.978a31.845 31.845 0 0 0 -12.01-24.988zm-43.99-138.547v16h-32v-16zm-32 88v-56h32v56z"/><path d="m344 344h16v16h-16z"/><path d="m344 376h40v16h-40z"/><path d="m352 328a40 40 0 1 0 -9.994-78.739l3.988 15.494a24 24 0 1 1 0 46.49l-3.988 15.494a40.077 40.077 0 0 0 9.994 1.261z"/><path d="m344 280h16v16h-16z"/><path d="m197 152.153-5-4v-124.153a8 8 0 0 0 -8-8h-48a8 8 0 0 0 -8 8v124.155l-27.991 22.393a31.844 31.844 0 0 0 -12.009 24.987v271.978a24.093 24.093 0 0 0 19.223 23.521 266.908 266.908 0 0 0 52.777 4.966c5.518 0 11.049-.15 16.44-.447l-.88-15.977c-5.1.281-10.334.424-15.56.424a250.686 250.686 0 0 1 -49.581-4.644 8.038 8.038 0 0 1 -6.419-7.843v-43.513h64v-16h-64v-176h64v-16h-64v-20.465a15.922 15.922 0 0 1 6-12.494l31-24.794a8 8 0 0 0 3-6.247v-16h32v16a8 8 0 0 0 3 6.247l8 6.4zm-21-120.153v16h-32v-16zm-32 88v-56h32v56z"/><path d="m152 344h16v16h-16z"/><path d="m128 376h40v16h-40z"/><path d="m160 248a40 40 0 1 0 9.994 78.739l-3.988-15.494a24 24 0 1 1 0-46.49l3.988-15.494a40.077 40.077 0 0 0 -9.994-1.261z"/><path d="m152 280h16v16h-16z"/></svg>
