<svg width="37" height="28" viewBox="0 0 37 28" fill="none" xmlns="http://www.w3.org/2000/svg">
<path d="M36.9684 26.757C36.8435 16.4715 27.9771 8.09498 16.9446 7.72086V2.31243C16.9446 1.0373 15.9081 0 14.6339 0C14.0608 0 13.5072 0.219832 13.0785 0.618738C13.0785 0.618738 3.33506 9.63958 0.532525 12.4526C0.189553 12.7989 0 13.3032 0 13.8746C0 14.4459 0.189553 14.9502 0.532525 15.2973C3.33506 18.1095 13.0785 27.1304 13.0785 27.1304C13.5072 27.5294 14.0608 27.7491 14.6339 27.7491C15.908 27.7491 16.9446 26.7118 16.9446 25.4367V20.0463C28.0358 20.2021 35.4295 23.7032 35.4295 26.9783C35.4295 27.4044 35.774 27.7491 36.1997 27.7491C36.2118 27.7507 36.2238 27.7499 36.2298 27.7491C36.6555 27.7491 37 27.4044 37 26.9783C37 26.9015 36.9894 26.827 36.9684 26.757Z" fill="#787882"/>
</svg>
