<svg width="38" height="28" viewBox="0 0 38 28" fill="none" xmlns="http://www.w3.org/2000/svg">
<path d="M17.1111 7.79069V2.33333C17.1111 1.04664 16.0644 0 14.7778 0C14.199 0 13.64 0.221812 13.207 0.624384L12.2029 1.55334C8.89887 4.61044 3.36787 9.72677 0.537759 12.5652C0.191406 12.9146 0 13.4235 0 14C0 14.5764 0.191406 15.0853 0.537759 15.4355C3.36787 18.2732 8.89887 23.3895 12.2029 26.4467L13.207 27.3756C13.64 27.7782 14.199 28 14.7778 28C16.0644 28 17.1111 26.9534 17.1111 25.6667V20.2275C28.3114 20.3848 35.7777 23.9174 35.7777 27.2222C35.7777 27.6521 36.1256 28 36.5555 28C36.9854 28 37.3333 27.6521 37.3333 27.2222C37.3332 16.7412 28.3326 8.17044 17.1111 7.79069ZM16.3333 18.6666C15.9034 18.6666 15.5555 19.0145 15.5555 19.4444V25.6666C15.5555 26.0957 15.2061 26.4444 14.7777 26.4444C14.5407 26.4444 14.3675 26.3304 14.2642 26.2348L13.2601 25.3051C9.96374 22.2555 4.4479 17.1529 1.64062 14.3379C1.59811 14.2954 1.55553 14.1739 1.55553 14C1.55553 13.8261 1.59804 13.7045 1.64062 13.6627C4.4479 10.8471 9.96374 5.74443 13.2602 2.69485L14.2643 1.76516C14.3676 1.66942 14.5408 1.55553 14.7778 1.55553C15.2061 1.55553 15.5556 1.90414 15.5556 2.33333V8.55551C15.5556 8.98542 15.9034 9.33331 16.3334 9.33331C25.6849 9.33331 33.5158 15.4385 35.3646 23.5436C32.0453 20.6361 24.8585 18.6666 16.3333 18.6666Z" fill="#787882"/>
</svg>
