<svg width="36" height="36" viewBox="0 0 36 36" fill="none" xmlns="http://www.w3.org/2000/svg">
<g clip-path="url(#clip0)">
<path d="M17.893 4.19224C17.8448 3.73628 17.7053 3.29469 17.4829 2.89371C17.2528 2.48147 16.9346 2.12508 16.5509 1.84992C15.737 1.26589 14.5597 0.961451 13.0002 1.13231C11.1363 1.33734 9.18536 0.234523 8.96169 0.107155C8.7172 -0.0729455 8.37292 -0.0206782 8.1929 0.223806C8.11159 0.334165 8.07446 0.47093 8.08875 0.607306C8.41494 3.81014 9.17604 5.97849 10.1297 7.35158C10.6684 8.19213 11.4652 8.83533 12.4006 9.18443C13.1986 9.45322 14.0669 9.42449 14.8455 9.10366C15.0753 9.01373 15.2968 8.90352 15.5071 8.77437C15.4657 8.70191 15.4223 8.63046 15.3767 8.56002C15.2191 8.32128 15.0334 8.10227 14.8237 7.90765C14.7037 7.97615 14.5791 8.03633 14.4509 8.08783C13.9141 8.3101 13.3151 8.33107 12.7641 8.14685C12.0549 7.87006 11.4536 7.37224 11.0493 6.72717C10.2913 5.63678 9.66687 3.94993 9.32204 1.50509C10.2354 1.89962 11.683 2.37492 13.1058 2.21649C14.3702 2.07669 15.2804 2.29726 15.9017 2.73217C16.1572 2.91328 16.3694 3.14883 16.523 3.42182C16.6735 3.69434 16.7675 3.99443 16.7995 4.30407C16.83 4.60059 16.8164 4.89998 16.7591 5.19254C17.0871 5.45108 17.3899 5.74022 17.6631 6.05616C17.8756 5.45924 17.954 4.82286 17.893 4.19224Z" fill="#787882"/>
<path d="M23.0095 5.61221C22.7625 5.43552 22.419 5.49253 22.2423 5.7395C22.238 5.74556 22.2338 5.75177 22.2297 5.75798C21.8382 6.32958 21.2511 6.65266 20.6484 6.98195C19.7165 7.49764 18.7379 8.02885 18.1135 9.36466C17.3711 6.63402 15.8178 5.77662 14.3142 4.9565C13.4786 4.49984 12.6647 4.0525 12.1117 3.24169C11.935 2.99473 11.5916 2.93772 11.3445 3.1144C11.1046 3.28604 11.0429 3.61634 11.2046 3.863C11.9067 4.89126 12.8324 5.40073 13.7861 5.92263C15.3642 6.78314 17.0231 7.69335 17.3711 11.6355C17.4208 11.6355 17.8526 11.6355 18.0141 11.6355C18.1756 11.6355 18.5857 11.6355 18.6354 11.6511C18.9678 9.16584 20.0955 8.54454 21.1703 7.96672C21.8973 7.55666 22.5993 7.17145 23.1368 6.37929C23.3135 6.1324 23.2564 5.78889 23.0095 5.61221Z" fill="#787882"/>
<path d="M18.0077 12.7135C11.5773 12.7092 6.36095 17.9186 6.35675 24.3491C6.35473 27.4363 7.57886 30.398 9.76003 32.5829C11.9399 34.7723 14.9028 36.0021 17.9923 36C24.4228 36.0043 29.639 30.7948 29.6433 24.3645C29.6475 17.934 24.4381 12.7177 18.0077 12.7135ZM23.7052 15.5001C25.699 16.7867 27.2016 18.7072 27.9705 20.952C27.2698 20.3589 26.5183 19.8288 25.7245 19.3677C24.2054 18.4357 23.0808 17.7399 23.7052 15.5001ZM9.62645 30.7749C8.21244 28.9357 7.44769 26.6798 7.45188 24.3599C7.4452 21.564 8.55315 18.8808 10.5305 16.9042C11.0368 18.2959 12.0309 19.1502 12.9411 19.93C13.7706 20.6414 14.513 21.2813 14.5286 22.1729C14.5286 22.8159 14.1433 23.3037 13.7022 23.8442C13.0846 24.5102 12.638 25.3161 12.4006 26.1927C12.3123 26.7578 12.2935 27.3317 12.3447 27.9013C12.3788 28.8177 12.4223 29.8833 12.1334 30.5512C11.8725 31.1725 11.2015 31.421 9.62645 30.7749ZM17.9923 34.9003V34.8972C17.5625 34.8973 17.133 34.8714 16.7062 34.8196C16.378 34.0834 16.6209 33.2179 17.284 32.7599C17.7687 32.4058 19.1045 32.8034 20.5117 33.2228C21.2387 33.4403 21.9811 33.6608 22.6863 33.7975C21.2284 34.5244 19.6214 34.9019 17.9923 34.9003ZM24.2986 32.8034C23.4194 32.9556 22.0898 32.558 20.8131 32.1821C19.1386 31.682 17.5481 31.2098 16.6224 31.887C15.7281 32.4784 15.2859 33.5561 15.5071 34.6052C13.8462 34.2022 12.3086 33.4003 11.0275 32.2691C11.949 32.3962 12.8337 31.8611 13.1493 30.9861C13.5314 30.0976 13.4848 28.8954 13.4599 27.864C13.4181 27.3933 13.4264 26.9195 13.4848 26.4506C13.6917 25.7395 14.0631 25.0872 14.5689 24.5463C15.1436 23.8442 15.6593 23.2105 15.6407 22.1667C15.6158 20.7749 14.7087 19.9921 13.6712 19.1036C12.7827 18.3394 11.8072 17.4945 11.45 16.1058C13.309 14.625 15.6156 13.8189 17.9923 13.8194C19.6352 13.8169 21.2557 14.1999 22.7236 14.9378C21.6705 18.1655 23.143 19.0726 25.1373 20.309C26.2091 20.9707 27.461 21.738 28.4489 23.1235C28.497 23.5359 28.5208 23.9508 28.5204 24.3661C28.5172 27.6856 26.9536 30.8107 24.2986 32.8034Z" fill="#787882"/>
<path d="M24.9862 3.30483C24.87 3.29326 24.7532 3.31897 24.6526 3.3783C24.6526 3.3783 23.1336 4.2823 21.7201 4.12697C20.5303 3.9965 19.6232 4.22949 18.9925 4.68304C18.69 4.89786 18.4386 5.17683 18.2563 5.50006C18.0859 5.81452 17.9802 6.15989 17.9456 6.51589C17.9051 6.86095 17.9208 7.21036 17.9922 7.55037C18.3031 7.21502 18.6536 6.91873 19.036 6.66811V6.63705C19.0573 6.42674 19.1207 6.22279 19.2224 6.03749C19.3267 5.85529 19.4699 5.69833 19.6418 5.57772C20.0612 5.26707 20.7105 5.12417 21.6082 5.22358C22.5108 5.28649 23.4156 5.13528 24.2488 4.78245C23.991 6.43512 23.5529 7.57833 23.0279 8.33943C22.7461 8.79306 22.3256 9.14378 21.8288 9.33973C21.5384 9.43859 21.2259 9.45265 20.9279 9.38011C20.641 9.64494 20.3856 9.94201 20.1668 10.2655L20.2849 10.3152C20.8934 10.5656 21.5719 10.5878 22.1954 10.3773C22.916 10.1079 23.5297 9.61186 23.9444 8.96384C24.662 7.92936 25.2336 6.30154 25.479 3.90641C25.509 3.60422 25.2884 3.33489 24.9862 3.30483Z" fill="#787882"/>
</g>
<defs>
<clipPath id="clip0">
<rect width="36" height="36" fill="white"/>
</clipPath>
</defs>
</svg>
