<svg width="36" height="36" viewBox="0 0 36 36" fill="none" xmlns="http://www.w3.org/2000/svg">
<path d="M14.4732 5.16139C11.3282 2.01794 5.17368 1.65344 0.817353 1.65344C0.366188 1.65344 0 2.01955 0 2.47072C0 6.82705 0.362893 12.9815 3.50794 16.1266C4.83531 17.454 6.87045 18.0474 8.88759 18.0474C11.0797 18.0474 13.2521 17.3461 14.4732 16.125C16.8157 13.7826 17.2456 7.93212 14.4732 5.16139ZM13.3176 14.9709C11.5685 16.7183 6.71192 17.0175 4.66536 14.9709C2.12671 12.4324 1.68696 7.27499 1.63953 3.29298C5.62155 3.34041 10.7789 3.78008 13.3175 6.31872C15.3641 8.36528 15.065 13.2235 13.3176 14.9709Z" fill="#787882"/>
<path d="M35.1827 4.88684C30.8263 4.88684 24.6718 5.24973 21.5267 8.39478C18.7544 11.1655 19.1842 17.016 21.5267 19.3584C22.7478 20.5779 24.9187 21.2792 27.1107 21.2792C29.1279 21.2792 31.1614 20.6874 32.492 19.3601C35.6354 16.2151 35.9999 10.0606 35.9999 5.70419C36 5.25303 35.6338 4.88684 35.1827 4.88684ZM31.333 18.2027C29.2865 20.2493 24.4283 19.9501 22.6808 18.2027C20.9334 16.4553 20.6343 11.5971 22.6808 9.55051C25.2195 7.01187 30.3768 6.5722 34.3588 6.52476C34.3114 10.5084 33.8717 15.6658 31.333 18.2027Z" fill="#787882"/>
<path d="M29.28 11.9617C29.0871 11.5513 28.5346 11.4108 28.1275 11.6004C21.8587 14.5477 18.779 19.687 17.3796 24.9702C15.6485 13.7368 10.6416 10.3123 8.51818 8.85907C8.25337 8.67763 8.0474 8.54522 7.933 8.43243C7.61424 8.11367 7.09603 8.11367 6.77728 8.43243C6.45852 8.75119 6.45852 9.2694 6.77728 9.58815C6.93911 9.74838 7.21863 9.94944 7.59624 10.2077C9.98937 11.844 16.3465 16.1938 16.3465 33.5293C16.3465 33.9805 16.7127 34.3467 17.1639 34.3467C17.615 34.3467 17.9812 33.9805 17.9812 33.531C17.9812 26.5265 19.8627 17.2924 28.8239 13.0815C28.8239 13.0799 28.9563 13.0177 28.9563 13.0177C29.3633 12.8248 29.4728 12.3703 29.28 11.9617Z" fill="#787882"/>
</svg>
