<svg width="34" height="34" viewBox="0 0 34 34" fill="none" xmlns="http://www.w3.org/2000/svg">
<path d="M32.4496 4.76082C31.9891 3.31259 31.365 2.27564 31.3385 2.23206C31.2362 2.06338 31.0255 1.97564 30.8346 2.01942C30.7852 2.0307 29.6066 2.30579 28.2471 2.98477C26.4118 3.9011 25.1297 5.12443 24.539 6.52188C24.0474 7.68567 23.9768 9.10842 24.3256 10.6802C23.5826 9.85043 22.7468 9.12456 21.8357 8.51348C21.5575 7.96388 20.8219 6.61079 19.672 5.19661C19.2932 4.73105 18.5646 5.31528 18.9473 5.78551C19.7222 6.73861 20.3054 7.67595 20.6702 8.31991L16.4168 7.49074L12.3756 1.97856C12.768 1.98401 13.1618 2.02195 13.5536 2.09879C14.7958 2.34198 16.0228 2.97466 17.2012 3.97892C17.6629 4.37249 18.2625 3.65616 17.8068 3.26804C16.5051 2.15871 15.1345 1.45678 13.7329 1.18227C11.5935 0.763599 9.09819 1.3132 6.51613 2.77232C4.59164 3.85986 3.3047 5.05439 3.251 5.10458C3.07883 5.26548 3.05139 5.55769 3.19555 5.74563C3.38427 6.13278 4.09943 7.52945 5.28988 9.03313C5.99162 9.91969 6.73169 10.6784 7.49724 11.302C7.27974 11.4843 7.06807 11.6749 6.86321 11.8755C5.76906 12.9457 4.93133 14.2081 4.38134 15.5883C3.89516 16.8077 3.63368 18.1196 3.61909 19.4717C3.59497 21.6827 4.23562 23.8152 5.47218 25.6389C6.68013 27.4202 8.36883 28.7879 10.3556 29.5939C10.9116 29.819 11.2631 28.9542 10.7067 28.7286C9.98689 28.4365 9.31064 28.0624 8.68691 27.6175C8.76668 27.1751 8.9517 25.5829 7.89412 23.9347C7.74607 23.7041 8.18867 22.7987 8.45287 22.2578C8.72563 21.7004 9.00714 21.1242 9.13866 20.5816C9.27835 20.0051 9.12115 19.5213 8.68438 19.1818C8.36377 18.9326 7.94412 18.8036 7.57428 18.6898C7.33402 18.6159 7.06165 18.5322 6.96437 18.4511C6.76399 18.2832 6.43675 17.6628 6.17372 17.1645C5.8819 16.6118 5.60408 16.0857 5.32043 15.7618C5.95874 14.2459 6.98402 12.9045 8.26805 11.8782C9.44099 12.6772 10.7797 13.2286 12.2026 13.3403C10.5525 14.6188 10.0186 16.2517 10.7816 17.8202C11.6727 19.6516 13.5067 19.359 15.1248 19.1013C15.4047 19.0565 15.6944 19.0104 15.9718 18.9758C16.0759 18.9627 16.1072 18.9911 16.1282 19.0096C16.4825 19.3248 16.472 20.83 16.4644 21.9292C16.4541 23.4496 16.4444 24.8858 17.0107 25.6232C17.2996 25.999 17.7064 26.1912 18.1833 26.1912C18.4691 26.1912 18.7796 26.1224 19.1052 25.9827C20.5136 25.3796 21.9776 23.5644 21.7542 22.1283C21.5591 20.8726 21.4299 20.0431 21.7344 19.3744C22.0159 18.7555 22.6964 18.1826 24.0367 17.4515C24.1972 18.1742 24.2781 18.9262 24.2698 19.6976C24.2412 22.3306 23.1886 24.795 21.3064 26.6364C19.2027 28.6943 16.2461 29.7106 13.3215 29.3883C12.7256 29.3237 12.6227 30.2509 13.2193 30.3167C16.4207 30.6692 19.6574 29.5564 21.9593 27.3041C24.0202 25.2879 25.1723 22.5903 25.2036 19.7075C25.2452 15.8852 23.284 12.4988 20.2984 10.5481C20.9153 10.1082 21.3749 9.72786 21.6297 9.50705C22.7182 10.288 23.6838 11.25 24.4871 12.3708C26.4154 15.062 27.1802 18.3427 26.6409 21.6092C25.5271 28.3521 19.1356 32.9324 12.3915 31.8182C9.12485 31.2787 6.26399 29.4997 4.33562 26.8085C2.40705 24.1175 1.64227 20.8365 2.18176 17.5702C2.27864 16.9824 1.35784 16.8281 1.26056 17.418C0.680222 20.9306 1.50297 24.4588 3.57629 27.3527C5.64999 30.2462 8.7268 32.1594 12.2394 32.7398C12.974 32.861 13.7094 32.9209 14.4397 32.9209C17.2004 32.9209 19.886 32.0637 22.1745 30.4239C25.0688 28.3502 26.9822 25.2739 27.5621 21.7613C27.9872 19.1875 27.6582 16.6052 26.6365 14.2702C27.108 14.1311 27.9106 13.8611 28.7895 13.4222C30.6245 12.5058 31.9068 11.2825 32.4973 9.88506C33.0883 8.48722 33.0718 6.71526 32.4496 4.76082ZM5.34766 17.6003C5.69513 18.2591 6.02372 18.8816 6.36516 19.1672C6.60698 19.3694 6.94355 19.4729 7.29977 19.5824C8.21241 19.8629 8.31844 20.0007 8.23089 20.3616C8.1235 20.8053 7.86436 21.3353 7.61397 21.8475C7.13168 22.8343 6.67624 23.7658 7.10795 24.4389C7.7202 25.393 7.82506 26.3323 7.81455 26.9165C5.03327 24.4086 3.9008 20.4474 4.93677 16.847C5.07413 17.0824 5.21848 17.356 5.34766 17.6003ZM27.9397 8.42399L26.6127 5.20809C27.2584 4.6042 28.0076 4.14974 28.6458 3.8297C29.1893 3.55694 29.7064 3.35305 30.1212 3.2085L27.9397 8.42399ZM30.9821 3.57056C31.1675 3.969 31.3825 4.4828 31.5661 5.06353C31.7675 5.70088 31.9523 6.49075 31.9891 7.31467L28.8792 8.59772L30.9821 3.57056ZM25.3991 6.88549C25.5369 6.55982 25.7149 6.25787 25.9205 5.97908L27.4312 9.63954L26.0756 12.8811C25.8851 12.477 25.6608 11.9463 25.4705 11.3434C25.0886 10.1362 24.7664 8.38255 25.3991 6.88549ZM28.3907 12.5772C27.8676 12.8399 27.3684 13.0387 26.9617 13.1821L28.3685 9.81891L31.9494 8.34131C31.8975 8.74247 31.7984 9.14013 31.6372 9.52145C31.0047 11.0185 29.5226 12.0097 28.3907 12.5772ZM11.553 12.3115C11.388 12.2792 11.2252 12.2397 11.0647 12.1948L16.2327 8.40648L20.4881 9.23585C18.9379 10.4572 15.1654 13.0193 11.553 12.3115ZM6.82994 9.38993C5.7247 8.1987 4.9146 6.92499 4.44943 6.10943L9.86472 7.16525L6.82994 9.38993ZM7.78634 3.15987L10.0521 6.25029L4.60176 5.18785C5.28794 4.64603 6.4206 3.83262 7.78634 3.15987ZM11.403 6.51371L8.65618 2.76688C9.47854 2.42894 10.3612 2.16299 11.2661 2.04471L15.066 7.22751L11.403 6.51371ZM11.1124 7.40844L14.9853 8.16329L10.0147 11.8066C9.07737 11.3738 8.23381 10.7514 7.49569 10.0596L11.1124 7.40844ZM23.783 16.527C22.0996 17.4239 21.2752 18.1283 20.8842 18.9876C20.4642 19.9104 20.6181 20.9008 20.8311 22.2716C20.957 23.08 19.9963 24.5852 18.7375 25.1243C18.2718 25.3237 17.9401 25.3002 17.7512 25.0541C17.3802 24.5712 17.3903 23.1098 17.3983 21.9357C17.4094 20.3112 17.4191 18.9083 16.7489 18.312C16.5078 18.0976 16.1994 18.0069 15.8568 18.0489C15.5633 18.0855 15.2654 18.133 14.9777 18.1789C13.2612 18.4524 12.181 18.562 11.6215 17.4116C10.7149 15.5484 12.5501 14.1683 13.3812 13.6615C13.5505 13.5583 13.7075 13.4368 13.8534 13.3013C15.8621 13.0613 17.7601 12.1994 19.4515 11.1199C21.4795 12.3315 23.0363 14.249 23.783 16.527Z" fill="#787882"/>
</svg>
