<svg width="32" height="32" viewBox="0 0 32 32" fill="none" xmlns="http://www.w3.org/2000/svg">
<g clip-path="url(#clip0)">
<path d="M9.69624 23.6987L8.18231 25.0391C8.66437 25.5814 9.18807 26.0853 9.74872 26.5459L11.0285 24.9815C10.5512 24.5899 10.1057 24.1609 9.69624 23.6987Z" fill="#787882"/>
<path d="M7.70694 20.576L5.85187 21.3724C6.13869 22.0408 6.47927 22.6848 6.87024 23.2981L8.5729 22.2161C8.24085 21.6935 7.95125 21.145 7.70694 20.576Z" fill="#787882"/>
<path d="M25.2066 4.21145C23.1313 3.00819 20.775 2.37417 18.3761 2.37354C11.553 2.38451 5.78851 7.43744 4.88394 14.2004L1.42713 10.7435L0 12.1707L5.76 17.9307L11.52 12.1707L10.0929 10.7435L6.97114 13.8612C8.15724 7.56846 14.2201 3.42874 20.5129 4.61485C26.8056 5.80095 30.9454 11.8638 29.7593 18.1565C28.5732 24.4492 22.5103 28.5891 16.2175 27.4029C14.9276 27.1598 13.6883 26.6994 12.5525 26.0412L11.5382 27.7863C18.0482 31.5607 26.3854 29.3431 30.1598 22.833C33.9343 16.3231 31.7166 7.98586 25.2066 4.21145Z" fill="#787882"/>
<path d="M16.8622 6.91541V18.0176L21.303 21.3482L22.5142 19.7333L18.8808 17.0083V6.91541H16.8622Z" fill="#787882"/>
</g>
<defs>
<clipPath id="clip0">
<rect width="32" height="32" fill="white"/>
</clipPath>
</defs>
</svg>
