<svg width="33" height="33" viewBox="0 0 33 33" fill="none" xmlns="http://www.w3.org/2000/svg">
<path d="M32.6196 8.38509L28.9419 7.30577C28.9419 7.30577 28.9419 7.30577 28.902 7.30577C28.862 7.30577 28.782 7.30577 28.7421 7.30577H28.7021C28.6621 7.30577 28.5822 7.34574 28.5422 7.34574C28.5422 7.34574 28.5022 7.34574 28.5022 7.38572C28.4622 7.42569 28.4223 7.42569 28.3823 7.46567L28.3423 7.50564C28.3023 7.54562 28.2624 7.62557 28.2624 7.66554L27.223 10.9835C27.1431 11.2633 27.303 11.5831 27.5828 11.663C27.8626 11.743 28.1824 11.5831 28.2624 11.3033L28.9419 9.14462C30.2211 11.3832 30.8607 13.9017 30.8607 16.5C30.8607 24.7349 24.1849 31.4107 15.95 31.4107C7.71519 31.4107 1.03935 24.7349 1.03935 16.5C1.03935 8.26517 7.71519 1.58934 15.95 1.58934C18.4685 1.58934 20.9469 2.22894 23.1056 3.42819C23.3854 3.58809 23.7052 3.46816 23.8651 3.22831C24.025 2.94849 23.9051 2.62869 23.6652 2.46879C21.3467 1.18959 18.7083 0.51001 15.99 0.51001C7.15553 0.51001 0 7.66554 0 16.5C0 25.3345 7.15553 32.49 15.99 32.49C24.8245 32.49 31.98 25.3345 31.98 16.5C31.98 13.7817 31.3005 11.1434 29.9813 8.74487L32.2998 9.42445C32.3398 9.42445 32.4198 9.46442 32.4597 9.46442C32.6996 9.46442 32.8995 9.30452 32.9794 9.06467C33.0594 8.78485 32.8995 8.46504 32.6196 8.38509Z" fill="#787882"/>
<path d="M22.506 23.5356H21.9463C22.0263 22.5762 21.9063 20.7373 20.1874 19.0584L19.5878 18.4587C18.1886 17.0596 18.1886 17.0196 18.1886 16.5C18.1886 16.0203 18.2686 15.9003 19.5078 14.7011C19.7077 14.5012 19.9476 14.2614 20.2274 13.9815C21.9063 12.2626 22.0263 10.4637 21.9863 9.50433H22.5459C23.1456 9.46435 23.7452 8.9047 23.7452 8.22512C23.7452 7.50557 23.1855 6.94592 22.466 6.94592H9.51406C8.79451 6.94592 8.23486 7.50557 8.23486 8.22512C8.23486 8.94468 8.79451 9.50433 9.51406 9.50433H10.1936C10.1137 10.4637 10.2736 12.2626 11.9525 13.9815C12.2324 14.2614 12.4722 14.5012 12.6721 14.7011C13.9113 15.9403 13.9913 16.0203 13.9913 16.5C13.9913 17.0196 13.9913 17.0196 12.5921 18.4587L11.9925 19.0584C10.3136 20.7373 10.1537 22.5762 10.2336 23.5356H9.55404C8.83449 23.5356 8.27484 24.0952 8.27484 24.8148C8.27484 25.5343 8.83449 26.094 9.55404 26.094H22.506C23.2255 26.094 23.7852 25.5343 23.7852 24.8148C23.7852 24.0952 23.2255 23.5356 22.506 23.5356ZM9.55404 8.38502C9.43411 8.38502 9.35416 8.30507 9.35416 8.22512C9.35416 8.14517 9.43411 8.06522 9.51406 8.06522H22.466C22.5459 8.06522 22.6259 8.14517 22.6259 8.22512C22.6259 8.30507 22.5459 8.38502 22.466 8.38502H21.6665H10.4335H9.55404ZM12.752 19.8179L13.3517 19.2183C14.7908 17.7792 15.0706 17.4993 15.0706 16.5C15.0706 15.5406 14.7108 15.1808 13.4316 13.9016C13.2317 13.7017 12.9919 13.4619 12.7121 13.182C11.273 11.703 11.193 10.1839 11.273 9.46435H20.787C20.867 10.1839 20.827 11.7429 19.3879 13.182C19.1081 13.4619 18.8682 13.7017 18.6684 13.9016C17.4291 15.1408 17.0693 15.5406 17.0693 16.5C17.0693 17.4993 17.3492 17.7792 18.7883 19.2183L19.3879 19.8179C20.867 21.297 20.907 22.816 20.827 23.5356H11.3129C11.233 22.816 11.273 21.297 12.752 19.8179ZM22.466 24.9347H9.51406C9.43411 24.9347 9.35416 24.8547 9.35416 24.7748C9.35416 24.6948 9.43411 24.6149 9.51406 24.6149H10.4335H21.6665H22.466C22.5459 24.6149 22.6259 24.6948 22.6259 24.7748C22.6259 24.8547 22.5459 24.9347 22.466 24.9347Z" fill="#787882"/>
</svg>
