<svg width="30" height="30" viewBox="0 0 30 30" fill="none" xmlns="http://www.w3.org/2000/svg">
<path d="M27.3633 1.75781H26.4844V0.878906C26.4844 0.393516 26.0909 0 25.6055 0C25.1201 0 24.7266 0.393516 24.7266 0.878906V1.75781H21.1523V0.878906C21.1523 0.393516 20.7588 0 20.2734 0C19.788 0 19.3945 0.393516 19.3945 0.878906V1.75781H15.8789V0.878906C15.8789 0.393516 15.4854 0 15 0C14.5146 0 14.1211 0.393516 14.1211 0.878906V1.75781H10.6055V0.878906C10.6055 0.393516 10.212 0 9.72656 0C9.24117 0 8.84766 0.393516 8.84766 0.878906V1.75781H5.27344V0.878906C5.27344 0.393516 4.87992 0 4.39453 0C3.90914 0 3.51562 0.393516 3.51562 0.878906V1.75781H2.63672C1.18283 1.75781 0 2.94064 0 4.39453V29.1211C0 29.6065 0.393516 30 0.878906 30H29.1211C29.6065 30 30 29.6065 30 29.1211V4.39453C30 2.94064 28.8172 1.75781 27.3633 1.75781ZM28.2422 28.2422H1.75781V8.78906H28.2422V28.2422ZM28.2422 7.03125H1.75781V4.39453C1.75781 3.9099 2.15209 3.51562 2.63672 3.51562H3.51562V4.39453C3.51562 4.87992 3.90914 5.27344 4.39453 5.27344C4.87992 5.27344 5.27344 4.87992 5.27344 4.39453V3.51562H8.84766V4.39453C8.84766 4.87992 9.24117 5.27344 9.72656 5.27344C10.212 5.27344 10.6055 4.87992 10.6055 4.39453V3.51562H14.1211V4.39453C14.1211 4.87992 14.5146 5.27344 15 5.27344C15.4854 5.27344 15.8789 4.87992 15.8789 4.39453V3.51562H19.3945V4.39453C19.3945 4.87992 19.788 5.27344 20.2734 5.27344C20.7588 5.27344 21.1523 4.87992 21.1523 4.39453V3.51562H24.7266V4.39453C24.7266 4.87992 25.1201 5.27344 25.6055 5.27344C26.0909 5.27344 26.4844 4.87992 26.4844 4.39453V3.51562H27.3633C27.8479 3.51562 28.2422 3.9099 28.2422 4.39453V7.03125Z" fill="#787882"/>
<path d="M15 10.6055C10.6383 10.6055 7.08984 14.154 7.08984 18.5156C7.08984 22.8773 10.6383 26.4258 15 26.4258C19.3617 26.4258 22.9102 22.8773 22.9102 18.5156C22.9102 14.154 19.3617 10.6055 15 10.6055ZM15 24.668C11.6076 24.668 8.84766 21.908 8.84766 18.5156C8.84766 15.1232 11.6076 12.3633 15 12.3633C18.3924 12.3633 21.1523 15.1232 21.1523 18.5156C21.1523 21.908 18.3924 24.668 15 24.668Z" fill="#787882"/>
<path d="M18.5156 17.6367H15.8789V15C15.8789 14.5146 15.4854 14.1211 15 14.1211C14.5146 14.1211 14.1211 14.5146 14.1211 15V18.5156C14.1211 19.001 14.5146 19.3945 15 19.3945H18.5156C19.001 19.3945 19.3945 19.001 19.3945 18.5156C19.3945 18.0302 19.001 17.6367 18.5156 17.6367Z" fill="#787882"/>
</svg>
