<svg width="33" height="33" viewBox="0 0 33 33" fill="none" xmlns="http://www.w3.org/2000/svg">
<path d="M23.7188 14.4375C18.6017 14.4375 14.4375 18.6017 14.4375 23.7188C14.4375 28.8358 18.6017 33 23.7188 33C28.8358 33 33 28.8358 33 23.7188C33 18.6017 28.8358 14.4375 23.7188 14.4375ZM27.5426 27.5426C27.3405 27.7427 27.0765 27.8438 26.8125 27.8438C26.5485 27.8438 26.2845 27.7427 26.0824 27.5426L22.9886 24.4489C22.7968 24.255 22.6875 23.9931 22.6875 23.7188V19.5938C22.6875 19.0245 23.1495 18.5625 23.7188 18.5625C24.288 18.5625 24.75 19.0245 24.75 19.5938V23.2918L27.5426 26.0844C27.9448 26.4866 27.9448 27.1384 27.5426 27.5426Z" fill="#787882"/>
<path d="M13.1484 19.6329C13.0721 19.5463 13.0103 19.4473 12.9278 19.3648L10.3125 16.7516L7.69725 19.3668C6.72375 20.3383 6.1875 21.6315 6.1875 23.0113V24.752H12.4266C12.3956 24.4117 12.375 24.0673 12.375 23.7187C12.375 22.277 12.6555 20.9034 13.1484 19.6329Z" fill="#787882"/>
<path d="M6.1875 4.125V5.86369C6.1875 7.23937 6.72375 8.53463 7.69725 9.51019L10.3125 12.1254L12.9278 9.51019C13.9013 8.53669 14.4375 7.24144 14.4375 5.86369V4.125H6.1875Z" fill="#787882"/>
<path d="M19.5938 0H1.03125C0.462 0 0 0.464062 0 1.03125C0 1.60256 0.462 2.0625 1.03125 2.0625H2.0625V5.86369C2.0625 8.34281 3.02775 10.6734 4.78088 12.4266L6.79181 14.4375L4.78088 16.4484C3.02775 18.2036 2.0625 20.5322 2.0625 23.0113V26.8125H1.03125C0.462 26.8125 0 27.2745 0 27.8438C0 28.413 0.462 28.875 1.03125 28.875L13.6269 28.8729C13.2907 28.2191 13.0185 27.5302 12.8143 26.8104L4.125 26.8125V23.0113C4.125 21.0829 4.87575 19.272 6.23906 17.9066L8.98013 15.1676C9.17194 14.9738 9.28125 14.7118 9.28125 14.4375C9.28125 14.1652 9.17194 13.9012 8.98013 13.7074L6.23906 10.9684C4.87575 9.60506 4.125 7.79212 4.125 5.86369V2.0625H16.5V5.86369C16.5 7.79212 15.7492 9.603 14.3859 10.9684L11.6449 13.7094C11.4531 13.9033 11.3438 14.1652 11.3438 14.4375C11.3438 14.7118 11.4531 14.9738 11.6449 15.1676L14.1426 17.6632C14.5159 17.0754 14.9408 16.5268 15.4131 16.0174L13.8332 14.4375L15.8441 12.4245C17.5972 10.6734 18.5625 8.34281 18.5625 5.86369V2.0625H19.5938C20.163 2.0625 20.625 1.6005 20.625 1.03125C20.625 0.462 20.163 0 19.5938 0Z" fill="#787882"/>
</svg>
