<svg width="31" height="31" viewBox="0 0 31 31" fill="none" xmlns="http://www.w3.org/2000/svg">
<path d="M0.00189209 26.459C0.00189209 28.9688 2.03294 31 4.54293 31C6.13095 31 7.54921 30.1879 8.3712 28.9008C10.4488 30.3483 13.3817 29.8265 14.7932 27.6164C16.561 28.8481 19.0173 28.6818 20.598 27.1012C22.1753 25.5238 22.3461 23.066 21.113 21.2962C24.6718 19.0257 23.4422 13.5582 19.3118 12.9746L24.4512 7.83522C25.5181 6.76832 27.3208 6.76838 28.3876 7.83522C29.4499 8.89758 29.4499 10.6261 28.3876 11.6884C28.0327 12.0434 27.4583 12.0434 27.1033 11.6884C26.7484 11.3335 26.7483 10.759 27.1033 10.4041C27.4579 10.0494 27.4579 9.47435 27.1033 9.11967C26.7486 8.76498 26.1736 8.76498 25.8189 9.11967C24.7566 10.182 24.7566 11.9105 25.8189 12.9728C26.8837 14.0377 28.6072 14.0378 29.672 12.9728C31.4426 11.2023 31.4426 8.32135 29.672 6.55083C28.0141 4.89287 25.3432 4.79176 23.5609 6.2016C23.6027 4.4467 22.939 2.78862 21.7007 1.55037L20.4163 0.265923C20.0618 -0.0885199 19.4865 -0.088762 19.1319 0.265923C16.6473 2.75047 16.6471 6.77195 19.1319 9.25669L19.7964 9.92119L18.0274 11.6902C17.4439 7.56088 11.9768 6.32941 9.70578 9.88898C7.93611 8.65588 5.47814 8.82668 3.90076 10.404C2.32345 11.9812 2.15259 14.4391 3.38551 16.2088C1.19903 17.6051 0.638969 20.5321 2.10112 22.6308C0.810378 23.455 0.00189209 24.875 0.00189209 26.459ZM19.8379 2.25635L20.4163 2.83469C21.9821 4.40056 22.1546 6.80362 20.9946 8.55065L20.4163 7.9723C18.8503 6.40637 18.6779 4.00331 19.8379 2.25635ZM9.03831 27.1012C7.6697 25.7326 8.12919 23.398 9.92544 22.6559C10.8129 23.1863 11.8562 23.3944 12.8935 23.2479C12.7502 24.259 12.9472 25.3094 13.4843 26.2123C12.7429 28.0104 10.4072 28.47 9.03831 27.1012ZM19.3135 25.8168C18.2512 26.8791 16.5227 26.8791 15.4603 25.8168C14.0907 24.4472 14.5523 22.1116 16.3491 21.3708C17.2301 21.8949 18.2746 22.1085 19.3116 21.9619C19.3122 21.9625 19.3129 21.963 19.3135 21.9636C20.3758 23.0259 20.3758 24.7544 19.3135 25.8168ZM20.5979 15.5416C21.6602 16.604 21.6602 18.3325 20.5979 19.3948C19.5355 20.4571 17.807 20.4571 16.7447 19.3948C15.6824 18.3325 15.6824 16.604 16.7447 15.5416C17.807 14.4793 19.5355 14.4792 20.5979 15.5416ZM11.6071 10.404C12.6695 9.34163 14.3979 9.34169 15.4603 10.404C16.5226 11.4663 16.5226 13.1949 15.4603 14.2572C14.398 15.3194 12.6694 15.3195 11.6071 14.2572C10.5448 13.1949 10.5448 11.4664 11.6071 10.404ZM11.2115 16.2332C12.0768 16.7479 13.1203 16.9741 14.1782 16.8238C14.0343 17.8356 14.2313 18.8868 14.7688 19.7904C14.0304 21.5814 11.7004 22.0569 10.3228 20.6792C8.94573 19.3023 9.41933 16.9721 11.2115 16.2332ZM5.18509 11.6884C6.24739 10.6261 7.97595 10.6261 9.03825 11.6884C9.03885 11.689 9.03946 11.6896 9.04006 11.6903C8.89729 12.7008 9.09437 13.7504 9.63118 14.6528C8.89118 16.4476 6.55678 16.9132 5.18515 15.5417C4.12279 14.4792 4.12279 12.7507 5.18509 11.6884ZM4.78953 17.5176C5.67158 18.0423 6.71693 18.2554 7.75392 18.1084C7.60734 19.1466 7.81592 20.1897 8.34595 21.0765C7.60407 22.8722 5.26973 23.3326 3.9007 21.9636C2.53101 20.5938 2.99274 18.2585 4.78953 17.5176ZM3.50515 23.9395C4.37055 24.4543 5.41408 24.6805 6.47177 24.5302C6.32791 25.542 6.52487 26.5932 7.06241 27.4968C6.65899 28.4751 5.69604 29.1836 4.54299 29.1836C3.03724 29.1836 1.81837 27.9651 1.81837 26.459C1.81831 25.3081 2.52471 24.3438 3.50515 23.9395Z" fill="#787882"/>
</svg>
