<svg width="30" height="30" viewBox="0 0 30 30" fill="none" xmlns="http://www.w3.org/2000/svg">
<path d="M29.121 5.64848H24.3514V4.1738C24.3514 1.86808 22.4864 0 20.1775 0H18.7654C18.28 0 17.8865 0.393515 17.8865 0.878904V3.23243C17.8865 5.33559 19.4297 7.04366 21.4027 7.35426L19.4607 9.29635C18.4268 8.66512 17.4109 8.7594 17.2323 8.77381C17.2501 8.55455 17.3881 7.07711 16.1614 5.8504C14.714 4.40308 12.3699 4.40507 10.9246 5.8504C10.6189 6.15608 10.3732 6.50588 10.1936 6.88545C8.17716 5.48483 6.17982 6.60092 5.46861 7.31243C4.69851 8.08258 3.68297 10.0841 5.04281 12.0391C4.66775 12.216 4.31631 12.4586 4.00664 12.7683C3.24018 13.5348 2.21865 15.537 3.5809 17.4952C3.20578 17.672 2.85422 17.9147 2.54449 18.2243C1.26094 19.5084 1.11997 21.5081 2.11963 22.9509C1.74428 23.1278 1.39248 23.3707 1.08264 23.6806C-0.360871 25.1241 -0.360929 27.4733 1.08276 28.9176C2.52656 30.3608 4.87587 30.3609 6.32009 28.9174C6.6297 28.6076 6.87245 28.256 7.04923 27.8808C7.82518 28.4186 10.0053 29.226 11.776 27.4554C12.0855 27.1457 12.3282 26.7943 12.5049 26.4192C14.5213 27.8219 16.5201 26.7052 17.2317 25.9935C17.5374 25.6879 17.7829 25.3381 17.9626 24.9584C19.9828 26.3619 21.9817 25.2374 22.6876 24.5316C23.4547 23.7648 24.4754 21.7631 23.1134 19.8048C23.4885 19.628 23.8401 19.3852 24.1497 19.0756C25.5935 17.6318 25.5935 15.2825 24.1497 13.8387C22.923 12.612 21.4454 12.7501 21.2262 12.7678C21.2407 12.589 21.3349 11.5732 20.7037 10.5394L23.8367 7.40641H29.121C29.6064 7.40641 29.9999 7.0129 29.9999 6.52751C29.9999 6.04212 29.6064 5.64848 29.121 5.64848ZM16.1614 11.0877C16.9138 10.3353 18.1459 10.321 18.9122 11.0876C18.9123 11.0876 18.9124 11.0877 18.9124 11.0878C19.6655 11.8405 19.6781 13.0727 18.9123 13.8386C18.154 14.5968 16.9199 14.5968 16.1615 13.8387C15.4031 13.08 15.403 11.8459 16.1614 11.0877ZM12.1675 7.09329C12.9243 6.33643 14.1566 6.33157 14.9184 7.09329C15.6775 7.85231 15.679 9.08406 14.9184 9.84467C14.1547 10.6083 12.9223 10.5996 12.1674 9.84467C11.4084 9.08564 11.4069 7.85383 12.1675 7.09329ZM10.7053 12.5493C11.4632 11.7917 12.6974 11.7902 13.4563 12.5492C14.2154 13.3083 14.2168 14.5401 13.4563 15.3006C12.6981 16.0589 11.464 16.0589 10.7054 15.3006C9.95295 14.5482 9.93889 13.3158 10.7053 12.5493ZM6.71167 8.55514C7.46378 7.80274 8.696 7.78873 9.46247 8.55525C10.2135 9.30631 10.2302 10.5388 9.46247 11.3062C8.7035 12.0652 7.47187 12.0668 6.71138 11.3061C5.95892 10.5539 5.94509 9.32178 6.71167 8.55514ZM5.24953 14.0112C6.00755 13.2532 7.24153 13.2523 8.00044 14.0112C8.7594 14.7702 8.7611 16.0019 8.00032 16.7623C7.24493 17.518 6.01283 17.5258 5.24935 16.7621C4.49824 16.0111 4.48201 14.7788 5.24953 14.0112ZM5.07709 27.6743C4.31842 28.4327 3.08402 28.4326 2.32565 27.6745C1.56733 26.9159 1.56727 25.6817 2.32553 24.9234C3.08356 24.1654 4.31789 24.1644 5.07697 24.9234C5.83523 25.6818 5.83517 26.9159 5.07709 27.6743ZM6.53847 22.2185C5.78027 22.9768 4.54617 22.9768 3.78767 22.2186C3.02936 21.46 3.02936 20.2256 3.78744 19.4672C4.54535 18.7096 5.77951 18.7081 6.53853 19.4671C7.29755 20.2262 7.29901 21.458 6.53847 22.2185ZM10.5329 26.2124C9.77424 26.9709 8.53997 26.9709 7.78153 26.2126C7.02321 25.4539 7.02316 24.2197 7.78142 23.4615C8.54061 22.7023 9.77237 22.701 10.5329 23.4615C11.2911 24.2198 11.2911 25.4539 10.5329 26.2124ZM11.995 20.7564C11.2363 21.5148 10.0019 21.5147 9.24356 20.7566C8.48518 19.9979 8.48513 18.7638 9.24344 18.0055C10.0015 17.2475 11.2358 17.2464 11.9949 18.0055C12.7531 18.7638 12.7531 19.998 11.995 20.7564ZM15.9887 24.7504C15.2297 25.5094 13.9981 25.5111 13.2377 24.7503C12.482 23.9949 12.4742 22.7628 13.2379 21.9994C13.99 21.247 15.2222 21.233 15.9887 21.9995C16.7432 22.7539 16.753 23.9862 15.9887 24.7504ZM17.4508 19.2945C16.7002 20.045 15.4674 20.0627 14.6994 19.2946C13.9411 18.536 13.9411 17.3018 14.6993 16.5436C15.4574 15.7855 16.6917 15.7845 17.4508 16.5436C18.209 17.3018 18.209 18.536 17.4508 19.2945ZM21.4447 23.2884C20.6857 24.0474 19.4541 24.049 18.6937 23.2883C17.9403 22.5353 17.9278 21.3034 18.694 20.5374C19.4468 19.7843 20.6788 19.7717 21.4447 20.5375C22.2036 21.2964 22.2053 22.528 21.4447 23.2884ZM22.9067 15.0816C23.6651 15.84 23.6651 17.0741 22.9067 17.8326C22.1482 18.5911 20.9138 18.5911 20.1553 17.8326C19.3999 17.0773 19.392 15.8449 20.1553 15.0816C20.9143 14.3225 22.1461 14.321 22.9067 15.0816ZM22.5936 5.64843H22.0604C20.7547 5.64843 19.6444 4.59386 19.6444 3.23243V1.75781H20.1776C21.5101 1.75781 22.5936 2.83505 22.5936 4.1738V5.64843Z" fill="#787882"/>
</svg>
