<svg width="32" height="32" viewBox="0 0 32 32" fill="none" xmlns="http://www.w3.org/2000/svg">
<g clip-path="url(#clip0)">
<path d="M27.2908 6.41151C26.2081 5.54388 25.2611 4.98694 24.4717 4.75319L24.8661 4.39188C25.0861 4.19188 25.0655 3.83869 24.823 3.66494C23.6335 2.81294 22.2771 2.53482 21.0063 3.21988C21.0351 3.00926 21.2294 2.70982 20.9944 2.44294C20.8919 2.32607 20.7382 2.26794 20.5838 2.28732C20.5381 2.29357 19.4461 2.43857 18.2473 3.20369C17.3134 3.80001 16.1589 4.88326 15.5457 6.77469V0.484569C15.5457 0.246444 15.3744 0.0338815 15.1381 0.00388148C14.8518 -0.0323685 14.6081 0.190131 14.6081 0.468944V9.65688C13.9136 9.25119 12.9385 9.14682 12.139 9.15244C11.212 7.79107 9.23494 6.56026 7.04844 6.42963C6.79032 6.41338 6.56838 6.61088 6.55275 6.86969C6.53713 7.12782 6.734 7.34976 6.99282 7.36538C8.56113 7.45976 10.0613 8.19863 11.0583 9.29501C9.03363 9.90632 9.24494 12.4735 10.9876 12.4735C11.4021 12.4735 11.8271 12.3123 12.1315 11.9972C12.5828 11.5303 12.7509 10.8096 12.5772 10.1026C13.2541 10.1701 14.1368 10.232 14.5549 10.8489C14.5706 10.8721 14.5887 10.8939 14.6081 10.9133V12.7229C13.6154 12.7985 12.6434 13.2123 11.8778 13.9624C9.50875 11.6459 5.72582 12.7523 4.69507 15.5594C4.58382 15.8645 4.81319 16.187 5.13825 16.187C5.33638 16.187 5.51082 16.062 5.57957 15.8763C6.40588 13.6486 9.43813 12.7997 11.2783 14.6899C13.6645 17.1249 11.3896 21.184 8.07482 20.4606C6.78469 20.1787 5.76207 19.1704 5.45825 17.8871C5.40825 17.6765 5.21575 17.5308 4.99882 17.5308C4.69688 17.5308 4.47688 17.814 4.54688 18.1084C4.92757 19.7098 6.18894 20.9731 7.78913 21.3569C7.61907 22.1816 7.68888 23.0535 8.021 23.8728C8.021 23.8741 8.021 23.8747 8.02163 23.8753C8.13788 24.1634 8.28706 24.4386 8.44606 24.6723C8.44606 24.6909 8.68869 25.0163 8.91238 25.2542C9.48725 25.8438 10.1889 26.2528 10.7313 26.4006C9.92194 29.1947 12.0296 32 14.9431 32C17.8522 32 19.9656 29.1991 19.1549 26.4006C21.2682 25.7135 22.5459 23.5381 22.0971 21.3569C24.0229 20.895 25.4581 19.1586 25.4581 17.0933C25.4581 13.2066 20.7638 11.2645 18.0091 13.9623C17.3097 13.2785 16.4427 12.8753 15.5457 12.7509V8.69113C16.7971 10.8845 19.5761 11.7678 22.0908 11.9509C22.2939 11.9696 22.509 11.8628 22.6046 11.6621C22.719 11.4215 22.664 11.1871 22.3214 10.7239C23.6203 10.9083 25.0918 10.4226 26.0406 9.69563C26.1994 9.57188 26.2619 9.36057 26.1956 9.17057C26.0825 8.84613 25.7537 8.85801 25.7474 8.85613C25.5756 8.85738 25.2874 8.78176 24.9724 8.67488C25.9731 8.11482 27.1058 7.28032 27.277 7.15344C27.5208 6.97344 27.5327 6.60526 27.2908 6.41151ZM11.4577 11.3452C11.2458 11.5646 10.8551 11.6058 10.6683 11.4296C10.4089 11.1833 10.5883 10.6208 10.917 10.3882C11.1133 10.2501 11.3508 10.1719 11.6052 10.1301C11.6252 10.1832 11.6427 10.2357 11.6571 10.2882C11.7671 10.6914 11.689 11.1058 11.4577 11.3452ZM9.76625 24.7792C8.87588 23.9848 8.45138 22.7456 8.72175 21.4763C9.7925 21.5207 10.9945 21.0888 11.8778 20.2243C12.8235 21.1513 14.1286 21.6001 15.4413 21.4494C16.0936 24.2353 13.287 26.4806 10.7445 25.4055C10.1326 25.1519 9.76888 24.7792 9.76625 24.7792ZM14.9431 31.0624C12.6341 31.0624 10.9608 28.8171 11.6521 26.5931C12.1191 26.6414 12.4126 26.5965 12.4234 26.6019C13.4985 26.5093 14.4794 26.014 14.9431 25.5518C15.877 26.3568 17.0734 26.71 18.2341 26.5931C18.9248 28.8153 17.2534 31.0624 14.9431 31.0624ZM15.5851 24.8673C15.6501 24.7589 16.8391 23.3228 16.3564 21.2438C16.9833 21.03 17.5459 20.6774 18.0091 20.2243C18.8858 21.0837 20.0861 21.5213 21.1644 21.4763C21.8861 24.7034 18.0879 26.9748 15.5851 24.8673ZM18.6079 14.6899C20.7531 12.4866 24.5204 14.0049 24.5204 17.0933C24.5204 20.1906 20.7519 21.6963 18.6073 19.4973C18.7185 19.3279 18.8185 19.1504 18.9054 18.966C18.9061 18.966 18.9061 18.966 18.9061 18.966C19.538 17.6371 19.4743 16.0082 18.6079 14.6899ZM15.5457 13.7004C16.2295 13.8217 16.8846 14.1511 17.4096 14.6899C18.5135 15.8194 18.676 17.519 17.9428 18.7879L17.4096 19.4967C16.0723 20.8744 13.8418 20.9001 12.4766 19.4967C13.4097 18.0839 13.4601 16.1839 12.4766 14.6899C13.0685 14.0823 13.8273 13.7398 14.6081 13.6635C14.9206 13.6329 15.2363 13.6454 15.5457 13.7004ZM23.6679 8.24607C23.2416 8.35294 23.1841 8.93801 23.5829 9.12557C23.7016 9.18057 24.0611 9.34494 24.478 9.49688C23.6016 9.85569 22.2646 10.1101 20.9876 9.19682C20.7914 9.05619 20.5207 9.08744 20.3619 9.26932C20.2032 9.45119 20.2082 9.72376 20.3738 9.89938C20.6833 10.2282 21.0201 10.6069 21.2821 10.9226C19.4481 10.6632 17.4723 9.93313 16.4665 8.39607C16.8709 8.23857 17.5129 8.00788 18.3129 7.78476C18.4398 8.20044 18.7055 8.73176 19.2631 9.18676C19.3499 9.25738 19.4549 9.29176 19.5594 9.29176C19.9982 9.29176 20.1976 8.73794 19.8557 8.45976C19.4888 8.16032 19.3094 7.81907 19.2213 7.55338C19.6469 7.45588 20.102 7.36588 20.577 7.29276C20.742 7.80469 21.1839 8.62038 22.3734 9.36676C22.4509 9.41551 22.5366 9.43863 22.6222 9.43863C23.0904 9.43863 23.2698 8.82232 22.8716 8.57288C22.0333 8.04657 21.6783 7.52026 21.5271 7.17332C22.4772 7.08207 23.4823 7.07144 24.4843 7.20082C24.7405 7.23394 24.9762 7.05269 25.0093 6.79576C25.0424 6.53888 24.8612 6.30382 24.6043 6.27069C23.5304 6.13257 22.4621 6.14069 21.4576 6.23444C21.5408 5.94507 21.7483 5.55813 22.2671 5.40188C22.5146 5.32688 22.6553 5.06557 22.5803 4.81744C22.5053 4.56994 22.2439 4.42926 21.9958 4.50426C20.9238 4.82744 20.5513 5.74938 20.4781 6.35382C19.9749 6.42944 19.4949 6.52257 19.0448 6.62513C19.0123 6.32132 19.0436 5.84819 19.4343 5.45938C19.6174 5.27688 19.6186 4.97994 19.4355 4.79619C19.253 4.61307 18.9561 4.61182 18.7729 4.79494C18.0585 5.50563 18.0548 6.36326 18.1316 6.85519C17.3847 7.06144 16.7659 7.27651 16.3258 7.44276C16.3958 7.28776 16.914 4.43869 19.9913 3.40044L19.7381 4.38119C19.6094 4.88126 20.2707 5.19001 20.5719 4.77313C20.6257 4.69876 21.8233 3.09169 23.7773 4.11682L23.0054 4.82251C22.6009 5.19194 23.0573 5.83701 23.5392 5.58382C23.6029 5.56444 24.343 5.38507 26.2133 6.76457C25.3443 7.37532 24.1798 8.11794 23.6679 8.24607Z" fill="#787882"/>
</g>
<defs>
<clipPath id="clip0">
<rect width="32" height="32" fill="white"/>
</clipPath>
</defs>
</svg>
