<svg width="28" height="28" viewBox="0 0 28 28" fill="none" xmlns="http://www.w3.org/2000/svg">
<g clip-path="url(#clip0)">
<path d="M0.089056 2.56858L1.95643 5.8363C2.01942 5.94672 2.12485 6.02661 2.24814 6.05753L3.99031 6.49307L9.96556 12.4683L10.6258 11.8083L4.55701 5.7397C4.49729 5.67979 4.42239 5.63735 4.34039 5.6168L2.6664 5.19681L1.07651 2.41303L2.4396 1.04995L5.22453 2.64136L5.64471 4.31536C5.66507 4.39755 5.7077 4.47264 5.76742 4.53236L11.8362 10.6011L12.4962 9.94092L6.52098 3.96566L6.08544 2.22445C6.05452 2.10097 5.97463 1.99535 5.86421 1.93217L2.5963 0.0649841C2.41406 -0.0387163 2.18477 -0.00799024 2.03613 0.140071L0.168944 2.00745C0.0187701 2.15512 -0.0138763 2.3848 0.089056 2.56858Z" fill="#787882"/>
<path d="M19.4969 9.20038L9.22688 19.4706L8.56665 18.8103L18.8368 8.54034L19.4969 9.20038Z" fill="#787882"/>
<path d="M7.42943 19.8338C7.34493 19.6933 7.19322 19.6074 7.02922 19.6074H4.22835C4.06454 19.6074 3.91264 19.6933 3.82833 19.8338L2.4278 22.1679C2.33889 22.3157 2.33889 22.5007 2.4278 22.6487L3.82833 24.9828C3.91264 25.1231 4.06454 25.2092 4.22835 25.2092H7.02922C7.19322 25.2092 7.34493 25.1231 7.42943 24.9828L8.82977 22.6487C8.91868 22.5007 8.91868 22.3157 8.82977 22.1679L7.42943 19.8338ZM6.76517 24.2755H4.49259L3.37224 22.4083L4.49259 20.5409H6.76517L7.88552 22.4083L6.76517 24.2755Z" fill="#787882"/>
<path d="M22.4348 11.2046C25.5179 11.215 28.0259 8.72389 28.0363 5.64072C28.0378 5.17138 27.9802 4.70396 27.8648 4.24902C27.8026 3.99879 27.5493 3.84651 27.2991 3.90873C27.2169 3.92928 27.142 3.97172 27.0821 4.03144L24.1762 6.93544L21.8706 6.16709L21.1016 3.86206L24.0075 0.95557C24.1898 0.773134 24.1896 0.477587 24.0072 0.295343C23.9471 0.235236 23.8714 0.192603 23.7886 0.172247C20.7986 -0.584958 17.7611 1.225 17.0039 4.21484C16.8889 4.66843 16.8315 5.1347 16.833 5.60269C16.8342 5.97025 16.872 6.33666 16.9465 6.69654L6.72298 16.9199C6.3631 16.8456 5.9967 16.8077 5.62933 16.8064C2.5354 16.8064 0.0273895 19.3144 0.0273895 22.4083C0.0273895 25.502 2.5354 28.0101 5.62933 28.0101C8.72306 28.0101 11.2311 25.502 11.2311 22.4083C11.2299 22.0408 11.1919 21.6743 11.1176 21.3145L13.5651 18.8669L14.6355 19.9374C14.818 20.1196 15.1133 20.1196 15.2957 19.9374L15.5291 19.7038C15.7338 19.5005 16.0647 19.5005 16.2694 19.7038C16.4739 19.9078 16.4743 20.2389 16.2703 20.4434C16.2701 20.4436 16.2698 20.444 16.2694 20.4443L16.0361 20.6777C15.8538 20.8599 15.8538 21.1555 16.0361 21.3377L21.6048 26.9064C23.0694 28.3845 25.4549 28.3953 26.9331 26.9306C28.411 25.4659 28.4217 23.0803 26.9571 21.6023C26.9492 21.5943 26.9411 21.5862 26.9331 21.5781L21.3643 16.0096C21.1821 15.8274 20.8865 15.8274 20.7043 16.0096L20.471 16.2429C20.2661 16.4465 19.9354 16.4465 19.7305 16.2429C19.5262 16.039 19.5256 15.7079 19.7295 15.5036C19.7299 15.5032 19.7303 15.503 19.7305 15.5026L19.964 15.2691C20.1462 15.0869 20.1462 14.7913 19.964 14.6091L18.8936 13.5387L21.3411 11.0911C21.701 11.1655 22.0674 11.2035 22.4348 11.2046ZM24.2689 27.0766C23.9298 27.076 23.5935 27.0147 23.2761 26.8955L26.9219 23.2494C27.4721 24.713 26.7318 26.3453 25.2683 26.8955C24.9489 27.0155 24.6104 27.0769 24.2689 27.0766ZM18.9804 14.9438C18.4634 15.5604 18.5445 16.4795 19.1611 16.9963C19.703 17.4505 20.4929 17.4501 21.0342 16.995L26.273 22.2384C26.3299 22.2954 26.3831 22.3555 26.4345 22.4166L22.4432 26.4079C22.3819 26.3566 22.3218 26.3034 22.2648 26.2464L17.022 21.0032C17.5389 20.3865 17.4579 19.4674 16.8413 18.9507C16.2993 18.4963 15.5093 18.4969 14.9679 18.9518L14.2211 18.205L18.2334 14.1987L18.9804 14.9438ZM20.8654 10.2487L10.2755 20.8365C10.1593 20.9525 10.1126 21.1209 10.1522 21.2801C10.7927 23.7952 9.27286 26.3533 6.75755 26.9936C4.24243 27.634 1.68429 26.1143 1.04385 23.5989C0.403592 21.0838 1.92338 18.5257 4.43869 17.8852C5.19955 17.6917 5.9967 17.6917 6.75755 17.8852C6.91675 17.9242 7.08478 17.8776 7.20116 17.7621L17.7886 7.17414C17.9046 7.05815 17.9512 6.88973 17.9113 6.73072C17.2753 4.24499 18.7747 1.71431 21.2604 1.07809C21.7302 0.958066 22.216 0.911977 22.7 0.942127L20.2375 3.40559C20.1124 3.53041 20.0687 3.71535 20.1245 3.88299L21.058 6.68406C21.1047 6.82329 21.2142 6.93275 21.3536 6.97903L24.1546 7.91272C24.3221 7.9686 24.507 7.92501 24.6321 7.80018L27.0946 5.33768C27.1001 5.42679 27.103 5.51493 27.103 5.60269C27.1161 8.16774 25.0474 10.2577 22.4824 10.2709C22.0858 10.2729 21.6906 10.2241 21.3065 10.1258C21.1473 10.086 20.9789 10.1325 20.8629 10.2485H20.8654V10.2487Z" fill="#787882"/>
<path d="M24.1653 23.4785L23.5051 24.1387L18.8371 19.4707L19.4971 18.8104L24.1653 23.4785Z" fill="#787882"/>
</g>
<defs>
<clipPath id="clip0">
<rect width="28" height="28" fill="white"/>
</clipPath>
</defs>
</svg>
