<svg width="32" height="32" viewBox="0 0 32 32" fill="none" xmlns="http://www.w3.org/2000/svg">
<path d="M28.7481 3.06585L25.248 1.06585C25.189 1.03211 25.1237 1.01077 25.0561 1.00313C24.9886 0.995488 24.9202 1.00171 24.8551 1.02141C24.79 1.04112 24.7296 1.07389 24.6776 1.11773C24.6257 1.16156 24.5832 1.21554 24.5528 1.27636L19.6219 11.1382C19.1544 11.1016 18.6779 11.0719 18.1921 11.0492L19.486 4.99995C19.5063 4.91601 19.5044 4.82827 19.4807 4.74525L18.4807 1.24525C18.4579 1.16522 18.4154 1.09217 18.3571 1.03271C18.2989 0.973261 18.2267 0.929289 18.1472 0.904787C18.0676 0.880285 17.9832 0.876026 17.9016 0.892398C17.82 0.90877 17.7438 0.945254 17.6799 0.998542L14.6799 3.49854C14.5973 3.56734 14.5391 3.66088 14.5139 3.76533L13.0261 10.6178L12.2151 9.15838L12.2151 9.15829L10.5886 6.22959L10.5883 6.229L8.93704 3.25714C8.9049 3.19931 8.8616 3.14843 8.80965 3.10745C8.7577 3.06647 8.69814 3.03621 8.63441 3.01842C8.57068 3.00063 8.50406 2.99566 8.4384 3.0038C8.37274 3.01194 8.30934 3.03303 8.25189 3.06585L4.75189 5.06585C4.63767 5.13113 4.55378 5.2388 4.5184 5.36552C4.48302 5.49223 4.49901 5.62779 4.5629 5.74279L6.19014 8.6717L6.1904 8.67224L7.8179 11.6016L7.81793 11.6017L7.92187 11.7888C5.65085 12.3289 4.49997 13.0715 4.49997 14V16C4.49997 16.9654 5.68115 17.7031 8.11099 18.2554C8.34921 18.3095 8.59662 18.3607 8.85161 18.4093L8.00143 29.4617C8.00046 29.4744 7.99997 29.4872 7.99997 29.5C7.99997 30.1211 8.71295 30.4471 10.6306 30.7028C12.0682 30.8945 13.9751 31 16 31C18.0248 31 19.9317 30.8945 21.3693 30.7028C23.287 30.4471 24 30.1211 24 29.5C24 29.4872 23.9995 29.4744 23.9985 29.4617L23.1483 18.4093C23.4033 18.3607 23.6507 18.3095 23.8889 18.2554C26.3188 17.7031 27.5 16.9654 27.5 16V14C27.5 13.168 26.6209 12.5057 24.8175 11.983L28.9472 3.72363C29.0043 3.60931 29.0156 3.47744 28.9785 3.35511C28.9415 3.23278 28.859 3.12927 28.7481 3.06585ZM19.1383 12.1052L17.1984 15.9851C17.1322 15.9868 17.066 15.9883 16.9996 15.9896L17.9528 12.0405C18.3532 12.057 18.7483 12.0786 19.1383 12.1052ZM10.7546 10.5419L11.5839 10.0811L12.7256 12.1357L10.6591 13.2837L10.0761 13.6076L8.93484 11.553L10.7546 10.5419ZM11.2694 15.7555L10.5617 14.4817L13.2113 13.0099L14.8651 15.9867C13.6038 15.9573 12.3908 15.8788 11.2694 15.7555ZM17.7302 2.25831L18.192 3.87484C18.1283 3.87968 18.0643 3.88264 18 3.88264C17.4323 3.88318 16.8814 3.68982 16.4387 3.33457L17.7302 2.25831ZM15.4472 4.16083L15.6596 3.98383C16.3013 4.56321 17.1354 4.88353 18 4.88264C18.1575 4.88259 18.3148 4.87198 18.4709 4.8509L18.483 4.89338L15.9829 15.9397L13.8427 12.0872H13.8427L13.8427 12.0872L13.7433 11.9084L15.4472 4.16083ZM8.30869 4.18518L9.47128 6.27758L6.82172 7.74951L5.67697 5.68902L8.30869 4.18518ZM9.95688 7.15179L11.0983 9.20697L8.44922 10.6788L7.30737 8.62365L9.95688 7.15179ZM8.42739 12.6988L9.44473 14.5303L9.44502 14.5307L10.037 15.5963C9.42957 15.5053 8.85839 15.3997 8.33261 15.2802C6.02036 14.7547 5.49997 14.1651 5.49997 14C5.49997 13.8238 6.05035 13.2249 8.42739 12.6988ZM16 30C11.9339 30 9.57953 29.5938 9.01428 29.3333L9.66506 20.8731C10.0346 21.0002 10.5295 21.1065 11.1697 21.2017C12.4638 21.394 14.1793 21.5 16 21.5C17.8207 21.5 19.5361 21.394 20.8302 21.2017C21.4704 21.1065 21.9653 21.0002 22.3349 20.8731L22.9857 29.3333C22.4204 29.5938 20.066 30 16 30ZM22.2543 19.8256C21.8307 20.0781 19.7132 20.5 16 20.5C12.2868 20.5 10.1692 20.0781 9.74564 19.8256L9.8416 18.578C11.655 18.8525 13.7793 19 16 19C18.2207 19 20.345 18.8525 22.1583 18.578L22.2543 19.8256ZM23.6673 17.2802C21.625 17.7444 18.902 18 16 18C13.0979 18 10.3749 17.7444 8.33261 17.2802C6.02035 16.7547 5.49997 16.1651 5.49997 16V15.346C6.09753 15.6933 6.96532 15.995 8.11099 16.2554C10.2239 16.7355 13.0256 17 16 17C18.9744 17 21.7761 16.7355 23.8889 16.2554C25.0346 15.995 25.9024 15.6933 26.5 15.346V16C26.5 16.1651 25.9796 16.7547 23.6673 17.2802V17.2802ZM26.5 14C26.5 14.1651 25.9796 14.7547 23.6673 15.2802C23.4868 15.3212 23.301 15.3606 23.1098 15.3983L24.3621 12.8938C26.0949 13.372 26.5 13.8585 26.5 14ZM21.8872 15.6075C20.8022 15.7672 19.6031 15.8806 18.3374 15.9431L19.1236 14.3708L20.2764 14.9472L20.7236 14.0528L19.5708 13.4764L20.1236 12.3708L21.2764 12.9472L21.7236 12.0528L20.5708 11.4764L21.1236 10.3708L22.2764 10.9472L22.7236 10.0528L21.5708 9.47641L22.1236 8.37081L23.2764 8.9472L23.7236 8.05279L22.5708 7.4764L23.1236 6.37081L24.2764 6.9472L24.7236 6.05279L23.5708 5.4764L24.1236 4.37081L25.2764 4.9472L25.7236 4.05279L24.5708 3.4764L25.2108 2.19634L27.8412 3.69946L21.8872 15.6075Z" fill="#787882"/>
</svg>
