<svg width="32" height="32" viewBox="0 0 32 32" fill="none" xmlns="http://www.w3.org/2000/svg">
<path d="M15.8933 31.294C14.7785 31.294 13.6644 31.0694 12.6326 30.6206L7.69898 28.4759C5.9141 27.6995 4.02688 27.2078 2.08982 27.0141L0.469643 26.8521C0.202895 26.8256 0 26.6012 0 26.3332V21.251C0 21.1382 0.0367002 21.0284 0.104431 20.9383C0.225572 20.7763 3.12936 16.9827 7.56501 17.9698C10.0597 18.5242 12.0684 19.5616 13.3141 20.3344C14.2185 20.8953 15.2786 21.1916 16.3799 21.1916H21.3136C22.1639 21.1916 22.9114 21.6416 23.3294 22.3165L27.5786 17.4211C28.4024 16.3209 29.7501 15.6472 31.1611 15.6472H31.4786C31.655 15.6472 31.8191 15.7361 31.9151 15.8835C32.0115 16.0309 32.0267 16.2174 31.956 16.3785L28.1129 25.1126C27.2727 27.0228 25.5618 28.4657 23.5368 28.9721L22.8606 29.141L18.9275 30.7143C17.9595 31.1013 16.9262 31.294 15.8933 31.294ZM1.04312 25.8612L2.19366 25.9764C4.23842 26.1808 6.23068 26.7002 8.11522 27.5196L13.0486 29.6643C14.7833 30.4186 16.7839 30.4481 18.5405 29.7455L22.5059 28.1593C22.5279 28.1506 22.5503 28.1435 22.5733 28.1378L23.2837 27.96C24.9985 27.5312 26.4471 26.3097 27.1581 24.6925L30.6635 16.7261C29.7659 16.8583 28.94 17.342 28.3898 18.0754L23.6827 23.5005C23.6833 23.5208 23.6836 23.5407 23.6836 23.5613C23.6836 24.8679 22.6204 25.931 21.3139 25.931H14.4303C13.5355 25.931 12.6511 26.0745 11.8022 26.3574L11.6107 25.8711L11.4487 25.3755L11.4752 25.3668C12.4279 25.0493 13.423 24.8879 14.4303 24.8879H21.3139C22.0452 24.8879 22.6407 24.2926 22.6407 23.561C22.6407 22.8294 22.0455 22.2342 21.3139 22.2342H16.3802C15.0844 22.2342 13.8342 21.8836 12.7648 21.2203C11.588 20.4901 9.69094 19.5106 7.33944 18.9875C3.98033 18.2425 1.56319 20.8205 1.04342 21.4354V25.8612H1.04312Z" fill="#787882"/>
<path d="M20.5372 15.5294C19.7351 15.5294 18.8358 15.2818 17.8458 14.7868C17.7259 14.7265 17.6334 14.6221 17.588 14.4958C17.5477 14.3828 16.6159 11.7024 18.0967 9.72034C19.173 8.27949 21.1966 7.63052 24.1147 7.79313C24.3808 7.80775 24.593 8.02109 24.6061 8.28784C24.6165 8.49491 24.8317 13.3826 22.3393 15.0099C21.8094 15.3564 21.2073 15.5294 20.5372 15.5294ZM18.5109 13.9498C19.8807 14.5922 20.9758 14.6552 21.7694 14.1369C23.2473 13.1717 23.5669 10.3064 23.5746 8.81507C21.2882 8.75927 19.7315 9.27457 18.9322 10.3442C17.981 11.618 18.3507 13.3701 18.5109 13.9498Z" fill="#787882"/>
<path d="M12.5622 8.69704C11.6375 8.69704 10.5709 8.49892 9.63992 7.81713C8.06092 6.66003 7.33527 4.45712 7.48267 1.26988C7.4952 1.00343 7.70645 0.789194 7.9729 0.77338C8.19847 0.76055 13.5376 0.475601 15.3341 3.17232C16.1708 4.42759 16.1021 6.07164 15.1309 8.05971C15.0718 8.18055 14.9686 8.27395 14.8424 8.32019C14.7723 8.34615 13.7933 8.69704 12.5622 8.69704ZM14.6625 7.83086H14.6675H14.6625ZM8.50908 1.79949C8.46402 4.3524 9.05093 6.09252 10.2561 6.97571C11.699 8.03286 13.6692 7.5835 14.2886 7.40299C14.9973 5.86516 15.0572 4.63734 14.4664 3.75057C13.3684 2.10235 10.1484 1.7801 8.50908 1.79949Z" fill="#787882"/>
<path d="M16.6348 22.0511C16.6184 22.0511 16.602 22.0503 16.5853 22.0488C16.3075 22.0225 16.0995 21.7823 16.1135 21.5033C16.1443 20.8899 16.1968 20.308 16.2681 19.7566C16.485 16.0663 16.3731 7.47252 10.9397 5.09506C10.6759 4.97959 10.5554 4.67226 10.6709 4.4082C10.786 4.14474 11.0942 4.02449 11.3577 4.13966C14.5596 5.54054 16.5739 9.02825 17.1817 14.2257C17.2363 14.6914 17.2772 15.1506 17.3076 15.5979C18.7386 11.9819 20.9278 10.7042 21.0582 10.6311C21.3088 10.4894 21.6269 10.5795 21.7683 10.8298C21.9089 11.0805 21.8205 11.3976 21.5708 11.5391C21.5156 11.5713 18.1586 13.5859 17.316 19.7987C17.2518 20.8615 17.1593 21.5391 17.1507 21.6012C17.1146 21.8614 16.8923 22.0511 16.6348 22.0511Z" fill="#787882"/>
</svg>
