<svg width="35" height="35" viewBox="0 0 35 35" fill="none" xmlns="http://www.w3.org/2000/svg">
<g clip-path="url(#clip0)">
<path d="M34.7314 32.4659L30.3417 28.0762C29.8263 27.5606 29.1895 27.238 28.5224 27.1085V18.2541C28.6658 18.2661 28.8087 18.272 28.9513 18.272C30.3065 18.272 31.6144 17.7401 32.5981 16.7563C33.8598 15.4946 34.3781 13.7005 33.9848 11.9565C33.9268 11.6991 33.7258 11.4983 33.4683 11.4401C31.7246 11.047 29.9302 11.5653 28.6688 12.827C28.6186 12.8769 28.5702 12.9282 28.5224 12.9797V9.40209C29.5721 8.59913 30.1884 7.36412 30.1884 6.02684C30.1884 4.55979 29.4466 3.21503 28.2041 2.42996C27.9809 2.28897 27.6968 2.28897 27.4735 2.42996C26.2311 3.21503 25.4893 4.55979 25.4893 6.02684C25.4893 7.36412 26.1056 8.59913 27.1552 9.40209V10.2993C26.0311 9.18606 24.439 8.72971 22.8916 9.07872C22.6342 9.13693 22.4331 9.338 22.3752 9.59515C22.0246 11.1503 22.4868 12.7504 23.6118 13.8756C24.4892 14.7531 25.6556 15.2273 26.8642 15.2273C26.9611 15.2273 27.058 15.2233 27.1552 15.2174V17.963C27.0663 17.8602 26.9737 17.7598 26.8765 17.6626C25.5186 16.3051 23.5933 15.7395 21.7156 16.143C21.5637 15.0826 20.6499 14.265 19.5487 14.265H15.1558L13.109 11.4518C12.8195 11.0537 12.459 10.7204 12.0529 10.4617C13.2457 9.96338 14.0863 8.78498 14.0863 7.41379V5.77957H15.1403C15.5179 5.77957 15.8239 5.47356 15.8239 5.09598C15.8239 4.7184 15.5179 4.41239 15.1403 4.41239H14.2743V3.3173C14.2743 2.24197 13.3995 1.36719 12.3242 1.36719H9.09234C8.01701 1.36719 7.14222 2.24197 7.14222 3.3173V4.41239H6.27625C5.89867 4.41239 5.59266 4.7184 5.59266 5.09598C5.59266 5.47356 5.89867 5.77957 6.27625 5.77957H7.48322V7.41379C7.48322 8.47817 7.99004 9.42612 8.77457 10.0304C7.20097 10.5322 6.05782 12.0075 6.05782 13.7453V21.1885C6.05782 22.7882 6.93181 24.1869 8.2269 24.9344V29.3262H2.08496C0.897752 29.3262 -0.0683594 30.2923 -0.0683594 31.4795C-0.0683594 32.6667 0.897752 33.6328 2.08496 33.6328H2.96509C3.34267 33.6328 3.64868 33.3268 3.64868 32.9492C3.64868 32.5717 3.34267 32.2656 2.96509 32.2656H2.08496C1.65157 32.2656 1.29883 31.9129 1.29883 31.4795C1.29883 31.0461 1.65157 30.6934 2.08496 30.6934H8.91049C9.28807 30.6934 9.59408 30.3874 9.59408 30.0098V25.4385C9.84936 25.4858 10.1121 25.5117 10.381 25.5117H11.7351V29.9331C11.7351 31.2194 10.6886 32.2656 9.40262 32.2656H8.43384C8.05626 32.2656 7.75025 32.5717 7.75025 32.9492C7.75025 33.3268 8.05626 33.6328 8.43384 33.6328H9.40262C11.4427 33.6328 13.1023 31.9732 13.1023 29.9331V25.5117H15.6025V31.4795C15.6025 32.6667 16.5686 33.6328 17.7558 33.6328C18.9433 33.6328 19.9091 32.6667 19.9091 31.4795V24.0625C19.9091 22.0224 18.2498 20.3628 16.2097 20.3628H12.9167V18.6117C12.9835 18.633 13.0537 18.6445 13.1255 18.6445H19.5487C20.1067 18.6445 20.6165 18.4343 21.0037 18.0893C21.0451 19.5038 21.6195 20.86 22.6491 21.89C23.7188 22.9597 25.1408 23.5378 26.614 23.5378C26.794 23.5378 26.9745 23.5287 27.1552 23.5114V27.1109C26.4919 27.2418 25.8594 27.5633 25.3467 28.0762L20.9773 32.4456C20.7102 32.7124 20.7102 33.1452 20.9773 33.4123C21.244 33.6793 21.6771 33.6793 21.9439 33.4123L26.3133 29.0431C27.1574 28.1988 28.5307 28.1988 29.3751 29.0431L33.7647 33.4326C33.8983 33.5661 34.0732 33.6328 34.2481 33.6328C34.423 33.6328 34.5979 33.5661 34.7314 33.4326C34.9984 33.1655 34.9984 32.7327 34.7314 32.4659ZM27.1443 13.8479C26.1969 13.9282 25.2628 13.5928 24.5787 12.909C23.8948 12.2249 23.5589 11.2911 23.6398 10.3434C24.5872 10.2627 25.5213 10.5984 26.2054 11.2822C26.8893 11.9664 27.2249 12.9004 27.1443 13.8479ZM29.6354 13.7936C30.4571 12.9723 31.5855 12.5789 32.7247 12.7004C32.8459 13.839 32.4528 14.968 31.6315 15.7894C30.8098 16.6111 29.6813 17.0041 28.5422 16.8826C28.5299 16.7667 28.5243 16.6511 28.5224 16.5358V16.4028C28.5414 15.4319 28.9297 14.4994 29.6354 13.7936ZM27.8388 3.85803C28.4608 4.40197 28.8212 5.1849 28.8212 6.02711C28.8212 6.86905 28.4608 7.65198 27.8388 8.19592C27.2169 7.65198 26.8564 6.86932 26.8564 6.02711C26.8564 5.1849 27.2169 4.40197 27.8388 3.85803ZM12.7191 7.41379C12.7191 8.4803 11.8513 9.34815 10.7848 9.34815C9.71799 9.34815 8.85041 8.4803 8.85041 7.41379V5.77957H12.7191V7.41379ZM8.50941 3.3173C8.50941 2.9958 8.77083 2.73438 9.09234 2.73438H12.3242C12.6457 2.73438 12.9071 2.9958 12.9071 3.3173V4.41239H8.50941V3.3173ZM16.2097 21.73C17.4957 21.73 18.542 22.7765 18.542 24.0625V31.4795C18.542 31.9129 18.1895 32.2656 17.7558 32.2656C17.3224 32.2656 16.9697 31.9129 16.9697 31.4795V24.8281C16.9697 24.4508 16.6637 24.1445 16.2861 24.1445H10.3808C8.93612 24.1445 7.73076 23.1023 7.47548 21.73H16.2097ZM19.5487 17.2773H13.4321L12.1042 15.7843C11.8531 15.5021 11.4211 15.477 11.1388 15.7277C10.8569 15.9787 10.8315 16.4108 11.0825 16.693L11.5495 17.2178V20.3628H7.42501V13.7453C7.42501 12.3496 8.56068 11.2139 9.95644 11.2139C10.7634 11.2139 11.5287 11.6035 12.0035 12.2561L14.2551 15.3507C14.3838 15.5277 14.5891 15.6321 14.8078 15.6321H19.5487C20.0023 15.6321 20.3714 16.0012 20.3714 16.4549C20.3714 16.9083 20.0021 17.2773 19.5487 17.2773ZM27.1264 22.1399C25.834 22.294 24.5482 21.8555 23.616 20.9233C22.6838 19.9911 22.2449 18.7051 22.3992 17.4127C23.6913 17.2578 24.9776 17.6973 25.9098 18.6295C26.7112 19.4309 27.1467 20.4939 27.1552 21.5976V21.6942C27.1531 21.8424 27.144 21.9912 27.1264 22.1399Z" fill="#787882"/>
<path d="M5.69917 32.2656C5.5192 32.2656 5.34376 32.3388 5.21585 32.4659C5.08875 32.593 5.01611 32.7695 5.01611 32.9492C5.01611 33.1289 5.08875 33.3054 5.21585 33.4325C5.34376 33.5596 5.5192 33.6328 5.69917 33.6328C5.87888 33.6328 6.05512 33.5596 6.18303 33.4325C6.31014 33.3054 6.3833 33.1289 6.3833 32.9492C6.3833 32.7695 6.31014 32.593 6.18303 32.4659C6.05512 32.3388 5.87888 32.2656 5.69917 32.2656Z" fill="#787882"/>
</g>
<defs>
<clipPath id="clip0">
<rect width="35" height="35" fill="white"/>
</clipPath>
</defs>
</svg>
