<svg width="34" height="34" viewBox="0 0 34 34" fill="none" xmlns="http://www.w3.org/2000/svg">
<g clip-path="url(#clip0)">
<path d="M33.4844 4.76183C31.2578 2.54806 27.6601 2.58768 25.5087 4.8239L25.4468 4.88727C27.8207 4.28904 31.2271 4.19342 32.6182 5.62568C32.6752 5.68309 32.7431 5.72854 32.8179 5.75936C32.8927 5.79019 32.973 5.80577 33.0539 5.8052C33.1348 5.80462 33.2148 5.7879 33.2891 5.75601C33.3635 5.72412 33.4307 5.67771 33.4869 5.61949C33.5994 5.50495 33.6622 5.35069 33.6618 5.19015C33.6613 5.02961 33.5976 4.87572 33.4844 4.76183Z" fill="#787882"/>
<path d="M23.1657 13.1622C23.4565 13.1622 23.6922 12.9265 23.6922 12.6357C23.6922 12.345 23.4565 12.1093 23.1657 12.1093C22.8749 12.1093 22.6392 12.345 22.6392 12.6357C22.6392 12.9265 22.8749 13.1622 23.1657 13.1622Z" fill="#787882"/>
<path d="M17.8656 15.694L17.5563 16.4294C17.5105 16.5383 17.488 16.6555 17.4901 16.7735C17.4922 16.8916 17.519 17.0079 17.5686 17.1151C17.6182 17.2222 17.6896 17.3178 17.7783 17.3958C17.8669 17.4738 17.9709 17.5324 18.0835 17.568L19.9421 18.1537C20.1438 18.2172 20.362 18.2032 20.5539 18.1143C20.7458 18.0255 20.8976 17.8682 20.9796 17.6733C21.0494 17.5072 21.0645 17.3233 21.0229 17.1481C20.9812 16.9729 20.8849 16.8154 20.7479 16.6985L19.1985 15.3774C19.0969 15.2908 18.9763 15.2295 18.8466 15.1982C18.7169 15.167 18.5816 15.1668 18.4517 15.1977C18.3219 15.2285 18.2012 15.2895 18.0993 15.3758C17.9975 15.462 17.9174 15.5711 17.8656 15.694Z" fill="#787882"/>
<path d="M15.4667 18.3991L15.1079 19.5376L15.7074 21.147L12.8609 30.5844C12.4738 31.8677 13.1021 33.1847 14.2911 33.583C15.5391 34.0011 16.8809 33.1816 17.2658 31.9396L20.9902 20.1402C21.011 20.0743 21.0186 20.0049 21.0126 19.936C21.0066 19.8671 20.9871 19.8 20.9551 19.7387C20.9232 19.6773 20.8795 19.6229 20.8265 19.5784C20.7736 19.534 20.7123 19.5004 20.6464 19.4796L16.1272 18.0552C16.0612 18.0345 15.9918 18.0269 15.9229 18.0329C15.8541 18.0389 15.7871 18.0585 15.7257 18.0904C15.6644 18.1223 15.61 18.166 15.5655 18.219C15.5211 18.272 15.4875 18.3332 15.4667 18.3991Z" fill="#787882"/>
<path d="M31.9384 6.44945C30.6674 5.21989 25.4129 4.92367 22.8979 7.49947C21.9235 8.49737 20.6256 9.31081 19.4339 8.08941C19.3591 8.01274 19.2627 7.96071 19.1576 7.94028C19.0524 7.91984 18.9435 7.93196 18.8455 7.97503L13.8192 10.712L15.6059 14.1428L18.209 13.007L20.4573 15.311C22.7986 17.7734 27.181 15.8144 26.8899 12.3802L31.9491 7.19555C32.0455 7.09461 32.0983 6.95986 32.0963 6.82032C32.0943 6.68078 32.0376 6.5476 31.9384 6.44945ZM23.1657 14.2152C22.8533 14.2152 22.548 14.1226 22.2882 13.949C22.0285 13.7755 21.826 13.5288 21.7065 13.2402C21.5869 12.9516 21.5557 12.634 21.6166 12.3276C21.6775 12.0212 21.828 11.7398 22.0489 11.5189C22.2698 11.298 22.5512 11.1476 22.8576 11.0866C23.164 11.0257 23.4816 11.0569 23.7702 11.1765C24.0588 11.296 24.3055 11.4985 24.479 11.7582C24.6526 12.018 24.7452 12.3234 24.7452 12.6357C24.7447 13.0545 24.5782 13.456 24.2821 13.7521C23.986 14.0482 23.5845 14.2148 23.1657 14.2152Z" fill="#787882"/>
<path d="M2.41312 21.6705C1.35493 21.3371 0.649367 19.6191 0.17006 18.6986C-0.0135773 18.345 -0.0494561 17.933 0.0702956 17.553C0.190047 17.173 0.455649 16.856 0.808829 16.6716C1.38007 16.3741 2.10696 16.4873 2.58574 16.9335L10.0422 13.0506C10.1936 12.732 10.3372 11.7087 10.6831 11.5295L12.0841 10.8C12.1454 10.7681 12.2124 10.7485 12.2813 10.7425C12.3502 10.7365 12.4196 10.744 12.4855 10.7648C12.5515 10.7856 12.6127 10.8192 12.6656 10.8636C12.7186 10.908 12.7623 10.9625 12.7943 11.0238L14.9828 15.2265C15.0459 15.3506 15.0578 15.4945 15.016 15.6273C14.9741 15.7601 14.8819 15.8712 14.7591 15.9367L4.0186 21.5296C3.77358 21.658 3.50554 21.7366 3.22997 21.7607C2.9544 21.7849 2.67677 21.7543 2.41312 21.6705Z" fill="#787882"/>
<path d="M20.7357 7.65087H20.7368L23.2508 5.86277C23.7622 2.95159 26.2772 1.05299 29.4837 1.05299C30.1733 1.05299 30.1418 -0.000723556 29.4623 3.72848e-07C24.5245 0.0051995 19.7294 1.89084 19.4904 6.93958L20.7357 7.65087Z" fill="#787882"/>
</g>
<defs>
<clipPath id="clip0">
<rect width="33.6956" height="33.6956" fill="white"/>
</clipPath>
</defs>
</svg>
