<svg width="31" height="31" viewBox="0 0 31 31" fill="none" xmlns="http://www.w3.org/2000/svg">
<g clip-path="url(#clip0)">
<path d="M28.9352 10.85V5.16667C28.9352 4.02528 28.0099 3.1 26.8685 3.1C26.5043 3.10153 26.1472 3.2015 25.8352 3.38933V2.06667C25.8352 0.925278 24.9099 0 23.7685 0C22.6271 0 21.7018 0.925278 21.7018 2.06667V2.8675C21.3884 2.68356 21.0319 2.58555 20.6685 2.58333C19.7586 2.58882 18.9593 3.1888 18.7 4.061C18.6131 4.06366 18.5267 4.07404 18.4417 4.092L18.9222 2.86233C19.1317 2.35616 19.1317 1.7875 18.9222 1.28133C18.6959 0.774168 18.2751 0.379397 17.7545 0.186C17.2493 -0.0281854 16.6787 -0.0281854 16.1735 0.186C15.6714 0.406242 15.2773 0.816992 15.0782 1.32783L14.7837 2.077C14.5653 1.80127 14.2785 1.58752 13.9518 1.457C13.4422 1.2557 12.8736 1.26499 12.3708 1.48283C11.8687 1.70308 11.4747 2.11383 11.2755 2.62467L10.6038 4.33483C10.146 3.75689 9.41492 3.46664 8.68534 3.57315C7.95575 3.67965 7.33817 4.16679 7.06466 4.8515L3.26716 14.4667C2.53349 16.3473 2.52833 19.0857 2.63683 20.9405C2.18859 20.9082 1.77085 21.1693 1.60349 21.5863L0.0741602 25.4355C-0.133565 25.9662 0.127649 26.5649 0.657994 26.7737L4.02149 28.0963L5.94349 28.8507L7.86549 29.605L9.81849 30.3645L11.26 30.9277C11.3796 30.9769 11.5079 31.0015 11.6372 31C12.0619 30.9996 12.4431 30.7393 12.5982 30.3438L14.1068 26.4947C14.1831 26.3099 14.2011 26.1062 14.1585 25.9108C15.2204 25.5568 16.1957 24.9829 17.0208 24.2265C17.119 24.4538 17.212 24.6553 17.2998 24.8465C16.8526 24.9669 16.5401 25.3702 16.5352 25.8333V29.9667C16.5352 30.5374 16.9978 31 17.5685 31H28.9352C29.5059 31 29.9685 30.5374 29.9685 29.9667V25.8333C29.9675 25.6203 29.9008 25.4128 29.7773 25.2392C30.5417 24.0214 30.9647 22.6206 31.0018 21.1833V12.9167C31.0018 11.7753 30.0766 10.85 28.9352 10.85ZM11.6165 29.9667L10.6555 29.5895L11.2187 28.148C11.2956 27.9744 11.2712 27.7725 11.1549 27.6223C11.0386 27.4721 10.8493 27.3978 10.662 27.4289C10.4746 27.4599 10.3193 27.5912 10.2577 27.7708L9.69449 29.2123L8.72833 28.8352L9.30183 27.3833C9.39165 27.1217 9.25944 26.8357 9.00191 26.7346C8.74439 26.6336 8.45295 26.7533 8.34083 27.0062L7.75183 28.458L6.79083 28.0808L7.35916 26.6342C7.44899 26.3725 7.31677 26.0865 7.05925 25.9855C6.80173 25.8844 6.51029 26.0041 6.39816 26.257L5.82983 27.7037L4.86883 27.3213L5.43199 25.8798C5.52182 25.6182 5.3896 25.3322 5.13208 25.2311C4.87456 25.1301 4.58312 25.2498 4.47099 25.5027L3.92333 26.9442L2.95716 26.567L3.52549 25.1255C3.64002 24.9505 3.63771 24.7237 3.51965 24.551C3.40158 24.3783 3.19105 24.2939 2.98639 24.3371C2.78174 24.3803 2.62333 24.5427 2.58516 24.7483L2.01683 26.1898L1.03516 25.8333L2.54383 21.9842L3.01399 22.1702L13.1252 26.1175L11.6165 29.9667ZM13.2543 25.0583L3.69599 21.3073C3.58749 19.7935 3.48416 16.74 4.21266 14.8542L7.98433 5.23383C8.08434 4.97402 8.28497 4.76556 8.54075 4.65566C8.79654 4.54576 9.08585 4.54372 9.34316 4.65C9.59674 4.75421 9.80032 4.95224 9.9115 5.20283C10.0163 5.45592 10.0163 5.74025 9.9115 5.99333L9.14683 7.94117C9.057 8.20282 9.18922 8.4888 9.44674 8.58988C9.70426 8.69095 9.9957 8.57124 10.1078 8.31833L10.8725 6.3705L12.1952 3.00183C12.3485 2.61433 12.7197 2.35689 13.1364 2.34898C13.5531 2.34108 13.9337 2.58426 14.1017 2.96567C14.2064 3.21875 14.2064 3.50308 14.1017 3.75617L12.035 9.07783C11.9331 9.34319 12.0647 9.641 12.3295 9.74433C12.3884 9.76875 12.4517 9.78105 12.5155 9.7805C12.7272 9.78071 12.9177 9.65171 12.996 9.455L15.0627 4.13333L16.0185 1.73083C16.1223 1.4705 16.3274 1.26351 16.5868 1.15733C16.8399 1.05256 17.1242 1.05256 17.3773 1.15733C17.6337 1.25448 17.8391 1.4524 17.9457 1.705C18.054 1.95737 18.054 2.24313 17.9457 2.4955L16.8142 5.3785L15.0937 9.75983C14.9918 10.0252 15.1234 10.323 15.3882 10.4263C15.4471 10.4508 15.5104 10.463 15.5742 10.4625C15.7859 10.4627 15.9763 10.3337 16.0547 10.137L17.7752 5.7505C17.8755 5.48726 18.0789 5.27638 18.3383 5.16667C18.8577 4.93385 19.4675 5.16486 19.7023 5.68333C19.8071 5.93642 19.8071 6.22075 19.7023 6.47383L15.6207 16.9363C15.3548 17.6334 15.6522 18.4191 16.313 18.7653C16.9027 19.0838 17.6339 18.9555 18.08 18.4553L20.6633 15.5827C21.0432 15.1583 21.6949 15.1213 22.1203 15.5C22.3252 15.6843 22.448 15.9429 22.4613 16.2182C22.4825 16.4902 22.3952 16.7595 22.2185 16.9673L16.8142 22.9503L16.6747 23.1053C15.7479 24.074 14.5596 24.7525 13.2543 25.0583ZM27.9018 29.9667V28.4167C27.9018 28.1313 27.6705 27.9 27.3852 27.9C27.0998 27.9 26.8685 28.1313 26.8685 28.4167V29.9667H25.8352V28.4167C25.8352 28.1313 25.6038 27.9 25.3185 27.9C25.0331 27.9 24.8018 28.1313 24.8018 28.4167V29.9667H23.7685V28.4167C23.7685 28.1313 23.5372 27.9 23.2518 27.9C22.9665 27.9 22.7352 28.1313 22.7352 28.4167V29.9667H21.7018V28.4167C21.7018 28.1313 21.4705 27.9 21.1852 27.9C20.8998 27.9 20.6685 28.1313 20.6685 28.4167V29.9667H19.6352V28.4167C19.6352 28.1313 19.4038 27.9 19.1185 27.9C18.8331 27.9 18.6018 28.1313 18.6018 28.4167V29.9667H17.5685V25.8333H28.9352V29.9667H27.9018ZM29.9685 21.1833C29.9296 22.472 29.5324 23.7244 28.8215 24.8H18.4003C18.2247 24.4383 18.0077 23.9682 17.7803 23.4205L22.947 17.6597C23.3115 17.2487 23.4974 16.7096 23.4637 16.1613C23.4343 15.6139 23.1886 15.1005 22.7807 14.7342C22.3727 14.3679 21.836 14.1788 21.2885 14.2083C20.7408 14.2391 20.2278 14.4863 19.8625 14.8955L17.2792 17.763C17.1489 17.9098 16.934 17.9464 16.7625 17.8508C16.5758 17.7529 16.4864 17.535 16.5507 17.3342L20.6685 6.882C21.0506 5.89787 20.6295 4.78398 19.692 4.29867C19.8406 3.88774 20.2315 3.61467 20.6685 3.61667C21.2392 3.61667 21.7018 4.07931 21.7018 4.65V10.3643C21.7018 10.6497 21.9331 10.881 22.2185 10.881C22.5038 10.881 22.7352 10.6497 22.7352 10.3643V2.06667C22.7352 1.49597 23.1978 1.03333 23.7685 1.03333C24.3392 1.03333 24.8018 1.49597 24.8018 2.06667V9.8735C24.8018 10.1588 25.0331 10.3902 25.3185 10.3902C25.6038 10.3902 25.8352 10.1588 25.8352 9.8735V5.16667C25.8352 4.59597 26.2978 4.13333 26.8685 4.13333C27.4392 4.13333 27.9018 4.59597 27.9018 5.16667V11.1393C27.2662 11.5063 26.8729 12.1828 26.8685 12.9167V17.1223C24.5681 17.4538 22.8308 19.3779 22.7352 21.7C22.7352 21.9853 22.9665 22.2167 23.2518 22.2167C23.5372 22.2167 23.7685 21.9853 23.7685 21.7C23.7685 21.5708 23.8357 18.5328 27.4472 18.0833C27.7081 18.0518 27.9037 17.8295 27.9018 17.5667V12.9167C27.9018 12.346 28.3645 11.8833 28.9352 11.8833C29.5059 11.8833 29.9685 12.346 29.9685 12.9167V21.1833Z" fill="#787882"/>
<path d="M11.4028 12.1209C11.2748 12.0704 11.1318 12.073 11.0057 12.1283C10.8796 12.1836 10.7808 12.287 10.7312 12.4154L7.71383 20.1086C7.663 20.236 7.66494 20.3784 7.71922 20.5044C7.77349 20.6304 7.87565 20.7296 8.00317 20.7802C8.06402 20.8043 8.1289 20.8166 8.19433 20.8164C8.40735 20.8158 8.59815 20.6845 8.67483 20.4857L11.6973 12.7926C11.7479 12.6645 11.7452 12.5215 11.6899 12.3954C11.6346 12.2693 11.5313 12.1705 11.4028 12.1209Z" fill="#787882"/>
<path d="M7.50203 11.7284C7.36494 11.7199 7.23011 11.7664 7.12735 11.8575C7.02459 11.9487 6.96234 12.0769 6.95436 12.2141C6.74515 14.6416 6.34959 17.0495 5.77119 19.4164C5.70261 19.6916 5.86864 19.9706 6.14319 20.0416C6.18589 20.0494 6.22966 20.0494 6.27236 20.0416C6.51555 20.0487 6.73074 19.8851 6.78903 19.6489C7.39331 17.2211 7.80107 14.7486 8.00836 12.2554C8.01113 12.1184 7.95933 11.9858 7.86437 11.887C7.76941 11.7882 7.63906 11.7311 7.50203 11.7284Z" fill="#787882"/>
<path d="M13.8054 14.5597C12.26 16.526 10.8777 18.6151 9.67206 20.8062C9.60554 20.9261 9.5894 21.0675 9.6272 21.1993C9.66499 21.3311 9.75362 21.4425 9.87356 21.5089C9.94973 21.55 10.035 21.5713 10.1216 21.5709C10.3109 21.5714 10.4853 21.4683 10.5762 21.3022C11.7583 19.1712 13.1058 17.1362 14.6062 15.2159C14.7376 15.0755 14.78 14.8737 14.7165 14.6922C14.6529 14.5108 14.4939 14.3796 14.3036 14.3518C14.1134 14.3239 13.9234 14.4041 13.8106 14.5597H13.8054Z" fill="#787882"/>
</g>
<defs>
<clipPath id="clip0">
<rect width="31" height="31" fill="white"/>
</clipPath>
</defs>
</svg>
