<svg width="29" height="29" viewBox="0 0 29 29" fill="none" xmlns="http://www.w3.org/2000/svg">
<path d="M14.5 0C10.2837 0 6.85352 3.43021 6.85352 7.64648C6.85352 11.8628 10.2837 15.293 14.5 15.293C18.7163 15.293 22.1465 11.8628 22.1465 7.64648C22.1465 3.43021 18.7163 0 14.5 0Z" fill="#787882"/>
<path d="M24.0137 20.2884C21.9203 18.1628 19.145 16.9922 16.1992 16.9922H12.8008C9.85502 16.9922 7.07974 18.1628 4.9863 20.2884C2.90312 22.4036 1.75586 25.1956 1.75586 28.1504C1.75586 28.6196 2.13626 29 2.60547 29H26.3945C26.8637 29 27.2441 28.6196 27.2441 28.1504C27.2441 25.1956 26.0969 22.4036 24.0137 20.2884Z" fill="#787882"/>
</svg>
