<svg width="29" height="29" viewBox="0 0 29 29" fill="none" xmlns="http://www.w3.org/2000/svg">
<path d="M14.5 0C10.2837 0 6.85352 3.43021 6.85352 7.64648C6.85352 11.8628 10.2837 15.293 14.5 15.293C18.7163 15.293 22.1465 11.8628 22.1465 7.64648C22.1465 3.43021 18.7163 0 14.5 0ZM14.5 13.5938C11.2207 13.5938 8.55273 10.9258 8.55273 7.64648C8.55273 4.36716 11.2207 1.69922 14.5 1.69922C17.7793 1.69922 20.4473 4.36716 20.4473 7.64648C20.4473 10.9258 17.7793 13.5938 14.5 13.5938Z" fill="#787882"/>
<path d="M24.0137 20.2884C21.9203 18.1628 19.145 16.9922 16.1992 16.9922H12.8008C9.85502 16.9922 7.07974 18.1628 4.9863 20.2884C2.90312 22.4036 1.75586 25.1956 1.75586 28.1504C1.75586 28.6196 2.13626 29 2.60547 29H26.3945C26.8637 29 27.2441 28.6196 27.2441 28.1504C27.2441 25.1956 26.0969 22.4036 24.0137 20.2884ZM3.49246 27.3008C3.91812 22.4815 7.93031 18.6914 12.8008 18.6914H16.1992C21.0697 18.6914 25.0819 22.4815 25.5075 27.3008H3.49246Z" fill="#787882"/>
</svg>
