<svg width="30" height="30" viewBox="0 0 30 30" fill="none" xmlns="http://www.w3.org/2000/svg">
<path d="M25.3711 30C24.7239 30 24.1992 29.4754 24.1992 28.8281C24.1992 24.2403 20.4667 20.5078 15.8789 20.5078H14.1211C9.53326 20.5078 5.80078 24.2403 5.80078 28.8281C5.80078 29.4754 5.27613 30 4.62891 30C3.98168 30 3.45703 29.4754 3.45703 28.8281C3.45703 22.9479 8.24092 18.1641 14.1211 18.1641H15.8789C21.7591 18.1641 26.543 22.9479 26.543 28.8281C26.543 29.4754 26.0183 30 25.3711 30Z" fill="#787882"/>
<path d="M14.8828 15.8203C10.5212 15.8203 6.97266 12.2718 6.97266 7.91016C6.97266 3.5485 10.5212 0 14.8828 0C19.2445 0 22.793 3.5485 22.793 7.91016C22.793 12.2718 19.2445 15.8203 14.8828 15.8203ZM14.8828 2.34375C11.8135 2.34375 9.31641 4.84084 9.31641 7.91016C9.31641 10.9795 11.8135 13.4766 14.8828 13.4766C17.9521 13.4766 20.4492 10.9795 20.4492 7.91016C20.4492 4.84084 17.9521 2.34375 14.8828 2.34375Z" fill="#787882"/>
</svg>
