<svg width="29" height="29" viewBox="0 0 29 29" fill="none" xmlns="http://www.w3.org/2000/svg">
<path d="M7.64029 19.9913C7.82977 20.1808 8.13692 20.1808 8.3264 19.9913L13.4698 14.8436C13.6593 14.6541 13.6593 14.3469 13.4698 14.1574L8.32155 9.00917C8.12906 8.82715 7.82792 8.82715 7.63544 9.00917L2.49153 14.157C2.3021 14.3464 2.3021 14.6536 2.49153 14.8431L7.64029 19.9913ZM7.97995 10.0383L12.4441 14.5024L7.98626 18.9665L3.52118 14.5L7.97995 10.0383Z" fill="#787882"/>
<path d="M14.157 13.4698C14.3464 13.6589 14.6532 13.6589 14.8426 13.4698L19.9913 8.32156C20.1808 8.13207 20.1808 7.82492 19.9913 7.63544L14.8431 2.49153C14.6536 2.30211 14.3464 2.30211 14.157 2.49153L9.00916 7.63496C8.81974 7.82444 8.81974 8.13159 9.00916 8.32107L14.157 13.4698ZM14.5 11.5886C13.4281 11.5886 12.5591 10.7196 12.5591 9.64769C12.5591 8.57575 13.4281 7.70677 14.5 7.70677C15.572 7.70677 16.4409 8.57575 16.4409 9.64769C16.4409 10.7196 15.572 11.5886 14.5 11.5886ZM14.5 3.52119L18.9641 7.97899L17.4075 9.5356C17.3504 7.97222 16.0664 6.73433 14.502 6.73433C12.9375 6.73433 11.6536 7.97222 11.5964 9.5356L10.0403 7.97947L14.5 3.52119Z" fill="#787882"/>
<path d="M14.8431 15.5301C14.6536 15.3407 14.3464 15.3407 14.157 15.5301L9.00916 20.6735C8.81974 20.863 8.81974 21.1702 9.00916 21.3597L12.3087 24.6592C12.3951 24.7582 12.4882 24.8513 12.5872 24.9377L14.156 26.5065C14.3455 26.6959 14.6526 26.6959 14.8421 26.5065L16.4108 24.9377C16.5099 24.8513 16.6029 24.7582 16.6894 24.6592L19.9889 21.3597C20.1783 21.1702 20.1783 20.863 19.9889 20.6735L14.8431 15.5301ZM12.5591 22.7489C12.5538 21.8804 13.1261 21.1141 13.9603 20.8727C14.7945 20.6312 15.6876 20.9733 16.1471 21.7103C16.6065 22.4473 16.5204 23.3998 15.9363 24.0425L15.7936 24.1851C15.0625 24.858 13.9376 24.858 13.2064 24.1851L13.0637 24.0425C12.7404 23.6891 12.5605 23.2278 12.5591 22.7489ZM17.4027 22.5761C17.3137 21.0382 16.0406 19.8365 14.5 19.8365C12.9595 19.8365 11.6863 21.0382 11.5974 22.5761L10.0383 21.0171L14.5 16.5593L18.9641 21.0171L17.4027 22.5761Z" fill="#787882"/>
<path d="M5.92406 21.0166L1.1203 25.8204C0.930875 26.0099 0.930875 26.317 1.1203 26.5065L2.4935 27.8797C2.68598 28.0617 2.98712 28.0617 3.17961 27.8797L7.98337 23.0759L13.4703 28.5673C13.7434 28.8405 14.1138 28.994 14.5 28.994C14.8862 28.994 15.2566 28.8405 15.5297 28.5673L21.0166 23.0759L25.8204 27.8797C26.0129 28.0617 26.314 28.0617 26.5065 27.8797L27.8797 26.5065C28.0691 26.317 28.0691 26.0099 27.8797 25.8204L23.0759 21.0166L28.5673 15.5297C28.8405 15.2567 28.994 14.8862 28.994 14.5C28.994 14.1138 28.8405 13.7434 28.5673 13.4704L23.0759 7.97903L27.8797 3.17817C28.0691 2.98869 28.0691 2.68154 27.8797 2.49206L26.5065 1.11886C26.314 0.936841 26.0129 0.936841 25.8204 1.11886L21.0195 5.92263L15.5297 0.431777C14.9535 -0.118027 14.047 -0.118027 13.4708 0.431777L10.6026 3.29996C10.4542 1.95807 9.32696 0.938405 7.97695 0.924806C6.62693 0.911207 5.4794 1.90796 5.30394 3.24659L3.17815 1.11886C2.98867 0.929437 2.68152 0.929437 2.49204 1.11886L1.11884 2.49206C0.929419 2.68154 0.929419 2.98869 1.11884 3.17817L5.92261 7.97903L0.432245 13.4704C0.159049 13.7434 0.0055542 14.1138 0.0055542 14.5C0.0055542 14.8862 0.159049 15.2567 0.432245 15.5297L5.92406 21.0166ZM6.25111 3.58237C6.25111 2.64442 7.01146 1.88407 7.94941 1.88407C8.88735 1.88407 9.64771 2.64442 9.64771 3.58237C9.65048 3.9479 9.53092 4.30385 9.30805 4.59358L8.95966 4.94198C8.41752 5.34544 7.68713 5.38704 7.10268 5.04776L6.48159 4.42618C6.33084 4.17052 6.25126 3.87917 6.25111 3.58237ZM1.11836 14.1565L6.95323 8.3216C7.14266 8.13212 7.14266 7.82497 6.95323 7.63548L2.14947 2.83463L2.83461 2.14803L7.63547 6.9518C7.82495 7.14122 8.1321 7.14122 8.32158 6.9518L14.1569 1.11789C14.3488 0.934396 14.6512 0.934396 14.8431 1.11789L20.6784 6.95325C20.8707 7.13576 21.1722 7.13576 21.3645 6.95325L26.1654 2.14949L26.852 2.83609L22.0482 7.63694C21.8588 7.82642 21.8588 8.13357 22.0482 8.32305L27.8816 14.1565C27.9728 14.2475 28.0239 14.371 28.0239 14.4998C28.0239 14.6286 27.9728 14.7521 27.8816 14.8431L22.0468 20.6736C21.8573 20.8631 21.8573 21.1702 22.0468 21.3597L26.8505 26.1635L26.1649 26.852L21.3611 22.0482C21.1685 21.8665 20.8676 21.8665 20.675 22.0482L14.8431 27.8817C14.6512 28.0651 14.3488 28.0651 14.1569 27.8817L8.32643 22.0468C8.13695 21.8574 7.8298 21.8574 7.64032 22.0468L2.83655 26.8505L2.14801 26.1649L6.95178 21.3612C7.1412 21.1717 7.1412 20.8645 6.95178 20.675L1.11836 14.8431C1.02724 14.7521 0.976047 14.6286 0.976047 14.4998C0.976047 14.371 1.02724 14.2475 1.11836 14.1565Z" fill="#787882"/>
<path d="M15.5302 14.8431L20.6736 19.9909C20.8631 20.1803 21.1702 20.1803 21.3597 19.9909L26.508 14.8426C26.6974 14.6531 26.6974 14.3459 26.508 14.1565L21.3646 9.00867C21.1751 8.81924 20.8679 8.81924 20.6784 9.00867L15.5302 14.1569C15.3407 14.3464 15.3407 14.6536 15.5302 14.8431ZM21.021 10.0393L25.4788 14.5L21.0171 18.9641L16.5593 14.5L21.021 10.0393Z" fill="#787882"/>
</svg>
