<svg width="30" height="30" viewBox="0 0 30 30" fill="none" xmlns="http://www.w3.org/2000/svg">
<path d="M29.0625 14.5312H28.125V11.8711C28.125 10.0106 27.008 8.35266 25.3125 7.64438V0.9375C25.3125 0.67875 25.103 0.46875 24.8438 0.46875H22.0312C21.772 0.46875 21.5625 0.67875 21.5625 0.9375V7.64438C20.5195 8.08031 19.6987 8.87672 19.2188 9.85734C18.7388 8.87672 17.918 8.08031 16.875 7.64438V0.9375C16.875 0.67875 16.6655 0.46875 16.4062 0.46875H13.5938C13.3345 0.46875 13.125 0.67875 13.125 0.9375V7.64438C12.082 8.08031 11.2613 8.87672 10.7812 9.85734C10.3012 8.87672 9.48047 8.08031 8.4375 7.64438V0.9375C8.4375 0.67875 8.22797 0.46875 7.96875 0.46875H5.15625C4.89703 0.46875 4.6875 0.67875 4.6875 0.9375V7.64438C2.99203 8.35266 1.875 10.0106 1.875 11.8711V14.5312H0.9375C0.678281 14.5312 0.46875 14.7413 0.46875 15V29.0625C0.46875 29.3213 0.678281 29.5312 0.9375 29.5312H29.0625C29.3217 29.5312 29.5312 29.3213 29.5312 29.0625V15C29.5312 14.7413 29.3217 14.5312 29.0625 14.5312ZM19.6875 14.5312V11.8711C19.6875 11.8195 19.6973 11.7698 19.6997 11.7188H27.1753C27.1777 11.7698 27.1875 11.8195 27.1875 11.8711V14.5312H19.6875ZM9.84375 15.4688V28.5938H6.09375V15.4688H9.84375ZM11.25 11.8711C11.25 11.8195 11.2598 11.7698 11.2622 11.7188H18.7378C18.7402 11.7698 18.75 11.8195 18.75 11.8711V14.5312H11.25V11.8711ZM10.7812 15.4688H14.5312V16.4062H12.1875C11.9283 16.4062 11.7188 16.6162 11.7188 16.875V19.6875C11.7188 19.9463 11.9283 20.1562 12.1875 20.1562H14.5312V28.5938H10.7812V15.4688ZM12.6562 19.2188V17.3438H17.3438V19.2188H12.6562ZM15.4688 20.1562H17.8125C18.0717 20.1562 18.2812 19.9463 18.2812 19.6875V16.875C18.2812 16.6162 18.0717 16.4062 17.8125 16.4062H15.4688V15.4688H19.2188V28.5938H15.4688V20.1562ZM20.1562 15.4688H23.9062V28.5938H20.1562V15.4688ZM24.375 6.09375H22.5V3.28125H24.375V6.09375ZM24.375 1.40625V2.34375H22.5V1.40625H24.375ZM22.1794 8.41359C22.3711 8.34937 22.5 8.17078 22.5 7.96875V7.03125H24.375V7.96875C24.375 8.17078 24.5039 8.34937 24.6956 8.41359C25.8281 8.79094 26.6752 9.68484 27.0183 10.7812H19.8567C20.1998 9.68484 21.0469 8.79094 22.1794 8.41359ZM15.9375 6.09375H14.0625V3.28125H15.9375V6.09375ZM15.9375 1.40625V2.34375H14.0625V1.40625H15.9375ZM13.7419 8.41359C13.9336 8.34937 14.0625 8.17078 14.0625 7.96875V7.03125H15.9375V7.96875C15.9375 8.17078 16.0664 8.34937 16.2581 8.41359C17.3906 8.79094 18.2377 9.68484 18.5808 10.7812H11.4192C11.7623 9.68484 12.6094 8.79094 13.7419 8.41359ZM7.5 6.09375H5.625V3.28125H7.5V6.09375ZM7.5 1.40625V2.34375H5.625V1.40625H7.5ZM5.30438 8.41359C5.49609 8.34937 5.625 8.17078 5.625 7.96875V7.03125H7.5V7.96875C7.5 8.17078 7.62891 8.34937 7.82062 8.41359C8.95312 8.79094 9.80016 9.68484 10.1433 10.7812H2.98172C3.32484 9.68484 4.17188 8.79094 5.30438 8.41359ZM2.8125 11.8711C2.8125 11.8195 2.82234 11.7698 2.82469 11.7188H10.3003C10.3027 11.7698 10.3125 11.8195 10.3125 11.8711V14.5312H2.8125V11.8711ZM1.40625 15.4688H5.15625V28.5938H1.40625V15.4688ZM28.5938 28.5938H24.8438V15.4688H28.5938V28.5938Z" fill="#787882"/>
</svg>
