<svg width="29" height="29" viewBox="0 0 29 29" fill="none" xmlns="http://www.w3.org/2000/svg">
<path d="M26.574 8.86359V0H20.6267V8.86359C19.9862 9.28729 19.4525 9.83467 19.0501 10.4632C18.6476 9.83467 18.1142 9.28729 17.4736 8.86359V0H11.5264V8.86359C10.8858 9.28729 10.3524 9.83467 9.94994 10.4632C9.54749 9.83467 9.01382 9.28729 8.3733 8.86359V0H2.42603V8.86359C0.917534 9.86144 0 11.5425 0 13.3652V29H29V13.3652C29 11.5425 28.0825 9.86144 26.574 8.86359ZM24.8747 1.69922V5.94727H22.3259V1.69922H24.8747ZM21.8755 10.0957L22.3259 9.85591V7.64648H24.8747V9.85591L25.3252 10.0957C26.5439 10.7442 27.3008 11.997 27.3008 13.3652V14.2148H19.8997V13.3652C19.8997 11.9972 20.6568 10.7442 21.8755 10.0957ZM10.7996 15.914H18.2004V23.0527H10.7996V15.914ZM9.10033 23.0527H1.69922V15.914H9.10033V23.0527ZM19.8997 15.914H27.3008V23.0527H19.8997V15.914ZM15.7744 1.69922V5.94727H13.2256V1.69922H15.7744ZM12.7751 10.0957L13.2256 9.85591V7.64648H15.7744V9.85591L16.2249 10.0957C17.4435 10.7442 18.2004 11.997 18.2004 13.3652V14.2148H10.7996V13.3652C10.7996 11.9972 11.5565 10.7442 12.7751 10.0957ZM6.67408 1.69922V5.94727H4.12525V1.69922H6.67408ZM3.67478 10.0957L4.12525 9.85591V7.64648H6.67408V9.85591L7.12455 10.0957C8.34321 10.7442 9.10033 11.997 9.10033 13.3652V14.2148H1.69922V13.3652C1.69922 11.9972 2.45612 10.7442 3.67478 10.0957ZM1.69922 27.3008V24.752H9.10033V27.3008H1.69922ZM10.7996 24.752H18.2004V27.3008H10.7996V24.752ZM19.8997 27.3008V24.752H27.3008V27.3008H19.8997Z" fill="#787882"/>
</svg>
