<svg width="21" height="31" viewBox="0 0 21 31" fill="none" xmlns="http://www.w3.org/2000/svg">
<path d="M14.1322 10.3261L12.4375 8.97032V1.45312C12.4375 1.32466 12.3865 1.20146 12.2956 1.11062C12.2048 1.01978 12.0816 0.96875 11.9531 0.96875H9.04688C8.91842 0.96875 8.79521 1.01978 8.70438 1.11062C8.61354 1.20146 8.56251 1.32466 8.56251 1.45312V8.97032L6.86774 10.3261C6.64034 10.5072 6.45682 10.7373 6.33091 10.9993C6.20499 11.2613 6.13995 11.5484 6.14063 11.839V28.3064C6.14167 28.6414 6.25792 28.9657 6.46986 29.225C6.6818 29.4844 6.97652 29.6629 7.30452 29.7306C8.35707 29.9366 9.42751 30.0373 10.5 30.0312C11.5725 30.0373 12.643 29.9366 13.6955 29.7306C14.0235 29.6629 14.3182 29.4844 14.5302 29.225C14.7421 28.9657 14.8583 28.6414 14.8594 28.3064V11.839C14.8601 11.5483 14.795 11.2613 14.6691 10.9993C14.5432 10.7373 14.3596 10.5071 14.1322 10.3261ZM11.4688 7.26562H9.53126V3.875H11.4688V7.26562ZM11.4688 1.9375V2.90625H9.53126V1.9375H11.4688ZM7.47266 11.0826L9.34961 9.58136C9.40631 9.53597 9.45207 9.4784 9.48352 9.41293C9.51496 9.34746 9.53127 9.27575 9.53126 9.20312V8.23437H11.4688V9.20312C11.4687 9.27575 11.4851 9.34746 11.5165 9.41293C11.5479 9.4784 11.5937 9.53597 11.6504 9.58136L13.5273 11.0825C13.641 11.1731 13.7328 11.2882 13.7957 11.4193C13.8586 11.5504 13.8911 11.694 13.8906 11.8393V13.0781H7.10938V11.839C7.109 11.6937 7.14148 11.5502 7.20439 11.4192C7.2673 11.2882 7.35901 11.1731 7.47266 11.0826ZM13.8906 14.0469V24.7031H7.10938V14.0469H13.8906ZM13.502 28.7813C12.5132 28.9744 11.5075 29.0686 10.5 29.0625C9.4925 29.0686 8.48688 28.9744 7.49803 28.7813C7.38858 28.7588 7.29021 28.6993 7.21943 28.6129C7.14866 28.5264 7.1098 28.4182 7.10938 28.3064V25.6719H13.8906V28.3064C13.8902 28.4182 13.8514 28.5264 13.7806 28.6128C13.7098 28.6993 13.6115 28.7588 13.502 28.7813Z" fill="#787882"/>
<path d="M10.0156 20.8281H10.9844V21.7969H10.0156V20.8281Z" fill="#787882"/>
<path d="M8.5625 22.7656H12.4375V23.7344H8.5625V22.7656Z" fill="#787882"/>
<path d="M10.5 19.8594C10.979 19.8594 11.4472 19.7173 11.8455 19.4512C12.2438 19.1851 12.5542 18.8069 12.7375 18.3643C12.9208 17.9218 12.9688 17.4348 12.8753 16.965C12.7819 16.4952 12.5512 16.0637 12.2125 15.725C11.8738 15.3863 11.4423 15.1556 10.9725 15.0622C10.5027 14.9687 10.0157 15.0167 9.57319 15.2C9.13065 15.3833 8.7524 15.6937 8.48628 16.092C8.22017 16.4903 8.07813 16.9585 8.07812 17.4375C8.07885 18.0796 8.33424 18.6952 8.78827 19.1492C9.24231 19.6033 9.8579 19.8587 10.5 19.8594ZM10.5 15.9844C10.7874 15.9844 11.0683 16.0696 11.3073 16.2293C11.5463 16.3889 11.7325 16.6159 11.8425 16.8814C11.9525 17.1469 11.9813 17.4391 11.9252 17.721C11.8691 18.0029 11.7307 18.2618 11.5275 18.465C11.3243 18.6682 11.0654 18.8066 10.7835 18.8627C10.5016 18.9188 10.2094 18.89 9.94391 18.78C9.67839 18.67 9.45144 18.4838 9.29177 18.2448C9.1321 18.0058 9.04688 17.7249 9.04688 17.4375C9.04732 17.0522 9.20056 16.6829 9.47298 16.4105C9.7454 16.1381 10.1147 15.9848 10.5 15.9844Z" fill="#787882"/>
<path d="M10.0156 16.9531H10.9844V17.9219H10.0156V16.9531Z" fill="#787882"/>
<path d="M19.9447 10.3261L18.25 8.97032V1.45312C18.25 1.32466 18.199 1.20146 18.1081 1.11062C18.0173 1.01978 17.8941 0.96875 17.7656 0.96875H14.8594C14.7309 0.96875 14.6077 1.01978 14.5169 1.11062C14.426 1.20146 14.375 1.32466 14.375 1.45312V8.97032L14.0723 9.21251L14.6777 9.96898L15.1621 9.58148C15.2188 9.53607 15.2646 9.47849 15.296 9.413C15.3275 9.3475 15.3438 9.27577 15.3437 9.20312V8.23437H17.2812V9.20312C17.2812 9.27575 17.2975 9.34746 17.329 9.41293C17.3604 9.4784 17.4062 9.53597 17.4629 9.58136L19.3398 11.0825C19.4535 11.1731 19.5453 11.2882 19.6082 11.4193C19.6711 11.5504 19.7036 11.694 19.7031 11.8393V13.0781H15.8281V14.0469H19.7031V24.7031H15.8281V25.6719H19.7031V28.3064C19.7027 28.4182 19.6639 28.5264 19.5931 28.6128C19.5223 28.6993 19.424 28.7588 19.3145 28.7813C18.3257 28.9744 17.32 29.0686 16.3125 29.0625C15.9961 29.0625 15.6791 29.0538 15.3704 29.0368L15.3171 30.0042C15.6435 30.0223 15.9784 30.0312 16.3125 30.0312C17.385 30.0373 18.4555 29.9366 19.508 29.7306C19.836 29.6629 20.1307 29.4844 20.3427 29.225C20.5546 28.9657 20.6708 28.6414 20.6719 28.3064V11.839C20.6726 11.5483 20.6075 11.2613 20.4816 10.9993C20.3557 10.7373 20.1721 10.5071 19.9447 10.3261ZM17.2812 1.9375V2.90625H15.3437V1.9375H17.2812ZM15.3437 7.26562V3.875H17.2812V7.26562H15.3437Z" fill="#787882"/>
<path d="M15.8281 20.8281H16.7969V21.7969H15.8281V20.8281Z" fill="#787882"/>
<path d="M15.8281 22.7656H18.25V23.7344H15.8281V22.7656Z" fill="#787882"/>
<path d="M16.3125 19.8594C16.6561 19.8591 16.9958 19.7857 17.3089 19.6441C17.622 19.5025 17.9014 19.2958 18.1284 19.0379C18.3555 18.78 18.5251 18.4767 18.626 18.1482C18.7268 17.8197 18.7566 17.4735 18.7133 17.1325C18.67 16.7916 18.5547 16.4638 18.375 16.1709C18.1953 15.878 17.9553 15.6267 17.671 15.4337C17.3867 15.2407 17.0645 15.1104 16.726 15.0515C16.3874 14.9926 16.0402 15.0064 15.7074 15.092L15.9489 16.0301C16.1635 15.9749 16.3879 15.9696 16.605 16.0145C16.822 16.0594 17.0259 16.1534 17.201 16.2892C17.3761 16.4251 17.5179 16.5991 17.6154 16.7982C17.7129 16.9972 17.7636 17.2159 17.7636 17.4375C17.7636 17.6591 17.7129 17.8778 17.6154 18.0768C17.5179 18.2759 17.3761 18.4499 17.201 18.5858C17.0259 18.7216 16.822 18.8156 16.605 18.8605C16.3879 18.9054 16.1635 18.9001 15.9489 18.8449L15.7074 19.783C15.9051 19.8338 16.1084 19.8595 16.3125 19.8594Z" fill="#787882"/>
<path d="M15.8281 16.9531H16.7969V17.9219H15.8281V16.9531Z" fill="#787882"/>
<path d="M6.92774 9.21239L6.62501 8.9702V1.45312C6.62501 1.32466 6.57397 1.20146 6.48314 1.11062C6.3923 1.01978 6.26909 0.96875 6.14063 0.96875H3.23438C3.10592 0.96875 2.98271 1.01978 2.89188 1.11062C2.80104 1.20146 2.75001 1.32466 2.75001 1.45312V8.97032L1.05524 10.3261C0.827839 10.5072 0.644321 10.7373 0.518408 10.9993C0.392495 11.2613 0.327447 11.5484 0.32813 11.839V28.3064C0.329169 28.6414 0.445419 28.9657 0.657359 29.225C0.8693 29.4844 1.16402 29.6629 1.49202 29.7306C2.54457 29.9366 3.61501 30.0373 4.68751 30.0312C5.0216 30.0312 5.35649 30.0222 5.6829 30.0042L5.62961 29.0368C5.32083 29.0538 5.00392 29.0625 4.68751 29.0625C3.68 29.0686 2.67438 28.9744 1.68553 28.7813C1.57608 28.7588 1.47771 28.6993 1.40693 28.6129C1.33616 28.5264 1.2973 28.4182 1.29688 28.3064V25.6719H5.17188V24.7031H1.29688V14.0469H5.17188V13.0781H1.29688V11.839C1.2965 11.6937 1.32898 11.5502 1.39189 11.4192C1.4548 11.2882 1.54651 11.1731 1.66016 11.0826L3.53711 9.58136C3.59381 9.53597 3.63957 9.4784 3.67102 9.41293C3.70246 9.34746 3.71877 9.27575 3.71876 9.20312V8.23437H5.65626V9.20312C5.65624 9.27575 5.67255 9.34746 5.70399 9.41293C5.73544 9.4784 5.7812 9.53597 5.8379 9.58136L6.32227 9.96886L6.92774 9.21239ZM5.65626 1.9375V2.90625H3.71876V1.9375H5.65626ZM3.71876 7.26562V3.875H5.65626V7.26562H3.71876Z" fill="#787882"/>
<path d="M4.20312 20.8281H5.17188V21.7969H4.20312V20.8281Z" fill="#787882"/>
<path d="M2.75 22.7656H5.17188V23.7344H2.75V22.7656Z" fill="#787882"/>
<path d="M4.68748 15.0156C4.34384 15.0159 4.00418 15.0893 3.69108 15.2309C3.37799 15.3725 3.09862 15.5792 2.87153 15.8371C2.64445 16.095 2.47485 16.3983 2.37401 16.7268C2.27317 17.0553 2.2434 17.4015 2.28667 17.7425C2.32994 18.0834 2.44526 18.4112 2.62498 18.7041C2.80469 18.997 3.04468 19.2483 3.329 19.4413C3.61331 19.6343 3.93545 19.7646 4.274 19.8235C4.61256 19.8824 4.95977 19.8686 5.29258 19.783L5.05112 18.8449C4.83647 18.9001 4.61204 18.9054 4.39501 18.8605C4.17798 18.8156 3.97411 18.7216 3.79897 18.5858C3.62384 18.4499 3.4821 18.2759 3.38459 18.0768C3.28708 17.8778 3.23638 17.6591 3.23638 17.4375C3.23638 17.2159 3.28708 16.9972 3.38459 16.7982C3.4821 16.5991 3.62384 16.4251 3.79897 16.2892C3.97411 16.1534 4.17798 16.0594 4.39501 16.0145C4.61204 15.9696 4.83647 15.9749 5.05112 16.0301L5.29258 15.092C5.09489 15.0412 4.89159 15.0155 4.68748 15.0156Z" fill="#787882"/>
<path d="M4.20312 16.9531H5.17188V17.9219H4.20312V16.9531Z" fill="#787882"/>
</svg>
