<svg width="30" height="30" viewBox="0 0 30 30" fill="none" xmlns="http://www.w3.org/2000/svg">
<path d="M0.0585938 14.7747H8.83804V13.6861C8.83804 12.0631 7.94014 10.577 6.49475 9.80792L6.02875 9.55981V6.95972H2.86766V9.55981L2.40189 9.80792C0.956497 10.5772 0.0585938 12.0631 0.0585938 13.6861V14.7747Z" fill="#787882"/>
<path d="M21.1331 13.6861V14.7747H29.9123V13.6861C29.9123 12.0631 29.0144 10.577 27.569 9.80792L27.1033 9.55981V6.95972H23.9422V9.55981L23.4762 9.80792C22.0308 10.5772 21.1331 12.0631 21.1331 13.6861Z" fill="#787882"/>
<path d="M23.9421 0H27.103V5.20157H23.9421V0Z" fill="#787882"/>
<path d="M2.86761 0H6.0287V5.20157H2.86761V0Z" fill="#787882"/>
<path d="M0.0585938 27.3633H8.83804V30H0.0585938V27.3633Z" fill="#787882"/>
<path d="M21.1331 16.5325H29.9123V25.6056H21.1331V16.5325Z" fill="#787882"/>
<path d="M21.1331 27.3633H29.9123V30H21.1331V27.3633Z" fill="#787882"/>
<path d="M0.0585938 16.5325H8.83804V25.6056H0.0585938V16.5325Z" fill="#787882"/>
<path d="M10.5958 13.6861V14.7747H19.3753V13.6861C19.3753 12.0631 18.4774 10.577 17.032 9.80792L16.566 9.55981V6.95972H13.4049V9.55981L12.9391 9.80792C11.4935 10.5772 10.5958 12.0631 10.5958 13.6861Z" fill="#787882"/>
<path d="M13.405 0H16.5661V5.20157H13.405V0Z" fill="#787882"/>
<path d="M10.5958 16.5325H19.3753V25.6056H10.5958V16.5325Z" fill="#787882"/>
<path d="M10.5958 27.3633H19.3753V30H10.5958V27.3633Z" fill="#787882"/>
</svg>
