<svg width="33" height="33" viewBox="0 0 33 33" fill="none" xmlns="http://www.w3.org/2000/svg">
<path d="M6.1875 31.9688H22.6875C23.371 31.968 24.0263 31.6961 24.5097 31.2128C24.993 30.7295 25.2649 30.0742 25.2656 29.3906V27.3281H26.8125C27.496 27.3274 28.1513 27.0555 28.6347 26.5722C29.118 26.0888 29.3899 25.4335 29.3906 24.75V8.63741C29.3902 8.28156 29.3163 7.92964 29.1736 7.60366C29.0309 7.27769 28.8224 6.98469 28.5612 6.743L23.1142 1.71496C22.6383 1.27475 22.0137 1.03055 21.3655 1.03125H12.8906C12.2071 1.03202 11.5518 1.30389 11.0685 1.78722C10.5851 2.27054 10.3133 2.92585 10.3125 3.60938V5.67188H6.1875C5.50398 5.67265 4.84867 5.94452 4.36534 6.42784C3.88202 6.91117 3.61015 7.56648 3.60938 8.25V29.3906C3.61015 30.0742 3.88202 30.7295 4.36534 31.2128C4.84867 31.6961 5.50398 31.968 6.1875 31.9688ZM11.3438 3.60938C11.3442 3.19926 11.5073 2.80607 11.7973 2.51608C12.0873 2.22608 12.4805 2.06296 12.8906 2.0625H21.3655C21.463 2.06252 21.5604 2.07173 21.6562 2.09002V5.67188C21.657 6.3554 21.9289 7.01071 22.4122 7.49404C22.8955 7.97736 23.5508 8.24923 24.2344 8.25H25.7812V7.21875H24.2344C23.8243 7.21829 23.4311 7.05517 23.1411 6.76518C22.8511 6.47518 22.688 6.08199 22.6875 5.67188V2.72456L27.8617 7.50076C28.0184 7.64578 28.1435 7.82158 28.2291 8.01716C28.3148 8.21275 28.3591 8.4239 28.3594 8.63741V24.75C28.3589 25.1601 28.1958 25.5533 27.9058 25.8433C27.6158 26.1333 27.2226 26.2964 26.8125 26.2969H25.2656V13.278C25.2652 12.9222 25.1913 12.5703 25.0486 12.2443C24.9059 11.9183 24.6974 11.6253 24.4362 11.3836L18.9892 6.35559C18.5133 5.91538 17.8887 5.67117 17.2405 5.67188H11.3438V3.60938ZM4.64062 8.25C4.64108 7.83989 4.8042 7.4467 5.0942 7.1567C5.3842 6.86671 5.77738 6.70359 6.1875 6.70313H17.2405C17.338 6.70314 17.4354 6.71236 17.5312 6.73064V10.3125C17.532 10.996 17.8039 11.6513 18.2872 12.1347C18.7705 12.618 19.4259 12.8899 20.1094 12.8906H21.6562V11.8594H20.1094C19.6993 11.8589 19.3061 11.6958 19.0161 11.4058C18.7261 11.1158 18.563 10.7226 18.5625 10.3125V7.36519L23.7367 12.1414C23.8934 12.2864 24.0185 12.4622 24.1041 12.6578C24.1898 12.8534 24.2341 13.0645 24.2344 13.278V29.3906C24.2339 29.8007 24.0708 30.1939 23.7808 30.4839C23.4908 30.7739 23.0976 30.937 22.6875 30.9375H6.1875C5.77738 30.937 5.3842 30.7739 5.0942 30.4839C4.8042 30.1939 4.64108 29.8007 4.64062 29.3906V8.25Z" fill="#787882"/>
<path d="M10.3125 10.3125H14.4375V11.3438H10.3125V10.3125Z" fill="#787882"/>
<path d="M7.21875 10.3125H8.76562V11.3438H7.21875V10.3125Z" fill="#787882"/>
<path d="M12.375 13.4062H14.4375V14.4375H12.375V13.4062Z" fill="#787882"/>
<path d="M15.9844 16.5H21.6562V17.5312H15.9844V16.5Z" fill="#787882"/>
<path d="M10.8281 16.5H14.4375V17.5312H10.8281V16.5Z" fill="#787882"/>
<path d="M7.21875 16.5H9.28125V17.5312H7.21875V16.5Z" fill="#787882"/>
<path d="M14.4375 19.5938H21.6562V20.625H14.4375V19.5938Z" fill="#787882"/>
<path d="M7.21875 19.5938H12.8906V20.625H7.21875V19.5938Z" fill="#787882"/>
<path d="M18.5625 22.6875H21.6562V23.7188H18.5625V22.6875Z" fill="#787882"/>
<path d="M10.8281 22.6875H17.0156V23.7188H10.8281V22.6875Z" fill="#787882"/>
<path d="M7.21875 22.6875H9.28125V23.7188H7.21875V22.6875Z" fill="#787882"/>
<path d="M13.4062 25.7812H21.6562V26.8125H13.4062V25.7812Z" fill="#787882"/>
<path d="M7.21875 25.7812H11.8594V26.8125H7.21875V25.7812Z" fill="#787882"/>
<path d="M7.21875 13.4062H10.8281V14.4375H7.21875V13.4062Z" fill="#787882"/>
</svg>
