<svg width="33" height="33" viewBox="0 0 33 33" fill="none" xmlns="http://www.w3.org/2000/svg">
<path d="M6.1875 32.0438H6.18742C5.48403 32.043 4.80968 31.7632 4.31231 31.2658C3.81494 30.7684 3.53517 30.0941 3.53438 29.3907L3.53437 29.3906L3.53437 8.25V8.24992C3.53517 7.54653 3.81494 6.87218 4.31231 6.37481C4.80968 5.87744 5.48403 5.59767 6.18742 5.59688L6.1875 5.59688L10.2375 5.59688V3.60938V3.60929C10.2383 2.90591 10.5181 2.23156 11.0154 1.73419C11.5128 1.23682 12.1872 0.957045 12.8905 0.956252L12.8906 0.956251L21.3654 0.956252L21.3655 0.956252V1.03125C22.0137 1.03055 22.6383 1.27475 23.1142 1.71496L6.1875 32.0438ZM6.1875 32.0438H22.6875H22.6876C23.391 32.043 24.0653 31.7632 24.5627 31.2658C25.0601 30.7684 25.3398 30.0941 25.3406 29.3907V29.3906V27.4031H26.8125H26.8126C27.516 27.4023 28.1903 27.1226 28.6877 26.6252C29.1851 26.1278 29.4648 25.4535 29.4656 24.7501V24.75V8.63741V8.63732C29.4652 8.27115 29.3891 7.90901 29.2423 7.57358C29.0954 7.23815 28.8809 6.93665 28.6121 6.68795L28.6121 6.68789L23.1651 1.65991L6.1875 32.0438ZM25.3406 13.2779V13.278V26.2219H26.8124C27.2027 26.2214 27.5768 26.0662 27.8528 25.7903C28.1287 25.5143 28.2839 25.1402 28.2844 24.7499V8.6375C28.2841 8.43432 28.2419 8.23337 28.1604 8.04724C28.079 7.86114 27.96 7.69386 27.8109 7.55587L25.3406 13.2779ZM25.3406 13.2779C25.3402 12.9118 25.2641 12.5496 25.1173 12.2142C24.9704 11.8788 24.7559 11.5773 24.4871 11.3286L24.4871 11.3285L19.0401 6.30053L25.3406 13.2779ZM12.8906 2.1375L12.8907 2.1375L21.3655 2.1375C21.4538 2.13752 21.5419 2.14545 21.6288 2.1612L22.642 2.78462L27.8108 7.55581L11.7973 2.51608C12.0873 2.22608 12.4805 2.06296 12.8906 2.0625V2.1375ZM12.8906 2.1375C12.5004 2.13796 12.1263 2.29318 11.8504 2.56911C11.5744 2.84506 11.4192 3.21921 11.4187 3.60946M12.8906 2.1375L11.4187 3.60946M11.4187 3.60946V5.59688H17.2404H17.2405V5.67188L11.4187 3.60946ZM5.14723 7.20974C4.8713 7.48567 4.71608 7.85978 4.71563 8.25C4.71563 8.25003 4.71562 8.25006 4.71562 8.25009M5.14723 7.20974L4.64062 8.25L4.71562 8.25009M5.14723 7.20974C5.42318 6.93378 5.79733 6.77856 6.18758 6.77813H17.2405C17.3288 6.77814 17.4169 6.78608 17.5038 6.80183L18.517 7.42524L23.6858 12.1964C23.8349 12.3344 23.954 12.5017 24.0354 12.6879C24.1169 12.874 24.1591 13.0749 24.1594 13.2781V29.3905C24.1589 29.7808 24.0037 30.1549 23.7278 30.4309C23.4518 30.7068 23.0777 30.8621 22.6874 30.8625H6.18758C5.79733 30.8621 5.42318 30.7068 5.14723 30.4309C4.8713 30.155 4.71608 29.7809 4.71563 29.3906M5.14723 7.20974L4.71563 29.3906M4.71562 8.25009V29.3905M4.71562 8.25009V29.3905M4.71562 29.3905L4.71563 29.3906M4.71562 29.3905L4.71563 29.3906" fill="#787882" stroke="#787882" stroke-width="0.15"/>
<path d="M10.3125 10.3125H14.4375V11.3438H10.3125V10.3125Z" fill="#787882"/>
<path d="M7.21875 10.3125H8.76562V11.3438H7.21875V10.3125Z" fill="#787882"/>
<path d="M12.375 13.4062H14.4375V14.4375H12.375V13.4062Z" fill="#787882"/>
<path d="M15.9844 16.5H21.6562V17.5312H15.9844V16.5Z" fill="#787882"/>
<path d="M10.8281 16.5H14.4375V17.5312H10.8281V16.5Z" fill="#787882"/>
<path d="M7.21875 16.5H9.28125V17.5312H7.21875V16.5Z" fill="#787882"/>
<path d="M14.4375 19.5938H21.6562V20.625H14.4375V19.5938Z" fill="#787882"/>
<path d="M7.21875 19.5938H12.8906V20.625H7.21875V19.5938Z" fill="#787882"/>
<path d="M18.5625 22.6875H21.6562V23.7188H18.5625V22.6875Z" fill="#787882"/>
<path d="M10.8281 22.6875H17.0156V23.7188H10.8281V22.6875Z" fill="#787882"/>
<path d="M7.21875 22.6875H9.28125V23.7188H7.21875V22.6875Z" fill="#787882"/>
<path d="M13.4062 25.7812H21.6562V26.8125H13.4062V25.7812Z" fill="#787882"/>
<path d="M7.21875 25.7812H11.8594V26.8125H7.21875V25.7812Z" fill="#787882"/>
<path d="M7.21875 13.4062H10.8281V14.4375H7.21875V13.4062Z" fill="#787882"/>
</svg>
