<svg width="31" height="31" viewBox="0 0 31 31" fill="none" xmlns="http://www.w3.org/2000/svg">
<g clip-path="url(#clip0)">
<path d="M21.2152 11.1506C21.4686 11.2715 21.7721 11.1643 21.8932 10.911C22.3842 9.88699 22.6377 8.76534 22.6348 7.62971C22.6348 3.41594 19.2189 0 15.0051 0C10.7914 0 7.37542 3.41594 7.37542 7.62971C7.3722 9.31991 7.93581 10.9624 8.97614 12.2945C5.76148 11.8218 2.60106 13.4411 1.10688 16.3264C-0.387296 19.2117 0.114 22.7272 2.35508 25.0799C1.98618 25.2599 1.70441 25.5798 1.57227 25.9685L0.504114 29.1826C0.404635 29.4937 0.459017 29.8336 0.650604 30.0982C0.839699 30.3626 1.14496 30.5193 1.47003 30.5188H14.2981C14.579 30.5188 14.8068 30.2911 14.8068 30.0102C14.8068 29.7293 14.579 29.5015 14.2981 29.5015H1.46953L2.53768 26.2971C2.60593 26.0869 2.80051 25.9437 3.02141 25.941H3.31744C4.30195 26.6816 5.45245 27.1705 6.66891 27.3652C6.95451 27.7517 7.40687 27.9792 7.88739 27.9782C8.36792 27.9772 8.81932 27.7478 9.1033 27.3601C10.0289 27.2136 10.9197 26.8979 11.731 26.4288C11.9668 26.2844 12.044 25.9781 11.9049 25.7391C11.7658 25.5001 11.4613 25.4161 11.2193 25.5499C10.6548 25.8767 10.0451 26.1184 9.41001 26.267V25.2162C9.99693 25.0509 10.5522 24.7889 11.0529 24.441C11.2088 24.3401 11.2974 24.1623 11.2839 23.9772C11.2705 23.792 11.1572 23.6288 10.9884 23.5515C10.8196 23.4742 10.6221 23.495 10.4731 23.6058C10.1442 23.8328 9.78675 24.0153 9.41001 24.1485V23.9064C9.40833 23.7327 9.37666 23.5607 9.31642 23.3978H10.5372C10.8181 23.3978 11.0458 23.17 11.0458 22.8891C11.0458 22.6082 10.8181 22.3805 10.5372 22.3805H4.08957C3.87536 22.0644 3.7019 21.7226 3.57329 21.3632H10.4426C10.7235 21.3632 10.9512 21.1354 10.9512 20.8545C10.9512 20.5736 10.7235 20.3459 10.4426 20.3459H3.33677C3.31726 20.177 3.30707 20.0072 3.30625 19.8372C3.30706 19.6673 3.31708 19.4975 3.33626 19.3286H10.7325C11.0134 19.3286 11.2411 19.1009 11.2411 18.8199C11.2411 18.539 11.0134 18.3113 10.7325 18.3113H3.57329C3.70208 17.9518 3.87571 17.61 4.09007 17.294H11.4548C11.725 17.2919 11.9464 17.0787 11.9588 16.8088C11.9649 16.8037 11.9726 16.8021 11.9782 16.7971C12.0785 16.7068 12.1389 16.5803 12.1459 16.4455C12.153 16.3107 12.1062 16.1786 12.0158 16.0783C10.5984 14.5234 8.42841 13.895 6.39944 14.4521C4.37046 15.0092 2.82555 16.6575 2.40086 18.7182C2.32628 19.0865 2.2888 19.4614 2.28896 19.8372C2.28932 20.213 2.3268 20.5878 2.40086 20.9563C2.82457 23.0022 4.34909 24.6437 6.35813 25.2172V26.2655C3.37804 25.5601 1.27298 22.8997 1.27166 19.8372C1.27303 17.6226 2.38231 15.5555 4.22701 14.3301C6.0717 13.1046 8.40717 12.8834 10.4492 13.7406C10.4645 13.7492 10.4803 13.757 10.4965 13.764C10.9907 13.9754 11.4565 14.2477 11.8831 14.5748C11.9081 14.5941 11.9348 14.6111 11.9629 14.6256H11.967H11.97C11.9932 14.6364 12.0172 14.6454 12.0418 14.6526C12.055 14.6567 12.0672 14.6633 12.0809 14.6668C12.1207 14.6767 12.1615 14.6819 12.2025 14.6821C12.4834 14.6821 12.7111 14.4544 12.7111 14.1735C12.7108 14.1266 12.7041 14.0801 12.6913 14.0351C12.6872 14.0203 12.6796 14.0076 12.6745 13.9939C12.6641 13.9655 12.6516 13.9379 12.6369 13.9115C12.6273 13.8972 12.6169 13.8835 12.6058 13.8703C12.5901 13.8477 12.5722 13.8268 12.5524 13.8077C12.5394 13.7957 12.5256 13.7845 12.5112 13.7742C12.4992 13.7628 12.4865 13.7523 12.4731 13.7426C12.0095 13.3921 11.5068 13.0967 10.9751 12.8622C9.34243 11.6186 8.38664 9.68202 8.39272 7.62971C8.39272 3.97777 11.3532 1.01729 15.0051 1.01729C18.6571 1.01729 21.6175 3.97777 21.6175 7.62971C21.6199 8.61351 21.4005 9.58521 20.9756 10.4725C20.8546 10.7259 20.9619 11.0294 21.2152 11.1506ZM8.39272 23.9064V26.4496C8.39272 26.7306 8.16499 26.9583 7.88407 26.9583C7.60315 26.9583 7.37542 26.7306 7.37542 26.4496V23.9064C7.37542 23.6255 7.60315 23.3978 7.88407 23.3978C8.16499 23.3978 8.39272 23.6255 8.39272 23.9064ZM10.7416 16.2767H5.01886C6.68537 14.9204 9.07514 14.9204 10.7416 16.2767ZM5.01683 23.3978H6.45172C6.39148 23.5607 6.35982 23.7327 6.35813 23.9064V24.1485C5.8718 23.9759 5.41827 23.722 5.01683 23.3978Z" fill="#787882"/>
<path d="M18.5565 11.3032C18.6592 11.3906 18.7926 11.4337 18.9271 11.4228C19.0616 11.4119 19.1863 11.348 19.2737 11.2452C21.1828 9.02538 21.0639 5.71072 19.0006 3.63338C16.9374 1.55603 13.6236 1.41454 11.3908 3.30846C9.15806 5.20238 8.75706 8.49484 10.47 10.8693C10.5007 10.9433 10.5487 11.0089 10.6099 11.0606C11.6269 12.3683 13.1705 13.1588 14.8261 13.2198H14.8428C15.1238 13.2241 15.355 12.9999 15.3594 12.719C15.3637 12.4381 15.1395 12.2068 14.8586 12.2025C13.8718 12.1681 12.9232 11.8127 12.1567 11.1903H18.4675C18.4916 11.2319 18.5216 11.27 18.5565 11.3032ZM11.2014 5.0865H18.8088C19.0199 5.40314 19.1908 5.74488 19.3174 6.1038H10.6943C10.8204 5.74495 10.9908 5.40322 11.2014 5.0865ZM19.5529 7.12109C19.5724 7.28995 19.5824 7.45976 19.5829 7.62974C19.582 7.79976 19.5713 7.96959 19.5509 8.13839H10.4588C10.4385 7.96959 10.428 7.79975 10.4273 7.62974C10.4278 7.45976 10.4378 7.28995 10.4573 7.12109H19.5529ZM10.7024 9.15568H19.3189C19.1914 9.51487 19.0193 9.85664 18.8067 10.173H11.2162C11.0027 9.8566 10.8295 9.51487 10.7004 9.15568H10.7024ZM17.8759 4.06921H12.1343C13.8079 2.71288 16.2023 2.71288 17.8759 4.06921Z" fill="#787882"/>
<path d="M29.0382 16.7853C29.0258 16.7693 29.0124 16.7542 28.998 16.7401C28.2045 15.3916 27.0805 14.2675 25.7319 13.474C25.7178 13.4596 25.7027 13.4462 25.6867 13.4339C25.6719 13.4257 25.6562 13.4252 25.6409 13.4186C23.9038 12.4059 21.875 12.0115 19.885 12.2996C19.8703 12.2996 19.8566 12.3047 19.8418 12.3062C18.6924 12.4652 17.584 12.8429 16.5768 13.4191C16.5615 13.4257 16.5458 13.4262 16.531 13.4344C16.515 13.4467 16.4999 13.4601 16.4858 13.4746C15.1372 14.268 14.0132 15.3921 13.2197 16.7406C13.2053 16.7547 13.1919 16.7698 13.1796 16.7858C13.1737 16.8007 13.1686 16.8158 13.1643 16.8311C12.8394 17.3948 12.5758 17.9916 12.3779 18.6114C12.3723 18.6231 12.3693 18.6358 12.3647 18.648C11.6112 21.0704 11.9009 23.6973 13.1643 25.8972C13.1686 25.9126 13.1737 25.9277 13.1796 25.9425C13.1966 25.9691 13.216 25.9942 13.2375 26.0173C14.03 27.3528 15.1474 28.4662 16.4858 29.2538C16.4999 29.2683 16.515 29.2817 16.531 29.294C16.5515 29.304 16.5725 29.3127 16.5941 29.3199C19.3911 30.9205 22.8266 30.9205 25.6236 29.3199C25.6452 29.3122 25.6663 29.303 25.6867 29.2925C25.7027 29.2802 25.7178 29.2667 25.7319 29.2523C27.0703 28.4647 28.1877 27.3513 28.9802 26.0158C29.0017 25.9926 29.0211 25.9676 29.0382 25.941C29.044 25.9262 29.0491 25.9111 29.0534 25.8957C30.6682 23.0898 30.6682 19.6366 29.0534 16.8306C29.0491 16.8153 29.044 16.8002 29.0382 16.7853ZM25.6083 28.1388L25.1099 27.2741C25.0197 27.1155 24.8513 27.0173 24.6688 27.0169C24.4863 27.0165 24.3175 27.1139 24.2266 27.2722C24.1357 27.4305 24.1366 27.6253 24.2289 27.7828L24.7248 28.6414C23.7555 29.1251 22.6987 29.4088 21.6175 29.4756V28.4842C21.6175 28.2033 21.3898 27.9756 21.1089 27.9756C20.8279 27.9756 20.6002 28.2033 20.6002 28.4842V29.4756C19.5191 29.4094 18.4623 29.1264 17.4929 28.6434L17.9888 27.7848C18.0811 27.6274 18.082 27.4325 17.9911 27.2742C17.9002 27.116 17.7314 27.0185 17.5489 27.0189C17.3664 27.0193 17.198 27.1175 17.1078 27.2762L16.6094 28.1409C15.708 27.5396 14.9344 26.766 14.3332 25.8647L15.1979 25.3662C15.3565 25.276 15.4547 25.1077 15.4551 24.9252C15.4555 24.7426 15.3581 24.5739 15.1998 24.483C15.0415 24.3921 14.8467 24.3929 14.6892 24.4852L13.8306 24.9812C13.3466 24.0112 13.0629 22.9538 12.9964 21.8718H13.9878C14.2687 21.8718 14.4964 21.6441 14.4964 21.3632C14.4964 21.0822 14.2687 20.8545 13.9878 20.8545H12.9964C13.0325 20.2375 13.1392 19.6267 13.3143 19.0341C13.3257 19.003 13.3342 18.971 13.3398 18.9384C13.4707 18.5289 13.6341 18.1306 13.8286 17.7472L14.6872 18.2431C14.8446 18.3354 15.0395 18.3363 15.1978 18.2454C15.356 18.1545 15.4535 17.9857 15.4531 17.8032C15.4527 17.6207 15.3545 17.4524 15.1958 17.3621L14.3311 16.8637C14.9324 15.9623 15.706 15.1887 16.6073 14.5875L17.1058 15.4522C17.196 15.6108 17.3643 15.709 17.5469 15.7094C17.7294 15.7098 17.8981 15.6124 17.989 15.4541C18.0799 15.2958 18.0791 15.101 17.9868 14.9435L17.4908 14.0849C18.4608 13.6009 19.5183 13.3172 20.6002 13.2507V14.2421C20.6002 14.523 20.8279 14.7507 21.1089 14.7507C21.3898 14.7507 21.6175 14.523 21.6175 14.2421V13.2507C22.6986 13.3169 23.7554 13.5999 24.7248 14.0829L24.2289 14.9415C24.1366 15.099 24.1357 15.2938 24.2266 15.4521C24.3175 15.6104 24.4863 15.7078 24.6688 15.7074C24.8513 15.707 25.0197 15.6088 25.1099 15.4501L25.6083 14.5854C26.5097 15.1867 27.2833 15.9603 27.8845 16.8616L27.0198 17.3601C26.8612 17.4503 26.763 17.6186 26.7626 17.8012C26.7622 17.9837 26.8596 18.1524 27.0179 18.2433C27.1762 18.3343 27.371 18.3334 27.5285 18.2411L28.3871 17.7452C28.8711 18.7151 29.1548 19.7726 29.2213 20.8545H28.2299C27.949 20.8545 27.7213 21.0822 27.7213 21.3632C27.7213 21.6441 27.949 21.8718 28.2299 21.8718H29.2213C29.1551 22.9529 28.8721 24.0097 28.3891 24.9791L27.5305 24.4832C27.3731 24.3909 27.1782 24.39 27.0199 24.4809C26.8617 24.5718 26.7642 24.7406 26.7646 24.9231C26.765 25.1056 26.8632 25.274 27.0219 25.3642L27.8866 25.8627C27.2847 26.7642 26.5104 27.5378 25.6083 28.1388Z" fill="#787882"/>
<path d="M23.6521 20.8546H21.6175V16.7854C21.6175 16.5045 21.3898 16.2767 21.1089 16.2767C20.8279 16.2767 20.6002 16.5045 20.6002 16.7854V21.3632C20.6002 21.6441 20.8279 21.8719 21.1089 21.8719H23.6521C23.933 21.8719 24.1607 21.6441 24.1607 21.3632C24.1607 21.0823 23.933 20.8546 23.6521 20.8546Z" fill="#787882"/>
</g>
<defs>
<clipPath id="clip0">
<rect width="30.5188" height="30.5188" fill="white"/>
</clipPath>
</defs>
</svg>
