<svg width="33" height="32" viewBox="0 0 33 32" fill="none" xmlns="http://www.w3.org/2000/svg">
<path d="M27.2939 15.8013C27.4629 14.9648 27.5535 14.1105 27.5535 13.2536C27.5535 5.94526 21.3736 0 13.7768 0C6.17994 0 0 5.94526 0 13.2536C0 17.9846 2.59162 22.1417 6.47879 24.4875L5.12601 25.4173C3.90677 26.2543 3.17925 27.6149 3.17925 29.056C3.17925 29.3378 3.41611 29.5657 3.70913 29.5657H18.7857C20.2794 30.8304 22.2325 31.6047 24.3743 31.6047C29.0488 31.6047 32.8523 27.9457 32.8523 23.4487C32.8523 19.9395 30.5319 16.9498 27.2939 15.8013ZM1.05975 13.2536C1.05975 6.50802 6.76492 1.01951 13.7768 1.01951C20.7886 1.01951 26.4938 6.50802 26.4938 13.2536C26.4938 14.0106 26.4175 14.766 26.2744 15.5067C25.9332 15.4313 25.5872 15.3691 25.2316 15.3344C25.3651 14.6513 25.434 13.9545 25.434 13.2536C25.434 7.06977 20.2047 2.03901 13.7768 2.03901C7.34884 2.03901 2.1195 7.06977 2.1195 13.2536C2.1195 19.4374 7.34884 24.4682 13.7768 24.4682C14.5053 24.4682 15.2297 24.4014 15.9397 24.2734C15.9757 24.6155 16.0404 24.9484 16.1188 25.2766C15.3494 25.4143 14.5642 25.4877 13.7768 25.4877C6.76492 25.4877 1.05975 19.9992 1.05975 13.2536ZM15.9074 23.2381C15.2101 23.3753 14.4958 23.4487 13.7768 23.4487C10.5631 23.4487 7.68478 22.0606 5.73961 19.8804H10.0676V20.3901C10.0676 20.672 10.3045 20.8999 10.5975 20.8999H12.1871V22.4292C12.1871 22.711 12.424 22.9389 12.717 22.9389H14.8365C15.1295 22.9389 15.3664 22.711 15.3664 22.4292V20.8999H16.326C16.0727 21.639 15.9291 22.4235 15.9074 23.2381ZM14.3066 16.8219V17.8414H13.2469V16.8219H14.3066ZM16.4261 18.8609V19.8804H11.1274V18.8609H16.4261ZM13.2469 20.8999H14.3066V21.9194H13.2469V20.8999ZM16.956 17.8414H15.3664V16.8219H16.4261V15.8024H11.1274V16.8219H12.1871V17.8414H10.5975C10.3045 17.8414 10.0676 18.0692 10.0676 18.3511V18.8609H4.93526C3.92002 17.3846 3.30324 15.6392 3.20628 13.7633H24.3589C24.3324 14.2828 24.2635 14.7976 24.156 15.3033C21.408 15.3711 18.9854 16.6995 17.4859 18.712V18.3511C17.4859 18.0692 17.249 17.8414 16.956 17.8414ZM4.93526 7.6463H22.6183C23.6335 9.12255 24.2503 10.8679 24.3472 12.7438H3.20628C3.30324 10.8679 3.92002 9.12255 4.93526 7.6463ZM5.73961 6.6268C7.68478 4.44658 10.5631 3.05852 13.7768 3.05852C16.9905 3.05852 19.8687 4.44658 21.8139 6.6268H5.73961ZM5.74173 26.2462L7.4935 25.0427C9.37932 25.9765 11.5142 26.5072 13.7768 26.5072C14.668 26.5072 15.5556 26.42 16.4251 26.2574C16.7451 27.0924 17.1971 27.8647 17.7667 28.5462H4.27821C4.42181 27.6286 4.94586 26.7932 5.74173 26.2462ZM24.3743 30.5852C20.2836 30.5852 16.956 27.384 16.956 23.4487C16.956 19.5134 20.2836 16.3121 24.3743 16.3121C28.4649 16.3121 31.7925 19.5134 31.7925 23.4487C31.7925 27.384 28.4649 30.5852 24.3743 30.5852Z" fill="#787882"/>
<path d="M24.3742 17.3317C20.8681 17.3317 18.0157 20.0757 18.0157 23.4487C18.0157 26.8217 20.8681 29.5657 24.3742 29.5657C27.8804 29.5657 30.7328 26.8217 30.7328 23.4487C30.7328 20.0757 27.8804 17.3317 24.3742 17.3317ZM24.9041 28.5202V27.5267H23.8444V28.5202C21.345 28.2801 19.3516 26.363 19.1025 23.9585H20.1352V22.939H19.1025C19.3521 20.5344 21.345 18.6168 23.8444 18.3772V19.3707H24.9041V18.3772C27.4035 18.6173 29.3969 20.5344 29.646 22.939H28.6133V23.9585H29.646C29.3969 26.363 27.4035 28.2807 24.9041 28.5202Z" fill="#787882"/>
<path d="M24.9041 20.3901H23.8444V23.4487C23.8444 23.5843 23.9 23.7137 23.9996 23.8091L26.1191 25.8481L26.8684 25.1273L24.9041 23.2376V20.3901Z" fill="#787882"/>
</svg>
