<svg width="35" height="32" viewBox="0 0 35 32" fill="none" xmlns="http://www.w3.org/2000/svg">
<path d="M31.9565 7.60869H27.1325L24.3478 4.56519H13.6956V9.1304H9.1304V13.6956H4.56519V28.913C4.56519 30.5869 5.93475 31.9565 7.60869 31.9565H31.9565C33.6304 31.9565 35 30.5869 35 28.913V10.6521C35 8.97825 33.6304 7.60869 31.9565 7.60869ZM19.7825 27.3913C15.5825 27.3913 12.1738 23.9825 12.1738 19.7825C12.1738 15.5825 15.5825 12.1739 19.7825 12.1739C23.9825 12.1739 27.3913 15.5826 27.3913 19.7826C27.3913 23.9826 23.9825 27.3913 19.7825 27.3913Z" fill="#787882"/>
<path d="M4.56521 12.1739H7.60871V7.60871H12.1739V4.56521H7.60871V0H4.56521V4.56521H0V7.60871H4.56521V12.1739Z" fill="#787882"/>
<path d="M19.7826 14.913C17.0891 14.913 14.913 17.0891 14.913 19.7826C14.913 22.4761 17.0891 24.6522 19.7826 24.6522C22.476 24.6522 24.6521 22.4761 24.6521 19.7826C24.6521 17.0891 22.476 14.913 19.7826 14.913Z" fill="#787882"/>
</svg>
