<svg width="35" height="35" viewBox="0 0 35 35" fill="none" xmlns="http://www.w3.org/2000/svg">
<g clip-path="url(#clip0)">
<path d="M10.625 15.625C10.6223 12.9318 12.1927 10.4849 14.6423 9.36554C17.092 8.24585 19.9695 8.65997 22.0044 10.4245C24.039 12.189 24.856 14.9792 24.0942 17.5626C24.1638 17.5333 24.2374 17.5125 24.3076 17.485C24.4794 17.4176 24.6524 17.352 24.8288 17.2974C24.9487 17.2595 25.0699 17.2263 25.192 17.193C25.2911 17.1661 25.387 17.1307 25.4874 17.1082C25.5792 16.619 25.6253 16.1224 25.625 15.625C25.625 11.1377 21.9873 7.5 17.5 7.5C13.0127 7.5 9.375 11.1377 9.375 15.625C9.375 20.1123 13.0127 23.75 17.5 23.75C17.998 23.7506 18.4949 23.7045 18.9844 23.6124C19.0082 23.5126 19.0417 23.4167 19.0686 23.3188C19.1025 23.1937 19.1364 23.0688 19.1751 22.9486C19.2307 22.7762 19.295 22.6068 19.3625 22.4387C19.3912 22.3663 19.4125 22.2913 19.4424 22.2192C17.3636 22.8317 15.1178 22.428 13.3826 21.1301C11.647 19.8322 10.6253 17.7921 10.625 15.625Z" fill="#787882"/>
<path d="M27.5 18.125C27.041 18.1232 26.5829 18.165 26.1319 18.2501C25.0311 18.4515 23.9902 18.9001 23.0881 19.5624C23.0697 19.5767 23.0502 19.5895 23.0301 19.6005C22.7334 19.8196 22.4536 20.0604 22.193 20.3213C22.1405 20.3738 22.0987 20.4364 22.048 20.4901C21.8435 20.7016 21.6519 20.925 21.4737 21.1594C21.4639 21.1768 21.4532 21.1935 21.4413 21.2094C20.7779 22.11 20.3277 23.1497 20.1251 24.2499C20.0393 24.7034 19.9975 25.1636 20 25.625C20 29.7671 23.3578 33.125 27.5 33.125C31.6421 33.125 35 29.7671 35 25.625C35 21.4828 31.6421 18.125 27.5 18.125ZM33.125 25.625C33.125 25.9702 32.8451 26.25 32.5 26.25H28.125V30.625C28.125 30.9701 27.8451 31.25 27.5 31.25C27.1548 31.25 26.875 30.9701 26.875 30.625V26.25H22.5C22.1548 26.25 21.875 25.9702 21.875 25.625C21.875 25.2798 22.1548 25 22.5 25H26.875V20.625C26.875 20.2798 27.1548 20 27.5 20C27.8451 20 28.125 20.2798 28.125 20.625V25H32.5C32.8451 25 33.125 25.2798 33.125 25.625Z" fill="#787882"/>
<path d="M29.3749 4.375H31.8749V5H29.3749V4.375Z" fill="#787882"/>
<path d="M3.12494 3.75H6.87494V5H3.12494V3.75Z" fill="#787882"/>
<path d="M20.5426 20.3293C21.0174 19.7018 21.5768 19.1424 22.2043 18.6676C22.2244 18.6526 22.2412 18.6331 22.2619 18.6182C23.7857 16.1941 23.2455 13.0124 21.0071 11.2271C18.7689 9.44182 15.5466 9.62249 13.522 11.647C11.4975 13.6716 11.3168 16.8939 13.1021 19.1321C14.8874 21.3705 18.0691 21.9107 20.4932 20.3869C20.5081 20.3662 20.5276 20.3494 20.5426 20.3293Z" fill="#787882"/>
<path d="M33.125 6.25H26.25C26.0263 6.25031 25.8194 6.13129 25.7074 5.9375L23.9264 2.82501C23.5941 2.23938 22.9733 1.87683 22.3001 1.875H12.6999C12.0279 1.87622 11.4078 2.23724 11.0751 2.82135L9.2926 5.9375C9.1806 6.13129 8.97369 6.25031 8.75 6.25H1.875C0.839539 6.25 0 7.08954 0 8.125V25.625C0 26.6605 0.839539 27.5 1.875 27.5H18.952C18.942 27.453 18.938 27.4051 18.9288 27.3581C18.887 27.1436 18.8519 26.9278 18.8232 26.7105C18.8138 26.6312 18.8031 26.5518 18.7958 26.4719C18.768 26.1911 18.75 25.9094 18.75 25.625C18.75 25.3793 18.7637 25.1395 18.7833 24.9017C18.3582 24.9646 17.9294 24.9973 17.5 25C12.3224 25 8.125 20.8026 8.125 15.625C8.125 10.4474 12.3224 6.25 17.5 6.25C22.6776 6.25 26.875 10.4474 26.875 15.625C26.8723 16.0544 26.8396 16.4828 26.7776 16.9073C27.0145 16.8887 27.2543 16.875 27.5 16.875C27.7682 16.875 28.0325 16.8912 28.295 16.915L28.4869 16.9345C28.7457 16.9638 29.0012 17.0007 29.2526 17.052L29.2969 17.0624C29.5361 17.1124 29.7705 17.175 30.0018 17.2443C30.0644 17.262 30.1218 17.28 30.1819 17.2995C30.4211 17.377 30.6567 17.4612 30.8868 17.558C30.9106 17.5681 30.9338 17.58 30.9583 17.5906C31.1682 17.6813 31.373 17.778 31.5744 17.8876C31.6293 17.9169 31.6837 17.9456 31.7374 17.9758C31.9531 18.0951 32.1637 18.2217 32.3676 18.3588C32.3962 18.3774 32.4231 18.3987 32.4518 18.4213C32.6324 18.5461 32.8076 18.6774 32.9776 18.8144C33.0249 18.8525 33.0725 18.8907 33.1195 18.9294C33.3069 19.0869 33.4875 19.2499 33.6606 19.422C33.6893 19.4501 33.7161 19.4806 33.7445 19.5093C33.8943 19.6625 34.0387 19.8218 34.1776 19.9857C34.2157 20.0305 34.2538 20.0751 34.2914 20.1205C34.4455 20.3082 34.5926 20.5057 34.7287 20.7086C34.7531 20.7443 34.7757 20.7819 34.7995 20.8182C34.8663 20.9195 34.9344 21.0199 34.9976 21.1243V8.125C34.9976 7.09045 34.1595 6.25153 33.125 6.25ZM5.625 23.75C5.625 24.0952 5.34515 24.375 5 24.375C4.65485 24.375 4.375 24.0952 4.375 23.75V8.75C4.375 8.40485 4.65485 8.125 5 8.125C5.34515 8.125 5.625 8.40485 5.625 8.75V23.75ZM30 11.25C28.9645 11.25 28.125 10.4105 28.125 9.375C28.125 8.33954 28.9645 7.5 30 7.5C31.0355 7.5 31.875 8.33954 31.875 9.375C31.875 10.4105 31.0355 11.25 30 11.25Z" fill="#787882"/>
<path d="M30.6249 9.375C30.6249 9.72015 30.3451 10 29.9999 10C29.6548 10 29.3749 9.72015 29.3749 9.375C29.3749 9.02985 29.6548 8.75 29.9999 8.75C30.3451 8.75 30.6249 9.02985 30.6249 9.375Z" fill="#787882"/>
</g>
<defs>
<clipPath id="clip0">
<rect width="35" height="35" fill="white"/>
</clipPath>
</defs>
</svg>
