<svg width="34" height="34" viewBox="0 0 34 34" fill="none" xmlns="http://www.w3.org/2000/svg">
<g clip-path="url(#clip0)">
<path d="M31.1667 5.66582V4.53249C31.1667 4.21955 30.9129 3.96582 30.6 3.96582H27.2C26.8871 3.96582 26.6333 4.21955 26.6333 4.53249V5.66582H25.262L23.8113 3.13056C23.308 2.24649 22.3693 1.70015 21.352 1.69916H12.648C11.6315 1.70022 10.6934 2.24585 10.1898 3.12886L8.738 5.66582H8.5V3.96582C8.5 3.65288 8.24627 3.39916 7.93333 3.39916H3.4C3.08706 3.39916 2.83333 3.65288 2.83333 3.96582V5.66582C1.26933 5.66767 0.00184167 6.93516 0 8.49916V24.3658C0.00184167 25.9298 1.26933 27.1973 2.83333 27.1992H18.6615C20.2249 31.2905 24.809 33.3398 28.9004 31.7763C31.9723 30.6024 34.001 27.6544 34 24.3658V8.49916C33.9982 6.93509 32.7307 5.66767 31.1667 5.66582ZM27.7667 5.09916H30.0333V5.66582H27.7667V5.09916ZM3.96667 4.53249H7.36667V5.66582H3.96667V4.53249ZM18.6841 21.477C18.6275 21.6294 18.5663 21.783 18.5141 21.9394C18.479 22.0499 18.4484 22.1621 18.4178 22.2748C18.3934 22.3638 18.3611 22.4505 18.3413 22.5412C17.899 22.6242 17.45 22.666 17 22.6658C12.9315 22.6658 9.63333 19.3677 9.63333 15.2992C9.63333 11.2306 12.9315 7.93249 17 7.93249C21.0685 7.93249 24.3667 11.2306 24.3667 15.2992C24.3671 15.7506 24.3254 16.2012 24.242 16.645C24.1508 16.6665 24.0641 16.6977 23.974 16.7221C23.8606 16.7521 23.7535 16.7821 23.6447 16.8167C23.4849 16.8677 23.328 16.93 23.1721 16.9867C23.1087 17.0116 23.0418 17.0303 22.9789 17.057C23.9523 13.7526 22.0627 10.2848 18.7583 9.3114C15.4539 8.33801 11.9861 10.2276 11.0127 13.532C10.0393 16.8364 11.929 20.3042 15.2333 21.2776C16.3833 21.6164 17.6066 21.6165 18.7567 21.2781C18.7295 21.3432 18.7102 21.4112 18.6841 21.477ZM21.3174 18.0129C21.2987 18.0265 21.2834 18.0441 21.2653 18.0577C20.6963 18.4884 20.1893 18.9955 19.7585 19.5645C19.7449 19.5826 19.7274 19.5979 19.7138 19.6166C17.3291 21.1156 14.1808 20.3976 12.6819 18.0129C11.1829 15.6282 11.9008 12.48 14.2855 10.981C16.6702 9.48204 19.8185 10.2 21.3175 12.5847C22.3604 14.2437 22.3604 16.3537 21.3174 18.0129ZM26.0667 31.1658C22.3112 31.1658 19.2667 28.1213 19.2667 24.3658C19.2645 23.9476 19.3024 23.5301 19.38 23.1192C19.563 22.1225 19.9699 21.1804 20.57 20.364C20.5808 20.3496 20.5906 20.3344 20.5995 20.3187C20.7609 20.1063 20.9348 19.9036 21.1202 19.7118C21.1661 19.6631 21.2041 19.6064 21.2517 19.5588C21.4879 19.3223 21.7416 19.1039 22.0105 18.9054C22.0289 18.8953 22.0465 18.8837 22.0632 18.8709C22.8811 18.2704 23.8247 17.8635 24.8228 17.6809C25.2328 17.6029 25.6493 17.5644 26.0667 17.5658C29.8222 17.5658 32.8667 20.6103 32.8667 24.3658C32.8667 28.1213 29.8222 31.1658 26.0667 31.1658ZM32.8667 20.2858C32.81 20.1912 32.7477 20.1 32.687 20.0082C32.6655 19.9725 32.6451 19.9385 32.623 19.9062C32.4972 19.722 32.364 19.5452 32.2263 19.3729C32.1923 19.3316 32.1578 19.2913 32.1232 19.2505C31.9974 19.1021 31.8665 18.9576 31.7305 18.8187C31.705 18.7927 31.6806 18.7649 31.6546 18.7394C31.4976 18.5836 31.3333 18.4357 31.1638 18.2929C31.1213 18.2577 31.0783 18.2232 31.0352 18.1886C30.8811 18.0645 30.7224 17.9449 30.5586 17.8322C30.5326 17.814 30.5082 17.7948 30.4821 17.7755C30.2974 17.6514 30.1064 17.5364 29.9109 17.4281C29.8622 17.4009 29.8129 17.3749 29.763 17.3482C29.5806 17.2519 29.3947 17.1612 29.2043 17.0791C29.1822 17.0694 29.1612 17.0587 29.1397 17.0496C28.9312 16.9618 28.7175 16.8853 28.5005 16.815C28.4438 16.7974 28.3923 16.781 28.3373 16.7651C28.1276 16.7022 27.9151 16.6456 27.6981 16.6002L27.6579 16.5906C27.4312 16.5441 27.1983 16.5107 26.9637 16.4841L26.7897 16.4665C26.5495 16.4472 26.3098 16.4325 26.0667 16.4325C25.844 16.4325 25.6264 16.445 25.4116 16.462C25.4679 16.0768 25.4974 15.6883 25.5 15.2992C25.5 10.6047 21.6944 6.79916 17 6.79916C12.3056 6.79916 8.5 10.6047 8.5 15.2992C8.5 19.9936 12.3056 23.7992 17 23.7992C17.3894 23.7967 17.7781 23.7669 18.1634 23.7102C18.1458 23.9255 18.1333 24.1431 18.1333 24.3658C18.1333 24.6237 18.1498 24.8792 18.1747 25.1337C18.1815 25.2062 18.1911 25.2782 18.1996 25.3501C18.2246 25.5473 18.2565 25.743 18.2954 25.9372C18.3039 25.9797 18.3073 26.0233 18.3164 26.0658H2.83333C1.89444 26.0658 1.13333 25.3047 1.13333 24.3658V8.49916C1.13333 7.56026 1.89444 6.79916 2.83333 6.79916H9.06667C9.26953 6.79958 9.4571 6.69149 9.55853 6.51582L11.1747 3.69212C11.4761 3.16208 12.0383 2.83405 12.648 2.83249H21.352C21.9617 2.83405 22.5239 3.16208 22.8253 3.69212L24.4403 6.51412C24.5416 6.69078 24.7298 6.79958 24.9333 6.79916H31.1667C32.1056 6.79916 32.8667 7.56026 32.8667 8.49916V20.2858Z" fill="#787882"/>
<path d="M5.6667 8.49915C5.35376 8.49915 5.10004 8.75287 5.10004 9.06581V22.6658C5.10004 22.9788 5.35376 23.2325 5.6667 23.2325C5.97964 23.2325 6.23337 22.9788 6.23337 22.6658V9.06581C6.23337 8.7528 5.97964 8.49915 5.6667 8.49915Z" fill="#787882"/>
<path d="M28.3333 7.9325C27.3944 7.9325 26.6333 8.6936 26.6333 9.6325C26.6333 10.5714 27.3944 11.3325 28.3333 11.3325C29.2722 11.3325 30.0333 10.5714 30.0333 9.6325C30.0333 8.6936 29.2722 7.9325 28.3333 7.9325ZM28.3333 10.1992C28.0204 10.1992 27.7666 9.94544 27.7666 9.6325C27.7666 9.31955 28.0204 9.06583 28.3333 9.06583C28.6462 9.06583 28.9 9.31955 28.9 9.6325C28.9 9.94544 28.6462 10.1992 28.3333 10.1992Z" fill="#787882"/>
<path d="M26.6333 23.7992V19.8325C26.6333 19.5196 26.3796 19.2659 26.0667 19.2659C25.7537 19.2659 25.5 19.5196 25.5 19.8325V23.7992H21.5333C21.2204 23.7992 20.9667 24.0529 20.9667 24.3659C20.9667 24.6788 21.2204 24.9325 21.5333 24.9325H25.5V28.8992C25.5 29.2121 25.7537 29.4659 26.0667 29.4659C26.3796 29.4659 26.6333 29.2121 26.6333 28.8992V24.9325H30.6C30.9129 24.9325 31.1667 24.6788 31.1667 24.3659C31.1667 24.0529 30.9129 23.7992 30.6 23.7992H26.6333Z" fill="#787882"/>
</g>
<defs>
<clipPath id="clip0">
<rect width="34" height="34" fill="white"/>
</clipPath>
</defs>
</svg>
