<svg width="19" height="30" viewBox="0 0 19 30" fill="none" xmlns="http://www.w3.org/2000/svg">
<g clip-path="url(#clip0)">
<path d="M15.844 19.0358C16.1663 19.0358 16.4279 18.7742 16.4279 18.4519C16.4279 18.1296 16.1663 17.868 15.844 17.868C15.5217 17.868 15.2601 18.1296 15.2601 18.4519C15.2601 18.7742 15.5217 19.0358 15.844 19.0358Z" fill="#787882"/>
<path d="M0.189006 18.6948C0.550991 20.2326 1.12351 21.7111 1.89081 23.089C2.65858 24.4679 3.61406 25.7331 4.73081 26.8499L4.74952 26.8688V29.3128C4.74952 29.6353 5.01091 29.8967 5.33344 29.8967H15.844C16.1665 29.8967 16.4279 29.6353 16.4279 29.3128V26.8015C17.9434 24.4667 18.7636 21.7294 18.7636 18.9126V14.3645C18.7636 13.0766 17.7157 12.0288 16.4279 12.0288C15.9473 12.0288 15.5003 12.1748 15.1285 12.4247C14.8089 11.5151 13.9419 10.8609 12.9244 10.8609C12.4438 10.8609 11.9967 11.0069 11.625 11.2569C11.3054 10.3473 10.4384 9.69309 9.42088 9.69309C9.00415 9.69309 8.6043 9.80212 8.25304 10.0058V4.67138C8.25304 3.38105 7.20791 2.33569 5.91736 2.33569C4.62954 2.33569 3.58167 3.38356 3.58167 4.67138V13.0787L1.98593 14.1425C0.503547 15.1308 -0.218826 16.9602 0.189006 18.6948ZM2.63394 15.1142L3.58167 14.4822V18.4519C3.58167 18.7744 3.84307 19.0358 4.1656 19.0358C4.48812 19.0358 4.74952 18.7744 4.74952 18.4519C4.74952 18.0263 4.74952 5.02355 4.74952 4.67138C4.74952 4.02747 5.27345 3.50353 5.91736 3.50353C6.56241 3.50353 7.0852 4.02633 7.0852 4.67138V16.1162C7.0852 16.4387 7.34659 16.7001 7.66912 16.7001C7.99164 16.7001 8.25304 16.4387 8.25304 16.1162V12.0288C8.25304 11.3837 8.77583 10.8609 9.42088 10.8609C10.0648 10.8609 10.5887 11.3849 10.5887 12.0288V16.1162C10.5887 16.4387 10.8501 16.7001 11.1726 16.7001C11.4952 16.7001 11.7566 16.4387 11.7566 16.1162V13.1966C11.7566 12.5527 12.2805 12.0288 12.9244 12.0288C13.5683 12.0288 14.0922 12.5527 14.0922 13.1966V16.1162C14.0922 16.4387 14.3536 16.7001 14.6762 16.7001C14.9987 16.7001 15.2601 16.4387 15.2601 16.1162V14.3645C15.2601 13.7205 15.784 13.1966 16.4279 13.1966C17.0718 13.1966 17.5958 13.7205 17.5958 14.3645V18.9126C17.5958 21.5275 16.8262 24.1009 15.3582 26.3029C15.2943 26.3989 15.2601 26.5116 15.2601 26.6268V28.7289H5.91736V26.6268C5.91736 26.4719 5.85577 26.3234 5.74629 26.2139C5.62266 26.0732 4.16331 24.7699 2.91108 22.5209C2.19646 21.2372 1.66295 19.8599 1.3256 18.4275C1.02908 17.1652 1.55483 15.8336 2.63394 15.1142Z" fill="#787882"/>
<path d="M13.5767 25.8168C13.8445 25.9954 14.2071 25.924 14.3864 25.6551C15.3556 24.2022 15.989 22.5946 16.2691 20.8768C16.3209 20.5586 16.1049 20.2584 15.7867 20.2066C15.4683 20.1546 15.1683 20.3706 15.1163 20.6888C14.8634 22.241 14.2911 23.6937 13.415 25.0071C13.2359 25.2753 13.3084 25.6378 13.5767 25.8168Z" fill="#787882"/>
<path d="M1.82983 5.25528C2.15236 5.25528 2.41375 4.99389 2.41375 4.67136C2.41375 2.73941 3.98555 1.16784 5.91727 1.16784C7.84923 1.16784 9.4208 2.73941 9.4208 4.67136C9.4208 4.99389 9.68219 5.25528 10.0047 5.25528C10.3272 5.25528 10.5886 4.99389 10.5886 4.67136C10.5886 2.0955 8.49314 0 5.91727 0C3.34141 0 1.24591 2.0955 1.24591 4.67136C1.24591 4.99389 1.50731 5.25528 1.82983 5.25528Z" fill="#787882"/>
</g>
<defs>
<clipPath id="clip0">
<rect width="18.8571" height="30" fill="white"/>
</clipPath>
</defs>
</svg>
