<svg width="40" height="30" viewBox="0 0 40 30" fill="none" xmlns="http://www.w3.org/2000/svg">
<g clip-path="url(#clip0)">
<path d="M27.0312 22.0312H10.625C9.97781 22.0312 9.45312 22.5559 9.45312 23.2031C9.45312 23.8503 9.97781 24.375 10.625 24.375H27.0312C27.6784 24.375 28.2031 23.8503 28.2031 23.2031C28.2031 22.5559 27.6784 22.0312 27.0312 22.0312Z" fill="#787882"/>
<path d="M37.1623 19.5775H37.0883L37.0604 19.6461C36.1368 21.9178 36.1368 24.4885 37.0604 26.7602L37.0883 26.8287H37.1623H38.8281C39.4146 26.8287 39.89 27.3042 39.89 27.8906C39.89 28.4771 39.4146 28.9525 38.8281 28.9525H5.85938C2.68927 28.9525 0.11 26.3732 0.11 23.2031C0.11 20.033 2.68927 17.4537 5.85938 17.4537H38.8281C39.4146 17.4537 39.89 17.9292 39.89 18.5156C39.89 19.1021 39.4146 19.5775 38.8281 19.5775H37.1623ZM34.7789 19.7205L34.8239 19.5775H34.674H5.85938C3.86011 19.5775 2.23375 21.2039 2.23375 23.2031C2.23375 25.2024 3.86011 26.8287 5.85938 26.8287H34.674H34.8239L34.7789 26.6857C34.0677 24.4249 34.0676 21.9814 34.7789 19.7205Z" fill="#787882" stroke="white" stroke-width="0.22"/>
<path d="M35.2344 7.86875H35.1344V7.96875C35.1344 11.7906 32.0249 14.9 28.2031 14.9C24.3813 14.9 21.2719 11.7906 21.2719 7.96875C21.2719 7.27548 21.3746 6.60597 21.5649 5.97399L21.5899 5.89079L21.5111 5.85437C20.5555 5.41313 19.437 5.41659 18.4889 5.85437L18.4101 5.89079L18.4351 5.97399C18.6254 6.60597 18.7281 7.27548 18.7281 7.96875C18.7281 11.7906 15.6187 14.9 11.7969 14.9C7.97507 14.9 4.86562 11.7906 4.86562 7.96875V7.86875H4.76562H3.59375C3.00179 7.86875 2.52188 7.38883 2.52188 6.79688C2.52188 6.20492 3.00179 5.725 3.59375 5.725H5.16781H5.23845L5.26206 5.65842C6.21582 2.96884 8.78511 1.0375 11.7969 1.0375C14.1024 1.0375 16.1484 2.1693 17.4094 3.90671L17.4581 3.97383L17.5331 3.93837C19.1036 3.19547 20.898 3.19624 22.4668 3.93836L22.5418 3.97383L22.5905 3.90671C23.8516 2.1693 25.8976 1.0375 28.2031 1.0375C31.2149 1.0375 33.7842 2.96884 34.7379 5.65842L34.7615 5.725H34.8322H36.4062C36.9982 5.725 37.4781 6.20492 37.4781 6.79688C37.4781 7.38883 36.9982 7.86875 36.4062 7.86875H35.2344ZM7.00938 7.96875C7.00938 10.6087 9.15696 12.7563 11.7969 12.7563C14.4368 12.7563 16.5844 10.6087 16.5844 7.96875C16.5844 5.32883 14.4368 3.18125 11.7969 3.18125C9.15696 3.18125 7.00938 5.32883 7.00938 7.96875ZM32.9906 7.96875C32.9906 5.32883 30.843 3.18125 28.2031 3.18125C25.5632 3.18125 23.4156 5.32883 23.4156 7.96875C23.4156 10.6087 25.5632 12.7563 28.2031 12.7563C30.843 12.7563 32.9906 10.6087 32.9906 7.96875Z" fill="#787882" stroke="white" stroke-width="0.2"/>
</g>
<defs>
<clipPath id="clip0">
<rect width="40" height="30" fill="white"/>
</clipPath>
</defs>
</svg>
