<svg width="32" height="32" viewBox="0 0 32 32" fill="none" xmlns="http://www.w3.org/2000/svg">
<path d="M16 0H9.06667C8.77213 0 8.53333 0.238802 8.53333 0.533333V4.26667H0.533333C0.238802 4.26667 0 4.50547 0 4.8V31.4667C0 31.7612 0.238802 32 0.533333 32H16C16.2945 32 16.5333 31.7612 16.5333 31.4667V0.533333C16.5333 0.238802 16.2945 0 16 0ZM15.4667 27.7333H9.6V26.6667H15.4667V27.7333ZM1.06667 8H8.53333V24H1.06667V8ZM15.4667 5.86667H9.6V4.26667H15.4667V5.86667ZM1.06667 25.0667H8.53333V26.6667H1.06667V25.0667ZM9.6 25.6V6.93333H15.4667V25.6H9.6ZM15.4667 1.06667V3.2H9.6V1.06667H15.4667ZM8.53333 5.33333V6.93333H1.06667V5.33333H8.53333ZM1.06667 27.7333H8.53333V30.9333H1.06667V27.7333ZM9.6 30.9333V28.8H15.4667V30.9333H9.6Z" fill="#787882"/>
<path d="M31.9828 29.199L25.5828 4.66565C25.5471 4.52815 25.458 4.4107 25.3351 4.33909C25.2125 4.26773 25.0664 4.2482 24.9291 4.28492L16.9291 6.41825C16.6458 6.49377 16.4765 6.78388 16.5505 7.06773L22.9505 31.6011C22.9862 31.7386 23.0755 31.856 23.1984 31.9274C23.3211 31.9985 23.4672 32.0177 23.6041 31.9808L31.6041 29.8474C31.8869 29.7719 32.056 29.4823 31.9828 29.199ZM18.5664 10.5696L25.5359 8.71148L25.7867 9.67138L18.8177 11.5323L18.5664 10.5696ZM26.056 10.7063L29.1492 22.5716L22.1823 24.4305L19.089 12.5643L26.056 10.7063ZM29.4208 23.6042L29.9669 25.6972L22.9974 27.5552L22.4534 25.463L29.4208 23.6042ZM24.6859 5.45341L25.2666 7.67997L18.2971 9.53752L17.7169 7.312L24.6859 5.45341ZM23.8474 30.8133L23.2666 28.5867L30.2362 26.7281L30.8164 28.9537L23.8474 30.8133Z" fill="#787882"/>
<path d="M6.9333 9.59998H2.66663C2.3721 9.59998 2.1333 9.83878 2.1333 10.1333V14.4C2.1333 14.6945 2.3721 14.9333 2.66663 14.9333H6.9333C7.22783 14.9333 7.46663 14.6945 7.46663 14.4V10.1333C7.46663 9.83878 7.22783 9.59998 6.9333 9.59998ZM6.39997 13.8666H3.19997V10.6666H6.39997V13.8666Z" fill="#787882"/>
</svg>
