<svg width="31" height="31" viewBox="0 0 31 31" fill="none" xmlns="http://www.w3.org/2000/svg">
<path d="M30.3306 21.7969L27.9087 16.9531H27.125V0.484375H20.3437V16.9531H11.1406V8.61364L8.87565 3.63136C8.67561 3.19106 8.23386 2.90625 7.74997 2.90625C7.26608 2.90625 6.82433 3.19106 6.62428 3.63088L4.35934 8.61364V16.9531H3.09125L0.669373 21.7969H3.39059V30.5156H27.6093V21.7969H30.3306ZM21.3125 15.0156H24.2187V14.0469H21.3125V13.0781H23.25V12.1094H21.3125V11.1406H24.2187V10.1719H21.3125V9.20313H23.25V8.23438H21.3125V7.26563H24.2187V6.29688H21.3125V5.32813H23.25V4.35938H21.3125V3.39063H24.2187V2.42188H21.3125V1.45313H26.1562V16.9531H21.3125V15.0156ZM27.31 17.9219L28.7631 20.8281H18.2212L16.7681 17.9219H27.31ZM8.23192 16.9531V9.62356L9.20164 10.2692L10.1718 9.62308V16.9531H8.23192ZM10.0449 8.54389L9.20164 9.10528L7.74754 8.13605L6.29539 9.1048L5.455 8.54389L6.25615 6.78125H9.24329L10.0449 8.54389ZM7.50584 4.03145C7.59303 3.84109 7.9069 3.84061 7.99409 4.03194L8.803 5.8125H6.69645L7.50584 4.03145ZM5.32809 9.62453L6.29539 10.2702L7.26317 9.62453V16.9531H5.32809V9.62453ZM3.68994 17.9219H14.2319L12.7787 20.8281H2.23681L3.68994 17.9219ZM4.35934 21.7969H13.3774L15.0156 18.5206V29.5469H4.35934V21.7969ZM26.6406 29.5469H15.9843V18.5206L17.6225 21.7969H26.6406V29.5469Z" fill="#787882"/>
<path d="M9.20312 27.6094H10.1719V28.5781H9.20312V27.6094Z" fill="#787882"/>
<path d="M5.32812 27.6094H6.29688V28.5781H5.32812V27.6094Z" fill="#787882"/>
<path d="M7.26562 27.6094H8.23438V28.5781H7.26562V27.6094Z" fill="#787882"/>
<path d="M5.32812 25.6719H10.1719V26.6406H5.32812V25.6719Z" fill="#787882"/>
<path d="M13.5624 4.67761C13.5624 3.968 14.1398 3.39062 14.8494 3.39062H15.1817C15.8913 3.39062 16.4687 3.968 16.4687 4.67761C16.4687 5.02103 16.335 5.34411 16.0918 5.58775L13.5624 8.11716V12.1094H16.4687V9.32034L18.1466 7.64247C18.939 6.85052 19.3749 5.79748 19.3749 4.67761C19.3749 2.36569 17.4936 0.484375 15.1817 0.484375H14.8494C12.5375 0.484375 10.6562 2.36569 10.6562 4.67761V5.8125H13.5624V4.67761ZM12.5937 4.67761V4.84375H11.6249V4.67761C11.6249 2.89947 13.0713 1.45312 14.8494 1.45312H15.1817C16.9598 1.45312 18.4062 2.89947 18.4062 4.67761C18.4062 5.53834 18.071 6.34822 17.4617 6.95756L15.4999 8.91928V11.1406H14.5312V8.51822L16.7772 6.27266C17.203 5.84592 17.4374 5.2792 17.4374 4.67761C17.4374 3.43373 16.4256 2.42187 15.1817 2.42187H14.8494C13.6055 2.42187 12.5937 3.43373 12.5937 4.67761Z" fill="#787882"/>
<path d="M13.5625 14.5312C13.5625 15.3323 14.2145 15.9843 15.0156 15.9843C15.8168 15.9843 16.4687 15.3323 16.4687 14.5312C16.4687 13.73 15.8168 13.0781 15.0156 13.0781C14.2145 13.0781 13.5625 13.73 13.5625 14.5312ZM15.5 14.5312C15.5 14.7986 15.283 15.0156 15.0156 15.0156C14.7482 15.0156 14.5312 14.7986 14.5312 14.5312C14.5312 14.2638 14.7482 14.0468 15.0156 14.0468C15.283 14.0468 15.5 14.2638 15.5 14.5312Z" fill="#787882"/>
</svg>
