<svg width="26" height="26" viewBox="0 0 26 26" fill="none" xmlns="http://www.w3.org/2000/svg">
<path d="M15.8636 12.9992L25.5846 3.27769C25.852 3.01008 25.9996 2.65306 26 2.27236C26 1.89145 25.8525 1.534 25.5846 1.26681L24.7328 0.415155C24.4649 0.146911 24.1079 0 23.7268 0C23.3463 0 22.9893 0.146911 22.7215 0.415155L13.0004 10.136L3.27896 0.415155C3.01156 0.146911 2.65433 0 2.27341 0C1.89293 0 1.53569 0.146911 1.26829 0.415155L0.416 1.26681C-0.138667 1.82148 -0.138667 2.72366 0.416 3.27769L10.1373 12.9992L0.416 22.7202C0.14839 22.9882 0.00105691 23.3453 0.00105691 23.726C0.00105691 24.1067 0.14839 24.4637 0.416 24.7315L1.26808 25.5832C1.53548 25.8512 1.89293 25.9983 2.2732 25.9983C2.65411 25.9983 3.01135 25.8512 3.27875 25.5832L13.0002 15.8621L22.7213 25.5832C22.9891 25.8512 23.3461 25.9983 23.7266 25.9983H23.727C24.1077 25.9983 24.4647 25.8512 24.7326 25.5832L25.5844 24.7315C25.8518 24.4639 25.9994 24.1067 25.9994 23.726C25.9994 23.3453 25.8518 22.9882 25.5844 22.7204L15.8636 12.9992Z" fill="#787882"/>
</svg>
