<svg width="27" height="27" viewBox="0 0 27 27" fill="none" xmlns="http://www.w3.org/2000/svg">
<g clip-path="url(#clip0)">
<path d="M1.35642 26.229C1.01092 26.229 0.665424 26.0976 0.402923 25.8331C-0.124054 25.3061 -0.124054 24.4518 0.402923 23.9248L23.9325 0.395233C24.4594 -0.131744 25.3138 -0.131744 25.8408 0.395233C26.3678 0.922211 26.3678 1.77657 25.8408 2.30388L2.31157 25.8331C2.04709 26.0959 1.70159 26.229 1.35642 26.229Z" fill="#787882"/>
<path d="M24.8876 26.229C24.5421 26.229 24.1969 26.0976 23.9341 25.8331L0.402923 2.30388C-0.124054 1.77657 -0.124054 0.922211 0.402923 0.395233C0.929901 -0.131744 1.78426 -0.131744 2.31157 0.395233L25.8408 23.9248C26.3678 24.4518 26.3678 25.3061 25.8408 25.8331C25.5763 26.0959 25.2311 26.229 24.8876 26.229Z" fill="#787882"/>
</g>
<defs>
<clipPath id="clip0">
<rect width="26.2289" height="26.2289" fill="white"/>
</clipPath>
</defs>
</svg>
