<svg width="18" height="32" viewBox="0 0 18 32" fill="none" xmlns="http://www.w3.org/2000/svg">
<path d="M8.97925 28C5.4231 28 1.64575 29.168 1.64575 31.3333C1.64575 31.7014 1.94458 32 2.3125 32H15.6458C16.0139 32 16.3125 31.7014 16.3125 31.3333C16.3125 29.168 12.5352 28 8.97925 28Z" fill="#CFD8DC"/>
<path d="M15.9031 1.36792L15.6152 0.466553C15.5286 0.189453 15.2698 0 14.9792 0H3.07788C2.80054 0 2.55127 0.172119 2.45386 0.430664C1.80981 2.13745 0.3125 6.35327 0.3125 8.66675C0.3125 13.4453 4.20044 17.3333 8.97925 17.3333C13.7578 17.3333 17.6458 13.4453 17.6458 8.66675C17.6458 6.78271 16.6392 3.65332 15.9031 1.36792Z" fill="#ECEFF1"/>
<path d="M8.97928 16C5.62991 16 2.80325 13.74 1.92996 10.6667H16.0286C15.1553 13.74 12.3286 16 8.97928 16Z" fill="#CACACA"/>
<path d="M8.97925 17.3333C4.20044 17.3333 0.3125 13.4453 0.3125 8.66675C0.3125 6.35596 1.80981 2.13745 2.45239 0.431885C2.55127 0.172119 2.79907 0 3.07642 0H14.9792C15.2712 0 15.5271 0.189453 15.6152 0.466553L15.9045 1.36792C16.6392 3.65332 17.6458 6.78271 17.6458 8.66675C17.6458 13.4453 13.7578 17.3333 8.97925 17.3333ZM3.54053 1.33325C2.59644 3.89868 1.64575 7.04932 1.64575 8.66675C1.64575 12.7107 4.93652 16 8.97925 16C13.0217 16 16.3125 12.7107 16.3125 8.66675C16.3125 6.99194 15.3018 3.85327 14.6338 1.77734L14.4924 1.33325H3.54053Z" fill="#787882"/>
<path d="M8.97925 29.3333C8.61108 29.3333 8.3125 29.0347 8.3125 28.6667V16.6667C8.3125 16.2986 8.61108 16 8.97925 16C9.34717 16 9.64575 16.2986 9.64575 16.6667V28.6667C9.64575 29.0347 9.34717 29.3333 8.97925 29.3333Z" fill="#787882"/>
<path d="M15.6458 32H2.3125C1.94458 32 1.64575 31.7014 1.64575 31.3333C1.64575 29.168 5.42456 28 8.97925 28C12.5339 28 16.3125 29.168 16.3125 31.3333C16.3125 31.7014 16.0139 32 15.6458 32ZM3.41382 30.6667H14.5444C13.7085 29.9934 11.7124 29.3333 8.97925 29.3333C6.24585 29.3333 4.24976 29.9934 3.41382 30.6667Z" fill="#787882"/>
<path d="M16.3125 10.6668H1.64575C1.27783 10.6668 0.979248 10.3679 0.979248 10C0.979248 9.63208 1.27783 9.38 1.64575 9.38H16.3125C16.6804 9.38 16.9792 9.63208 16.9792 10C16.9792 10.3679 16.6804 10.6668 16.3125 10.6668Z" fill="#787882"/>
</svg>
