<svg width="38" height="38" viewBox="0 0 38 38" fill="none" xmlns="http://www.w3.org/2000/svg">
<g clip-path="url(#clip0)">
<path d="M1.84504 26.8278C2.12858 26.9695 2.43387 27.0675 2.74872 27.1223L2.25818 27.8228C2.15902 27.9645 2.09437 28.1272 2.06886 28.2979L1.33856 33.2231C1.2768 33.6403 1.45568 34.0566 1.80127 34.2984C2.14714 34.5405 2.59941 34.566 2.96992 34.3653L7.09458 32.1318C7.66427 33.161 8.76132 33.8597 10.0187 33.8597C10.8734 33.8597 11.6541 33.537 12.2453 33.0074C12.8367 33.537 13.6174 33.8597 14.4718 33.8597C16.3137 33.8597 17.812 32.3614 17.812 30.5199V30.0937C19.8829 31.1014 22.1889 31.6332 24.4917 31.6332C26.8705 31.6332 29.2295 31.0875 31.3201 30.0563V32.7464C31.3201 33.1323 31.5199 33.4907 31.8481 33.6936C32.1757 33.896 32.5856 33.9151 32.9312 33.7423L37.3846 31.5157C37.7618 31.327 38.0001 30.9417 38.0001 30.5199V17.1602C38.0001 16.5453 37.5014 16.0469 36.8868 16.0469C35.1134 16.0469 30.811 16.0469 29.2028 16.0469L21.3493 12.204L24.3331 7.94282C24.6853 7.43952 24.5633 6.74488 24.0594 6.39234L20.4117 3.83787C19.9084 3.48562 19.2137 3.60768 18.8612 4.11127C18.3898 4.78446 15.3816 9.08075 14.9134 9.7493C14.0001 9.26948 12.9051 9.2718 12.2105 9.57332L7.97419 11.4137C7.36015 11.6807 6.84554 12.1202 6.48663 12.6853L0.40763 22.2468C0.0127624 22.8681 -0.150751 23.9341 0.169898 24.8963C0.451988 25.7426 1.0469 26.4286 1.84504 26.8278ZM3.8678 31.3473L4.2331 28.8847L5.22867 27.4627C5.65543 28.0857 6.23614 28.5945 6.9157 28.9355L6.05697 30.1618L3.8678 31.3473ZM10.0187 31.6334C9.40494 31.6334 8.90541 31.1339 8.90541 30.5199V29.9757L9.30405 29.4066H11.132V30.5199C11.132 31.1339 10.6327 31.6334 10.0187 31.6334ZM14.4721 31.6334C13.8581 31.6334 13.3588 31.1339 13.3588 30.5199V29.4066H15.5854V30.5199C15.5854 31.1339 15.0859 31.6334 14.4721 31.6334ZM35.7735 29.8319L33.5467 30.9452V18.2735H35.7735V29.8319ZM28.4557 18.1601C28.6082 18.2346 28.7755 18.2735 28.9451 18.2735H31.3201V27.5903C30.5698 27.8819 28.24 29.4066 24.492 29.4066C20.5186 29.4066 18.0714 27.6468 17.1965 27.2974C17.0376 27.218 16.8625 27.18 16.6987 27.18H8.90541C7.7669 27.18 6.82583 26.321 6.69508 25.217C6.72987 25.0555 6.72668 24.8897 6.68986 24.7311C6.80177 23.6074 7.7527 22.7269 8.90541 22.7269H15.7765C18.1042 22.7269 20.2931 21.8203 21.9392 20.1742C22.3738 19.7393 22.3738 19.0345 21.9392 18.5996C21.5044 18.1647 20.7996 18.1647 20.3647 18.5996C19.1389 19.8251 17.5096 20.5003 15.7765 20.5003H15.5405L20.0562 14.0508L28.4557 18.1601ZM17.4922 9.94847L19.3161 11.2258L12.8222 20.5003H10.1039C11.0505 19.1484 16.6239 11.1887 17.4922 9.94847ZM20.0464 6.30073L21.8705 7.57781L20.5932 9.40198L18.7693 8.1246L20.0464 6.30073ZM2.32254 23.385L8.36558 13.88C8.48532 13.6916 8.65695 13.5452 8.86163 13.4562L13.0449 11.6387C13.2307 11.5842 13.4223 11.5804 13.6032 11.6207L7.12473 20.8729C5.75545 21.4727 4.74364 22.7414 4.50591 24.264C4.30239 24.8357 3.41785 25.1245 2.84091 24.836C2.29789 24.5647 2.0822 23.9202 2.32254 23.385Z" fill="#787882"/>
</g>
<defs>
<clipPath id="clip0">
<rect width="38" height="38" fill="white"/>
</clipPath>
</defs>
</svg>
