<svg width="34" height="34" viewBox="0 0 34 34" fill="none" xmlns="http://www.w3.org/2000/svg">
<path d="M29.2687 2.33465C27.555 0.624005 24.78 0.624005 23.0663 2.33465L21.5137 3.89575L4.98651 20.4142L4.95139 20.4496C4.94288 20.4581 4.94288 20.4671 4.93383 20.4671C4.91627 20.4935 4.88992 20.5195 4.87264 20.5459C4.87264 20.5547 4.86358 20.5547 4.86358 20.5634C4.84602 20.5898 4.83751 20.6073 4.81967 20.6337C4.81117 20.6425 4.81117 20.651 4.80239 20.66C4.79361 20.6864 4.78483 20.7039 4.77577 20.7303C4.77577 20.7388 4.76726 20.7388 4.76726 20.7478L1.10038 31.7746C0.992809 32.0885 1.07458 32.4362 1.31085 32.6691C1.47686 32.833 1.70078 32.9246 1.93375 32.9238C2.02897 32.9221 2.12336 32.9073 2.21446 32.8799L13.2327 29.2042C13.2412 29.2042 13.2412 29.2042 13.2503 29.1957C13.278 29.1875 13.3046 29.1757 13.329 29.1603C13.3359 29.1595 13.3419 29.1565 13.3468 29.1518C13.3729 29.1342 13.408 29.1164 13.4344 29.0988C13.4604 29.0816 13.4871 29.0552 13.5134 29.0376C13.5222 29.0286 13.5307 29.0286 13.5307 29.0201C13.5398 29.0113 13.5573 29.0028 13.5661 28.985L31.6459 10.9052C33.3565 9.19151 33.3565 6.41644 31.6459 4.70305L29.2687 2.33465ZM12.952 27.1426L6.84644 21.0373L22.1278 5.75595L28.2334 11.8612L12.952 27.1426ZM5.98645 22.6602L11.3204 27.9938L3.31099 30.6605L5.98645 22.6602ZM30.4091 9.67693L29.4792 10.6157L23.3734 4.50987L24.3124 3.5714C25.3395 2.54512 27.0043 2.54512 28.0317 3.5714L30.4176 5.95736C31.4371 6.98913 31.4332 8.65011 30.4091 9.67693Z" fill="#787882"/>
</svg>
