<svg width="30" height="30" viewBox="0 0 30 30" fill="none" xmlns="http://www.w3.org/2000/svg">
<g clip-path="url(#clip0)">
<path d="M27.2728 2.7273H23.1819V0.68184C23.1819 0.304965 22.8769 0 22.5 0C22.1231 0 21.8182 0.304965 21.8182 0.68184V2.7273H9.54544V0.68184C9.54544 0.304965 9.24048 0 8.86367 0C8.48685 0 8.18182 0.304965 8.18182 0.68184V2.7273H2.7273C1.22382 2.7273 0 3.95041 0 5.45453V27.2727C0 28.7768 1.22382 30 2.7273 30H22.4987V29.9997L22.5001 30C22.6772 30 22.8516 29.9308 22.9822 29.8002L29.8004 22.982C29.9304 22.8515 29.9735 22.6773 29.9737 22.5H30.0001V5.45453C30 3.95041 28.7762 2.7273 27.2728 2.7273ZM23.1819 27.6723V24.5455C23.1819 23.7938 23.7931 23.1819 24.5455 23.1819H27.6723L23.1819 27.6723ZM28.6364 21.8182H24.5455C23.042 21.8182 21.8182 23.0413 21.8182 24.5455V28.6364H2.7273C1.97489 28.6364 1.36368 28.0245 1.36368 27.2728V10.9091H28.6364V21.8182ZM28.6364 9.54544H1.36362V5.45453C1.36362 4.70282 1.97489 4.09091 2.7273 4.09091H8.18182V5.45453C7.42942 5.45453 6.81821 6.06644 6.81821 6.81814C6.81821 7.56985 7.42942 8.18182 8.18182 8.18182C8.93423 8.18182 9.54544 7.56991 9.54544 6.81821V4.09091H21.8182V5.45453C21.0658 5.45453 20.4546 6.06644 20.4546 6.81814C20.4546 7.56985 21.0658 8.18182 21.8182 8.18182C22.5705 8.18182 23.1818 7.56991 23.1818 6.81821V4.09091H27.2727C28.0252 4.09091 28.6364 4.70282 28.6364 5.45453V9.54544Z" fill="#787882"/>
<path d="M12.2727 23.1819C11.5203 23.1819 10.9091 22.57 10.9091 21.8183C10.9091 21.4414 10.6041 21.1364 10.2273 21.1364C9.85038 21.1364 9.54541 21.4414 9.54541 21.8183C9.54541 23.3224 10.7692 24.5455 12.2727 24.5455C13.7762 24.5455 15 23.3224 15 21.8182C15 21.0046 14.6418 20.2728 14.0745 19.7728C14.6418 19.2727 15 18.5409 15 17.7273C15 16.2232 13.7762 15 12.2727 15C10.7692 15 9.54541 16.2231 9.54541 17.7273C9.54541 18.1042 9.85038 18.4091 10.2273 18.4091C10.6041 18.4091 10.9091 18.1042 10.9091 17.7273C10.9091 16.9756 11.5204 16.3637 12.2727 16.3637C13.0251 16.3637 13.6363 16.9756 13.6363 17.7273C13.6363 18.479 13.0251 19.0909 12.2727 19.0909C11.8958 19.0909 11.5909 19.3959 11.5909 19.7728C11.5909 20.1496 11.8958 20.4546 12.2727 20.4546C13.0251 20.4546 13.6363 21.0665 13.6363 21.8182C13.6363 22.5699 13.0251 23.1819 12.2727 23.1819Z" fill="#787882"/>
<path d="M17.0467 16.365C17.0467 16.365 17.0467 16.365 17.0481 16.365L17.7272 16.3643V23.8637C17.7272 24.2405 18.0322 24.5455 18.409 24.5455C18.7859 24.5455 19.0909 24.2405 19.0909 23.8637V15.6818C19.0909 15.5008 19.019 15.3276 18.8911 15.1998C18.7633 15.0719 18.5902 15 18.409 15C18.409 15 18.409 15 18.4077 15L17.0467 15.0013C16.6698 15.002 16.3649 15.3069 16.3649 15.6838C16.3649 16.06 16.6699 16.365 17.0467 16.365Z" fill="#787882"/>
</g>
<defs>
<clipPath id="clip0">
<rect width="30" height="30" fill="white"/>
</clipPath>
</defs>
</svg>
