<svg width="32" height="32" viewBox="0 0 32 32" fill="none" xmlns="http://www.w3.org/2000/svg">
<path d="M7.89188 2.30021C7.59762 2.04884 7.16324 2.05224 6.87293 2.30812L4.75005 4.20788V3.95892C4.75005 3.66762 4.51395 3.43152 4.22265 3.43152C3.93136 3.43152 3.69525 3.66762 3.69525 3.95892V5.15247L2.81599 5.9394C2.6022 6.1344 2.58545 6.46525 2.77847 6.6809C2.97149 6.89654 3.30216 6.91632 3.51954 6.72527L7.3871 3.26328L11.2547 6.72527C11.3947 6.85303 11.5926 6.8958 11.7729 6.83727C11.9533 6.77874 12.0883 6.62793 12.1266 6.4422C12.1649 6.25653 12.1006 6.06456 11.9582 5.9394L7.89188 2.30021Z" fill="#787882"/>
<path d="M10.5517 7.38721C10.2604 7.38721 10.0243 7.62331 10.0243 7.91461V11.6065H4.75005V7.91461C4.75005 7.62331 4.51395 7.38721 4.22265 7.38721C3.93135 7.38721 3.69525 7.62331 3.69525 7.91461V11.9414C3.70044 12.3441 4.03099 12.6664 4.43366 12.6614H10.3407C10.7437 12.6655 11.0739 12.3428 11.0791 11.9398V7.91461C11.0791 7.62331 10.8429 7.38721 10.5517 7.38721Z" fill="#787882"/>
<path d="M7.38716 13.7162C5.34815 13.7162 3.69525 15.3692 3.69525 17.4081C3.69525 19.447 5.34822 21.1 7.38716 21.1C9.42611 21.1 11.0791 19.447 11.0791 17.4081C11.0767 15.3701 9.42518 13.7185 7.38716 13.7162ZM4.75005 17.4081C4.75166 16.1554 5.63271 15.0761 6.8597 14.8238V17.1091L4.90827 18.2794C4.80611 18.0001 4.75258 17.7055 4.75005 17.4081ZM5.4518 19.1837L7.30539 18.0716L8.83913 19.6053C7.76165 20.3241 6.32019 20.1447 5.4518 19.1837ZM9.58489 18.8596L7.91456 17.1897V14.8238C8.77318 14.9978 9.48903 15.5875 9.82409 16.397C10.1591 17.2065 10.0695 18.1296 9.58489 18.8596Z" fill="#787882"/>
<path d="M28.4839 9.4968V7.69142C28.4836 7.2322 28.1114 6.85999 27.6522 6.85968H26.1511C25.6919 6.85999 25.3197 7.2322 25.3194 7.69142V9.4968H24.2645V6.18988C24.264 5.68622 23.8558 5.27805 23.3521 5.27743H22.0124C21.5088 5.27805 21.1006 5.68622 21.1 6.18988V9.4968H20.0452V3.69517C20.0452 3.11258 19.573 2.64031 18.9904 2.64031H17.9355C17.3529 2.64031 16.8807 3.11258 16.8807 3.69517V9.4968H16.3533C16.062 9.4968 15.8259 9.26064 15.8259 8.9694V2.64037C15.8259 2.34908 15.5897 2.11298 15.2985 2.11298C15.0072 2.11298 14.7711 2.34908 14.7711 2.64037V8.9694C14.7711 9.84323 15.4794 10.5517 16.3533 10.5517H28.484C28.7753 10.5517 29.0114 10.3156 29.0114 10.0243C29.0114 9.73296 28.7752 9.4968 28.4839 9.4968ZM18.9904 9.4968H17.9355V3.69517H18.9904V9.4968ZM23.2097 9.4968H22.1549V6.33229H23.2097V9.4968ZM27.4291 9.4968H26.3743V7.91454H27.4291V9.4968H27.4291Z" fill="#787882"/>
<path d="M28.4839 20.0452H16.3533C16.062 20.0452 15.8259 19.8091 15.8259 19.5178V18.6813L17.5626 16.9445C17.771 16.7445 18.1 16.7445 18.3084 16.9445L18.9265 17.5627C19.5444 18.1804 20.546 18.1804 21.1638 17.5627L23.3642 15.3623C23.5725 15.1623 23.9016 15.1623 24.11 15.3623L24.7281 15.981C25.3467 16.5969 26.3468 16.5969 26.9654 15.981L28.8567 14.0896C29.0566 13.8827 29.0538 13.5537 28.8503 13.3503C28.6468 13.1468 28.3179 13.144 28.111 13.3438L26.2196 15.2346C26.0137 15.4405 25.6798 15.4405 25.4739 15.2346L24.8557 14.6165C24.2296 14.019 23.2445 14.019 22.6184 14.6165L20.418 16.8169C20.2121 17.0228 19.8782 17.0228 19.6723 16.8169L19.0547 16.1988C18.4285 15.6012 17.4431 15.6012 16.8169 16.1988L15.8259 17.1898V13.1888C15.8259 12.8975 15.5897 12.6614 15.2985 12.6614C15.0072 12.6614 14.7711 12.8975 14.7711 13.1888V19.5178C14.7711 20.3916 15.4794 21.1001 16.3533 21.1001H28.484C28.7753 21.1001 29.0114 20.8639 29.0114 20.5727C29.0113 20.2813 28.7752 20.0452 28.4839 20.0452Z" fill="#787882"/>
<path d="M31.6484 24.5053V2.9291C31.7218 1.39542 30.5444 0.0896858 29.0113 0.00457764H2.64039C1.10733 0.0897476 -0.0700931 1.39548 0.00327172 2.9291V24.5053C-0.0703403 26.0391 1.10708 27.3452 2.64039 27.4303H11.0791V28.4852H8.96941C7.80429 28.4852 6.85976 29.4297 6.85976 30.5949V31.1223C6.85976 31.4136 7.09586 31.6497 7.38716 31.6497H24.2646C24.5559 31.6497 24.792 31.4136 24.792 31.1223V30.5949C24.792 29.4297 23.8475 28.4852 22.6823 28.4852H20.5727V27.4303H29.0114C30.5446 27.3452 31.722 26.0391 31.6484 24.5053ZM22.6823 29.5401C23.2649 29.5401 23.7371 30.0123 23.7371 30.5949H7.91456C7.91456 30.0123 8.38682 29.5401 8.96941 29.5401H22.6823ZM12.1339 28.4852V27.4303H19.5178V28.4852H12.1339ZM29.0113 26.3755H2.64039C1.69097 26.2884 0.986805 25.456 1.05813 24.5053V23.211H30.5936V24.5053C30.6649 25.456 29.9608 26.2884 29.0113 26.3755ZM30.5936 2.9291V22.1562H1.05813V2.9291C0.986805 1.97844 1.69103 1.14627 2.64039 1.05937H29.0114C29.9606 1.14627 30.6649 1.97844 30.5936 2.9291Z" fill="#787882"/>
</svg>
