<svg width="31" height="31" viewBox="0 0 31 31" fill="none" xmlns="http://www.w3.org/2000/svg">
<g clip-path="url(#clip0)">
<path d="M11.9466 11.6238H6.13471C4.88842 11.6238 3.8746 10.61 3.8746 9.36371V6.13471C3.8746 4.88842 4.88842 3.8746 6.13471 3.8746H11.9466C13.1931 3.8746 14.207 4.88842 14.207 6.13471V9.36371C14.207 10.61 13.1931 11.6238 11.9466 11.6238ZM6.13471 5.81191C5.95664 5.81191 5.81191 5.95664 5.81191 6.13471V9.36371C5.81191 9.54178 5.95664 9.68651 6.13471 9.68651H11.9466C12.1249 9.68651 12.2697 9.54178 12.2697 9.36371V6.13471C12.2697 5.95664 12.1249 5.81191 11.9466 5.81191H6.13471Z" fill="#787882"/>
<path d="M24.8621 27.1223H19.0502C17.8037 27.1223 16.7899 26.1084 16.7899 24.8622V21.6332C16.7899 20.3869 17.8037 19.373 19.0502 19.373H24.8621C26.1084 19.373 27.1222 20.3869 27.1222 21.6332V24.8622C27.1222 26.1084 26.1084 27.1223 24.8621 27.1223ZM19.0502 21.3104C18.8719 21.3104 18.7272 21.4551 18.7272 21.6332V24.8622C18.7272 25.0402 18.8719 25.185 19.0502 25.185H24.8621C25.0402 25.185 25.1849 25.0402 25.1849 24.8622V21.6332C25.1849 21.4551 25.0402 21.3104 24.8621 21.3104H19.0502Z" fill="#787882"/>
<path d="M24.8621 16.7899H19.0502C17.8037 16.7899 16.7899 15.7761 16.7899 14.5298V6.13471C16.7899 4.88842 17.8037 3.8746 19.0502 3.8746H24.8621C26.1084 3.8746 27.1222 4.88842 27.1222 6.13471V14.5298C27.1222 15.7761 26.1084 16.7899 24.8621 16.7899ZM19.0502 5.81191C18.8719 5.81191 18.7272 5.95664 18.7272 6.13471V14.5298C18.7272 14.7081 18.8719 14.8526 19.0502 14.8526H24.8621C25.0402 14.8526 25.1849 14.7081 25.1849 14.5298V6.13471C25.1849 5.95664 25.0402 5.81191 24.8621 5.81191H19.0502Z" fill="#787882"/>
<path d="M11.9466 27.1222H6.13471C4.88842 27.1222 3.8746 26.1084 3.8746 24.8621V16.467C3.8746 15.2207 4.88842 14.2069 6.13471 14.2069H11.9466C13.1931 14.2069 14.207 15.2207 14.207 16.467V24.8621C14.207 26.1084 13.1931 27.1222 11.9466 27.1222ZM6.13471 16.1442C5.95664 16.1442 5.81191 16.2887 5.81191 16.467V24.8621C5.81191 25.0402 5.95664 25.1849 6.13471 25.1849H11.9466C12.1249 25.1849 12.2697 25.0402 12.2697 24.8621V16.467C12.2697 16.2887 12.1249 16.1442 11.9466 16.1442H6.13471Z" fill="#787882"/>
<path d="M27.4451 30.9969H3.5518C1.5925 30.9969 0 29.4043 0 27.4451V3.5518C0 1.5925 1.5925 0 3.5518 0H27.4451C29.4043 0 30.9969 1.5925 30.9969 3.5518V27.4451C30.9969 29.4043 29.4043 30.9969 27.4451 30.9969ZM3.5518 1.9373C2.6619 1.9373 1.9373 2.6619 1.9373 3.5518V27.4451C1.9373 28.335 2.6619 29.0595 3.5518 29.0595H27.4451C28.335 29.0595 29.0595 28.335 29.0595 27.4451V3.5518C29.0595 2.6619 28.335 1.9373 27.4451 1.9373H3.5518Z" fill="#787882"/>
</g>
<defs>
<clipPath id="clip0">
<rect width="31" height="31" fill="white"/>
</clipPath>
</defs>
</svg>
