<svg width="34" height="34" viewBox="0 0 34 34" fill="none" xmlns="http://www.w3.org/2000/svg">
<path d="M31.875 0.53125H2.125C1.24631 0.53125 0.53125 1.24631 0.53125 2.125V23.375C0.53125 24.2537 1.24631 24.9688 2.125 24.9688H16.4688C16.4688 29.6554 20.2821 33.4688 24.9688 33.4688C29.6554 33.4688 33.4688 29.6554 33.4688 24.9688V2.125C33.4688 1.24631 32.7537 0.53125 31.875 0.53125ZM2.125 1.59375H31.875C32.1677 1.59375 32.4062 1.83228 32.4062 2.125V4.78125H1.59375V2.125C1.59375 1.83228 1.83228 1.59375 2.125 1.59375ZM24.4375 24.7488L19.3545 29.8318C18.2219 28.5265 17.5312 26.8287 17.5312 24.9688C17.5312 21.0471 20.5843 17.8325 24.4375 17.5583V24.7488ZM20.1057 30.583L24.9688 25.7199L29.8318 30.583C28.5265 31.7156 26.8287 32.4062 24.9688 32.4062C23.1088 32.4062 21.411 31.7156 20.1057 30.583ZM30.583 29.8318L25.5 24.7488V17.5583C29.3532 17.8325 32.4062 21.0471 32.4062 24.9688C32.4062 26.8287 31.7156 28.5265 30.583 29.8318ZM24.9688 16.4688C20.6423 16.4688 17.068 19.72 16.5426 23.9062H2.125C1.83228 23.9062 1.59375 23.6677 1.59375 23.375V5.84375H32.4062V20.8627C30.9554 18.2458 28.1669 16.4688 24.9688 16.4688Z" fill="#787882"/>
<path d="M19.6562 24.9688C19.6562 22.6015 21.2447 20.4994 23.5195 19.856L23.2305 18.8334C20.5004 19.6058 18.5938 22.1287 18.5938 24.9688H19.6562Z" fill="#787882"/>
<path d="M18.6989 26.1274C18.7717 26.5237 18.8827 26.9136 19.0288 27.2871L20.0185 26.9003C19.8969 26.5895 19.805 26.2644 19.7439 25.9345L18.6989 26.1274Z" fill="#787882"/>
<path d="M30.0608 23.4489L31.0792 23.1461C30.9692 22.7763 30.8242 22.4145 30.6484 22.0708L29.7022 22.5542C29.8488 22.8406 29.9694 23.1418 30.0608 23.4489Z" fill="#787882"/>
<path d="M30.2813 24.9687C30.2813 25.1005 30.2765 25.2306 30.2669 25.3597L31.3268 25.4373C31.3379 25.2827 31.3438 25.126 31.3438 24.9687C31.3438 24.7387 31.3315 24.5076 31.3071 24.2808L30.251 24.3944C30.2706 24.583 30.2813 24.7748 30.2813 24.9687Z" fill="#787882"/>
<path d="M29.783 27.2181L30.7456 27.6686C30.9092 27.3185 31.0415 26.9519 31.1387 26.579L30.1102 26.3118C30.0295 26.622 29.9195 26.927 29.783 27.2181Z" fill="#787882"/>
<path d="M4.78125 2.65625H5.84375V3.71875H4.78125V2.65625Z" fill="#787882"/>
<path d="M2.65625 2.65625H3.71875V3.71875H2.65625V2.65625Z" fill="#787882"/>
<path d="M6.90625 2.65625H7.96875V3.71875H6.90625V2.65625Z" fill="#787882"/>
<path d="M11.6875 6.90625H4.25C3.37131 6.90625 2.65625 7.62131 2.65625 8.5V12.75C2.65625 13.6287 3.37131 14.3438 4.25 14.3438H11.6875C12.5662 14.3438 13.2812 13.6287 13.2812 12.75V8.5C13.2812 7.62131 12.5662 6.90625 11.6875 6.90625ZM12.2188 12.75C12.2188 13.0427 11.9802 13.2812 11.6875 13.2812H4.25C3.95728 13.2812 3.71875 13.0427 3.71875 12.75V8.5C3.71875 8.20728 3.95728 7.96875 4.25 7.96875H11.6875C11.9802 7.96875 12.2188 8.20728 12.2188 8.5V12.75Z" fill="#787882"/>
<path d="M11.6875 15.4062H4.25C3.37131 15.4062 2.65625 16.1213 2.65625 17V21.25C2.65625 22.1287 3.37131 22.8438 4.25 22.8438H11.6875C12.5662 22.8438 13.2812 22.1287 13.2812 21.25V17C13.2812 16.1213 12.5662 15.4062 11.6875 15.4062ZM12.2188 21.25C12.2188 21.5427 11.9802 21.7812 11.6875 21.7812H4.25C3.95728 21.7812 3.71875 21.5427 3.71875 21.25V17C3.71875 16.7073 3.95728 16.4688 4.25 16.4688H11.6875C11.9802 16.4688 12.2188 16.7073 12.2188 17V21.25Z" fill="#787882"/>
<path d="M8.50001 10.9363L6.90626 9.34255L4.40567 11.8431L5.15686 12.5943L6.90626 10.8449L8.50001 12.4387L11.5319 9.40683L10.7807 8.65564L8.50001 10.9363Z" fill="#787882"/>
<path d="M10.0938 17.5312H9.03125V19.6562H7.96875V18.5938H6.90625V19.6562H5.84375V17.5312H4.78125V20.7188H11.1562V19.6562H10.0938V17.5312Z" fill="#787882"/>
<path d="M15.4062 6.90625H16.4688V7.96875H15.4062V6.90625Z" fill="#787882"/>
<path d="M17.5312 6.90625H31.3438V7.96875H17.5312V6.90625Z" fill="#787882"/>
<path d="M15.4062 9.03125H31.3438V10.0938H15.4062V9.03125Z" fill="#787882"/>
<path d="M15.4062 11.1562H18.5938V12.2188H15.4062V11.1562Z" fill="#787882"/>
<path d="M19.6562 11.1562H31.3438V12.2188H19.6562V11.1562Z" fill="#787882"/>
<path d="M15.4062 13.2812H24.9688V14.3438H15.4062V13.2812Z" fill="#787882"/>
<path d="M26.0312 13.2812H27.0938V14.3438H26.0312V13.2812Z" fill="#787882"/>
<path d="M28.1562 13.2812H29.2188V14.3438H28.1562V13.2812Z" fill="#787882"/>
<path d="M30.2812 13.2812H31.3438V14.3438H30.2812V13.2812Z" fill="#787882"/>
</svg>
