<svg width="33" height="33" viewBox="0 0 33 33" fill="none" xmlns="http://www.w3.org/2000/svg">
<path d="M29.6805 17.8324V7.49219C31.4665 7.23487 32.8443 5.69888 32.8443 3.84334C32.8443 1.80853 31.1886 0.152313 29.1532 0.152313C27.1179 0.152313 25.4622 1.80853 25.4622 3.84334H0.152283V24.935H15.9979C16.2721 29.341 19.9341 32.8443 24.4076 32.8443C29.0594 32.8443 32.8443 29.0594 32.8443 24.4077C32.8443 21.7506 31.6067 19.3799 29.6805 17.8324ZM29.1532 1.20689C30.607 1.20689 31.7897 2.38961 31.7897 3.84334C31.7897 5.29708 30.607 6.4798 29.1532 6.4798C27.6995 6.4798 26.5168 5.29708 26.5168 3.84334C26.5168 2.38961 27.6995 1.20689 29.1532 1.20689ZM1.20686 4.89792H25.6178C25.7438 5.3187 25.9442 5.70626 26.2015 6.05005L22.9766 9.27496C22.7699 9.17583 22.5421 9.11625 22.2985 9.11625C22.0549 9.11625 21.8271 9.17583 21.6209 9.27496L20.5584 8.21247C20.657 8.00577 20.7166 7.77798 20.7166 7.53438C20.7166 6.66224 20.0069 5.95251 19.1347 5.95251C18.2626 5.95251 17.5529 6.66224 17.5529 7.53438C17.5529 7.77798 17.6124 8.00577 17.7116 8.21194L15.0672 10.8563C14.8605 10.7577 14.6327 10.6981 14.3891 10.6981C13.517 10.6981 12.8072 11.4078 12.8072 12.28C12.8072 13.1521 13.517 13.8619 14.3891 13.8619C15.2613 13.8619 15.971 13.1521 15.971 12.28C15.971 12.0364 15.9114 11.8086 15.8123 11.6024L18.4566 8.95806C18.6633 9.05666 18.8911 9.11625 19.1347 9.11625C19.3783 9.11625 19.6061 9.05666 19.8123 8.95753L20.8748 10.02C20.7762 10.2267 20.7166 10.4545 20.7166 10.6981C20.7166 11.5703 21.4263 12.28 22.2985 12.28C23.1706 12.28 23.8803 11.5703 23.8803 10.6981C23.8803 10.4545 23.8208 10.2267 23.7216 10.0205L26.9471 6.79564C27.4295 7.15736 28.0022 7.40255 28.626 7.49272V17.1131C27.3831 16.3913 25.9452 15.971 24.4076 15.971C21.8872 15.971 19.6272 17.0878 18.0801 18.8463V16.4983H14.9164V22.8258H16.125C16.0596 23.1701 16.02 23.5229 15.9979 23.8804H1.20686V4.89792ZM22.2985 10.1708C22.589 10.1708 22.8258 10.4071 22.8258 10.6981C22.8258 10.9892 22.589 11.2254 22.2985 11.2254C22.0079 11.2254 21.7712 10.9892 21.7712 10.6981C21.7712 10.4071 22.0079 10.1708 22.2985 10.1708ZM18.6074 7.53438C18.6074 7.24331 18.8442 7.00709 19.1347 7.00709C19.4253 7.00709 19.662 7.24331 19.662 7.53438C19.662 7.82544 19.4253 8.06167 19.1347 8.06167C18.8442 8.06167 18.6074 7.82544 18.6074 7.53438ZM14.9164 12.28C14.9164 12.5711 14.6797 12.8073 14.3891 12.8073C14.0986 12.8073 13.8618 12.5711 13.8618 12.28C13.8618 11.9889 14.0986 11.7527 14.3891 11.7527C14.6797 11.7527 14.9164 11.9889 14.9164 12.28ZM24.4076 28.626C22.0818 28.626 20.1893 26.7335 20.1893 24.4077C20.1893 22.0818 22.0818 20.1893 24.4076 20.1893C26.7335 20.1893 28.626 22.0818 28.626 24.4077C28.626 26.7335 26.7335 28.626 24.4076 28.626ZM17.0256 20.3322C16.773 20.7878 16.5642 21.2692 16.3986 21.7712H15.971V17.5529H17.0256V20.3322ZM23.8803 17.0525V19.1616C21.2196 19.4274 19.1347 21.6784 19.1347 24.4077C19.1347 25.1791 19.3056 25.9104 19.6045 26.5717L17.7754 27.6278C17.2998 26.6534 17.0256 25.563 17.0256 24.4077C17.0256 20.5152 20.0559 17.3246 23.8803 17.0525ZM24.4076 31.7897C21.8693 31.7897 19.6262 30.5016 18.2974 28.5443L20.1339 27.4839C21.0926 28.8116 22.6486 29.6806 24.4076 29.6806C26.1667 29.6806 27.7227 28.8116 28.6813 27.4839L30.5179 28.5443C29.1891 30.5016 26.946 31.7897 24.4076 31.7897ZM31.0399 27.6278L29.2107 26.5717C29.5097 25.9104 29.6805 25.1791 29.6805 24.4077C29.6805 21.6784 27.5956 19.4269 24.9349 19.1616V17.0525C28.7594 17.3246 31.7897 20.5152 31.7897 24.4077C31.7897 25.563 31.5155 26.6534 31.0399 27.6278Z" fill="#787882"/>
<path d="M24.4076 21.2439C22.6628 21.2439 21.2439 22.6628 21.2439 24.4076C21.2439 26.1524 22.6628 27.5714 24.4076 27.5714C26.1524 27.5714 27.5714 26.1524 27.5714 24.4076C27.5714 22.6628 26.1524 21.2439 24.4076 21.2439ZM24.4076 26.5168C23.2444 26.5168 22.2985 25.5708 22.2985 24.4076C22.2985 23.2444 23.2444 22.2985 24.4076 22.2985C25.5708 22.2985 26.5168 23.2444 26.5168 24.4076C26.5168 25.5708 25.5708 26.5168 24.4076 26.5168Z" fill="#787882"/>
<path d="M2.26144 5.95251H3.31602V7.00709H2.26144V5.95251Z" fill="#787882"/>
<path d="M4.37061 5.95251H11.7527V7.00709H4.37061V5.95251Z" fill="#787882"/>
<path d="M2.26144 8.06165H3.31602V9.11623H2.26144V8.06165Z" fill="#787882"/>
<path d="M4.37061 8.06165H11.7527V9.11623H4.37061V8.06165Z" fill="#787882"/>
<path d="M2.26144 10.1708H3.31602V11.2254H2.26144V10.1708Z" fill="#787882"/>
<path d="M4.37061 10.1708H11.7527V11.2254H4.37061V10.1708Z" fill="#787882"/>
<path d="M2.26144 12.28H3.31602V13.3345H2.26144V12.28Z" fill="#787882"/>
<path d="M4.37061 12.28H11.7527V13.3345H4.37061V12.28Z" fill="#787882"/>
<path d="M2.26144 22.8258H5.42519V17.5529H2.26144V22.8258ZM3.31602 18.6074H4.3706V21.7712H3.31602V18.6074Z" fill="#787882"/>
<path d="M6.47977 22.8258H9.64351V18.6075H6.47977V22.8258ZM7.53435 19.6621H8.58893V21.7712H7.53435V19.6621Z" fill="#787882"/>
<path d="M10.6981 22.8257H13.8618V14.3891H10.6981V22.8257ZM11.7527 15.4437H12.8073V21.7712H11.7527V15.4437Z" fill="#787882"/>
</svg>
