<svg width="36" height="30" viewBox="0 0 36 30" fill="none" xmlns="http://www.w3.org/2000/svg">
<g clip-path="url(#clip0)">
<path d="M19.4726 20.2927L19.3312 20.1513L16.5391 17.3589C16.0684 16.8882 15.3042 16.888 14.8333 17.3589L9.45165 22.7405C8.98081 23.2113 8.98073 23.975 9.45161 24.4462C9.45164 24.4462 9.45166 24.4463 9.45168 24.4463M19.4726 20.2927L11.2988 24.5877C10.7496 25.1367 9.85949 25.1367 9.31023 24.5877L9.45168 24.4463M19.4726 20.2927L19.6141 20.1513L24.8389 14.9264C25.3097 14.4556 26.0734 14.4555 26.5446 14.9264M19.4726 20.2927L26.5446 14.9264M9.45168 24.4463C9.92284 24.9171 10.6863 24.9171 11.1574 24.4463L9.45168 24.4463ZM26.5446 14.9264C26.5447 14.9264 26.5447 14.9265 26.5447 14.9265C27.0155 15.3976 27.0155 16.1611 26.5447 16.6322C26.5447 16.6322 26.5446 16.6322 26.5446 16.6322L20.3254 22.8512C19.8546 23.322 19.0906 23.3219 18.6196 22.8512C18.6196 22.8512 18.6196 22.8512 18.6196 22.8512L15.8275 20.059L15.686 19.9176L15.5446 20.059L11.1574 24.4462L24.6975 14.785C25.2465 14.236 26.1368 14.236 26.6861 14.785L26.5446 14.9264ZM13.8735 2.92752H13.6735V3.12752V10.0886V10.2886H13.8735H22.1226H22.3226V10.0886V3.12752V2.92752H22.1226H13.8735ZM2.8122 2.92752H2.6122V3.12752V10.0886V10.2886H2.8122H11.0613H11.2613V10.0886V3.12752V2.92752H11.0613H2.8122ZM33.1841 26.6689H33.3841V26.4689V12.9008V12.7008H33.1841H2.8122H2.6122V12.9008V26.4689V26.6689H2.8122H33.1841ZM33.1841 10.2886H33.3841V10.0886V3.12752V2.92752H33.1841H24.935H24.735V3.12752V10.0886V10.2886H24.935H33.1841ZM1.40609 0.515308H1.4126H1.41978H1.42763H1.43614H1.4453H1.45513H1.46561H1.47675H1.48853H1.50096H1.51404H1.52776H1.54212H1.55712H1.57275H1.58902H1.60591H1.62343H1.64157H1.66034H1.67972H1.69973H1.72034H1.74157H1.76341H1.78585H1.80889H1.83254H1.85678H1.88163H1.90706H1.93308H1.9597H1.9869H2.01468H2.04304H2.07198H2.10149H2.13158H2.16224H2.19346H2.22525H2.2576H2.29051H2.32398H2.358H2.39257H2.4277H2.46337H2.49958H2.53633H2.57363H2.61146H2.64982H2.68872H2.72814H2.76809H2.80856H2.84956H2.89107H2.9331H2.97564H3.01869H3.06224H3.10631H3.15087H3.19594H3.2415H3.28756H3.33411H3.38115H3.42868H3.47669H3.52519H3.57416H3.62361H3.67354H3.72393H3.7748H3.82613H3.87792H3.93018H3.98289H4.03606H4.08969H4.14376H4.19828H4.25325H4.30867H4.36452H4.42081H4.47753H4.53469H4.59228H4.6503H4.70874H4.7676H4.82688H4.88658H4.9467H5.00723H5.06816H5.1295H5.19125H5.2534H5.31595H5.37889H5.44223H5.50596H5.57008H5.63458H5.69947H5.76474H5.83039H5.89641H5.96281H6.02957H6.09671H6.16421H6.23207H6.30029H6.36888H6.43781H6.5071H6.57674H6.64672H6.71705H6.78773H6.85874H6.93009H7.00177H7.07378H7.14613H7.2188H7.29179H7.36511H7.43874H7.51269H7.58696H7.66153H7.73642H7.81161H7.8871H7.96289H8.03899H8.11537H8.19205H8.26902H8.34628H8.42383H8.50165H8.57976H8.65814H8.7368H8.81573H8.89493H8.9744H9.05413H9.13412H9.21437H9.29488H9.37565H9.45666H9.53793H9.61944H9.70119H9.78318H9.86542H9.94789H10.0306H10.1135H10.1967H10.2801H10.3637H10.4475H10.5316H10.6158H10.7003H10.785H10.8699H10.955H11.0403H11.1258H11.2115H11.2974H11.3835H11.4697H11.5562H11.6428H11.7297H11.8167H11.9038H11.9912H12.0787H12.1664H12.2543H12.3423H12.4305H12.5188H12.6073H12.696H12.7848H12.8738H12.9628H13.0521H13.1415H13.231H13.3206H13.4104H13.5003H13.5904H13.6805H13.7708H13.8612H13.9518H14.0424H14.1332H14.224H14.315H14.406H14.4972H14.5885H14.6799H14.7713H14.8629H14.9545H15.0462H15.138H15.2299H15.3219H15.4139H15.5061H15.5982H15.6905H15.7828H15.8752H15.9676H16.0601H16.1527H16.2453H16.3379H16.4306H16.5234H16.6162H16.709H16.8019H16.8948H16.9877H17.0806H17.1736H17.2666H17.3597H17.4527H17.5458H17.6388H17.7319H17.825H17.9181H18.0112H18.1043H18.1974H18.2905H18.3836H18.4767H18.5698H18.6628H18.7559H18.8489H18.9419H19.0348H19.1278H19.2207H19.3135H19.4064H19.4992H19.5919H19.6846H19.7773H19.8699H19.9625H20.055H20.1475H20.2399H20.3322H20.4245H20.5167H20.6088H20.7009H20.7929H20.8848H20.9766H21.0684H21.16H21.2516H21.3431H21.4345H21.5258H21.617H21.7081H21.7991H21.8899H21.9807H22.0714H22.162H22.2524H22.3427H22.4329H22.523H22.6129H22.7028H22.7924H22.882H22.9714H23.0607H23.1498H23.2388H23.3277H23.4164H23.5049H23.5933H23.6815H23.7696H23.8575H23.9452H24.0328H24.1202H24.2075H24.2945H24.3814H24.4681H24.5546H24.6409H24.7271H24.813H24.8987H24.9843H25.0697H25.1548H25.2398H25.3245H25.409H25.4934H25.5775H25.6614H25.745H25.8285H25.9117H25.9947H26.0775H26.16H26.2423H26.3244H26.4062H26.4878H26.5691H26.6502H26.731H26.8116H26.8919H26.972H27.0518H27.1313H27.2106H27.2896H27.3683H27.4468H27.525H27.6029H27.6805H27.7578H27.8349H27.9117H27.9881H28.0643H28.1402H28.2158H28.291H28.366H28.4407H28.515H28.589H28.6628H28.7362H28.8093H28.882H28.9544H29.0266H29.0983H29.1698H29.2409H29.3116H29.3821H29.4521H29.5219H29.5913H29.6603H29.729H29.7973H29.8653H29.9329H30.0001H30.067H30.1335H30.1996H30.2653H30.3307H30.3957H30.4603H30.5245H30.5884H30.6518H30.7149H30.7775H30.8398H30.9017H30.9631H31.0242H31.0848H31.145H31.2048H31.2642H31.3232H31.3818H31.4399H31.4976H31.5549H31.6117H31.6682H31.7241H31.7797H31.8348H31.8894H31.9436H31.9974H32.0506H32.1035H32.1559H32.2078H32.2593H32.3102H32.3608H32.4108H32.4604H32.5095H32.5581H32.6063H32.6539H32.7011H32.7478H32.794H32.8397H32.8849H32.9296H32.9738H33.0175H33.0607H33.1034H33.1456H33.1872H33.2283H33.269H33.3091H33.3486H33.3877H33.4262H33.4642H33.5016H33.5385H33.5749H33.6107H33.646H33.6807H33.7149H33.7485H33.7815H33.8141H33.846H33.8774H33.9082H33.9384H33.9681H33.9972H34.0257H34.0537H34.081H34.1078H34.134H34.1596H34.1846H34.209H34.2328H34.256H34.2786H34.3006H34.322H34.3428H34.363H34.3825H34.4015H34.4198H34.4375H34.4546H34.471H34.4868H34.502H34.5165H34.5304H34.5437H34.5563H34.5682H34.5796H34.5902C35.2564 0.515308 35.7963 1.05522 35.7963 1.72141V1.72677V1.73266V1.73911V1.74609V1.75361V1.76167V1.77027V1.77939V1.78905V1.79924V1.80995V1.82119V1.83295V1.84523V1.85803V1.87134V1.88517V1.89951V1.91435V1.92971V1.94557V1.96193V1.97879V1.99615V2.01401V2.03236V2.0512V2.07053V2.09035V2.11066V2.13145V2.15272V2.17447V2.19669V2.21939V2.24257V2.26621V2.29032V2.3149V2.33994V2.36544V2.3914V2.41782V2.4447V2.47202V2.4998V2.52803V2.5567V2.58582V2.61538V2.64538V2.67582V2.7067V2.73801V2.76974V2.80191V2.83451V2.86753V2.90097V2.93484V2.96912V3.00382V3.03894V3.07446V3.1104V3.14674V3.18349V3.22064V3.25819V3.29615V3.3345V3.37324V3.41238V3.45191V3.49182V3.53212V3.57281V3.61388V3.65532V3.69715V3.73935V3.78192V3.82487V3.86818V3.91186V3.9559V4.00031V4.04508V4.0902V4.13569V4.18152V4.22771V4.27424V4.32113V4.36836V4.41593V4.46384V4.51209V4.56068V4.6096V4.65886V4.70844V4.75835V4.80859V4.85915V4.91003V4.96124V5.01276V5.06459V5.11674V5.16919V5.22196V5.27503V5.32841V5.38209V5.43607V5.49034V5.54491V5.59978V5.65493V5.71038V5.76611V5.82213V5.87843V5.93501V5.99186V6.049V6.10641V6.16409V6.22204V6.28025V6.33873V6.39748V6.45649V6.51575V6.57527V6.63505V6.69508V6.75536V6.81588V6.87666V6.93767V6.99893V7.06043V7.12216V7.18413V7.24633V7.30877V7.37143V7.43432V7.49743V7.56076V7.62432V7.68809V7.75208V7.81628V7.8807V7.94532V8.01015V8.07518V8.14042V8.20586V8.27149V8.33732V8.40335V8.46957V8.53598V8.60257V8.66935V8.73632V8.80346V8.87079V8.93829V9.00596V9.07381V9.14183V9.21002V9.27837V9.34689V9.41557V9.48441V9.5534V9.62255V9.69186V9.76131V9.83091V9.90066V9.97056V10.0406V10.1108V10.1811V10.2515V10.3221V10.3928V10.4637V10.5347V10.6058V10.677V10.7483V10.8198V10.8914V10.963V11.0348V11.1068V11.1788V11.2509V11.3231V11.3955V11.4679V11.5404V11.613V11.6858V11.7586V11.8315V11.9044V11.9775V12.0506V12.1239V12.1972V12.2705V12.344V12.4175V12.4911V12.5648V12.6385V12.7123V12.7861V12.86V12.934V13.008V13.0821V13.1562V13.2303V13.3045V13.3788V13.4531V13.5274V13.6018V13.6762V13.7506V13.8251V13.8996V13.9741V14.0486V14.1232V14.1978V14.2724V14.347V14.4216V14.4962V14.5709V14.6455V14.7202V14.7948V14.8695V14.9441V15.0188V15.0934V15.1681V15.2427V15.3173V15.3919V15.4665V15.541V15.6156V15.6901V15.7646V15.839V15.9135V15.9879V16.0622V16.1365V16.2108V16.2851V16.3593V16.4334V16.5075V16.5816V16.6556V16.7296V16.8034V16.8773V16.9511V17.0248V17.0984V17.172V17.2455V17.319V17.3923V17.4656V17.5388V17.612V17.685V17.758V17.8309V17.9037V17.9764V18.049V18.1215V18.1939V18.2662V18.3384V18.4106V18.4826V18.5545V18.6262V18.6979V18.7695V18.8409V18.9123V18.9835V19.0545V19.1255V19.1963V19.267V19.3376V19.408V19.4783V19.5485V19.6185V19.6884V19.7581V19.8277V19.8971V19.9664V20.0355V20.1045V20.1733V20.242V20.3105V20.3788V20.447V20.515V20.5828V20.6505V20.718V20.7853V20.8524V20.9193V20.9861V21.0526V21.119V21.1852V21.2512V21.317V21.3826V21.4481V21.5133V21.5783V21.6431V21.7077V21.7721V21.8362V21.9002V21.9639V22.0275V22.0908V22.1539V22.2167V22.2794V22.3418V22.4039V22.4659V22.5276V22.589V22.6503V22.7113V22.772V22.8325V22.8927V22.9527V23.0125V23.072V23.1312V23.1902V23.2489V23.3073V23.3655V23.4234V23.4811V23.5384V23.5955V23.6524V23.7089V23.7652V23.8212V23.8769V23.9323V23.9874V24.0422V24.0967V24.151V24.2049V24.2586V24.3119V24.3649V24.4177V24.4701V24.5222V24.574V24.6255V24.6766V24.7275V24.778V24.8282V24.878V24.9276V24.9768V25.0257V25.0742V25.1224V25.1703V25.2178V25.265V25.3119V25.3583V25.4045V25.4503V25.4957V25.5408V25.5855V25.6299V25.6739V25.7175V25.7608V25.8037V25.8462V25.8884V25.9301V25.9715V26.0125V26.0532V26.0934V26.1333V26.1728V26.2119V26.2506V26.2889V26.3268V26.3643V26.4014V26.4381V26.4744V26.5102V26.5457V26.5808V26.6154V26.6497V26.6835V26.7169V26.7498V26.7824V26.8145V26.8462V26.8774V26.9082V26.9386V26.9686V26.9981V27.0271V27.0557V27.0839V27.1116V27.1389V27.1657V27.1921V27.218V27.2434V27.2684V27.2929V27.317V27.3406V27.3637V27.3863V27.4085V27.4302V27.4514V27.4721V27.4924V27.5121V27.5314V27.5502V27.5684V27.5862V27.6035V27.6203V27.6366V27.6524V27.6677V27.6825V27.6968V27.7105V27.7238V27.7365V27.7487V27.7604V27.7716V27.7822V27.7924V27.802V27.811V27.8195V27.8275V27.835V27.8419V27.8483V27.8541V27.8594V27.8641V27.8683V27.8719V27.875C35.7963 28.5412 35.2564 29.0811 34.5902 29.0811H1.40609C0.739894 29.0811 0.199985 28.5412 0.199985 27.875V1.72141C0.199985 1.05522 0.739894 0.515308 1.40609 0.515308Z" fill="#787882" stroke="white" stroke-width="0.4"/>
</g>
<defs>
<clipPath id="clip0">
<rect width="36" height="30" fill="white"/>
</clipPath>
</defs>
</svg>
