<svg width="43" height="29" viewBox="0 0 43 29" fill="none" xmlns="http://www.w3.org/2000/svg">
<path d="M17.0964 23.7574H0.131098V0.145624H42.8689V23.7574H25.8989H25.7678V23.8885V25.8166V25.9411L25.8922 25.9475C28.3694 26.0744 30.5391 26.3706 32.0866 26.732C32.8613 26.9129 33.4744 27.1089 33.891 27.3054C34.0999 27.4039 34.2526 27.4995 34.3512 27.5886C34.4518 27.6796 34.4787 27.7477 34.4787 27.792C34.4787 27.8432 34.4417 27.9199 34.276 28.011C34.1154 28.0993 33.8689 28.1804 33.5373 28.2522C32.8764 28.3954 31.9154 28.4947 30.724 28.5628C28.3433 28.699 25.0699 28.7097 21.5 28.7097C17.9299 28.7097 14.6565 28.699 12.2758 28.5628C11.0845 28.4947 10.1235 28.3954 9.46262 28.2522C9.13102 28.1804 8.88452 28.0993 8.72395 28.011C8.55826 27.9199 8.52134 27.8432 8.52134 27.792C8.52134 27.7476 8.54823 27.6795 8.64864 27.5886C8.74707 27.4995 8.89963 27.4039 9.1082 27.3054C9.52431 27.1089 10.1368 26.9129 10.9109 26.732C12.4564 26.3707 14.6237 26.0746 17.0998 25.9477H17.1007H17.2321L17.2318 25.8163L17.2275 23.8883L17.2272 23.7574H17.0964ZM1.78001 21.9774V22.1085H1.91111H41.0889H41.22V21.9774V1.91076V1.77967H41.0889H1.91111H1.78001V1.91076V21.9774Z" fill="#787882" stroke="white" stroke-width="0.262195"/>
<g clip-path="url(#clip0)">
<path d="M38.9793 5.663C38.8817 5.56449 38.7458 5.51359 38.6077 5.52373L36.431 5.68291C36.1697 5.70202 35.9734 5.92929 35.9925 6.1906C36.0116 6.45191 36.239 6.64734 36.5002 6.62908L37.4046 6.56292L34.2182 9.75349L30.5124 6.61527C30.324 6.45572 30.0449 6.46731 29.8704 6.6418L25.3096 11.2026C25.1244 11.3878 25.1244 11.6882 25.3096 11.8735C25.4023 11.9661 25.5237 12.0124 25.6451 12.0124C25.7664 12.0124 25.8878 11.9661 25.9805 11.8735L30.2324 7.62145L33.9384 10.7598C34.1268 10.9195 34.4062 10.9078 34.5806 10.7331L38.0628 7.24636L37.9909 8.115C37.9692 8.37608 38.1634 8.60522 38.4245 8.62687C38.4378 8.628 38.451 8.62856 38.4641 8.62856C38.7084 8.62851 38.9158 8.44107 38.9363 8.19333L39.115 6.03598C39.1265 5.89778 39.0769 5.76152 38.9793 5.663Z" fill="#3B3B3D"/>
<path d="M29.4018 11.0999C29.2246 11.0266 29.0205 11.0671 28.8848 11.2028L26.9137 13.1738C26.8248 13.2628 26.7748 13.3834 26.7748 13.5092V18.4369C26.7748 18.6989 26.9872 18.9113 27.2491 18.9113H29.2202C29.4822 18.9113 29.6946 18.6989 29.6946 18.4369V11.5382C29.6946 11.3463 29.579 11.1733 29.4018 11.0999ZM28.7459 17.9626H27.7235V13.7057L28.7459 12.6833V17.9626H28.7459Z" fill="#3B3B3D"/>
<path d="M31.5269 11.2028C31.3912 11.0671 31.1872 11.0266 31.0099 11.0999C30.8327 11.1734 30.7171 11.3463 30.7171 11.5382V18.437C30.7171 18.699 30.9295 18.9113 31.1914 18.9113H33.1625C33.4245 18.9113 33.6368 18.699 33.6368 18.437V13.5093C33.6368 13.3835 33.5869 13.2629 33.4979 13.1739L31.5269 11.2028ZM32.6881 17.9626H31.6658V12.6833L32.6881 13.7058V17.9626Z" fill="#3B3B3D"/>
<path d="M37.2861 11.0999C37.1088 11.0266 36.9048 11.0671 36.7691 11.2028L34.7981 13.1739C34.7091 13.2629 34.6591 13.3835 34.6591 13.5093V18.437C34.6591 18.699 34.8715 18.9113 35.1335 18.9113H37.1045C37.3665 18.9113 37.5789 18.699 37.5789 18.437V11.5382C37.5789 11.3463 37.4634 11.1733 37.2861 11.0999ZM36.6302 17.9626H35.6079V13.7057L36.6302 12.6833V17.9626Z" fill="#3B3B3D"/>
</g>
<g clip-path="url(#clip1)">
<path d="M17.3924 15.3598L11.9097 12.1617L16.7835 8.10039C17.6379 9.255 18.1498 10.6776 18.1498 12.221C18.1498 13.3511 17.8729 14.4157 17.3924 15.3598Z" fill="#3B3B3D"/>
<path d="M11.6084 19.1985V12.9332L16.9831 16.0683C15.8074 17.83 13.8483 19.0672 11.6084 19.1985Z" fill="#3B3B3D"/>
<path d="M10.9378 11.907C10.8534 11.9777 10.7909 12.1326 10.7909 12.2212V19.1985C7.14915 18.9851 4.19513 15.9156 4.19513 12.2212C4.19513 8.38887 7.36736 5.2439 11.1997 5.2439C13.1949 5.2439 14.9913 6.12105 16.26 7.47201L10.9378 11.907Z" fill="#3B3B3D"/>
</g>
<defs>
<clipPath id="clip0">
<rect width="13.946" height="13.946" fill="white" transform="translate(25.1707 5.2439)"/>
</clipPath>
<clipPath id="clip1">
<rect width="13.9547" height="13.9547" fill="white" transform="matrix(1 0 0 -1 4.19513 19.1985)"/>
</clipPath>
</defs>
</svg>
