<svg width="43" height="29" viewBox="0 0 43 29" fill="none" xmlns="http://www.w3.org/2000/svg">
<path d="M17.0964 23.7574H0.131098V0.145624H42.8689V23.7574H25.8989H25.7678V23.8885V25.8166V25.9411L25.8922 25.9475C28.3694 26.0744 30.5391 26.3706 32.0866 26.732C32.8613 26.9129 33.4744 27.1089 33.891 27.3054C34.0999 27.4039 34.2526 27.4995 34.3512 27.5886C34.4518 27.6796 34.4787 27.7477 34.4787 27.792C34.4787 27.8432 34.4417 27.9199 34.276 28.011C34.1154 28.0993 33.8689 28.1804 33.5373 28.2522C32.8764 28.3954 31.9154 28.4947 30.724 28.5628C28.3433 28.699 25.0699 28.7097 21.5 28.7097C17.9299 28.7097 14.6565 28.699 12.2758 28.5628C11.0845 28.4947 10.1235 28.3954 9.46262 28.2522C9.13102 28.1804 8.88452 28.0993 8.72395 28.011C8.55826 27.9199 8.52134 27.8432 8.52134 27.792C8.52134 27.7476 8.54823 27.6795 8.64864 27.5886C8.74707 27.4995 8.89963 27.4039 9.1082 27.3054C9.52431 27.1089 10.1368 26.9129 10.9109 26.732C12.4564 26.3707 14.6237 26.0746 17.0998 25.9477H17.1007H17.2321L17.2318 25.8163L17.2275 23.8883L17.2272 23.7574H17.0964ZM1.78001 21.9774V22.1085H1.91111H41.0889H41.22V21.9774V1.91076V1.77967H41.0889H1.91111H1.78001V1.91076V21.9774Z" fill="#787882" stroke="white" stroke-width="0.262195"/>
<g clip-path="url(#clip0)">
<path d="M10.3424 18.5908V13.1545C11.3418 13.1545 12.1545 12.3418 12.1545 11.3424H17.5909C17.5909 15.339 14.339 18.5908 10.3424 18.5908ZM11.2485 13.9056V17.6204C14.0219 17.2218 16.2218 15.0219 16.6205 12.2484H12.9057C12.632 13.0195 12.0195 13.632 11.2485 13.9056Z" fill="#3B3B3D"/>
<path d="M12.8966 10.4362C12.5242 9.3816 11.5248 8.62413 10.3424 8.62413C8.84105 8.62413 7.62422 9.84097 7.62422 11.3423C7.62422 12.5247 8.38168 13.5241 9.43633 13.8965V17.6077C6.3648 17.1673 4 14.5361 4 11.3423C4 7.83949 6.83958 4.99992 10.3424 4.99992C13.5362 4.99992 16.1674 7.36472 16.6077 10.4362H12.8966Z" fill="#3B3B3D"/>
</g>
<g clip-path="url(#clip1)">
<path d="M26.0234 19C24.9077 19 24 18.0923 24 16.9766V11.7812C24 10.6655 24.9077 9.75781 26.0234 9.75781C27.1392 9.75781 28.0469 10.6655 28.0469 11.7812V16.9766C28.0469 18.0923 27.1392 19 26.0234 19ZM26.0234 10.8516C25.5108 10.8516 25.0938 11.2686 25.0938 11.7812V16.9766C25.0938 17.4892 25.5108 17.9062 26.0234 17.9062C26.5361 17.9062 26.9531 17.4892 26.9531 16.9766V11.7812C26.9531 11.2686 26.5361 10.8516 26.0234 10.8516ZM31 19C29.8843 19 28.9766 18.0923 28.9766 16.9766V14.7344C28.9766 13.6186 29.8843 12.7109 31 12.7109C32.1157 12.7109 33.0234 13.6186 33.0234 14.7344V16.9766C33.0234 18.0923 32.1157 19 31 19ZM31 13.8047C30.4874 13.8047 30.0703 14.2217 30.0703 14.7344V16.9766C30.0703 17.4892 30.4874 17.9062 31 17.9062C31.5126 17.9062 31.9297 17.4892 31.9297 16.9766V14.7344C31.9297 14.2218 31.5126 13.8047 31 13.8047ZM35.9766 19C34.8608 19 33.9531 18.0923 33.9531 16.9766V12.1914C33.9531 11.0757 34.8608 10.168 35.9766 10.168C37.0923 10.168 38 11.0757 38 12.1914V16.9766C38 18.0923 37.0923 19 35.9766 19ZM35.9766 11.2617C35.4639 11.2617 35.0469 11.6788 35.0469 12.1914V16.9766C35.0469 17.4892 35.4639 17.9062 35.9766 17.9062C36.4892 17.9062 36.9062 17.4892 36.9062 16.9766V12.1914C36.9062 11.6788 36.4892 11.2617 35.9766 11.2617ZM32.9361 11.0443L35.9625 7.86535C36.1708 7.6466 36.1623 7.30043 35.9435 7.09218C35.7248 6.8839 35.3786 6.89243 35.1704 7.11118L32.139 10.2953C32.1355 10.299 32.132 10.3027 32.1286 10.3065C31.8435 10.6233 31.3609 10.6678 31.0229 10.4112L27.5508 7.25706C27.5416 7.2487 27.5321 7.24063 27.5223 7.23289C26.7884 6.65249 25.7508 6.68536 25.0551 7.31104C25.0486 7.31684 25.0423 7.32277 25.0362 7.32884L24.1623 8.19323C23.9476 8.40564 23.9457 8.75189 24.1581 8.96662C24.3705 9.18132 24.7167 9.18324 24.9315 8.97083L25.7949 8.11675C26.0889 7.85947 26.5202 7.84476 26.8309 8.08079L30.3031 11.2349C30.3123 11.2433 30.3218 11.2514 30.3316 11.2591C30.6809 11.5354 31.1 11.6705 31.5172 11.6705C32.0405 11.6705 32.5608 11.4577 32.9361 11.0443ZM38 8.11719V6.64062C38 5.73598 37.264 5 36.3594 5H34.8828C34.5808 5 34.3359 5.24484 34.3359 5.54688C34.3359 5.84891 34.5808 6.09375 34.8828 6.09375H36.3594C36.6609 6.09375 36.9062 6.33908 36.9062 6.64062V8.11719C36.9062 8.41923 37.1511 8.66406 37.4531 8.66406C37.7552 8.66406 38 8.41923 38 8.11719Z" fill="#3B3B3D"/>
</g>
<defs>
<clipPath id="clip0">
<rect width="13.5908" height="13.5908" fill="white" transform="matrix(1 0 0 -1 4 18.5908)"/>
</clipPath>
<clipPath id="clip1">
<rect width="14" height="14" fill="white" transform="translate(24 5)"/>
</clipPath>
</defs>
</svg>
