<svg width="45" height="30" viewBox="0 0 45 30" fill="none" xmlns="http://www.w3.org/2000/svg">
<path d="M17.8398 26.171C12.6579 26.4589 8.9491 29.7305 8.9491 29.7305H35.9194C35.9194 29.7305 32.2106 26.4589 27.0297 26.171H17.8398Z" fill="#787882"/>
<path d="M42.6316 24.7173H42.8316V24.5173V2.31335V2.11335L42.6316 2.11335L2.36842 2.11333H2.16842V2.31333V24.5173V24.7173H2.36842H42.6316ZM44.8 26.5376L0.2 26.5377V0.29294H44.8V26.5376Z" fill="#787882" stroke="white" stroke-width="0.4"/>
<g clip-path="url(#clip0)">
<path d="M5.73688 12.6751C5.73688 10.894 6.45234 9.27032 7.62072 8.02992L10.2875 10.5301C9.79338 11.1261 9.48769 11.8645 9.48769 12.6759C9.48769 14.464 10.9242 15.9286 12.7696 16.1475V19.6859C8.85192 19.4573 5.73688 16.4051 5.73688 12.6751Z" fill="#3B3B3D"/>
<path d="M13.7063 19.6875V16.1491C15.397 15.9478 16.7276 14.7004 16.9414 13.1163H20.7157C20.4812 16.6432 17.4684 19.4677 13.7063 19.6875Z" fill="#3B3B3D"/>
<path d="M16.9424 12.2371C16.7079 10.507 15.1467 9.16022 13.2385 9.16022C12.3739 9.16022 11.5862 9.44769 10.9505 9.91009L8.28363 7.40995C9.60673 6.31459 11.3387 5.64384 13.2385 5.64384C17.2162 5.64384 20.4719 8.5642 20.7166 12.2371H16.9424Z" fill="#3B3B3D"/>
</g>
<g clip-path="url(#clip1)">
<path d="M39.8086 6.01793C39.711 5.92557 39.575 5.87785 39.437 5.88736L37.2602 6.03659C36.999 6.05451 36.8027 6.26757 36.8218 6.51255C36.8409 6.75753 37.0682 6.94075 37.3295 6.92362L38.2339 6.8616L35.0475 9.85276L31.3417 6.91068C31.1533 6.7611 30.8742 6.77197 30.6997 6.93555L26.1389 11.2113C25.9537 11.385 25.9537 11.6666 26.1389 11.8402C26.2316 11.927 26.353 11.9705 26.4743 11.9705C26.5957 11.9705 26.7171 11.927 26.8097 11.8402L31.0617 7.85397L34.7677 10.7962C34.9561 10.9459 35.2354 10.9349 35.4099 10.7711L38.8921 7.50233L38.8202 8.31668C38.7985 8.56144 38.9927 8.77626 39.2538 8.79655C39.2671 8.79761 39.2803 8.79814 39.2934 8.79814C39.5377 8.79809 39.7451 8.62236 39.7656 8.3901L39.9442 6.36759C39.9558 6.23804 39.9062 6.11029 39.8086 6.01793Z" fill="#3B3B3D"/>
<path d="M30.2311 11.115C30.0539 11.0462 29.8498 11.0843 29.7141 11.2114L27.743 13.0592C27.6541 13.1427 27.6041 13.2558 27.6041 13.3737V17.9935C27.6041 18.2391 27.8164 18.4382 28.0784 18.4382H30.0495C30.3115 18.4382 30.5238 18.2391 30.5238 17.9935V11.5258C30.5238 11.346 30.4083 11.1838 30.2311 11.115ZM29.5751 17.5488H28.5528V13.5579L29.5752 12.5994V17.5488H29.5751Z" fill="#3B3B3D"/>
<path d="M32.3562 11.2114C32.2205 11.0842 32.0165 11.0462 31.8392 11.115C31.662 11.1839 31.5464 11.346 31.5464 11.5259V17.9935C31.5464 18.2391 31.7587 18.4382 32.0207 18.4382H33.9918C34.2537 18.4382 34.4661 18.2391 34.4661 17.9935V13.3738C34.4661 13.2559 34.4162 13.1428 34.3272 13.0593L32.3562 11.2114ZM33.5174 17.5488H32.4951V12.5994L33.5174 13.558V17.5488Z" fill="#3B3B3D"/>
<path d="M38.1154 11.115C37.9381 11.0462 37.7341 11.0843 37.5984 11.2114L35.6273 13.0593C35.5384 13.1428 35.4884 13.2558 35.4884 13.3738V17.9935C35.4884 18.2391 35.7008 18.4382 35.9628 18.4382H37.9338C38.1958 18.4382 38.4082 18.2391 38.4082 17.9935V11.5259C38.4082 11.346 38.2927 11.1838 38.1154 11.115ZM37.4595 17.5488H36.4371V13.558L37.4595 12.5994V17.5488Z" fill="#3B3B3D"/>
</g>
<defs>
<clipPath id="clip0">
<rect width="14.9798" height="14.0436" fill="white" transform="matrix(1 0 0 -1 5.73688 19.6875)"/>
</clipPath>
<clipPath id="clip1">
<rect width="13.9459" height="13.0743" fill="white" transform="translate(26 5.625)"/>
</clipPath>
</defs>
</svg>
