<svg width="31" height="31" viewBox="0 0 31 31" fill="none" xmlns="http://www.w3.org/2000/svg">
<g clip-path="url(#clip0)">
<path d="M2.5135 2.93253C1.12266 2.93253 -1.52588e-05 4.0552 -1.52588e-05 5.44604C-1.52588e-05 6.83687 1.12266 7.95955 2.5135 7.95955C3.90433 7.95955 5.02701 6.83687 5.02701 5.44604C5.02701 4.0552 3.90433 2.93253 2.5135 2.93253Z" fill="#787882"/>
<path d="M2.5135 12.9863C1.12266 12.9863 -1.52588e-05 14.1089 -1.52588e-05 15.4998C-1.52588e-05 16.8906 1.12266 18.0133 2.5135 18.0133C3.90433 18.0133 5.02701 16.8906 5.02701 15.4998C5.02701 14.1089 3.90433 12.9863 2.5135 12.9863Z" fill="#787882"/>
<path d="M2.5135 23.0404C1.11433 23.0404 -1.52588e-05 24.1715 -1.52588e-05 25.5539C-1.52588e-05 26.9363 1.13107 28.0674 2.5135 28.0674C3.89593 28.0674 5.02701 26.9363 5.02701 25.5539C5.02701 24.1715 3.91266 23.0404 2.5135 23.0404Z" fill="#787882"/>
<path d="M30.9999 23.8781H7.54047V27.2295H30.9999V23.8781Z" fill="#787882"/>
<path d="M30.9999 3.77026H7.54047V7.12164H30.9999V3.77026Z" fill="#787882"/>
<path d="M30.9999 13.8244H7.54047V17.1758H30.9999V13.8244Z" fill="#787882"/>
</g>
<defs>
<clipPath id="clip0">
<rect width="31" height="31" fill="white"/>
</clipPath>
</defs>
</svg>
