<svg width="36" height="36" viewBox="0 0 36 36" fill="none" xmlns="http://www.w3.org/2000/svg">
<g clip-path="url(#clip0)">
<path d="M34.1218 16.3674H10.005C9.23894 16.3674 8.61795 16.9884 8.61795 17.7544C8.61795 18.5205 9.23894 19.1415 10.005 19.1415H34.1218C34.8879 19.1415 35.5089 18.5205 35.5089 17.7544C35.5089 16.9884 34.8879 16.3674 34.1218 16.3674Z" fill="#787882"/>
<path d="M34.1218 5.96436H10.005C9.23894 5.96436 8.61795 6.58535 8.61795 7.35142C8.61795 8.1175 9.23894 8.73849 10.005 8.73849H34.1218C34.8879 8.73849 35.5089 8.1175 35.5089 7.35142C35.5089 6.58535 34.8879 5.96436 34.1218 5.96436Z" fill="#787882"/>
<path d="M34.1218 26.7704H10.005C9.23894 26.7704 8.61795 27.3913 8.61795 28.1574C8.61795 28.9235 9.23894 29.5445 10.005 29.5445H34.1218C34.8879 29.5445 35.5089 28.9235 35.5089 28.1574C35.5089 27.3913 34.8879 26.7704 34.1218 26.7704Z" fill="#787882"/>
<path d="M1.87254 9.22396C2.90672 9.22396 3.74508 8.3856 3.74508 7.35142C3.74508 6.31725 2.90672 5.47888 1.87254 5.47888C0.838365 5.47888 0 6.31725 0 7.35142C0 8.3856 0.838365 9.22396 1.87254 9.22396Z" fill="#787882"/>
<path d="M1.87254 19.627C2.90672 19.627 3.74508 18.7886 3.74508 17.7544C3.74508 16.7203 2.90672 15.8819 1.87254 15.8819C0.838365 15.8819 0 16.7203 0 17.7544C0 18.7886 0.838365 19.627 1.87254 19.627Z" fill="#787882"/>
<path d="M1.87254 30.03C2.90672 30.03 3.74508 29.1916 3.74508 28.1574C3.74508 27.1232 2.90672 26.2849 1.87254 26.2849C0.838365 26.2849 0 27.1232 0 28.1574C0 29.1916 0.838365 30.03 1.87254 30.03Z" fill="#787882"/>
</g>
<defs>
<clipPath id="clip0">
<rect width="35.5089" height="35.5089" fill="white"/>
</clipPath>
</defs>
</svg>
