<svg width="32" height="32" viewBox="0 0 32 32" fill="none" xmlns="http://www.w3.org/2000/svg">
<g clip-path="url(#clip0)">
<path d="M4.39321 20.9449C4.914 21.4655 5.75815 21.4653 6.27876 20.9445C6.79936 20.4238 6.79924 19.5796 6.27845 19.059L3.21901 16.0006L7.84388 11.3758C10.6355 8.58412 14.5985 7.44666 18.3911 8.24575C19.1116 8.39756 19.8188 7.93652 19.9706 7.21598C20.1224 6.49545 19.6613 5.78829 18.9408 5.63649C14.2754 4.65353 9.39401 6.05447 5.95827 9.4902L0.3905 15.058C-0.130229 15.5787 -0.130167 16.423 0.390687 16.9436L4.39321 20.9449Z" fill="#787882"/>
<path d="M31.6093 15.0566L27.6068 11.0554C27.086 10.5348 26.2419 10.5349 25.7213 11.0557C25.2007 11.5765 25.2008 12.4207 25.7216 12.9413L28.781 15.9996L24.1562 20.6245C21.3645 23.4162 17.4015 24.5536 13.609 23.7545C12.8884 23.6027 12.1813 24.0637 12.0295 24.7843C11.8777 25.5048 12.3387 26.212 13.0592 26.3638C17.7247 27.3467 22.606 25.9458 26.0418 22.5101L31.6095 16.9423C32.1303 16.4215 32.1302 15.5772 31.6093 15.0566Z" fill="#787882"/>
<path d="M9.33362 16.0001C9.33362 16.7364 9.93053 17.3333 10.6669 17.3333C11.4032 17.3333 12.0001 16.7364 12.0001 16.0001C12.0001 13.7912 13.7911 12.0003 16 12.0003C16.7363 12.0003 17.3332 11.4033 17.3332 10.667C17.3332 9.93065 16.7363 9.33374 16 9.33374C12.3184 9.33368 9.33362 12.3185 9.33362 16.0001Z" fill="#787882"/>
<path d="M19.9998 16.0001C19.9998 18.2089 18.2089 19.9999 16 19.9999C15.2637 19.9999 14.6667 20.5968 14.6667 21.3332C14.6667 22.0695 15.2637 22.6664 16 22.6664C19.6815 22.6664 22.6664 19.6816 22.6664 16C22.6664 15.2637 22.0695 14.6667 21.3332 14.6667C20.5968 14.6667 19.9998 15.2637 19.9998 16.0001Z" fill="#787882"/>
<path d="M31.6099 0.392209C31.0893 -0.128458 30.245 -0.128458 29.7244 0.392209L0.39227 29.7243C-0.128397 30.245 -0.128397 31.0892 0.39227 31.6099C0.912936 32.1305 1.75715 32.1305 2.27782 31.6099L31.6099 2.27776C32.1307 1.75709 32.1307 0.912875 31.6099 0.392209Z" fill="#787882"/>
</g>
<defs>
<clipPath id="clip0">
<rect width="32" height="32" fill="white"/>
</clipPath>
</defs>
</svg>
