<svg width="31" height="31" viewBox="0 0 31 31" fill="none" xmlns="http://www.w3.org/2000/svg">
<g clip-path="url(#clip0)">
<path d="M14.803 19.9232C12.891 19.6231 11.377 18.1089 11.0768 16.1971L8.78581 13.906C8.66459 14.422 8.60187 14.9558 8.60187 15.5001C8.60187 19.3037 11.6963 22.3982 15.5 22.3982C16.0431 22.3982 16.5769 22.3352 17.0933 22.2135L14.803 19.9232Z" fill="#787882"/>
<path d="M30.0346 16.8973C30.1998 16.6817 30.5063 16.2302 30.5407 16.1793L31.0006 15.5005L30.5406 14.8217C30.5062 14.7709 30.1998 14.3194 30.0346 14.104C29.2632 13.0978 27.4569 10.7415 24.9665 8.68028C21.8479 6.09917 18.6632 4.79039 15.5006 4.79039C13.2006 4.79039 10.8761 5.4888 8.57854 6.86709L1.74322 0.0318298L0.0317993 1.74325L29.2579 30.9693L30.9694 29.2579L24.4478 22.7363C27.217 20.5715 29.2215 17.9579 30.0346 16.8973ZM19.405 17.6936L17.7891 16.0777C17.8355 15.893 17.8604 15.6997 17.8604 15.5006C17.8604 14.1973 16.8038 13.1407 15.5005 13.1407C15.3014 13.1407 15.1082 13.1657 14.9235 13.212L13.3076 11.5962C13.9708 11.2227 14.722 11.0228 15.5005 11.0228C17.9695 11.0228 19.9782 13.0315 19.9782 15.5005C19.9782 16.2807 19.7783 17.0309 19.405 17.6936ZM21.1593 19.4478C21.9645 18.2981 22.3987 16.9313 22.3987 15.5006C22.3987 11.697 19.3042 8.60248 15.5006 8.60248C14.0729 8.60248 12.7044 9.03745 11.5538 9.84236L10.3515 8.64002C12.09 7.69101 13.8169 7.21075 15.5005 7.21075C19.5956 7.21075 23.8195 9.99997 28.0553 15.5006C27.1743 16.6492 25.2972 19.0658 22.7225 21.0111L21.1593 19.4478Z" fill="#787882"/>
<path d="M18.2221 23.3826C17.3057 23.6532 16.3968 23.7899 15.5 23.7899C11.405 23.7899 7.1811 21.0007 2.94518 15.5001C3.55313 14.7077 4.77376 13.1351 6.417 11.5776L4.70486 9.86542C2.89493 11.5884 1.58657 13.2941 0.965965 14.1036C0.800854 14.3191 0.494426 14.7704 0.459975 14.8213L0 15.5L0.459854 16.1788C0.494244 16.2296 0.800732 16.6812 0.965965 16.8968C1.73733 17.903 3.54375 20.2592 6.03404 22.3204C9.15257 24.9016 12.3374 26.2102 15.5 26.2102C17.035 26.2102 18.5809 25.8992 20.1223 25.2828L18.2221 23.3826Z" fill="#787882"/>
</g>
<defs>
<clipPath id="clip0">
<rect width="31" height="31" fill="white"/>
</clipPath>
</defs>
</svg>
