<svg width="33" height="32" viewBox="0 0 33 32" fill="none" xmlns="http://www.w3.org/2000/svg">
<g clip-path="url(#clip0)">
<path d="M30.1701 0H4.01619C2.74386 0 1.7085 0.897313 1.7085 2V5.33331H0.939314C0.514699 5.33331 0.170059 5.632 0.170059 6C0.170059 6.368 0.514699 6.66669 0.939314 6.66669H1.70857V12H0.939314C0.514699 12 0.170059 12.2987 0.170059 12.6667C0.170059 13.0347 0.514699 13.3334 0.939314 13.3334H1.70857V18.6667H0.939314C0.514699 18.6667 0.170059 18.9654 0.170059 19.3334C0.170059 19.7014 0.514699 20 0.939314 20H1.70857V25.3333H0.939314C0.514699 25.3333 0.170059 25.632 0.170059 26C0.170059 26.368 0.514699 26.6667 0.939314 26.6667H1.70857V30C1.70857 31.1027 2.74393 32 4.01626 32H30.1701C31.4424 32 32.4778 31.1027 32.4778 30V2C32.4778 0.897313 31.4424 0 30.1701 0ZM30.9393 30C30.9393 30.368 30.5932 30.6667 30.1701 30.6667H4.01619C3.59309 30.6667 3.24693 30.368 3.24693 30V26.6667H4.92694C5.24547 27.4413 6.0916 28 7.09314 28C8.36547 28 9.40083 27.1027 9.40083 26C9.40083 24.8973 8.36547 24 7.09314 24C6.0916 24 5.24547 24.5587 4.92701 25.3333H3.24701V20H4.92701C5.24547 20.7747 6.0916 21.3333 7.09314 21.3333C8.36547 21.3333 9.40083 20.436 9.40083 19.3333C9.40083 18.2306 8.36547 17.3333 7.09314 17.3333C6.0916 17.3333 5.24547 17.892 4.92701 18.6666H3.24701V13.3333H4.92701C5.24547 14.108 6.0916 14.6666 7.09314 14.6666C8.36547 14.6666 9.40083 13.7693 9.40083 12.6666C9.40083 11.5639 8.36547 10.6666 7.09314 10.6666C6.0916 10.6666 5.24547 11.2253 4.92701 11.9999H3.24701V6.66663H4.92701C5.24547 7.44131 6.0916 8 7.09314 8C8.36547 8 9.40083 7.10269 9.40083 6C9.40083 4.89731 8.36547 4 7.09314 4C6.0916 4 5.24547 4.55869 4.92701 5.33331H3.24701V2C3.24701 1.632 3.59316 1.33331 4.01626 1.33331H30.1701C30.5932 1.33331 30.9393 1.632 30.9393 2V30ZM6.32388 26C6.32388 25.632 6.67004 25.3333 7.09314 25.3333C7.51624 25.3333 7.86239 25.632 7.86239 26C7.86239 26.368 7.51624 26.6667 7.09314 26.6667C6.67004 26.6667 6.32388 26.368 6.32388 26ZM6.32388 19.3333C6.32388 18.9653 6.67004 18.6666 7.09314 18.6666C7.51624 18.6666 7.86239 18.9653 7.86239 19.3333C7.86239 19.7013 7.51624 20 7.09314 20C6.67004 20 6.32388 19.7013 6.32388 19.3333ZM6.32388 12.6667C6.32388 12.2987 6.67004 12 7.09314 12C7.51624 12 7.86239 12.2987 7.86239 12.6667C7.86239 13.0347 7.51624 13.3334 7.09314 13.3334C6.67004 13.3333 6.32388 13.0347 6.32388 12.6667ZM6.32388 6C6.32388 5.632 6.67004 5.33331 7.09314 5.33331C7.51624 5.33331 7.86239 5.632 7.86239 6C7.86239 6.368 7.51624 6.66669 7.09314 6.66669C6.67004 6.66669 6.32388 6.368 6.32388 6Z" fill="#787882"/>
<g clip-path="url(#clip1)">
<rect x="21.5956" y="6.75017" width="2.85488" height="0.913561" fill="#FFFCFC"/>
<path d="M20.6059 17.2038C22.5079 16.6762 23.5761 16.6855 25.4782 17.2038V20.7704H20.6059V17.2038Z" fill="white"/>
<path d="M25.0386 11.0035L24.7131 10.8456C24.5513 10.7672 24.4504 10.6093 24.4504 10.433V7.66376H21.5956V10.433C21.5956 10.6093 21.4947 10.7672 21.3329 10.8456L21.0075 11.0035C20.1967 11.3967 19.6923 12.1878 19.6923 13.0674V16.8945V21.0484V25.6638C19.6923 26.4272 20.3327 27.0484 21.1197 27.0484H24.9262C25.7132 27.0484 26.3537 26.4272 26.3537 25.6638V21.0484V16.8945V13.0674C26.3537 12.1878 25.8493 11.3967 25.0386 11.0035ZM25.4021 20.5869H20.6439V17.2508C21.1826 17.1216 22.2398 16.8945 23.023 16.8945C23.8129 16.8945 24.8663 17.1216 25.4021 17.2508V20.5869Z" fill="#787882"/>
<path d="M23.9746 4.92305H22.0713C21.8087 4.92305 21.5956 5.12983 21.5956 5.3846V6.76922H24.4504V5.3846C24.4504 5.12983 24.2372 4.92305 23.9746 4.92305Z" fill="#787882"/>
</g>
</g>
<defs>
<clipPath id="clip0">
<rect width="32.6478" height="32" fill="white"/>
</clipPath>
<clipPath id="clip1">
<rect width="6.54719" height="22.1538" fill="white" transform="translate(19.6923 4.92308)"/>
</clipPath>
</defs>
</svg>
