<svg width="29" height="29" viewBox="0 0 29 29" fill="none" xmlns="http://www.w3.org/2000/svg">
<path d="M26.6966 0H3.73832C2.55152 0 1.58598 0.762267 1.58598 1.69921V2.60557H0.868538C0.472293 2.60557 0.151093 2.85921 0.151093 3.17198C0.151093 3.48474 0.472293 3.73838 0.868538 3.73838H1.58598V5.43759H0.868538C0.472293 5.43759 0.151093 5.69123 0.151093 6.004C0.151093 6.31676 0.472293 6.5704 0.868538 6.5704H1.58598V8.26961H0.868538C0.472293 8.26961 0.151093 8.52325 0.151093 8.83602C0.151093 9.14878 0.472293 9.40242 0.868538 9.40242H1.58598V11.1016H0.868538C0.472293 11.1016 0.151093 11.3553 0.151093 11.668C0.151093 11.9808 0.472293 12.2344 0.868538 12.2344H1.58598V13.9336H0.868538C0.472293 13.9336 0.151093 14.1872 0.151093 14.5C0.151093 14.8128 0.472293 15.0664 0.868538 15.0664H1.58598V16.7656H0.868538C0.472293 16.7656 0.151093 17.0193 0.151093 17.332C0.151093 17.6448 0.472293 17.8984 0.868538 17.8984H1.58598V19.5976H0.868538C0.472293 19.5976 0.151093 19.8513 0.151093 20.164C0.151093 20.4768 0.472293 20.7304 0.868538 20.7304H1.58598V22.4297H0.868538C0.472293 22.4297 0.151093 22.6833 0.151093 22.9961C0.151093 23.3088 0.472293 23.5625 0.868538 23.5625H1.58598V25.2616H0.868538C0.472293 25.2616 0.151093 25.5153 0.151093 25.828C0.151093 26.1408 0.472293 26.3944 0.868538 26.3944H1.58598V27.3008C1.58598 28.2377 2.55152 29 3.73832 29H26.6966C27.8834 29 28.8489 28.2377 28.8489 27.3008V1.69921C28.8489 0.762267 27.8834 0 26.6966 0ZM3.02087 27.3008V26.3944H3.73832C4.13456 26.3944 4.45576 26.1408 4.45576 25.828C4.45576 25.5153 4.13456 25.2616 3.73832 25.2616H3.02087V23.5625H3.73832C4.13456 23.5625 4.45576 23.3088 4.45576 22.9961C4.45576 22.6833 4.13456 22.4297 3.73832 22.4297H3.02087V20.7304H3.73832C4.13456 20.7304 4.45576 20.4768 4.45576 20.164C4.45576 19.8513 4.13456 19.5976 3.73832 19.5976H3.02087V17.8984H3.73832C4.13456 17.8984 4.45576 17.6448 4.45576 17.332C4.45576 17.0193 4.13456 16.7656 3.73832 16.7656H3.02087V15.0664H3.73832C4.13456 15.0664 4.45576 14.8128 4.45576 14.5C4.45576 14.1872 4.13456 13.9336 3.73832 13.9336H3.02087V12.2344H3.73832C4.13456 12.2344 4.45576 11.9808 4.45576 11.668C4.45576 11.3553 4.13456 11.1016 3.73832 11.1016H3.02087V9.40242H3.73832C4.13456 9.40242 4.45576 9.14878 4.45576 8.83602C4.45576 8.52325 4.13456 8.26961 3.73832 8.26961H3.02087V6.5704H3.73832C4.13456 6.5704 4.45576 6.31676 4.45576 6.004C4.45576 5.69123 4.13456 5.43759 3.73832 5.43759H3.02087V3.73838H3.73832C4.13456 3.73838 4.45576 3.48474 4.45576 3.17198C4.45576 2.85921 4.13456 2.60557 3.73832 2.60557H3.02087V1.69921C3.02087 1.3869 3.34272 1.13281 3.73832 1.13281H5.89072V27.8672H3.73832C3.34272 27.8672 3.02087 27.6131 3.02087 27.3008ZM27.414 27.3008C27.414 27.6131 27.0922 27.8672 26.6966 27.8672H7.32561V1.13281H26.6966C27.0922 1.13281 27.414 1.3869 27.414 1.69921V27.3008Z" fill="#787882"/>
<g clip-path="url(#clip0)">
<rect x="19.0865" y="4.9053" width="2.62982" height="0.841543" fill="#FFFCFC"/>
<path d="M22.2581 8.82327L21.9583 8.67787C21.8093 8.60561 21.7164 8.46021 21.7164 8.29778V5.74686H19.0866V8.29778C19.0866 8.46021 18.9937 8.60561 18.8446 8.67787L18.5448 8.82327C17.798 9.18551 17.3333 9.91423 17.3333 10.7246V14.2499V18.0763V22.3279C17.3333 23.0311 17.9233 23.6033 18.6483 23.6033H22.1547C22.8796 23.6033 23.4696 23.0311 23.4696 22.3279V18.0763V14.2499V10.7246C23.4696 9.91423 23.005 9.18551 22.2581 8.82327ZM22.593 17.6512H18.21V14.5782C18.7062 14.4591 19.6801 14.2499 20.4015 14.2499C21.1291 14.2499 22.0995 14.4591 22.593 14.5782V17.6512Z" fill="#787882"/>
<path d="M18.1749 14.5349C19.927 14.0489 20.911 14.0574 22.6631 14.5349V17.8203H18.1749V14.5349Z" fill="white"/>
<path d="M21.2781 3.22223H19.5248C19.2829 3.22223 19.0865 3.41271 19.0865 3.6474V4.92286H21.7164V3.6474C21.7164 3.41271 21.52 3.22223 21.2781 3.22223Z" fill="#787882"/>
</g>
<defs>
<clipPath id="clip0">
<rect width="6.03106" height="20.4074" fill="white" transform="translate(17.3333 3.22223)"/>
</clipPath>
</defs>
</svg>
