<svg width="27" height="30" viewBox="0 0 27 30" fill="none" xmlns="http://www.w3.org/2000/svg">
<g clip-path="url(#clip0)">
<path d="M26.3843 2.85537C26.3843 1.28091 24.8472 0 22.9578 0H3.77738C2.67926 0 1.78589 0.744411 1.78589 1.65951V2.89637H1.45223C1.07056 2.89637 0.712813 3.01997 0.445994 3.24344C0.17687 3.46771 0.028717 3.7657 0.028717 4.08257C0.028717 4.73664 0.667349 5.26883 1.45223 5.26883H1.78589V6.94033H1.45223C1.07056 6.94033 0.712813 7.06392 0.445994 7.2874C0.17687 7.51167 0.028717 7.80966 0.028717 8.12659C0.028717 8.78065 0.667349 9.31285 1.45223 9.31285H1.78589V10.9843H1.45223C1.07056 10.9843 0.712813 11.1079 0.445994 11.3314C0.17687 11.5557 0.028717 11.8537 0.028717 12.1706C0.028717 12.8247 0.667349 13.3569 1.45223 13.3569H1.78589V15.0284H1.45223C1.07056 15.0284 0.712813 15.152 0.445994 15.3754C0.17687 15.5997 0.028717 15.8977 0.028717 16.2146C0.028717 16.8686 0.667349 17.4008 1.45223 17.4008H1.78589V19.0723H1.45223C1.07048 19.0723 0.712813 19.1959 0.445994 19.4195C0.17687 19.6437 0.028717 19.9417 0.028717 20.2586C0.028717 20.9126 0.667349 21.4448 1.45223 21.4448H1.78589V23.1163H1.45223C1.07056 23.1163 0.712813 23.2399 0.445994 23.4634C0.17687 23.6877 0.028717 23.9857 0.028717 24.3026C0.028717 24.9567 0.667349 25.4889 1.45223 25.4889H1.78589V27.6883C1.78589 28.6033 2.67942 29.3478 3.77746 29.3478H22.9575C24.8468 29.3478 26.3839 28.0669 26.3839 26.4925L26.3843 2.85537ZM1.45223 4.34155C1.28087 4.34155 1.14146 4.22537 1.14146 4.08257C1.14146 3.99388 1.19113 3.93381 1.23389 3.89824C1.29136 3.85009 1.36893 3.82359 1.45231 3.82359H1.78597V4.34155H1.45223ZM1.45223 8.38557C1.28087 8.38557 1.14146 8.26939 1.14146 8.12659C1.14146 8.0379 1.19113 7.97783 1.23389 7.94226C1.29136 7.89411 1.36893 7.86761 1.45231 7.86761H1.78597V8.38557H1.45223ZM1.45223 12.4296C1.28087 12.4296 1.14146 12.3134 1.14146 12.1706C1.14146 12.0819 1.19113 12.0218 1.23389 11.9863C1.29136 11.9381 1.36893 11.9116 1.45231 11.9116H1.78597V12.4296H1.45223ZM1.45223 16.4736C1.28087 16.4736 1.14146 16.3574 1.14146 16.2146C1.14146 16.1259 1.19113 16.0659 1.23389 16.0303C1.29136 15.9821 1.36893 15.9557 1.45231 15.9557H1.78597V16.4736H1.45223ZM1.45223 20.5176C1.28087 20.5176 1.14146 20.4015 1.14146 20.2586C1.14146 20.17 1.19113 20.1099 1.23397 20.0743C1.29144 20.0261 1.36893 19.9997 1.45231 19.9997H1.78597V20.5176H1.45223ZM2.89863 19.9997H3.45691C3.68279 20.4986 4.26007 20.8552 4.93693 20.8552C5.80971 20.8552 6.5198 20.2634 6.5198 19.5361C6.5198 18.8088 5.80971 18.217 4.93693 18.217C4.26015 18.217 3.68279 18.5734 3.45691 19.0724H2.89855V15.9557H3.45683C3.68271 16.4546 4.26007 16.8111 4.93685 16.8111C5.80963 16.8111 6.51972 16.2194 6.51972 15.492C6.51972 14.7646 5.80963 14.1729 4.93685 14.1729C4.25999 14.1729 3.68271 14.5294 3.45683 15.0284H2.89855V11.9116H3.45683C3.68271 12.4106 4.26007 12.7671 4.93685 12.7671C5.80963 12.7671 6.51972 12.1754 6.51972 11.448C6.51972 10.7207 5.80963 10.1289 4.93685 10.1289C4.26007 10.1289 3.68271 10.4854 3.45683 10.9843H2.89847V7.86761H3.45675C3.68263 8.36656 4.25991 8.7231 4.93677 8.7231C5.80955 8.7231 6.51964 8.13136 6.51964 7.40404C6.51964 6.67671 5.80955 6.08491 4.93677 6.08491C4.25999 6.08491 3.68263 6.44138 3.45675 6.94033H2.89839V3.82366H3.45667C3.68255 4.3226 4.25991 4.67914 4.93669 4.67914C5.80947 4.67914 6.51956 4.0874 6.51956 3.36002C6.51956 2.63263 5.80947 2.04089 4.93669 2.04089C4.25983 2.04089 3.68255 2.39736 3.45667 2.89637H2.89839V1.65951C2.89839 1.25574 3.29254 0.927284 3.77706 0.927284H22.9575C24.2333 0.927284 25.2712 1.79224 25.2712 2.85537L25.271 24.1085C25.266 25.1681 24.2302 26.0289 22.9575 26.0289H5.55132H3.77753C3.46223 26.0289 3.16394 26.0906 2.89863 26.1998V24.0438H3.45691C3.68279 24.5428 4.26015 24.8993 4.93693 24.8993C5.80971 24.8993 6.5198 24.3076 6.5198 23.5802C6.5198 22.8529 5.80971 22.2611 4.93693 22.2611C4.26015 22.2611 3.68279 22.6176 3.45691 23.1165H2.89855L2.89863 19.9997ZM4.93701 19.9279C4.67774 19.9279 4.4668 19.7522 4.4668 19.5361C4.4668 19.32 4.67774 19.1443 4.93701 19.1443C5.19628 19.1443 5.40714 19.32 5.40714 19.5361C5.40714 19.7522 5.19628 19.9279 4.93701 19.9279ZM4.93701 15.8839C4.67774 15.8839 4.4668 15.7081 4.4668 15.492C4.4668 15.276 4.67774 15.1002 4.93701 15.1002C5.19628 15.1002 5.40714 15.276 5.40714 15.492C5.40714 15.7081 5.19628 15.8839 4.93701 15.8839ZM4.93701 11.8398C4.67774 11.8398 4.4668 11.664 4.4668 11.448C4.4668 11.2319 4.67774 11.0562 4.93701 11.0562C5.19628 11.0562 5.40714 11.2319 5.40714 11.448C5.40714 11.664 5.19628 11.8398 4.93701 11.8398ZM4.93701 7.79581C4.67774 7.79581 4.4668 7.62009 4.4668 7.40404C4.4668 7.18798 4.67774 7.01219 4.93701 7.01219C5.19628 7.01219 5.40714 7.18798 5.40714 7.40404C5.40714 7.62009 5.19628 7.79581 4.93701 7.79581ZM4.93701 3.75179C4.67774 3.75179 4.4668 3.57601 4.4668 3.35995C4.4668 3.14389 4.67774 2.96811 4.93701 2.96811C5.19628 2.96811 5.40714 3.14389 5.40714 3.35995C5.40714 3.57601 5.19628 3.75179 4.93701 3.75179ZM4.93701 23.9719C4.67774 23.9719 4.4668 23.7961 4.4668 23.58C4.4668 23.364 4.67774 23.1883 4.93701 23.1883C5.19628 23.1883 5.40714 23.364 5.40714 23.58C5.40714 23.7961 5.19628 23.9719 4.93701 23.9719ZM1.45223 24.5616C1.28087 24.5616 1.14146 24.4455 1.14146 24.3027C1.14146 24.214 1.19113 24.1539 1.23389 24.1183C1.29136 24.0702 1.36893 24.0437 1.45231 24.0437H1.78597V24.5616H1.45223ZM22.9576 28.4206H3.77753C3.29302 28.4206 2.89887 28.0921 2.89887 27.6884C2.89887 27.2846 3.29302 26.9562 3.77753 26.9562H4.00588H22.9578C23.8488 26.9562 24.6613 26.6711 25.2713 26.2049V26.4925C25.2713 27.5556 24.2333 28.4206 22.9576 28.4206Z" fill="#787882"/>
<g clip-path="url(#clip1)">
<rect x="17.801" y="5.35498" width="2.04938" height="0.81453" fill="#FFFCFC"/>
<path d="M17.0905 14.6754C18.4559 14.205 19.2228 14.2133 20.5882 14.6754V17.8553H17.0905V14.6754Z" fill="white"/>
<path d="M20.2726 9.14718L20.039 9.00644C19.9228 8.9365 19.8504 8.79576 19.8504 8.63855V6.16951H17.801V8.63855C17.801 8.79576 17.7286 8.9365 17.6125 9.00644L17.3789 9.14718C16.7969 9.49778 16.4348 10.2031 16.4348 10.9874V14.3996V18.1032V22.2183C16.4348 22.8989 16.8945 23.4528 17.4595 23.4528H20.192C20.7569 23.4528 21.2167 22.8989 21.2167 22.2183V18.1032V14.3996V10.9874C21.2167 10.2031 20.8546 9.49778 20.2726 9.14718ZM20.5335 17.6917H17.1179V14.7173C17.5046 14.6021 18.2635 14.3996 18.8257 14.3996C19.3927 14.3996 20.149 14.6021 20.5335 14.7173V17.6917Z" fill="#787882"/>
<path d="M19.5088 3.72591H18.1426C17.9541 3.72591 17.801 3.91027 17.801 4.13743V5.37195H19.8504V4.13743C19.8504 3.91027 19.6974 3.72591 19.5088 3.72591Z" fill="#787882"/>
</g>
</g>
<defs>
<clipPath id="clip0">
<rect width="27" height="29.3478" fill="white"/>
</clipPath>
<clipPath id="clip1">
<rect width="4.69991" height="19.7524" fill="white" transform="translate(16.4348 3.72591)"/>
</clipPath>
</defs>
</svg>
