<svg width="30" height="30" viewBox="0 0 30 30" fill="none" xmlns="http://www.w3.org/2000/svg">
<g clip-path="url(#clip0)">
<path d="M29.7531 3.78633C29.7353 3.76957 26.2114 0.408924 26.2114 0.408924C26.0767 0.279666 25.9373 0.146072 25.6772 0.146072H11.4905C11.0761 0.146072 10.7389 0.483162 10.7389 0.897537V3.20513L5.73883 4.06224C5.33805 4.13256 5.06852 4.51611 5.13795 4.91648L5.39172 6.39609C3.76651 6.94301 2.09793 7.50679 0.487131 8.08541C0.106506 8.22457 -0.0932397 8.64779 0.0425806 9.0307L3.24678 17.9379C3.31123 18.1171 3.48016 18.2287 3.66033 18.2287C3.70967 18.2287 3.75994 18.2204 3.80905 18.2027C4.03744 18.1205 4.15598 17.8688 4.07383 17.6404L0.917034 8.86494C2.43461 8.3216 4.00621 7.7898 5.54213 7.27283L7.05215 16.0762L8.78969 26.2148C8.85244 26.5727 9.16703 26.8274 9.52211 26.8274C9.56231 26.8274 9.60309 26.8241 9.64399 26.8174L14.35 26.0098L18.0273 25.3794L12.4966 27.3673L8.1352 28.9355L4.74801 19.5142C4.66592 19.2858 4.41426 19.1673 4.1858 19.2494C3.95741 19.3315 3.83887 19.5832 3.92096 19.8116L7.35619 29.3667C7.46606 29.6672 7.75071 29.854 8.05158 29.854C8.13473 29.854 8.21916 29.8397 8.30143 29.8096L12.7939 28.1944L22.9947 24.528L24.9435 24.1939H29.2484C29.6628 24.1939 29.9999 23.8561 29.9999 23.4408V4.2815C30 4.01847 29.8573 3.88429 29.7531 3.78633ZM28.5888 3.89039H26.3897L26.3352 3.89062C26.2299 3.89133 25.9834 3.89314 25.9209 3.83103C25.9065 3.81668 25.8896 3.76875 25.8896 3.67974L25.8845 1.31168L28.5888 3.89039ZM29.1211 23.3149H11.6178V14.7504C11.6178 14.5078 11.4211 14.311 11.1784 14.311C10.9357 14.311 10.7389 14.5078 10.7389 14.7504V23.4407C10.7389 23.8559 11.0761 24.1938 11.4905 24.1938H19.7412L14.2014 25.1434L9.63215 25.9276L7.9184 15.9277L6.02764 4.90441L10.7389 4.09681V12.7114C10.7389 12.9541 10.9356 13.1508 11.1783 13.1508C11.421 13.1508 11.6178 12.9541 11.6178 12.7114V1.02492H25.005L25.0107 3.68074C25.0107 4.00265 25.1086 4.26304 25.3017 4.45476C25.5984 4.74931 26.0177 4.76982 26.278 4.76982C26.3004 4.76982 26.3216 4.76965 26.3415 4.76953L29.1211 4.76935V23.3149Z" fill="#787882"/>
<g clip-path="url(#clip1)">
<rect x="18.9423" y="4.01926" width="2.17378" height="0.794984" fill="#FFFCFC"/>
<path d="M18.1887 13.116C19.637 12.6569 20.4503 12.665 21.8986 13.116V16.2197H18.1887V13.116Z" fill="white"/>
<path d="M21.5639 7.72042L21.3161 7.58306C21.1929 7.5148 21.1161 7.37744 21.1161 7.224V4.81421H18.9423V7.224C18.9423 7.37744 18.8655 7.5148 18.7423 7.58306L18.4945 7.72042C17.8772 8.06261 17.4931 8.75102 17.4931 9.51651V12.8468V16.4615V20.4779C17.4931 21.1422 17.9807 21.6828 18.58 21.6828H21.4784C22.0776 21.6828 22.5653 21.1422 22.5653 20.4779V16.4615V12.8468V9.51651C22.5653 8.75102 22.1813 8.06261 21.5639 7.72042ZM21.8407 16.0599H18.2177V13.1569C18.6279 13.0445 19.4329 12.8468 20.0292 12.8468C20.6306 12.8468 21.4328 13.0445 21.8407 13.1569V16.0599Z" fill="#787882"/>
<path d="M20.7538 2.42926H19.3046C19.1046 2.42926 18.9423 2.6092 18.9423 2.83091V4.0358H21.1161V2.83091C21.1161 2.6092 20.9538 2.42926 20.7538 2.42926Z" fill="#787882"/>
</g>
</g>
<defs>
<clipPath id="clip0">
<rect width="30" height="30" fill="white"/>
</clipPath>
<clipPath id="clip1">
<rect width="4.98521" height="19.2784" fill="white" transform="translate(17.4931 2.42926)"/>
</clipPath>
</defs>
</svg>
