<svg width="29" height="29" viewBox="0 0 29 29" fill="none" xmlns="http://www.w3.org/2000/svg">
<g clip-path="url(#clip0)">
<path d="M23.8215 3.43081C23.8215 1.7149 18.4889 0.323669 11.9108 0.323669C5.33262 0.323669 6.10352e-05 1.7149 6.10352e-05 3.43081C6.10352e-05 5.14672 5.33262 6.53796 11.9108 6.53796C18.4889 6.53796 23.8215 5.14672 23.8215 3.43081Z" fill="#787882"/>
<path d="M24.2207 16.5446C23.9879 16.4888 23.7517 16.447 23.5137 16.4192C20.2744 16.0409 17.2931 18.2299 16.6837 21.4342C16.6097 21.8155 16.572 22.2031 16.5715 22.5915C16.5717 25.8365 19.0687 28.535 22.3041 28.7863C25.5391 29.0379 28.4233 26.7579 28.9252 23.5521C29.4271 20.3461 27.3779 17.2939 24.2207 16.5446ZM27.4465 23.1094H23.3036V27.2522C23.3036 27.5382 23.0717 27.7701 22.7858 27.7701C22.4998 27.7701 22.2679 27.5382 22.2679 27.2522V23.1094H18.125C17.8391 23.1094 17.6072 22.8775 17.6072 22.5915C17.6072 22.3055 17.8391 22.0737 18.125 22.0737H22.2679V17.9308C22.2679 17.6448 22.4998 17.413 22.7858 17.413C23.0717 17.413 23.3036 17.6448 23.3036 17.9308V22.0737H27.4465C27.7325 22.0737 27.9643 22.3055 27.9643 22.5915C27.9643 22.8775 27.7325 23.1094 27.4465 23.1094Z" fill="#787882"/>
<path d="M6.10352e-05 25.1808C6.10352e-05 26.478 4.53131 28.288 11.9108 28.288C13.8811 28.2958 15.8488 28.1494 17.7963 27.8503C17.6977 27.7567 17.6092 27.6546 17.5162 27.5562C17.457 27.493 17.3938 27.4331 17.3369 27.3678C17.1581 27.1663 16.9907 26.9546 16.8355 26.7344C16.8221 26.7152 16.8117 26.6944 16.7988 26.6747C16.6595 26.4712 16.5308 26.2603 16.4135 26.0431C16.371 25.9644 16.3348 25.8825 16.2949 25.8024C16.2142 25.639 16.1396 25.4744 16.0691 25.3057C16.0314 25.2119 15.9972 25.1171 15.9656 25.0218C15.907 24.8572 15.8549 24.6915 15.8101 24.5226C15.7833 24.4258 15.7585 24.3289 15.7335 24.2301C15.6915 24.0493 15.6594 23.8675 15.6301 23.6806C15.6172 23.5936 15.6 23.5077 15.5896 23.4217C15.556 23.1463 15.5378 22.8689 15.5358 22.5915C15.5358 22.366 15.5464 22.1417 15.5679 21.9184C15.2447 21.9468 14.9132 21.9619 14.584 21.9822C14.3701 21.9956 14.1597 22.0135 13.9438 22.0239C13.2707 22.0555 12.5938 22.0757 11.9093 22.0757C11.6435 22.0757 11.3762 22.0722 11.1097 22.0669L10.916 22.0628C10.6513 22.0565 10.387 22.0479 10.1236 22.037L10.0593 22.0337C9.81305 22.0224 9.56727 22.009 9.3225 21.9935L9.12628 21.9804C8.86634 21.9629 8.60741 21.943 8.3495 21.921L8.25113 21.9116C8.02002 21.8909 7.79169 21.8676 7.56437 21.8428L7.37118 21.8216C7.12262 21.793 6.87507 21.7624 6.63131 21.7293L6.49704 21.7101C6.28641 21.6807 6.0778 21.6494 5.87096 21.616L5.69649 21.5854C5.46108 21.546 5.22895 21.5045 5.00037 21.461L4.85699 21.4322C4.66305 21.3937 4.47164 21.3535 4.28326 21.3113L4.12471 21.2767C3.90826 21.2248 3.69561 21.1733 3.48776 21.1214C3.43971 21.109 3.39243 21.0954 3.34439 21.0825C3.16941 21.0354 2.99822 20.9866 2.83108 20.9361C2.78607 20.9224 2.74056 20.9095 2.69656 20.8956C2.50287 20.8354 2.31499 20.7727 2.13268 20.7075C2.08868 20.6921 2.0457 20.6759 2.00221 20.6599C1.8467 20.6023 1.69625 20.5434 1.5506 20.4835L1.44693 20.442C1.28029 20.3709 1.12175 20.2973 0.969526 20.2217L0.86029 20.1659C0.727539 20.0976 0.601362 20.0281 0.481254 19.9562C0.459508 19.9433 0.435486 19.9307 0.414246 19.9178C0.280736 19.8361 0.155317 19.7512 0.0400129 19.6652C0.0276228 19.6558 0.0124512 19.647 6.10352e-05 19.6376L6.10352e-05 25.1808Z" fill="#787882"/>
<path d="M6.10352e-05 17.9308C6.10352e-05 19.228 4.53131 21.0379 11.9108 21.0379C12.5981 21.0379 13.28 21.0192 13.9531 20.9861C14.1749 20.9752 14.3898 20.9545 14.6093 20.9401C14.9926 20.9153 15.3737 20.8883 15.7487 20.8521C15.7585 20.8121 15.7725 20.774 15.7828 20.734C15.8086 20.6362 15.8347 20.5393 15.8673 20.4425C15.8999 20.3456 15.932 20.2354 15.9707 20.1375C16.0096 20.0394 16.0417 19.9469 16.0799 19.8525C16.1184 19.7582 16.1608 19.6594 16.2043 19.5645C16.2478 19.47 16.2908 19.3807 16.3368 19.2907C16.3831 19.2007 16.4327 19.1079 16.484 19.0184C16.5353 18.9286 16.5874 18.8434 16.6393 18.7594C16.6911 18.6755 16.7503 18.5875 16.8077 18.5005C16.8651 18.4135 16.922 18.3346 16.9826 18.2545C17.0433 18.1743 17.107 18.0929 17.1718 18.0142C17.2365 17.9354 17.2985 17.8587 17.365 17.7847C17.4312 17.7108 17.503 17.6347 17.5721 17.5611C17.6408 17.4875 17.7099 17.418 17.7817 17.3497C17.8537 17.2815 17.9334 17.2109 18.011 17.1426C18.0889 17.0744 18.1582 17.0132 18.2348 16.9515C18.3114 16.89 18.3994 16.8245 18.4834 16.7626C18.5673 16.7004 18.6389 16.6465 18.7195 16.5922C18.8005 16.5378 18.8973 16.4781 18.9873 16.4222C19.0692 16.3704 19.1499 16.3188 19.2339 16.2736C19.3269 16.222 19.4238 16.1732 19.5196 16.1246C19.6045 16.0816 19.688 16.0376 19.7745 15.9977C19.8749 15.9522 19.978 15.9117 20.0804 15.8702C20.1664 15.8356 20.2514 15.7987 20.3394 15.7666C20.4476 15.7279 20.5586 15.6958 20.6693 15.6632C20.7548 15.6371 20.8393 15.6078 20.9283 15.585C21.0453 15.5539 21.1655 15.5299 21.2851 15.5046C21.368 15.4869 21.4492 15.4659 21.5331 15.4528C21.6671 15.429 21.8039 15.4146 21.9407 15.3984C22.012 15.3896 22.0826 15.3772 22.1551 15.3706C22.3622 15.3524 22.5762 15.3425 22.7898 15.3425C23.0434 15.344 23.2966 15.3587 23.5487 15.3865C23.6005 15.3918 23.6495 15.3964 23.6999 15.4027C23.7418 15.4078 23.7843 15.4103 23.8255 15.4161V12.3866C23.8131 12.396 23.7982 12.4048 23.7858 12.4137C23.6688 12.5001 23.5449 12.5843 23.4114 12.6668C23.3901 12.6797 23.3663 12.6921 23.3446 12.7052C23.2245 12.777 23.0981 12.8465 22.9656 12.9148L22.8563 12.9707C22.7039 13.0463 22.5456 13.1199 22.3787 13.1909L22.2753 13.2322C22.1296 13.2926 21.9789 13.3515 21.8236 13.4089C21.7802 13.4248 21.7372 13.441 21.6932 13.4564C21.5109 13.5217 21.3227 13.5844 21.129 13.6446C21.085 13.6585 21.0395 13.6714 20.9945 13.6848C20.8271 13.7354 20.6559 13.7842 20.4812 13.8314C20.4332 13.8443 20.3861 13.8577 20.3378 13.8704C20.1307 13.9247 19.9173 13.9771 19.7009 14.0256L19.5423 14.0603C19.3547 14.1025 19.1633 14.1427 18.9686 14.1809L18.8252 14.21C18.5966 14.2535 18.3648 14.2949 18.1291 14.3344L17.9501 14.3627C17.743 14.3973 17.5341 14.4287 17.324 14.457L17.1897 14.4762C16.946 14.5094 16.6984 14.54 16.4494 14.5683L16.2572 14.5895C16.0299 14.6145 15.801 14.6373 15.5699 14.6585L15.4715 14.6679C15.2146 14.6902 14.9557 14.7101 14.6948 14.7273L14.5001 14.7412C14.255 14.7569 14.0093 14.7703 13.7632 14.7817L13.699 14.7847C13.4353 14.7961 13.171 14.8049 12.9065 14.8108L12.7128 14.8148C12.4463 14.8201 12.1791 14.8237 11.9133 14.8237C11.6478 14.8237 11.3805 14.8201 11.1138 14.8148L10.9201 14.8108C10.6553 14.8044 10.3911 14.7958 10.1279 14.7847L10.0636 14.7817C9.8171 14.7703 9.57157 14.7569 9.32655 14.7412L9.13033 14.7283C8.87039 14.7109 8.61146 14.6909 8.35354 14.6689L8.25518 14.6596C8.02432 14.6388 7.79599 14.6156 7.56867 14.5905L7.37548 14.5693C7.12692 14.541 6.87937 14.5104 6.63536 14.4772L6.50134 14.458C6.29071 14.4287 6.08185 14.3973 5.87526 14.3637L5.69649 14.3354C5.46108 14.2959 5.22895 14.2545 5.00037 14.211L4.857 14.1822C4.66305 14.1437 4.47164 14.1035 4.28326 14.0613L4.12471 14.0266C3.90826 13.9748 3.69561 13.9232 3.48776 13.8714C3.43972 13.859 3.39243 13.8453 3.34439 13.8324C3.16941 13.7852 2.99822 13.7364 2.83108 13.686C2.78607 13.6724 2.74056 13.6595 2.69656 13.6456C2.50287 13.5854 2.31499 13.5227 2.13268 13.4575C2.08868 13.442 2.0457 13.4259 2.00221 13.4099C1.8467 13.3525 1.69625 13.2939 1.5506 13.2334L1.44693 13.192C1.28029 13.1209 1.12175 13.0473 0.969526 12.9717L0.860291 12.9158C0.727539 12.8476 0.601362 12.778 0.481254 12.7062C0.459508 12.6933 0.435486 12.6807 0.414246 12.6678C0.280736 12.5861 0.155317 12.5011 0.0400129 12.4152C0.0276228 12.4058 0.0124512 12.397 6.10352e-05 12.3876L6.10352e-05 17.9308Z" fill="#787882"/>
<path d="M6.10352e-05 10.6808C6.10352e-05 11.9754 4.53131 13.7879 11.9108 13.7879C19.2902 13.7879 23.8215 11.9754 23.8215 10.6808V5.1366C23.8091 5.14595 23.7939 5.1548 23.7815 5.16365C23.6645 5.25013 23.5408 5.33433 23.4073 5.41677C23.3861 5.42966 23.362 5.44205 23.3403 5.4552C23.2202 5.52701 23.094 5.59655 22.9613 5.66229L22.852 5.71817C22.6998 5.79378 22.5413 5.86736 22.3746 5.93816L22.271 5.97963C22.1253 6.04007 21.9749 6.09898 21.8193 6.15638C21.7759 6.17231 21.7329 6.18849 21.6889 6.20392C21.5066 6.26916 21.3187 6.33187 21.125 6.39179C21.081 6.40595 21.0355 6.41885 20.9905 6.43225C20.8228 6.48282 20.6519 6.53162 20.4772 6.57891C20.4291 6.59181 20.3818 6.60521 20.3338 6.6176C20.1267 6.67196 19.9133 6.7243 19.6968 6.77311L19.5383 6.80775C19.3504 6.84998 19.1593 6.89018 18.9646 6.92836L18.8212 6.95744C18.5926 7.00093 18.3605 7.0424 18.1251 7.0816L17.9458 7.11017C17.7387 7.14481 17.5301 7.17616 17.3197 7.20449L17.1857 7.2237C16.9417 7.25683 16.6941 7.28717 16.4451 7.31574L16.2529 7.33698C16.0258 7.36176 15.7967 7.38477 15.5659 7.40576L15.4675 7.41512C15.2106 7.43737 14.9517 7.45709 14.6907 7.47479L14.5001 7.49123C14.255 7.50691 14.0093 7.52031 13.7632 7.53169L13.699 7.53472C13.4353 7.5461 13.171 7.55495 12.9065 7.56076L12.7128 7.56481C12.4463 7.57012 12.1791 7.57366 11.9133 7.57366C11.6478 7.57366 11.3805 7.57012 11.1138 7.56481L10.9201 7.56076C10.6553 7.55444 10.3911 7.54585 10.1279 7.53472L10.0636 7.53169C9.81709 7.52031 9.57157 7.50691 9.32655 7.49123L9.13033 7.47833C8.87039 7.46089 8.61146 7.44091 8.35354 7.41891L8.25518 7.40955C8.02432 7.38882 7.79599 7.36556 7.56866 7.34052L7.37548 7.31928C7.12692 7.29096 6.87937 7.26037 6.63536 7.22724L6.50134 7.20803C6.29071 7.17844 6.08185 7.14683 5.87526 7.11371L5.69649 7.08539C5.46108 7.04594 5.22895 7.00447 5.00037 6.96098L4.85699 6.93216C4.66305 6.89372 4.47164 6.85352 4.28326 6.81129L4.12471 6.77665C3.90826 6.72481 3.69561 6.67323 3.48776 6.62139C3.43971 6.609 3.39243 6.59535 3.34439 6.58245C3.16941 6.53516 2.99822 6.48636 2.83108 6.43604C2.78607 6.42239 2.74056 6.40949 2.69656 6.39559C2.50287 6.33541 2.31499 6.2727 2.13268 6.20746C2.08868 6.19203 2.0457 6.17585 2.00221 6.15992C1.8467 6.10252 1.69625 6.04386 1.5506 5.98342L1.44693 5.94196C1.28029 5.8709 1.12175 5.79732 0.969526 5.72171L0.86029 5.66583C0.727539 5.59756 0.601362 5.52802 0.481254 5.45874C0.459508 5.44584 0.435486 5.43345 0.414246 5.42031C0.280736 5.33863 0.155317 5.25367 0.0400129 5.1677C0.0276228 5.15834 0.0124512 5.14949 6.10352e-05 5.14014L6.10352e-05 10.6808Z" fill="#787882"/>
</g>
<defs>
<clipPath id="clip0">
<rect width="29" height="29" fill="white"/>
</clipPath>
</defs>
</svg>
