<svg width="35" height="25" viewBox="0 0 35 25" fill="none" xmlns="http://www.w3.org/2000/svg">
<path d="M34.38 20.3775L32.1012 21.6116L28.5229 15.0042C29.5378 14.3289 30.2411 13.2757 30.4757 12.0793C30.7106 10.8827 30.4573 9.64206 29.7727 8.63309L25.8738 2.8855C25.7536 2.70812 25.5187 2.65089 25.3305 2.75287L19.2737 6.03337C19.0855 6.13508 19.0052 6.36319 19.0879 6.56064L21.7712 12.9665C22.2429 14.091 23.1436 14.9806 24.2738 15.4379C25.404 15.8949 26.6701 15.8822 27.7905 15.4021L31.3686 22.0084L29.0897 23.2425C28.8874 23.3521 28.8123 23.6049 28.9218 23.8072C29.0314 24.0095 29.2842 24.0847 29.4865 23.9751L34.7768 21.1101C34.9097 21.0404 34.9949 20.9043 34.9998 20.7543C35.0047 20.604 34.9282 20.463 34.7999 20.3851C34.6716 20.307 34.511 20.304 34.38 20.3775ZM20.951 8.8517L20.002 6.58641L25.3959 3.66501L26.7737 5.69624L20.951 8.8517Z" fill="#787882"/>
<path d="M5.76442 24.4234C5.95672 24.4237 6.12434 24.2922 6.16964 24.105C6.2152 23.9181 6.12651 23.7245 5.95564 23.6363L3.65183 22.4489L7.09371 15.7707C8.22392 16.2283 9.49001 16.2155 10.6107 15.7352C11.7314 15.2548 12.6137 14.3465 13.0618 13.2125L15.6135 6.75294C15.6922 6.55386 15.6073 6.32738 15.4169 6.22947L9.29418 3.07401C9.10378 2.97582 8.87025 3.03793 8.75362 3.21749L4.97325 9.044C4.30955 10.0668 4.08172 11.3123 4.34102 12.5038C4.60004 13.6953 5.32476 14.7338 6.35326 15.3883L2.9111 22.0673L0.607566 20.8801C0.40306 20.7746 0.151903 20.8549 0.0463954 21.0594C-0.0591122 21.2639 0.0211712 21.5153 0.225677 21.6206L5.57375 24.3768C5.6326 24.4074 5.69797 24.4232 5.76442 24.4234ZM9.24753 3.98723L14.7 6.79742L13.9541 8.68625L7.89003 6.07948L9.24753 3.98723Z" fill="#787882"/>
<path d="M15.8733 3.63925C16.0231 3.81392 16.2861 3.83399 16.4608 3.68427C16.6355 3.53455 16.6556 3.27146 16.5058 3.09679L14.515 0.774809C14.3653 0.600138 14.1022 0.579796 13.9275 0.729514C13.7529 0.879503 13.7328 1.14232 13.8825 1.31699L15.8733 3.63925Z" fill="#787882"/>
<path d="M18.2569 3.72114C18.4516 3.84319 18.7088 3.78407 18.8308 3.58933L20.1107 1.54481C20.2328 1.3498 20.1737 1.09267 19.9787 0.970621C19.7836 0.848568 19.5265 0.907696 19.4045 1.10271L18.1245 3.14722C18.0028 3.34224 18.0619 3.59909 18.2569 3.72114Z" fill="#787882"/>
<path d="M19.9274 13.3601C20.0771 13.5347 20.3402 13.5548 20.5149 13.4051C20.6895 13.2554 20.7096 12.9923 20.5599 12.8176L18.5691 10.4956C18.4191 10.321 18.1563 10.3006 17.9816 10.4503C17.8069 10.6003 17.7866 10.8631 17.9363 11.0378L19.9274 13.3601Z" fill="#787882"/>
<path d="M14.6846 13.2277C14.8281 13.2277 14.9618 13.1539 15.038 13.0321L16.3177 10.9876C16.4373 10.7926 16.3773 10.5379 16.1837 10.4166C15.99 10.2954 15.7345 10.3529 15.6114 10.5455L14.3317 12.59C14.2514 12.7183 14.2471 12.8802 14.3203 13.0126C14.3936 13.1452 14.533 13.2274 14.6846 13.2277Z" fill="#787882"/>
</svg>
