<svg width="20" height="34" viewBox="0 0 20 34" fill="none" xmlns="http://www.w3.org/2000/svg">
<path d="M18.6133 22.4089C19.3916 21.3292 19.8031 19.9286 19.8031 18.3586V13.5529C19.8031 12.8354 19.2101 12.2517 18.4814 12.2517H9.92812C9.19944 12.2517 8.60663 12.8354 8.60663 13.5529V18.3586C8.60663 19.9286 9.01799 21.3292 9.79631 22.4089C10.5551 23.4616 11.6311 24.1578 12.9261 24.4396V31.0665C12.9261 31.1185 12.9217 31.1555 12.9167 31.1812C12.4422 31.2742 10.879 31.577 10.3226 31.6343C9.41542 31.7279 8.95541 32.1205 8.95541 32.8015C8.95541 33.5295 9.51199 33.9999 10.3734 33.9999H18.0363C18.8977 33.9999 19.4544 33.5295 19.4544 32.8015C19.4544 32.1205 18.9944 31.7279 18.087 31.6343C17.5306 31.577 15.9671 31.2742 15.4928 31.1812C15.4878 31.1511 15.4835 31.1084 15.4835 31.0505V24.4396C16.7785 24.1579 17.8545 23.4616 18.6133 22.4089ZM15.1618 32.1239V32.1241C15.248 32.1411 17.284 32.5461 17.9855 32.6183C18.3938 32.6603 18.4548 32.7353 18.4568 32.7381C18.4591 32.7419 18.4653 32.7618 18.4653 32.8016C18.4653 32.8534 18.4653 33.0111 18.0363 33.0111H10.3734C9.9444 33.0111 9.9444 32.8534 9.9444 32.8016C9.9444 32.7618 9.95051 32.7419 9.95249 32.7384C9.95483 32.7353 10.0158 32.6603 10.4238 32.6183C11.1256 32.5461 13.1616 32.1411 13.248 32.1241L13.2832 32.1157C13.348 32.0978 13.9152 31.9163 13.9152 31.0667C13.9152 31.0667 13.9152 25.6001 13.9152 23.7779C13.9152 23.5644 13.4909 23.537 13.4909 23.537C11.0881 23.1926 9.59561 21.2085 9.59561 18.3586V13.5529C9.59561 13.3837 9.74784 13.2408 9.92803 13.2408H18.4814C18.6616 13.2408 18.8138 13.3837 18.8138 13.5529V18.3586C18.8138 21.2084 17.3212 23.1926 14.9186 23.537C14.9186 23.537 14.4941 23.5532 14.4941 23.7779C14.4941 25.5961 14.4941 31.0506 14.4941 31.0506C14.4944 31.9298 15.0298 32.0962 15.1618 32.1239Z" fill="#787882"/>
<path d="M18.2115 18.3304C18.2115 17.6672 16.9005 18.3521 16.5316 18.3521C14.2136 18.3521 11.803 15.1382 10.8686 15.1382C10.4997 15.1382 10.1981 15.4324 10.1981 15.7921V18.3304C10.1981 20.8954 11.5746 22.9753 14.2049 22.9753C16.8351 22.9753 18.2115 20.8954 18.2115 18.3304Z" fill="#787882"/>
<path d="M13.9551 4.03749C14.2756 3.85649 14.5108 3.56031 14.6002 3.22501C14.6798 2.92676 14.6396 2.62114 14.4873 2.36443L13.416 0.559637C13.208 0.209234 12.8226 0 12.3849 0C12.1458 0 11.9066 0.0636605 11.693 0.184238C9.94337 1.17241 7.03971 2.65063 6.36462 2.68516C6.28343 2.6893 6.20242 2.69136 6.12374 2.69136C5.29112 2.69136 4.74281 2.45911 4.21249 2.2345C3.75068 2.03893 3.27314 1.83671 2.68446 1.83671C2.1375 1.83671 1.57408 2.00656 0.914281 2.37081C0.619716 2.49076 0.197021 2.87281 0.197021 3.67819V14.1431C0.197021 14.8742 0.640307 15.1336 1.01993 15.1336C1.1914 15.1336 1.32735 15.0821 1.36494 15.0663L1.39155 15.0552L6.17868 12.3525C7.81056 11.4311 8.03508 10.4355 8.27291 9.38129C8.41857 8.73551 8.56918 8.06771 9.08197 7.29371C9.44613 6.74441 12.2051 5.02594 13.9551 4.03749ZM8.25744 6.74765C7.64431 7.67307 7.46565 8.46513 7.30802 9.16396C7.08773 10.1406 6.94224 10.7858 5.69241 11.4914L1.27763 13.9839C1.27763 13.9839 1.1861 14.0257 1.1861 13.947C1.1861 13.7628 1.1861 13.4 1.1861 13.2102C1.1861 13.1422 1.25434 13.1177 1.28707 13.0993C2.26293 12.5497 4.74389 11.1477 4.74389 11.1477C6.55758 10.1237 5.95784 9.16972 6.80971 7.44414C7.41862 6.21058 11.5346 3.6514 12.1251 3.28823C12.3578 3.14517 11.6928 2.62519 11.2971 2.8123C10.206 3.32815 7.3296 4.80349 5.82738 5.10408C4.16249 5.43722 2.67492 5.18896 1.31162 6.02617C1.26963 6.05197 1.1861 6.03075 1.1861 5.8734V3.67846C1.1861 3.4338 1.25165 3.31952 1.29238 3.28715L1.31333 3.28112L1.36269 3.25352C1.88384 2.96192 2.30384 2.82615 2.68446 2.82615C3.07226 2.82615 3.40522 2.96714 3.82675 3.14562C4.38971 3.38408 5.09025 3.6808 6.12374 3.6808C6.21914 3.6808 6.31715 3.67828 6.41516 3.67325C7.62372 3.61138 11.9941 1.15056 12.1794 1.04581C12.2448 1.00895 12.3159 0.989435 12.3849 0.989435C12.4688 0.989435 12.538 1.0183 12.5656 1.06478L13.6367 2.86958C13.6527 2.89637 13.6553 2.93036 13.6446 2.97046C13.6236 3.04914 13.5578 3.12611 13.4688 3.17646C13.0035 3.4391 8.90385 5.77215 8.25744 6.74765Z" fill="#787882"/>
</svg>
