<svg width="33" height="33" viewBox="0 0 33 33" fill="none" xmlns="http://www.w3.org/2000/svg">
<path d="M21.1406 18.2918C20.4777 21.4961 22.6641 24.4957 25.7812 25.0267V31.0664H21.9141V33H31.582V31.0664H27.7148V25.0257C30.8602 24.4904 33.002 21.448 32.3748 18.3498L32.2396 17.4023H21.2567L21.1406 18.2918Z" fill="#787882"/>
<path d="M21.5079 15.4688H25.7812V11.6016H22.0301L21.5079 15.4688Z" fill="#787882"/>
<path d="M27.7148 15.4688H31.9881L31.466 11.6016H27.7148V15.4688Z" fill="#787882"/>
<path d="M23.8477 5.89847V3.86719H16.1133V9.66797H23.8477V7.91137C24.9731 8.30992 25.7812 9.37088 25.7812 10.6348V11.6016H27.7148V10.6348C27.7148 8.29758 26.0532 6.34662 23.8477 5.89847Z" fill="#787882"/>
<path d="M14.1797 11.0351V2.50008C13.864 2.27424 12.1859 0 8.81195 0H8.31445V9.66797H0.580078V13.5352H8.81195C12.1539 13.5352 13.9216 11.2196 14.1797 11.0351Z" fill="#787882"/>
<path d="M0.580078 0H6.38086V7.73438H0.580078V0Z" fill="#787882"/>
</svg>
