<svg width="29" height="29" viewBox="0 0 29 29" fill="none" xmlns="http://www.w3.org/2000/svg">
<path d="M24.1122 4.88774C22.5451 3.32091 20.6187 2.16088 18.5009 1.5086C16.383 0.856321 14.1378 0.731576 11.9607 1.14522C9.7836 1.55887 7.7406 2.49837 6.00953 3.88194C4.27846 5.26551 2.9118 7.05122 2.02851 9.08362C1.78749 9.12609 1.56242 9.23291 1.37711 9.39277C1.19181 9.55264 1.05315 9.75961 0.975805 9.99181C0.89846 10.224 0.885302 10.4728 0.937723 10.7118C0.990144 10.9509 1.1062 11.1713 1.2736 11.3499C0.450262 14.824 1.02293 18.4824 2.86849 21.5387C2.23118 22.7478 1.87311 24.0844 1.82064 25.4502C1.51713 25.5555 1.26074 25.7649 1.09695 26.0413C0.933156 26.3177 0.872549 26.6432 0.925876 26.96C0.979202 27.2768 1.14302 27.5645 1.38826 27.772C1.63351 27.9796 1.94433 28.0936 2.26561 28.0937H9.51561C9.73064 28.0937 9.94259 28.0425 10.134 27.9446C10.3254 27.8466 10.4908 27.7046 10.6166 27.5302C13.5158 28.3938 16.6201 28.2659 19.4384 27.1667C22.2567 26.0675 24.6279 24.0598 26.1766 21.4613C27.7254 18.8628 28.3633 15.822 27.9894 12.8201C27.6155 9.8183 26.2511 7.02689 24.1122 4.88774ZM2.26561 9.96874H9.51561C9.63578 9.96874 9.75104 10.0165 9.83602 10.1015C9.92099 10.1864 9.96873 10.3017 9.96873 10.4219C9.96873 10.542 9.92099 10.6573 9.83602 10.7423C9.75104 10.8273 9.63578 10.875 9.51561 10.875H2.26561C2.14543 10.875 2.03018 10.8273 1.9452 10.7423C1.86022 10.6573 1.81248 10.542 1.81248 10.4219C1.81248 10.3017 1.86022 10.1864 1.9452 10.1015C2.03018 10.0165 2.14543 9.96874 2.26561 9.96874ZM6.63192 17.1961C6.51505 17.3128 6.41347 17.4439 6.32963 17.5862C6.28055 17.657 6.21498 17.7147 6.13858 17.7544C6.06219 17.7941 5.97727 17.8146 5.89117 17.8141C5.80486 17.8146 5.71972 17.7941 5.64311 17.7543C5.5665 17.7145 5.50072 17.6567 5.45147 17.5858C5.36765 17.4437 5.26616 17.3127 5.14941 17.1961C5.01 17.0567 4.87631 16.9132 4.74834 16.7656H7.03311C6.90487 16.9129 6.77114 17.0564 6.63192 17.1961ZM7.71868 15.8594H4.06253C3.26588 14.6417 2.80657 13.2344 2.73148 11.7812H9.05002C8.97484 13.2345 8.51543 14.6417 7.71868 15.8594ZM4.50858 17.8368C4.67593 18.0039 4.78176 18.2227 4.80882 18.4576C4.83587 18.6925 4.78255 18.9297 4.65754 19.1304C4.37269 18.5284 4.14457 17.9012 3.97615 17.2569C4.1446 17.4563 4.32208 17.6496 4.50858 17.8368ZM5.1493 19.9601C5.48377 19.6259 5.68511 19.1813 5.7157 18.7095C5.77379 18.7165 5.83226 18.7201 5.89078 18.7201H5.89117C5.94926 18.7201 6.00729 18.7166 6.06495 18.7095C6.09556 19.1814 6.2969 19.6259 6.63135 19.9601C7.9045 21.2262 8.72903 22.8736 8.97939 24.6515L6.21046 21.8826C6.16838 21.8405 6.11843 21.8071 6.06345 21.7844C6.00847 21.7616 5.94955 21.7499 5.89004 21.7499C5.83053 21.7499 5.77161 21.7616 5.71663 21.7844C5.66166 21.8071 5.6117 21.8405 5.56963 21.8826L2.80126 24.6516C3.05159 22.8737 3.87612 21.2262 5.1493 19.9601ZM5.89061 22.8439L8.42165 25.375H3.35956L5.89061 22.8439ZM9.58114 23.171L9.90801 23.3597L10.3611 22.5749L9.57633 22.1218L9.35396 22.5069C8.89048 21.3107 8.18147 20.2249 7.27264 19.3194C7.17527 19.2221 7.09804 19.1065 7.04534 18.9793C6.99265 18.8521 6.96553 18.7158 6.96553 18.5781C6.96553 18.4404 6.99265 18.3041 7.04534 18.1769C7.09804 18.0497 7.17527 17.9341 7.27264 17.8368C8.91172 16.2067 9.87214 14.016 9.96041 11.7061C10.2639 11.6007 10.5203 11.3913 10.6841 11.1149C10.8479 10.8386 10.9085 10.5131 10.8552 10.1963C10.8019 9.87951 10.6381 9.59181 10.3929 9.38426C10.1477 9.17671 9.83687 9.06272 9.51561 9.06249H5.07985C6.03437 7.40885 7.40751 6.03571 9.06115 5.08119C10.7148 4.12668 12.5906 3.62444 14.5 3.62499C20.4965 3.62499 25.375 8.5035 25.375 14.5C25.375 20.4965 20.4965 25.375 14.5 25.375C12.8908 25.3795 11.301 25.023 9.84781 24.3317C9.78422 23.9395 9.69514 23.5517 9.58114 23.171ZM1.81248 14.5C1.81278 13.9282 1.85136 13.3571 1.92797 12.7904C2.07084 13.6935 2.34893 14.5699 2.75289 15.3902C2.86629 16.95 3.29287 18.4709 4.00714 19.8622C3.79146 20.1149 3.58958 20.379 3.40239 20.6534C2.35761 18.7709 1.81039 16.653 1.81248 14.5ZM9.51561 27.1875H2.26561C2.14543 27.1875 2.03018 27.1397 1.9452 27.0548C1.86022 26.9698 1.81248 26.8545 1.81248 26.7344C1.81248 26.6142 1.86022 26.4989 1.9452 26.414C2.03018 26.329 2.14543 26.2812 2.26561 26.2812H9.51561C9.63578 26.2812 9.75104 26.329 9.83602 26.414C9.92099 26.4989 9.96873 26.6142 9.96873 26.7344C9.96873 26.8545 9.92099 26.9698 9.83602 27.0548C9.75104 27.1397 9.63578 27.1875 9.51561 27.1875ZM23.4714 23.4714C21.853 25.0879 19.8282 26.2374 17.6108 26.7988C15.3934 27.3601 13.0655 27.3124 10.8729 26.6607C10.858 26.3912 10.7632 26.1322 10.6008 25.9166C10.4383 25.701 10.2155 25.5386 9.96052 25.4499C9.9595 25.4242 9.95893 25.3984 9.95769 25.3728C11.3958 25.9762 12.9404 26.2851 14.5 26.2812C20.9962 26.2812 26.2812 20.9962 26.2812 14.5C26.2812 8.00382 20.9962 2.71874 14.5 2.71874C12.3439 2.71793 10.2291 3.30907 8.38594 4.42771C6.54281 5.54635 5.04217 7.14954 4.04764 9.06249H3.0332C3.82562 7.39144 4.97374 5.91381 6.39717 4.73306C7.8206 3.55231 9.48493 2.69699 11.2736 2.22697C13.0623 1.75696 14.9321 1.68362 16.7521 2.01209C18.5721 2.34056 20.2983 3.0629 21.8099 4.12854C23.3214 5.19417 24.5817 6.57734 25.5026 8.18118C26.4235 9.78503 26.9826 11.5708 27.1409 13.4134C27.2992 15.256 27.0528 17.111 26.4189 18.8484C25.785 20.5858 24.7791 22.1636 23.4714 23.4714Z" fill="#787882"/>
<path d="M14.0469 4.53125H14.9531V6.34375H14.0469V4.53125Z" fill="#787882"/>
<path d="M22.6562 14.0469H24.4688V14.9531H22.6562V14.0469Z" fill="#787882"/>
<path d="M14.0469 22.6562H14.9531V24.4688H14.0469V22.6562Z" fill="#787882"/>
<path d="M9.12305 6.09326L9.90781 5.64017L10.3609 6.42498L9.57617 6.87807L9.12305 6.09326Z" fill="#787882"/>
<path d="M18.6383 22.5742L19.4231 22.1211L19.8762 22.9059L19.0914 23.359L18.6383 22.5742Z" fill="#787882"/>
<path d="M22.1213 19.4242L22.5745 18.6394L23.3593 19.0925L22.9062 19.8773L22.1213 19.4242Z" fill="#787882"/>
<path d="M22.1213 9.57605L22.9061 9.12292L23.3592 9.90774L22.5744 10.3609L22.1213 9.57605Z" fill="#787882"/>
<path d="M18.6383 6.42517L19.0914 5.64036L19.8762 6.09346L19.4231 6.87827L18.6383 6.42517Z" fill="#787882"/>
<path d="M15.2572 15.6284L17.9816 17.0784L17.235 17.2784L17.4695 18.1538L19.3265 17.6563C19.384 17.6409 19.4379 17.6143 19.4851 17.5781C19.5323 17.5418 19.5719 17.4966 19.6017 17.4451C19.6314 17.3935 19.6508 17.3366 19.6585 17.2776C19.6663 17.2186 19.6623 17.1587 19.6469 17.1012L19.1493 15.2443L18.2739 15.4788L18.5016 16.3284L15.8019 14.8912C15.9025 14.5568 15.8705 14.1964 15.7124 13.885C15.5544 13.5735 15.2825 13.3349 14.9531 13.2186V8.34397L15.5389 8.92981L16.1798 8.28898L14.8204 6.9296C14.7783 6.88752 14.7284 6.85414 14.6734 6.83137C14.6184 6.8086 14.5595 6.79688 14.5 6.79688C14.4405 6.79688 14.3815 6.8086 14.3266 6.83137C14.2716 6.85414 14.2216 6.88752 14.1796 6.9296L12.8202 8.28898L13.461 8.92981L14.0469 8.34397V13.2186C13.8647 13.2826 13.6982 13.3847 13.5585 13.5181C13.4189 13.6515 13.3093 13.8131 13.237 13.9922C13.1647 14.1712 13.1314 14.3637 13.1393 14.5566C13.1471 14.7496 13.1961 14.9386 13.2827 15.1112C13.3694 15.2838 13.4919 15.4359 13.6419 15.5575C13.792 15.679 13.9663 15.7672 14.1531 15.8161C14.3399 15.865 14.535 15.8736 14.7254 15.8412C14.9158 15.8089 15.0971 15.7363 15.2572 15.6284ZM14.0469 14.5C14.0469 14.4104 14.0734 14.3228 14.1232 14.2483C14.173 14.1738 14.2438 14.1157 14.3266 14.0814C14.4094 14.0471 14.5005 14.0381 14.5884 14.0556C14.6763 14.0731 14.757 14.1162 14.8204 14.1796C14.8838 14.243 14.9269 14.3237 14.9444 14.4116C14.9619 14.4995 14.9529 14.5906 14.9186 14.6734C14.8843 14.7562 14.8262 14.827 14.7517 14.8768C14.6772 14.9266 14.5896 14.9531 14.5 14.9531C14.3798 14.953 14.2647 14.9052 14.1797 14.8203C14.0948 14.7353 14.047 14.6202 14.0469 14.5Z" fill="#787882"/>
</svg>
