<svg width="32" height="32" viewBox="0 0 32 32" fill="none" xmlns="http://www.w3.org/2000/svg">
<path d="M4.88766 23.8164C4.42393 24.0461 4.0074 24.2539 3.63494 24.4543L3.62865 24.4579C3.45606 24.5503 3.29029 24.6421 3.13921 24.7328C2.48347 25.0665 2.1649 25.8252 2.38589 26.5269C3.06052 28.8461 8.6474 31.5152 14.7195 31.5152C14.8885 31.5152 15.0589 31.5152 15.2289 31.509C15.7414 31.4985 16.2587 31.4985 16.7691 31.509C23.0343 31.6564 28.9212 28.9107 29.6142 26.5253C29.8354 25.8234 29.5165 25.0646 28.8604 24.7313C28.7093 24.6405 28.5456 24.5487 28.3715 24.4558L28.3657 24.4532C27.9938 24.2528 27.5762 24.0446 27.1124 23.8148C24.1024 22.3213 19.5536 20.0655 19.1476 15.1695C18.9156 11.9002 19.2528 8.61544 20.1443 5.46148C20.4921 4.17099 18.4499 2.42777 16.2844 1.29466C15.2133 0.712273 14.0584 0.299249 12.8609 0.0702669C11.3317 -0.176815 10.7431 0.276955 10.5212 0.699775C10.3699 1.01344 10.3562 1.37599 10.4835 1.70017C10.4885 1.72785 10.4958 1.75506 10.5055 1.78148C10.5055 1.7862 10.5275 1.83761 10.5296 1.84233L11.3165 3.80168C12.5987 7.4465 13.1214 11.3151 12.8525 15.1695C12.4465 20.0655 7.89776 22.3213 4.88766 23.8164ZM16.7927 30.4577C16.2681 30.4477 15.7346 30.4472 15.2053 30.4577C9.89435 30.5815 5.58327 28.6531 4.0095 27.1118C4.98761 27.4139 5.98998 27.6308 7.00544 27.7602C7.03076 27.7643 7.05637 27.7665 7.08203 27.7665C7.35637 27.7657 7.58377 27.5537 7.60371 27.2801C7.62366 27.0065 7.42942 26.7637 7.15809 26.7231C4.64688 26.3559 3.79704 25.9394 3.52373 25.7484C3.57179 25.7034 3.62455 25.6636 3.68111 25.6299C3.82957 25.5412 3.99586 25.4484 4.1737 25.3545C6.21907 24.6111 10.8491 24.1311 16.0001 24.1311C21.151 24.1311 25.781 24.6111 27.8275 25.3545C28.0032 25.4484 28.1711 25.5407 28.3195 25.6299C28.379 25.6653 28.4343 25.7074 28.4843 25.7552C27.6575 26.4152 23.0663 27.2787 16.0001 27.2787C14.5312 27.2787 13.1316 27.2419 11.8327 27.1695C11.543 27.1533 11.295 27.375 11.2787 27.6648C11.2625 27.9545 11.4842 28.2025 11.774 28.2187C13.0928 28.2922 14.5144 28.3294 16.0001 28.3294C17.0639 28.3294 24.6296 28.2859 28.0084 27.0956C26.4483 28.6389 22.1173 30.5872 16.7927 30.4577ZM11.4503 1.18712C11.4697 1.14987 11.6328 1.04863 12.0599 1.04863C12.2723 1.05085 12.4842 1.06997 12.6936 1.10581C13.7793 1.31669 14.8259 1.69395 15.7965 2.22423C18.2243 3.49479 19.2184 4.84718 19.1329 5.17663L19.125 5.20653C19.092 5.25899 18.7862 5.43105 17.8839 5.28522C16.7981 5.07428 15.7514 4.69685 14.7809 4.16627C13.7917 3.67161 12.8849 3.02716 12.0924 2.25571C11.4529 1.59053 11.423 1.23905 11.4503 1.18712ZM12.4926 3.97636C13.0639 4.39478 13.6661 4.76919 14.2941 5.09637C15.3649 5.67865 16.5194 6.09167 17.7165 6.32076C17.9802 6.36543 18.247 6.38894 18.5144 6.39105C18.6251 6.39105 18.7274 6.38528 18.8239 6.37584C18.1256 9.28099 17.8809 12.2767 18.0984 15.2566C18.4557 19.5446 21.5083 21.952 24.361 23.5635C21.5868 23.2282 18.7944 23.0674 16.0001 23.0819C13.2051 23.0673 10.4119 23.2281 7.63704 23.5635C10.4919 21.952 13.5424 19.5446 13.9017 15.2566C14.1773 11.4405 13.6985 7.60745 12.4926 3.97636Z" fill="#787882"/>
</svg>
