<svg width="27" height="27" viewBox="0 0 27 27" fill="none" xmlns="http://www.w3.org/2000/svg">
<path d="M13.5 0C6.04416 0 0 6.04416 0 13.5C0 20.9558 6.04416 27 13.5 27C20.9558 27 27 20.9558 27 13.5C27 6.04416 20.9559 0 13.5 0ZM20.0019 14.1454C19.9795 14.1703 19.9558 14.1941 19.9309 14.2165L10.288 22.8951C9.88522 23.2435 9.27625 23.1996 8.92781 22.7968C8.58903 22.4053 8.61994 21.8161 8.99776 21.4621L17.8442 13.5001L8.99776 5.53791C8.60909 5.17381 8.5892 4.5636 8.95329 4.17493C9.30727 3.79711 9.89647 3.7662 10.288 4.10498L19.9309 12.7836C20.3265 13.14 20.3583 13.7497 20.0019 14.1454Z" fill="#787882"/>
</svg>
