<svg width="28" height="28" viewBox="0 0 28 28" fill="none" xmlns="http://www.w3.org/2000/svg">
<circle cx="14" cy="14" r="14" fill="#787882"/>
<path d="M19.6554 13.5058L11.4368 5.87402C11.2467 5.69736 10.993 5.60004 10.7224 5.60004C10.4518 5.60004 10.1981 5.69736 10.008 5.87402L9.40274 6.43592C9.0089 6.80206 9.0089 7.39715 9.40274 7.76273L16.3041 14.1715L9.39508 20.5873C9.20499 20.764 9.10004 20.9995 9.10004 21.2506C9.10004 21.502 9.20499 21.7375 9.39508 21.9143L10.0003 22.4761C10.1906 22.6527 10.4442 22.75 10.7147 22.75C10.9853 22.75 11.239 22.6527 11.4291 22.4761L19.6554 14.8373C19.846 14.66 19.9506 14.4234 19.95 14.1719C19.9506 13.9194 19.846 13.6829 19.6554 13.5058Z" fill="white"/>
</svg>
