<svg width="34" height="34" viewBox="0 0 34 34" fill="none" xmlns="http://www.w3.org/2000/svg">
<g clip-path="url(#clip0)">
<path d="M33.9099 13.0825C33.6525 12.29 32.8855 11.7455 31.8059 11.5886L23.0062 10.3097L19.0709 2.33629C18.5881 1.35784 17.8333 0.796753 17.0001 0.796753C16.1669 0.796753 15.412 1.35784 14.929 2.33629L10.9942 10.3097L2.19401 11.5886C1.11438 11.7455 0.347338 12.29 0.0900124 13.0825C-0.167313 13.8749 0.133073 14.7662 0.914387 15.5276L7.28215 21.7342L5.77866 30.4986C5.58645 31.6195 5.91407 32.2913 6.22276 32.6573C6.58514 33.0869 7.11302 33.3235 7.70964 33.3235C8.15892 33.3235 8.63648 33.1922 9.12934 32.9331L17.0001 28.7951L24.871 32.9331C25.3639 33.1922 25.8415 33.3235 26.2905 33.3237H26.2907C26.8874 33.3237 27.4155 33.0869 27.7776 32.6573C28.0863 32.2913 28.4139 31.6195 28.2215 30.4986L26.7185 21.7342L33.0857 15.5278C33.8671 14.7662 34.1674 13.8749 33.9099 13.0825ZM31.6954 14.1011L24.953 20.6733C24.7183 20.9021 24.6111 21.232 24.6666 21.555L26.2581 30.8356C26.3045 31.1056 26.2845 31.2589 26.2661 31.3305C26.195 31.3258 26.0425 31.2983 25.7981 31.1699L17.4636 26.7881C17.3183 26.7119 17.1593 26.6737 17.0001 26.6737C16.8408 26.6737 16.6815 26.7119 16.5365 26.7881L8.2025 31.1697C7.95814 31.2981 7.80536 31.3258 7.73428 31.3305C7.71612 31.2589 7.69589 31.1056 7.74232 30.8356L9.33426 21.5553C9.38951 21.232 9.28238 20.9021 9.04762 20.6736L2.30503 14.1011C2.10893 13.91 2.035 13.7743 2.0075 13.7056C2.07002 13.6661 2.20957 13.5997 2.48065 13.5603L11.7991 12.2062C12.1236 12.159 12.404 11.9551 12.549 11.6612L16.7158 3.218C16.8372 2.97234 16.9433 2.86028 17.0003 2.81281C17.0571 2.86028 17.1635 2.97234 17.2846 3.218L21.4516 11.6612C21.5969 11.9551 21.8773 12.159 22.2018 12.2062L31.5195 13.5603C31.7908 13.5997 31.9301 13.6661 31.9926 13.7056C31.9651 13.774 31.8915 13.91 31.6954 14.1011Z" fill="#787882"/>
</g>
<defs>
<clipPath id="clip0">
<rect width="34" height="34" fill="white"/>
</clipPath>
</defs>
</svg>
