<svg width="43" height="31" viewBox="0 0 43 31" fill="none" xmlns="http://www.w3.org/2000/svg">
<path d="M40.4411 0H12.8214C11.7262 0 11.7247 1.70591 12.8214 1.70591H40.4411C40.9115 1.70591 41.2941 2.08854 41.2941 2.55886V22.7157C41.2941 23.186 40.9115 23.5686 40.4411 23.5686H25.5065C25.2454 23.5686 24.9988 23.6881 24.837 23.8931L21.3965 28.2518L17.7475 23.8753C17.5854 23.681 17.3454 23.5686 17.0923 23.5686H2.55886C2.08854 23.5686 1.70591 23.186 1.70591 22.7157V2.55886C1.70591 2.08854 2.08854 1.70591 2.55886 1.70591H5.80452C6.89971 1.70591 6.90124 0 5.80452 0H2.55886C1.1479 0 0 1.1479 0 2.55886V22.7157C0 24.1266 1.1479 25.2745 2.55886 25.2745H16.6931L20.7596 30.1517C21.103 30.5636 21.7518 30.5552 22.0842 30.1339L25.92 25.2745H40.4411C41.8521 25.2745 43 24.1266 43 22.7157V2.55886C43 1.1479 41.8521 0 40.4411 0Z" fill="#787882"/>
<path d="M4.72342 10.9745C4.63309 11.2524 4.69135 11.5571 4.8778 11.7821L6.53858 13.7872L6.37354 16.3856C6.24389 18.4212 9.30002 16.2595 9.95935 16.2726C10.6244 16.2859 13.6734 18.3981 13.5452 16.3856L13.38 13.7872L15.0409 11.7821C15.4288 11.3139 15.1883 10.5634 14.5956 10.4118L12.0735 9.76592L10.6798 7.56684C10.3544 7.05319 9.56631 7.05004 9.23886 7.56684L7.84514 9.76592L5.32304 10.4118C5.03995 10.4842 4.81374 10.6965 4.72342 10.9745ZM8.59608 11.3344C9.22667 11.173 9.64171 10.1177 9.95927 9.61657C10.2717 10.1096 10.6979 11.1746 11.3225 11.3344L12.8685 11.7304L11.8503 12.9595C11.7117 13.1268 11.6422 13.3408 11.656 13.5576L11.7573 15.1505L10.2738 14.5621C10.0717 14.482 9.84676 14.482 9.6447 14.5621L8.16116 15.1505L8.26232 13.5576C8.27614 13.3408 8.20662 13.1268 8.06801 12.9595L7.04993 11.7304L8.59608 11.3344Z" fill="#787882"/>
<path d="M26.6506 10.9744C26.5603 10.6965 26.3341 10.4842 26.051 10.4117L23.5289 9.7658L22.1352 7.56672C21.8098 7.05307 21.0217 7.04991 20.6943 7.56672L19.3005 9.7658L16.7784 10.4117C16.4954 10.4842 16.2691 10.6965 16.1788 10.9744C16.0886 11.2523 16.1468 11.5571 16.3332 11.7821L17.9941 13.7871L17.8289 16.3856C17.6992 18.4211 20.7555 16.2594 21.4148 16.2726C22.0798 16.2859 25.1288 18.3981 25.0006 16.3856L24.8354 13.7871L26.4963 11.7821C26.6827 11.5571 26.7409 11.2523 26.6506 10.9744ZM23.3058 12.9594C23.1672 13.1268 23.0977 13.3408 23.1115 13.5576L23.2128 15.1505C22.6801 14.9392 22 14.5019 21.4148 14.5019C20.8323 14.5019 20.148 14.9397 19.6167 15.1505L19.718 13.5576C19.7318 13.3408 19.6623 13.1268 19.5237 12.9594L18.5055 11.7303L20.0516 11.3344C20.6822 11.173 21.0972 10.1176 21.4148 9.61654C21.7272 10.1095 22.1534 11.1745 22.7779 11.3344L24.324 11.7303L23.3058 12.9594Z" fill="#787882"/>
<path d="M38.106 10.9744C38.0157 10.6965 37.7895 10.4842 37.5064 10.4117L34.9843 9.7658L33.5906 7.56672C33.2652 7.05307 32.4771 7.04991 32.1497 7.56672L30.756 9.7658L28.2339 10.4117C27.6448 10.5625 27.3982 11.3109 27.7885 11.782L29.4494 13.787L29.2843 16.3855C29.1546 18.4207 32.2093 16.2592 32.8701 16.2725C33.5339 16.2857 36.5841 18.3985 36.4559 16.3855L36.2908 13.787L37.9516 11.782C38.1381 11.5571 38.1963 11.2523 38.106 10.9744ZM34.7613 12.9594C34.6227 13.1268 34.5532 13.3408 34.567 13.5576L34.6682 15.1505L33.1847 14.562C32.975 14.4819 32.7653 14.4819 32.5556 14.562L31.0721 15.1505L31.1733 13.5576C31.1871 13.3408 31.1176 13.1268 30.979 12.9594L29.9608 11.7303L31.5069 11.3344C32.1375 11.173 32.5525 10.1176 32.8701 9.61654C33.1825 10.1095 33.6087 11.1745 34.2333 11.3344L35.7793 11.7303L34.7613 12.9594Z" fill="#787882"/>
<path d="M8.85851 1.5616C9.50052 2.00155 10.3577 1.36226 10.1529 0.625653C10.0554 0.274918 9.73747 0.019459 9.37335 0.00137639C9.01008 -0.0166209 8.66668 0.20745 8.53618 0.546413C8.39561 0.911818 8.52875 1.34606 8.85851 1.5616Z" fill="#787882"/>
</svg>
