<svg width="30" height="30" viewBox="0 0 30 30" fill="none" xmlns="http://www.w3.org/2000/svg">
<path d="M26.4844 30H3.51562C1.577 30 0 28.423 0 26.4844V3.51562C0 1.577 1.577 0 3.51562 0H26.4844C28.423 0 30 1.577 30 3.51562V26.4844C30 28.423 28.423 30 26.4844 30ZM3.51562 2.34375C2.86949 2.34375 2.34375 2.86949 2.34375 3.51562V26.4844C2.34375 27.1305 2.86949 27.6562 3.51562 27.6562H26.4844C27.1305 27.6562 27.6562 27.1305 27.6562 26.4844V3.51562C27.6562 2.86949 27.1305 2.34375 26.4844 2.34375H3.51562ZM25.248 8.8678L23.5018 7.30408L12.664 19.4076L6.3739 13.4283L4.75914 15.1268L12.7993 22.7701L25.248 8.8678Z" fill="#787882"/>
</svg>
