<svg width="37" height="37" viewBox="0 0 37 37" fill="none" xmlns="http://www.w3.org/2000/svg">
<path d="M16.9579 35.4342C7.60798 35.4342 0 27.8265 0 18.4766C0 9.12666 7.60798 1.51868 16.9579 1.51868C20.2092 1.51868 23.3724 2.44512 26.1057 4.19948C26.6423 4.54499 26.7996 5.26028 26.454 5.79831C26.1074 6.33633 25.3935 6.49186 24.8555 6.14664C22.4968 4.63108 19.7652 3.8311 16.9579 3.8311C8.88275 3.8311 2.31243 10.4014 2.31243 18.4766C2.31243 26.5514 8.88275 33.1218 16.9579 33.1218C25.0328 33.1218 31.6031 26.5514 31.6031 18.4766C31.6031 17.9939 31.5799 17.516 31.5353 17.046C31.4738 16.4092 31.9393 15.8449 32.5744 15.7834C33.2126 15.7246 33.7752 16.1873 33.837 16.8224C33.8893 17.3667 33.9155 17.9185 33.9155 18.4766C33.9155 27.8265 26.3078 35.4342 16.9579 35.4342Z" fill="#787882"/>
<path d="M18.8847 22.3305C18.5889 22.3305 18.2928 22.2179 18.0678 21.9915L11.1305 15.0542C10.6789 14.6023 10.6789 13.8701 11.1305 13.4184C11.5822 12.9668 12.3144 12.9668 12.7661 13.4184L18.8864 19.5388L35.0254 3.3995C35.4774 2.94785 36.2096 2.94785 36.6613 3.3995C37.1129 3.85114 37.1129 4.58337 36.6613 5.03502L19.7034 21.9929C19.4767 22.2179 19.1809 22.3305 18.8847 22.3305Z" fill="#787882"/>
</svg>
