<svg width="32" height="32" viewBox="0 0 32 32" fill="none" xmlns="http://www.w3.org/2000/svg">
<g clip-path="url(#clip0)">
<path d="M16 0.000335693C15.632 0.000335693 15.3333 0.29902 15.3333 0.667017V6.00028C15.3333 6.36827 15.632 6.66696 16 6.66696C16.368 6.66696 16.6667 6.36827 16.6667 6.00028V0.667017C16.6666 0.29902 16.368 0.000335693 16 0.000335693Z" fill="#787882"/>
<path d="M19.1387 2.86166L16.4721 0.194998C16.2121 -0.0649994 15.7894 -0.0649994 15.5294 0.194998L12.8627 2.86166C12.6027 3.12166 12.6027 3.54434 12.8627 3.80434C13.1227 4.06434 13.5454 4.06434 13.8054 3.80434L16.0001 1.60967L18.1947 3.80565C18.3254 3.93496 18.496 4.00034 18.6667 4.00034C18.8374 4.00034 19.008 3.93502 19.1387 3.80434C19.3987 3.54428 19.3987 3.12166 19.1387 2.86166Z" fill="#787882"/>
<path d="M26.6666 10.6669H21.3334C20.9654 10.6669 20.6667 10.9656 20.6667 11.3336C20.6667 11.7015 20.9654 12.0002 21.3334 12.0002H26.6666C27.0346 12.0002 27.3333 11.7015 27.3333 11.3336C27.3333 10.9656 27.0346 10.6669 26.6666 10.6669Z" fill="#787882"/>
<path d="M27.1386 10.8629L24.4719 8.19625C24.2119 7.93625 23.7893 7.93625 23.5293 8.19625C23.2693 8.45625 23.2693 8.87893 23.5293 9.13893L25.7239 11.3336L23.5279 13.5296C23.2679 13.7896 23.2679 14.2123 23.5279 14.4723C23.6586 14.6016 23.8293 14.6669 23.9999 14.6669C24.1706 14.6669 24.3412 14.6016 24.4719 14.4723L27.1386 11.8056C27.3986 11.5456 27.3986 11.1229 27.1386 10.8629Z" fill="#787882"/>
<path d="M10.6667 10.6669H5.33343C4.96543 10.6669 4.66675 10.9656 4.66675 11.3336C4.66675 11.7015 4.96543 12.0002 5.33343 12.0002H10.6667C11.0347 12.0002 11.3334 11.7015 11.3334 11.3336C11.3334 10.9656 11.0347 10.6669 10.6667 10.6669Z" fill="#787882"/>
<path d="M6.27618 11.3336L8.47084 9.13893C8.73084 8.87893 8.73084 8.45625 8.47084 8.19625C8.21084 7.93625 7.78816 7.93625 7.52816 8.19625L4.8615 10.8629C4.6015 11.1229 4.6015 11.5456 4.8615 11.8056L7.52816 14.4723C7.65885 14.6016 7.82947 14.6669 8.00016 14.6669C8.17085 14.6669 8.34147 14.6016 8.47084 14.4709C8.73084 14.2109 8.73084 13.7883 8.47084 13.5283L6.27618 11.3336Z" fill="#787882"/>
<path d="M23.2026 19.3815C22.2426 18.1002 20.4453 17.7922 19.1106 18.6802L17.9999 19.4202V11.3336C17.9999 10.2309 17.1026 9.33359 16 9.33359C14.8973 9.33359 14 10.2309 14 11.3336V13.4469C13.792 13.3735 13.5667 13.3335 13.3333 13.3335C12.4133 13.3335 11.6346 13.9589 11.404 14.8068C11.1747 14.7175 10.9267 14.6668 10.6667 14.6668C9.74671 14.6668 8.96803 15.2922 8.73741 16.1401C8.5081 16.0508 8.2601 16.0001 8.0001 16.0001C6.89743 16.0001 6.00012 16.8975 6.00012 18.0001V23.3334C6.00012 26.6414 8.6921 29.3333 12.0001 29.3333H14.24C15.5453 29.3333 16.7987 28.7813 17.6813 27.8213L23.0773 21.9334C23.7266 21.2228 23.78 20.1508 23.2026 19.3815ZM22.0933 21.0308L16.6973 26.9187C16.068 27.6067 15.172 28 14.24 28H12.0001C9.42678 28 7.33342 25.9067 7.33342 23.3334V18.0001C7.33342 17.6321 7.63211 17.3334 8.0001 17.3334C8.3681 17.3334 8.66678 17.6321 8.66678 18.0001V18.6668C8.66678 19.0348 8.96547 19.3335 9.33347 19.3335C9.70146 19.3335 10.0001 19.0348 10.0001 18.6668V16.6668C10.0001 16.2988 10.2988 16.0001 10.6668 16.0001C11.0348 16.0001 11.3335 16.2988 11.3335 16.6668V18.6668C11.3335 19.0348 11.6322 19.3335 12.0002 19.3335C12.3682 19.3335 12.6669 19.0348 12.6669 18.6668V15.3335C12.6669 14.9655 12.9656 14.6668 13.3336 14.6668C13.7015 14.6668 14.0002 14.9655 14.0002 15.3335V18.6668C14.0002 19.0348 14.2989 19.3335 14.6669 19.3335C15.0349 19.3335 15.3336 19.0348 15.3336 18.6668V11.3336C15.3336 10.9656 15.6323 10.6669 16.0003 10.6669C16.3683 10.6669 16.667 10.9656 16.667 11.3336V20.6668C16.667 20.9135 16.803 21.1388 17.0203 21.2535C17.235 21.3695 17.5003 21.3562 17.7043 21.2202L19.8509 19.7882C20.5962 19.2935 21.5989 19.4642 22.1362 20.1802C22.328 20.4361 22.3106 20.7948 22.0933 21.0308Z" fill="#787882"/>
<path d="M17.3333 28.0001H8.00012C7.63212 28.0001 7.33344 28.2987 7.33344 28.6667V31.3334C7.33344 31.7014 7.63212 32.0001 8.00012 32.0001C8.36811 32.0001 8.6668 31.7014 8.6668 31.3334V29.3334H16.6667V31.3334C16.6667 31.7014 16.9654 32.0001 17.3334 32.0001C17.7014 32.0001 18.0001 31.7014 18.0001 31.3334V28.6667C18 28.2987 17.7013 28.0001 17.3333 28.0001Z" fill="#787882"/>
</g>
<defs>
<clipPath id="clip0">
<rect width="32" height="32" fill="white"/>
</clipPath>
</defs>
</svg>
