<svg width="29" height="29" viewBox="0 0 29 29" fill="none" xmlns="http://www.w3.org/2000/svg">
<g clip-path="url(#clip0)">
<path d="M23.345 10.0052L24.9401 11.6003L23.345 13.1952L24.0216 13.8718L26.2933 11.6003L24.0216 9.32858L23.345 10.0052Z" fill="#787882"/>
<path d="M24.6501 7.25037C22.2335 7.25037 20.3002 9.18367 20.3002 11.6003C20.3002 14.0169 22.2335 15.9502 24.6501 15.9502C27.0667 15.9502 29 14.0169 29 11.6003C29 9.18367 27.0667 7.25037 24.6501 7.25037ZM24.6501 14.9836C22.7652 14.9836 21.2668 13.4852 21.2668 11.6003C21.2668 9.71538 22.7652 8.21702 24.6501 8.21702C26.535 8.21702 28.0334 9.71538 28.0334 11.6003C28.0334 13.4852 26.535 14.9836 24.6501 14.9836Z" fill="#787882"/>
<path d="M14.4034 8.5071L16.5784 5.80042L14.4034 3.09375L13.6301 3.67384L15.3217 5.80042L13.6301 7.92701L14.4034 8.5071Z" fill="#787882"/>
<path d="M19.8168 14.9836H14.0169V10.1504C14.0169 9.32861 13.3884 8.70038 12.5669 8.70038H12.0836C11.2618 8.70038 10.6336 9.32861 10.6336 10.1504V16.4336H9.66696C8.84521 16.4336 8.21698 17.0618 8.21698 17.8836V21.4118L11.1169 26.7284V29.0001H19.8168V26.68L21.2668 23.2967V16.4336C21.2668 15.6118 20.6383 14.9836 19.8168 14.9836ZM12.0836 28.0334V27.0668H18.8502V28.0334H12.0836ZM20.3001 23.1034L18.9951 26.1001H11.8903L9.18363 21.1217V17.8836C9.18363 17.5935 9.37692 17.4003 9.66696 17.4003H10.6336V19.3336H11.6003V10.1504C11.6003 9.86031 11.7935 9.66703 12.0836 9.66703H12.5669C12.857 9.66703 13.0502 9.86031 13.0502 10.1504V18.3669H14.0169V15.9503H15.4669V18.3669H16.4335V15.9503H17.8835V18.3669H18.8502V15.9503H19.8168C20.1069 15.9503 20.3001 16.1436 20.3001 16.4336V23.1034Z" fill="#787882"/>
<path d="M17.8835 23.5383L17.0134 24.8434L17.7867 25.4235L18.8502 23.8284V21.7502H17.8835V23.5383Z" fill="#787882"/>
<path d="M10.1987 7.97535C9.86023 7.29874 9.66694 6.52537 9.66694 5.80038C9.66694 3.14208 11.8419 0.967116 14.5002 0.967116C17.1585 0.967116 19.3335 3.14208 19.3335 5.80038C19.3335 8.12025 17.6902 10.1503 15.3701 10.5369L15.5634 11.5035C18.705 10.9237 20.7834 7.87859 20.2034 4.73697C19.6235 1.59535 16.5784 -0.482863 13.4368 0.0969869C10.2952 0.677073 8.21697 3.72193 8.79682 6.86356C8.89358 7.39526 9.08686 7.92697 9.32852 8.45867L10.1987 7.97535Z" fill="#787882"/>
<path d="M4.97852 9.32858L2.70703 11.6003L4.97852 13.8718L5.65513 13.1952L4.06025 11.6003L5.65513 10.0052L4.97852 9.32858Z" fill="#787882"/>
<path d="M4.35036 7.25037C1.93373 7.25037 0.000427246 9.18367 0.000427246 11.6003C0.000427246 14.0169 1.93373 15.9502 4.35036 15.9502C6.767 15.9502 8.7003 14.0169 8.7003 11.6003C8.7003 9.18367 6.767 7.25037 4.35036 7.25037ZM4.35036 14.9836C2.46544 14.9836 0.96708 13.4852 0.96708 11.6003C0.96708 9.71538 2.46544 8.21702 4.35036 8.21702C6.23529 8.21702 7.73365 9.71538 7.73365 11.6003C7.73365 13.4852 6.23529 14.9836 4.35036 14.9836Z" fill="#787882"/>
</g>
<defs>
<clipPath id="clip0">
<rect width="29" height="29" fill="white"/>
</clipPath>
</defs>
</svg>
