<svg width="30" height="30" viewBox="0 0 30 30" fill="none" xmlns="http://www.w3.org/2000/svg">
<path d="M26.25 0H22.5C22.155 0 21.875 0.280019 21.875 0.625019C21.875 0.970019 22.155 1.24998 22.5 1.24998H25.625V4.37496C25.625 4.71996 25.905 4.99998 26.25 4.99998C26.595 4.99998 26.875 4.71996 26.875 4.37496V0.624961C26.875 0.28002 26.595 0 26.25 0Z" fill="#787882"/>
<path d="M26.25 10C25.905 10 25.625 10.28 25.625 10.625V13.75H22.5C22.155 13.75 21.875 14.03 21.875 14.375C21.875 14.72 22.155 15 22.5 15H26.25C26.595 15 26.875 14.72 26.875 14.375V10.625C26.875 10.28 26.595 10 26.25 10Z" fill="#787882"/>
<path d="M16.25 0H12.5C12.155 0 11.8749 0.280019 11.8749 0.625019V4.37502C11.8749 4.72002 12.155 5.00004 12.5 5.00004C12.845 5.00004 13.125 4.72002 13.125 4.37502V1.24998H16.25C16.595 1.24998 16.875 0.969961 16.875 0.624961C16.875 0.279961 16.595 0 16.25 0Z" fill="#787882"/>
<path d="M26.6913 0.183759C26.4475 -0.0599914 26.0513 -0.0599914 25.8075 0.183759L22.0575 3.93376C21.8138 4.17751 21.8138 4.57378 22.0575 4.81753C22.18 4.93876 22.34 5.00005 22.5 5.00005C22.66 5.00005 22.82 4.93882 22.9413 4.81753L26.6913 1.06753C26.935 0.823778 26.935 0.427509 26.6913 0.183759Z" fill="#787882"/>
<path d="M16.0663 3.30874L12.9413 0.183759C12.6975 -0.0599914 12.3013 -0.0599914 12.0575 0.183759C11.8138 0.427508 11.8138 0.823778 12.0575 1.06753L15.1825 4.19251C15.305 4.31374 15.465 4.37503 15.625 4.37503C15.785 4.37503 15.945 4.3138 16.0663 4.19251C16.31 3.94876 16.31 3.55249 16.0663 3.30874Z" fill="#787882"/>
<path d="M26.6912 13.9338L23.5662 10.8088C23.3225 10.565 22.9262 10.565 22.6824 10.8088C22.4387 11.0525 22.4387 11.4488 22.6824 11.6926L25.8074 14.8175C25.9299 14.9388 26.0899 15.0001 26.2499 15.0001C26.4099 15.0001 26.5699 14.9388 26.6912 14.8175C26.9349 14.5737 26.9349 14.1775 26.6912 13.9338Z" fill="#787882"/>
<path d="M21.7388 20.1288C21.4413 19.8313 21.085 19.6288 20.705 19.5238C21.4212 18.5888 21.35 17.24 20.4887 16.3788C20.1912 16.0825 19.835 15.88 19.4562 15.7725C20.1713 14.8362 20.1 13.49 19.2387 12.6288C18.9475 12.3375 18.5987 12.1375 18.23 12.0288L20.445 9.81375C21.375 8.88252 21.375 7.36752 20.4375 6.43002C19.5063 5.49879 17.9925 5.49879 17.0613 6.43002L8.55125 14.94L7.75877 9.8925C7.56377 8.52873 6.37877 7.5 5 7.5C3.96623 7.5 3.125 8.34123 3.125 9.375V21.1613C3.125 22.9975 3.84002 24.7237 5.13875 26.0225L7.10498 27.9887C8.40125 29.2863 10.1262 30 11.96 30C13.6725 30 15.3137 29.365 16.5812 28.2125L21.7462 23.5125C22.6763 22.5813 22.6763 21.0663 21.7388 20.1288ZM20.8838 22.6087L15.74 27.2887C14.7038 28.23 13.3613 28.75 11.96 28.75C10.46 28.75 9.05 28.1663 7.98875 27.105L6.02252 25.1388C4.96004 24.0763 4.37504 22.6638 4.37504 21.1613V9.375C4.37504 9.03 4.65506 8.74998 5.00006 8.74998C5.76008 8.74998 6.41381 9.31746 6.52256 10.0787L7.50758 16.3462C7.54385 16.5787 7.70756 16.7699 7.93133 16.8437C8.1551 16.9162 8.40008 16.8562 8.56631 16.6912L17.945 7.3125C18.3887 6.87 19.11 6.86877 19.5612 7.32C20.005 7.76373 20.005 8.48502 19.5612 8.92875L13.3075 15.1825C13.1863 15.305 13.125 15.465 13.125 15.625C13.125 15.785 13.1862 15.945 13.3075 16.0663C13.5513 16.31 13.9476 16.31 14.1913 16.0663L16.7451 13.5125C17.1888 13.07 17.9101 13.0688 18.3613 13.52C18.805 13.9638 18.805 14.6851 18.3613 15.1288L15.8076 17.6825C15.6863 17.8051 15.625 17.965 15.625 18.125C15.625 18.2851 15.6863 18.445 15.8088 18.5663C16.0525 18.8101 16.4488 18.8101 16.6926 18.5663L17.9963 17.2625C18.4401 16.82 19.1613 16.8188 19.6126 17.27C20.0563 17.7138 20.0563 18.4351 19.6126 18.8788L18.3088 20.1826C18.3076 20.1826 18.3076 20.1851 18.3063 20.1851C18.0651 20.4301 18.0663 20.8238 18.3088 21.0663C18.5526 21.3101 18.9488 21.3101 19.1926 21.0663L19.2463 21.0126C19.6763 20.5826 20.4188 20.5764 20.8626 21.0201C21.3063 21.4638 21.3063 22.185 20.8838 22.6087Z" fill="#787882"/>
<path d="M18.75 2.50003C16.55 2.50003 14.54 3.80251 13.6287 5.81626C13.4874 6.13126 13.6275 6.50128 13.9412 6.64378C14.255 6.78505 14.6262 6.64501 14.7687 6.3313C15.4775 4.76374 17.04 3.75001 18.75 3.75001C21.1625 3.75001 23.125 5.71249 23.125 8.12503C23.125 9.83503 22.1113 11.3975 20.5438 12.1063C20.2288 12.2476 20.0888 12.6188 20.2313 12.9325C20.3351 13.1638 20.5625 13.3 20.8013 13.3C20.8863 13.3 20.9738 13.2825 21.0575 13.245C23.0725 12.335 24.375 10.325 24.375 8.12503C24.375 5.02378 21.8512 2.50003 18.75 2.50003Z" fill="#787882"/>
</svg>
