<svg width="32" height="32" viewBox="0 0 32 32" fill="none" xmlns="http://www.w3.org/2000/svg">
<g clip-path="url(#clip0)">
<path d="M4.75 15C5.50635 15 6.19092 14.6965 6.69678 14.2092L9.47192 15.5967C9.45801 15.7097 9.4375 15.8208 9.4375 15.9375C9.4375 17.4883 10.6992 18.75 12.25 18.75C13.8008 18.75 15.0625 17.4883 15.0625 15.9375C15.0625 15.5046 14.9561 15.0994 14.7805 14.7327L18.5452 10.968C18.9119 11.1436 19.3171 11.25 19.75 11.25C21.3008 11.25 22.5625 9.98828 22.5625 8.4375C22.5625 8.14551 22.5051 7.86938 22.4221 7.60449L25.6931 5.15185C26.1394 5.44995 26.6743 5.625 27.25 5.625C28.8008 5.625 30.0625 4.36328 30.0625 2.8125C30.0625 1.26172 28.8008 0 27.25 0C25.6992 0 24.4375 1.26172 24.4375 2.8125C24.4375 3.10449 24.4949 3.38061 24.5779 3.64551L21.3069 6.09814C20.8606 5.80005 20.3257 5.625 19.75 5.625C18.1992 5.625 16.9375 6.88672 16.9375 8.4375C16.9375 8.87036 17.0439 9.27563 17.2195 9.64233L13.4548 13.407C13.0881 13.2314 12.6829 13.125 12.25 13.125C11.4937 13.125 10.8091 13.4285 10.3032 13.9158L7.52808 12.5283C7.54199 12.4153 7.5625 12.3042 7.5625 12.1875C7.5625 10.6367 6.30078 9.375 4.75 9.375C3.19922 9.375 1.9375 10.6367 1.9375 12.1875C1.9375 13.7383 3.19922 15 4.75 15Z" fill="#787882"/>
<path d="M31.0625 30.1249H30.0625V10.3124C30.0625 9.79434 29.6431 9.37491 29.125 9.37491H25.375C24.8569 9.37491 24.4375 9.79434 24.4375 10.3124V30.1249H22.5625V15.9374C22.5625 15.4193 22.1431 14.9999 21.625 14.9999H17.875C17.3569 14.9999 16.9375 15.4193 16.9375 15.9374V30.1249H15.0625V23.4374C15.0625 22.9193 14.6431 22.4999 14.125 22.4999H10.375C9.85695 22.4999 9.43752 22.9193 9.43752 23.4374V30.1249H7.56252V19.6874C7.56252 19.1693 7.14308 18.7499 6.62502 18.7499H2.87502C2.35695 18.7499 1.93752 19.1693 1.93752 19.6874V30.1249H0.937515C0.419449 30.1249 1.52588e-05 30.5443 1.52588e-05 31.0624C1.52588e-05 31.5805 0.419449 31.9999 0.937515 31.9999H31.0625C31.5806 31.9999 32 31.5805 32 31.0624C32 30.5443 31.5806 30.1249 31.0625 30.1249Z" fill="#787882"/>
</g>
<defs>
<clipPath id="clip0">
<rect width="32" height="32" fill="white"/>
</clipPath>
</defs>
</svg>
