<svg width="32" height="32" viewBox="0 0 32 32" fill="none" xmlns="http://www.w3.org/2000/svg">
<g clip-path="url(#clip0)">
<path d="M31.3806 15.3774C30.8541 14.6931 30.0579 14.2686 29.1963 14.2126C28.3343 14.1566 27.4903 14.4746 26.8798 15.0852L26.3148 15.6501V9.20737C26.3148 8.3458 25.6138 7.64487 24.7521 7.64487H22.2518C21.3901 7.64487 20.6891 8.3458 20.6891 9.20737V17.5536H18.8139V11.7074C18.8139 10.8458 18.1129 10.1449 17.2513 10.1449H14.751C13.8893 10.1449 13.1883 10.8458 13.1883 11.7074V15.7814H11.6291C11.5234 15.7814 11.418 15.7863 11.3131 15.794V14.2074C11.3131 13.3458 10.6121 12.6449 9.75038 12.6449H7.25013C6.38844 12.6449 5.68744 13.3458 5.68744 14.2074V19.4789L5.45544 19.6757C4.77188 19.0026 3.6965 18.8367 2.82613 19.3391L1.09331 20.3394C0.0487518 20.9426 -0.310498 22.2831 0.292689 23.3276L4.66894 30.9067C5.07369 31.6077 5.81056 32 6.56725 32C6.93813 32 7.31381 31.9057 7.65738 31.7074L9.39019 30.7071C10.1996 30.2397 10.5971 29.3299 10.4548 28.4579H20.2429C21.3821 28.4579 22.4963 27.9949 23.2999 27.1877L31.1288 19.3239C32.1861 18.2618 32.2944 16.5652 31.3806 15.3774ZM29.7998 18.0012L21.9709 25.8649C21.5167 26.3212 20.8868 26.5829 20.2429 26.5829H10.6619H9.53506L6.68294 21.6434L6.46981 21.2742L10.0518 18.2354C10.4919 17.862 11.0521 17.6564 11.6293 17.6564H14.3668C14.7698 17.6564 15.1446 17.8374 15.3951 18.153L15.7881 18.6481C16.1818 19.1441 16.7707 19.4285 17.4039 19.4285H21.1364C21.7053 19.4285 22.168 19.8912 22.168 20.46C22.168 21.0288 21.7053 21.4915 21.1364 21.4915H14.0471C13.5629 21.4915 13.1646 21.8586 13.1149 22.3296C13.1115 22.3622 13.1096 22.3954 13.1096 22.429C13.1096 22.9467 13.5294 23.3665 14.0472 23.3665H17.7721H21.1364C22.7004 23.3665 23.9791 22.1251 24.0403 20.576L28.2058 16.4109C28.4381 16.1785 28.7469 16.0615 29.0748 16.0836C29.4029 16.1049 29.6938 16.2601 29.8943 16.5206C30.237 16.9662 30.1964 17.6027 29.7998 18.0012ZM8.45263 29.0833L6.71988 30.0836C6.57056 30.1696 6.37906 30.1184 6.29288 29.9692L1.91663 22.3901C1.83044 22.2409 1.88181 22.0494 2.03106 21.9632L3.76381 20.9629C3.81294 20.9346 3.86663 20.9211 3.91956 20.9211C4.02769 20.9211 4.13288 20.9771 4.19075 21.0773L8.567 28.6564C8.65313 28.8057 8.60181 28.9971 8.45263 29.0833ZM24.4396 9.51987V17.5252L23.3664 18.5982C23.1421 18.3301 22.8703 18.1033 22.5643 17.9299V9.51987H24.4396ZM16.9388 12.0199V17.0817L16.8639 16.9874C16.4032 16.4069 15.7692 16.0145 15.0636 15.8579V12.0199H16.9388ZM7.56269 14.5199H9.43788V16.3801C9.22744 16.5041 9.02663 16.6461 8.83844 16.8057L7.56269 17.8881V14.5199Z" fill="#787882"/>
<path d="M7.56419 10.7534C7.69706 10.7534 7.83213 10.725 7.96044 10.665L22.8 3.73136L22.5655 4.38636C22.391 4.87386 22.6447 5.41049 23.1321 5.58499C23.2366 5.62243 23.3432 5.64011 23.4481 5.64011C23.8328 5.64011 24.1937 5.40143 24.3308 5.01836L25.3232 2.24624C25.407 2.01218 25.3944 1.75436 25.2881 1.52955C25.1818 1.30474 24.9906 1.13143 24.7565 1.04761L21.9844 0.0551754C21.4968 -0.119575 20.9603 0.134363 20.7858 0.6218C20.6113 1.1093 20.865 1.64593 21.3524 1.82043L21.9798 2.04499L7.16663 8.9663C6.69756 9.18549 6.49494 9.74349 6.71413 10.2125C6.87344 10.5533 7.21131 10.7534 7.56419 10.7534Z" fill="#787882"/>
</g>
<defs>
<clipPath id="clip0">
<rect width="32" height="32" fill="white"/>
</clipPath>
</defs>
</svg>
