<svg width="31" height="31" viewBox="0 0 31 31" fill="none" xmlns="http://www.w3.org/2000/svg">
<g clip-path="url(#clip0)">
<path d="M15.6764 13.4219L28.6043 7.22557C25.8573 2.88454 21.0169 0 15.5 0C10.925 0 6.81456 1.98295 3.97708 5.13563L15.6764 13.4219Z" fill="#787882"/>
<path d="M1.89628 8.06686C0.687956 10.2736 0 12.8064 0 15.5C0 19.1649 1.27502 22.5309 3.40152 25.1838L12.7329 15.7427L1.89628 8.06686Z" fill="#787882"/>
<path d="M16.5587 16.9863L5.95868 27.7106C8.58964 29.7697 11.9004 31.0004 15.5 31.0004C24.0602 31.0004 31 24.0605 31 15.5004C31 13.7375 30.7011 12.0457 30.1597 10.467L16.5587 16.9863Z" fill="#787882"/>
</g>
<defs>
<clipPath id="clip0">
<rect width="31" height="31" fill="white"/>
</clipPath>
</defs>
</svg>
