<svg width="34" height="33" viewBox="0 0 34 33" fill="none" xmlns="http://www.w3.org/2000/svg">
<path d="M32.58 0.283173H26.9139C26.5382 0.283173 26.178 0.432413 25.9123 0.698062C25.6467 0.963712 25.4974 1.32401 25.4974 1.6997V22.9475H23.9392C24.2068 21.6339 24.0959 20.2712 23.6194 19.0181C23.143 17.765 22.3206 16.6729 21.2478 15.8688V7.36579C21.2478 6.9901 21.0986 6.6298 20.833 6.36415C20.5673 6.0985 20.207 5.94926 19.8313 5.94926H14.1652C13.7895 5.94926 13.4292 6.0985 13.1636 6.36415C12.8979 6.6298 12.7487 6.9901 12.7487 7.36579V15.8688C11.6761 16.673 10.8539 17.7652 10.3776 19.0183C9.90133 20.2714 9.79056 21.634 10.0582 22.9475H8.49914V13.0319C8.49914 12.6562 8.3499 12.2959 8.08425 12.0302C7.8186 11.7646 7.4583 11.6154 7.08261 11.6154H1.41652C1.04084 11.6154 0.680539 11.7646 0.41489 12.0302C0.14924 12.2959 0 12.6562 0 13.0319L0 25.7806H11.3361C12.4177 27.2254 14.011 28.2019 15.7894 28.5099C17.5678 28.8179 19.3966 28.4342 20.9011 27.4372L25.9121 32.4482L27.9154 30.4448L23.251 25.7806H33.9965V1.6997C33.9965 1.32401 33.8473 0.963712 33.5817 0.698062C33.316 0.432413 32.9557 0.283173 32.58 0.283173ZM2.83305 22.9475V14.4484H5.66609V22.9475H2.83305ZM15.5818 8.78231H18.4148V14.5909C17.48 14.4009 16.5165 14.4009 15.5818 14.5909V8.78231ZM16.9983 25.7806C16.1578 25.7806 15.3362 25.5314 14.6373 25.0644C13.9385 24.5975 13.3938 23.9338 13.0722 23.1573C12.7505 22.3807 12.6664 21.5263 12.8304 20.702C12.9943 19.8776 13.3991 19.1204 13.9934 18.5261C14.5877 17.9318 15.3449 17.5271 16.1692 17.3631C16.9936 17.1991 17.848 17.2833 18.6245 17.6049C19.401 17.9266 20.0647 18.4712 20.5317 19.1701C20.9986 19.8689 21.2478 20.6905 21.2478 21.531C21.2465 22.6577 20.7984 23.7378 20.0017 24.5345C19.2051 25.3311 18.1249 25.7793 16.9983 25.7806ZM28.3305 22.9475V3.11622H31.1635V22.9475H28.3305Z" fill="#787882"/>
</svg>
