<svg width="32" height="32" viewBox="0 0 32 32" fill="none" xmlns="http://www.w3.org/2000/svg">
<path d="M28.9329 10.6333C29.5372 10.6333 30.0288 10.1416 30.0288 9.53738V8.44088C30.4715 8.30006 30.7933 7.88525 30.7933 7.3965V6.05319C30.7933 5.44894 30.3016 4.95731 29.6974 4.95731H28.8746V0.469687C28.8746 0.210312 28.6644 0 28.4049 0H23.5001C23.2406 0 23.0304 0.210312 23.0304 0.469687C23.0304 0.729062 23.2406 0.939375 23.5001 0.939375H27.9353V4.95731H4.06476V0.939313H21.6214C21.8808 0.939313 22.0911 0.729 22.0911 0.469625C22.0911 0.21025 21.8808 0 21.6214 0H3.59507C3.33569 0 3.12538 0.210312 3.12538 0.469687V4.95731H2.30263C1.69838 4.95731 1.20676 5.44894 1.20676 6.05319V7.3965C1.20676 7.88525 1.52851 8.30006 1.97119 8.44088V9.53738C1.97119 10.1416 2.46282 10.6333 3.06707 10.6333H3.12538V28.4649H2.30263C1.69838 28.4649 1.20676 28.9566 1.20676 29.5608V30.9041C1.20676 31.5084 1.69838 32 2.30263 32H29.6974C30.3016 32 30.7933 31.5084 30.7933 30.9041V29.5608C30.7933 28.9566 30.3016 28.4649 29.6974 28.4649H28.8746V10.6333H28.9329ZM2.91057 9.53731V8.49231H6.87557C7.13494 8.49231 7.34526 8.282 7.34526 8.02262C7.34526 7.76325 7.13501 7.55294 6.87557 7.55294H2.30263C2.21632 7.55294 2.14607 7.48269 2.14607 7.39638V6.05319C2.14607 5.96688 2.21632 5.89663 2.30263 5.89663H29.6974C29.7838 5.89663 29.8539 5.96688 29.8539 6.05319V7.3965C29.8539 7.48281 29.7838 7.55306 29.6974 7.55306H8.7542C8.49482 7.55306 8.28451 7.76337 8.28451 8.02275C8.28451 8.28212 8.49482 8.49244 8.7542 8.49244H29.0895V9.53744C29.0895 9.62375 29.0193 9.694 28.9329 9.694H3.06713C2.98076 9.69388 2.91057 9.62369 2.91057 9.53731ZM29.8539 29.5608V30.9041C29.8539 30.9904 29.7838 31.0607 29.6974 31.0607H2.30263C2.21632 31.0607 2.14607 30.9904 2.14607 30.9041V29.5608C2.14607 29.4745 2.21632 29.4042 2.30263 29.4042H29.6974C29.7837 29.4042 29.8539 29.4745 29.8539 29.5608ZM12.5157 26.8904C12.4119 26.1107 12.5643 25.6035 12.7406 25.0162C12.8478 24.6589 12.9654 24.2671 13.0294 23.7909C13.4038 23.9217 13.8523 24.1515 14.0667 24.5088C14.1931 24.7195 14.4605 24.7971 14.6801 24.6869C14.8996 24.5767 14.9972 24.3159 14.9038 24.0887C14.9018 24.0837 14.7019 23.5715 14.7806 22.8431C14.8665 22.0475 15.2391 21.3161 15.8907 20.661C16.0764 21.5062 16.487 22.7641 17.3563 23.4617C17.5042 23.5803 17.7088 23.5984 17.8753 23.5076C17.8995 23.4944 18.3395 23.2526 18.7673 22.9049C19.2445 23.5416 20.1215 24.9178 20.0311 26.3316C19.9798 27.1343 19.6141 27.8511 18.9441 28.465H13.4675C13.2149 28.2379 12.6139 27.6284 12.5157 26.8904ZM27.9353 28.4649H23.9698V16.3893C23.9698 15.4398 23.1972 14.6672 22.2476 14.6672H19.4702C19.2108 14.6672 19.0005 14.8775 19.0005 15.1369C19.0005 15.3962 19.2108 15.6066 19.4702 15.6066H22.2476C22.6793 15.6066 23.0304 15.9577 23.0304 16.3894V28.465H20.2063C20.6652 27.8427 20.9213 27.1471 20.9689 26.3866C21.1146 24.0629 19.2443 21.9909 19.1646 21.9038C18.9886 21.7038 18.6539 21.7012 18.4748 21.9006C18.2494 22.1422 17.938 22.3637 17.713 22.5089C16.8643 21.5637 16.6866 19.7342 16.6848 19.7147C16.6609 19.3551 16.2153 19.1583 15.9333 19.3826C14.3816 20.5591 13.9421 21.8589 13.8467 22.7422C13.833 22.8689 13.8258 22.991 13.8238 23.1076C13.7263 23.0587 13.6236 23.0129 13.5158 22.9701C13.0701 22.7931 12.6919 22.7347 12.6761 22.7323C12.4056 22.6853 12.1371 22.9104 12.1364 23.1848C12.1205 23.8148 11.9846 24.2672 11.8409 24.7461C11.6508 25.3794 11.4542 26.0343 11.5845 27.0143C11.6605 27.5858 11.9244 28.0815 12.2051 28.4649H8.96957V16.3893C8.96957 15.9577 9.32069 15.6065 9.75238 15.6065H17.5914C17.8509 15.6065 18.0611 15.3962 18.0611 15.1368C18.0611 14.8774 17.8509 14.6671 17.5914 14.6671H9.75245C8.80288 14.6671 8.03032 15.4397 8.03032 16.3892V28.4649H4.06476V10.6333H27.9353V28.4649Z" fill="#787882"/>
</svg>
