<svg width="37" height="37" viewBox="0 0 37 37" fill="none" xmlns="http://www.w3.org/2000/svg">
<path d="M0 2.74609V9.25H2.16797V34.2539H34.832V9.25H37V2.74609H0ZM18.5212 32.0849C18.504 32.0849 18.4868 32.0845 18.4696 32.0843C17.886 32.0681 17.416 31.5894 17.416 31.002C17.416 30.4042 17.9023 29.918 18.5 29.918C19.0977 29.918 19.584 30.4042 19.584 31.002C19.584 31.5925 19.1091 32.0734 18.5212 32.0849ZM23.1973 27.3887C23.1973 28.673 22.6887 29.8724 21.7652 30.7656C21.7582 30.7723 21.7509 30.7784 21.7439 30.7852C21.6318 29.0928 20.2202 27.75 18.5 27.75C16.7919 27.75 15.3882 29.074 15.2588 30.7494C14.3641 29.8758 13.8027 28.6523 13.8027 27.3161C13.8027 25.8114 14.3289 24.3426 15.2843 23.1801L17.3954 20.5351L20.4345 26.9676L22.4049 23.8297C22.9029 25.0531 23.1973 26.2884 23.1973 27.2488V27.3887ZM27.6055 32.0859H23.5068C24.7077 30.8093 25.3652 29.1541 25.3652 27.3887V27.2488C25.3652 25.1078 24.3797 22.6494 23.4575 21.0627L22.5561 19.5119L20.7037 22.4621L17.8702 16.4649L13.6043 21.8098C12.3342 23.3582 11.6348 25.3133 11.6348 27.3161C11.6348 29.0968 12.3042 30.7884 13.5195 32.0859H9.39453V14.3086H27.6055V32.0859ZM32.6641 32.0859H29.7734V12.1406H7.22656V32.0859H4.33594V9.25H32.6641V32.0859ZM34.832 7.08203H2.16797V4.91406H34.832V7.08203Z" fill="#787882"/>
</svg>
