<svg width="9" height="29" viewBox="0 0 9 29" fill="none" xmlns="http://www.w3.org/2000/svg">
<path d="M5.75496 7.20001C5.75496 5.89505 5.75496 0 5.75496 0H4.78583H4.21196H3.24329C3.24329 0 3.24329 5.89505 3.24329 7.20001C3.24329 8.50498 0.790039 10.0891 0.790039 11.949C0.790039 13.8084 0.790039 27.2601 0.790039 27.7344C0.790039 28.2089 1.10737 29 1.81843 29C2.3025 29 3.49511 29 4.21287 29C4.55183 29 4.78675 29 4.78675 29C5.50451 29 6.69659 29 7.18073 29C7.89232 29 8.21003 28.2088 8.21003 27.7344C8.21003 27.26 8.21003 13.8083 8.21003 11.949C8.20996 10.0891 5.75496 8.50582 5.75496 7.20001ZM3.7854 9.3143C3.62658 9.53116 3.4491 9.80461 3.25624 10.1201C3.06109 10.4365 2.87614 10.8051 2.68807 11.2051C2.6164 11.4095 2.54289 11.6237 2.48142 11.8383C2.47921 12.0658 2.40708 12.2335 2.43854 12.5189C2.45758 13.0481 2.47838 13.6048 2.49955 14.181C2.53764 15.3337 2.54472 16.5639 2.55447 17.7931C2.5518 20.2525 2.47746 22.7129 2.36244 24.5572C2.31202 25.4794 2.22929 26.2476 2.1903 26.7857C2.14254 27.3238 2.1027 27.6317 2.1027 27.6317C2.1027 27.6317 2.06248 27.3238 2.01464 26.7857C1.97572 26.2476 1.89292 25.4795 1.8425 24.5572C1.72748 22.7129 1.65306 20.2525 1.65047 17.7931C1.65931 16.5638 1.66639 15.3337 1.70531 14.181C1.72657 13.6049 1.74736 13.0481 1.7664 12.5189C1.75711 12.2733 1.84958 11.9397 1.90229 11.6742C2.00451 11.4242 2.11778 11.1922 2.22579 10.9737C2.35726 10.7727 2.48157 10.5803 2.60101 10.3975C2.7369 10.2307 2.86563 10.0732 2.98598 9.92359C3.23643 9.63506 3.459 9.39123 3.65332 9.20096C4.03737 8.8169 4.28386 8.62838 4.28386 8.62838C4.28386 8.62838 4.09161 8.87395 3.7854 9.3143Z" fill="#787882"/>
</svg>
