<svg width="9" height="31" viewBox="0 0 9 31" fill="none" xmlns="http://www.w3.org/2000/svg">
<g clip-path="url(#clip0)">
<path d="M1.25574 16.8816C3.87038 16.1563 5.33877 16.1691 7.95341 16.8816V21.7843H1.25574V16.8816Z" fill="white"/>
<rect x="2.61627" y="2.51166" width="3.92442" height="1.25581" fill="#FFFCFC"/>
<path d="M7.34913 8.35835L6.90175 8.14137C6.67934 8.03353 6.5407 7.81655 6.5407 7.57417V3.76749H2.61627V7.57417C2.61627 7.81655 2.47763 8.03353 2.25523 8.14137L1.80784 8.35835C0.693305 8.8989 -3.05176e-05 9.98636 -3.05176e-05 11.1956V16.4564V22.1664V28.5109C-3.05176e-05 29.5603 0.880329 30.4143 1.96218 30.4143H7.19473C8.27659 30.4143 9.15694 29.5603 9.15694 28.5109V22.1664V16.4564V11.1956C9.15701 9.98636 8.46367 8.8989 7.34913 8.35835ZM7.84882 21.532H1.30815V16.9462C2.04858 16.7686 3.50191 16.4564 4.57849 16.4564C5.66427 16.4564 7.11238 16.7686 7.84882 16.9462V21.532Z" fill="#787882"/>
<path d="M5.8866 3.05176e-05H3.2703C2.90932 3.05176e-05 2.61627 0.284283 2.61627 0.634498V2.53784H6.54069V0.634498C6.54069 0.284283 6.24765 3.05176e-05 5.8866 3.05176e-05Z" fill="#787882"/>
</g>
<defs>
<clipPath id="clip0">
<rect width="9" height="30.4535" fill="white"/>
</clipPath>
</defs>
</svg>
