<svg width="26" height="26" viewBox="0 0 26 26" fill="none" xmlns="http://www.w3.org/2000/svg">
<g clip-path="url(#clip0)">
<path d="M25.2504 0.358316C24.7813 -0.111301 24.0203 -0.111301 23.5513 0.358316L0.362866 23.5468C-0.106551 24.016 -0.106551 24.7764 0.362866 25.2456C0.597474 25.4804 0.905085 25.5978 1.2125 25.5978C1.51991 25.5978 1.82752 25.4804 2.06193 25.2456L25.2504 2.05718C25.7198 1.58796 25.7198 0.827533 25.2504 0.358316Z" fill="#787882"/>
<path d="M5.70741 0.0145264C2.56049 0.0145264 0 2.57522 0 5.72213C0 8.86905 2.56049 11.4295 5.70741 11.4295C8.85452 11.4295 11.4148 8.86885 11.4148 5.72193C11.4148 2.57502 8.85432 0.0145264 5.70741 0.0145264ZM5.70741 9.02625C3.88534 9.02625 2.40309 7.5438 2.40309 5.72193C2.40309 3.90007 3.88554 2.41761 5.70741 2.41761C7.52947 2.41761 9.01173 3.90007 9.01173 5.72193C9.01173 7.5438 7.52947 9.02625 5.70741 9.02625Z" fill="#787882"/>
<path d="M19.8935 14.1803C16.7466 14.1803 14.1861 16.7408 14.1861 19.8877C14.1861 23.0346 16.7466 25.5951 19.8935 25.5951C23.0404 25.5951 25.6009 23.0348 25.6009 19.8877C25.6009 16.7406 23.0404 14.1803 19.8935 14.1803ZM19.8935 23.1918C18.0714 23.1918 16.5892 21.7094 16.5892 19.8875C16.5892 18.0656 18.0716 16.5832 19.8935 16.5832C21.7154 16.5832 23.1978 18.0656 23.1978 19.8875C23.1978 21.7094 21.7156 23.1918 19.8935 23.1918Z" fill="#787882"/>
</g>
<defs>
<clipPath id="clip0">
<rect width="25.6009" height="25.6009" fill="white"/>
</clipPath>
</defs>
</svg>
