<svg width="33" height="32" viewBox="0 0 33 32" fill="none" xmlns="http://www.w3.org/2000/svg">
<path d="M11.1636 23.8848C11.2444 23.9174 11.3281 23.9328 11.4105 23.9328C11.66 23.9328 11.897 23.7913 11.9996 23.556L16.1355 14.0756C16.272 13.7627 16.1189 13.4026 15.7937 13.2713C15.4683 13.14 15.0941 13.2872 14.9576 13.6001L10.8218 23.0805C10.6853 23.3934 10.8384 23.7535 11.1636 23.8848Z" fill="#787882"/>
<path d="M12.7332 15.2118C12.7332 13.8718 11.7058 12.7816 10.4431 12.7816C9.1803 12.7816 8.15295 13.8718 8.15295 15.2118C8.15295 16.5518 9.1803 17.6419 10.4431 17.6419C11.7058 17.6419 12.7332 16.5517 12.7332 15.2118ZM10.4431 16.4131C9.88461 16.4131 9.43027 15.8742 9.43027 15.2117C9.43027 14.5493 9.88461 14.0104 10.4431 14.0104C11.0016 14.0104 11.4559 14.5493 11.4559 15.2117C11.4559 15.8742 11.0016 16.4131 10.4431 16.4131Z" fill="#787882"/>
<path d="M16.3806 24.5782C17.6433 24.5782 18.6707 23.4881 18.6707 22.1481C18.6707 20.808 17.6433 19.7179 16.3806 19.7179C15.1178 19.7179 14.0904 20.808 14.0904 22.1481C14.0904 23.4881 15.1178 24.5782 16.3806 24.5782ZM16.3806 20.9467C16.939 20.9467 17.3933 21.4856 17.3933 22.1481C17.3933 22.8105 16.939 23.3494 16.3806 23.3494C15.8221 23.3494 15.3677 22.8105 15.3677 22.1481C15.3677 21.4856 15.8221 20.9467 16.3806 20.9467Z" fill="#787882"/>
<path d="M31.0979 6.79329L25.7281 0.234273C25.607 0.0863239 25.4221 0 25.2264 0C25.0306 0 24.8457 0.0863239 24.7247 0.234273L19.3548 6.79329C19.3166 6.83993 19.2792 6.88693 19.2424 6.93418C17.4354 6.09515 15.4316 5.65253 13.4118 5.65253C6.01654 5.65253 0 11.4406 0 18.555C0 25.6695 6.01654 31.4575 13.4118 31.4575C15.9254 31.4575 18.376 30.7845 20.4988 29.511C20.7981 29.3315 20.8894 28.9526 20.7027 28.6646C20.5161 28.3767 20.1222 28.2888 19.8229 28.4684C17.9031 29.62 15.6862 30.2287 13.4118 30.2287C6.72079 30.2287 1.47045 24.706 1.47045 18.269C1.47045 11.8321 6.72079 6.88134 13.4118 6.88134C15.1937 6.88134 16.9615 7.26184 18.5634 7.98395C17.1224 10.7087 17.6185 14.0914 19.9415 16.3262C21.3531 17.6842 23.23 18.4322 25.2263 18.4322C25.3326 18.4322 25.4386 18.4296 25.5442 18.4253C25.5447 18.4686 25.5463 18.5119 25.5463 18.555C25.5463 20.7592 24.9048 22.9055 23.6911 24.7616C23.5034 25.0489 23.5932 25.4281 23.8918 25.6088C23.9974 25.6728 24.115 25.7033 24.2311 25.7033C24.4434 25.7033 24.651 25.6015 24.7724 25.4159C26.1143 23.3635 26.8236 20.991 26.8236 18.555C26.8236 18.46 26.8211 18.3644 26.819 18.269C28.2074 17.9806 29.4828 17.3155 30.5112 16.3262C33.1873 13.7518 33.4395 9.65354 31.0979 6.79329ZM25.2263 17.2033C23.5711 17.2033 22.0151 16.5833 20.8447 15.4573C18.626 13.3229 18.4168 9.92504 20.3583 7.55362L25.2264 1.60747L30.0945 7.55362C32.0359 9.92504 31.8268 13.3229 29.6081 15.4574C28.4376 16.5833 26.8815 17.2033 25.2263 17.2033Z" fill="#787882"/>
<path d="M22.4386 28.2228C22.27 28.2228 22.1052 28.2885 21.9871 28.4028C21.8683 28.5171 21.7999 28.6756 21.7999 28.8372C21.7999 28.9994 21.8683 29.1573 21.9871 29.2722C22.1058 29.3865 22.27 29.4516 22.4386 29.4516C22.6066 29.4516 22.7707 29.3865 22.8901 29.2722C23.0088 29.1573 23.0772 28.9994 23.0772 28.8372C23.0772 28.6756 23.0089 28.5171 22.8901 28.4028C22.7713 28.2885 22.6066 28.2228 22.4386 28.2228Z" fill="#787882"/>
</svg>
