<svg width="24" height="31" viewBox="0 0 24 31" fill="none" xmlns="http://www.w3.org/2000/svg">
<path d="M15.7837 12.8692C16.0047 12.6479 16.3634 12.6479 16.5845 12.8692C16.5845 12.8692 16.5846 12.8692 16.5846 12.8692M15.7837 12.8692L16.5161 13.6015C16.6995 13.4182 16.6995 13.121 16.5161 12.9377L16.5846 12.8692C16.5846 12.8692 16.5846 12.8692 16.5846 12.8692M15.7837 12.8692L6.7228 21.9301M15.7837 12.8692L15.7837 12.8692L15.8522 12.9377L6.79126 21.9986M16.5846 12.8692C16.8058 13.0904 16.8058 13.4488 16.5845 13.67M16.5846 12.8692L16.5845 13.67M16.5845 13.67L7.5237 22.7308C7.4132 22.8415 7.26801 22.8969 7.12325 22.8969C6.97848 22.8969 6.83332 22.8415 6.72276 22.7309M16.5845 13.67L6.79126 22.6624M6.72276 22.7309L6.79126 22.6624M6.72276 22.7309C6.72277 22.7309 6.72278 22.7309 6.7228 22.7309L6.79126 22.6624M6.72276 22.7309C6.50154 22.5097 6.50155 22.1513 6.7228 21.9301M6.79126 22.6624C6.60783 22.4791 6.60783 22.1819 6.79126 21.9986M6.7228 21.9301L6.72278 21.9301L6.79126 21.9986M6.7228 21.9301L6.79126 21.9986" fill="#787882" stroke="#787882" stroke-width="0.193666"/>
<path d="M8.8802 12.7064C7.59706 12.7064 6.55319 13.7503 6.55319 15.0335C6.55319 16.3166 7.59706 17.3605 8.8802 17.3605C10.1634 17.3605 11.2072 16.3165 11.2072 15.0334C11.2072 13.7503 10.1633 12.7064 8.8802 12.7064ZM8.8802 16.2277C8.22171 16.2277 7.68587 15.6918 7.68587 15.0334C7.68587 14.375 8.22178 13.8391 8.8802 13.8391C9.53869 13.8391 10.0745 14.375 10.0745 15.0334C10.0745 15.6918 9.53869 16.2277 8.8802 16.2277Z" fill="#787882" stroke="#787882" stroke-width="0.193666"/>
<path d="M14.4235 18.2424C13.1403 18.2424 12.0965 19.2863 12.0965 20.5694C12.0965 21.8525 13.1403 22.8964 14.4235 22.8964C15.7066 22.8964 16.7505 21.8526 16.7505 20.5694C16.7505 19.2862 15.7066 18.2424 14.4235 18.2424ZM14.4235 21.7637C13.765 21.7637 13.2291 21.2278 13.2291 20.5693C13.2291 19.9109 13.7651 19.375 14.4235 19.375C15.0819 19.375 15.6178 19.9109 15.6178 20.5693C15.6178 21.2278 15.082 21.7637 14.4235 21.7637Z" fill="#787882" stroke="#787882" stroke-width="0.193666"/>
<path d="M12.194 0.31558L12.194 0.315612C12.2208 0.346221 14.9252 3.45537 17.5911 7.27209C19.4148 9.883 20.7885 12.1931 21.7062 14.1887C22.6241 16.1845 23.0849 17.8639 23.0849 19.2137C23.0849 22.3765 21.9011 25.0669 19.6618 26.9958C17.5859 28.7842 14.7071 29.7699 11.555 29.7699C8.40304 29.7699 5.52422 28.7842 3.44835 26.9961C1.20907 25.0672 0.025 22.3767 0.025 19.2137C0.025 17.8639 0.485862 16.1845 1.40372 14.1887C2.32142 12.1931 3.69513 9.883 5.51884 7.27209C8.16746 3.48012 10.8543 0.386573 10.9151 0.316517L10.9159 0.315592C11.0772 0.130983 11.3101 0.025 11.555 0.025C11.7998 0.025 12.033 0.13099 12.194 0.31558ZM11.5742 2.20669L11.555 2.18368L11.5358 2.20669C10.5831 3.34879 8.73222 5.63189 6.90039 8.2557C5.20707 10.681 3.91248 12.8405 3.04112 14.6832C2.17003 16.5253 1.72079 18.053 1.72079 19.2137C1.72079 21.8663 2.70047 24.1137 4.55503 25.7112C6.32478 27.2356 8.81093 28.0741 11.555 28.0741C14.299 28.0741 16.7854 27.2356 18.5549 25.7112C20.4095 24.1137 21.3892 21.8663 21.3892 19.2137C21.3892 18.0519 20.9392 16.5226 20.0666 14.6784C19.1938 12.8336 17.8971 10.6714 16.2009 8.2432C14.3705 5.62234 12.5251 3.34629 11.5742 2.20669Z" fill="#787882" stroke="white" stroke-width="0.05"/>
</svg>
