<svg width="32" height="31" viewBox="0 0 32 31" fill="none" xmlns="http://www.w3.org/2000/svg">
<path d="M29.2246 17.8104H27.3032V25.9397L21.8817 20.4602C23.3674 17.8539 23.0173 14.4536 20.8317 12.2444C19.5174 10.916 17.7744 10.259 16.0673 10.259C14.3601 10.259 12.6172 10.9232 11.3029 12.2444C8.63851 14.894 8.63851 19.2257 11.3029 21.9185C13.4886 24.1278 16.853 24.4814 19.4316 22.9799L25.7673 29.3834C25.3745 29.5567 24.9816 29.6939 24.5032 29.6939H7.58848C6.01702 29.6939 4.74556 28.416 4.74556 26.8205V17.8539H2.86694C0.681177 17.8539 -0.761715 15.2042 1.15976 13.2117L12.5243 1.50166C13.4886 0.483714 14.7529 8.58307e-06 16.0244 8.58307e-06C17.2887 8.58307e-06 18.5602 0.483714 19.5245 1.50166L22.1031 4.15121V1.85542C22.1031 0.837469 22.9318 0.0433255 23.9389 0.0433255H25.4675C26.4746 0.0433255 27.2604 0.837469 27.2604 1.85542V9.54417L30.8462 13.255C32.7675 15.1176 31.3675 17.8104 29.2246 17.8104ZM13.6671 14.7205C12.4028 15.9984 12.4028 18.0776 13.6671 19.3626C14.9314 20.6477 16.9886 20.6405 18.2601 19.3626C19.5244 18.0848 19.5244 15.9622 18.2601 14.7205C17.6029 14.0563 16.7743 13.7459 15.9458 13.7459C15.1528 13.7459 14.3171 14.0563 13.6671 14.7205Z" fill="#787882"/>
</svg>
