<svg width="32" height="32" viewBox="0 0 32 32" fill="none" xmlns="http://www.w3.org/2000/svg">
<g clip-path="url(#clip0)">
<path d="M28.8756 1.98779H14.9036C13.2894 1.98779 11.976 3.3012 11.976 4.91548V13.8783L9.38166 12.5882C9.29406 12.5446 9.20502 12.5033 9.11524 12.4642C9.87688 11.6691 10.3464 10.5918 10.3464 9.4065C10.3464 6.96676 8.3616 4.98172 5.92186 4.98172C3.48188 4.98172 1.49709 6.96676 1.49709 9.4065C1.49709 10.7323 2.08403 11.9232 3.01091 12.7348C1.30394 13.6951 0 15.5686 0 17.8894V20.8833C0 22.1722 0.836864 23.2692 1.99595 23.6591V28.8674C1.99595 29.3818 2.41305 29.7991 2.92769 29.7991H8.91555C9.43018 29.7991 9.84728 29.3818 9.84728 28.8674V18.3987L12.8303 19.89C13.9719 20.4607 15.5204 20.1205 16.2207 18.8211H19.5614L16.0239 28.5488C15.848 29.0324 16.0977 29.5672 16.5813 29.7428C17.134 29.944 17.6256 29.5973 17.7753 29.1857L21.5442 18.8211H22.1974L26.0049 29.1887C26.1495 29.582 26.6375 29.9488 27.2009 29.7419C27.6837 29.5645 27.9317 29.0292 27.7541 28.5461L24.1824 18.8211H28.8756C30.4585 18.8211 31.8032 17.5441 31.8032 15.8935V4.91548C31.8032 3.26456 30.4585 1.98779 28.8756 1.98779ZM3.36056 9.4065C3.36056 7.99409 4.50946 6.84519 5.92162 6.84519C7.33402 6.84519 8.48292 7.99409 8.48292 9.4065C8.48292 10.8187 7.33402 11.9676 5.92162 11.9676C4.50946 11.9676 3.36056 10.8187 3.36056 9.4065ZM14.6283 17.8249C14.6258 17.8317 14.6234 17.8387 14.6212 17.8457C14.5576 18.0231 14.414 18.1726 14.2381 18.2449C14.052 18.3206 13.8426 18.3126 13.6638 18.2233C11.892 17.3369 9.33192 16.058 9.33192 16.058C8.71367 15.7488 7.98381 16.1992 7.98381 16.8914V27.9357H3.85942V22.8793C3.85942 22.3649 3.44208 21.9476 2.92769 21.9476C2.34074 21.9476 1.86347 21.4703 1.86347 20.8833V17.8894C1.86347 15.6127 3.71724 13.8313 5.92162 13.8313H6.74489C7.36945 13.8313 7.99327 13.9778 8.55062 14.2561C8.55062 14.2561 13.1722 16.5544 14.3492 17.1406C14.6013 17.2658 14.7212 17.5599 14.6283 17.8249ZM29.9398 15.8935C29.9398 16.1781 29.8294 16.4452 29.6285 16.6461C29.4307 16.8441 29.1563 16.9577 28.8756 16.9577H16.4233C16.4216 16.9526 16.4204 16.9475 16.4187 16.9426L18.731 12.3182C18.9611 11.8579 18.7747 11.2984 18.3144 11.0681C17.8544 10.8381 17.2946 11.0244 17.0644 11.4847L15.0922 15.4288C14.7246 15.2456 14.2973 15.0328 13.8394 14.8052V4.91548C13.8394 4.32878 14.3167 3.85126 14.9036 3.85126H28.8756C29.1563 3.85126 29.4307 3.96482 29.6287 4.1633C29.8294 4.36372 29.9398 4.63087 29.9398 4.91548V15.8935Z" fill="#787882"/>
<path d="M26.8796 5.97974H16.8996C16.3849 5.97974 15.9678 6.39683 15.9678 6.91147C15.9678 7.42611 16.3849 7.84321 16.8996 7.84321H26.8796C27.394 7.84321 27.8113 7.42611 27.8113 6.91147C27.8113 6.39683 27.3942 5.97974 26.8796 5.97974Z" fill="#787882"/>
<path d="M26.8796 9.47278H21.8895C21.3751 9.47278 20.9577 9.88988 20.9577 10.4045C20.9577 10.9192 21.3751 11.3362 21.8895 11.3362H26.8796C27.394 11.3362 27.8113 10.9192 27.8113 10.4045C27.8113 9.88988 27.3942 9.47278 26.8796 9.47278Z" fill="#787882"/>
<path d="M26.8796 12.9657H21.8895C21.3751 12.9657 20.9577 13.3828 20.9577 13.8974C20.9577 14.4118 21.3751 14.8292 21.8895 14.8292H26.8796C27.394 14.8292 27.8113 14.4118 27.8113 13.8974C27.8113 13.3828 27.3942 12.9657 26.8796 12.9657Z" fill="#787882"/>
</g>
<defs>
<clipPath id="clip0">
<rect width="31.8032" height="31.8032" fill="white"/>
</clipPath>
</defs>
</svg>
