<svg width="27" height="27" viewBox="0 0 27 27" fill="none" xmlns="http://www.w3.org/2000/svg">
<path d="M13.5 0C6.05622 0 0 6.05622 0 13.5C0 20.9438 6.05622 27 13.5 27C20.9438 27 27 20.9438 27 13.5C27 6.05622 20.9438 0 13.5 0ZM13.5 25.3125C6.9865 25.3125 1.68752 20.0135 1.68752 13.5C1.68752 6.98655 6.9865 1.68752 13.5 1.68752C20.0135 1.68752 25.3125 6.9865 25.3125 13.5C25.3125 20.0135 20.0135 25.3125 13.5 25.3125Z" fill="#787882"/>
<path d="M14.3438 6.75003H12.6563V12.6563H6.75V14.3438H12.6563V20.2501H14.3438V14.3438H20.25V12.6563H14.3438V6.75003Z" fill="#787882"/>
</svg>
