<svg width="27" height="27" viewBox="0 0 27 27" fill="none" xmlns="http://www.w3.org/2000/svg">
<g clip-path="url(#clip0)">
<path d="M11.4231 0H1.03848C0.464935 0 0 0.464935 0 1.03848V11.4231C0 11.9967 0.464935 12.4616 1.03848 12.4616H11.4231C11.9967 12.4616 12.4616 11.9967 12.4616 11.4231V1.03848C12.4615 0.464935 11.9966 0 11.4231 0ZM10.3846 10.3846H2.0769V2.0769H10.3846V10.3846H10.3846Z" fill="#787882"/>
<path d="M25.9616 0H15.5769C15.0034 0 14.5385 0.464935 14.5385 1.03848V11.4231C14.5385 11.9967 15.0034 12.4616 15.5769 12.4616H25.9616C26.5351 12.4616 27.0001 11.9967 27.0001 11.4231V1.03848C27 0.464935 26.5351 0 25.9616 0ZM24.9231 10.3846H16.6154V2.0769H24.9231V10.3846Z" fill="#787882"/>
<path d="M11.4231 14.5384H1.03848C0.464935 14.5384 0 15.0034 0 15.5769V25.9616C0 26.5351 0.464935 27.0001 1.03848 27.0001H11.4231C11.9967 27.0001 12.4616 26.5351 12.4616 25.9616V15.5769C12.4615 15.0034 11.9966 14.5384 11.4231 14.5384ZM10.3846 24.9231H2.0769V16.6154H10.3846V24.9231H10.3846Z" fill="#787882"/>
<path d="M25.9616 19.7308H21.8077V15.5769C21.8077 15.0034 21.3428 14.5384 20.7692 14.5384C20.1957 14.5384 19.7307 15.0034 19.7307 15.5769V19.7308H15.5769C15.0034 19.7308 14.5385 20.1957 14.5385 20.7693C14.5385 21.3428 15.0034 21.8077 15.5769 21.8077H19.7308V25.9616C19.7308 26.5351 20.1957 27.0001 20.7693 27.0001C21.3428 27.0001 21.8078 26.5351 21.8078 25.9616V21.8077H25.9616C26.5352 21.8077 27.0001 21.3428 27.0001 20.7692C27.0001 20.1957 26.5351 19.7308 25.9616 19.7308Z" fill="#787882"/>
</g>
<defs>
<clipPath id="clip0">
<rect width="27" height="27" fill="white"/>
</clipPath>
</defs>
</svg>
