<svg width="29" height="29" viewBox="0 0 29 29" fill="none" xmlns="http://www.w3.org/2000/svg">
<g clip-path="url(#clip0)">
<path d="M19.1784 13.567H15.433V9.73499C15.433 9.21968 15.0152 8.8019 14.4999 8.8019C13.9846 8.8019 13.5668 9.21968 13.5668 9.73499V13.567H9.82146C9.30615 13.567 8.88837 13.9847 8.88837 14.5001C8.88837 15.0154 9.30615 15.4332 9.82146 15.4332H13.5668V19.2652C13.5668 19.7805 13.9846 20.1983 14.4999 20.1983C15.0152 20.1983 15.433 19.7805 15.433 19.2652V15.4332H19.1784C19.6937 15.4332 20.1115 15.0154 20.1115 14.5001C20.1114 13.9847 19.6937 13.567 19.1784 13.567Z" fill="#787882"/>
<path d="M14.7265 0.00191455C10.7693 -0.0592573 7.05063 1.4471 4.25332 4.2413C1.4559 7.03549 -0.0539711 10.7532 0.00198986 14.7095C0.113515 22.6057 6.60997 29.0002 14.5007 29.0001C14.5268 29.0001 14.5531 29 14.5792 28.9999C16.7617 28.9883 18.8573 28.5018 20.8122 27.5537H24.1904C25.825 27.5537 27.1549 26.2238 27.1549 24.5891V21.5765C28.3395 19.4615 28.9766 17.0689 28.9997 14.64C29.0752 6.68976 22.6723 0.123125 14.7265 0.00191455ZM25.4161 20.8582C25.3327 21.0009 25.2888 21.1633 25.2888 21.3286V24.5891C25.2888 25.1948 24.796 25.6875 24.1904 25.6875H20.5943C20.4485 25.6875 20.3047 25.7217 20.1744 25.7873C18.4219 26.6702 16.5361 27.1233 14.5692 27.1338C14.546 27.1339 14.524 27.134 14.5008 27.134C7.62604 27.134 1.9651 21.5623 1.86785 14.6832C1.81919 11.2357 3.13467 7.99623 5.57209 5.56159C7.96238 3.1739 11.1254 1.86624 14.4985 1.86624C14.5649 1.86624 14.6316 1.86675 14.6981 1.86771C21.6208 1.9734 27.1995 7.69507 27.1336 14.6222C27.1128 16.8127 26.5189 18.9692 25.4161 20.8582Z" fill="#787882"/>
</g>
<defs>
<clipPath id="clip0">
<rect width="29" height="29" fill="white"/>
</clipPath>
</defs>
</svg>
