<svg width="32" height="32" viewBox="0 0 32 32" fill="none" xmlns="http://www.w3.org/2000/svg">
<g clip-path="url(#clip0)">
<path d="M21.2697 20.2718L21.3302 20.3323H21.4157H22.7846L31.7082 29.2737L29.2737 31.7082L20.3323 22.7846V21.4249V21.3394L20.2718 21.2789L19.7686 20.7757L19.6333 20.6404L19.4881 20.7651C17.4475 22.5181 14.7961 23.5786 11.8925 23.5786C5.43821 23.5786 0.206452 18.3469 0.206452 11.8925C0.206452 5.43821 5.43829 0.206452 11.8925 0.206452C18.3468 0.206452 23.5785 5.4382 23.5785 11.8925C23.5785 14.796 22.5181 17.4473 20.7563 19.4877L20.6309 19.6329L20.7665 19.7686L21.2697 20.2718ZM3.45281 11.8925C3.45281 16.5531 7.23195 20.3323 11.8925 20.3323C16.5531 20.3323 20.3323 16.5531 20.3323 11.8925C20.3323 7.23195 16.5531 3.45281 11.8925 3.45281C7.23195 3.45281 3.45281 7.23195 3.45281 11.8925Z" fill="#787882" stroke="white" stroke-width="0.412903"/>
</g>
<defs>
<clipPath id="clip0">
<rect width="32" height="32" fill="white"/>
</clipPath>
</defs>
</svg>
