<svg width="31" height="31" viewBox="0 0 31 31" fill="none" xmlns="http://www.w3.org/2000/svg">
<g clip-path="url(#clip0)">
<path d="M22.2753 18.294L22.2753 18.294L29.9993 26.0179C31.0991 27.1177 31.0991 28.9009 29.9992 30.0009C28.8993 31.1007 27.1161 31.1007 26.0162 30.0009L18.2924 22.277C17.7541 21.7387 17.48 21.0369 17.4686 20.3311L17.4634 20.0092L17.1961 20.1886C12.9469 23.0408 7.12382 22.5908 3.37186 18.8389L3.24812 18.9626L3.37186 18.8389C-0.891923 14.5752 -0.891923 7.63723 3.37186 3.37352L3.24812 3.24978L3.37186 3.37352C7.63556 -0.890177 14.5734 -0.890179 18.8372 3.37352C22.5892 7.12547 23.039 12.9485 20.187 17.1977L20.0076 17.4651L20.3295 17.4702C21.0354 17.4816 21.7371 17.7557 22.2753 18.294ZM5.5418 16.669C8.60925 19.7364 13.5999 19.7364 16.6674 16.669C19.7348 13.6015 19.7348 8.61073 16.6674 5.54337C13.5999 2.47592 8.60925 2.47592 5.5418 5.54337C2.47435 8.61082 2.47435 13.6015 5.5418 16.669Z" fill="#787882" stroke="white" stroke-width="0.35"/>
</g>
<defs>
<clipPath id="clip0">
<rect width="31" height="31" fill="white"/>
</clipPath>
</defs>
</svg>
