<svg width="33" height="33" viewBox="0 0 33 33" fill="none" xmlns="http://www.w3.org/2000/svg">
<path d="M13.7705 16.36L13.7707 16.3598L13.8803 16.2505C11.3515 12.3916 11.779 7.14851 15.1675 3.76028C17.0471 1.8807 19.5467 0.845589 22.2045 0.845589C24.8628 0.845589 27.3616 1.88045 29.2412 3.76027C33.1217 7.64028 33.1217 13.9537 29.2412 17.8342L29.1528 17.7459L29.2412 17.8342C27.3617 19.7136 24.8628 20.7492 22.2045 20.7492C20.2366 20.7492 18.3561 20.1812 16.7488 19.1233L16.6414 19.2309C16.2714 19.6014 15.7849 19.7857 15.2991 19.7857C15.0954 19.7857 14.8922 19.7517 14.6977 19.6868L13.002 21.3818L13.1254 21.5051L13.1255 21.5052C13.2659 21.6456 13.2689 21.8723 13.1335 22.017L13.1333 22.0172L4.13564 31.5831L4.13302 31.5859L4.13298 31.5859C3.76513 31.9537 3.28242 32.1544 2.7695 32.1544C2.25586 32.1544 1.77359 31.9539 1.4105 31.5911L1.41047 31.591C0.661183 30.8418 0.661206 29.6227 1.41045 28.8732L1.41317 28.8705L1.41322 28.8705L10.9843 19.8684L10.9844 19.8683C11.1298 19.7319 11.3554 19.7355 11.4962 19.8762C11.4963 19.8762 11.4963 19.8763 11.4963 19.8763M13.7705 16.36L11.4079 19.9647L11.4963 19.8763M13.7705 16.36C13.2462 16.885 13.0951 17.6431 13.3152 18.3038L11.6195 19.9992M13.7705 16.36L11.6195 19.9992M11.4963 19.8763L11.6195 19.9992M11.4963 19.8763L11.6195 19.9992M17.0578 5.65031L17.0578 5.65033C14.2199 8.48824 14.2199 13.1063 17.0578 15.9437C18.4323 17.318 20.2599 18.0753 22.2045 18.0753C24.1488 18.0753 25.9764 17.318 27.3514 15.9437C27.3514 15.9437 27.3514 15.9437 27.3514 15.9437M17.0578 5.65031L27.4398 5.56145C30.3268 8.44767 30.3268 13.1449 27.4398 16.0321L27.3514 15.9437M17.0578 5.65031C18.4323 4.2751 20.2598 3.5187 22.205 3.5187C24.1494 3.5187 25.9769 4.2751 27.3514 5.64983L27.3514 5.64985C30.1895 8.48724 30.1896 13.1053 27.3514 15.9437M17.0578 5.65031L27.3514 15.9437" fill="#787882" stroke="#787882" stroke-width="0.25"/>
</svg>
