<svg width="32" height="32" viewBox="0 0 32 32" fill="none" xmlns="http://www.w3.org/2000/svg">
<path d="M13.3361 16.6343L13.4433 16.5271L13.3524 16.4057C10.3898 12.4482 10.7047 6.79713 14.3 3.20175C18.2423 -0.740501 24.6574 -0.740501 28.5997 3.20175C32.5419 7.14398 32.542 13.5595 28.5993 17.5025C25.0039 21.0979 19.3529 21.4131 15.3954 18.4501L15.274 18.3593L15.1668 18.4665L13.3836 20.2497L13.3172 20.3161L13.3358 20.4081C13.4955 21.1986 13.27 22.0516 12.6573 22.6636L12.6573 22.6637L4.99428 30.3267C4.02259 31.2984 2.4468 31.2984 1.47511 30.3267C0.503429 29.355 0.503429 27.7792 1.47511 26.8075L9.13847 19.1442L9.13854 19.1441C9.75093 18.531 10.6032 18.3055 11.3945 18.4653L11.4865 18.4839L11.5528 18.4175L13.3361 16.6343ZM16.1308 15.671L16.1308 15.6711C19.0642 18.6041 23.8359 18.6041 26.7693 15.6711L26.7693 15.671C29.702 12.738 29.7028 7.96596 26.7693 5.03284C23.8359 2.09937 19.0639 2.09975 16.1308 5.03284C13.1977 7.96595 13.1977 12.7376 16.1308 15.671Z" fill="#787882" stroke="white" stroke-width="0.35"/>
</svg>
