<svg width="33" height="33" viewBox="0 0 33 33" fill="none" xmlns="http://www.w3.org/2000/svg">
<g clip-path="url(#clip0)">
<path d="M23.375 30.25C19.5841 30.25 16.5 27.1659 16.5 23.375C16.5 19.5841 19.5841 16.5 23.375 16.5C27.1659 16.5 30.25 19.5841 30.25 23.375C30.25 27.1659 27.1659 30.25 23.375 30.25ZM23.375 18.5625C20.7213 18.5625 18.5625 20.7213 18.5625 23.375C18.5625 26.0287 20.7213 28.1875 23.375 28.1875C26.0287 28.1875 28.1875 26.0287 28.1875 23.375C28.1875 20.7213 26.0287 18.5625 23.375 18.5625Z" fill="#787882"/>
<path d="M31.9688 33C31.7048 33 31.4408 32.8996 31.24 32.6975L26.7713 28.2288C26.3684 27.8259 26.3684 27.1728 26.7713 26.7699C27.1741 26.367 27.8273 26.367 28.2301 26.7699L32.6989 31.2386C33.1018 31.6415 33.1018 32.2946 32.6989 32.6975C32.4968 32.8996 32.2328 33 31.9688 33Z" fill="#787882"/>
<path d="M14.4787 28.875H3.78125C1.69538 28.875 0 27.1796 0 25.0938V3.78125C0 1.69538 1.69538 0 3.78125 0H19.5938C21.6796 0 23.375 1.69538 23.375 3.78125V13.4613C23.375 14.0305 22.913 14.4925 22.3438 14.4925C21.7745 14.4925 21.3125 14.0305 21.3125 13.4613V3.78125C21.3125 2.83387 20.5411 2.0625 19.5938 2.0625H3.78125C2.83387 2.0625 2.0625 2.83387 2.0625 3.78125V25.0938C2.0625 26.0411 2.83387 26.8125 3.78125 26.8125H14.4787C15.048 26.8125 15.51 27.2745 15.51 27.8438C15.51 28.413 15.048 28.875 14.4787 28.875Z" fill="#787882"/>
<path d="M18.2188 13.0625H5.15625C4.587 13.0625 4.125 12.6005 4.125 12.0312C4.125 11.462 4.587 11 5.15625 11H18.2188C18.788 11 19.25 11.462 19.25 12.0312C19.25 12.6005 18.788 13.0625 18.2188 13.0625Z" fill="#787882"/>
<path d="M12.7188 18.5625H5.15625C4.587 18.5625 4.125 18.1005 4.125 17.5312C4.125 16.962 4.587 16.5 5.15625 16.5H12.7188C13.288 16.5 13.75 16.962 13.75 17.5312C13.75 18.1005 13.288 18.5625 12.7188 18.5625Z" fill="#787882"/>
<path d="M11.3438 7.5625H5.15625C4.587 7.5625 4.125 7.1005 4.125 6.53125C4.125 5.962 4.587 5.5 5.15625 5.5H11.3438C11.913 5.5 12.375 5.962 12.375 6.53125C12.375 7.1005 11.913 7.5625 11.3438 7.5625Z" fill="#787882"/>
</g>
<defs>
<clipPath id="clip0">
<rect width="33" height="33" fill="white"/>
</clipPath>
</defs>
</svg>
