<svg width="31" height="31" viewBox="0 0 31 31" fill="none" xmlns="http://www.w3.org/2000/svg">
<path d="M12.1061 21.7907H16.2221V24.2119H12.1061V21.7907ZM7.56623 21.4882C6.7304 21.4882 6.05303 22.1656 6.05303 23.0014C6.05303 23.837 6.7304 24.5146 7.56623 24.5146C8.40206 24.5146 9.07943 23.837 9.07943 23.0014C9.07943 22.1656 8.40206 21.4882 7.56623 21.4882ZM24.333 14.1034H12.1061V16.5246H24.333V14.1034ZM7.56623 13.8009C6.7304 13.8009 6.05303 14.4783 6.05303 15.3141C6.05303 16.1499 6.7304 16.8273 7.56623 16.8273C8.40206 16.8273 9.07943 16.1499 9.07943 15.3141C9.07943 14.4783 8.40206 13.8009 7.56623 13.8009ZM24.333 6.8399H12.1061V9.26107H24.333V6.8399ZM7.56623 6.53717C6.7304 6.53717 6.05303 7.21478 6.05303 8.05037C6.05303 8.8862 6.7304 9.5638 7.56623 9.5638C8.40206 9.5638 9.07943 8.8862 9.07943 8.05037C9.07943 7.21478 8.40206 6.53717 7.56623 6.53717ZM2.42117 27.3596V3.63187C2.42117 2.9642 2.9642 2.42117 3.63187 2.42117H27.3596C28.0271 2.42117 28.5701 2.9642 28.5701 3.63187V17.3117H30.9912V3.63187C30.9912 1.62933 29.3622 0 27.3596 0H3.63187C1.62933 0 0 1.62933 0 3.63187V27.3596C0 29.3622 1.62933 30.9912 3.63187 30.9912H17.6142V28.5701H3.63187C2.9642 28.5701 2.42117 28.0271 2.42117 27.3596ZM29.2879 31L26.8769 28.589C26.0612 29.0765 25.1083 29.357 24.091 29.357C21.0871 29.357 18.6432 26.9131 18.6432 23.9094C18.6432 20.9055 21.0871 18.4616 24.091 18.4616C27.0947 18.4616 29.5386 20.9055 29.5386 23.9094C29.5386 25.0208 29.2037 26.0553 28.6302 26.9181L31 29.2879L29.2879 31ZM24.091 26.9358C25.7599 26.9358 27.1174 25.5782 27.1174 23.9094C27.1174 22.2406 25.7599 20.8828 24.091 20.8828C22.4222 20.8828 21.0644 22.2406 21.0644 23.9094C21.0644 25.5782 22.4222 26.9358 24.091 26.9358Z" fill="#787882"/>
</svg>
