<svg width="32" height="32" viewBox="0 0 32 32" fill="none" xmlns="http://www.w3.org/2000/svg">
<path d="M10.3333 28C10.1919 28 10.0493 27.9707 9.91602 27.908C9.56006 27.7454 9.33325 27.3906 9.33325 27V16.4387C9.33325 16 9.15479 15.5693 8.84521 15.26L1.07471 7.49463C0.381348 6.80273 0 5.88135 0 4.90137V2.33325C0 1.04663 1.04663 0 2.33325 0H23.3333C24.6201 0 25.6667 1.04663 25.6667 2.33325V4.87329C25.6667 5.86255 25.2585 6.82544 24.5466 7.51196L16.5107 15.2654C16.1853 15.5786 16 16.0161 16 16.4666V21.7734C16 22.8452 15.5334 23.8601 14.72 24.5574L10.9854 27.7585C10.8 27.9172 10.5681 28 10.3333 28ZM2.33325 2C2.14941 2 2 2.14941 2 2.33325V4.90137C2 5.34668 2.17334 5.76538 2.48926 6.0813L10.2585 13.8452C10.9414 14.5266 11.3333 15.4719 11.3333 16.4387V24.8267L13.4172 23.04C13.7866 22.7227 14 22.2627 14 21.7747V16.468C14 15.4788 14.408 14.5161 15.1201 13.8293L23.156 6.07593C23.48 5.76392 23.6653 5.32666 23.6653 4.87598V2.33325C23.6653 2.14941 23.5161 2 23.332 2H2.33325Z" fill="#787882"/>
<path d="M29.6667 32H21C19.7134 32 18.6667 30.9534 18.6667 29.6667V18.3333C18.6667 17.0466 19.7134 16 21 16H29.6667C30.9534 16 32 17.0466 32 18.3333V29.6667C32 30.9534 30.9534 32 29.6667 32ZM21 18C20.8159 18 20.6667 18.1494 20.6667 18.3333V29.6667C20.6667 29.8506 20.8159 30 21 30H29.6667C29.8506 30 30 29.8506 30 29.6667V18.3333C30 18.1494 29.8506 18 29.6667 18H21Z" fill="#787882"/>
<path d="M27 23H23.6667C23.1147 23 22.6667 22.552 22.6667 22C22.6667 21.448 23.1147 21 23.6667 21H27C27.552 21 28 21.448 28 22C28 22.552 27.552 23 27 23Z" fill="#787882"/>
<path d="M27 27H23.6667C23.1147 27 22.6667 26.552 22.6667 26C22.6667 25.448 23.1147 25 23.6667 25H27C27.552 25 28 25.448 28 26C28 26.552 27.552 27 27 27Z" fill="#787882"/>
</svg>
