<svg width="35" height="33" viewBox="0 0 35 33" fill="none" xmlns="http://www.w3.org/2000/svg">
<path d="M4.78122 27.1439H10.9685C11.6443 27.1439 12.2146 26.6239 12.2146 25.9568C12.2146 25.2897 11.6443 24.7696 10.9685 24.7696H4.78122C3.94041 24.7696 3.27727 24.1267 3.27727 23.3638V4.56532C3.27727 3.80241 3.94041 3.15951 4.78122 3.15951H25.0617C25.9025 3.15951 26.5656 3.80241 26.5656 4.56532V10.3994C26.5656 11.0665 27.1359 11.5865 27.8117 11.5865C28.4875 11.5865 29.0577 11.0665 29.0577 10.3994V4.56532C29.0577 2.46819 27.2541 0.785164 25.0617 0.785164H4.78122C2.58879 0.785164 0.785164 2.46819 0.785164 4.56532V23.3638C0.785164 25.4609 2.58879 27.1439 4.78122 27.1439Z" fill="#787882" stroke="#787882" stroke-width="0.429672"/>
<path d="M13.1597 20.4462C13.1597 24.8667 16.9679 28.4398 21.6243 28.4398C26.2807 28.4398 30.0889 24.8667 30.0889 20.4462C30.0889 16.0258 26.2807 12.4527 21.6243 12.4527C16.9679 12.4527 13.1597 16.0258 13.1597 20.4462ZM15.6518 20.4462C15.6518 17.36 18.3195 14.827 21.6243 14.827C24.9291 14.827 27.5968 17.36 27.5968 20.4462C27.5968 23.5324 24.9291 26.0654 21.6243 26.0654C18.3195 26.0654 15.6518 23.5324 15.6518 20.4462Z" fill="#787882" stroke="#787882" stroke-width="0.429672"/>
<path d="M33.8453 31.9854L33.8452 31.9856C33.6004 32.2161 33.2827 32.3291 32.9678 32.3291C32.6531 32.3291 32.3351 32.2162 32.0913 31.9852C32.0913 31.9852 32.0912 31.9852 32.0912 31.9851L25.8494 26.0995C25.8494 26.0995 25.8494 26.0995 25.8494 26.0995C25.3566 25.6349 25.3566 24.8761 25.8493 24.4115L33.8453 31.9854ZM33.8453 31.9854C34.338 31.5206 34.3381 30.7619 33.8453 30.2972L27.6031 24.4114C27.1173 23.9534 26.335 23.9533 25.8494 24.4114L33.8453 31.9854Z" fill="#787882" stroke="#787882" stroke-width="0.429672"/>
</svg>
