<svg width="31" height="31" viewBox="0 0 31 31" fill="none" xmlns="http://www.w3.org/2000/svg">
<g clip-path="url(#clip0)">
<path d="M20.6463 24.9858L18.0651 27.4845L18.6709 30.9919L15.5012 29.337L12.3315 30.9919L12.9372 27.4845L10.356 24.9858L13.9217 24.4713L15.5012 21.293L17.0807 24.4713L20.6463 24.9858ZM30.9971 24.9939L27.4315 24.4793L25.852 21.3011L24.2725 24.4793L20.7068 24.9939L23.2881 27.4925L22.6823 30.9999L25.8521 29.3451L29.0218 30.9999L28.416 27.4925L30.9971 24.9939ZM6.7299 24.4444L5.15034 21.2639L3.57084 24.4444L0.00518799 24.9593L2.58642 27.4597L1.98068 30.9696L5.1504 29.3135L8.32011 30.9696L7.71438 27.4597L10.2956 24.9593L6.7299 24.4444ZM6.94297 19.8217L4.61385 19.16C5.27697 16.8258 6.70805 14.7231 8.64353 13.2393C9.43225 12.6346 10.2821 12.1429 11.177 11.7684C9.71439 10.546 8.78221 8.7091 8.78221 6.6583C8.78221 2.98685 11.7692 -0.00012207 15.4406 -0.00012207C19.1121 -0.00012207 22.0991 2.98685 22.0991 6.6583C22.0991 8.67206 21.2004 10.4797 19.7831 11.7017C20.7276 12.0795 21.6237 12.5868 22.4526 13.2184C24.3822 14.6884 25.816 16.7745 26.4901 19.0923L24.1652 19.7684C23.0604 15.9698 19.5226 13.3168 15.5617 13.3168C11.5751 13.3168 8.03095 15.9917 6.94297 19.8217ZM11.2035 6.65836C11.2035 8.99475 13.1043 10.8955 15.4406 10.8955C17.777 10.8955 19.6778 8.99475 19.6778 6.65836C19.6778 4.32198 17.777 2.42118 15.4406 2.42118C13.1043 2.42118 11.2035 4.32198 11.2035 6.65836Z" fill="#787882"/>
</g>
<defs>
<clipPath id="clip0">
<rect width="31" height="31" fill="white"/>
</clipPath>
</defs>
</svg>
