<svg width="29" height="29" viewBox="0 0 29 29" fill="none" xmlns="http://www.w3.org/2000/svg">
<g clip-path="url(#clip0)">
<path d="M8.52144 17.6721C8.94488 17.4585 9.45306 17.618 9.67844 18.0354L11.2779 20.9971C11.4012 21.2253 11.6637 21.3405 11.9151 21.2771C12.1666 21.2135 12.3427 20.9873 12.3427 20.728V16.4034C12.3426 16.0906 12.0891 15.837 11.7762 15.837C11.4634 15.837 11.2098 16.0907 11.2098 16.4034V18.4873L10.6751 17.4972C10.1562 16.5364 8.98595 16.1688 8.01116 16.6608C7.1769 17.0817 6.74728 18.0101 6.96642 18.9184L8.00334 23.2164C8.24571 24.2211 8.67782 25.1536 9.28762 25.9881L11.319 28.7678C11.4299 28.9196 11.6021 29.0001 11.7767 29.0001C11.8927 29.0001 12.0097 28.9646 12.1105 28.891C12.363 28.7064 12.4182 28.352 12.2336 28.0994L10.2022 25.3197C9.68104 24.6064 9.31174 23.8094 9.10461 22.9507L8.06769 18.6527C7.97247 18.2581 8.15911 17.855 8.52144 17.6721Z" fill="#787882"/>
<path d="M21.3097 15.2578C20.9754 15.2578 20.6608 15.3434 20.3864 15.4937C20.1085 14.7697 19.4064 14.2542 18.5858 14.2542C18.2318 14.2542 17.9001 14.3505 17.6147 14.5176C17.3096 13.8539 16.639 13.3916 15.8619 13.3916C15.5783 13.3916 15.3091 13.4536 15.0664 13.564V10.8559C15.0664 9.79269 14.2014 8.92761 13.1381 8.92761C12.0747 8.92761 11.2097 9.79263 11.2097 10.8559V11.8378C11.2097 12.1505 11.4633 12.4042 11.7761 12.4042C12.089 12.4042 12.3425 12.1505 12.3425 11.8378V10.856C12.3425 10.4174 12.6994 10.0605 13.1381 10.0605C13.5767 10.0605 13.9336 10.4174 13.9336 10.856V18.8484C13.9336 19.1612 14.1872 19.4148 14.5 19.4148C14.8128 19.4148 15.0664 19.1612 15.0664 18.8484V15.3199C15.0664 14.8812 15.4232 14.5243 15.8619 14.5243C16.3006 14.5243 16.6574 14.8812 16.6574 15.3199V18.8484C16.6574 19.1612 16.911 19.4148 17.2238 19.4148C17.5367 19.4148 17.7902 19.1612 17.7902 18.8484V16.1826C17.7902 15.7439 18.1471 15.387 18.5858 15.387C19.0244 15.387 19.3813 15.7439 19.3813 16.1826V18.8484C19.3813 19.1612 19.6349 19.4148 19.9477 19.4148C20.2605 19.4148 20.5141 19.1612 20.5141 18.8484V17.1861C20.5141 16.7474 20.871 16.3905 21.3096 16.3905C21.7482 16.3905 22.1051 16.7474 22.1051 17.1861V21.9653C22.1051 23.2389 21.9119 24.5008 21.5308 25.716L20.7318 28.2638C20.6382 28.5623 20.8043 28.8802 21.1028 28.9737C21.1592 28.9915 21.2163 28.9998 21.2725 28.9998C21.5134 28.9998 21.7368 28.8448 21.8127 28.6027L22.6117 26.0549C23.0272 24.7299 23.2379 23.3539 23.2379 21.9653V17.1861C23.238 16.1229 22.373 15.2578 21.3097 15.2578Z" fill="#787882"/>
<path d="M28.9525 3.0036C28.8395 2.65588 28.5444 2.40729 28.1826 2.35478L26.4477 2.10324L25.6714 0.531347C25.5096 0.203567 25.182 0 24.8165 0C24.8165 0 24.8163 0 24.8163 0C24.4506 5.66407e-05 24.123 0.20385 23.9613 0.5318L23.1859 2.10403L21.4511 2.35659C21.0893 2.40927 20.7944 2.65804 20.6816 3.00587C20.5687 3.35364 20.6613 3.72815 20.9231 3.98326L22.1788 5.20659L21.8829 6.93447C21.8212 7.29487 21.9667 7.65222 22.2625 7.867C22.4296 7.98838 22.6251 8.04995 22.8219 8.04995C22.9735 8.04995 23.1259 8.01336 23.2667 7.93933L24.8182 7.12314L26.3701 7.93854C26.6937 8.10869 27.0785 8.08071 27.3742 7.86564C27.67 7.65063 27.8152 7.29329 27.7533 6.93288L27.4565 5.20517L28.7115 3.98122C28.9732 3.72588 29.0656 3.35126 28.9525 3.0036ZM26.5981 4.45995C26.3733 4.67909 26.2709 4.99469 26.3241 5.30406L26.5754 6.7667L25.2616 6.07647C24.9837 5.93034 24.6519 5.93051 24.3741 6.07664L23.0607 6.7676L23.3112 5.30474C23.3641 4.99537 23.2616 4.67994 23.0367 4.46085L21.9737 3.42523L23.4423 3.21147C23.7529 3.16622 24.0213 2.97115 24.1601 2.68958L24.8166 1.35864L25.4737 2.68919C25.6127 2.97069 25.8811 3.16559 26.1919 3.21074L27.6606 3.42376L26.5981 4.45995Z" fill="#787882"/>
<path d="M18.6354 3.0036C18.5223 2.65588 18.2273 2.40723 17.8654 2.35478L16.1306 2.10324L15.3543 0.531347C15.1925 0.203567 14.8649 0 14.4993 0C14.4993 0 14.4992 0 14.4991 0C14.1334 5.66407e-05 13.8058 0.20385 13.6441 0.5318L12.8687 2.10403L11.134 2.35659C10.7722 2.40927 10.4772 2.65804 10.3644 3.00587C10.2515 3.35364 10.3441 3.72815 10.606 3.98326L11.8616 5.20653L11.5657 6.93441C11.504 7.29482 11.6495 7.65216 11.9453 7.86694C12.1124 7.98833 12.3079 8.04989 12.5046 8.04989C12.6563 8.04989 12.8087 8.0133 12.9495 7.93927L14.501 7.12314L16.0529 7.93848C16.3765 8.10863 16.7613 8.08065 17.0571 7.86558C17.3528 7.65058 17.4981 7.29323 17.4361 6.93283L17.1393 5.20511L18.3943 3.98116C18.656 3.72588 18.7484 3.35132 18.6354 3.0036ZM16.281 4.45995C16.0563 4.67903 15.9539 4.99458 16.007 5.30406L16.2583 6.7667L14.9445 6.07647C14.6665 5.9304 14.3347 5.93045 14.057 6.07664L12.7435 6.7676L12.9941 5.30474C13.047 4.99532 12.9444 4.67988 12.7195 4.46085L11.6565 3.42523L13.1252 3.21147C13.4357 3.16622 13.7041 2.97115 13.843 2.68958L14.4995 1.35858L15.1566 2.68919C15.2955 2.97064 15.564 3.16559 15.8747 3.21074L17.3434 3.42376L16.281 4.45995Z" fill="#787882"/>
<path d="M8.31803 3.0036C8.20497 2.65588 7.90993 2.40729 7.54805 2.35478L5.81321 2.10324L5.037 0.531347C4.87512 0.203567 4.54757 0 4.18201 0C4.18195 0 4.18184 0 4.18173 0C3.81611 5.66407e-05 3.4885 0.20385 3.32679 0.5318L2.55138 2.10403L0.816643 2.35659C0.454822 2.40927 0.15995 2.65804 0.0470654 3.00581C-0.0658196 3.35358 0.0266748 3.72809 0.288582 3.98326L1.54425 5.20659L1.24836 6.93447C1.18668 7.29487 1.33213 7.65222 1.62796 7.86706C1.79511 7.98838 1.99052 8.05001 2.18735 8.04995C2.33898 8.04995 2.4914 8.01336 2.63221 7.93933L4.18371 7.12319L5.73561 7.93854C6.05931 8.10857 6.44407 8.08065 6.73979 7.8657C7.03551 7.65063 7.18074 7.29317 7.11883 6.93283L6.82203 5.20511L8.07702 3.98116C8.3387 3.72588 8.43108 3.35132 8.31803 3.0036ZM5.9637 4.45989C5.73889 4.67898 5.63643 4.99458 5.68962 5.30406L5.94087 6.7667L4.6272 6.07647C4.34927 5.9304 4.01741 5.93045 3.73964 6.07664L2.42615 6.76766L2.67661 5.30491C2.72963 4.99554 2.62705 4.68005 2.40213 4.46091L1.33921 3.42523L2.80785 3.21147C3.11841 3.16622 3.38677 2.97115 3.5256 2.68958L4.18207 1.35858L4.83921 2.68919C4.97815 2.97064 5.24657 3.16559 5.55736 3.21074L7.02611 3.42376L5.9637 4.45989Z" fill="#787882"/>
<path d="M12.1767 13.7711C12.0713 13.6657 11.9252 13.6051 11.7762 13.6051C11.6273 13.6051 11.4811 13.6657 11.3758 13.7711C11.2704 13.8765 11.2098 14.0225 11.2098 14.1715C11.2098 14.3205 11.2704 14.4666 11.3758 14.5719C11.4811 14.6773 11.6273 14.7379 11.7762 14.7379C11.9252 14.7379 12.0713 14.6773 12.1767 14.5719C12.282 14.4666 12.3426 14.3205 12.3426 14.1715C12.3426 14.0224 12.282 13.8764 12.1767 13.7711Z" fill="#787882"/>
</g>
<defs>
<clipPath id="clip0">
<rect width="29" height="29" fill="white"/>
</clipPath>
</defs>
</svg>
