<svg width="28" height="28" viewBox="0 0 28 28" fill="none" xmlns="http://www.w3.org/2000/svg">
<path d="M22.6871 14.7L18.1523 9.76956L22.6871 4.86958C22.8481 4.70879 22.8851 4.4618 22.7784 4.26088C22.685 4.04778 22.4609 3.9233 22.2306 3.95656H7.59151V3.53049C8.28724 3.2444 8.75141 2.57792 8.77844 1.82615C8.77844 0.817538 7.9609 1.26642e-08 6.95235 1.26642e-08C5.96063 -0.000116496 5.15661 0.803673 5.15643 1.79539C5.15643 1.80564 5.15649 1.81584 5.15667 1.82609C5.19651 2.58264 5.67134 3.24737 6.37406 3.53043V27.3913C6.37406 27.7275 6.64657 28 6.98276 28C7.31894 28 7.59145 27.7275 7.59145 27.3913V15.8261H22.2306C22.4783 15.7972 22.6894 15.6329 22.7784 15.4C22.8913 15.1695 22.8554 14.8938 22.6871 14.7ZM6.95235 2.43479C6.61616 2.43479 6.34365 2.16228 6.34365 1.82609C6.34365 1.48991 6.61616 1.21739 6.95235 1.21739C7.28853 1.21739 7.56105 1.48991 7.56105 1.82609C7.56105 2.16228 7.28853 2.43479 6.95235 2.43479ZM7.59151 14.6087V5.17389H20.8611L16.9046 9.40431C16.6876 9.64693 16.6876 10.0139 16.9046 10.2565L20.8611 14.6087H7.59151V14.6087Z" fill="#787882"/>
</svg>
