<svg width="27" height="27" viewBox="0 0 27 27" fill="none" xmlns="http://www.w3.org/2000/svg">
<path d="M13.5001 12.9829C15.2447 12.9829 16.6641 11.5635 16.6641 9.81885C16.6641 8.07418 15.2447 6.65479 13.5001 6.65479C11.7554 6.65479 10.3359 8.07418 10.3359 9.81885C10.3359 11.5635 11.7554 12.9829 13.5001 12.9829ZM13.5001 8.23682C14.3724 8.23682 15.082 8.94652 15.082 9.81885C15.082 10.6912 14.3724 11.4009 13.5001 11.4009C12.6277 11.4009 11.918 10.6912 11.918 9.81885C11.918 8.94652 12.6277 8.23682 13.5001 8.23682Z" fill="#787882"/>
<path d="M23.5649 18.1934H18.2709C20.7429 15.8338 22.9922 13.5208 22.9922 9.49219C22.9922 4.06413 18.9163 0 13.5001 0C8.07287 0 4.00779 4.07621 4.00779 9.49219C4.00779 13.5208 6.25712 15.8338 8.7292 18.1934H3.43504L0.542297 27H26.4577L23.5649 18.1934ZM5.58982 9.49219C5.58982 4.90873 8.91657 1.58203 13.5001 1.58203C18.0835 1.58203 21.4101 4.90873 21.4101 9.49219C21.4101 14.62 17.0819 16.4361 13.5001 20.8524C12.4237 19.5253 11.2725 18.4298 10.153 17.3647C7.60354 14.9389 5.58982 13.0228 5.58982 9.49219ZM3.36807 23.4668H9.07029V21.8848H3.88771L4.58059 19.7754H10.3359V19.7398C12.4372 21.8235 13.0056 22.8679 13.5001 23.4906C14.0068 22.8524 14.5567 21.8298 16.664 19.74V19.7754H22.4194L23.1123 21.8848H17.9297V23.4668H23.6319L24.2728 25.418H2.72719L3.36807 23.4668Z" fill="#787882"/>
</svg>
