<svg width="30" height="30" viewBox="0 0 30 30" fill="none" xmlns="http://www.w3.org/2000/svg">
<g clip-path="url(#clip0)">
<path d="M29.4502 26.7994L22.0197 19.3689C23.4934 17.3533 24.3746 14.8765 24.3746 12.1878C24.3746 5.45665 18.9185 0.000488281 12.1873 0.000488281C5.45616 0.000488281 0 5.45665 0 12.1878C0 18.9189 5.45616 24.3751 12.1873 24.3751C14.876 24.3751 17.3529 23.4939 19.3684 22.0201L26.799 29.4507C27.1646 29.8163 27.6446 30 28.1246 30C28.6046 30 29.0845 29.8163 29.4502 29.4507C30.1833 28.7175 30.1833 27.5326 29.4502 26.7994ZM12.8848 20.3139C12.7067 20.5108 12.4536 20.6252 12.1873 20.6252C11.9211 20.6252 11.6679 20.5108 11.4898 20.3139C10.8898 19.6446 5.62491 13.6803 5.62491 10.3128C5.62491 6.69413 8.56862 3.75043 12.1873 3.75043C15.806 3.75043 18.7497 6.69413 18.7497 10.3128C18.7497 13.6803 13.4848 19.6446 12.8848 20.3139Z" fill="#787882"/>
<path d="M12.1873 13.125C13.7406 13.125 14.9998 11.8659 14.9998 10.3126C14.9998 8.7593 13.7406 7.50012 12.1873 7.50012C10.6341 7.50012 9.37488 8.7593 9.37488 10.3126C9.37488 11.8659 10.6341 13.125 12.1873 13.125Z" fill="#787882"/>
</g>
<defs>
<clipPath id="clip0">
<rect width="30" height="30" fill="white"/>
</clipPath>
</defs>
</svg>
