<svg width="23" height="31" viewBox="0 0 23 31" fill="none" xmlns="http://www.w3.org/2000/svg">
<path d="M11.5 0C5.4906 0 0.601562 4.88904 0.601562 10.8984C0.601562 12.9288 1.16398 14.9103 2.2284 16.6293L10.8796 30.5707C11.0454 30.8377 11.3373 31 11.6513 31C11.6537 31 11.6561 31 11.6585 31C11.9752 30.9975 12.2678 30.8302 12.4305 30.5585L20.8612 16.4821C21.8669 14.7994 22.3984 12.8686 22.3984 10.8984C22.3984 4.88904 17.5094 0 11.5 0ZM19.3024 15.5495L11.6376 28.3472L3.77222 15.6723C2.88624 14.2415 2.40586 12.5907 2.40586 10.8984C2.40586 5.89061 6.49217 1.8043 11.5 1.8043C16.5078 1.8043 20.5881 5.89061 20.5881 10.8984C20.5881 12.5405 20.1394 14.1491 19.3024 15.5495Z" fill="#787882"/>
<path d="M11.5 5.44922C8.4953 5.44922 6.05078 7.89374 6.05078 10.8984C6.05078 13.8839 8.45552 16.3477 11.5 16.3477C14.582 16.3477 16.9492 13.8511 16.9492 10.8984C16.9492 7.89374 14.5047 5.44922 11.5 5.44922ZM11.5 14.5434C9.48639 14.5434 7.85508 12.9066 7.85508 10.8984C7.85508 8.8953 9.49687 7.25352 11.5 7.25352C13.5031 7.25352 15.1389 8.8953 15.1389 10.8984C15.1389 12.8773 13.5455 14.5434 11.5 14.5434Z" fill="#787882"/>
</svg>
