<svg width="28" height="28" viewBox="0 0 28 28" fill="none" xmlns="http://www.w3.org/2000/svg">
<g clip-path="url(#clip0)">
<path d="M11.2784 1.63364H15.8014V2.39471H17.4348V1.5271C17.4351 0.685087 16.7504 0 15.9088 0H11.171C10.3294 0 9.64471 0.685087 9.64471 1.5271V2.39471H11.2784V1.63364Z" fill="#787882"/>
<path d="M21.2072 8.86688H5.87268C5.4525 8.86688 5.12172 9.22532 5.15559 9.64426L6.43759 25.4967C6.50903 26.3816 7.24719 27.0632 8.134 27.0632H18.9457C19.8325 27.0632 20.5707 26.3816 20.6421 25.4965L21.9241 9.64426C21.9582 9.22532 21.6274 8.86688 21.2072 8.86688ZM9.58573 25.3724C9.56859 25.3734 9.55146 25.374 9.53453 25.374C9.1063 25.374 8.74682 25.0406 8.72019 24.6074L7.91679 11.5934C7.88912 11.1431 8.23166 10.7555 8.68178 10.7279C9.13045 10.7006 9.51966 11.0423 9.54733 11.4928L10.3505 24.5068C10.3784 24.9571 10.0359 25.3445 9.58573 25.3724ZM14.3659 24.5572C14.3659 25.0081 14.0002 25.3738 13.549 25.3738C13.0979 25.3738 12.7322 25.0081 12.7322 24.5572V11.543C12.7322 11.0919 13.0979 10.7262 13.549 10.7262C14 10.7262 14.3659 11.0919 14.3659 11.543V24.5572ZM19.1631 11.5911L18.3961 24.6051C18.3707 25.0391 18.0106 25.3738 17.5815 25.3738C17.5654 25.3738 17.5491 25.3734 17.5328 25.3726C17.0825 25.3459 16.7389 24.9594 16.7655 24.5091L17.5324 11.4949C17.5588 11.0446 17.9441 10.701 18.3956 10.7276C18.846 10.7541 19.1895 11.1408 19.1631 11.5911Z" fill="#787882"/>
<path d="M24.0318 6.34628L23.4953 4.73825C23.3539 4.31435 22.957 4.02838 22.51 4.02838H4.56953C4.12272 4.02838 3.72567 4.31435 3.58444 4.73825L3.04801 6.34628C2.94457 6.65641 3.07919 6.97273 3.33047 7.13048C3.43288 7.19469 3.55409 7.2333 3.68726 7.2333H23.3925C23.5257 7.2333 23.6471 7.19469 23.7493 7.13027C24.0006 6.97252 24.1352 6.6562 24.0318 6.34628Z" fill="#787882"/>
</g>
<defs>
<clipPath id="clip0">
<rect width="27.0632" height="27.0632" fill="white"/>
</clipPath>
</defs>
</svg>
