<svg width="40" height="31" viewBox="0 0 40 31" fill="none" xmlns="http://www.w3.org/2000/svg">
<path d="M35.7053 26.4589V0.765213L34.6371 0.847406C30.3527 1.17241 26.1504 2.11229 22.1835 3.63317L20.303 4.34969V29.9417L21.6725 29.4194C25.7774 27.852 30.1237 26.8824 34.5543 26.5448L35.7053 26.4589Z" fill="#CACACA"/>
<path d="M39.2059 3.99255H37.1056V26.9041C37.1069 27.2455 36.8269 27.5306 36.4629 27.5587L34.6699 27.6961C34.1523 27.7361 33.6361 27.7856 33.122 27.8448C32.9552 27.8636 32.7894 27.8886 32.6236 27.9103C32.2769 27.9534 31.931 27.9972 31.5861 28.0484C31.3851 28.0784 31.1854 28.1136 30.9851 28.1465C30.6764 28.197 30.367 28.2472 30.059 28.3041C29.8488 28.3434 29.6389 28.3875 29.4246 28.43C29.1313 28.4882 28.838 28.5477 28.5467 28.6125C28.3283 28.6611 28.1105 28.7126 27.8934 28.7644C27.61 28.8299 27.328 28.9005 27.0463 28.974C26.8272 29.0303 26.6081 29.0898 26.3896 29.1498C26.1097 29.2272 25.8338 29.3058 25.5572 29.3883C25.3408 29.4538 25.1241 29.5193 24.9084 29.5846C24.6315 29.6718 24.356 29.7619 24.0815 29.855C23.8716 29.9262 23.6613 29.9978 23.4467 30.073C23.3506 30.1072 23.2552 30.1436 23.1595 30.1784H39.2059V3.99255Z" fill="#787882"/>
<path d="M4.56878 0.847406L3.5005 0.765213V26.4607L4.74312 26.5577C9.17108 26.8974 13.5136 27.8731 17.6117 29.4488L18.9028 29.9417V4.34969L17.0244 3.6338C13.0572 2.11261 8.85419 1.17241 4.56878 0.847406Z" fill="#CACACA"/>
<path d="M0 3.99255V30.1693H16.0576C15.9715 30.1377 15.8853 30.1038 15.7985 30.0738C15.5982 30.0025 15.3962 29.9345 15.1945 29.8658C14.9101 29.7693 14.626 29.6753 14.3395 29.5855C14.1323 29.52 13.9245 29.4564 13.7163 29.3944C13.4322 29.3072 13.1471 29.2251 12.8617 29.1484C12.6515 29.0909 12.4416 29.033 12.2317 28.9781C11.9438 28.9036 11.6553 28.833 11.3661 28.7637C11.1562 28.7132 10.946 28.6627 10.7313 28.6157C10.438 28.5502 10.143 28.4901 9.8483 28.431C9.63841 28.3885 9.42817 28.3454 9.21828 28.3061C8.91301 28.2498 8.60637 28.1993 8.29973 28.1492C8.09873 28.1163 7.89772 28.0837 7.69637 28.0501C7.35794 28 7.01849 27.9575 6.67903 27.9146C6.50742 27.8932 6.33718 27.8677 6.16592 27.8495C5.65246 27.7913 5.139 27.7418 4.62555 27.7009L2.74094 27.5516C2.37755 27.5226 2.09895 27.2379 2.10032 26.8972V3.99255H0Z" fill="#787882"/>
<g clip-path="url(#clip0)">
<path d="M16.0789 16.8685C18.654 16.1542 20.1001 16.1668 22.6752 16.8685V21.6969H16.0789V16.8685Z" fill="white"/>
<rect x="17.4189" y="2.71622" width="3.86497" height="1.23679" fill="#FFFCFC"/>
<path d="M22.08 8.47435L21.6394 8.26066C21.4204 8.15445 21.2838 7.94076 21.2838 7.70205V3.95303H17.4189V7.70205C17.4189 7.94076 17.2823 8.15445 17.0633 8.26066L16.6227 8.47435C15.525 9.00671 14.8422 10.0777 14.8422 11.2686V16.4497V22.0733V28.3217C14.8422 29.3552 15.7092 30.1962 16.7747 30.1962H21.928C22.9934 30.1962 23.8605 29.3552 23.8605 28.3217V22.0733V16.4497V11.2686C23.8605 10.0777 23.1777 9.00671 22.08 8.47435ZM22.5721 21.4485H16.1306V16.9321C16.8598 16.7572 18.2911 16.4497 19.3514 16.4497C20.4207 16.4497 21.8469 16.7572 22.5721 16.9321V21.4485Z" fill="#3B3B3D"/>
<path d="M20.6396 0.242645H18.063C17.7075 0.242645 17.4189 0.522592 17.4189 0.867501V2.74201H21.2838V0.867501C21.2838 0.522592 20.9952 0.242645 20.6396 0.242645Z" fill="#3B3B3D"/>
</g>
<defs>
<clipPath id="clip0">
<rect width="8.86366" height="29.9922" fill="white" transform="translate(14.8422 0.242615)"/>
</clipPath>
</defs>
</svg>
