<svg width="41" height="31" viewBox="0 0 41 31" fill="none" xmlns="http://www.w3.org/2000/svg">
<g clip-path="url(#clip0)">
<path d="M31.1949 1.29124C33.1324 1.28647 35.0623 1.53274 36.9365 2.02388L36.9378 2.02422L36.9378 2.02423C37.3102 2.13246 37.5609 2.48047 37.5459 2.86783V3.73853H40.1896H40.1896H40.1896H40.1896H40.1897H40.1897H40.1897H40.1898H40.1898H40.1898H40.1899H40.1899H40.1899H40.19H40.19H40.19H40.1901H40.1901H40.1901H40.1901H40.1902H40.1902H40.1902H40.1903H40.1903H40.1903H40.1904H40.1904H40.1904H40.1905H40.1905H40.1905H40.1905H40.1906H40.1906H40.1906H40.1907H40.1907H40.1907H40.1908H40.1908H40.1908H40.1908H40.1909H40.1909H40.1909H40.191H40.191H40.191H40.1911H40.1911H40.1911H40.1912H40.1912H40.1912H40.1912H40.1913H40.1913H40.1913H40.1914H40.1914H40.1914H40.1915H40.1915H40.1915H40.1916H40.1916H40.1916H40.1916H40.1917H40.1917H40.1917H40.1918H40.1918H40.1918H40.1919H40.1919H40.1919H40.192H40.192H40.192H40.192H40.1921H40.1921H40.1921H40.1922H40.1922H40.1922H40.1923H40.1923H40.1923H40.1924H40.1924H40.1924H40.1925H40.1925H40.1925H40.1925H40.1926H40.1926H40.1926H40.1927H40.1927H40.1927H40.1928H40.1928H40.1928H40.1929H40.1929H40.1929H40.1929H40.193H40.193H40.193H40.1931H40.1931H40.1931H40.1932H40.1932H40.1932H40.1933H40.1933H40.1933H40.1934H40.1934H40.1934H40.1934H40.1935H40.1935H40.1935H40.1936H40.1936H40.1936H40.1937H40.1937H40.1937H40.1938H40.1938H40.1938H40.1938H40.1939H40.1939H40.1939H40.194H40.194H40.194H40.1941H40.1941H40.1941H40.1942H40.1942H40.1942H40.1943H40.1943H40.1943H40.1943H40.1944H40.1944H40.1944H40.1945H40.1945H40.1945H40.1946H40.1946H40.1946H40.1947H40.1947H40.1947H40.1948H40.1948H40.1948H40.1948H40.1949H40.1949H40.1949H40.195H40.195H40.195H40.1951H40.1951H40.1951H40.1952H40.1952H40.1952H40.1953H40.1953H40.1953H40.1953H40.1954H40.1954H40.1954H40.1955H40.1955H40.1955H40.1956H40.1956H40.1956H40.1957H40.1957H40.1957H40.1958H40.1958H40.1958H40.1959H40.1959H40.1959H40.1959H40.196H40.196H40.196H40.1961H40.1961H40.1961H40.1962H40.1962H40.1962H40.1963H40.1963H40.1963H40.1964H40.1964H40.1964H40.1964H40.1965H40.1965H40.1965H40.1966H40.1966H40.1966H40.1967H40.1967H40.1967H40.1968H40.1968H40.1968H40.1969H40.1969H40.1969H40.1969H40.197H40.197H40.197H40.1971H40.1971H40.1971H40.1972H40.1972H40.1972H40.1973H40.1973H40.1973H40.1974H40.1974H40.1974H40.1975H40.1975C40.664 3.73853 41.0421 4.11669 41.0421 4.5831V29.9618V29.9621C41.0403 30.262 40.8795 30.5385 40.6198 30.6884C40.3585 30.8393 40.0365 30.8393 39.7752 30.6884L39.7651 30.6826L39.7628 30.6791C39.7593 30.6768 39.754 30.6734 39.7467 30.669C39.7308 30.6593 39.7071 30.6456 39.6757 30.6283C39.613 30.5937 39.5205 30.5452 39.3992 30.4855C39.1568 30.3661 38.8002 30.2022 38.3386 30.0164C37.4155 29.6446 36.0728 29.1846 34.3844 28.8148C31.0076 28.0752 26.2482 27.6963 20.695 29.1044L20.6888 29.106L20.6887 29.1056C20.6224 29.1136 20.5554 29.1137 20.4891 29.106H20.4205H20.3014H20.2887L20.2891 29.1045C9.39081 26.3564 1.53575 30.5154 1.21586 30.6848C1.2122 30.6867 1.20952 30.6881 1.20784 30.689C1.08176 30.7603 0.9395 30.798 0.794719 30.7984L0.794574 30.7984C0.328156 30.7984 -0.05 30.4203 -0.05 29.9538V4.57515C-0.05 4.10874 0.328156 3.73058 0.794574 3.73058H3.42229V2.8678C3.40735 2.48045 3.65807 2.13246 4.03043 2.02423L4.0317 2.02386L4.03171 2.02388C5.90589 1.53274 7.83582 1.28647 9.77332 1.29124M31.1949 1.29124C31.1949 1.29124 31.1949 1.29124 31.195 1.29124V1.34124L31.1948 1.29124C31.1949 1.29124 31.1949 1.29124 31.1949 1.29124ZM31.1949 1.29124C28.0227 1.29125 23.6966 2.00211 20.4844 5.24263C17.2953 1.97037 12.9372 1.29125 9.77332 1.29124M9.77332 1.29124C9.77334 1.29124 9.77336 1.29124 9.77338 1.29124L9.77326 1.34124V1.29124C9.77328 1.29124 9.7733 1.29124 9.77332 1.29124ZM25.309 26.62C25.2212 26.6291 25.1335 26.6386 25.0459 26.6485C27.1702 25.9814 29.3888 25.6619 31.6161 25.7029L36.614 26.0922C37.0478 26.1581 37.4529 25.8597 37.5188 25.4259C37.5252 25.3835 37.5282 25.3405 37.5277 25.2976M25.309 26.62C25.2246 26.6454 25.1403 26.6712 25.0562 26.6977C29.908 26.1507 34.8208 26.8283 39.345 28.6701L39.3451 28.6161M25.309 26.62C27.3525 26.0064 29.4799 25.7135 31.6152 25.7529L31.6158 25.7529C33.2866 25.7622 34.9544 25.8921 36.6065 26.1416L37.5777 25.2974V25.2976H37.5277M25.309 26.62C30.0782 26.1252 34.8986 26.8096 39.3451 28.6161M39.3451 28.6161C39.3617 28.6229 39.3784 28.6297 39.395 28.6365L39.4267 5.42767H39.3767M39.3451 28.6161L39.3767 5.42767M39.3767 5.42767L39.3767 5.37767H37.5777V5.42767M39.3767 5.42767H37.5777M37.5777 5.42767H37.5277V25.2976M37.5777 5.42767L37.5777 25.2971L37.5277 25.2976M4.40946 26.1496L4.40949 26.1496C6.0509 25.899 7.70808 25.7664 9.36843 25.7529L9.36889 25.7529C11.4947 25.716 13.6122 26.0091 15.6463 26.6207C10.8866 26.1302 6.07669 26.8143 1.63915 28.6161V5.42767H3.43818V25.3053C3.43305 25.7716 3.80683 26.1538 4.27315 26.1591C4.31874 26.1596 4.36436 26.1565 4.40946 26.1496ZM9.36802 24.0717H9.36791C7.93953 24.0749 6.51279 24.1655 5.09554 24.3431V3.53466C6.62654 3.19653 8.18946 3.02395 9.75744 3.02012C12.7192 3.02013 16.7937 3.70049 19.6237 6.88255L19.6474 26.5643C17.9641 25.4841 14.7446 24.0717 9.36802 24.0717ZM35.8647 3.53468V24.343C34.4556 24.1638 33.0368 24.0705 31.6163 24.0637H31.6161C26.2692 24.0637 23.0423 25.477 21.3366 26.5571V6.88266C24.1668 3.73201 28.2414 3.02013 31.2028 3.02012C32.7707 3.02474 34.3336 3.19722 35.8647 3.53468Z" fill="#787882" stroke="#787882" stroke-width="0.1"/>
<path d="M17.6293 15.0817C19.9239 14.4609 21.2125 14.4719 23.5071 15.0817V19.2778H17.6293V15.0817Z" fill="white"/>
<rect x="18.8232" y="2.78262" width="3.44407" height="1.07483" fill="#FFFCFC"/>
<path d="M18.5175 7.62461C18.7213 7.52825 18.8493 7.33368 18.8493 7.11556V3.88357H22.2412V7.11556C22.2412 7.33368 22.3692 7.52825 22.573 7.6246L22.9656 7.81032C23.9352 8.26891 24.5373 9.19079 24.5372 10.2151V14.7177V19.6049V25.035C24.5372 25.9174 23.7777 26.638 22.8413 26.638H18.2492C17.3128 26.638 16.5533 25.9174 16.5533 25.035V19.6049V14.7177V10.2151C16.5533 9.19079 17.1554 8.26891 18.1249 7.81032L18.5175 7.62461ZM18.5175 7.62461L18.5064 7.60101L18.5175 7.6246L18.5175 7.62461ZM23.4153 19.088H23.4414V19.0619V15.137V15.1163L23.4213 15.1116C22.775 14.9595 21.5015 14.6916 20.5453 14.6916C19.5971 14.6916 18.319 14.9595 17.6693 15.1116L17.6491 15.1163V15.137V19.0619V19.088H17.6752H23.4153Z" fill="#3B3B3D" stroke="#B2B2B8" stroke-width="0.0521992"/>
<path d="M19.3972 0.659049H21.6933C21.9971 0.659049 22.2412 0.891998 22.2412 1.17598V2.77893H18.8493V1.17598C18.8493 0.891996 19.0934 0.659049 19.3972 0.659049Z" fill="#3B3B3D" stroke="#B2B2B8" stroke-width="0.0521992"/>
</g>
<defs>
<clipPath id="clip0">
<rect width="41" height="31" fill="white"/>
</clipPath>
</defs>
</svg>
