<svg width="33" height="32" viewBox="0 0 33 32" fill="none" xmlns="http://www.w3.org/2000/svg">
<path d="M31.6835 3.03716H22.3364C20.3279 3.03716 18.408 3.65371 16.7918 4.81529L16.4995 5.02244L16.2147 4.82057C14.5915 3.65371 12.6721 3.03716 10.6635 3.03716H1.31652C0.589359 3.03716 0 3.62651 0 4.35361V28.1382C0 28.8653 0.589359 29.4547 1.31652 29.4547H10.6636C12.1174 29.4547 13.5054 29.9001 14.6859 30.7483L15.7391 31.4943C15.9668 31.6558 16.2336 31.7365 16.5 31.7365C16.7668 31.7365 17.0332 31.6558 17.2614 31.4948L18.322 30.743C19.4941 29.9005 20.8826 29.4546 22.3364 29.4546H31.6835C32.4106 29.4546 33 28.8653 33 28.1381V4.35361C33 3.62651 32.4106 3.03716 31.6835 3.03716ZM30.367 26.8217H22.3364C20.3279 26.8217 18.408 27.4383 16.7918 28.5994L16.4995 28.8065L16.2147 28.6047C14.5915 27.4383 12.6721 26.8217 10.6635 26.8217H2.63297V5.67013H10.6636C12.1174 5.67013 13.5054 6.11557 14.6859 6.96377L15.7391 7.70975C16.195 8.03272 16.8054 8.03227 17.2614 7.70975L18.322 6.95848C19.4941 6.1155 20.8826 5.67007 22.3364 5.67007H30.367V26.8217Z" fill="#787882"/>
<path d="M17.8164 6.63545H15.1835V30.42H17.8164V6.63545Z" fill="#787882"/>
<g clip-path="url(#clip0)">
<rect x="14.9891" y="2.9855" width="3.14771" height="1.12849" fill="#FFFCFC"/>
<path d="M13.8979 15.9128C15.995 15.261 17.1728 15.2725 19.27 15.9128V20.3184H13.8979V15.9128Z" fill="white"/>
<path d="M18.7853 8.23942L18.4264 8.04443C18.248 7.94753 18.1368 7.75255 18.1368 7.53474V4.11401H14.9891V7.53474C14.9891 7.75255 14.8779 7.94753 14.6995 8.04443L14.3407 8.23942C13.4467 8.72516 12.8906 9.70237 12.8906 10.789V15.5164V20.6475V26.3488C12.8906 27.2918 13.5967 28.0591 14.4645 28.0591H18.6614C19.5292 28.0591 20.2353 27.2918 20.2353 26.3488V20.6475V15.5164V10.789C20.2353 9.70237 19.6792 8.72516 18.7853 8.23942ZM19.1861 20.0774H13.9399V15.9566C14.5338 15.7969 15.6995 15.5164 16.563 15.5164C17.4339 15.5164 18.5954 15.7969 19.1861 15.9566V20.0774Z" fill="#3B3B3D"/>
<path d="M17.6122 0.728561H15.5137C15.2242 0.728561 14.9891 0.983994 14.9891 1.2987V3.00907H18.1368V1.2987C18.1368 0.983994 17.9018 0.728561 17.6122 0.728561Z" fill="#3B3B3D"/>
</g>
<rect x="4.53754" y="9.03377" width="5.63415" height="0.721875" rx="0.360938" fill="#CACACA"/>
<rect x="23.0799" y="9.03377" width="5.63415" height="0.721875" rx="0.360938" fill="#CACACA"/>
<rect x="4.53754" y="13.5712" width="5.63415" height="0.721875" rx="0.360938" fill="#CACACA"/>
<rect x="23.0799" y="13.5712" width="5.63415" height="0.721875" rx="0.360938" fill="#CACACA"/>
<rect x="4.53754" y="18.1087" width="5.63415" height="0.721875" rx="0.360938" fill="#CACACA"/>
<rect x="23.0799" y="18.1087" width="5.63415" height="0.721875" rx="0.360938" fill="#CACACA"/>
<rect x="4.53754" y="22.6462" width="5.63415" height="0.721875" rx="0.360938" fill="#CACACA"/>
<rect x="23.0799" y="22.6462" width="5.63415" height="0.721875" rx="0.360938" fill="#CACACA"/>
<defs>
<clipPath id="clip0">
<rect width="7.21875" height="27.3659" fill="white" transform="translate(12.8906 0.7285)"/>
</clipPath>
</defs>
</svg>
