<svg width="30" height="32" viewBox="0 0 30 32" fill="none" xmlns="http://www.w3.org/2000/svg">
<g clip-path="url(#clip0)">
<path d="M17.3899 26.8413L18.7056 26.1844C21.4368 24.8231 24.5457 24.8484 27.2595 26.2538L28.293 26.7898L28.707 25.751L27.6736 25.2144C24.7012 23.6742 21.2961 23.6466 18.3049 25.1386L17.5549 25.5135L17.686 25.3766C19.7791 23.1694 22.791 22.5174 25.4465 23.6965L27.3215 24.5204L27.6804 23.454L25.8054 22.6309C22.7961 21.2947 19.3828 22.0336 17.0105 24.5346L15 26.6376L12.9905 24.5346C10.6182 22.0336 7.20508 21.2947 4.19556 22.6309L2.32056 23.454L2.67944 24.5204L4.55444 23.6965C7.20996 22.5172 10.2219 23.1691 12.3149 25.3766L12.446 25.5135L11.696 25.1386C8.70483 23.6466 5.2998 23.6742 2.32739 25.2144L1.29395 25.751L1.70801 26.7898L2.74146 26.2538C5.45532 24.8479 8.56421 24.8228 11.2954 26.1844L12.6101 26.8413H0V31.408H30V26.8413H17.3899ZM14.5 30.2663H1V27.983H14.5V30.2663ZM29 30.2663H15.5V27.983H29V30.2663Z" fill="#787882"/>
<g clip-path="url(#clip1)">
<rect x="13.5827" y="1.99939" width="3.12406" height="0.9997" fill="#FFFCFC"/>
<path d="M12.4997 13.4387C14.5811 12.8614 15.7501 12.8715 17.8315 13.4387V17.3416H12.4997V13.4387Z" fill="white"/>
<path d="M17.3504 6.65369L16.9942 6.48096C16.8172 6.39512 16.7068 6.22239 16.7068 6.02944V2.9991H13.5827V6.02944C13.5827 6.22239 13.4724 6.39512 13.2953 6.48096L12.9392 6.65369C12.0519 7.084 11.5 7.94968 11.5 8.91229V13.1002V17.6457V22.6963C11.5 23.5317 12.2008 24.2115 13.062 24.2115H17.2274C18.0887 24.2115 18.7895 23.5317 18.7895 22.6963V17.6457V13.1002V8.91229C18.7895 7.94968 18.2376 7.084 17.3504 6.65369ZM17.7481 17.1407H12.5414V13.4901C13.1308 13.3487 14.2877 13.1002 15.1448 13.1002C16.0091 13.1002 17.1619 13.3487 17.7481 13.4901V17.1407Z" fill="#787882"/>
<path d="M16.1861 0H14.1034C13.816 0 13.5827 0.226281 13.5827 0.505073V2.02024H16.7068V0.505073C16.7068 0.226281 16.4735 0 16.1861 0Z" fill="#787882"/>
</g>
</g>
<defs>
<clipPath id="clip0">
<rect width="30" height="32" fill="white"/>
</clipPath>
<clipPath id="clip1">
<rect width="7.16452" height="24.2427" fill="white" transform="translate(11.5)"/>
</clipPath>
</defs>
</svg>
