<svg width="34" height="34" viewBox="0 0 34 34" fill="none" xmlns="http://www.w3.org/2000/svg">
<g clip-path="url(#clip0)">
<path d="M26.6406 16.1587C26.6265 16.1583 26.6123 16.1581 26.5982 16.1579C25.9751 16.1636 25.3749 16.3937 24.9076 16.8059C24.5665 15.6793 23.5398 14.8997 22.3629 14.8738C21.7775 14.8826 21.2125 15.0904 20.7607 15.4628C20.529 14.1911 19.4431 13.2523 18.1513 13.2068C17.5998 13.2081 17.0632 13.3855 16.6198 13.7134V12.2879C19.8269 10.7003 21.1397 6.81347 19.5522 3.60643C17.9646 0.399312 14.0778 -0.913518 10.8707 0.674027C7.66359 2.26157 6.35076 6.14844 7.9383 9.35549C8.56814 10.6278 9.59837 11.6581 10.8707 12.2879V18.5141L9.52769 16.7057C8.5973 15.4771 6.84857 15.2322 5.61644 16.1579C4.46479 17.144 4.30803 18.8679 5.26302 20.0456L10.4525 30.2478C12.0841 33.4581 14.6877 33.9058 15.7539 33.947C16.6728 33.9882 17.6152 34 18.5165 34C21.3557 34 23.8179 33.8528 23.8179 33.8528H23.8768C28.1356 33.8528 29.3254 29.2759 29.3608 26.8373V19.0324C29.4032 17.4877 28.1853 16.2011 26.6406 16.1587ZM10.8471 8.08713C10.8471 8.08743 10.8471 8.08772 10.8471 8.08794V10.9036C9.34435 9.92811 8.4359 8.25965 8.43207 6.46807C8.41749 3.54024 10.7791 1.15491 13.7069 1.14033C16.6348 1.12575 19.0201 3.48737 19.0347 6.41521C19.0438 8.23012 18.1237 9.92355 16.5962 10.9036V8.08802C16.5964 6.50047 15.3097 5.21327 13.7221 5.21304C12.1345 5.21282 10.8474 6.49959 10.8471 8.08713ZM23.7236 32.6747C23.6824 32.6747 19.5237 32.9338 15.7715 32.7689C14.9351 32.7336 12.8263 32.3625 11.4951 29.7118L6.28795 19.4565C6.26977 19.4211 6.24812 19.3875 6.22316 19.3564C5.63691 18.6853 5.70274 17.6668 6.37042 17.0768C7.08618 16.5617 8.08291 16.7165 8.60878 17.4243L10.965 20.67L11.0003 20.6994C11.0521 20.7548 11.1116 20.8024 11.177 20.8408L11.2771 20.8761H11.395H11.4362H11.501H11.6188L11.7248 20.829H11.7837L11.8132 20.7996C11.844 20.7733 11.8716 20.7437 11.8956 20.7112C11.9181 20.6837 11.9378 20.6541 11.9545 20.6229C11.9693 20.5906 11.9811 20.5571 11.9899 20.5227C11.9938 20.4835 11.9938 20.4441 11.9899 20.4049C11.9899 20.4049 11.9899 20.4049 11.9899 20.3637V8.08802C11.9899 7.15107 12.7494 6.39157 13.6863 6.39157C14.6233 6.39157 15.3828 7.15107 15.3828 8.08802V18.5141C15.3828 18.8394 15.6465 19.1031 15.9718 19.1031C16.2971 19.1031 16.5609 18.8394 16.5609 18.5141V16.0813C16.4699 15.2372 17.0806 14.4791 17.9249 14.3882C18.769 14.2973 19.5271 14.908 19.618 15.7522C19.6298 15.8616 19.6298 15.972 19.618 16.0814V20.3166C19.618 20.6419 19.8817 20.9057 20.207 20.9057C20.5323 20.9057 20.7961 20.6419 20.7961 20.3166V17.7484C20.7051 16.9042 21.3158 16.1461 22.1601 16.0553C23.0043 15.9643 23.7624 16.575 23.8532 17.4193C23.865 17.5287 23.865 17.6391 23.8532 17.7485V22.4608C23.8532 22.7861 24.117 23.0499 24.4423 23.0499C24.7676 23.0499 25.0313 22.7861 25.0313 22.4608V19.0326C24.9404 18.1884 25.5511 17.4303 26.3953 17.3395C27.2395 17.2485 27.9976 17.8592 28.0884 18.7035C28.1002 18.8129 28.1002 18.9232 28.0884 19.0327L28.1238 26.8257C28.1238 27.067 27.9824 32.7159 23.7236 32.6747Z" fill="#787882"/>
</g>
<defs>
<clipPath id="clip0">
<rect width="34" height="34" fill="white"/>
</clipPath>
</defs>
</svg>
