<svg width="38" height="29" viewBox="0 0 38 29" fill="none" xmlns="http://www.w3.org/2000/svg">
<path d="M11.4531 14.375C13.6838 14.375 15.4922 12.5664 15.4922 10.3359C15.4922 8.10522 13.6838 6.29688 11.4531 6.29688C9.22241 6.29688 7.41406 8.10522 7.41406 10.3359C7.41699 12.5654 9.22363 14.3721 11.4531 14.375ZM11.4531 7.86719C12.8208 7.86719 13.9297 8.97583 13.9297 10.3438C13.9297 11.7114 12.8208 12.8203 11.4531 12.8203C10.0852 12.8203 8.97656 11.7114 8.97656 10.3438C8.97705 8.97607 10.0854 7.86768 11.4531 7.86719Z" fill="#787882"/>
<path d="M11.4531 15.8672C9.80055 15.855 8.21437 16.5184 7.06252 17.7032C5.89064 18.8985 5.25002 20.5235 5.25002 22.2891C5.25124 22.72 5.60036 23.0691 6.03127 23.0704H16.875C17.3059 23.0691 17.655 22.72 17.6563 22.2891C17.6563 20.5235 17.0156 18.8985 15.8438 17.7032C14.6919 16.5184 13.106 15.855 11.4531 15.8672ZM6.8672 21.5079C7.00099 20.4864 7.46144 19.5357 8.1797 18.7969C9.04421 17.9222 10.2232 17.4297 11.4531 17.4297C12.6831 17.4297 13.8621 17.9222 14.7266 18.7969C15.4434 19.5364 15.9038 20.4869 16.0391 21.5079H6.8672Z" fill="#787882"/>
<path d="M33.8438 0.859375H4.15627C1.99928 0.860352 0.250992 2.60864 0.250015 4.76562V24.6094C0.250992 26.7664 1.99928 28.5146 4.15627 28.5156H33.8438C36.0007 28.5146 37.749 26.7664 37.75 24.6094V4.76562C37.749 2.60864 36.0007 0.860352 33.8438 0.859375ZM36.1875 24.6094C36.1839 25.9021 35.1365 26.9495 33.8438 26.9531H4.15627C2.86354 26.9495 1.81618 25.9021 1.81252 24.6094V4.76562C1.81618 3.4729 2.86354 2.42554 4.15627 2.42188H33.8438C35.1365 2.42554 36.1839 3.4729 36.1875 4.76562V24.6094Z" fill="#787882"/>
<path d="M31.9219 13.9062H22.8203C22.3889 13.9062 22.0391 14.2559 22.0391 14.6875C22.0391 15.1191 22.3889 15.4688 22.8203 15.4688H31.9219C32.3533 15.4688 32.7031 15.1191 32.7031 14.6875C32.7031 14.2559 32.3533 13.9062 31.9219 13.9062Z" fill="#787882"/>
<path d="M31.9219 18.9062H22.8203C22.3889 18.9062 22.0391 19.2559 22.0391 19.6875C22.0391 20.1191 22.3889 20.4688 22.8203 20.4688H31.9219C32.3533 20.4688 32.7031 20.1191 32.7031 19.6875C32.7031 19.2559 32.3533 18.9062 31.9219 18.9062Z" fill="#787882"/>
<path d="M31.9219 8.90625H22.8203C22.3889 8.90625 22.0391 9.25586 22.0391 9.6875C22.0391 10.1191 22.3889 10.4688 22.8203 10.4688H31.9219C32.3533 10.4688 32.7031 10.1191 32.7031 9.6875C32.7031 9.25586 32.3533 8.90625 31.9219 8.90625Z" fill="#787882"/>
</svg>
