<svg width="24" height="30" viewBox="0 0 24 30" fill="none" xmlns="http://www.w3.org/2000/svg">
<path d="M10.4354 0.00219727H1.21401C0.704698 0.00219727 0.29187 0.415026 0.29187 0.924332V28.5884C0.29187 29.0977 0.704698 29.5105 1.21401 29.5105H10.4354C10.9447 29.5105 11.3575 29.0977 11.3575 28.5884V0.924332C11.3575 0.415026 10.9446 0.00219727 10.4354 0.00219727ZM9.51322 27.6663H2.13614V24.8998H6.74682V23.0556H2.13614V20.2892H4.90255V18.4449H2.13614V15.6785H6.74682V13.8342H2.13614V11.0678H4.90255V9.22355H2.13614V6.45714H6.74682V4.61287H2.13614V1.84647H9.51322V27.6663Z" fill="#787882"/>
<path d="M22.6998 23.3308L19.6568 26.3646V3.14523L22.6906 6.17905L23.9908 4.87884L19.3801 0.268168C19.0204 -0.0893895 18.4396 -0.0893895 18.0799 0.268168L13.4692 4.87884L14.7694 6.17905L17.8125 3.14523V26.3646L14.7787 23.3308L13.4785 24.631L18.0891 29.2417C18.4488 29.5992 19.0297 29.5992 19.3893 29.2417L24 24.631L22.6998 23.3308Z" fill="#787882"/>
</svg>
