<svg width="28" height="28" viewBox="0 0 28 28" fill="none" xmlns="http://www.w3.org/2000/svg">
<path d="M23.7235 0H4.27593C3.89132 0 3.53749 0.225094 3.37463 0.573453C3.21166 0.921812 3.26569 1.33766 3.51222 1.63286L5.82009 4.39595V23.8605C5.82009 26.143 7.67706 27.9999 9.95949 27.9999H20.5791C22.8616 27.9999 24.7186 26.143 24.7186 23.8605V0.994984C24.7186 0.446359 24.2722 0 23.7235 0ZM23.0763 23.8606C23.0763 25.2375 21.9561 26.3577 20.5792 26.3577H9.95949C8.58257 26.3577 7.46235 25.2376 7.46235 23.8606V4.16128C7.46235 3.92875 7.38032 3.7024 7.23103 3.52341L5.6598 1.64227H23.0763V23.8606Z" fill="#787882"/>
<path d="M12.8517 8.75134C13.3051 8.75134 13.6728 8.38367 13.6728 7.93021C13.6728 7.47674 13.3051 7.10907 12.8517 7.10907H10.6965V5.56793H12.8517C13.3051 5.56793 13.6728 5.20026 13.6728 4.74679C13.6728 4.29332 13.3051 3.92566 12.8517 3.92566H9.87539C9.42192 3.92566 9.05426 4.29332 9.05426 4.74679V24.0014C9.05426 24.4549 9.42192 24.8226 9.87539 24.8226H12.8517C13.3051 24.8226 13.6728 24.4549 13.6728 24.0014C13.6728 23.548 13.3051 23.1803 12.8517 23.1803H10.6965V21.6208H12.8517C13.3051 21.6208 13.6728 21.2532 13.6728 20.7997C13.6728 20.3462 13.3051 19.9786 12.8517 19.9786H10.6965V18.3595H12.8517C13.3051 18.3595 13.6728 17.9918 13.6728 17.5384C13.6728 17.0849 13.3051 16.7172 12.8517 16.7172H10.6965V15.1577H12.8517C13.3051 15.1577 13.6728 14.79 13.6728 14.3366C13.6728 13.8831 13.3051 13.5154 12.8517 13.5154H10.6965V11.9532H12.8517C13.3051 11.9532 13.6728 11.5855 13.6728 11.1321C13.6728 10.6786 13.3051 10.3109 12.8517 10.3109H10.6965V8.75139H12.8517V8.75134Z" fill="#787882"/>
</svg>
