<svg width="30" height="30" viewBox="0 0 30 30" fill="none" xmlns="http://www.w3.org/2000/svg">
<path d="M29.4141 17.1094H12.8906V0.585938C12.8906 0.262324 12.6283 0 12.3047 0H0.585938C0.262324 0 0 0.262324 0 0.585938V29.4141C0 29.7377 0.262324 30 0.585938 30H29.4141C29.7377 30 30 29.7377 30 29.4141V17.6953C30 17.3717 29.7377 17.1094 29.4141 17.1094ZM28.8281 28.8281H27.3047V26.6602C27.3047 26.3373 27.0416 26.0742 26.7188 26.0742C26.3959 26.0742 26.1328 26.3373 26.1328 26.6602V28.8281H24.4922V26.6602C24.4922 26.3373 24.2291 26.0742 23.9062 26.0742C23.5834 26.0742 23.3203 26.3373 23.3203 26.6602V28.8281H21.6797V24.9023C21.6797 24.5795 21.4166 24.3164 21.0938 24.3164C20.7709 24.3164 20.5078 24.5795 20.5078 24.9023V28.8281H18.8672V26.6602C18.8672 26.3373 18.6041 26.0742 18.2812 26.0742C17.9584 26.0742 17.6953 26.3373 17.6953 26.6602V28.8281H15.9961V26.6602C15.9961 26.3373 15.733 26.0742 15.4102 26.0742C15.0873 26.0742 14.8242 26.3373 14.8242 26.6602V28.8281H13.2422V24.9023C13.2422 24.5795 12.9791 24.3164 12.6562 24.3164C12.3334 24.3164 12.0703 24.5795 12.0703 24.9023V28.8281H10.4297V26.6602C10.4297 26.3373 10.1666 26.0742 9.84375 26.0742C9.5209 26.0742 9.25781 26.3373 9.25781 26.6602V28.8281H7.61719V26.6602C7.61719 26.3373 7.3541 26.0742 7.03125 26.0742C6.7084 26.0742 6.44531 26.3373 6.44531 26.6602V28.8281H1.17188V23.3203H3.39844C3.72129 23.3203 3.98438 23.0572 3.98438 22.7344C3.98438 22.4115 3.72129 22.1484 3.39844 22.1484H1.17188V20.5078H3.39844C3.72129 20.5078 3.98438 20.2447 3.98438 19.9219C3.98438 19.599 3.72129 19.3359 3.39844 19.3359H1.17188V17.6953H5.19551C5.51836 17.6953 5.78145 17.4322 5.78145 17.1094C5.78145 16.7865 5.51836 16.5234 5.19551 16.5234H1.17188V14.8635H3.39844C3.72129 14.8635 3.98438 14.6004 3.98438 14.2775C3.98438 13.9541 3.72129 13.6916 3.39844 13.6916H1.17188V12.0703H3.39844C3.72129 12.0703 3.98438 11.8072 3.98438 11.4844C3.98438 11.1615 3.72129 10.8984 3.39844 10.8984H1.17188V9.25781H5.19551C5.51836 9.25781 5.78145 8.99473 5.78145 8.67188C5.78145 8.34902 5.51836 8.08594 5.19551 8.08594H1.17188V6.44531H3.39844C3.72129 6.44531 3.98438 6.18223 3.98438 5.85938C3.98438 5.53652 3.72129 5.27344 3.39844 5.27344H1.17188V3.63281H3.39844C3.72129 3.63281 3.98438 3.36973 3.98438 3.04688C3.98438 2.72402 3.72129 2.46094 3.39844 2.46094H1.17188V1.17188H11.7188V8.14453H7.89082C7.56738 8.14453 7.30488 8.40762 7.30488 8.73047C7.30488 9.05332 7.56738 9.31641 7.89082 9.31641H11.7188V17.2563L7.66992 21.3006C7.55918 21.4113 7.49766 21.5584 7.49766 21.7148C7.49766 21.8713 7.55859 22.0184 7.66934 22.1291C7.78008 22.2398 7.92715 22.3008 8.08359 22.3008H8.08418C8.24004 22.3008 8.38711 22.2404 8.49785 22.1297L12.3506 18.2812H20.5078V22.3828C20.5078 22.7057 20.7709 22.9688 21.0938 22.9688C21.4172 22.9688 21.6797 22.7057 21.6797 22.3828V18.2812H28.8281V28.8281Z" fill="#787882"/>
<path d="M6.84026 22.9577C6.72952 22.8463 6.58245 22.7854 6.42542 22.7854C6.26897 22.7854 6.1219 22.8463 6.01174 22.9571C5.78264 23.185 5.78264 23.5571 6.01116 23.7856C6.1219 23.8963 6.26897 23.9573 6.42542 23.9573H6.426C6.58186 23.9573 6.72893 23.8963 6.83967 23.7862C7.06819 23.5577 7.06819 23.1862 6.84026 22.9577Z" fill="#787882"/>
</svg>
