<svg width="31" height="31" viewBox="0 0 31 31" fill="none" xmlns="http://www.w3.org/2000/svg">
<path d="M8.16333 0L11.6046 3.44125V28.9421C11.6046 30.0769 12.5278 31 13.6625 31H20.7789C21.9136 31 22.8367 30.0769 22.8367 28.9421V0H8.16333ZM21.8839 28.9421C21.8839 29.5514 21.3882 30.0471 20.7789 30.0471H13.6625C13.0531 30.0471 12.5575 29.5514 12.5575 28.9421V3.04658L10.4637 0.952869H21.8839V28.9421Z" fill="#787882"/>
<path d="M20.7788 3.95349H16.8253V4.90636H20.7788V3.95349Z" fill="#787882"/>
<path d="M20.7788 7.11646H18.0114V8.06932H20.7788V7.11646Z" fill="#787882"/>
<path d="M20.7788 10.2793H16.8253V11.2322H20.7788V10.2793Z" fill="#787882"/>
<path d="M20.7788 13.4423H18.0114V14.3951H20.7788V13.4423Z" fill="#787882"/>
<path d="M20.7788 16.605H16.8253V17.5578H20.7788V16.605Z" fill="#787882"/>
<path d="M20.7788 19.7678H18.0114V20.7207H20.7788V19.7678Z" fill="#787882"/>
<path d="M20.7788 22.9308H16.8253V23.8837H20.7788V22.9308Z" fill="#787882"/>
<path d="M20.7788 26.0936H18.0114V27.0465H20.7788V26.0936Z" fill="#787882"/>
</svg>
