<svg width="34" height="34" viewBox="0 0 34 34" fill="none" xmlns="http://www.w3.org/2000/svg">
<g clip-path="url(#clip0)">
<path d="M33.944 10.3467L29.694 0.430143C29.5557 0.110533 29.2071 -0.063782 28.8708 0.022014L17.5376 2.85528C17.2457 2.92792 17.0313 3.17761 17.0036 3.47783C16.9759 3.77805 17.1419 4.06233 17.4158 4.18684L24.5628 7.43554L23.4348 9.91711H11.5335L10.2994 4.98026C9.98257 3.71649 8.85228 2.83383 7.55046 2.83383H0.709356C0.317828 2.83383 0.00100708 3.15065 0.00100708 3.54218C0.00100708 3.9337 0.317828 4.25052 0.709356 4.25052H7.55053C8.20217 4.25052 8.76655 4.69186 8.92426 5.32337L10.0726 9.91711H7.60724C7.3444 9.91711 7.10368 10.0624 6.9805 10.2941C6.12135 11.9196 5.6676 13.7486 5.6676 15.5837C5.6676 21.5937 10.3736 26.5125 16.2925 26.881V32.5835H12.0425C11.651 32.5835 11.3342 32.9004 11.3342 33.2919C11.3342 33.6834 11.651 34.0002 12.0425 34.0002H21.9591C22.3506 34.0002 22.6674 33.6834 22.6674 33.2919C22.6674 32.9004 22.3506 32.5835 21.9591 32.5835H17.7091V26.881C23.628 26.5124 28.334 21.5937 28.334 15.5837C28.334 13.7486 27.8803 11.9196 27.0211 10.2941C26.898 10.0623 26.6573 9.91711 26.3944 9.91711H24.9908L25.8524 8.0217L32.9989 11.2701C33.093 11.313 33.1927 11.3337 33.2923 11.3337C33.4735 11.3337 33.652 11.2639 33.7875 11.1317C33.9965 10.927 34.0588 10.6151 33.944 10.3467ZM22.7909 11.3337L21.5031 14.1671H12.596L11.8877 11.3337H22.7909ZM8.04439 11.3337H10.4268L11.135 14.1671H7.19698C7.33737 13.1879 7.61228 12.2382 8.04439 11.3337ZM26.9174 15.5837C26.9174 21.0518 22.4682 25.5002 17.0008 25.5002C11.5335 25.5002 7.08429 21.0517 7.08429 15.5837H26.9174ZM25.9573 11.3337C26.3894 12.2382 26.6643 13.1879 26.8046 14.1671H23.059L24.347 11.3337H25.9573ZM19.8494 3.73727L28.6287 1.54244L31.9213 9.22404L19.8494 3.73727Z" fill="#787882"/>
</g>
<defs>
<clipPath id="clip0">
<rect width="34" height="34" fill="white"/>
</clipPath>
</defs>
</svg>
