<svg width="25" height="35" viewBox="0 0 25 35" fill="none" xmlns="http://www.w3.org/2000/svg">
<g clip-path="url(#clip0)">
<path d="M13.1441 23.4644C12.7698 23.4644 12.4659 23.7682 12.4659 24.1425C12.4659 24.5169 12.7698 24.8207 13.1441 24.8207C13.5184 24.8207 13.8223 24.5169 13.8223 24.1425C13.8223 23.7682 13.5184 23.4644 13.1441 23.4644Z" fill="#787882"/>
<path d="M10.8469 22.8702C9.33572 22.0307 8.39694 20.4393 8.39694 18.7172C8.39694 18.3427 8.09333 18.0391 7.71878 18.0391C7.34423 18.0391 7.04062 18.3427 7.04062 18.7172C7.04062 20.9316 8.24673 22.9773 10.1882 24.0558C10.2925 24.1138 10.4055 24.1413 10.5169 24.1413C10.7552 24.1413 10.9864 24.0154 11.1104 23.7923C11.2923 23.4649 11.1743 23.052 10.8469 22.8702Z" fill="#787882"/>
<path d="M24.0295 0H17.2479C16.9162 0 16.6332 0.239934 16.5789 0.567147L15.5477 6.78162H15.1883C15.0479 5.05136 14.3124 3.44411 13.0812 2.20382C11.683 0.794806 9.80925 0.0127494 7.80345 0.000745978C7.79965 0.000610346 7.79585 0.000678162 7.79205 0.000610346C7.79049 0.000610346 7.789 0.000406897 7.78744 0.000406897C7.78656 0.000406897 7.78575 0.000542529 7.78493 0.000542529C7.77463 0.000271265 7.76432 0 7.7536 0C5.75296 0 3.8718 0.796094 2.45702 2.24132C1.08273 3.64349 0.314914 5.49209 0.294569 7.44717C0.294502 7.44886 0.294569 7.45049 0.294502 7.45218C0.294502 7.45476 0.294094 7.4572 0.294094 7.45978C0.294094 7.46154 0.294366 7.46324 0.294366 7.46493C0.294095 7.48589 0.293823 7.50691 0.293823 7.5276C0.293823 9.5201 1.06978 11.3934 2.47879 12.8024C2.47879 12.8024 2.47886 12.8024 2.47886 12.8025C3.17689 13.5006 4.01347 14.0561 4.9218 14.4297C4.81757 14.7969 4.72771 15.1571 4.65244 15.518C4.44282 16.5205 4.33723 17.5265 4.32963 18.5872C4.32889 18.6303 4.32889 18.6742 4.32889 18.7173C4.32889 21.0727 5.24603 23.2865 6.91112 24.9509C8.08522 26.1255 9.5329 26.9273 11.1105 27.2982V33.3656H6.36337C5.98882 33.3656 5.68521 33.6692 5.68521 34.0437C5.68521 34.4182 5.98882 34.7219 6.36337 34.7219H19.9266C20.3012 34.7219 20.6048 34.4182 20.6048 34.0437C20.6048 33.6692 20.3012 33.3656 19.9266 33.3656H15.1795V27.296C19.0631 26.3751 21.9611 22.8785 21.9611 18.7173V18.6657C21.9584 17.7486 21.8718 16.7193 21.7181 15.7446C21.7212 15.7186 21.7231 15.6923 21.7231 15.6655C21.7231 15.561 21.6988 15.4624 21.6566 15.374C21.5349 14.688 21.3834 14.0569 21.2049 13.4971L19.2165 7.25396C19.1269 6.97266 18.8656 6.78162 18.5704 6.78162H16.9226L17.8228 1.35632H24.0295C24.404 1.35632 24.7076 1.05271 24.7076 0.678162C24.7076 0.303613 24.404 0 24.0295 0ZM13.8264 6.78162H9.48386L12.5713 3.67225C13.279 4.56789 13.7126 5.63939 13.8264 6.78162ZM8.46567 1.39769C9.62933 1.52837 10.715 1.97983 11.6171 2.70824L8.46567 5.88197V1.39769ZM8.22391 8.13794H15.3226L14.1861 14.9874H6.17437C6.23547 14.7611 6.30213 14.5325 6.3768 14.298C6.37809 14.2941 6.37924 14.2901 6.38046 14.2862L8.22391 8.13794ZM7.10935 1.39125V5.92422L3.92172 2.73659C4.83947 1.98016 5.93857 1.51603 7.10935 1.39125ZM2.97385 3.70697L6.0485 6.78162H1.69653C1.83183 5.65817 2.27148 4.59977 2.97385 3.70697ZM1.68019 8.13794H6.20997C6.16623 8.165 6.12459 8.19694 6.08661 8.23492L2.98545 11.3366C2.24734 10.4163 1.79615 9.31333 1.68019 8.13794ZM3.94444 12.2958L6.25378 9.98593L5.31317 13.1228C4.82449 12.909 4.363 12.6301 3.94444 12.2958ZM13.8232 33.3656H12.4668V27.5334H13.8232V33.3656ZM20.6048 18.6678V18.7173H20.6048C20.6048 22.8306 17.2583 26.177 13.145 26.177C11.152 26.177 9.27879 25.4011 7.87018 23.9918C6.46116 22.5835 5.68521 20.7102 5.68521 18.7173C5.68521 18.6817 5.68521 18.6455 5.68589 18.6035C5.69152 17.8223 5.75533 17.0782 5.87808 16.3437H14.7595C14.7603 16.3437 14.7611 16.3438 14.7619 16.3438C14.7627 16.3438 14.7634 16.3437 14.7642 16.3437H20.4354C20.5427 17.132 20.6027 17.9398 20.6048 18.6678ZM18.0745 8.13794L19.9126 13.909C20.0165 14.2347 20.1126 14.5996 20.1977 14.9874H15.5611L16.6976 8.13794H18.0745Z" fill="#787882"/>
</g>
<defs>
<clipPath id="clip0">
<rect width="25" height="34.7222" fill="white"/>
</clipPath>
</defs>
</svg>
