<svg width="34" height="34" viewBox="0 0 34 34" fill="none" xmlns="http://www.w3.org/2000/svg">
<path d="M26.3099 0C23.0492 0.00538839 20.3 2.43191 19.8896 5.66669H2.02415C1.57706 5.66631 1.21429 6.0284 1.21399 6.47548C1.21384 6.67531 1.28761 6.86823 1.4211 7.0169L13.3575 20.3303V32.3809H8.50039V34H19.8337V32.381H14.9766V20.3296L22.6306 11.7931C23.7089 12.5483 24.9935 12.953 26.3099 12.9524C29.8865 12.9524 32.786 10.0529 32.786 6.47624C32.786 2.89956 29.8865 0 26.3099 0ZM14.167 18.8069L7.43174 11.2953H20.9006L14.167 18.8069ZM22.2623 9.77174V9.67619H5.98029L3.83745 7.28571H20.6432H24.4949L22.2623 9.77174ZM26.3099 11.3333C25.3922 11.3347 24.4934 11.0735 23.7194 10.5805L26.9138 7.01857C27.2134 6.68669 27.1872 6.17479 26.8552 5.87525C26.7057 5.74031 26.5113 5.66593 26.3099 5.66669H21.5199C21.967 3.02167 24.4736 1.23994 27.1187 1.68702C29.7637 2.13411 31.5454 4.6407 31.0983 7.28571C30.7034 9.62246 28.6798 11.333 26.3099 11.3333Z" fill="#787882"/>
</svg>
