<svg width="32" height="32" viewBox="0 0 32 32" fill="none" xmlns="http://www.w3.org/2000/svg">
<g clip-path="url(#clip0)">
<path d="M1.7774 9.72836H19.6888V6.17349H1.7774C0.795813 6.17349 0 6.96931 0 7.95089C0 8.93248 0.795813 9.72836 1.7774 9.72836Z" fill="#787882"/>
<path d="M1.7774 16.8614H19.6888V13.3065H1.7774C0.795813 13.3065 0 14.1024 0 15.084C0 16.0657 0.795813 16.8614 1.7774 16.8614Z" fill="#787882"/>
<path d="M1.7774 20.4395V20.4396C0.795813 20.4396 0 21.2353 0 22.217C0 23.1986 0.795813 23.9944 1.7774 23.9944H14.2209C14.0804 23.5615 14.0062 23.1049 14.0062 22.6365C14.0062 21.8522 14.2118 21.0998 14.596 20.4395H1.7774Z" fill="#787882"/>
<path d="M31.3417 21.0472C30.4639 20.1693 29.0407 20.1693 28.1629 21.0472L26.3173 22.8927V3.68109C26.3173 2.43966 25.311 1.43338 24.0695 1.43338C22.8281 1.43338 21.8218 2.43973 21.8218 3.68109V22.8927L19.9762 21.0472C19.0984 20.1694 17.6752 20.1693 16.7974 21.0472C15.9196 21.925 15.9196 23.3481 16.7974 24.226L22.4798 29.9083C23.3559 30.7846 24.7808 30.7876 25.6593 29.9083L31.3417 24.226C32.2194 23.3481 32.2195 21.925 31.3417 21.0472Z" fill="#787882"/>
</g>
<defs>
<clipPath id="clip0">
<rect width="32" height="32" fill="white"/>
</clipPath>
</defs>
</svg>
