<svg width="30" height="30" viewBox="0 0 30 30" fill="none" xmlns="http://www.w3.org/2000/svg">
<g clip-path="url(#clip0)">
<path d="M12.1875 30C12.0362 30 11.8838 29.9639 11.7451 29.8888C11.44 29.7263 11.25 29.4074 11.25 29.0625V20.2339C11.25 19.7688 11.0449 19.3314 10.6874 19.0338L1.23756 11.1637C0.449982 10.5087 0 9.54622 0 8.52243V4.37509C0 3.85759 0.419998 3.43759 0.9375 3.43759C1.455 3.43759 1.875 3.85759 1.875 4.37509V8.52243C1.875 8.98752 2.08008 9.42491 2.43759 9.72246L11.8874 17.5926C12.675 18.2476 13.125 19.2101 13.125 20.2339V27.3113L16.7363 24.9037C16.8226 24.8463 16.875 24.7488 16.875 24.6437V20.2339C16.875 19.2101 17.325 18.2476 18.1112 17.5926L27.5638 9.72246C27.9199 9.42491 28.125 8.98752 28.125 8.52243V4.37509C28.125 3.85759 28.545 3.43759 29.0625 3.43759C29.58 3.43759 30 3.85759 30 4.37509V8.52243C30 9.54622 29.55 10.5087 28.7638 11.1637L19.3112 19.0338C18.9551 19.3314 18.75 19.7688 18.75 20.2339V24.6437C18.75 25.3764 18.3863 26.0575 17.7763 26.4638L12.7075 29.8425C12.5512 29.9476 12.3699 30 12.1875 30Z" fill="#787882"/>
<path d="M15 8.74992C9.42879 8.74992 0 7.82867 0 4.37508C0 0.921249 9.42879 0 15 0C20.5712 0 30 0.921249 30 4.37508C30 7.82867 20.5712 8.74992 15 8.74992ZM15 1.875C6.83258 1.875 2.11258 3.51242 1.87386 4.38995C2.11258 5.2375 6.83258 6.87492 15 6.87492C23.1226 6.87492 27.835 5.25627 28.1225 4.37508C27.835 3.49365 23.1226 1.875 15 1.875ZM28.1261 4.38995H28.1387H28.1261Z" fill="#787882"/>
</g>
<defs>
<clipPath id="clip0">
<rect width="30" height="30" fill="white"/>
</clipPath>
</defs>
</svg>
