<svg width="30" height="30" viewBox="0 0 30 30" fill="none" xmlns="http://www.w3.org/2000/svg">
<path d="M5.52085 29.8498C5.64362 29.9504 5.77202 30 5.90605 30C6.05095 30 6.17935 29.9504 6.29085 29.8498L11.6315 24.5096C11.743 24.3755 11.7989 24.2415 11.7989 24.1075C11.7989 23.9517 11.7486 23.823 11.6483 23.7224C11.5477 23.6225 11.4193 23.5718 11.2632 23.5718H10.1593V0.535325C10.1593 0.37951 10.1091 0.250765 10.0088 0.150873C9.90823 0.0502909 9.77983 0 9.62402 0H2.54013C2.38362 0 2.25557 0.0502909 2.15498 0.150873C2.0544 0.250765 2.0044 0.379855 2.0044 0.535325V23.5717H0.548548C0.303013 23.5717 0.135588 23.6836 0.0466158 23.9066C-0.0427008 24.1191 -0.00367507 24.314 0.163751 24.4926L5.52085 29.8498Z" fill="#787882"/>
<path d="M15.0132 23.5256H19.2989C19.455 23.5256 19.5834 23.4754 19.684 23.3748C19.7843 23.2749 19.8345 23.1458 19.8345 22.9903V19.7753C19.8345 19.6191 19.7843 19.4908 19.684 19.3909C19.5834 19.2903 19.455 19.2397 19.2989 19.2397H15.0132C14.8566 19.2397 14.7286 19.2899 14.6284 19.3909C14.5278 19.4908 14.4778 19.6192 14.4778 19.7753V22.9903C14.4778 23.1462 14.5281 23.2749 14.6284 23.3748C14.7286 23.4751 14.8571 23.5256 15.0132 23.5256Z" fill="#787882"/>
<path d="M15.0132 17.4165H22.5132C22.6693 17.4165 22.7977 17.3662 22.8983 17.2656C22.9989 17.1657 23.0489 17.0366 23.0489 16.8804V13.6661C23.0489 13.51 22.9986 13.3816 22.8983 13.2809C22.7977 13.181 22.6693 13.1304 22.5132 13.1304H15.0132C14.8566 13.1304 14.7286 13.1807 14.6284 13.2809C14.5278 13.3815 14.4778 13.5099 14.4778 13.6661V16.8804C14.4778 17.0366 14.5281 17.1657 14.6284 17.2656C14.7286 17.3659 14.8571 17.4165 15.0132 17.4165Z" fill="#787882"/>
<path d="M15.0132 11.3066H25.7274C25.8837 11.3066 26.012 11.257 26.1126 11.1561C26.2129 11.0555 26.2632 10.9271 26.2632 10.7709V7.55663C26.2632 7.40047 26.2129 7.27207 26.1126 7.17143C26.012 7.07154 25.8837 7.0209 25.7274 7.0209H15.0132C14.8566 7.0209 14.7286 7.0712 14.6284 7.17143C14.5278 7.27201 14.4778 7.40041 14.4778 7.55663V10.7709C14.4778 10.927 14.5281 11.0554 14.6284 11.1561C14.7286 11.2567 14.8571 11.3066 15.0132 11.3066Z" fill="#787882"/>
<path d="M15.0132 5.19741H28.9421C29.0983 5.19741 29.2267 5.14712 29.3273 5.04683C29.4279 4.94625 29.4778 4.81785 29.4778 4.66169V1.44743C29.4778 1.29127 29.4275 1.16287 29.3273 1.06229C29.227 0.961711 29.0983 0.912109 28.9421 0.912109H15.0132C14.8566 0.912109 14.7286 0.961711 14.6284 1.06229C14.5278 1.16287 14.4778 1.29127 14.4778 1.44743V4.66174C14.4778 4.8179 14.5281 4.9463 14.6284 5.04688C14.7286 5.14712 14.8571 5.19741 15.0132 5.19741Z" fill="#787882"/>
</svg>
