<svg width="31" height="31" viewBox="0 0 31 31" fill="none" xmlns="http://www.w3.org/2000/svg">
<g clip-path="url(#clip0)">
<path d="M27.7343 5.71755V3.13813C27.7343 3.11458 27.7314 3.09174 27.7254 3.06939C27.5006 1.0752 21.3458 0 15.6113 0C9.87918 0 3.72678 1.07442 3.49801 3.06748C3.4912 3.08961 3.48786 3.11344 3.48786 3.13813V5.71755C3.48786 5.80608 3.5334 5.88873 3.60838 5.93611L12.4155 11.4875V21.0649C12.4155 21.1462 12.4544 21.2235 12.5205 21.2726C12.5655 21.3058 12.6195 21.3229 12.674 21.3229C12.6989 21.3229 12.7248 21.3198 12.7495 21.3117L18.6248 19.5063C18.7326 19.4729 18.8071 19.3731 18.8071 19.2594V11.4875L27.614 5.93576C27.6893 5.8883 27.7343 5.80559 27.7343 5.71755ZM25.027 3.17906C23.999 3.51466 23.0586 3.76053 22.1517 3.93192C21.7155 4.01343 21.2674 4.08287 20.8289 4.14849C19.2268 4.33215 17.3897 4.42756 15.5156 4.42756C9.03786 4.42756 5.64911 3.39216 5.64911 2.83693C5.64911 2.2817 9.03786 1.24658 15.5156 1.24658C21.9931 1.24658 25.3813 2.28163 25.3813 2.83693C25.3812 2.90404 25.2771 3.03875 25.027 3.17906ZM11.6237 24.2419C11.694 24.3343 11.6935 24.4628 11.6222 24.5555L6.7458 30.8986C6.69693 30.9626 6.62095 31 6.5403 31C6.46028 31 6.38395 30.9627 6.33508 30.8986L1.45877 24.5555C1.42259 24.5089 1.40479 24.4533 1.40479 24.3976C1.40479 24.3432 1.42188 24.2885 1.45678 24.2419C1.52729 24.1491 1.65051 24.1141 1.75898 24.1565L4.98776 25.4329V17.9575C4.98776 17.815 5.10382 17.699 5.24647 17.699H7.83441C7.97728 17.699 8.09298 17.815 8.09298 17.9575V25.4333L11.322 24.1575C11.4306 24.1142 11.5537 24.1491 11.6237 24.2419ZM29.5952 24.3009C29.5952 24.3552 29.5782 24.4099 29.5432 24.4569C29.4726 24.5493 29.3495 24.5843 29.2411 24.5416L26.0123 23.2661V30.7414C26.0123 30.8842 25.8959 31 25.7534 31H23.1656C23.0228 31 22.907 30.8842 22.907 30.7414V23.2658L19.6782 24.5414C19.5695 24.5835 19.4461 24.5493 19.3761 24.4566C19.3059 24.3635 19.3065 24.235 19.3777 24.1429L24.2549 17.7995C24.3036 17.7358 24.3794 17.6985 24.46 17.6985C24.54 17.6985 24.6166 17.7358 24.6654 17.7995L29.5421 24.1429C29.5773 24.1892 29.5952 24.2456 29.5952 24.3009Z" fill="#787882"/>
</g>
<defs>
<clipPath id="clip0">
<rect width="31" height="31" fill="white"/>
</clipPath>
</defs>
</svg>
