<svg width="32" height="32" viewBox="0 0 32 32" fill="none" xmlns="http://www.w3.org/2000/svg">
<g clip-path="url(#clip0)">
<path d="M17.7145 26.8542C17.7145 27.8007 16.9472 28.5681 16.0006 28.5681C15.0537 28.5681 14.2864 27.8007 14.2864 26.8542C14.2864 25.9075 15.0537 25.1399 16.0006 25.1399C16.9472 25.1399 17.7145 25.9075 17.7145 26.8542Z" fill="#787882"/>
<path d="M19.0858 22.7472C18.9418 22.639 18.8574 22.4698 18.8574 22.2901V2.85667C18.8574 1.27903 17.5781 -0.00012207 16.0006 -0.00012207C14.4227 -0.00012207 13.1435 1.27903 13.1435 2.85667V5.14227H14.2864V6.2849H13.1435V7.99896H14.2864V9.1417H13.1435V10.8559H14.2864V11.9986H13.1435V13.7127H14.2864V14.8553H13.1435V16.5695H14.2864V17.7121H13.1435V19.4264H14.2864V20.5689H13.1435V22.2912C13.1435 22.471 13.0586 22.6403 12.9147 22.748C11.4059 23.8692 10.6347 25.7289 10.9077 27.5894C11.2493 29.891 13.0862 31.6812 15.396 31.9631C17.7059 32.2399 19.9133 30.9308 20.778 28.7712C21.6428 26.6114 20.9486 24.1408 19.0858 22.7472ZM16.0006 29.7108C14.5326 29.7122 13.3025 28.6013 13.1551 27.141C13.0076 25.6808 13.9908 24.3465 15.4291 24.0544V3.9993H16.5718V24.0544C18.0099 24.3465 18.9932 25.6808 18.8457 27.141C18.6979 28.6013 17.4678 29.7122 16.0006 29.7108Z" fill="#787882"/>
</g>
<defs>
<clipPath id="clip0">
<rect width="32" height="32" fill="white"/>
</clipPath>
</defs>
</svg>
