<svg width="37" height="37" viewBox="0 0 37 37" fill="none" xmlns="http://www.w3.org/2000/svg">
<path d="M27.2432 7.08278V8.38812H22.185V7.08278H27.2432ZM25.122 9.92777H22.185V11.2331H25.122V9.92777ZM22.185 14.0781H27.2432V12.7728H22.185V14.0781ZM25.122 15.6184H22.185V16.9238H25.122V15.6184ZM22.185 19.7688H27.2432V18.4634H22.185V19.7688ZM22.9734 27.2066C22.9734 30.8505 20.009 33.8149 16.3651 33.8149C12.7212 33.8149 9.75677 30.8505 9.75677 27.2066C9.75677 24.8453 10.9969 22.6993 13.0201 21.5121V6.53061C13.0201 4.68616 14.5206 3.18567 16.3651 3.18567C18.2095 3.18567 19.71 4.68616 19.71 6.53061V21.5121C21.7333 22.698 22.9734 24.8446 22.9734 27.2066ZM21.668 27.2066C21.668 25.2029 20.5546 23.3918 18.7617 22.4813L18.4047 22.2998V6.53127C18.4047 5.40606 17.4896 4.49167 16.3651 4.49167C15.2405 4.49167 14.3255 5.40606 14.3255 6.53127V22.2998L13.9685 22.4813C12.1756 23.3924 11.0621 25.2036 11.0621 27.2066C11.0621 30.1306 13.4411 32.5096 16.3651 32.5096C19.2891 32.5096 21.668 30.1306 21.668 27.2066ZM20.5807 27.2066C20.5807 29.5308 18.6899 31.4216 16.3651 31.4216C14.0409 31.4216 12.1501 29.5308 12.1501 27.2066C12.1501 25.3015 13.4372 23.6287 15.2803 23.1385L15.5225 23.0739V8.565H17.2083V23.0732L17.4505 23.1385C19.2943 23.6287 20.5807 25.3021 20.5807 27.2066ZM16.5739 24.3969C16.4734 23.9504 16.0244 23.6567 15.5669 23.7612C13.9691 24.1227 12.8531 25.5201 12.8531 27.1596C12.8531 27.6237 13.2309 28.0016 13.695 28.0016C14.159 28.0016 14.5369 27.6237 14.5369 27.1596C14.5369 26.3262 15.1257 25.5873 15.9382 25.4039C16.3899 25.3002 16.6758 24.8485 16.5739 24.3969Z" fill="#787882"/>
</svg>
