<svg width="31" height="31" viewBox="0 0 31 31" fill="none" xmlns="http://www.w3.org/2000/svg">
<g clip-path="url(#clip0)">
<path d="M15.535 0C13.5377 0.00229048 11.9192 1.62083 11.9169 3.61812V20.9479C10.3808 22.2016 9.61683 24.1708 9.90543 26.1325C10.3442 29.2417 13.2206 31.4064 16.3296 30.9675C19.1392 30.5708 21.2262 28.1635 21.2204 25.3262C21.2256 23.6298 20.4662 22.0217 19.1529 20.9479V3.61812C19.1508 1.62083 17.5323 0.00229048 15.535 0V0ZM20.1868 25.3262C20.1901 27.8951 18.1103 29.9807 15.5413 29.984C12.9722 29.9876 10.8866 27.9076 10.8833 25.3385C10.8814 23.8722 11.5708 22.4908 12.744 21.6111C12.8741 21.5134 12.9507 21.3602 12.9507 21.1975V19.6406H13.9844V18.607H12.9507V17.0564H13.9844V16.0227H12.9507V14.4721H13.9844V13.4384H12.9507V11.8878H13.9844V10.8542H12.9507V9.30351H13.9844V8.26988H12.9507V6.71922H13.9844V5.68559H12.9507V3.61812C12.9507 2.19074 14.1076 1.03384 15.535 1.03384C16.9622 1.03384 18.1193 2.19074 18.1193 3.61812V21.1986C18.1193 21.3612 18.1959 21.5145 18.3261 21.6119C19.4998 22.4852 20.1901 23.8632 20.1868 25.3262Z" fill="#787882"/>
<path d="M16.0518 22.7937V4.65186H15.0182V22.7937C13.6198 23.0792 12.7175 24.4441 13.003 25.8425C13.2885 27.241 14.6534 28.1432 16.0518 27.8577C17.4503 27.5723 18.3525 26.2073 18.067 24.8089C17.8598 23.7938 17.0667 23.0009 16.0518 22.7937ZM15.535 26.8768C14.6786 26.8768 13.9844 26.1826 13.9844 25.3263C13.9844 24.4699 14.6786 23.7757 15.535 23.7757C16.3914 23.7757 17.0857 24.4699 17.0857 25.3263C17.0857 26.1826 16.3914 26.8768 15.535 26.8768Z" fill="#787882"/>
</g>
<defs>
<clipPath id="clip0">
<rect width="31" height="31" fill="white"/>
</clipPath>
</defs>
</svg>
