<svg width="32" height="32" viewBox="0 0 32 32" fill="none" xmlns="http://www.w3.org/2000/svg">
<path d="M14.6667 3.33331C14.6667 1.49544 13.1712 0 11.3333 0C9.49537 0 8 1.49544 8 3.33331V24.0879C7.14906 24.9603 6.66669 26.1269 6.66669 27.3333C6.66669 29.9062 8.76044 32 11.3334 32C13.9062 32 16 29.9062 16 27.3333C16 26.1269 15.5176 24.9603 14.6667 24.0879V3.33331ZM11.3333 30.6667C9.49544 30.6667 8 29.1713 8 27.3334C8 26.3894 8.39519 25.5131 9.11331 24.8666C9.25331 24.7396 9.33337 24.5599 9.33337 24.3711V3.33331C9.33337 2.23044 10.2305 1.33331 11.3334 1.33331C12.4362 1.33331 13.3334 2.23044 13.3334 3.33331V24.3711C13.3334 24.5599 13.4134 24.7396 13.5534 24.8665C14.2716 25.513 14.6667 26.3893 14.6667 27.3333C14.6667 29.1713 13.1712 30.6667 11.3333 30.6667Z" fill="#787882"/>
<path d="M12 25.4562V14.0001C12 13.6316 11.7018 13.3334 11.3333 13.3334C10.9648 13.3334 10.6666 13.6316 10.6666 14.0001V25.4562C9.89231 25.7323 9.33331 26.4654 9.33331 27.3334C9.33331 28.4362 10.2304 29.3334 11.3333 29.3334C12.4362 29.3334 13.3333 28.4362 13.3333 27.3334C13.3333 26.4654 12.7743 25.7323 12 25.4562ZM11.3333 28.0001C10.9655 28.0001 10.6666 27.7013 10.6666 27.3334C10.6666 26.9656 10.9654 26.6667 11.3333 26.6667C11.7011 26.6667 12 26.9655 12 27.3334C12 27.7013 11.7012 28.0001 11.3333 28.0001Z" fill="#787882"/>
<path d="M6 21.3333H2C1.6315 21.3333 1.33331 21.6314 1.33331 21.9999C1.33331 22.3684 1.6315 22.6666 2 22.6666H6C6.3685 22.6666 6.66669 22.3684 6.66669 21.9999C6.66669 21.6314 6.3685 21.3333 6 21.3333Z" fill="#787882"/>
<path d="M6 18.6667H4.66669C4.29819 18.6667 4 18.9649 4 19.3334C4 19.7019 4.29819 20.0001 4.66669 20.0001H6C6.3685 20.0001 6.66669 19.7019 6.66669 19.3334C6.66669 18.9649 6.3685 18.6667 6 18.6667Z" fill="#787882"/>
<path d="M6 15.9999H4.66669C4.29819 15.9999 4 16.2981 4 16.6666C4 17.0351 4.29819 17.3333 4.66669 17.3333H6C6.3685 17.3333 6.66669 17.0351 6.66669 16.6666C6.66669 16.2981 6.3685 15.9999 6 15.9999Z" fill="#787882"/>
<path d="M2 14.6667H6C6.3685 14.6667 6.66669 14.3686 6.66669 14.0001C6.66669 13.6316 6.3685 13.3334 6 13.3334H2C1.6315 13.3334 1.33331 13.6316 1.33331 14.0001C1.33331 14.3686 1.6315 14.6667 2 14.6667Z" fill="#787882"/>
<path d="M2 6.66663H6C6.3685 6.66663 6.66669 6.36844 6.66669 5.99994C6.66669 5.63144 6.3685 5.33325 6 5.33325H2C1.6315 5.33325 1.33331 5.63144 1.33331 5.99994C1.33331 6.36844 1.6315 6.66663 2 6.66663Z" fill="#787882"/>
<path d="M6 10.6666H4.66669C4.29819 10.6666 4 10.9648 4 11.3333C4 11.7018 4.29819 11.9999 4.66669 11.9999H6C6.3685 11.9999 6.66669 11.7017 6.66669 11.3332C6.66669 10.9648 6.3685 10.6666 6 10.6666Z" fill="#787882"/>
<path d="M6 8.00012H4.66669C4.29819 8.00012 4 8.29831 4 8.66681C4 9.03531 4.29819 9.3335 4.66669 9.3335H6C6.3685 9.3335 6.66669 9.03531 6.66669 8.66681C6.66669 8.29831 6.3685 8.00012 6 8.00012Z" fill="#787882"/>
<path d="M20.6667 10.6668H22C23.1029 10.6668 24 11.5639 24 12.6668C24 13.0353 24.2982 13.3335 24.6667 13.3335C25.0352 13.3335 25.3334 13.0353 25.3334 12.6668C25.3334 10.8289 23.8379 9.3335 22.0001 9.3335H20.6667C18.8289 9.3335 17.3334 10.8289 17.3334 12.6668V18.0001C17.3334 19.838 18.8289 21.3334 20.6667 21.3334H22C23.8379 21.3334 25.3333 19.838 25.3333 18.0001C25.3333 17.6316 25.0351 17.3334 24.6666 17.3334C24.2981 17.3334 24 17.6316 24 18.0001C24 19.103 23.1029 20.0001 22 20.0001H20.6667C19.5638 20.0001 18.6667 19.103 18.6667 18.0001V12.6668C18.6667 11.5639 19.5638 10.6668 20.6667 10.6668Z" fill="#787882"/>
<path d="M28.6667 9.33325C27.5638 9.33325 26.6667 10.2304 26.6667 11.3333C26.6667 12.4361 27.5638 13.3333 28.6667 13.3333C29.7696 13.3333 30.6667 12.4361 30.6667 11.3333C30.6667 10.2304 29.7696 9.33325 28.6667 9.33325ZM28.6667 11.9999C28.2989 11.9999 28 11.7011 28 11.3333C28 10.9654 28.2988 10.6666 28.6667 10.6666C29.0346 10.6666 29.3334 10.9654 29.3334 11.3333C29.3333 11.7011 29.0345 11.9999 28.6667 11.9999Z" fill="#787882"/>
</svg>
