<svg width="40" height="29" viewBox="0 0 40 29" fill="none" xmlns="http://www.w3.org/2000/svg">
<path d="M9.2752 22.163C8.17755 22.163 7.28766 23.0529 7.28766 24.1505C7.28766 25.2482 8.17747 26.138 9.2752 26.138C10.3729 26.138 11.2627 25.2482 11.2627 24.1505C11.2615 23.0533 10.3724 22.1641 9.2752 22.163ZM9.2752 24.813C8.90929 24.813 8.61271 24.5164 8.61271 24.1505C8.61271 23.7846 8.90929 23.488 9.2752 23.488C9.64111 23.488 9.93769 23.7846 9.93769 24.1505C9.9373 24.5163 9.64095 24.8126 9.2752 24.813Z" fill="#787882"/>
<path d="M30.4756 22.163C29.3779 22.163 28.488 23.0529 28.488 24.1505C28.488 25.2482 29.3779 26.138 30.4756 26.138C31.5732 26.138 32.4631 25.2482 32.4631 24.1505C32.4619 23.0533 31.5728 22.1641 30.4756 22.163ZM30.4756 24.813C30.1097 24.813 29.8131 24.5164 29.8131 24.1505C29.8131 23.7846 30.1097 23.488 30.4756 23.488C30.8415 23.488 31.1381 23.7846 31.1381 24.1505C31.1378 24.5163 30.8413 24.8126 30.4756 24.813Z" fill="#787882"/>
<path d="M39.2458 12.7326L34.682 7.59295C34.3039 7.16718 33.7614 6.9241 33.192 6.92526H27.1631V2.95019C27.1619 1.853 26.2727 0.963811 25.1755 0.962646H1.98754C0.890355 0.963811 0.00116464 1.853 6.47012e-08 2.95019V20.1755C-7.75735e-05 20.3512 0.0697192 20.5198 0.194018 20.6441C0.318239 20.7683 0.486792 20.8381 0.662565 20.8381H1.32505V22.8257C1.32622 23.9228 2.21541 24.812 3.31259 24.8132H4.69051C5.01706 27.0942 6.9709 28.7883 9.27521 28.7883C11.5795 28.7883 13.5334 27.0942 13.8599 24.8132H25.891C26.2176 27.0942 28.1714 28.7883 30.4757 28.7883C32.78 28.7883 34.7339 27.0942 35.0604 24.8132H37.7632C38.8604 24.812 39.7496 23.9228 39.7508 22.8257V14.0538C39.7503 13.5663 39.5706 13.0961 39.2458 12.7326ZM1.32505 19.513V2.95019C1.32544 2.58443 1.62179 2.28801 1.98754 2.2877H25.1755C25.5413 2.28809 25.8377 2.58443 25.838 2.95019V19.513H1.32505ZM4.69051 23.4881H3.31259C2.94684 23.4877 2.65041 23.1913 2.6501 22.8256V20.838H6.03591C5.30813 21.5494 4.83523 22.4808 4.69051 23.4881ZM9.27521 27.4631C7.44574 27.4631 5.96262 25.98 5.96262 24.1505C5.96262 22.3211 7.44574 20.838 9.27521 20.838C11.1047 20.838 12.5878 22.3212 12.5878 24.1506C12.5856 25.9792 11.1037 27.461 9.27521 27.4631ZM15.9003 23.4881H13.8598C13.7151 22.4808 13.2423 21.5493 12.5145 20.838H15.9003V23.4881ZM21.8629 23.4881H17.2254V20.838H21.8629V23.4881ZM25.891 23.4881H23.188V20.838H27.2363C26.5085 21.5494 26.0357 22.4808 25.891 23.4881ZM30.4756 27.4631C28.6461 27.4631 27.163 25.98 27.163 24.1505C27.163 22.3211 28.646 20.838 30.4756 20.838C32.305 20.838 33.7882 22.3211 33.7882 24.1505C33.786 25.9792 32.3042 27.461 30.4756 27.4631ZM38.4257 22.8256C38.4253 23.1913 38.129 23.4878 37.7632 23.4881H35.0603C34.7299 21.2091 32.7784 19.5171 30.4756 19.513H27.163V8.25032H29.8131V14.8754C29.8142 15.9726 30.7034 16.8618 31.8006 16.863H38.4257V22.8256ZM38.4257 15.5379H31.8006C31.4349 15.5375 31.1384 15.2412 31.1381 14.8754V8.25032H33.192C33.3822 8.24923 33.5637 8.32982 33.6905 8.47158L38.2559 13.6132C38.3646 13.7343 38.425 13.891 38.4258 14.0538V15.5379H38.4257Z" fill="#787882"/>
</svg>
