<svg width="29" height="29" viewBox="0 0 29 29" fill="none" xmlns="http://www.w3.org/2000/svg">
<g clip-path="url(#clip0)">
<path d="M10.4684 20.0497L7.06743 17.95L7.4187 16.9845L7.37856 17.0004C7.08673 17.1167 6.77864 17.1742 6.4724 17.1742C6.03418 17.1742 5.59774 17.0564 5.21217 16.8254C4.55764 16.4326 4.12317 15.7561 4.038 14.9968L3.55095 10.6424C3.54273 10.5688 3.55023 10.4978 3.54862 10.4252L1.52035 16.0006C1.22947 16.8 1.45853 17.5832 1.67394 18.3419C1.71683 18.4929 3.10308 22.343 3.10308 22.343L0.335816 26.0868C-0.226879 26.848 -0.0660745 27.9217 0.695601 28.4848C1.00184 28.7116 1.35877 28.8207 1.71373 28.8207C2.23908 28.8207 2.75776 28.58 3.09361 28.125L6.416 23.6304C6.76238 23.1625 6.84659 22.551 6.64184 22.0065L6.49997 21.6302L7.76431 22.4108L7.35188 26.9508C7.26671 27.8939 7.96138 28.7278 8.90489 28.8134C8.95759 28.8182 9.01018 28.8206 9.06188 28.8206C9.93933 28.8206 10.6867 28.1512 10.768 27.2608L11.2761 21.6639C11.3345 21.0166 11.0225 20.3913 10.4684 20.0497Z" fill="#787882"/>
<path d="M8.41974 10.098L8.54987 11.2606L9.62243 10.8332C9.97549 9.39518 9.21054 7.8925 7.78629 7.37459C6.42696 6.87931 4.94762 7.45303 4.24634 8.6606C4.62709 8.27277 5.13046 8.00083 5.71269 7.9358C7.0619 7.78226 8.26954 8.75351 8.41974 10.098Z" fill="#787882"/>
<path d="M8.43504 6.24199C10.1096 6.24199 11.4665 4.88468 11.4665 3.21059C11.4665 1.5365 10.1097 0.179077 8.43504 0.179077C6.76143 0.179077 5.40448 1.5365 5.40448 3.21059C5.40448 4.88468 6.76137 6.24199 8.43504 6.24199Z" fill="#787882"/>
<path d="M27.7138 17.9368H18.65C17.94 17.9368 17.364 18.5124 17.364 19.2228V22.8361C17.364 23.5466 17.94 24.1222 18.65 24.1222H27.7139C28.4239 24.1222 29 23.5466 29 22.8361V19.2228C29 18.5124 28.4239 17.9368 27.7138 17.9368Z" fill="#787882"/>
<path d="M17.609 16.1607H22.6615C23.3715 16.1607 23.9476 15.5852 23.9476 14.8747V11.6561C23.9476 10.9456 23.3715 10.37 22.6615 10.37H17.609C16.8989 10.37 16.3229 10.9456 16.3229 11.6561V14.8747C16.3229 15.5852 16.8989 16.1607 17.609 16.1607Z" fill="#787882"/>
<path d="M26.5503 25.4696H15.2817V14.2623C15.2817 13.7213 14.8435 13.2825 14.3019 13.2825H13.8527H12.8283C12.9643 12.9445 12.9785 12.5566 12.833 12.1911C12.5326 11.4366 11.6742 11.0725 10.924 11.3696L7.71928 12.6462L7.44555 10.207C7.35562 9.39985 6.62742 8.81613 5.82167 8.90946C5.01497 8.99987 4.43417 9.72664 4.52505 10.5333L5.01217 14.8877C5.06291 15.3437 5.32318 15.7495 5.71643 15.9853C5.94805 16.1241 6.20921 16.1944 6.47239 16.1944C6.65606 16.1944 6.84081 16.16 7.01591 16.0901L10.2094 14.8183C10.3868 15.0685 10.6644 15.2423 10.9947 15.2423H11.7934H13.3219V26.4496C13.3219 26.9907 13.7602 27.4295 14.3018 27.4295H15.498C15.6479 28.1707 16.3026 28.729 17.0884 28.729C17.8741 28.729 18.5287 28.1706 18.6786 27.4295H22.3571C22.5071 28.1707 23.1616 28.729 23.9475 28.729C24.7331 28.729 25.3878 28.1706 25.5377 27.4295H26.5502C27.0918 27.4295 27.5301 26.9907 27.5301 26.4496C27.5302 25.9084 27.0919 25.4696 26.5503 25.4696Z" fill="#787882"/>
</g>
<defs>
<clipPath id="clip0">
<rect width="29" height="29" fill="white"/>
</clipPath>
</defs>
</svg>
