<svg width="31" height="31" viewBox="0 0 31 31" fill="none" xmlns="http://www.w3.org/2000/svg">
<g clip-path="url(#clip0)">
<path d="M30.2229 18.4418C30.2229 18.4418 30.2227 18.4418 30.2227 18.4418C29.7167 18.431 29.2145 18.5308 28.7513 18.7345C28.0532 19.0273 27.2668 19.0273 26.5687 18.7345C25.6268 18.3443 24.5685 18.3443 23.6266 18.7345C22.9297 19.0273 22.1444 19.0273 21.4475 18.7345C21.0578 18.563 20.6395 18.4659 20.2141 18.4481L19.9439 17.7455C19.8675 17.5478 19.6775 17.4174 19.4656 17.4174H18.9534V15.3684C19.2363 15.3684 19.4656 15.1391 19.4656 14.8562C19.4656 14.755 19.4356 14.6561 19.3796 14.572L17.3306 11.4985C17.1551 11.2631 16.822 11.2146 16.5866 11.3901C16.5454 11.4208 16.5089 11.4573 16.4782 11.4985L14.4292 14.572C14.2723 14.8073 14.3359 15.1253 14.5712 15.2823C14.6554 15.3384 14.7542 15.3683 14.8554 15.3683V17.4173H14.1148L11.7042 13.56C11.6105 13.4103 11.4464 13.3194 11.2698 13.3193H10.7575V12.2948H11.4256C11.9541 12.2952 12.4593 12.0771 12.8213 11.6921C13.1719 11.3211 13.3507 10.82 13.3143 10.3109C13.3073 10.2079 12.5789 0.000976562 10.2453 0.000976562C7.91168 0.000976562 7.18333 10.2078 7.17629 10.3109C7.13986 10.82 7.31869 11.3211 7.66926 11.6921C8.03129 12.0771 8.53643 12.2952 9.06494 12.2948H9.73303V13.3193H3.5861V12.2948H4.25419C4.7827 12.2952 5.28784 12.0771 5.64987 11.6921C6.00043 11.3211 6.17927 10.82 6.14284 10.3109C6.13566 10.2079 5.40732 0.00104059 3.07372 0.00104059C0.740129 0.00104059 0.0117816 10.2079 0.00473826 10.311C-0.0316951 10.8201 0.147142 11.3211 0.49771 11.6921C0.859738 12.0771 1.36488 12.2953 1.89338 12.2949H2.56148V13.3194H0.512245C0.229357 13.3195 6.40306e-05 13.5488 0 13.8316L0.000256122 30.2235C0.000192092 30.5063 0.229422 30.7356 0.512245 30.7357C0.512309 30.7357 0.512437 30.7357 0.512501 30.7357H30.2227C30.5055 30.7358 30.7349 30.5065 30.7349 30.2237C30.7349 30.2237 30.7349 30.2235 30.7349 30.2235V18.9541C30.735 18.6713 30.5058 18.4419 30.2229 18.4418ZM16.9043 12.7061L17.9961 14.3439H15.8125L16.9043 12.7061ZM17.9288 15.3684V17.4174H15.8798V15.3684H17.9288ZM9.06481 11.2704C8.81983 11.2727 8.58515 11.1719 8.41797 10.9928C8.26218 10.8287 8.1824 10.6067 8.19809 10.381C8.50877 5.86131 9.58653 1.47374 10.2451 1.03949C10.9036 1.47368 11.9814 5.86131 12.2921 10.381C12.3078 10.6067 12.228 10.8287 12.0722 10.9928C11.905 11.1719 11.6704 11.2727 11.4254 11.2704H9.06481ZM1.89338 11.2704C1.6484 11.2727 1.41373 11.1719 1.24655 10.9928C1.09076 10.8287 1.01098 10.6067 1.02667 10.381C1.33741 5.86131 2.41517 1.47374 3.07372 1.03955C3.73228 1.47374 4.81004 5.86137 5.12072 10.381C5.13647 10.6067 5.05669 10.8287 4.90084 10.9928C4.73372 11.1719 4.49904 11.2727 4.254 11.2705H1.89338V11.2704ZM29.7104 29.7112H1.02475L1.02449 14.3439H10.9857L13.3963 18.2012C13.4901 18.3509 13.6542 18.4418 13.8308 18.4418H19.1136L21.5485 24.7729C21.6248 24.9705 21.8148 25.101 22.0267 25.101H29.7104V29.7112H29.7104ZM29.7104 24.0765H22.3787L20.6329 19.5372C20.7809 19.5763 20.9259 19.626 21.0668 19.6859C22.0081 20.0761 23.0659 20.0761 24.0072 19.6859C24.7048 19.3931 25.4909 19.3931 26.1885 19.6859C27.1306 20.0761 28.1893 20.0761 29.1314 19.6859C29.3172 19.6046 29.5113 19.5441 29.7104 19.5058V24.0765Z" fill="#787882"/>
<path d="M26.637 2.04907C25.5059 2.05029 24.5892 2.96695 24.588 4.09805C24.588 5.22966 25.5054 6.14703 26.637 6.14703C27.7686 6.14703 28.686 5.22966 28.686 4.09805C28.686 2.96644 27.7686 2.04907 26.637 2.04907ZM26.637 5.12254C26.0712 5.12254 25.6125 4.66389 25.6125 4.09805C25.6131 3.53253 26.0715 3.0742 26.637 3.07356C27.2028 3.07356 27.6615 3.53221 27.6615 4.09805C27.6615 4.66389 27.2028 5.12254 26.637 5.12254Z" fill="#787882"/>
<path d="M27.1492 0.00012207H26.1248V1.02461H27.1492V0.00012207Z" fill="#787882"/>
<path d="M30.7349 3.58594H29.7104V4.61043H30.7349V3.58594Z" fill="#787882"/>
<path d="M27.1492 7.17163H26.1248V8.19612H27.1492V7.17163Z" fill="#787882"/>
<path d="M23.5635 3.58594H22.539V4.61043H23.5635V3.58594Z" fill="#787882"/>
<path d="M29.1729 0.837777L28.4487 1.5625L29.1735 2.28671L29.8977 1.56199L29.1729 0.837777Z" fill="#787882"/>
<path d="M29.1736 5.90616L28.4489 6.63037L29.1731 7.35509L29.8978 6.63088L29.1736 5.90616Z" fill="#787882"/>
<path d="M24.1021 5.90907L23.3779 6.63379L24.1027 7.358L24.8269 6.63328L24.1021 5.90907Z" fill="#787882"/>
<path d="M24.1028 0.837556L23.3781 1.56177L24.1023 2.28649L24.827 1.56228L24.1028 0.837556Z" fill="#787882"/>
</g>
<defs>
<clipPath id="clip0">
<rect width="30.7349" height="30.7357" fill="white"/>
</clipPath>
</defs>
</svg>
