<svg width="33" height="32" viewBox="0 0 33 32" fill="none" xmlns="http://www.w3.org/2000/svg">
<path d="M31.9946 30.9155H31.2247L25.4244 20.7655C24.9875 20.0001 24.1733 19.5276 23.2915 19.5276H22.2351C21.5872 19.5276 20.9445 19.4037 20.3415 19.1628L19.7343 18.9199C19.104 18.6676 18.4394 18.5139 17.7636 18.4625C17.9445 18.1355 18.1235 17.7794 18.2954 17.3956C18.7209 16.9865 19.2253 16.7432 20.1775 16.4432C20.302 16.404 20.316 16.3995 20.5801 16.3192C23.3664 17.5711 25.2729 17.1406 26.4016 15.5928C26.5861 15.3397 26.7354 15.075 26.8654 14.7905C26.9342 14.6402 27.0604 14.327 27.0586 14.3309C27.1832 14.0585 27.0634 13.7368 26.7911 13.6122C26.9152 13.6691 26.2808 13.3399 25.9458 13.1992C24.9209 12.7687 23.8961 12.6028 22.9016 12.8621C21.7949 13.1506 20.8757 13.9484 20.2072 15.299C20.1876 15.305 20.1693 15.3106 20.1516 15.316C20.0366 15.3511 19.9414 15.3805 19.8516 15.4088C19.5007 15.5194 19.1974 15.6261 18.9277 15.7379C19.4301 14.1528 19.6496 12.5266 19.516 10.8945C22.8075 11.5077 24.9895 10.5331 26.2164 8.49494C26.505 8.01541 26.7193 7.50861 26.8791 6.98084C26.9371 6.78937 26.9846 6.60628 27.0277 6.41678C27.0485 6.32578 27.0935 6.11327 27.0978 6.0951C27.1662 5.80354 26.9854 5.51172 26.6939 5.44322C26.5611 5.41202 26.4189 5.38234 26.2364 5.35076C25.9691 5.30456 25.6822 5.26713 25.3788 5.24247C24.5516 5.17523 23.718 5.21031 22.9125 5.38361C21.1951 5.75308 19.833 6.695 18.994 8.29877C18.7289 7.48351 18.3647 6.67155 17.8937 5.86696C17.8608 3.02253 16.4905 1.28086 14.2633 0.481354C13.1564 0.0840484 12.1073 -0.0204888 10.9889 0.00315119C10.8907 0.00537538 10.863 0.00601087 10.8456 0.00601087C10.5461 0.00601087 10.3033 0.248766 10.3033 0.54827C10.3033 0.573117 10.3027 0.60235 10.3004 0.696719C10.2771 1.6999 10.3853 2.53753 10.8204 3.45167C11.7233 5.34872 13.7171 6.479 17.0156 6.5135C17.7065 7.7194 18.1341 8.94334 18.3336 10.1693C18.3334 10.1729 18.3333 10.1765 18.3332 10.1802C18.3329 10.1872 18.3331 10.1941 18.3331 10.201C18.3331 10.2117 18.3331 10.2223 18.3337 10.2331C18.3341 10.24 18.3349 10.247 18.3356 10.254C18.3367 10.2646 18.3377 10.2751 18.3394 10.2857C18.3405 10.2923 18.3419 10.2989 18.3432 10.3054C18.3453 10.3162 18.3474 10.3269 18.3502 10.3375C18.3518 10.3438 18.3539 10.3499 18.3558 10.3562C18.3589 10.3666 18.3619 10.377 18.3658 10.3874C18.4319 10.8572 18.4656 11.3272 18.4676 11.7965C17.8842 10.9892 17.0873 10.4764 16.1285 10.2352C15.2453 10.013 14.3287 10.0394 13.4285 10.2151C13.2129 10.2572 13.0377 10.3 12.8802 10.3419C12.5924 10.4121 12.4142 10.7001 12.4799 10.989C12.4828 11.0017 12.5156 11.1607 12.5307 11.2291C12.5622 11.3715 12.5968 11.5084 12.6392 11.6514C12.756 12.0458 12.9136 12.4243 13.1273 12.7834C14.0365 14.3107 15.6684 15.05 18.1131 14.633C17.9364 15.3398 17.6977 16.0407 17.4024 16.732C17.1731 17.2686 16.9277 17.751 16.683 18.1706C16.6214 18.2763 16.5665 18.3668 16.5187 18.4433H16.0272C15.3134 18.4433 14.6521 18.8176 14.2851 19.4295L13.25 21.1546H11.5848C10.946 21.1546 10.3461 21.4632 9.97489 21.9832L8.45551 24.1099C8.07898 24.6375 7.47076 24.9506 6.8225 24.9506C5.76499 24.9506 4.78113 25.4906 4.21415 26.3825L1.32918 30.9155H0.542259C0.242755 30.9155 0 31.1582 0 31.4577C0 31.7572 0.242755 32 0.542259 32H1.62684H30.91H31.9946C32.2941 32 32.5368 31.7572 32.5368 31.4577C32.5368 31.1582 32.2941 30.9155 31.9946 30.9155ZM23.1752 13.9114C23.8995 13.7226 24.7003 13.8523 25.5258 14.199C25.6448 14.249 25.7582 14.3009 25.8713 14.3564C25.7715 14.5724 25.6595 14.7697 25.5253 14.9537C24.8344 15.9011 23.7563 16.267 22.0279 15.7191C22.3958 15.597 22.7684 15.5035 23.1567 15.4389C23.4521 15.3898 23.6519 15.1105 23.6027 14.8151C23.5536 14.5197 23.2743 14.3199 22.9789 14.369C22.6456 14.4245 22.3227 14.4986 22.0054 14.5904C22.3594 14.2431 22.7504 14.0222 23.1752 13.9114ZM23.1407 6.44385C23.833 6.2949 24.5626 6.2642 25.291 6.32336C25.5223 6.34218 25.7294 6.36715 25.9168 6.39626C25.8937 6.48592 25.8687 6.57521 25.8411 6.6664C25.7057 7.11346 25.5258 7.53911 25.2872 7.93546C24.3674 9.46349 22.807 10.2468 20.315 9.92504C20.6694 9.69372 21.0794 9.42694 21.2491 9.32158C22.0903 8.79921 22.7474 8.48948 23.4587 8.31288C23.7493 8.24069 23.9264 7.94658 23.8543 7.65591C23.7821 7.36524 23.488 7.18813 23.1974 7.26026C22.3586 7.46851 21.606 7.82324 20.677 8.40019C20.5286 8.49227 20.2138 8.69633 19.9063 8.8967C20.5887 7.52659 21.6994 6.75397 23.1407 6.44385ZM11.7997 2.98554C11.5047 2.36576 11.3965 1.77272 11.3834 1.08519C12.2429 1.09358 13.0615 1.20225 13.8969 1.50213C15.3002 2.00588 16.2562 2.92822 16.632 4.41246C15.9558 3.78429 15.214 3.24832 14.3583 2.78321C14.0951 2.64022 13.7659 2.73758 13.6229 3.00073C13.4799 3.26389 13.5773 3.59313 13.8404 3.73612C14.6927 4.19932 15.4183 4.73853 16.0808 5.38494C13.7682 5.18388 12.4324 4.31485 11.7997 2.98554ZM14.0591 12.2284C13.8953 11.9531 13.7718 11.6564 13.679 11.3432C13.6722 11.3203 13.6657 11.2976 13.6594 11.2749C14.409 11.1312 15.1665 11.1113 15.8638 11.2868C16.6349 11.4808 17.2554 11.8978 17.6993 12.5949C17.6401 12.5597 17.5824 12.5259 17.5248 12.4928C17.3606 12.3984 17.2039 12.3135 17.0491 12.2356C16.7816 12.1009 16.4556 12.2087 16.3209 12.4762C16.1862 12.7437 16.294 13.0697 16.5615 13.2044C16.6976 13.2729 16.8367 13.3483 16.9843 13.4331C17.0964 13.4975 17.2104 13.5656 17.3384 13.6443C15.6897 13.7939 14.6659 13.2476 14.0591 12.2284ZM2.61477 30.9155L5.12925 26.9644C5.49726 26.3854 6.13586 26.035 6.82244 26.035C6.87556 26.035 6.92844 26.0329 6.98125 26.0302C7.00374 26.0331 7.02643 26.035 7.04969 26.035C7.94915 26.035 8.67653 26.7623 8.67653 27.6618C8.67653 27.9613 8.91928 28.2041 9.21879 28.2041C9.51829 28.2041 9.76105 27.9613 9.76105 27.6618C9.76105 26.7507 9.31214 25.9457 8.62378 25.4543C8.8959 25.259 9.13846 25.0196 9.33807 24.7399L10.8574 22.6133C11.0251 22.3784 11.2961 22.239 11.5848 22.239H13.5571C14.4565 22.239 15.1839 22.9663 15.1839 23.8658C15.1839 24.1653 15.4266 24.4081 15.7262 24.4081C16.0257 24.4081 16.2684 24.1653 16.2684 23.8658C16.2684 22.6724 15.4987 21.6609 14.4285 21.2981L15.215 19.9871C15.386 19.702 15.6942 19.5275 16.0271 19.5275H17.2575C17.9686 19.5275 18.6723 19.663 19.3314 19.9269L19.9389 20.1699C20.67 20.4619 21.4493 20.6121 22.2351 20.6121H23.2915C23.7418 20.6121 24.1601 20.8333 24.415 21.1979C22.8693 21.4507 21.6912 22.7902 21.6912 24.4081C21.6912 24.7076 21.9339 24.9503 22.2334 24.9503C22.533 24.9503 22.7757 24.7076 22.7757 24.4081C22.7757 23.2087 23.7455 22.239 24.9448 22.239C24.9685 22.239 24.9915 22.2369 25.0143 22.234L29.9754 30.9154H2.61477V30.9155Z" fill="#787882"/>
</svg>
