<svg width="33" height="33" viewBox="0 0 33 33" fill="none" xmlns="http://www.w3.org/2000/svg">
<g clip-path="url(#clip0)">
<path d="M32.8112 23.6688C32.6913 23.5485 32.5249 23.48 32.3555 23.48C32.186 23.48 32.0196 23.5485 31.8998 23.6688C31.7799 23.7889 31.7109 23.9551 31.7109 24.1245C31.7109 24.2942 31.7799 24.4599 31.8998 24.5802C32.0196 24.7001 32.186 24.769 32.3555 24.769C32.5249 24.769 32.6913 24.7001 32.8112 24.5802C32.931 24.4599 33 24.2942 33 24.1245C33 23.9551 32.931 23.7889 32.8112 23.6688Z" fill="#787882"/>
<path d="M29.4551 23.4792H23.3023C22.2129 23.4792 21.1532 23.2604 20.1529 22.8283C19.1927 22.4139 18.1738 22.1712 17.1445 22.099V21.3444C17.6158 20.822 18.1375 20.3514 18.7002 19.9383H22.1039C24.9565 19.9383 27.2775 17.6172 27.2775 14.7646C27.2775 14.4086 26.9887 14.1201 26.633 14.1201H23.0402C20.3063 14.1201 18.0625 16.2521 17.88 18.9405C17.6269 19.1288 17.3822 19.3287 17.1445 19.5372V14.3686C17.5793 13.8882 18.0595 13.4547 18.5774 13.0733H21.7481C24.4396 13.0733 26.6295 10.8834 26.6295 8.19193C26.6295 7.83593 26.3407 7.5474 25.9849 7.5474H22.6238C20.051 7.5474 17.9381 9.54872 17.7566 12.0762C17.5469 12.2328 17.3429 12.3978 17.1445 12.5692V9.08622C18.5917 8.00688 19.4455 6.39002 19.4455 4.69787C19.4455 2.89595 18.4774 1.17938 16.8558 0.106089C16.64 -0.036665 16.36 -0.036665 16.1442 0.106089C14.5226 1.17913 13.5543 2.89595 13.5543 4.69787C13.5543 6.39002 14.4083 8.00688 15.8555 9.08622V12.5692C15.6571 12.3978 15.4531 12.2328 15.2432 12.0762C15.0619 9.54872 12.949 7.5474 10.3759 7.5474H7.01507C6.65907 7.5474 6.37054 7.83593 6.37054 8.19193C6.37054 10.8836 8.56043 13.0733 11.2519 13.0733H14.4226C14.9403 13.4547 15.4204 13.8882 15.8552 14.3686V19.5372C15.6178 19.3287 15.3731 19.1288 15.12 18.9405C14.9375 16.2521 12.6935 14.1201 9.95977 14.1201H6.36726C6.01126 14.1201 5.72273 14.4086 5.72273 14.7646C5.72273 17.6172 8.04355 19.9383 10.8964 19.9383H14.3C14.8625 20.3514 15.3842 20.822 15.8555 21.3444V22.0979C14.826 22.1684 13.8066 22.4099 12.8453 22.823L12.8211 22.8334C11.8241 23.2619 10.7682 23.4792 9.68307 23.4792H0.644531C0.288528 23.4792 0 23.7677 0 24.1237C0 24.4797 0.288528 24.7682 0.644531 24.7682H9.68307C10.9442 24.7682 12.1713 24.5157 13.3305 24.0174L13.3546 24.0071C14.1538 23.6637 15 23.4583 15.8555 23.39V23.7705L13.1562 25.4923C12.8561 25.6839 12.7683 26.0822 12.9596 26.3826C13.0825 26.5752 13.2907 26.6804 13.5034 26.6804C13.622 26.6804 13.7421 26.6477 13.8496 26.5792L15.8555 25.2995V27.0613C15.4202 27.4899 14.9443 27.8688 14.436 28.1943L12.5988 27.3992C12.2723 27.2582 11.8926 27.408 11.7514 27.7348C11.6099 28.0616 11.7602 28.441 12.0867 28.5823L12.9508 28.9562C12.5298 29.1233 12.0948 29.2593 11.6476 29.3605L11.4593 29.4031C11.1121 29.4819 10.8943 29.8268 10.9729 30.174C11.0406 30.4733 11.3065 30.6765 11.6011 30.6765C11.6481 30.6765 11.696 30.6712 11.7438 30.6604L11.9321 30.6178C12.2471 30.5466 12.5565 30.4592 12.8607 30.359L12.6877 31.0174C12.5971 31.3616 12.8028 31.7141 13.1472 31.8047C13.2021 31.819 13.2572 31.8261 13.3113 31.8261C13.5971 31.8261 13.8582 31.6345 13.9342 31.3452L14.3595 29.7283C14.8849 29.4547 15.3852 29.1344 15.8555 28.7709V32.3546C15.8555 32.7106 16.144 32.9991 16.5 32.9991C16.856 32.9991 17.1445 32.7106 17.1445 32.3546V27.5221C17.738 28.0465 18.3596 28.5342 19.0076 28.9836L19.7108 30.9819C19.8042 31.247 20.053 31.4127 20.3188 31.4127C20.3898 31.4127 20.4621 31.4009 20.5329 31.3759C20.8685 31.2578 21.045 30.8898 20.9269 30.5539L20.7562 30.069C21.2449 30.3386 21.7454 30.5896 22.2577 30.8195C22.3433 30.858 22.433 30.8764 22.5213 30.8764C22.7673 30.8764 23.0025 30.7347 23.1097 30.4955C23.2555 30.1707 23.1102 29.7893 22.7854 29.6435C21.7836 29.1938 20.8289 28.6616 19.9271 28.0516C19.911 28.0397 19.8941 28.0286 19.877 28.0183C19.7929 27.9612 19.7101 27.9025 19.627 27.8441H21.3018C21.6578 27.8441 21.9463 27.5553 21.9463 27.1996C21.9463 26.8436 21.6578 26.555 21.3018 26.555H18.0267C18.0172 26.555 18.0079 26.556 17.9983 26.5563C17.7576 26.3435 17.5209 26.1248 17.2903 25.8992L17.1445 25.7567V24.5245L17.6768 25.1761C17.8042 25.3319 17.9895 25.4128 18.1763 25.4128C18.3195 25.4128 18.4638 25.3652 18.5836 25.2675C18.8593 25.0421 18.9001 24.6363 18.675 24.3606L17.9746 23.5031C18.5441 23.6106 19.1038 23.7798 19.6423 24.0122C20.8048 24.5139 22.0364 24.7682 23.3026 24.7682H29.4553C29.8111 24.7682 30.0999 24.4797 30.0999 24.1237C30.0999 23.7679 29.8111 23.4792 29.4551 23.4792ZM23.0402 15.4092H25.9348C25.6269 17.2453 24.0262 18.6492 22.1039 18.6492H21.0341C21.2617 18.5593 21.4929 18.477 21.7272 18.4035C22.0669 18.2967 22.2557 17.9352 22.1492 17.5955C22.0425 17.2559 21.6809 17.0671 21.3413 17.1736C20.6608 17.3873 20.0046 17.6635 19.3792 17.9951C19.9145 16.4898 21.3534 15.4092 23.0402 15.4092ZM22.6238 8.83647H25.2825C24.9779 10.5107 23.5088 11.7842 21.7481 11.7842H20.9727C21.1195 11.7301 21.2673 11.6782 21.4168 11.6314C21.7565 11.5246 21.9453 11.1628 21.8388 10.8234C21.7323 10.4835 21.3707 10.295 21.0309 10.4015C20.4241 10.5918 19.838 10.8348 19.2773 11.1248C19.8002 9.7869 21.1029 8.83647 22.6238 8.83647ZM11.2519 11.7842C9.49123 11.7842 8.02215 10.5107 7.71751 8.83647H10.3762C11.8971 8.83647 13.1998 9.7869 13.7227 11.1248C13.1623 10.8348 12.5759 10.5918 11.9691 10.4015C11.6295 10.295 11.2677 10.4838 11.1612 10.8234C11.0547 11.1631 11.2435 11.5249 11.5832 11.6314C11.7327 11.6784 11.8805 11.7301 12.0273 11.7842H11.2519ZM10.8964 18.6492C8.97384 18.6492 7.37309 17.2453 7.06517 15.4092H9.96002C11.6466 15.4092 13.0855 16.4898 13.621 17.9951C12.9956 17.6638 12.3395 17.3873 11.659 17.1736C11.3191 17.0671 10.9575 17.2559 10.851 17.5955C10.7443 17.9352 10.9331 18.2967 11.2728 18.4035C11.5074 18.477 11.7383 18.5593 11.9661 18.6492H10.8964ZM14.8436 4.69787C14.8436 3.44355 15.4418 2.27635 16.5 1.43871C17.5582 2.27635 18.1564 3.44355 18.1564 4.69787C18.1564 5.66844 17.7969 6.58589 17.1445 7.33994V6.34722C17.1445 5.99121 16.856 5.70268 16.5 5.70268C16.144 5.70268 15.8555 5.99121 15.8555 6.34722V7.33994C15.2031 6.58589 14.8436 5.66844 14.8436 4.69787Z" fill="#787882"/>
</g>
<defs>
<clipPath id="clip0">
<rect width="33" height="33" fill="white"/>
</clipPath>
</defs>
</svg>
