<svg width="31" height="31" viewBox="0 0 31 31" fill="none" xmlns="http://www.w3.org/2000/svg">
<g clip-path="url(#clip0)">
<path d="M8.24602 26.5536C9.1626 27.4702 10.6505 27.4702 11.567 26.5536L22.9363 15.1843C23.2628 14.8579 23.5139 14.4686 23.6771 14.0543C24.8197 14.3745 25.9309 14.544 26.9102 14.5377C29.3335 14.5251 30.1371 13.4642 30.4007 12.8301C30.6644 12.2023 30.8527 10.8839 29.1514 9.15124C29.1326 9.1324 29.1138 9.11357 29.0949 9.09474C28.0402 8.04005 26.5084 7.06698 24.7695 6.34502C24.4493 6.21318 24.1291 6.0939 23.8152 5.9809V5.96206C23.7964 4.56837 22.6726 3.44463 21.2789 3.42579L14.4674 3.33162C13.5634 3.31907 12.6971 3.67063 12.063 4.31098L0.68743 15.6803C-0.229143 16.5968 -0.229143 18.0847 0.68743 19.0013L8.24602 26.5536ZM17.01 7.3997C17.7696 6.64008 19.0001 6.64008 19.7597 7.3997C20.2117 7.85171 20.3938 8.47323 20.3059 9.05707C21.0529 9.58441 21.9444 10.0741 22.8986 10.4696C23.2377 10.6077 23.5641 10.7333 23.878 10.84L23.8403 8.10283C23.8968 8.12794 23.9471 8.14678 24.0036 8.17189C25.4914 8.7934 26.8286 9.63464 27.6887 10.4947C27.7012 10.5073 27.7138 10.5198 27.7264 10.5324C28.5425 11.3673 28.6304 11.901 28.5613 12.0642C28.3479 12.5727 26.0564 13.0247 22.5785 11.5745C21.5615 11.1476 20.6072 10.6203 19.835 10.049C19.8099 10.0804 19.7785 10.1118 19.7534 10.1431C18.9938 10.9028 17.7633 10.9028 17.0037 10.1431C16.2503 9.3898 16.2503 8.15933 17.01 7.3997Z" fill="#787882"/>
</g>
<defs>
<clipPath id="clip0">
<rect width="30.5723" height="30.5723" fill="white"/>
</clipPath>
</defs>
</svg>
