<svg width="35" height="33" viewBox="0 0 35 33" fill="none" xmlns="http://www.w3.org/2000/svg">
<path d="M34.9988 28.8548L33.5405 2.60521C33.5303 2.40834 33.4399 2.22459 33.2911 2.09478C33.1424 1.96497 32.9484 1.89354 32.7516 1.91835L30.0435 2.14434C29.3946 1.13373 28.2673 0.458557 26.9796 0.458557C25.4746 0.458557 24.1796 1.37586 23.624 2.68102L14.3739 3.45245L5.223 1.9271C4.82782 1.85273 4.45445 2.12541 4.38595 2.51915L0.0110195 27.3105C-0.0225444 27.5015 0.0212049 27.6984 0.133518 27.8573C0.24583 28.0163 0.416453 28.1242 0.60895 28.1563L7.15385 29.247L7.29385 31.8516C7.30553 32.0514 7.39741 32.238 7.55053 32.3678C7.68321 32.4801 7.84946 32.5414 8.02159 32.5414C8.04927 32.5414 8.07552 32.5399 8.10177 32.537L19.3745 31.2843L26.8586 32.5312C26.8994 32.5385 26.9403 32.5414 26.9797 32.5414C27.3282 32.5414 27.6359 32.292 27.6957 31.9376L27.9801 30.3291L34.3514 29.6204C34.7363 29.5781 35.0207 29.2412 34.9988 28.8548ZM24.8533 3.60994C24.8577 3.59825 24.8606 3.58663 24.865 3.57494C25.1042 2.62558 25.9573 1.91684 26.9795 1.91684C27.8735 1.91684 28.6434 2.4579 28.9818 3.22932C28.9876 3.24101 28.992 3.25263 28.9979 3.26432C29.1073 3.52245 29.1671 3.80682 29.1671 4.10431C29.1671 4.88448 28.7529 5.56554 28.1375 5.95347C28.1332 5.95641 28.1288 5.95785 28.1258 5.95928C27.7919 6.16634 27.401 6.29178 26.9796 6.29178C25.7736 6.29178 24.7921 5.31036 24.7921 4.10431C24.7921 3.93369 24.8169 3.76895 24.8533 3.60994ZM23.3411 4.1685C23.3455 4.44269 23.3848 4.70805 23.4475 4.96474L20.229 4.42806L23.3411 4.1685ZM8.70838 31.0029L8.6267 29.4921L14.0939 30.4035L8.70838 31.0029ZM26.386 30.9723L1.57431 26.838L5.69549 3.48307L23.5875 6.46534L20.6301 9.42279C20.3457 9.70716 20.3457 10.1695 20.6301 10.4538C20.773 10.5953 20.9596 10.6668 21.1463 10.6668C21.333 10.6668 21.5196 10.5953 21.6611 10.4538L24.9729 7.14202C25.549 7.52407 26.2387 7.75013 26.9796 7.75013C27.595 7.75013 28.1652 7.58245 28.6741 7.31264L30.5072 7.61745L26.386 30.9723ZM28.2439 28.8314L32.0705 7.14632C32.1041 6.95526 32.0603 6.75839 31.948 6.59946C31.8357 6.44053 31.6651 6.33259 31.4726 6.30053L30.0449 6.06285C30.408 5.49554 30.6254 4.82618 30.6254 4.10431C30.6254 3.91913 30.5977 3.74263 30.5714 3.56476L32.126 3.43495L33.5041 28.2466L28.2439 28.8314Z" fill="#787882"/>
<g clip-path="url(#clip0)">
<rect x="10.0617" y="7.41821" width="2.21917" height="0.811581" transform="rotate(10 10.0617 7.41821)" fill="#FFFCFC"/>
<path d="M7.69146 16.4303C9.22891 16.2254 10.0452 16.3777 11.4213 17.0879L10.8711 20.2082L7.14127 19.5505L7.69146 16.4303Z" fill="white"/>
<path d="M12.0413 11.604L11.8165 11.422C11.7047 11.3315 11.6519 11.1798 11.6791 11.0255L12.1063 8.6028L9.92081 8.21745L9.49361 10.6402C9.46641 10.7944 9.36485 10.9189 9.2289 10.9657L8.95541 11.0599C8.27407 11.2945 7.76593 11.9185 7.63023 12.6881L7.03985 16.0363L6.39906 19.6704L5.68707 23.7083C5.5693 24.3762 5.96373 25.0061 6.5662 25.1123L9.48013 25.6261C10.0826 25.7324 10.6687 25.2753 10.7865 24.6075L11.4984 20.5696L12.1392 16.9355L12.7296 13.5872C12.8654 12.8177 12.6013 12.0575 12.0413 11.604ZM10.8412 20.0373L7.19876 19.3951L7.71339 16.4765C8.14566 16.4361 8.99003 16.3802 9.58956 16.4859C10.1942 16.5925 10.9656 16.9334 11.3558 17.1187L10.8412 20.0373Z" fill="#3B3B3D"/>
<path d="M12.1647 6.1408L10.7077 5.88389C10.5067 5.84845 10.3116 6.00058 10.2723 6.22347L10.0587 7.43484L12.2442 7.82019L12.4578 6.60883C12.4971 6.38594 12.3658 6.17625 12.1647 6.1408Z" fill="#3B3B3D"/>
</g>
<defs>
<clipPath id="clip0">
<rect width="5.08929" height="19.6808" fill="white" transform="translate(8.88657 5.56277) rotate(10)"/>
</clipPath>
</defs>
</svg>
