<svg width="33" height="33" viewBox="0 0 33 33" fill="none" xmlns="http://www.w3.org/2000/svg">
<g clip-path="url(#clip0)">
<path d="M31.8723 17.6201L28.864 0.569712C28.798 0.198484 28.4405 -0.0586044 28.0748 0.0115165L19.4554 1.44829L2.12181 0.00326701C1.92518 -0.013232 1.75194 0.0486394 1.61311 0.169611C1.47287 0.292 1.3876 0.46524 1.378 0.650854L0.00310269 25.3994C-0.0175211 25.7637 0.249235 26.0813 0.612213 26.1212L6.61921 26.7894L6.88732 28.3074C6.94642 28.6401 7.23516 28.8752 7.56243 28.8752C7.59955 28.8752 7.63945 28.8724 7.67657 28.8656L16.032 27.4728C16.406 27.4109 16.6603 27.0562 16.5971 26.6822C16.5338 26.3082 16.1722 26.0539 15.8065 26.1171L8.12204 27.3971L4.23646 5.37783L27.628 1.47993L30.5194 17.8593C30.5854 18.2333 30.9456 18.4822 31.3155 18.4162C31.6881 18.3502 31.9383 17.9941 31.8723 17.6201ZM3.32624 4.13627C3.14475 4.1665 2.98388 4.26962 2.87799 4.41811C2.7721 4.5666 2.73086 4.75357 2.7625 4.93371L6.37031 25.3774L1.41235 24.826L2.71165 1.43314L13.9338 2.36811L3.32624 4.13627Z" fill="#787882"/>
<path d="M25.4369 17.8759C21.2681 17.8759 17.8748 21.2678 17.8748 25.4379C17.8748 29.6081 21.2681 33 25.4369 33C29.6056 33 32.9989 29.6081 32.9989 25.438C32.9989 21.2679 29.6056 17.8759 25.4369 17.8759ZM25.4369 31.6251C22.0257 31.6251 19.2497 28.8491 19.2497 25.4379C19.2497 22.0267 22.0257 19.2508 25.4369 19.2508C28.848 19.2508 31.624 22.0267 31.624 25.4379C31.624 28.8491 28.848 31.6251 25.4369 31.6251Z" fill="#787882"/>
<path d="M28.1867 24.7505H26.1243V22.6881C26.1243 22.3086 25.8163 22.0006 25.4368 22.0006C25.0573 22.0006 24.7493 22.3086 24.7493 22.6881V24.7505H22.687C22.3075 24.7505 21.9995 25.0585 21.9995 25.438C21.9995 25.8174 22.3075 26.1254 22.687 26.1254H24.7493V28.1878C24.7493 28.5673 25.0573 28.8753 25.4368 28.8753C25.8163 28.8753 26.1243 28.5673 26.1243 28.1878V26.1254H28.1867C28.5662 26.1254 28.8742 25.8174 28.8742 25.438C28.8742 25.0585 28.5662 24.7505 28.1867 24.7505Z" fill="#3B3B3D"/>
<g clip-path="url(#clip1)">
<rect x="9.34247" y="7.90936" width="1.97678" height="0.722938" transform="rotate(-10 9.34247 7.90936)" fill="#FFFCFC"/>
<path d="M10.104 16.1751C11.3286 15.5352 12.0583 15.414 13.4265 15.5893L13.9166 18.3687L10.5941 18.9546L10.104 16.1751Z" fill="white"/>
<path d="M12.2748 10.81L12.0311 10.7261C11.91 10.6845 11.8196 10.5736 11.7953 10.4362L11.4148 8.27805L9.46804 8.62131L9.84858 10.7794C9.87281 10.9168 9.82572 11.052 9.72618 11.1326L9.52594 11.2947C9.02709 11.6987 8.79186 12.3758 8.91274 13.0613L9.43864 16.0439L10.0094 19.281L10.6437 22.8779C10.7486 23.4728 11.2706 23.88 11.8073 23.7853L14.403 23.3276C14.9396 23.233 15.291 22.6719 15.1861 22.0769L14.5519 18.4801L13.9811 15.2429L13.4552 12.2604C13.3343 11.5749 12.8817 11.019 12.2748 10.81ZM13.8395 18.2348L10.595 18.8069L10.1365 16.2071C10.4861 16.0416 11.1758 15.7375 11.7099 15.6434C12.2485 15.5484 12.998 15.5987 13.3811 15.635L13.8395 18.2348Z" fill="#3B3B3D"/>
<path d="M10.7137 6.19939L9.41581 6.42824C9.23674 6.45981 9.11978 6.64659 9.15479 6.84514L9.34506 7.9242L11.2918 7.58093L11.1015 6.50188C11.0665 6.30333 10.8928 6.16781 10.7137 6.19939Z" fill="#3B3B3D"/>
</g>
</g>
<defs>
<clipPath id="clip0">
<rect width="33" height="33" fill="white"/>
</clipPath>
<clipPath id="clip1">
<rect width="4.53343" height="17.5312" fill="white" transform="translate(7.79355 6.71426) rotate(-10)"/>
</clipPath>
</defs>
</svg>
