<svg width="33" height="33" viewBox="0 0 33 33" fill="none" xmlns="http://www.w3.org/2000/svg">
<g clip-path="url(#clip0)">
<path d="M22.2159 5.97271C22.231 6.01531 22.2393 6.06069 22.2558 6.10194C22.2984 6.20784 22.3548 6.30407 22.4084 6.40307C22.4249 6.4333 22.44 6.4636 22.4579 6.49383C22.4978 6.56531 22.5294 6.64098 22.5747 6.70833L19.4534 9.82969C19.1853 10.0978 19.1853 10.5337 19.4534 10.8019C19.5882 10.9366 19.7641 11.0026 19.9402 11.0026C20.1162 11.0026 20.2921 10.9353 20.4269 10.8019L23.5483 7.68051C24.0914 8.04074 24.7418 8.2539 25.4403 8.2539C26.671 8.2539 27.7449 7.598 28.3527 6.62312C28.3664 6.6025 28.3761 6.5791 28.3884 6.55712C28.5163 6.34262 28.6167 6.11296 28.6951 5.871C28.717 5.80635 28.7377 5.74177 28.7556 5.67576C28.8271 5.39938 28.878 5.11475 28.878 4.81639C28.878 4.50565 28.823 4.21 28.7446 3.92259C28.7281 3.86349 28.7103 3.80573 28.691 3.74798C28.2386 2.37709 26.9612 1.37881 25.4404 1.37881C24.0214 1.37881 22.8003 2.24373 22.2764 3.47437C22.1926 3.67102 22.1293 3.87728 22.0839 4.08901C22.0798 4.09862 22.0743 4.10829 22.0729 4.12066C22.0262 4.34477 22.0014 4.5772 22.0014 4.81503C22.0014 5.04469 22.0248 5.2688 22.0688 5.48607C22.1017 5.65372 22.1581 5.81325 22.2159 5.97271Z" fill="#787882"/>
<path d="M32.9989 28.1466L31.6252 3.40138C31.6156 3.21575 31.5303 3.04249 31.3901 2.92009C31.2498 2.79911 31.0683 2.73169 30.8814 2.75374L29.8184 2.84172C29.9504 3.13325 30.0549 3.43986 30.1265 3.75885C30.1292 3.77122 30.1347 3.78082 30.1375 3.7932C30.209 4.12321 30.2516 4.46282 30.2516 4.8121C30.2516 5.15172 30.2145 5.48314 30.1457 5.80348C30.1361 5.85021 30.1141 5.89288 30.1031 5.93961C30.0371 6.21464 29.9546 6.48277 29.8432 6.73711C29.8363 6.75361 29.8254 6.76734 29.8185 6.78249C29.7703 6.88974 29.6989 6.98327 29.6425 7.08639C29.5393 7.2775 29.4349 7.46726 29.3097 7.64051C29.1378 7.87429 28.948 8.09705 28.7376 8.2964C28.7363 8.2964 28.7363 8.29776 28.7363 8.29776L25.2767 27.8948L24.8793 30.1458L1.48438 26.2476L5.37023 4.22505L21.0924 6.84449C20.9741 6.59286 20.8903 6.32473 20.8147 6.05383C20.7679 5.87367 20.7335 5.68946 20.7061 5.50106C20.6703 5.27283 20.6249 5.0473 20.6249 4.80804C20.6249 4.38451 20.6978 3.98025 20.8009 3.58836L13.5503 4.19205L4.92472 2.75509C4.55211 2.68632 4.20006 2.94207 4.13547 3.31333L0.0103597 26.689C-0.0212876 26.8691 0.0199635 27.0561 0.125863 27.2046C0.231762 27.3531 0.392642 27.4563 0.574147 27.4865L6.74254 28.515L6.87455 30.9708C6.88557 31.1605 6.9722 31.3366 7.11658 31.4576C7.24168 31.5635 7.39986 31.6212 7.56073 31.6212C7.58684 31.6212 7.61159 31.6199 7.63634 31.6171L18.2681 30.4359L25.3234 31.6116C25.3619 31.6185 25.399 31.6212 25.4376 31.6212C25.7648 31.6212 26.055 31.3861 26.1141 31.0533L26.3822 29.5353L32.3884 28.8683C32.7514 28.8286 33.0195 28.5109 32.9989 28.1466Z" fill="#787882"/>
<g clip-path="url(#clip1)">
<rect x="8.21674" y="8.87228" width="1.97695" height="0.723" transform="rotate(10 8.21674 8.87228)" fill="#FFFCFC"/>
<path d="M6.10521 16.9007C7.47486 16.7182 8.20206 16.8539 9.42796 17.4866L8.93782 20.2663L5.61508 19.6804L6.10521 16.9007Z" fill="white"/>
<path d="M9.98026 12.6012L9.78 12.4391C9.68045 12.3585 9.63336 12.2233 9.65759 12.0859L10.0382 9.9276L8.09123 9.5843L7.71067 11.7426C7.68644 11.88 7.59596 11.9909 7.47485 12.0326L7.2312 12.1165C6.62424 12.3255 6.17155 12.8814 6.05066 13.567L5.52472 16.5498L4.95387 19.7872L4.31959 23.3844C4.21468 23.9794 4.56606 24.5405 5.10277 24.6352L7.69866 25.0929C8.23537 25.1875 8.75749 24.7804 8.8624 24.1854L9.49668 20.5882L10.0675 17.3508L10.5935 14.368C10.7144 13.6824 10.4791 13.0052 9.98026 12.6012ZM8.91114 20.1141L5.66629 19.542L6.12475 16.9419C6.50984 16.9059 7.26205 16.8561 7.79614 16.9503C8.3348 17.0453 9.02201 17.3489 9.3696 17.5141L8.91114 20.1141Z" fill="#B2B2B8"/>
<path d="M10.0903 7.73432L8.7923 7.50545C8.61321 7.47388 8.43942 7.60941 8.4044 7.80797L8.21412 8.88712L10.161 9.23041L10.3513 8.15126C10.3863 7.9527 10.2694 7.7659 10.0903 7.73432Z" fill="#B2B2B8"/>
</g>
</g>
<defs>
<clipPath id="clip0">
<rect width="33" height="33" fill="white"/>
</clipPath>
<clipPath id="clip1">
<rect width="4.53381" height="17.5328" fill="white" transform="translate(7.16989 7.21936) rotate(10)"/>
</clipPath>
</defs>
</svg>
