<svg width="33" height="33" viewBox="0 0 33 33" fill="none" xmlns="http://www.w3.org/2000/svg">
<g clip-path="url(#clip0)">
<path d="M32.9989 28.1483L31.624 3.3997C31.6144 3.21408 31.5291 3.04084 31.3889 2.91845C31.2486 2.79606 31.0644 2.72871 30.8802 2.75211L20.4004 3.62521C19.9137 2.3163 18.6626 1.37585 17.1872 1.37585C15.5112 1.37585 14.1156 2.58441 13.8145 4.17522L13.5451 4.19719L4.92431 2.76036C4.55443 2.69024 4.1997 2.94733 4.13513 3.31856L0.0103589 26.6923C-0.0212858 26.8724 0.0199618 27.058 0.125852 27.2078C0.231743 27.3577 0.392609 27.4595 0.574098 27.4897L6.74475 28.5181L6.87674 30.9737C6.88776 31.1621 6.97438 31.338 7.11875 31.4604C7.24385 31.5663 7.40059 31.6241 7.56287 31.6241C7.58897 31.6241 7.61372 31.6227 7.63847 31.6199L18.2666 30.4389L25.3228 31.6145C25.3612 31.6213 25.3998 31.6241 25.4369 31.6241C25.7655 31.6241 26.0556 31.3889 26.112 31.0562L26.3801 29.5383L32.3885 28.8701C32.7514 28.8303 33.0195 28.5127 32.9989 28.1483ZM19.2496 5.10187V5.14724L19.0668 5.11702L19.2496 5.10187ZM17.1872 2.75076C17.9325 2.75076 18.5814 3.15221 18.9444 3.7476L15.2747 4.05418C15.5772 3.29245 16.3183 2.75076 17.1872 2.75076ZM8.21039 30.1736L8.13338 28.7492L13.288 29.6085L8.21039 30.1736ZM24.8786 30.1461L1.48567 26.2482L5.3712 4.22877L19.2497 6.54142V11.6878C19.2497 12.8249 18.3244 13.7502 17.1873 13.7502C16.0502 13.7502 15.1249 12.8249 15.1249 11.6878V8.9379C15.1249 8.55843 14.8169 8.25042 14.4374 8.25042C14.058 8.25042 13.75 8.55843 13.75 8.9379V11.6878C13.75 13.5824 15.2926 15.1251 17.1872 15.1251C19.0819 15.1251 20.6245 13.5824 20.6245 11.6878V6.77105L28.764 8.12674L24.8786 30.1461ZM26.6288 28.1263L30.2366 7.68262C30.2683 7.50249 30.227 7.31687 30.1212 7.16703C30.0153 7.01718 29.8544 6.91542 29.6729 6.88519L20.6246 5.37688V4.98773L30.2889 4.18205L31.5882 27.575L26.6288 28.1263Z" fill="#787882"/>
<g clip-path="url(#clip1)">
<rect x="7.75964" y="8.61108" width="1.97679" height="0.72294" transform="rotate(10 7.75964 8.61108)" fill="#FFFCFC"/>
<path d="M5.64825 16.6388C7.01777 16.4563 7.74491 16.592 8.97071 17.2247L8.48062 20.0041L5.15815 19.4183L5.64825 16.6388Z" fill="white"/>
<path d="M9.52299 12.3397L9.32275 12.1776C9.22321 12.097 9.17612 11.9618 9.20035 11.8244L9.58088 9.66632L7.63412 9.32305L7.25359 11.4812C7.22936 11.6186 7.13889 11.7295 7.01779 11.7712L6.77417 11.855C6.16725 12.064 5.7146 12.6199 5.59373 13.3054L5.06783 16.2879L4.49703 19.5251L3.8628 23.122C3.7579 23.7169 4.10925 24.278 4.64591 24.3727L7.24158 24.8304C7.77825 24.925 8.30033 24.5179 8.40523 23.9229L9.03946 20.3261L9.61026 17.0889L10.1362 14.1064C10.2571 13.4208 10.0218 12.7437 9.52299 12.3397ZM8.45396 19.852L5.20938 19.2799L5.6678 16.68C6.05286 16.6441 6.80501 16.5942 7.33906 16.6884C7.87767 16.7834 8.56482 17.087 8.91238 17.2521L8.45396 19.852Z" fill="#B2B2B8"/>
<path d="M9.633 7.47322L8.33515 7.24437C8.15608 7.2128 7.9823 7.34832 7.94729 7.54686L7.75702 8.62592L9.70378 8.96919L9.89404 7.89013C9.92905 7.69158 9.8121 7.5048 9.633 7.47322Z" fill="#B2B2B8"/>
</g>
</g>
<defs>
<clipPath id="clip0">
<rect width="33" height="33" fill="white"/>
</clipPath>
<clipPath id="clip1">
<rect width="4.53343" height="17.5313" fill="white" transform="translate(6.71286 6.95831) rotate(10)"/>
</clipPath>
</defs>
</svg>
