<svg width="32" height="32" viewBox="0 0 32 32" fill="none" xmlns="http://www.w3.org/2000/svg">
<path d="M16 0C7.16354 0 0 7.16354 0 16C0 24.8365 7.16354 32 16 32C24.8365 32 32 24.8365 32 16C31.9901 7.16771 24.8323 0.00989587 16 0ZM16 30.9333C7.7526 30.9333 1.06667 24.2474 1.06667 16C1.06667 7.7526 7.7526 1.06667 16 1.06667C24.2474 1.06667 30.9333 7.7526 30.9333 16C30.924 24.2435 24.2435 30.924 16 30.9333Z" fill="#787882"/>
<path d="M23.0117 17.9511L18.4849 17.1511C18.2557 17.1107 18.0271 17.2232 17.9195 17.4295L16.8219 19.5329C14.8797 18.6727 13.3276 17.1199 12.4682 15.1771L14.5695 14.0795C14.7758 13.9719 14.8883 13.7433 14.8479 13.5141L14.0479 8.98782C14.0229 8.84538 13.9411 8.71933 13.8214 8.63835C12.6768 7.86647 11.1997 7.78887 9.98073 8.43678C8.76172 9.08496 8 10.3529 8 11.7334C8.00755 18.505 13.4951 23.9925 20.2667 24.0001C21.6474 23.9998 22.9154 23.2376 23.5633 22.0183C24.2109 20.7988 24.1328 19.3214 23.3599 18.1771C23.2792 18.0579 23.1536 17.9761 23.0117 17.9511ZM20.2667 22.9334C14.0841 22.9264 9.0737 17.9159 9.06667 11.7334C9.06641 10.786 9.56901 9.9097 10.3867 9.43105C11.2044 8.95267 12.2148 8.94407 13.0406 9.40866L13.7302 13.3157L11.5435 14.4571C11.3039 14.5821 11.1956 14.8662 11.2911 15.1191C12.2661 17.6982 14.3016 19.735 16.8805 20.711C17.1333 20.8066 17.4174 20.6982 17.5424 20.4587L18.6844 18.2719L22.5914 18.9618C23.0549 19.7873 23.0456 20.7967 22.5674 21.6139C22.0891 22.4308 21.2135 22.9331 20.2667 22.9334Z" fill="#787882"/>
</svg>
