<svg width="31" height="33" viewBox="0 0 31 33" fill="none" xmlns="http://www.w3.org/2000/svg">
<g clip-path="url(#clip0)">
<path d="M22.491 24.9456L24.3674 22.2829C24.5189 22.0679 24.4674 21.7708 24.2524 21.6193C24.0375 21.4679 23.7403 21.5193 23.5888 21.7342L21.8529 24.1975L21.0486 23.3277C20.8699 23.1346 20.5687 23.1228 20.3756 23.3014C20.1824 23.4799 20.1707 23.7813 20.3492 23.9744L21.3193 25.0234C21.6467 25.3772 22.215 25.3373 22.491 24.9456Z" fill="#787882"/>
<path d="M30.2908 29.0252C30.2908 27.6672 29.7196 26.4052 28.7133 25.5129C28.8856 24.9135 28.9782 24.2807 28.9782 23.6265C28.9782 19.8577 25.9121 16.7915 22.1433 16.7915C21.0643 16.7915 20.0432 17.0432 19.1348 17.4904L19.2341 16.2763C19.7477 16.1084 20.1487 15.6896 20.285 15.142C20.8135 13.0181 21.4739 10.8718 22.2479 8.76275C23.8284 4.45507 20.2392 0 15.1749 0C13.5954 0 12.0868 0.437411 10.812 1.26492C10.5914 1.40819 10.5286 1.70309 10.6718 1.9237C10.8151 2.14432 11.1101 2.20699 11.3306 2.06386C12.4506 1.33681 13.78 0.952486 15.1749 0.952486C19.6202 0.952486 22.6927 4.7865 21.3537 8.4347C20.568 10.5758 19.8974 12.7551 19.3607 14.9121C19.2911 15.1919 19.0517 15.3895 18.7651 15.4038C18.7543 15.4043 18.7435 15.4046 18.7326 15.4046H11.6172C11.6063 15.4046 11.5955 15.4043 11.5847 15.4037C11.298 15.3895 11.0587 15.192 10.9891 14.9121C10.4524 12.7553 9.78182 10.576 8.99603 8.4347C8.40519 6.82489 8.63508 4.97618 9.80119 3.46372C9.96179 3.25543 9.92311 2.95639 9.71482 2.7958C9.50653 2.63526 9.20756 2.67381 9.0469 2.88216C7.66398 4.67575 7.40762 6.87118 8.10184 8.76282C8.87582 10.872 9.53631 13.0183 10.0647 15.142C10.201 15.6896 10.602 16.1085 11.1156 16.2763L11.5428 21.5026H11.467C10.3907 21.5026 9.51498 22.3782 9.51498 23.4546V24.3259H4.7582C2.16708 24.3259 0.059021 26.4341 0.059021 29.0252C0.059021 29.735 0.576763 30.3259 1.25441 30.4409V30.7617C1.25434 31.7278 2.04026 32.5137 3.00634 32.5137H27.3435C28.3095 32.5137 29.0954 31.7278 29.0954 30.7617V30.4409C29.773 30.3259 30.2908 29.735 30.2908 29.0252ZM28.0257 23.6265C28.0257 26.8701 25.3869 29.509 22.1433 29.509C18.8997 29.509 16.2608 26.8701 16.2608 23.6265C16.2608 20.3829 18.8997 17.744 22.1433 17.744C25.3869 17.744 28.0257 20.3829 28.0257 23.6265ZM12.0779 16.357H18.2719L18.1296 18.0978C16.9789 18.9355 16.0987 20.1229 15.6466 21.5027H12.4986L12.0779 16.357ZM10.4676 23.4546C10.4676 22.9035 10.916 22.4551 11.4671 22.4551H15.4092C15.3431 22.8358 15.3083 23.2271 15.3083 23.6265C15.3083 23.8626 15.3204 24.0959 15.3439 24.3259H10.4676V23.4546ZM1.01144 29.0252C1.01144 26.9592 2.69225 25.2784 4.7582 25.2784H15.5106C15.9576 27.0728 17.1155 28.5888 18.6668 29.5091H1.49534C1.22856 29.509 1.01144 29.292 1.01144 29.0252ZM27.3435 31.5612H3.00634C2.5655 31.5612 2.20683 31.2025 2.20683 30.7617V30.4615H28.1429V30.7617C28.1429 31.2025 27.7843 31.5612 27.3435 31.5612ZM28.8544 29.509H25.6198C26.8081 28.804 27.7656 27.7495 28.3495 26.488C28.9839 27.1743 29.3383 28.07 29.3383 29.0251C29.3384 29.292 29.1212 29.509 28.8544 29.509Z" fill="#787882"/>
<path d="M17.7718 22.9267C18.0262 22.9959 18.2875 22.8456 18.3565 22.5924C18.82 20.8907 20.3772 19.7023 22.1433 19.7023C23.9056 19.7023 25.4619 20.8876 25.9279 22.5848C25.9976 22.8384 26.2594 22.9876 26.5133 22.918C26.7669 22.8483 26.9161 22.5863 26.8465 22.3326C26.2672 20.2232 24.3332 18.7499 22.1433 18.7499C19.9488 18.7499 18.0137 20.227 17.4376 22.3421C17.3684 22.5958 17.5181 22.8575 17.7718 22.9267Z" fill="#787882"/>
<path d="M26.5286 24.2314C26.2737 24.1675 26.015 24.3231 25.9515 24.5784C25.5156 26.3285 23.9496 27.5509 22.1432 27.5509C20.3369 27.5509 18.771 26.3287 18.335 24.5786C18.2714 24.3234 18.0129 24.168 17.7578 24.2316C17.5026 24.2952 17.3473 24.5536 17.4108 24.8088C17.9527 26.9841 19.8987 28.5034 22.1432 28.5034C24.3879 28.5034 26.3339 26.984 26.8756 24.8086C26.9392 24.5533 26.7839 24.2949 26.5286 24.2314Z" fill="#787882"/>
</g>
<defs>
<clipPath id="clip0">
<rect width="30.2951" height="33" fill="white"/>
</clipPath>
</defs>
</svg>
