<svg width="33" height="33" viewBox="0 0 33 33" fill="none" xmlns="http://www.w3.org/2000/svg">
<g clip-path="url(#clip0)">
<path d="M23.6726 0H6.83197V13.7592C6.80906 13.7638 6.7864 13.7678 6.76349 13.7726C5.00462 14.1414 3.5368 15.5581 3.11131 17.2984C2.74398 18.8007 3.08085 20.3372 4.03531 21.5148C4.95351 22.6467 4.89636 24.2855 4.89838 24.2988C4.89838 25.8981 3.59723 27.1992 1.99799 27.1992H1.03119V33H31.9687V8.4343L23.6726 0ZM24.2343 3.3284L28.6949 7.86328H24.2343V3.3284ZM5.53737 20.2967C4.9583 19.5827 4.76393 18.6811 4.98952 17.7576C5.24204 16.7251 6.11443 15.8842 7.16028 15.6651C9.06744 15.2651 10.6992 16.7067 10.6992 18.498C10.6992 19.0857 10.5212 19.6507 10.1845 20.132C8.62634 22.3587 8.77563 24.2397 8.76556 24.2988C8.76556 25.3862 9.1266 26.3908 9.73488 27.1992H5.86266C6.47093 26.3908 6.83197 25.3862 6.83197 24.2988C6.82039 24.2235 6.97498 22.0699 5.53737 20.2967ZM12.6328 31.0664H2.96478V29.1328H12.6328V31.0664ZM14.5663 31.0664V27.1992H13.5995C12.0003 27.1992 10.6992 25.8981 10.6992 24.2988C10.7165 24.2006 10.5468 22.9869 11.7687 21.2406C12.3339 20.4326 12.6328 19.4842 12.6328 18.498C12.6328 16.1546 10.9733 14.2112 8.76556 13.763V1.93359H22.3007V9.79688H30.0351V31.0664H14.5663Z" fill="#787882"/>
<path d="M22.3008 17.5312C19.1023 17.5312 16.5 20.1335 16.5 23.332C16.5 26.5305 19.1023 29.1328 22.3008 29.1328C25.4993 29.1328 28.1016 26.5305 28.1016 23.332C28.1016 20.1335 25.4993 17.5312 22.3008 17.5312ZM22.3008 27.1992C20.1683 27.1992 18.4336 25.4645 18.4336 23.332C18.4336 21.1995 20.1683 19.4648 22.3008 19.4648C24.4333 19.4648 26.168 21.1995 26.168 23.332C26.168 25.4645 24.4333 27.1992 22.3008 27.1992Z" fill="#787882"/>
<path d="M10.6992 5.92969H20.3672V7.86328H10.6992V5.92969Z" fill="#787882"/>
<path d="M10.6992 9.79688H20.3672V11.7305H10.6992V9.79688Z" fill="#787882"/>
<path d="M14.5664 13.6641H28.1016V15.5977H14.5664V13.6641Z" fill="#787882"/>
</g>
<defs>
<clipPath id="clip0">
<rect width="33" height="33" fill="white"/>
</clipPath>
</defs>
</svg>
