<svg width="33" height="33" viewBox="0 0 33 33" fill="none" xmlns="http://www.w3.org/2000/svg">
<g clip-path="url(#clip0)">
<path d="M31.0022 21.3982H22.3009C20.7016 21.3982 19.4004 20.0971 19.4004 18.4978V18.1052C19.4004 15.3284 20.2105 12.841 21.6814 11.1012C23.0034 9.53751 23.534 7.46794 23.1371 5.42313C22.6243 2.7809 20.4647 0.606402 17.7639 0.114616C13.5301 -0.656321 9.73237 2.56169 9.73237 6.76713C9.73237 8.19176 10.1731 9.55291 11.007 10.7034C12.7274 13.077 13.5996 15.496 13.5996 17.8932V18.4155C13.5996 20.0881 12.3256 21.3983 10.6992 21.3983H1.99786V29.1328H3.93149V33.0001H29.0686V29.1328H31.0023V21.3982H31.0022ZM12.5726 9.56864C11.9794 8.75026 11.6659 7.78151 11.6659 6.76713C11.6659 3.84259 14.2914 1.44779 17.4174 2.01698C19.3027 2.36027 20.8741 3.91239 21.2389 5.79155C21.5278 7.28006 21.1605 8.72235 20.2047 9.85288C18.4392 11.9412 17.4668 14.8719 17.4668 18.1052V18.4978C17.4668 19.5852 17.8279 20.5897 18.4362 21.3982H14.5539C15.1886 20.5499 15.5331 19.5129 15.5331 18.4154V17.8931C15.5332 15.0799 14.5371 12.2792 12.5726 9.56864ZM27.135 31.0664H5.86505V29.1328H27.135V31.0664ZM29.0686 27.1991H3.93143V23.3319H29.0686V27.1991Z" fill="#787882"/>
</g>
<defs>
<clipPath id="clip0">
<rect width="33" height="33" fill="white"/>
</clipPath>
</defs>
</svg>
