<svg width="27" height="30" viewBox="0 0 27 30" fill="none" xmlns="http://www.w3.org/2000/svg">
<path d="M4.41132 22.9687L4.74059 22.6394C6.81986 24.7187 9.58223 25.8624 12.5219 25.8624C15.4615 25.8624 18.2229 24.7187 20.302 22.6394L20.3021 22.6394C22.3814 20.5603 23.5251 17.7989 23.5251 14.8592C23.5251 11.9196 22.3813 9.15722 20.302 7.07794C18.223 4.9989 15.4616 3.85605 12.5219 3.85605C9.58227 3.85605 6.82085 4.99979 4.74175 7.07907L4.74173 7.07909C4.35656 7.46426 3.73126 7.46426 3.34609 7.07909C2.96092 6.69392 2.96092 6.06862 3.34609 5.68345C5.79686 3.23248 9.05671 1.88218 12.5219 1.88218C15.988 1.88218 19.2479 3.23247 21.6988 5.68343L4.41132 22.9687ZM4.41132 22.9687L4.74059 22.6394C4.35542 22.2542 3.73011 22.2542 3.34494 22.6394C2.95977 23.0246 2.95978 23.6499 3.34494 24.035L3.67422 23.7058M4.41132 22.9687L3.67422 23.7058M3.67422 23.7058L3.34494 24.035M3.67422 23.7058L3.34494 24.035M3.34494 24.035C5.79591 26.486 9.05576 27.8363 12.5219 27.8363M3.34494 24.035L12.5219 27.8363M12.5219 27.8363C15.9871 27.8363 19.2469 26.486 21.6977 24.0351M12.5219 27.8363L21.6977 24.0351M21.6977 24.0351C21.6977 24.0351 21.6977 24.035 21.6977 24.035C24.1487 21.5843 25.499 18.3244 25.499 14.8592C25.499 11.3942 24.1499 8.13429 21.6988 5.68345L21.6977 24.0351Z" fill="#787882" stroke="#787882" stroke-width="0.931323"/>
<path d="M1.89945 9.32606H7.73971C8.32269 9.32606 8.79591 8.85284 8.79591 8.26987C8.79591 7.68689 8.32269 7.21367 7.73971 7.21367H2.95537V2.4296C2.95537 1.84643 2.4825 1.3734 1.89945 1.3734C1.3162 1.3734 0.843254 1.84636 0.843254 2.4296V8.26987C0.843254 8.85276 1.31613 9.32606 1.89945 9.32606Z" fill="#787882" stroke="#787882" stroke-width="0.652116"/>
</svg>
