<svg width="30" height="30" viewBox="0 0 30 30" fill="none" xmlns="http://www.w3.org/2000/svg">
<g clip-path="url(#clip0)">
<path d="M17.1673 0H2.72138C1.47152 0 0.458313 1.0132 0.458313 2.26307C0.458313 3.51293 1.47152 4.52613 2.72138 4.52613H17.1673C21.4948 4.52613 25.0155 8.04686 25.0155 12.3744C25.0155 16.702 21.4948 20.2227 17.1673 20.2227H16.0581V17.0462C16.0581 15.452 14.3323 14.4557 12.9517 15.2528L3.53097 20.6925C2.15056 21.4896 2.1505 23.482 3.53091 24.2791L12.9517 29.7194C14.3322 30.5166 16.0581 29.5203 16.0581 27.9261V24.7488H17.1673C23.9906 24.7488 29.5417 19.1977 29.5417 12.3744C29.5417 5.55111 23.9906 0 17.1673 0V0Z" fill="#787882"/>
</g>
<defs>
<clipPath id="clip0">
<rect width="30" height="30" fill="white"/>
</clipPath>
</defs>
</svg>
