<svg width="29" height="29" viewBox="0 0 29 29" fill="none" xmlns="http://www.w3.org/2000/svg">
<g clip-path="url(#clip0)">
<path d="M19.1865 17.6464C19.0987 17.4028 18.8301 17.2766 18.5866 17.3643C18.343 17.4521 18.2167 17.7207 18.3045 17.9643C18.3066 17.9703 18.3089 17.9762 18.3113 17.9821C18.7389 19.0978 18.7698 19.951 18.3957 20.3261C17.9419 20.7789 16.8116 20.6374 15.3715 19.9482C13.4434 18.9471 11.6909 17.6393 10.1824 16.076C6.51028 12.4034 4.99513 8.79977 5.93226 7.86264C6.23129 7.62649 6.61998 7.53577 6.99268 7.61512C7.25087 7.6341 7.47559 7.44014 7.49458 7.18195C7.51292 6.93237 7.33203 6.71239 7.08362 6.68221C6.43182 6.56689 5.76308 6.75693 5.26938 7.19789C3.55171 8.91509 6.17744 13.3944 9.51949 16.737C11.1029 18.3755 12.9428 19.7451 14.9669 20.7916C15.3335 20.9671 15.7112 21.1182 16.0977 21.244L12.7668 22.5069C8.31914 20.816 5.11731 16.8729 4.37538 12.1728C4.33524 11.917 4.09533 11.7421 3.83955 11.7823C3.58376 11.8224 3.4089 12.0623 3.44904 12.3181C3.52264 12.7869 3.62109 13.2557 3.74157 13.7142C4.82109 17.8044 7.6644 21.2023 11.5002 22.986L6.01805 25.0605C5.99291 25.0185 5.96126 24.9809 5.92429 24.9489C4.53102 23.8303 3.65683 22.1898 3.50529 20.4095L3.28777 17.7754C3.27066 17.5202 3.04986 17.3271 2.7946 17.3442C2.78973 17.3446 2.78487 17.3449 2.78007 17.3455C2.52199 17.366 2.32938 17.5919 2.34989 17.85C2.34994 17.851 2.35006 17.8521 2.35018 17.8532L2.57145 20.4864C2.73623 22.3893 3.6239 24.1567 5.05186 25.4252L1.14115 26.9056L1.84435 24.0197C1.9057 23.768 1.75147 23.5143 1.49978 23.453C1.2481 23.3916 0.994359 23.5458 0.933005 23.7975L0.0183825 27.5479C-0.0432643 27.7994 0.110618 28.0532 0.362128 28.1148C0.454364 28.1374 0.551229 28.1314 0.640007 28.0978L17.9855 21.5346C18.0131 21.5212 18.0392 21.5048 18.0633 21.4859C18.4387 21.4282 18.7867 21.2546 19.0586 20.9894C19.5231 20.5248 19.923 19.5671 19.1865 17.6464Z" fill="#787882"/>
<path d="M23.6105 16.4373C21.0763 15.4886 18.3372 15.2226 15.6677 15.6662L13.9927 15.9475C13.7384 15.9963 13.572 16.242 13.6208 16.4963C13.6681 16.7419 13.8998 16.9073 14.1474 16.8719L15.822 16.593C18.329 16.1762 20.9015 16.4262 23.2815 17.3177C23.3343 17.3364 23.39 17.3458 23.446 17.3454C23.7049 17.3458 23.9151 17.1363 23.9156 16.8774C23.9159 16.6814 23.7943 16.5058 23.6105 16.4373Z" fill="#787882"/>
<path d="M25.2771 9.17438C25.1658 8.94057 24.886 8.8413 24.6522 8.95264L14.8075 13.6406C14.5737 13.7519 14.4744 14.0316 14.5857 14.2654C14.5857 14.2655 14.5857 14.2655 14.5857 14.2655C14.697 14.4993 14.9767 14.5986 15.2105 14.4873C15.2106 14.4873 15.2106 14.4873 15.2106 14.4873L25.0554 9.79929C25.2892 9.68795 25.3885 9.4082 25.2771 9.17438Z" fill="#787882"/>
<path d="M11.3904 3.18171C11.3388 2.92797 11.0914 2.76407 10.8376 2.81564C10.5839 2.8672 10.42 3.11467 10.4716 3.36841C10.4727 3.37403 10.474 3.3796 10.4753 3.38517C11.0687 6.03615 10.8242 8.80604 9.77541 11.3121L9.09378 12.9477C8.99527 13.186 9.10773 13.4591 9.34552 13.559C9.40248 13.583 9.46372 13.5952 9.52554 13.5951C9.71476 13.5951 9.8854 13.4814 9.95824 13.3068L10.6403 11.673C11.764 8.98864 12.0261 6.0215 11.3904 3.18171Z" fill="#787882"/>
<path d="M25.79 16.8767C25.0132 16.8767 24.3836 17.5064 24.3836 18.2831C24.3836 19.0598 25.0132 19.6895 25.79 19.6895C26.5667 19.6895 27.1964 19.0598 27.1964 18.2831C27.1964 17.5064 26.5667 16.8767 25.79 16.8767ZM25.79 18.7519C25.5311 18.7519 25.3212 18.542 25.3212 18.2831C25.3212 18.0242 25.5311 17.8143 25.79 17.8143C26.0489 17.8143 26.2588 18.0242 26.2588 18.2831C26.2588 18.542 26.0489 18.7519 25.79 18.7519Z" fill="#787882"/>
<path d="M14.5389 3.75037C13.7621 3.75037 13.1325 4.38002 13.1325 5.15676C13.1325 5.9335 13.7621 6.56315 14.5389 6.56315C15.3156 6.56315 15.9452 5.9335 15.9452 5.15676C15.9452 4.38002 15.3156 3.75037 14.5389 3.75037ZM14.5389 5.62555C14.28 5.62555 14.0701 5.41565 14.0701 5.15676C14.0701 4.89786 14.28 4.68796 14.5389 4.68796C14.7977 4.68796 15.0077 4.89786 15.0077 5.15676C15.0077 5.41565 14.7977 5.62555 14.5389 5.62555Z" fill="#787882"/>
<path d="M10.3197 1.87519C10.8375 1.87519 11.2573 1.45541 11.2573 0.937594C11.2573 0.419775 10.8375 0 10.3197 0C9.80186 0 9.38208 0.419775 9.38208 0.937594C9.38208 1.45541 9.80186 1.87519 10.3197 1.87519Z" fill="#787882"/>
<path d="M23.446 2.34399C23.1871 2.34399 22.9772 2.5539 22.9772 2.81279V3.28159C22.9772 3.54048 23.1871 3.75039 23.446 3.75039C23.7049 3.75039 23.9148 3.54048 23.9148 3.28159V2.81279C23.9148 2.5539 23.7049 2.34399 23.446 2.34399Z" fill="#787882"/>
<path d="M23.446 0C23.1871 0 22.9772 0.209904 22.9772 0.468797V0.937594C22.9772 1.19649 23.1871 1.40639 23.446 1.40639C23.7049 1.40639 23.9148 1.19649 23.9148 0.937594V0.468797C23.9148 0.209904 23.7049 0 23.446 0Z" fill="#787882"/>
<path d="M24.8524 1.40637H24.3836C24.1247 1.40637 23.9148 1.61628 23.9148 1.87517C23.9148 2.13406 24.1247 2.34397 24.3836 2.34397H24.8524C25.1113 2.34397 25.3212 2.13406 25.3212 1.87517C25.3212 1.61628 25.1113 1.40637 24.8524 1.40637Z" fill="#787882"/>
<path d="M22.5084 1.40637H22.0396C21.7807 1.40637 21.5708 1.61628 21.5708 1.87517C21.5708 2.13406 21.7807 2.34397 22.0396 2.34397H22.5084C22.7673 2.34397 22.9772 2.13406 22.9772 1.87517C22.9772 1.61628 22.7673 1.40637 22.5084 1.40637Z" fill="#787882"/>
<path d="M20.1644 5.14685H17.8106C17.5517 5.14685 17.3418 5.35675 17.3418 5.61565V7.96948C17.3418 8.22837 17.5517 8.43827 17.8106 8.43827H20.1644C20.4233 8.43827 20.6332 8.22837 20.6332 7.96948V5.61565C20.6332 5.35675 20.4233 5.14685 20.1644 5.14685ZM19.6956 7.50068H18.2794V6.08444H19.6956V7.50068Z" fill="#787882"/>
<path d="M16.7493 9.06163C16.5772 8.87792 16.2908 8.86292 16.1004 9.02764L11.4124 13.2468C11.2201 13.42 11.2046 13.7164 11.3778 13.9088C11.551 14.1011 11.8473 14.1166 12.0397 13.9434L16.7277 9.72428C16.9167 9.54725 16.9263 9.25062 16.7493 9.06163Z" fill="#787882"/>
<path d="M25.3212 10.7823C25.0623 10.7823 24.8524 10.9923 24.8524 11.2511V11.7199C24.8524 11.9788 25.0623 12.1887 25.3212 12.1887C25.5801 12.1887 25.79 11.9788 25.79 11.7199V11.2511C25.79 10.9923 25.5801 10.7823 25.3212 10.7823Z" fill="#787882"/>
<path d="M27.3103 10.7017L26.9789 10.3703C26.7926 10.1904 26.4959 10.1955 26.316 10.3818C26.1405 10.5634 26.1405 10.8514 26.316 11.0332L26.6474 11.3646C26.8336 11.5445 27.1304 11.5393 27.3103 11.3531C27.4858 11.1714 27.4858 10.8834 27.3103 10.7017Z" fill="#787882"/>
<path d="M27.6652 8.9071H27.1964C26.9375 8.9071 26.7276 9.11701 26.7276 9.3759C26.7276 9.63479 26.9375 9.8447 27.1964 9.8447H27.6652C27.9241 9.8447 28.134 9.63479 28.134 9.3759C28.134 9.11701 27.9241 8.9071 27.6652 8.9071Z" fill="#787882"/>
<path d="M27.2988 7.38732C27.1171 7.21188 26.8291 7.21188 26.6474 7.38732L26.316 7.71876C26.1329 7.90189 26.133 8.19869 26.3161 8.38176C26.404 8.4696 26.5232 8.519 26.6474 8.519C26.7718 8.519 26.891 8.46954 26.9789 8.38164L27.3103 8.0502C27.4902 7.86397 27.485 7.56717 27.2988 7.38732Z" fill="#787882"/>
<path d="M25.3212 6.56311C25.0623 6.56311 24.8524 6.77301 24.8524 7.03191V7.5007C24.8524 7.7596 25.0623 7.9695 25.3212 7.9695C25.5801 7.9695 25.79 7.7596 25.79 7.5007V7.03191C25.79 6.77301 25.5801 6.56311 25.3212 6.56311Z" fill="#787882"/>
<path d="M24.3264 7.71866L23.995 7.38722C23.8087 7.20738 23.512 7.21248 23.3321 7.39871C23.1566 7.58036 23.1566 7.86838 23.3321 8.0501L23.6635 8.38154C23.8498 8.56144 24.1465 8.55628 24.3264 8.37005C24.5019 8.18834 24.5019 7.90032 24.3264 7.71866Z" fill="#787882"/>
<path d="M5.60884 2.02742C5.55364 1.85783 5.40697 1.73431 5.23052 1.70864L3.8546 1.50846L3.24095 0.261931C3.10418 0.0297005 2.80503 -0.0477097 2.5728 0.0890619C2.50142 0.131078 2.44194 0.190556 2.39993 0.261931L1.78346 1.50846L0.40754 1.70864C0.151284 1.74562 -0.0264487 1.98335 0.0105277 2.23961C0.0252362 2.34163 0.0731707 2.43592 0.146889 2.50794L1.14215 3.47835L0.907747 4.84864C0.862742 5.10361 1.03292 5.3468 1.28788 5.3918C1.39055 5.40991 1.49626 5.39332 1.58844 5.34463L2.81903 4.69581L4.04962 5.34275C4.27881 5.46323 4.56225 5.37516 4.68273 5.14598C4.73073 5.05474 4.74725 4.95025 4.72985 4.84864L4.49545 3.47835L5.49118 2.50794C5.61863 2.38318 5.66422 2.19695 5.60884 2.02742ZM3.66287 2.97908C3.55246 3.08661 3.50201 3.24155 3.52785 3.3935L3.64411 4.07091L3.03702 3.75072C2.90054 3.67905 2.73752 3.67905 2.60104 3.75072L1.99161 4.07044L2.10787 3.39303C2.13418 3.24166 2.0846 3.08696 1.9752 2.97908L1.48249 2.4995L2.16272 2.40058C2.31543 2.37843 2.44745 2.2825 2.51572 2.14415L2.81903 1.52862L3.12281 2.14415C3.19102 2.28239 3.32281 2.37826 3.47535 2.40058L4.1551 2.4995L3.66287 2.97908Z" fill="#787882"/>
<path d="M26.5504 23.4984H26.5485L26.3554 23.2087C25.2724 21.5892 23.5694 20.488 21.6482 20.1648C21.3919 20.1282 21.1544 20.3064 21.1179 20.5627C21.0825 20.8103 21.2478 21.0421 21.4935 21.0893C22.8792 21.3245 24.1421 22.0285 25.0709 23.0835C24.29 23.224 23.6071 23.693 23.1957 24.3713C22.6908 25.2756 23.0145 26.4178 23.9188 26.9227C24.823 27.4276 25.9653 27.1039 26.4702 26.1996C26.6631 25.8273 26.7672 25.4154 26.7745 24.9962C27.2733 25.7207 27.3132 26.6668 26.8771 27.4307C26.7451 27.6534 26.8185 27.941 27.0412 28.073C27.2638 28.2051 27.5514 28.1317 27.6835 27.909C27.6877 27.9019 27.6918 27.8947 27.6957 27.8873C28.554 26.3541 28.0484 24.4167 26.5504 23.4984ZM25.6526 25.7421C25.4024 26.1955 24.8321 26.3601 24.3787 26.1099C23.9254 25.8597 23.7607 25.2893 24.0109 24.836C24.0123 24.8335 24.0137 24.8309 24.0151 24.8284C24.2918 24.3754 24.7584 24.0717 25.2846 24.0024C25.3661 24.0001 25.4468 24.0189 25.519 24.0567C25.9147 24.2775 25.9358 25.2348 25.6526 25.7421Z" fill="#787882"/>
</g>
<defs>
<clipPath id="clip0">
<rect width="28.1388" height="28.1388" fill="white"/>
</clipPath>
</defs>
</svg>
