<svg width="29" height="29" viewBox="0 0 29 29" fill="none" xmlns="http://www.w3.org/2000/svg">
<g clip-path="url(#clip0)">
<path d="M27.6675 0.0832522C27.5567 0.083135 27.4494 0.122338 27.3647 0.19383C27.2116 0.323218 27.0572 0.451375 26.9015 0.578243C19.4542 6.69317 10.2606 10.2911 0.640986 10.8552L0.447842 10.8659C0.189417 10.8821 -0.00695015 11.1046 0.00916475 11.363C0.0162553 11.477 0.0647758 11.5845 0.145467 11.6652L5.30224 16.822C5.38996 16.9103 5.50921 16.96 5.63367 16.9603C5.66643 16.9603 5.69907 16.957 5.73118 16.9505C5.88653 16.9175 6.01463 16.8081 6.07153 16.6598L8.19237 11.1444L13.3219 14.9914C13.529 15.1468 13.8229 15.1049 13.9783 14.8978C14.0127 14.8518 14.0384 14.8 14.0542 14.7448L15.7494 8.81073L21.306 12.6577C21.5186 12.8055 21.8107 12.753 21.9585 12.5404C22.0075 12.47 22.0362 12.3875 22.0416 12.3019L22.4635 5.50759L27.4576 8.00627C27.6032 8.07806 27.7756 8.06933 27.9133 7.9833C28.0517 7.89792 28.1359 7.74697 28.1359 7.58436V0.552401C28.1361 0.293508 27.9264 0.083428 27.6675 0.0832522ZM5.45506 15.65L1.53779 11.7327C3.46338 11.5824 5.37795 11.314 7.27071 10.9292L5.45506 15.65ZM13.3398 13.8325L8.96448 10.5509C10.9479 10.0709 12.8973 9.46019 14.8001 8.7226L13.3398 13.8325ZM21.1565 11.414L16.3508 8.0855C18.1298 7.31995 19.8591 6.44395 21.5287 5.46258L21.1565 11.414ZM27.1983 6.82584L22.8549 4.65391C24.3604 3.70061 25.8106 2.66257 27.1983 1.54484V6.82584Z" fill="#787882"/>
<path d="M28.0861 21.5791C27.9958 21.5181 27.8871 21.4905 27.7786 21.501L27.5944 21.5188C18.3763 22.4314 9.11271 20.3044 1.21611 15.462C1.04922 15.3614 0.882797 15.259 0.716843 15.1549C0.497153 15.0179 0.207964 15.085 0.0710166 15.3047C0.0131787 15.3975 -0.0103783 15.5075 0.00427157 15.6157L0.949835 22.6477C0.984233 22.9043 1.22021 23.0844 1.47682 23.05C1.55388 23.0397 1.62719 23.0103 1.69007 22.9646L6.25474 19.6446L7.51815 25.9602C7.56866 26.2141 7.81549 26.379 8.06946 26.3285C8.14622 26.3132 8.21795 26.279 8.27807 26.2288L13.4001 21.9595L15.5097 27.4444C15.6025 27.6862 15.8736 27.8069 16.1154 27.7142C16.1839 27.6879 16.2452 27.6459 16.2945 27.5916L20.5526 22.9079L23.5116 27.976C23.5924 28.1162 23.7396 28.2047 23.9012 28.2104H23.9167C24.0722 28.2104 24.2176 28.1334 24.3048 28.0046L28.2123 22.23C28.3571 22.0154 28.3006 21.7241 28.0861 21.5791ZM1.77445 21.7434L1.06469 16.4643C2.56695 17.3579 4.11972 18.1637 5.71516 18.8776L1.77445 21.7434ZM8.28276 25.002L7.18296 19.5021C8.98033 20.2295 10.8241 20.8366 12.7021 21.3191L8.28276 25.002ZM16.1117 26.3948L14.3063 21.6975C16.069 22.0785 17.854 22.348 19.6506 22.5043L16.1117 26.3948ZM23.9457 26.8636L21.4738 22.6257C23.2763 22.7058 25.082 22.6727 26.8804 22.5263L23.9457 26.8636Z" fill="#787882"/>
<path d="M24.3855 14.6154C23.6087 14.6154 22.9791 15.245 22.9791 16.0217C22.9791 16.7985 23.6087 17.4281 24.3855 17.4281C25.1622 17.4281 25.7918 16.7985 25.7918 16.0217C25.7918 15.245 25.1621 14.6154 24.3855 14.6154ZM24.3855 16.4905C24.1266 16.4905 23.9167 16.2806 23.9167 16.0217C23.9167 15.7629 24.1266 15.553 24.3855 15.553C24.6443 15.553 24.8543 15.7629 24.8543 16.0217C24.8543 16.2806 24.6443 16.4905 24.3855 16.4905Z" fill="#787882"/>
<path d="M2.82082 24.4601C2.04408 24.4601 1.41443 25.0897 1.41443 25.8665C1.41443 26.6432 2.04408 27.2729 2.82082 27.2729C3.59756 27.2729 4.22721 26.6432 4.22721 25.8665C4.22721 25.0897 3.5975 24.4601 2.82082 24.4601ZM2.82082 26.3353C2.56193 26.3353 2.35202 26.1254 2.35202 25.8665C2.35202 25.6076 2.56193 25.3977 2.82082 25.3977C3.07971 25.3977 3.28962 25.6076 3.28962 25.8665C3.28962 26.1254 3.07971 26.3353 2.82082 26.3353Z" fill="#787882"/>
<path d="M6.57119 2.42664C5.79445 2.42664 5.16479 3.05629 5.16479 3.83303C5.16479 4.60976 5.79445 5.23942 6.57119 5.23942C7.34792 5.23942 7.97758 4.60976 7.97758 3.83303C7.97758 3.05629 7.34787 2.42664 6.57119 2.42664ZM6.57119 4.30182C6.31229 4.30182 6.10239 4.09192 6.10239 3.83303C6.10239 3.57413 6.31229 3.36423 6.57119 3.36423C6.83008 3.36423 7.03998 3.57413 7.03998 3.83303C7.03998 4.09192 6.83008 4.30182 6.57119 4.30182Z" fill="#787882"/>
<path d="M1.27708 4.4392L0.614105 5.10217L1.55155 6.03962L2.21452 5.37664L1.27708 4.4392Z" fill="#787882"/>
<path d="M20.1663 1.95776H19.2287V3.36415H20.1663V1.95776Z" fill="#787882"/>
<path d="M13.7402 0.6889L12.8028 1.62634L13.4658 2.28932L14.4032 1.35187L13.7402 0.6889Z" fill="#787882"/>
<path d="M9.52127 6.78289L8.58383 7.72034L9.2468 8.38331L10.1842 7.44587L9.52127 6.78289Z" fill="#787882"/>
<path d="M25.6546 8.65844L24.9916 9.32141L25.9291 10.2589L26.5921 9.59588L25.6546 8.65844Z" fill="#787882"/>
<path d="M17.8223 13.209H16.8847V14.6154H17.8223V13.209Z" fill="#787882"/>
<path d="M20.3035 18.0337L19.366 18.9712L20.029 19.6342L20.9664 18.6967L20.3035 18.0337Z" fill="#787882"/>
<path d="M9.24677 15.6899L8.5838 16.3529L9.52124 17.2903L10.1842 16.6274L9.24677 15.6899Z" fill="#787882"/>
<path d="M12.6655 25.3977H11.7279V26.8041H12.6655V25.3977Z" fill="#787882"/>
<path d="M5.02497 22.2535L4.362 22.9165L5.29944 23.8539L5.96242 23.191L5.02497 22.2535Z" fill="#787882"/>
<path d="M5.7688 26.4725L4.83136 27.4099L5.49433 28.0729L6.43178 27.1354L5.7688 26.4725Z" fill="#787882"/>
<path d="M20.3034 26.0036L19.3659 26.941L20.0289 27.604L20.9664 26.6666L20.3034 26.0036Z" fill="#787882"/>
</g>
<defs>
<clipPath id="clip0">
<rect width="28.2926" height="28.2926" fill="white"/>
</clipPath>
</defs>
</svg>
