<svg width="30" height="31" viewBox="0 0 30 31" fill="none" xmlns="http://www.w3.org/2000/svg">
<g clip-path="url(#clip0)">
<path d="M8.02359 29.0858C7.91486 29.0858 7.80613 29.0451 7.72189 28.9634C7.55021 28.7967 7.54609 28.5225 7.71296 28.3508L8.25135 27.7962C8.41799 27.6245 8.69222 27.6204 8.8639 27.787C9.03558 27.9537 9.0397 28.2279 8.87305 28.3996L8.33444 28.9542C8.24952 29.0419 8.13667 29.0858 8.02359 29.0858Z" fill="#FF4E61"/>
<path d="M13.8675 7.80909C13.759 7.80909 13.65 7.76834 13.566 7.68662C13.3944 7.51998 13.3902 7.24575 13.5569 7.0743L14.0955 6.51944C14.2621 6.34776 14.5361 6.34364 14.7078 6.51028C14.8795 6.67692 14.8836 6.95115 14.717 7.12283L14.1784 7.6777C14.0934 7.76514 13.9806 7.80909 13.8675 7.80909Z" fill="#FF4E61"/>
<path d="M26.2998 5.88286C26.1911 5.88286 26.0823 5.84234 25.9981 5.76062C25.8264 5.59398 25.8223 5.31975 25.9889 5.14807L26.5276 4.59321C26.6942 4.42176 26.9684 4.41764 27.1401 4.58428C27.3118 4.7507 27.3159 5.02515 27.1493 5.1966L26.6107 5.75147C26.5257 5.83891 26.4129 5.88286 26.2998 5.88286Z" fill="#5C73BC"/>
<path d="M26.2998 27.1769C26.1911 27.1769 26.0823 27.1362 25.9981 27.0547C25.8264 26.888 25.8223 26.6138 25.9889 26.4421L26.5276 25.8873C26.6942 25.7158 26.9684 25.7115 27.1401 25.8781C27.3118 26.0448 27.3159 26.319 27.1493 26.4907L26.6107 27.0455C26.5257 27.133 26.4129 27.1769 26.2998 27.1769Z" fill="#FFAA00"/>
<path d="M5.74687 6.6165C5.63837 6.6165 5.52941 6.57599 5.4454 6.49427C5.27372 6.32762 5.2696 6.0534 5.43625 5.88172L5.97486 5.32685C6.1415 5.1554 6.41573 5.15128 6.58741 5.31792C6.75886 5.48457 6.76298 5.7588 6.59633 5.93025L6.05772 6.48511C5.9728 6.57255 5.85995 6.6165 5.74687 6.6165Z" fill="#FFAA00"/>
<path d="M2.77226 16.339C2.66376 16.339 2.5548 16.2985 2.47079 16.2168C2.29911 16.0501 2.29499 15.7759 2.46164 15.6042L3.00002 15.0493C3.16666 14.8777 3.44089 14.8735 3.61257 15.0402C3.78425 15.2068 3.78837 15.4811 3.62173 15.6527L3.08311 16.2076C2.99842 16.295 2.88534 16.339 2.77226 16.339Z" fill="#2DC471"/>
<path d="M14.7257 16.3195L13.3195 17.0811C12.9549 17.2786 12.5286 16.9595 12.5982 16.5411L12.8667 14.9282C12.8944 14.762 12.8411 14.5926 12.7239 14.475L11.5862 13.3325C11.2912 13.0363 11.4539 12.5201 11.8618 12.459L13.4337 12.2237C13.5958 12.1994 13.7356 12.0948 13.808 11.9435L14.5112 10.476C14.6936 10.0956 15.2203 10.0956 15.4028 10.476L16.1057 11.9435C16.1783 12.0948 16.3182 12.1994 16.48 12.2237L18.0521 12.459C18.4598 12.5201 18.6225 13.0363 18.3275 13.3325L17.1901 14.475C17.0729 14.5926 17.0193 14.762 17.047 14.9282L17.3155 16.5411C17.3853 16.9595 16.9591 17.2786 16.5944 17.0811L15.1883 16.3195C15.0434 16.241 14.8703 16.241 14.7257 16.3195Z" fill="#FFD02F"/>
<path d="M14.9569 30.0029C14.7177 30.0029 14.5238 29.8091 14.5238 29.5699V22.7961C14.5238 22.5569 14.7177 22.3628 14.9569 22.3628C15.1961 22.3628 15.3899 22.5569 15.3899 22.7961V29.5699C15.3899 29.8091 15.1961 30.0029 14.9569 30.0029Z" fill="#5C73BC"/>
<path d="M14.9603 20.9449H14.9536C14.7144 20.9449 14.5203 20.7508 14.5203 20.5116C14.5203 20.2724 14.7142 20.0785 14.9536 20.0785H14.9603C15.1995 20.0785 15.3934 20.2724 15.3934 20.5116C15.3934 20.7508 15.1995 20.9449 14.9603 20.9449Z" fill="#5C73BC"/>
<path d="M14.9603 19.4548C14.9596 19.4548 14.9589 19.4548 14.9585 19.4548H14.9516C14.7124 19.4539 14.5194 19.2591 14.5203 19.0199C14.5215 18.7811 14.7151 18.5886 14.9534 18.5886H14.9555H14.9621C15.2013 18.5895 15.3943 18.7843 15.3934 19.0235C15.3925 19.2621 15.1986 19.4548 14.9603 19.4548Z" fill="#FFAA00"/>
<path d="M7.16288 13.5304C7.0498 13.5304 6.93695 13.4865 6.85203 13.399L2.20274 8.6092C2.0361 8.43752 2.03999 8.16329 2.21167 7.99688C2.38335 7.83024 2.65758 7.83436 2.82422 8.00581L7.47374 12.7956C7.64038 12.9671 7.63626 13.2415 7.46458 13.408C7.38034 13.4897 7.27161 13.5304 7.16288 13.5304Z" fill="#FF4E61"/>
<path d="M8.72859 15.1483C8.6194 15.1483 8.51021 15.1073 8.42597 15.0249C8.25475 14.8578 8.25155 14.5836 8.41865 14.4124L8.42346 14.4075C8.59056 14.2366 8.86478 14.2331 9.03601 14.4005C9.20723 14.5676 9.21043 14.8418 9.0431 15.013L9.03852 15.0178C8.9536 15.1046 8.84121 15.1483 8.72859 15.1483Z" fill="#FFAA00"/>
<path d="M9.75111 16.2016C9.64238 16.2016 9.53365 16.1609 9.44941 16.0792C9.27796 15.9125 9.27384 15.6383 9.44048 15.4669L9.44506 15.4618C9.61193 15.2901 9.88616 15.2863 10.0576 15.4529C10.2293 15.6195 10.2334 15.8938 10.0668 16.0654L10.062 16.0703C9.97704 16.1577 9.86419 16.2016 9.75111 16.2016Z" fill="#5C73BC"/>
<path d="M22.7508 13.3601C22.6421 13.3601 22.5334 13.3196 22.4494 13.2379C22.2777 13.0712 22.2736 12.797 22.4402 12.6253L27.0895 7.83572C27.2561 7.66404 27.5304 7.65992 27.702 7.82656C27.8737 7.99321 27.8778 8.26744 27.7112 8.43911L23.0617 13.2287C22.9768 13.3162 22.8639 13.3601 22.7508 13.3601Z" fill="#FFAA00"/>
<path d="M21.1851 14.9781C21.073 14.9781 20.961 14.9348 20.8763 14.8485L20.8715 14.8437C20.7038 14.673 20.7063 14.3987 20.8768 14.2312C21.0476 14.0634 21.3218 14.0659 21.4894 14.2365L21.4942 14.2413C21.6617 14.412 21.6594 14.6863 21.4887 14.8538C21.4044 14.9367 21.2948 14.9781 21.1851 14.9781Z" fill="#FF4E61"/>
<path d="M20.1626 16.0315C20.0496 16.0315 19.9367 15.9876 19.8518 15.9001L19.847 15.8953C19.6806 15.7236 19.6845 15.4494 19.8561 15.2828C20.0278 15.1161 20.302 15.1202 20.4687 15.2917L20.4735 15.2965C20.6399 15.4682 20.636 15.7424 20.4643 15.9091C20.3801 15.9908 20.2714 16.0315 20.1626 16.0315Z" fill="#FFAA00"/>
<path d="M19.6691 6.83812C19.5963 6.83812 19.5226 6.81981 19.4551 6.78112C19.2472 6.66255 19.1749 6.39793 19.2935 6.19032L22.6256 0.350727C22.7442 0.14311 23.0086 0.0707764 23.2164 0.189349C23.4243 0.307922 23.4966 0.572536 23.378 0.780152L20.0459 6.61974C19.966 6.7596 19.8197 6.83812 19.6691 6.83812Z" fill="#62D38F"/>
<path d="M18.5482 8.80931C18.4724 8.80931 18.3959 8.78963 18.3261 8.74797L18.3204 8.74453C18.1153 8.62184 18.0482 8.35585 18.1712 8.15053C18.2938 7.94497 18.5598 7.87836 18.7652 8.00105L18.7709 8.00448C18.9762 8.12718 19.0431 8.39316 18.9204 8.59849C18.8391 8.73423 18.6956 8.80931 18.5482 8.80931Z" fill="#FFAA00"/>
<path d="M17.8152 10.0936C17.739 10.0936 17.6618 10.0734 17.592 10.0313L17.5863 10.0279C17.3814 9.90427 17.3155 9.63805 17.4389 9.43318C17.5625 9.22831 17.8287 9.16261 18.0336 9.28599L18.0393 9.28943C18.2442 9.41304 18.3101 9.67925 18.1865 9.88412C18.1052 10.0189 17.9619 10.0936 17.8152 10.0936Z" fill="#2DC471"/>
<path d="M10.2529 6.83817C10.1023 6.83817 9.95599 6.75965 9.8761 6.61956L6.54393 0.780202C6.42536 0.572356 6.49769 0.307971 6.70531 0.189398C6.91316 0.0708256 7.17777 0.142931 7.29634 0.350776L10.6285 6.19014C10.7471 6.39798 10.6747 6.6626 10.4671 6.78117C10.3994 6.81986 10.3257 6.83817 10.2529 6.83817Z" fill="#5C73BC"/>
<path d="M11.3738 8.80908C11.2269 8.80908 11.0833 8.73423 11.0021 8.59917C10.8789 8.39407 10.9453 8.12786 11.1502 8.00471L11.1561 8.00127C11.3612 7.87812 11.6272 7.94428 11.7504 8.14938C11.8737 8.35447 11.8074 8.62046 11.6023 8.74384L11.5965 8.74727C11.5267 8.78916 11.4498 8.80908 11.3738 8.80908Z" fill="#FF4E61"/>
<path d="M12.1068 10.0936C11.9603 10.0936 11.8174 10.0194 11.7359 9.88481C11.6119 9.68017 11.6773 9.41395 11.8817 9.28989L11.8875 9.28645C12.0923 9.16262 12.3586 9.22785 12.4826 9.4325C12.6065 9.63714 12.5412 9.90335 12.3366 10.0274L12.3309 10.0309C12.2606 10.0734 12.1832 10.0936 12.1068 10.0936Z" fill="#FFAA00"/>
<path d="M25.6165 20.9365L24.7068 21.6164C24.4711 21.7929 24.1412 21.6139 24.1488 21.3138L24.1783 20.1564C24.1813 20.0372 24.1273 19.9241 24.0336 19.8538L23.1249 19.1728C22.8891 18.9961 22.9523 18.6177 23.2318 18.5323L24.3095 18.2036C24.4203 18.1698 24.5082 18.0816 24.5439 17.9683L24.8918 16.8675C24.982 16.5818 25.351 16.5269 25.516 16.7744L26.1526 17.7287C26.2183 17.8269 26.3266 17.8857 26.4422 17.8857L27.5661 17.8864C27.8577 17.8866 28.0225 18.2311 27.8449 18.4694L27.1607 19.3878C27.0902 19.4825 27.0694 19.6068 27.1051 19.7201L27.4519 20.8216C27.5416 21.1073 27.2745 21.3751 26.9998 21.2749L25.9404 20.8882C25.8315 20.8484 25.7104 20.8665 25.6165 20.9365Z" fill="#FFD02F"/>
<path d="M17.3753 30.0031C17.1361 30.0031 16.9422 29.8092 16.9422 29.57C16.9422 26.2163 18.2801 23.949 19.4024 22.6374C20.623 21.2115 21.841 20.585 21.8922 20.5589C22.1056 20.4506 22.3663 20.536 22.4743 20.7496C22.5824 20.9627 22.4975 21.223 22.2843 21.3315C22.266 21.3408 21.1417 21.9271 20.036 23.2298C18.5578 24.9713 17.8083 27.1044 17.8083 29.57C17.8083 29.8092 17.6145 30.0031 17.3753 30.0031Z" fill="#FF4E61"/>
<path d="M8.07827 23.2846L8.76773 24.1991C8.94673 24.4363 9.31183 24.3591 9.38577 24.0686L9.67076 22.9486C9.70006 22.8335 9.78269 22.7403 9.89165 22.6998L10.9487 22.3068C11.223 22.2049 11.2646 21.8233 11.0195 21.6612L10.0736 21.0359C9.97634 20.9713 9.91591 20.8617 9.91202 20.7426L9.87585 19.5853C9.8667 19.2852 9.52723 19.1263 9.30176 19.3166L8.43215 20.05C8.34242 20.1255 8.22248 20.1509 8.11146 20.1177L7.03194 19.7954C6.75199 19.7119 6.50042 19.9953 6.60641 20.275L7.01477 21.3538C7.05689 21.4648 7.04316 21.5903 6.97815 21.6889L6.34706 22.6469C6.18339 22.8955 6.3672 23.2292 6.65837 23.2121L7.78023 23.1452C7.89583 23.1384 8.0073 23.1906 8.07827 23.2846Z" fill="#FFD02F"/>
<path d="M12.5417 30.003C12.3025 30.003 12.1086 29.8092 12.1086 29.57C12.1086 27.8085 11.7172 26.197 10.9453 24.7803C10.8309 24.5702 10.9085 24.3072 11.1186 24.1928C11.3287 24.0783 11.5917 24.1559 11.7062 24.3658C12.5479 25.9114 12.9748 27.6623 12.9748 29.57C12.9748 29.8092 12.7809 30.003 12.5417 30.003Z" fill="#FFAA00"/>
<path d="M17.8099 3.27565C17.8099 2.61434 17.2894 2.07825 16.6475 2.07825C16.0055 2.07825 15.4852 2.61434 15.4852 3.27565C15.4852 3.93695 16.0055 4.47328 16.6475 4.47328C17.2894 4.47328 17.8099 3.93695 17.8099 3.27565Z" fill="#FFD02F"/>
<path d="M23.9132 26.1831C23.9132 25.5218 23.3929 24.9857 22.7511 24.9857C22.109 24.9857 21.5887 25.5218 21.5887 26.1831C21.5887 26.8444 22.109 27.3805 22.7511 27.3805C23.3929 27.3805 23.9132 26.8444 23.9132 26.1831Z" fill="#5C73BC"/>
<path d="M4.63692 26.42C4.63692 25.8896 4.21963 25.4597 3.70459 25.4597C3.18978 25.4597 2.77249 25.8896 2.77249 26.42C2.77249 26.9506 3.18978 27.3805 3.70459 27.3805C4.21963 27.3805 4.63692 26.9506 4.63692 26.42Z" fill="#62D38F"/>
<path d="M7.21782 16.8973C7.21782 16.3669 6.80053 15.937 6.28549 15.937C5.77069 15.937 5.35339 16.3669 5.35339 16.8973C5.35339 17.4276 5.77069 17.8578 6.28549 17.8578C6.80053 17.8578 7.21782 17.4276 7.21782 16.8973Z" fill="#5C73BC"/>
<path d="M14.4061 0.960485C14.4061 0.429883 13.9888 0 13.474 0C12.959 0 12.5417 0.429883 12.5417 0.960485C12.5417 1.49086 12.959 1.92074 13.474 1.92074C13.9888 1.92074 14.4061 1.49086 14.4061 0.960485Z" fill="#FF4E61"/>
<path d="M23.4531 8.9589C23.4531 8.42853 23.0356 7.99841 22.5208 7.99841C22.006 7.99841 21.5884 8.42853 21.5884 8.9589C21.5884 9.48927 22.006 9.91915 22.5208 9.91915C23.0356 9.91915 23.4531 9.48927 23.4531 8.9589Z" fill="#FF4E61"/>
<path d="M10.2524 1.91895C10.1437 1.91895 10.0349 1.87843 9.95071 1.79649C9.77903 1.62984 9.77491 1.35584 9.94156 1.18417L10.4802 0.6293C10.6468 0.457622 10.921 0.453501 11.0925 0.620144C11.2642 0.786787 11.2683 1.06101 11.1016 1.23269L10.5633 1.78756C10.4783 1.875 10.3653 1.91895 10.2524 1.91895Z" fill="#FF4E61"/>
</g>
<defs>
<clipPath id="clip0">
<rect width="29.9444" height="30.003" fill="white"/>
</clipPath>
</defs>
</svg>
