<svg width="31" height="31" viewBox="0 0 31 31" fill="none" xmlns="http://www.w3.org/2000/svg">
<path d="M15.5969 12.981C15.5353 12.9739 15.4728 12.979 15.4132 12.9962C15.3536 13.0133 15.298 13.0421 15.2496 13.081C15.2011 13.1198 15.1609 13.1678 15.1312 13.2223C15.1015 13.2767 15.0829 13.3366 15.0765 13.3983L15.0015 14.1155C14.9916 14.2029 14.9573 14.2857 14.9026 14.3545C14.8479 14.4233 14.775 14.4753 14.6921 14.5046L11.5699 15.5922C11.4738 15.6257 11.3911 15.6895 11.3344 15.7741C11.2778 15.8587 11.2502 15.9594 11.2558 16.061V20.2474C11.2555 20.3091 11.2673 20.3702 11.2906 20.4274C11.314 20.4845 11.3483 20.5364 11.3918 20.5802L13.9327 23.1305C14.0131 23.2139 14.0599 23.3241 14.0639 23.4399V27.6591C14.0639 27.7834 14.0145 27.9026 13.9266 27.9906C13.8387 28.0785 13.7195 28.1279 13.5951 28.1279C13.4708 28.1279 13.3515 28.0785 13.2636 27.9906C13.1757 27.9026 13.1263 27.7834 13.1263 27.6591V23.829C13.1267 23.7673 13.1149 23.7061 13.0915 23.649C13.0682 23.5919 13.0338 23.54 12.9904 23.4962L10.276 20.7631C10.2322 20.7196 10.1803 20.6852 10.1232 20.6619C10.066 20.6386 10.0049 20.6268 9.94319 20.6271H8.90715C8.78282 20.6271 8.66358 20.6765 8.57566 20.7644C8.48774 20.8523 8.43835 20.9716 8.43835 21.0959V24.8463C8.43795 24.9235 8.41849 24.9994 8.38169 25.0673C8.34488 25.1352 8.29188 25.1929 8.2274 25.2354L4.00822 28.0482C3.90487 28.116 3.7789 28.1403 3.65773 28.1157C3.53657 28.0911 3.43002 28.0197 3.36128 27.9169C3.29343 27.8136 3.26916 27.6876 3.29374 27.5664C3.31833 27.4453 3.38978 27.3387 3.49254 27.27L7.2898 24.7338C7.35429 24.6913 7.40729 24.6336 7.44409 24.5657C7.4809 24.4978 7.50036 24.4219 7.50076 24.3447V21.0959C7.50076 20.9716 7.45137 20.8523 7.36345 20.7644C7.27554 20.6765 7.1563 20.6271 7.03196 20.6271C6.90763 20.6271 6.78839 20.6765 6.70047 20.7644C6.61256 20.8523 6.56317 20.9716 6.56317 21.0959V24.0915L2.97218 26.4871C2.72035 26.6541 2.52903 26.8978 2.42654 27.1821C2.32406 27.4664 2.31587 27.7761 2.40319 28.0654C2.49051 28.3547 2.66869 28.6082 2.91133 28.7883C3.15398 28.9685 3.44819 29.0656 3.75038 29.0655C4.0272 29.0656 4.29791 28.9841 4.52859 28.8311L8.74776 26.0183C8.94102 25.8899 9.09951 25.7157 9.20912 25.5112C9.31872 25.3067 9.37603 25.0783 9.37595 24.8463V21.5647H9.7463L12.1887 24.0212V27.6591C12.1887 28.0321 12.3369 28.3898 12.6007 28.6535C12.8644 28.9173 13.2221 29.0655 13.5951 29.0655C13.9681 29.0655 14.3258 28.9173 14.5896 28.6535C14.8533 28.3898 15.0015 28.0321 15.0015 27.6591V23.4399C15.0024 23.0677 14.8558 22.7103 14.5937 22.446L12.1887 20.0317V16.3704L15.0015 15.3907C15.2525 15.3038 15.4738 15.1476 15.6397 14.9402C15.8056 14.7328 15.9094 14.4826 15.9391 14.2187L16.0188 13.5014C16.0259 13.4394 16.0206 13.3766 16.0032 13.3167C15.9857 13.2568 15.9565 13.201 15.9172 13.1525C15.8779 13.1041 15.8294 13.0639 15.7743 13.0345C15.7193 13.005 15.659 12.9869 15.5969 12.981Z" fill="#787882"/>
<path d="M6.0381 18.7519L6.56315 18.3299V19.2206C6.56315 19.345 6.61254 19.4642 6.70046 19.5521C6.78838 19.6401 6.90762 19.6894 7.03195 19.6894C7.15628 19.6894 7.27552 19.6401 7.36344 19.5521C7.45136 19.4642 7.50075 19.345 7.50075 19.2206V17.3455C7.5005 17.2571 7.47528 17.1706 7.428 17.096C7.38072 17.0213 7.31331 16.9615 7.23353 16.9235C7.1578 16.8899 7.07453 16.877 6.99218 16.8861C6.90983 16.8951 6.83135 16.9259 6.76474 16.9751L5.48023 17.9971C5.43005 18.0374 5.3721 18.0669 5.30999 18.0839C5.24789 18.1008 5.18296 18.1048 5.11926 18.0955L2.30648 17.6689H2.23147C2.118 17.642 2.01863 17.5738 1.95275 17.4776C1.88687 17.3814 1.85921 17.2641 1.87518 17.1486C1.89495 17.0262 1.96237 16.9166 2.0627 16.8438C2.16199 16.7694 2.28674 16.7374 2.40961 16.7548L4.82392 17.1204C4.8873 17.1303 4.95204 17.1271 5.01413 17.111C5.07622 17.0949 5.13434 17.0662 5.18489 17.0267L7.59451 15.1093C7.71474 15.0584 7.84066 15.0222 7.96954 15.0015H8.43834C8.56267 15.0015 8.68191 14.9521 8.76983 14.8642C8.85775 14.7762 8.90714 14.657 8.90714 14.5327V14.3358C8.90746 14.2443 8.88099 14.1547 8.83101 14.0781C8.78103 14.0014 8.70972 13.9411 8.62586 13.9045C8.23102 13.7322 7.90755 13.4291 7.70986 13.0464C7.51216 12.6636 7.45228 12.2245 7.5403 11.8027C7.62832 11.381 7.85886 11.0025 8.19316 10.7307C8.52746 10.459 8.94513 10.3107 9.37593 10.3107C9.80674 10.3107 10.2244 10.459 10.5587 10.7307C10.893 11.0025 11.1235 11.381 11.2116 11.8027C11.2996 12.2245 11.2397 12.6636 11.042 13.0464C10.8443 13.4291 10.5209 13.7322 10.126 13.9045C10.0422 13.9411 9.97084 14.0014 9.92086 14.0781C9.87088 14.1547 9.84441 14.2443 9.84473 14.3358V14.5327C9.84473 14.657 9.89412 14.7762 9.98204 14.8642C10.07 14.9521 10.1892 15.0015 10.3135 15.0015H10.6042C10.7249 15.001 10.8407 14.954 10.9277 14.8702C10.9755 14.8225 11.0331 14.7858 11.0964 14.7624L13.8201 13.8248C13.9039 13.7962 13.9778 13.7445 14.0334 13.6756C14.089 13.6068 14.1239 13.5236 14.1342 13.4357L14.5327 9.79314C14.5468 9.67025 14.609 9.55793 14.7056 9.48066C14.8022 9.40338 14.9254 9.36742 15.0484 9.3806C15.1096 9.38709 15.1716 9.38145 15.2307 9.364C15.2897 9.34654 15.3448 9.31761 15.3927 9.27886C15.4406 9.24011 15.4804 9.19231 15.5098 9.13817C15.5392 9.08404 15.5576 9.02464 15.5641 8.96337C15.5772 8.84037 15.5413 8.71715 15.464 8.62056C15.3867 8.52397 15.2744 8.46183 15.1515 8.44769C14.9677 8.42683 14.7816 8.44244 14.6038 8.49361C14.4261 8.54479 14.2601 8.63054 14.1156 8.74594C13.971 8.86134 13.8506 9.00412 13.7613 9.16612C13.672 9.32812 13.6155 9.50615 13.5951 9.69L13.2248 13.0278L11.8512 13.4966C12.0957 13.0362 12.2075 12.5168 12.174 11.9965C12.1404 11.4762 11.963 10.9755 11.6614 10.5502C11.3598 10.1249 10.9459 9.79181 10.4659 9.58811C9.986 9.38441 9.4589 9.31811 8.94346 9.39662C8.42803 9.47512 7.94456 9.69534 7.54704 10.0327C7.14951 10.37 6.85356 10.8112 6.69224 11.307C6.53092 11.8028 6.51058 12.3337 6.63348 12.8404C6.75638 13.3471 7.01769 13.8096 7.38824 14.1764L7.15852 14.2655L7.05539 14.3264L4.75828 16.1547L2.54556 15.8219C2.19943 15.7745 1.84807 15.8577 1.5599 16.0552C1.27173 16.2527 1.06738 16.5504 0.986649 16.8903C0.905916 17.2302 0.954578 17.588 1.12316 17.8939C1.29174 18.1999 1.56817 18.4322 1.89862 18.5456C1.97231 18.5693 2.04748 18.5881 2.12365 18.6018L4.93643 19.0284C5.1292 19.0615 5.32674 19.0539 5.51643 19.0063C5.70612 18.9587 5.88379 18.872 6.0381 18.7519Z" fill="#787882"/>
<path d="M28.5685 5.02079C28.4138 4.88498 28.2312 4.78479 28.0336 4.72727C27.8359 4.66976 27.6281 4.65634 27.4246 4.68795C27.0885 4.75323 26.7863 4.93549 26.5718 5.20239C26.3572 5.46929 26.2442 5.80357 26.2527 6.14591V12.1887H25.0666C25.3464 11.8728 25.5522 11.4985 25.669 11.093C25.7858 10.6875 25.8106 10.261 25.7417 9.84471C25.6448 9.29528 25.3867 8.78707 25.0002 8.38471C24.6137 7.98235 24.1162 7.70402 23.5711 7.58511C23.1584 7.49793 22.7315 7.5036 22.3212 7.60171C21.911 7.69981 21.5277 7.8879 21.199 8.15236C20.6929 8.56309 20.3451 9.13687 20.2151 9.77561C20.0852 10.4144 20.1811 11.0784 20.4865 11.6543L19.1129 11.1855L18.7472 7.9039C18.7207 7.54665 18.5628 7.21189 18.3039 6.96428C18.045 6.71666 17.7036 6.57375 17.3455 6.56314C17.1489 6.56419 16.9547 6.60646 16.7755 6.6872C16.5962 6.76795 16.4359 6.88539 16.3048 7.03193C16.1702 7.17788 16.068 7.35066 16.005 7.53893C15.942 7.72719 15.9195 7.92667 15.9391 8.12423L16.4079 12.3434C16.4376 12.6074 16.5414 12.8575 16.7073 13.0649C16.8732 13.2723 17.0945 13.4285 17.3455 13.5154L20.1583 14.4952V18.1565L17.7534 20.5708C17.4913 20.8351 17.3446 21.1924 17.3455 21.5646V25.7322C17.337 26.0746 17.4501 26.4089 17.6646 26.6758C17.8792 26.9427 18.1813 27.1249 18.5175 27.1902C18.7208 27.2246 18.9292 27.2139 19.1279 27.1587C19.3266 27.1036 19.5108 27.0055 19.6673 26.8713C19.8239 26.7371 19.949 26.5702 20.0338 26.3822C20.1187 26.1943 20.1612 25.99 20.1583 25.7838V22.146L22.6007 19.6895H22.9711V27.6074C22.9626 27.9498 23.0756 28.2841 23.2902 28.551C23.5047 28.8179 23.8069 29.0001 24.1431 29.0654C24.221 29.0724 24.2995 29.0724 24.3775 29.0654C24.7505 29.0654 25.1082 28.9172 25.3719 28.6535C25.6357 28.3897 25.7839 28.032 25.7839 27.659V16.4079C25.7839 16.2835 25.7345 16.1643 25.6466 16.0764C25.5586 15.9885 25.4394 15.9391 25.3151 15.9391C25.1907 15.9391 25.0715 15.9885 24.9836 16.0764C24.8957 16.1643 24.8463 16.2835 24.8463 16.4079V27.659C24.8473 27.7279 24.8331 27.7961 24.8047 27.8589C24.7763 27.9217 24.7345 27.9774 24.6821 28.0222C24.6297 28.067 24.5681 28.0996 24.5017 28.1179C24.4353 28.1361 24.3657 28.1395 24.2978 28.1278C24.1834 28.0998 24.0823 28.0332 24.0114 27.9392C23.9405 27.8453 23.9042 27.7297 23.9087 27.6121V19.2207C23.9087 19.0963 23.8593 18.9771 23.7714 18.8892C23.6834 18.8012 23.5642 18.7519 23.4399 18.7519H22.4038C22.3421 18.7515 22.281 18.7633 22.2239 18.7867C22.1667 18.81 22.1148 18.8444 22.071 18.8878L19.3567 21.6209C19.3132 21.6647 19.2788 21.7167 19.2555 21.7738C19.2322 21.8309 19.2203 21.892 19.2207 21.9537V25.7838C19.2217 25.8527 19.2075 25.921 19.1791 25.9837C19.1508 26.0465 19.1089 26.1023 19.0565 26.147C19.0042 26.1918 18.9426 26.2244 18.8762 26.2427C18.8097 26.2609 18.7401 26.2643 18.6722 26.2526C18.5579 26.2246 18.4567 26.158 18.3858 26.0641C18.3149 25.9701 18.2786 25.8546 18.2831 25.7369V21.5646C18.2827 21.5029 18.2946 21.4418 18.3179 21.3847C18.3412 21.3275 18.3756 21.2756 18.4191 21.2318L20.9599 18.6815C21.0034 18.6377 21.0378 18.5858 21.0611 18.5287C21.0844 18.4715 21.0962 18.4104 21.0959 18.3487V14.1623C21.0965 14.0646 21.0665 13.9692 21.0102 13.8893C20.9539 13.8095 20.874 13.7492 20.7818 13.717L17.6596 12.6294C17.5767 12.6 17.5038 12.548 17.4491 12.4792C17.3944 12.4104 17.3601 12.3276 17.3502 12.2403L16.8814 8.02109C16.8741 7.95641 16.8803 7.89091 16.8997 7.82876C16.919 7.76661 16.9511 7.70918 16.9939 7.66012C17.0378 7.61011 17.0919 7.57004 17.1525 7.54255C17.2132 7.51507 17.279 7.50081 17.3455 7.50073C17.466 7.51218 17.5787 7.56525 17.6642 7.65081C17.7498 7.73637 17.8029 7.84907 17.8143 7.96953L18.2081 11.5511C18.2184 11.639 18.2534 11.7222 18.3089 11.7911C18.3645 11.8599 18.4385 11.9116 18.5222 11.9402L21.2459 12.8778C21.3093 12.9012 21.3668 12.938 21.4147 12.9857C21.5016 13.0694 21.6174 13.1164 21.7381 13.1169H22.0335C22.1578 13.1169 22.2771 13.0675 22.365 12.9796C22.4529 12.8917 22.5023 12.7725 22.5023 12.6481V12.4512C22.5026 12.3597 22.4761 12.2701 22.4262 12.1935C22.3762 12.1169 22.3049 12.0565 22.221 12.0199C21.8262 11.8476 21.5027 11.5446 21.305 11.1618C21.1073 10.7791 21.0474 10.3399 21.1354 9.91817C21.2235 9.49646 21.454 9.1179 21.7883 8.84617C22.1226 8.57444 22.5403 8.42611 22.9711 8.42611C23.4019 8.42611 23.8196 8.57444 24.1539 8.84617C24.4882 9.1179 24.7187 9.49646 24.8067 9.91817C24.8947 10.3399 24.8349 10.7791 24.6372 11.1618C24.4395 11.5446 24.116 11.8476 23.7212 12.0199C23.6373 12.0565 23.566 12.1169 23.516 12.1935C23.466 12.2701 23.4396 12.3597 23.4399 12.4512V12.6575C23.4399 12.7818 23.4893 12.9011 23.5772 12.989C23.6651 13.0769 23.7843 13.1263 23.9087 13.1263H26.2527C26.5013 13.1263 26.7398 13.0275 26.9156 12.8517C27.0915 12.6758 27.1903 12.4374 27.1903 12.1887V6.14591C27.1856 6.02892 27.2212 5.91387 27.2911 5.82C27.3611 5.72613 27.4612 5.65914 27.5747 5.63023C27.6435 5.61808 27.7141 5.62145 27.7814 5.6401C27.8487 5.65876 27.911 5.69222 27.9638 5.73805C28.0152 5.78207 28.0565 5.83671 28.0849 5.89821C28.1132 5.95971 28.1278 6.02662 28.1278 6.09434V12.1887C28.1278 12.686 27.9303 13.163 27.5786 13.5147C27.2269 13.8663 26.75 14.0639 26.2527 14.0639H25.3151C25.1907 14.0639 25.0715 14.1133 24.9836 14.2012C24.8957 14.2891 24.8463 14.4084 24.8463 14.5327C24.8463 14.657 24.8957 14.7763 24.9836 14.8642C25.0715 14.9521 25.1907 15.0015 25.3151 15.0015H26.2527C26.9987 15.0015 27.7141 14.7051 28.2416 14.1776C28.7691 13.6501 29.0654 12.9347 29.0654 12.1887V6.09434C29.0656 5.89004 29.0212 5.68817 28.9353 5.50278C28.8495 5.31738 28.7243 5.1529 28.5685 5.02079Z" fill="#787882"/>
<path d="M2.344 6.56319C2.717 6.56319 3.07472 6.41501 3.33847 6.15126C3.60222 5.88751 3.75039 5.52979 3.75039 5.1568V3.7504H6.56317V4.77238C6.28154 4.67281 5.97553 4.6655 5.68946 4.7515C5.4034 4.8375 5.15215 5.01236 4.97212 5.25072C4.79209 5.48908 4.69263 5.77858 4.68815 6.07726C4.68367 6.37594 4.77441 6.66828 4.94721 6.91194C5.12002 7.15559 5.36591 7.3379 5.64927 7.43244C5.93262 7.52698 6.23872 7.52884 6.52321 7.43776C6.8077 7.34668 7.05579 7.16738 7.23155 6.92585C7.40731 6.68432 7.50161 6.3931 7.50077 6.09439V1.40642C7.50077 1.28209 7.45138 1.16285 7.36346 1.07493C7.27554 0.987013 7.1563 0.937622 7.03197 0.937622H3.28159C3.15726 0.937622 3.03802 0.987013 2.9501 1.07493C2.86219 1.16285 2.8128 1.28209 2.8128 1.40642V3.83479C2.61937 3.7646 2.41289 3.73772 2.20794 3.75603C2.00299 3.77434 1.80455 3.8374 1.62663 3.94076C1.44871 4.04412 1.29563 4.18526 1.1782 4.35423C1.06077 4.5232 0.981853 4.71588 0.947008 4.91868C0.912164 5.12148 0.922243 5.32945 0.976537 5.52792C1.03083 5.7264 1.12801 5.91054 1.26123 6.06737C1.39445 6.22419 1.56046 6.34987 1.74755 6.43554C1.93463 6.52121 2.13824 6.56478 2.344 6.56319ZM6.09438 6.56319C6.00166 6.56319 5.91102 6.53569 5.83393 6.48418C5.75683 6.43267 5.69675 6.35945 5.66126 6.27379C5.62578 6.18813 5.6165 6.09387 5.63459 6.00293C5.65267 5.91199 5.69732 5.82846 5.76289 5.7629C5.82845 5.69734 5.91198 5.65269 6.00292 5.6346C6.09385 5.61651 6.18811 5.6258 6.27378 5.66128C6.35944 5.69676 6.43265 5.75685 6.48417 5.83394C6.53568 5.91103 6.56317 6.00167 6.56317 6.09439C6.56317 6.21872 6.51378 6.33796 6.42586 6.42588C6.33795 6.5138 6.21871 6.56319 6.09438 6.56319ZM3.75039 1.87522H6.56317V2.81281H3.75039V1.87522ZM2.344 4.688C2.43672 4.688 2.52736 4.71549 2.60445 4.767C2.68154 4.81852 2.74163 4.89173 2.77711 4.97739C2.81259 5.06306 2.82188 5.15732 2.80379 5.24825C2.7857 5.33919 2.74105 5.42272 2.67549 5.48828C2.60993 5.55385 2.52639 5.5985 2.43546 5.61658C2.34452 5.63467 2.25026 5.62539 2.1646 5.58991C2.07894 5.55443 2.00572 5.49434 1.95421 5.41725C1.9027 5.34015 1.8752 5.24951 1.8752 5.1568C1.8752 5.03246 1.92459 4.91322 2.01251 4.82531C2.10043 4.73739 2.21967 4.688 2.344 4.688Z" fill="#787882"/>
<path d="M19.3426 6.03808C19.5669 6.18491 19.8292 6.26311 20.0973 6.26311C20.3327 6.26155 20.5641 6.20269 20.7716 6.0916C20.979 5.98051 21.1563 5.82055 21.2881 5.62554L22.5445 3.64722L24.5228 4.90828C24.5982 4.95702 24.6861 4.98306 24.7759 4.98329C24.8544 4.98316 24.9315 4.96335 25.0003 4.92567C25.0691 4.888 25.1274 4.83366 25.1697 4.76764L26.1776 3.18311C26.2151 3.12996 26.2412 3.06959 26.2541 3.00583C26.267 2.94207 26.2665 2.87632 26.2526 2.81276C26.2237 2.69178 26.15 2.58626 26.0464 2.51742L23.6649 1.01258C23.5604 0.945614 23.4336 0.922814 23.3123 0.949178C23.1911 0.975542 23.0852 1.04892 23.0179 1.15322L22.0335 2.73306L21.2084 3.99413C21.1112 3.8664 20.9922 3.75688 20.8568 3.67066C20.5432 3.48836 20.1714 3.43423 19.8189 3.51958C19.4664 3.60492 19.1605 3.82315 18.9651 4.12868C18.7697 4.43422 18.6998 4.80343 18.7702 5.15923C18.8405 5.51503 19.0456 5.8299 19.3426 6.03808ZM23.5617 2.05331L25.1416 3.06122L24.6306 3.85349L23.0508 2.84558L23.5617 2.05331ZM19.6895 4.60356C19.7323 4.53687 19.7913 4.48212 19.8609 4.4444C19.9306 4.40669 20.0087 4.38726 20.088 4.38792C20.1771 4.38867 20.2644 4.41293 20.3411 4.45824C20.4447 4.52619 20.5172 4.63237 20.5427 4.75358C20.5695 4.87423 20.5476 5.00059 20.4817 5.10518C20.4488 5.1572 20.406 5.20223 20.3556 5.23769C20.3053 5.27316 20.2485 5.29835 20.1884 5.31185C20.1283 5.32535 20.0662 5.32687 20.0055 5.31635C19.9448 5.30582 19.8868 5.28345 19.8348 5.2505C19.7828 5.21757 19.7377 5.17472 19.7023 5.12438C19.6668 5.07404 19.6416 5.01721 19.6281 4.95714C19.6146 4.89706 19.6131 4.83492 19.6236 4.77425C19.6342 4.71358 19.6565 4.65558 19.6895 4.60356Z" fill="#787882"/>
<path d="M10.3135 5.31147C10.3818 5.6241 10.5546 5.90411 10.8035 6.10526C11.0524 6.3064 11.3624 6.41666 11.6824 6.41783C11.7848 6.41618 11.8868 6.4052 11.9871 6.38501C12.3506 6.30498 12.6675 6.08415 12.8685 5.77089L14.3827 3.39878C14.4497 3.29429 14.4725 3.16751 14.4461 3.04624C14.4197 2.92496 14.3464 2.81909 14.2421 2.75184C14.1376 2.68487 14.0108 2.66207 13.8895 2.68844C13.7682 2.7148 13.6624 2.78818 13.5951 2.89248L12.7888 4.14885C12.6931 4.0214 12.5757 3.91189 12.4419 3.82538C12.1278 3.62492 11.7471 3.55726 11.3832 3.63724C11.0194 3.71722 10.7021 3.93831 10.5011 4.25199C10.3996 4.40665 10.3307 4.58033 10.2984 4.76246C10.2662 4.94459 10.2713 5.13138 10.3135 5.31147ZM11.2886 4.75829C11.3218 4.70613 11.365 4.66105 11.4157 4.62565C11.4664 4.59025 11.5236 4.56523 11.584 4.55202C11.6182 4.54714 11.6529 4.54714 11.6871 4.55202C11.7705 4.55268 11.8522 4.57557 11.9237 4.61831C11.9953 4.66105 12.0542 4.72211 12.0943 4.79519C12.1344 4.86826 12.1543 4.95072 12.152 5.03405C12.1496 5.11739 12.1251 5.19858 12.0809 5.26928C12.0477 5.32144 12.0045 5.36651 11.9538 5.40191C11.9031 5.43731 11.846 5.46234 11.7856 5.47555C11.6953 5.49533 11.6012 5.48797 11.515 5.45442C11.4289 5.42087 11.3547 5.3626 11.3015 5.28696C11.2484 5.21131 11.2189 5.12166 11.2166 5.02926C11.2143 4.93687 11.2394 4.84586 11.2886 4.76766V4.75829Z" fill="#787882"/>
<path d="M16.8767 4.6879C17.001 4.6879 17.1203 4.63851 17.2082 4.5506C17.2961 4.46268 17.3455 4.34344 17.3455 4.21911V2.34392C17.3455 2.21959 17.2961 2.10035 17.2082 2.01243C17.1203 1.92451 17.001 1.87512 16.8767 1.87512C16.7524 1.87512 16.6331 1.92451 16.5452 2.01243C16.4573 2.10035 16.4079 2.21959 16.4079 2.34392V4.21911C16.4079 4.34344 16.4573 4.46268 16.5452 4.5506C16.6331 4.63851 16.7524 4.6879 16.8767 4.6879Z" fill="#787882"/>
<path d="M2.34399 10.3135V11.7199C2.34399 11.8442 2.39339 11.9635 2.4813 12.0514C2.56922 12.1393 2.68846 12.1887 2.81279 12.1887C2.93712 12.1887 3.05636 12.1393 3.14428 12.0514C3.2322 11.9635 3.28159 11.8442 3.28159 11.7199V10.3135C3.28159 10.1892 3.2322 10.07 3.14428 9.98203C3.05636 9.89412 2.93712 9.84473 2.81279 9.84473C2.68846 9.84473 2.56922 9.89412 2.4813 9.98203C2.39339 10.07 2.34399 10.1892 2.34399 10.3135Z" fill="#787882"/>
<path d="M12.1887 8.90708C12.4476 8.90708 12.6575 8.69719 12.6575 8.43828C12.6575 8.17937 12.4476 7.96948 12.1887 7.96948C11.9298 7.96948 11.7199 8.17937 11.7199 8.43828C11.7199 8.69719 11.9298 8.90708 12.1887 8.90708Z" fill="#787882"/>
<path d="M9.84474 2.34397C10.1037 2.34397 10.3135 2.13408 10.3135 1.87517C10.3135 1.61626 10.1037 1.40637 9.84474 1.40637C9.58583 1.40637 9.37595 1.61626 9.37595 1.87517C9.37595 2.13408 9.58583 2.34397 9.84474 2.34397Z" fill="#787882"/>
</svg>
