<svg width="32" height="32" viewBox="0 0 32 32" fill="none" xmlns="http://www.w3.org/2000/svg">
<path d="M20.9836 27.2786C20.9836 28.1478 21.6882 28.8524 22.5574 28.8524C23.4266 28.8524 24.1312 28.1478 24.1312 27.2786C24.1312 26.4094 23.4266 25.7048 22.5574 25.7048C21.6882 25.7048 20.9836 26.4094 20.9836 27.2786ZM23.082 27.2786C23.082 27.5683 22.8471 27.8032 22.5574 27.8032C22.2677 27.8032 22.0328 27.5683 22.0328 27.2786C22.0328 26.9889 22.2677 26.754 22.5574 26.754C22.8471 26.754 23.082 26.9889 23.082 27.2786Z" fill="#787882"/>
<path d="M28.3279 8.39353H22.5574V7.86894C22.5574 6.99977 21.8528 6.29517 20.9836 6.29517H19.9344C19.0652 6.29517 18.3606 6.99977 18.3606 7.86894V8.39353H16.2623V7.86894C16.2623 6.99977 15.5577 6.29517 14.6885 6.29517H13.6393C12.7702 6.29517 12.0656 6.99977 12.0656 7.86894V8.39353H9.9672V7.86894C9.9672 6.99977 9.26259 6.29517 8.39342 6.29517H7.34424C6.47507 6.29517 5.77047 6.99977 5.77047 7.86894V8.39353H4.1967C3.90698 8.39353 3.67211 8.62839 3.67211 8.91812C3.67211 9.20784 3.90698 9.44271 4.1967 9.44271H5.77047V9.9673C5.77221 10.1464 5.80487 10.3239 5.867 10.4919H3.14752C2.56808 10.4919 2.09834 10.9616 2.09834 11.5411V14.164C2.10257 16.6154 3.65374 18.797 5.96772 19.6061L3.20261 29.5062C2.97083 30.3446 3.46264 31.2122 4.3011 31.444C5.13956 31.6758 6.00715 31.184 6.23893 30.3455L6.6586 28.851H18.6717C19.4334 30.7415 21.4433 31.8114 23.437 31.3876C25.4306 30.9638 26.8316 29.1688 26.7584 27.132C26.6852 25.0951 25.1591 23.4052 23.1402 23.1256L22.2688 19.6386C24.6297 18.8564 26.2252 16.6511 26.2295 14.164V11.5411C26.2295 10.9616 25.7598 10.4919 25.1803 10.4919H22.4608C22.523 10.3239 22.5556 10.1464 22.5574 9.9673V9.44271H28.3279C28.6176 9.44271 28.8524 9.67757 28.8524 9.9673C28.8524 10.257 28.6176 10.4919 28.3279 10.4919H27.8033C27.5135 10.4919 27.2787 10.7268 27.2787 11.0165C27.2787 11.3062 27.5135 11.5411 27.8033 11.5411H28.3279C29.197 11.5411 29.9016 10.8365 29.9016 9.9673C29.9016 9.09813 29.197 8.39353 28.3279 8.39353ZM18.3606 9.44271V9.9673C18.3624 10.1464 18.395 10.3239 18.4572 10.4919H16.1658C16.2279 10.3239 16.2605 10.1464 16.2623 9.9673V9.44271H18.3606ZM13.1147 7.86894C13.1147 7.57921 13.3496 7.34435 13.6393 7.34435H14.6885C14.9782 7.34435 15.2131 7.57921 15.2131 7.86894V9.9673C15.2131 10.257 14.9782 10.4919 14.6885 10.4919H13.6393C13.3496 10.4919 13.1147 10.257 13.1147 9.9673V7.86894ZM12.0656 9.44271V9.9673C12.0673 10.1464 12.0999 10.3239 12.1621 10.4919H9.87067C9.9328 10.3239 9.96546 10.1464 9.9672 9.9673V9.44271H12.0656ZM6.81965 9.9673V7.86894C6.81965 7.57921 7.05452 7.34435 7.34424 7.34435H8.39342C8.68315 7.34435 8.91801 7.57921 8.91801 7.86894V9.9673C8.91801 10.257 8.68315 10.4919 8.39342 10.4919H7.34424C7.05452 10.4919 6.81965 10.257 6.81965 9.9673ZM6.25834 27.8034C6.02299 27.8034 5.81647 27.9602 5.75316 28.1868L5.22857 30.0643C5.16683 30.2936 4.95876 30.4529 4.72129 30.4525C4.55826 30.4489 4.40576 30.3712 4.30702 30.2414C4.20828 30.1116 4.17404 29.9439 4.21402 29.7858L6.98647 19.86C7.27825 19.9075 7.57324 19.9324 7.86883 19.9345H8.05874L6.34018 26.0885C6.29602 26.2466 6.32841 26.4162 6.4277 26.5469C6.52699 26.6776 6.68174 26.7543 6.84588 26.7542H18.3968C18.3486 27.1022 18.3486 27.4553 18.3968 27.8034H6.25834ZM19.0998 19.9345L20.0876 23.8936C19.4559 24.3541 18.965 24.9813 18.6696 25.705H7.53677L9.14831 19.9345H19.0998ZM25.7049 27.2788C25.7049 29.0171 24.2957 30.4263 22.5574 30.4263C20.819 30.4263 19.4098 29.0171 19.4098 27.2788C19.4098 25.5404 20.819 24.1312 22.5574 24.1312C24.295 24.133 25.7032 25.5412 25.7049 27.2788ZM22.0538 23.1151C21.7058 23.1575 21.3646 23.2435 21.0381 23.3711L20.181 19.9345H20.459C20.7223 19.9325 20.9853 19.9125 21.2459 19.8747L22.0538 23.1151ZM25.1803 12.5902H7.86883C7.57911 12.5902 7.34424 12.8251 7.34424 13.1148C7.34424 13.4046 7.57911 13.6394 7.86883 13.6394H25.1803V14.164C25.1771 16.7702 23.0652 18.8821 20.459 18.8853H7.86883C5.26264 18.8821 3.1507 16.7702 3.14752 14.164V13.6394H5.77047C6.0602 13.6394 6.29506 13.4046 6.29506 13.1148C6.29506 12.8251 6.0602 12.5902 5.77047 12.5902H3.14752V11.5411H25.1803V12.5902ZM19.9344 10.4919C19.6447 10.4919 19.4098 10.257 19.4098 9.9673V7.86894C19.4098 7.57921 19.6447 7.34435 19.9344 7.34435H20.9836C21.2733 7.34435 21.5082 7.57921 21.5082 7.86894V9.9673C21.5082 10.257 21.2733 10.4919 20.9836 10.4919H19.9344Z" fill="#787882"/>
<path d="M14.1639 1.04918C14.4536 1.04918 14.6885 0.814313 14.6885 0.52459C14.6885 0.234867 14.4536 0 14.1639 0C13.3818 0 12.5901 0.720787 12.5901 2.09836C12.6582 2.76489 12.9985 3.3737 13.5307 3.78072C13.8565 4.10649 14.1639 4.4139 14.1639 4.72131C14.1639 5.01103 14.3988 5.2459 14.6885 5.2459C14.9782 5.2459 15.2131 5.01103 15.2131 4.72131C15.1451 4.05478 14.8047 3.44597 14.2725 3.03895C13.9467 2.71318 13.6393 2.40577 13.6393 2.09836C13.6393 1.41639 13.9095 1.04918 14.1639 1.04918Z" fill="#787882"/>
<path d="M20.459 1.04918C20.7487 1.04918 20.9836 0.814313 20.9836 0.52459C20.9836 0.234867 20.7487 0 20.459 0C19.6769 0 18.8853 0.720787 18.8853 2.09836C18.9533 2.76489 19.2937 3.3737 19.8258 3.78072C20.1516 4.10649 20.459 4.4139 20.459 4.72131C20.459 5.01103 20.6939 5.2459 20.9836 5.2459C21.2733 5.2459 21.5082 5.01103 21.5082 4.72131C21.4402 4.05478 21.0998 3.44597 20.5676 3.03895C20.2418 2.71318 19.9344 2.40577 19.9344 2.09836C19.9344 1.41639 20.2046 1.04918 20.459 1.04918Z" fill="#787882"/>
<path d="M7.86884 1.04918C8.15857 1.04918 8.39343 0.814313 8.39343 0.52459C8.39343 0.234867 8.15857 0 7.86884 0C7.08668 0 6.29507 0.720787 6.29507 2.09836C6.36309 2.76489 6.70347 3.3737 7.23566 3.78072C7.56143 4.10649 7.86884 4.4139 7.86884 4.72131C7.86884 5.01103 8.10371 5.2459 8.39343 5.2459C8.68316 5.2459 8.91802 5.01103 8.91802 4.72131C8.85001 4.05478 8.50963 3.44597 7.97743 3.03895C7.65166 2.71318 7.34425 2.40577 7.34425 2.09836C7.34425 1.41639 7.61442 1.04918 7.86884 1.04918Z" fill="#787882"/>
</svg>
