<svg width="28" height="28" viewBox="0 0 28 28" fill="none" xmlns="http://www.w3.org/2000/svg">
<g clip-path="url(#clip0)">
<path d="M2.43163 25.1501H2.42682C2.18532 25.1501 1.99194 25.3457 1.99194 25.5876C1.99194 25.8296 2.18969 26.0251 2.43163 26.0251C2.67313 26.0251 2.86913 25.8296 2.86913 25.5876C2.86913 25.3457 2.67269 25.1501 2.43163 25.1501Z" fill="#787882"/>
<path d="M21.6366 0.494031C21.6361 0.494468 21.6361 0.494906 21.6357 0.495343L16.8153 5.31572C15.9639 6.16841 15.9639 7.55659 16.8157 8.41016L17.4326 9.02659L14.0031 12.4562L10.1846 8.63722C10.3569 8.25047 10.4501 7.82959 10.4497 7.39341C10.4497 6.58403 10.1364 5.82322 9.56944 5.24834C9.56419 5.24266 9.56244 5.23522 9.55719 5.22953L4.60818 0.280531C4.59637 0.268718 4.58018 0.263468 4.56706 0.252968C4.543 0.233718 4.51937 0.216656 4.49181 0.203093C4.46468 0.189968 4.438 0.181218 4.40956 0.174218C4.3925 0.169406 4.37893 0.159343 4.361 0.156718L3.2795 0.000530622C3.25893 -0.00253188 3.24056 0.00403062 3.22043 0.00403062C3.19856 0.00403062 3.178 -0.00296938 3.15568 0.000530622C3.14606 0.00184312 3.13906 0.00796812 3.12987 0.00928062C3.10318 0.0154056 3.07956 0.0263431 3.05462 0.0364056C3.02575 0.0482181 2.99775 0.0591556 2.97237 0.0762181C2.95268 0.0897806 2.93737 0.106843 2.91987 0.123468C2.89668 0.145781 2.87437 0.166343 2.85643 0.192593C2.84287 0.213593 2.83456 0.237218 2.82406 0.260843C2.81137 0.288843 2.79868 0.316406 2.79256 0.347031C2.79081 0.356218 2.78512 0.362343 2.78381 0.371531C2.78075 0.393406 2.78731 0.413531 2.78731 0.434531C2.78731 0.455531 2.78075 0.474781 2.78381 0.495781L2.93781 1.57947C2.94087 1.59828 2.9505 1.61447 2.95618 1.63328C2.96231 1.65734 2.96843 1.68009 2.97937 1.70284C2.99468 1.73434 3.01481 1.76191 3.03625 1.78816C3.04631 1.80041 3.05068 1.81572 3.06206 1.82666L7.08225 5.84684C7.42262 6.18766 7.42262 6.7424 7.08268 7.08278C6.74143 7.42359 6.18712 7.42316 5.84587 7.08322L1.82612 3.06347C1.81256 3.04947 1.79418 3.04378 1.77887 3.03241C1.75787 3.01578 1.73731 3.00047 1.71281 2.98822C1.68306 2.97291 1.65243 2.96328 1.62093 2.95541C1.60606 2.95191 1.59381 2.94272 1.57806 2.94053L0.49656 2.78391C0.474685 2.78041 0.45456 2.78697 0.43356 2.78697C0.41256 2.78697 0.39331 2.78041 0.37231 2.78347C0.364435 2.78478 0.359185 2.78959 0.351747 2.79091C0.31631 2.79791 0.28481 2.81103 0.252435 2.82591C0.233185 2.83509 0.21306 2.84209 0.195122 2.85391C0.167997 2.87141 0.146997 2.89416 0.124685 2.91734C0.107185 2.93572 0.0896849 2.95191 0.0752474 2.97247C0.0599349 2.99522 0.0503099 3.02059 0.0398099 3.04641C0.0275599 3.07397 0.0157474 3.10109 0.00918488 3.13128C0.00787238 3.13959 0.00262238 3.14572 0.00130988 3.15447C-0.00175262 3.17503 0.00480988 3.19428 0.00480988 3.21441C0.00437238 3.23584 -0.00219012 3.25597 0.000872381 3.27828L0.154872 4.36241C0.158372 4.38472 0.16931 4.40309 0.175435 4.42409C0.18156 4.44422 0.186372 4.46347 0.195122 4.48316C0.212185 4.51903 0.234497 4.55009 0.259435 4.57984C0.267747 4.58903 0.270372 4.60128 0.27956 4.61003L5.229 9.55947C5.23512 9.56559 5.243 9.56778 5.24956 9.57303C5.82443 10.1392 6.58437 10.452 7.39244 10.4524H7.39331C7.8295 10.4524 8.25081 10.3588 8.63756 10.1868L12.4561 14.0049L10.0887 16.3727C9.91768 16.202 9.64206 16.2025 9.471 16.3731L8.85237 16.9922L8.54218 16.6824C8.37112 16.5113 8.09462 16.5113 7.92356 16.6824L0.719247 23.8854C0.71881 23.8858 0.718372 23.8858 0.717935 23.8863C0.26031 24.3439 0.00655988 24.9507 0.00305988 25.5952C-2.61929e-06 26.2413 0.248935 26.8482 0.703935 27.3032C1.17031 27.7695 1.78412 28.0032 2.39968 28.0027C3.02181 28.0027 3.64568 27.7647 4.12125 27.2892C4.12212 27.2883 4.12212 27.2874 4.123 27.2865L11.3264 20.0835C11.4975 19.9125 11.4975 19.636 11.3264 19.4649L11.0167 19.1556L11.6357 18.5374C11.7211 18.4521 11.7639 18.3401 11.7639 18.2277C11.7639 18.2207 11.7604 18.215 11.76 18.208C11.7552 18.103 11.7158 17.9984 11.6362 17.9183L14.0035 15.5515L16.1297 17.6777C15.9591 17.8488 15.9591 18.1248 16.1302 18.2959L16.7492 18.915L16.4395 19.2247C16.2684 19.3958 16.2684 19.6723 16.4395 19.8433L23.8761 27.28C23.877 27.2808 23.877 27.2817 23.8779 27.2826C24.3534 27.7582 24.9769 27.9962 25.599 27.9962C26.2146 27.9962 26.8288 27.763 27.2952 27.2962C28.2336 26.3577 28.2275 24.8252 27.2816 23.8788C27.2807 23.878 27.2799 23.878 27.279 23.8771L19.8424 16.4396C19.6713 16.2685 19.3948 16.2685 19.2237 16.4396L18.9136 16.7498L18.2949 16.1303C18.1239 15.9592 17.8478 15.9592 17.6767 16.1298L15.5514 14.004L18.9814 10.574L19.6009 11.1935C20.0121 11.6048 20.5616 11.8318 21.147 11.8318C21.7324 11.8318 22.2819 11.6048 22.6931 11.1935L27.5148 6.37184C27.5148 6.37184 27.5148 6.37184 27.5148 6.37141H27.5152C28.0919 5.79303 28.6781 4.44072 26.1209 1.88397C23.5655 -0.670594 22.2149 -0.0825944 21.6366 0.494031ZM7.39244 9.57697C6.80925 9.57697 6.26106 9.34947 5.84894 8.93691C5.84456 8.93209 5.83843 8.93078 5.83362 8.92684L1.00056 4.09334L0.949372 3.73284L1.31075 3.78534L5.22681 7.70184L5.22768 7.70272C5.22812 7.70316 5.22856 7.70316 5.22856 7.70359C5.56893 8.04309 6.01606 8.21284 6.46318 8.21284C6.91075 8.21284 7.35919 8.04266 7.70044 7.70184C8.38206 7.01978 8.3825 5.91203 7.70218 5.22997C7.70175 5.22997 7.70175 5.22953 7.70131 5.22909L3.7835 1.31128L3.73231 0.950343L4.09281 1.00241L8.92587 5.83591C8.93025 5.84028 8.93112 5.84553 8.93506 5.84991C9.34719 6.26203 9.57469 6.81022 9.57469 7.39384C9.57469 7.97703 9.34762 8.52522 8.93594 8.93734C8.52381 9.34991 7.97606 9.57697 7.39244 9.57697ZM9.39225 9.70384C9.44737 9.65616 9.50294 9.60847 9.555 9.55641C9.60706 9.50434 9.65518 9.44878 9.70287 9.39322L13.3844 13.0752L13.0742 13.3854L9.39225 9.70384ZM2.39925 27.129C1.9915 27.129 1.60912 26.9715 1.32256 26.6845C1.03381 26.3958 0.875872 26.0103 0.877622 25.5995C0.87981 25.1874 1.04256 24.7989 1.33568 24.5053C1.33612 24.5049 1.33656 24.5049 1.337 24.5045L8.232 17.6095L10.0861 19.4627C10.087 19.4632 10.087 19.464 10.0874 19.4645C10.0879 19.4649 10.0887 19.4649 10.0892 19.4658L10.3981 19.7742L3.50262 26.6697C3.50218 26.6701 3.50175 26.671 3.50131 26.6714C3.20775 26.9645 2.81925 27.1268 2.40756 27.129C2.40493 27.129 2.40231 27.129 2.39925 27.129ZM9.47012 17.6099L9.77944 17.3002L10.7065 18.2272H10.7069L10.3972 18.5365L9.47012 17.6099ZM26.6766 26.678C26.0807 27.2743 25.1037 27.2695 24.4982 26.6653C24.4978 26.6648 24.4974 26.664 24.4969 26.6635L17.3674 19.534L19.5326 17.368L26.6617 24.4979C26.6621 24.4983 26.663 24.4988 26.6634 24.4992C27.2672 25.1038 27.2733 26.0808 26.6766 26.678ZM17.3679 18.2963L17.0581 17.9866L17.9839 17.06C17.9843 17.0595 17.9852 17.0595 17.9852 17.0591L18.2949 17.3688L17.3679 18.2963ZM17.0581 16.7489L16.7484 17.0591L14.6221 14.9328L14.9319 14.6231L17.0581 16.7489ZM11.0171 17.3002L10.7074 16.99L13.3822 14.3151C13.3827 14.3147 13.3836 14.3142 13.384 14.3138C13.3844 14.3133 13.3849 14.3125 13.3853 14.312L14.3111 13.3863C14.3115 13.3858 14.3124 13.3854 14.3128 13.385C14.3132 13.3845 14.3137 13.3837 14.3141 13.3832L18.0512 9.64566L18.3619 9.95628L11.0171 17.3002ZM26.8957 5.75409L22.0741 10.5753C21.5622 11.0863 20.7309 11.0863 20.2191 10.5753L17.4348 7.79241C16.9234 7.27966 16.9234 6.44666 17.4344 5.93478L22.2539 1.11441C22.2543 1.11397 22.2547 1.11397 22.2552 1.11353C22.8366 0.531656 24.0507 1.05184 25.5023 2.50347C26.9552 3.95641 27.4763 5.17178 26.8957 5.75409Z" fill="#787882"/>
<path d="M22.8738 2.97058C22.7027 2.79952 22.4262 2.79952 22.2552 2.97058L18.9818 6.24396C18.8107 6.41502 18.8107 6.69152 18.9818 6.86258C19.0671 6.94789 19.1791 6.99077 19.2911 6.99077C19.4031 6.99077 19.5151 6.94789 19.6004 6.86258L22.8738 3.58921C23.0449 3.41814 23.0449 3.14164 22.8738 2.97058Z" fill="#787882"/>
<path d="M23.954 4.0509C23.7829 3.87984 23.5064 3.87984 23.3354 4.0509L20.0629 7.32428C19.8918 7.49534 19.8918 7.77184 20.0629 7.9429C20.1482 8.02822 20.2602 8.07109 20.3722 8.07109C20.4842 8.07109 20.5962 8.02822 20.6815 7.9429L23.954 4.66953C24.1251 4.49847 24.1251 4.22153 23.954 4.0509Z" fill="#787882"/>
<path d="M24.4195 5.13546L21.1461 8.40839C20.9751 8.57946 20.9751 8.85596 21.1461 9.02702C21.2314 9.11233 21.3434 9.15521 21.4554 9.15521C21.5674 9.15521 21.6794 9.11233 21.7647 9.02702L25.0381 5.75408C25.2092 5.58302 25.2092 5.30652 25.0381 5.13546C24.8671 4.96439 24.5906 4.96483 24.4195 5.13546Z" fill="#787882"/>
<path d="M25.5933 25.1448H25.5885C25.347 25.1448 25.1536 25.3403 25.1536 25.5823C25.1536 25.8242 25.3514 26.0198 25.5933 26.0198C25.8348 26.0198 26.0308 25.8242 26.0308 25.5823C26.0308 25.3403 25.8348 25.1448 25.5933 25.1448Z" fill="#787882"/>
</g>
<defs>
<clipPath id="clip0">
<rect width="28" height="28" fill="white"/>
</clipPath>
</defs>
</svg>
