<svg width="36" height="36" viewBox="0 0 36 36" fill="none" xmlns="http://www.w3.org/2000/svg">
<path d="M32.25 13.5H29.436C29.7316 12.5445 29.9026 11.5365 29.9625 10.5H30.75C31.164 10.5 31.5001 10.164 31.5001 9.74995C31.5001 9.33595 31.164 9 30.75 9H3.74996C3.33596 9 2.99994 9.33602 2.99994 9.75002C2.99994 10.164 3.33596 10.5 3.74996 10.5H4.53746C4.80296 15.036 7.43694 18.9435 11.2304 20.985L8.97594 30.003C7.33344 30.0151 5.99996 31.353 5.99996 33C5.99996 34.6545 7.34546 36 8.99999 36C10.6545 36 12 34.6545 12 33C12 31.866 11.3595 30.888 10.428 30.378L10.8975 28.5H23.6985L25.5255 35.4405C25.6141 35.778 25.917 35.9999 26.25 35.9999C26.313 35.9999 26.3775 35.9924 26.4421 35.9744C26.8426 35.8694 27.0811 35.4584 26.9761 35.0579L23.2726 20.9834C25.7296 19.6604 27.6976 17.5513 28.8571 14.9998H32.2501C32.6641 14.9998 33.0001 14.6638 33.0001 14.2498C33.0001 13.8358 32.664 13.5 32.25 13.5ZM23.304 27H11.274L12.6195 21.6165C14.0564 22.179 15.615 22.5 17.25 22.5C18.8865 22.5 20.448 22.179 21.8864 21.615L23.304 27Z" fill="#787882"/>
<path d="M12.6705 3.4155C12.6646 3.402 12 2.05052 12 0.750023C12 0.336023 11.664 0 11.25 0C10.836 0 10.5 0.336023 10.5 0.750023C10.5 2.41052 11.295 4.0185 11.3295 4.086C11.337 4.0995 12 5.445 12 6.75C12 7.164 12.336 7.50002 12.75 7.50002C13.164 7.50002 13.5 7.164 13.5 6.75C13.5 5.08198 12.7035 3.47998 12.6705 3.4155Z" fill="#787882"/>
<path d="M17.1705 3.4155C17.1646 3.402 16.5 2.05052 16.5 0.750023C16.5 0.336023 16.164 0 15.75 0C15.336 0 15 0.336023 15 0.750023C15 2.41052 15.795 4.0185 15.8295 4.086C15.837 4.0995 16.5 5.445 16.5 6.75C16.5 7.164 16.836 7.50002 17.25 7.50002C17.664 7.50002 18 7.164 18 6.75C18 5.08198 17.2035 3.47998 17.1705 3.4155Z" fill="#787882"/>
<path d="M21.6705 3.4155C21.6646 3.402 21 2.05052 21 0.750023C21 0.336023 20.664 0 20.25 0C19.836 0 19.5 0.336023 19.5 0.750023C19.5 2.41052 20.295 4.0185 20.3295 4.086C20.337 4.0995 21 5.445 21 6.75C21 7.164 21.336 7.50002 21.75 7.50002C22.164 7.50002 22.5 7.164 22.5 6.75C22.5 5.08198 21.7035 3.47998 21.6705 3.4155Z" fill="#787882"/>
</svg>
