<svg width="37" height="37" viewBox="0 0 37 37" fill="none" xmlns="http://www.w3.org/2000/svg">
<path d="M35.9228 6.57645C35.9205 6.57645 35.9183 6.57617 35.916 6.57617H26.0879V5.49219C26.0879 3.6991 24.629 2.24023 22.8359 2.24023H14.1641C12.371 2.24023 10.9121 3.6991 10.9121 5.49219V6.57617H1.08398C0.480454 6.57617 0 7.07074 0 7.66016V31.5078C0 33.3009 1.45886 34.7598 3.25195 34.7598H33.748C35.5411 34.7598 37 33.3009 37 31.5078V7.68302C37 7.68161 37 7.6802 37 7.67879C36.9585 6.96686 36.5207 6.58041 35.9228 6.57645ZM13.0801 5.49219C13.0801 4.89458 13.5665 4.4082 14.1641 4.4082H22.8359C23.4335 4.4082 23.9199 4.89458 23.9199 5.49219V6.57617H13.0801V5.49219ZM34.412 8.74414L31.0457 18.8427C30.8981 19.2862 30.4848 19.584 30.0176 19.584H23.9199V18.5C23.9199 17.9013 23.4347 17.416 22.8359 17.416H14.1641C13.5653 17.416 13.0801 17.9013 13.0801 18.5V19.584H6.98238C6.5152 19.584 6.10193 19.2862 5.95429 18.8427L2.58801 8.74414H34.412ZM21.752 19.584V21.752H15.248V19.584H21.752ZM34.832 31.5078C34.832 32.1054 34.3456 32.5918 33.748 32.5918H3.25195C2.65435 32.5918 2.16797 32.1054 2.16797 31.5078V14.3399L3.89754 19.5284C4.34074 20.8585 5.58054 21.752 6.98238 21.752H13.0801V22.8359C13.0801 23.4347 13.5653 23.9199 14.1641 23.9199H22.8359C23.4347 23.9199 23.9199 23.4347 23.9199 22.8359V21.752H30.0176C31.4195 21.752 32.6593 20.8585 33.1025 19.5284L34.832 14.3399V31.5078Z" fill="#787882"/>
</svg>
