<svg width="39" height="39" viewBox="0 0 39 39" fill="none" xmlns="http://www.w3.org/2000/svg">
<g clip-path="url(#clip0)">
<path d="M9.42497 9.91253C8.12495 8.6125 2.59997 8.28755 0.812449 8.125C0.649975 8.125 0.487424 8.125 0.324949 8.28747C0.162475 8.45003 0 8.77505 0 8.93753V23.5625C0 24.05 0.325025 24.3751 0.812525 24.3751H5.68753C6.01255 24.3751 6.3375 24.2126 6.50005 23.8876C6.50005 23.4001 9.42505 14.7875 9.75008 10.5626C9.75 10.4 9.75 10.0751 9.42497 9.91253Z" fill="#787882"/>
<path d="M26.8125 13.8126C25.1875 13.3251 23.725 12.6751 22.425 12.1876C19.5 10.8876 18.2 11.5376 15.6 14.1376C14.4625 15.2751 13.65 16.9001 13.8125 17.5501C13.8125 17.7126 13.8125 17.7126 14.1375 17.8751C14.95 18.2002 16.0875 18.3626 17.225 16.5751C17.3875 16.4126 17.55 16.2501 17.875 16.2501C18.3625 16.2501 18.5249 16.0876 19.0124 15.9251C19.3375 15.7626 19.6624 15.6 20.1499 15.4376C20.3124 15.4376 20.3124 15.4376 20.4749 15.4376C20.6374 15.4376 20.9624 15.6 21.1249 15.6C21.9375 16.4126 23.4 17.5501 24.8625 18.8501C27.1375 20.6377 29.4125 22.5877 30.55 24.0502H30.7125C29.575 20.8001 27.625 15.2751 26.8125 13.8126Z" fill="#787882"/>
<path d="M38.1875 9.75C31.85 9.75 28.275 11.375 28.1124 11.375C27.95 11.5374 27.7874 11.7 27.6249 11.8625C27.6249 12.0249 27.6249 12.35 27.7874 12.5124C28.7624 14.1374 32.0124 23.075 32.4999 25.3499C32.6624 25.6749 32.9874 25.9999 33.3125 25.9999H38.1875C38.675 25.9999 39 25.6749 39 25.1874V10.5624C39 10.075 38.675 9.75 38.1875 9.75Z" fill="#787882"/>
<path d="M29.4125 25.675C28.7625 24.2125 26 22.1 23.5625 20.15C22.2625 19.0125 20.9625 18.0375 19.9875 17.2249C19.825 17.3874 19.5 17.3874 19.5 17.55C19.0125 17.7124 18.85 17.875 18.2 17.875C16.9 19.5 15.275 20.1499 13.4875 19.5C12.675 19.3375 12.1875 18.6874 12.025 18.0375C11.7 16.4125 13.1625 14.1375 14.3 13H11.05C10.4 16.25 9.26249 20.475 8.45004 22.75C9.10002 23.4 9.75007 24.2125 10.2376 24.5375C13.325 27.1375 16.9001 29.7376 17.5501 30.225C18.0376 30.5501 19.0126 30.875 19.5001 30.875C19.6625 30.875 19.8251 30.875 19.9876 30.875L17.3875 28.275C17.0625 27.9499 17.0625 27.4624 17.3875 27.1375C17.7125 26.8126 18.2 26.8125 18.525 27.1375L21.775 30.3875C22.1 30.7125 22.425 30.55 22.75 30.55C23.2375 30.3875 23.4 30.0625 23.5625 29.575L19.825 25.8375C19.5 25.5124 19.5 25.0249 19.825 24.7C20.15 24.3751 20.6375 24.375 20.9625 24.7L25.025 28.7625C25.1874 28.9249 25.8375 28.9249 26.325 28.7625C26.4875 28.6 26.8125 28.4374 26.975 28.1125L22.425 23.5624C22.1 23.2374 22.1 22.7499 22.425 22.425C22.75 22.1 23.2375 22.0999 23.5625 22.425L28.275 27.1375C28.6 27.3 28.925 27.1375 29.25 26.975C29.4125 26.8125 29.7375 26.325 29.4125 25.675Z" fill="#787882"/>
</g>
<defs>
<clipPath id="clip0">
<rect width="39" height="39" fill="white"/>
</clipPath>
</defs>
</svg>
