<svg width="37" height="37" viewBox="0 0 37 37" fill="none" xmlns="http://www.w3.org/2000/svg">
<g clip-path="url(#clip0)">
<path d="M34.7344 7.3125H26.8125V4.875C26.8104 3.19297 25.4477 1.83021 23.7656 1.82812H12.7969C11.1148 1.83021 9.75208 3.19297 9.75 4.875V7.3125H1.82812C0.81855 7.3125 0 8.13105 0 9.14062V22.7052C0.0038681 23.4782 0.490951 24.1658 1.21875 24.4256V32.9062C1.21875 33.9158 2.0373 34.7344 3.04688 34.7344H33.5156C34.5252 34.7344 35.3438 33.9158 35.3438 32.9062V24.4262C36.0715 24.1661 36.5589 23.4782 36.5625 22.7052V9.14062C36.5625 8.13105 35.7439 7.3125 34.7344 7.3125ZM10.9688 4.875C10.9688 3.86543 11.7873 3.04688 12.7969 3.04688H23.7656C24.7752 3.04688 25.5938 3.86543 25.5938 4.875V7.3125H24.375V4.875C24.375 4.53848 24.1021 4.26562 23.7656 4.26562H12.7969C12.4604 4.26562 12.1875 4.53848 12.1875 4.875V7.3125H10.9688V4.875ZM23.1562 7.3125H13.4062V5.48438H23.1562V7.3125ZM34.125 32.9062C34.125 33.2428 33.8521 33.5156 33.5156 33.5156H3.04688C2.71035 33.5156 2.4375 33.2428 2.4375 32.9062V24.6351L15.8438 26.484V28.0312C15.8438 29.0408 16.6623 29.8594 17.6719 29.8594H18.8906C19.9002 29.8594 20.7188 29.0408 20.7188 28.0312V26.484L34.125 24.6351V32.9062ZM19.5 28.0312C19.5 28.3678 19.2271 28.6406 18.8906 28.6406H17.6719C17.3354 28.6406 17.0625 28.3678 17.0625 28.0312V24.375C17.0625 24.0385 17.3354 23.7656 17.6719 23.7656H18.8906C19.2271 23.7656 19.5 24.0385 19.5 24.375V28.0312ZM35.3438 22.7052C35.344 23.009 35.1206 23.2666 34.8198 23.3092L34.6508 23.3324L20.7188 25.2537V24.375C20.7188 23.3654 19.9002 22.5469 18.8906 22.5469H17.6719C16.6623 22.5469 15.8438 23.3654 15.8438 24.375V25.2537L1.74332 23.3092C1.4425 23.2669 1.21845 23.0093 1.21875 22.7052V9.14062C1.21875 8.8041 1.4916 8.53125 1.82812 8.53125H34.7344C35.0709 8.53125 35.3438 8.8041 35.3438 9.14062V22.7052Z" fill="#787882"/>
</g>
<defs>
<clipPath id="clip0">
<rect width="36.5625" height="36.5625" fill="white"/>
</clipPath>
</defs>
</svg>
