<svg width="30" height="29" viewBox="0 0 30 29" fill="none" xmlns="http://www.w3.org/2000/svg">
<g clip-path="url(#clip0)">
<path d="M15.3162 7.56772C11.4938 7.56772 8.38391 10.6776 8.38391 14.5C8.38391 18.3224 11.4938 21.4323 15.3162 21.4323C19.1385 21.4323 22.2485 18.3224 22.2485 14.5C22.2485 10.6776 19.1385 7.56772 15.3162 7.56772ZM15.3162 19.6992C12.4494 19.6992 10.117 17.3668 10.117 14.5C10.117 11.6332 12.4494 9.30079 15.3162 9.30079C18.183 9.30079 20.5154 11.6332 20.5154 14.5C20.5154 17.3668 18.183 19.6992 15.3162 19.6992Z" fill="#787882"/>
<path d="M29.1339 11.198L26.905 10.7135C26.7111 10.1201 26.4711 9.54129 26.1877 8.98373L27.4216 7.06437C27.6419 6.72143 27.5935 6.27118 27.3054 5.98311L23.8331 2.51077C23.545 2.2227 23.0948 2.17425 22.7518 2.39462L20.8325 3.62854C20.2749 3.34512 19.6961 3.10506 19.1027 2.91124L18.6182 0.682343C18.5317 0.284088 18.179 0 17.7714 0H12.861C12.4534 0 12.1007 0.284088 12.0142 0.682343L11.5297 2.91124C10.9363 3.10506 10.3575 3.34512 9.79993 3.62854L7.88056 2.39462C7.53762 2.17425 7.08737 2.2227 6.7993 2.51077L3.32697 5.98311C3.03889 6.27118 2.99044 6.72143 3.21081 7.06437L4.44473 8.98373C4.16131 9.54129 3.92125 10.1201 3.72743 10.7135L1.49854 11.198C1.10028 11.2848 0.816193 11.6372 0.816193 12.0448V16.9552C0.816193 17.3628 1.10028 17.7152 1.49854 17.802L3.72743 18.2865C3.92125 18.8799 4.16131 19.4587 4.44473 20.0163L3.21081 21.9356C2.99044 22.2786 3.03889 22.7288 3.32697 23.0169L6.7993 26.4892C7.08737 26.7773 7.53762 26.8258 7.88056 26.6054L9.79993 25.3715C10.3575 25.6549 10.9363 25.8949 11.5297 26.0888L12.0142 28.3177C12.1007 28.7159 12.4534 29 12.861 29H17.7714C18.179 29 18.5317 28.7159 18.6182 28.3177L19.1027 26.0888C19.6961 25.8949 20.2749 25.6549 20.8325 25.3715L22.7518 26.6054C23.0948 26.8258 23.545 26.7775 23.8331 26.4892L27.3054 23.0169C27.5935 22.7288 27.6419 22.2786 27.4216 21.9356L26.1877 20.0163C26.4711 19.4587 26.7111 18.8799 26.905 18.2865L29.1339 17.802C29.5321 17.7152 29.8162 17.3628 29.8162 16.9552V12.0448C29.8162 11.6372 29.5321 11.2848 29.1339 11.198ZM28.0831 16.2567L26.0394 16.701C25.7255 16.7694 25.475 17.0057 25.3887 17.315C25.1641 18.1206 24.8411 18.8996 24.4287 19.6304C24.2707 19.9103 24.2805 20.2546 24.4544 20.5249L25.5861 22.2852L23.1016 24.7699L21.3411 23.6382C21.0707 23.4643 20.7265 23.4545 20.4468 23.6125C19.7158 24.0249 18.9368 24.3479 18.1312 24.5725C17.8219 24.6588 17.5856 24.9093 17.5172 25.2232L17.0729 27.2669H13.5594L13.1152 25.2232C13.0468 24.9093 12.8105 24.6588 12.5012 24.5725C11.6956 24.3479 10.9166 24.0249 10.1858 23.6125C9.90591 23.4545 9.56164 23.4645 9.29127 23.6382L7.53098 24.7699L5.04654 22.2852L6.17802 20.5249C6.35193 20.2546 6.36189 19.9103 6.20391 19.6304C5.7915 18.8996 5.46847 18.1206 5.24368 17.315C5.15739 17.0057 4.90715 16.7694 4.59319 16.701L2.54926 16.2567V12.7433L4.59297 12.299C4.90693 12.2306 5.15739 11.9943 5.24368 11.685C5.46825 10.8794 5.79128 10.1004 6.20369 9.3696C6.36166 9.08971 6.35193 8.74545 6.17802 8.47507L5.04632 6.71479L7.53076 4.23013L9.29127 5.36183C9.56164 5.53574 9.90591 5.54547 10.1856 5.3875C10.9166 4.97508 11.6956 4.65205 12.5012 4.42748C12.8105 4.34119 13.0468 4.09074 13.1152 3.77678L13.5594 1.73307H17.0729L17.5172 3.77678C17.5856 4.09074 17.8219 4.34119 18.1312 4.42748C18.9368 4.65205 19.7158 4.97508 20.4466 5.3875C20.7265 5.54547 21.0707 5.53551 21.3411 5.36183L23.1014 4.23013L25.5858 6.71479L24.4544 8.47507C24.2805 8.74545 24.2705 9.08971 24.4285 9.3696C24.8411 10.1004 25.1639 10.8794 25.3887 11.685C25.475 11.9943 25.7252 12.2306 26.0392 12.299L28.0831 12.7433V16.2567Z" fill="#787882"/>
</g>
<defs>
<clipPath id="clip0">
<rect width="29" height="29" fill="white" transform="translate(0.816193)"/>
</clipPath>
</defs>
</svg>
