<svg width="32" height="31" viewBox="0 0 32 31" fill="none" xmlns="http://www.w3.org/2000/svg">
<g clip-path="url(#clip0)">
<path d="M16.727 19.2059C16.6112 18.9618 16.3192 18.8576 16.075 18.9736C15.6777 19.1621 15.2611 19.318 14.8369 19.4366C14.6594 19.4863 14.525 19.6313 14.4889 19.812L13.9711 22.4009C13.92 22.6565 13.6937 22.8421 13.433 22.8421H12.0205C11.7597 22.8421 11.5335 22.6566 11.4823 22.4009L10.9645 19.812C10.9284 19.6313 10.7938 19.4863 10.6165 19.4366C10.0172 19.2689 9.43886 19.0293 8.8975 18.7244C8.73687 18.6339 8.53907 18.6414 8.38576 18.7436L6.18876 20.2082C5.97188 20.3528 5.68065 20.3239 5.49622 20.1396L4.49744 19.1407C4.31308 18.9564 4.28432 18.6651 4.42884 18.4482L5.89347 16.2512C5.99574 16.0978 6.00318 15.9001 5.91267 15.7395C5.60769 15.1981 5.36805 14.6196 5.20039 14.0205C5.15074 13.843 5.00573 13.7085 4.825 13.6725L2.23614 13.1547C1.98051 13.1036 1.79493 12.8772 1.79493 12.6165V11.204C1.79493 10.9433 1.98045 10.717 2.23614 10.6659L4.825 10.1481C5.00573 10.1119 5.15074 9.9774 5.20039 9.80006C5.36811 9.20076 5.60775 8.62242 5.91267 8.08107C6.00312 7.9205 5.99568 7.72269 5.89347 7.56933L4.42896 5.37257C4.28438 5.15563 4.3132 4.86446 4.49756 4.68003L5.49634 3.68125C5.68071 3.49688 5.972 3.46813 6.18888 3.61265L8.38588 5.07728C8.53919 5.17954 8.73706 5.18693 8.89763 5.09647C9.43898 4.79156 10.0173 4.55191 10.6166 4.3842C10.7941 4.33455 10.9286 4.18954 10.9646 4.00881L11.4824 1.41995C11.5335 1.16432 11.7599 0.97874 12.0206 0.97874H13.4331C13.6938 0.97874 13.9201 1.16426 13.9712 1.41995L14.489 4.00881C14.5252 4.18954 14.6597 4.33455 14.837 4.3842C15.4363 4.55191 16.0147 4.79156 16.556 5.09647C16.7167 5.18693 16.9145 5.17948 17.0678 5.07728L19.2648 3.61265C19.4816 3.46806 19.7728 3.49695 19.9573 3.68125L20.9561 4.68003C21.1404 4.8644 21.1692 5.15563 21.0247 5.37257L19.5601 7.56957C19.4578 7.72294 19.4503 7.92068 19.5409 8.08131C19.8458 8.62266 20.0854 9.20101 20.2531 9.8003C20.3028 9.97776 20.4478 10.1122 20.6285 10.1483L23.2174 10.6661C23.473 10.7172 23.6586 10.9435 23.6586 11.2043V12.6168C23.6586 12.8775 23.4731 13.1037 23.2174 13.1549L20.6285 13.6727C20.4478 13.7088 20.3028 13.8434 20.2531 14.0208C20.1315 14.4556 19.971 14.882 19.776 15.2883C19.659 15.532 19.7619 15.8244 20.0056 15.9413C20.2493 16.0584 20.5417 15.9555 20.6586 15.7118C20.8345 15.3451 20.9856 14.9638 21.1091 14.5749L23.4094 14.1149C24.1207 13.9725 24.6372 13.3424 24.6372 12.6167V11.2042C24.6372 10.4785 24.1207 9.8485 23.4091 9.70609L21.1089 9.24605C20.958 8.77112 20.7668 8.30939 20.5377 7.86746L21.839 5.91549C22.2415 5.31166 22.1613 4.50093 21.6481 3.98774L20.6493 2.98896C20.136 2.47576 19.3253 2.3956 18.7215 2.79805L16.7696 4.09933C16.3276 3.87028 15.8659 3.67901 15.391 3.52813L14.9309 1.22795C14.7887 0.516465 14.1587 0 13.433 0H12.0205C11.2947 0 10.6647 0.516465 10.5223 1.22813L10.0623 3.52831C9.58738 3.67919 9.12565 3.8704 8.68371 4.09951L6.73186 2.79823C6.12809 2.39572 5.31731 2.47588 4.80411 2.98914L3.80533 3.98792C3.2922 4.50112 3.21191 5.31178 3.61443 5.91567L4.9157 7.86764C4.68665 8.30957 4.49538 8.77125 4.3445 9.24623L2.04426 9.70627C1.33266 9.84856 0.816193 10.4786 0.816193 11.2043V12.6168C0.816193 13.3425 1.33266 13.9725 2.04433 14.1149L4.3445 14.575C4.49532 15.0498 4.68659 15.5116 4.9157 15.9536L3.61443 17.9055C3.21191 18.5094 3.29214 19.3201 3.80533 19.8333L4.80411 20.8321C5.31731 21.3453 6.12803 21.4254 6.73186 21.023L8.68384 19.7217C9.12577 19.9507 9.58744 20.142 10.0624 20.2929L10.5225 22.5932C10.6647 23.3046 11.2948 23.8211 12.0205 23.8211H13.433C14.1587 23.8211 14.7887 23.3047 14.9311 22.593L15.3912 20.2928C15.7683 20.173 16.1385 20.0273 16.4948 19.8581C16.739 19.7421 16.843 19.4501 16.727 19.2059Z" fill="#787882"/>
<path d="M16.9664 14.6303C17.0378 14.667 17.1141 14.6844 17.1893 14.6844C17.3671 14.6844 17.5386 14.5872 17.6253 14.4181C18.02 13.6483 18.2287 12.7812 18.2287 11.9106C18.2287 8.87678 15.7605 6.40852 12.7267 6.40852C11.2833 6.40852 9.91946 6.96325 8.88617 7.97069C8.6926 8.15936 8.68867 8.4693 8.87733 8.6628C9.06599 8.85631 9.37587 8.86037 9.56944 8.67164C10.4189 7.84361 11.5401 7.38751 12.7265 7.38751C15.2206 7.38751 17.2497 9.41655 17.2497 11.9107C17.2497 12.6369 17.0829 13.3302 16.7541 13.9716C16.6308 14.2119 16.7258 14.5069 16.9664 14.6303Z" fill="#787882"/>
<path d="M8.14498 9.81616C7.88929 9.72818 7.6109 9.86411 7.52293 10.1197C7.32512 10.6948 7.22479 11.2974 7.22479 11.9105C7.22479 14.9444 9.69305 17.4126 12.7269 17.4126C13.8937 17.4126 15.0085 17.052 15.9508 16.3696C16.1697 16.211 16.2187 15.9049 16.0602 15.686C15.9017 15.4671 15.5956 15.4181 15.3766 15.5766C14.6024 16.1372 13.6861 16.4336 12.7268 16.4336C10.2327 16.4336 8.20365 14.4045 8.20365 11.9104C8.20365 11.4058 8.286 10.9104 8.44851 10.438C8.53642 10.1825 8.40055 9.90401 8.14498 9.81616Z" fill="#787882"/>
<path d="M30.8742 21.3922L29.4588 21.1091C29.3726 20.8526 29.2687 20.6021 29.1484 20.36L29.9492 19.1588C30.2579 18.6957 30.1964 18.0738 29.8028 17.6803L29.1464 17.024C28.7528 16.6304 28.131 16.5688 27.6679 16.8776L26.4667 17.6784C26.2246 17.558 25.9741 17.4541 25.7176 17.368L25.4345 15.9526C25.3254 15.4068 24.8421 15.0106 24.2855 15.0106H23.3573C22.8008 15.0106 22.3175 15.4068 22.2083 15.9526L21.9252 17.368C21.6687 17.4542 21.4182 17.558 21.1761 17.6784L19.975 16.8776C19.5118 16.5689 18.89 16.6303 18.4964 17.024L17.8401 17.6803C17.4465 18.0739 17.385 18.6957 17.6937 19.1588L18.4945 20.36C18.3289 20.6929 18.1948 21.0415 18.0946 21.4C18.0217 21.6603 18.1738 21.9304 18.4341 22.0033C18.6944 22.0761 18.9644 21.9241 19.0373 21.6638C19.1439 21.2828 19.2962 20.9153 19.49 20.5713C19.5804 20.4107 19.573 20.2129 19.4708 20.0596L18.5083 18.6159C18.4575 18.5396 18.4676 18.4373 18.5324 18.3725L19.1887 17.7162C19.2535 17.6515 19.3558 17.6414 19.432 17.6921L20.8758 18.6546C21.0291 18.7569 21.2269 18.7643 21.3875 18.6738C21.7316 18.4801 22.099 18.3277 22.48 18.2212C22.6574 18.1715 22.7919 18.0265 22.828 17.8458L23.1682 16.1446C23.1861 16.0548 23.2657 15.9896 23.3573 15.9896H24.2855C24.3771 15.9896 24.4566 16.0548 24.4746 16.1446L24.8148 17.8459C24.851 18.0266 24.9855 18.1716 25.1629 18.2213C25.5438 18.3278 25.9113 18.4802 26.2553 18.6739C26.4159 18.7644 26.6138 18.7569 26.7671 18.6547L28.2108 17.6922C28.287 17.6414 28.3893 17.6515 28.4541 17.7163L29.1105 18.3726C29.1752 18.4374 29.1853 18.5398 29.1346 18.616L28.172 20.0597C28.0698 20.2131 28.0623 20.4108 28.1529 20.5715C28.3466 20.9155 28.4989 21.2829 28.6055 21.6639C28.6551 21.8414 28.8002 21.9758 28.9809 22.0119L30.6821 22.3521C30.7719 22.3701 30.8371 22.4496 30.8371 22.5412V23.4695C30.8371 23.561 30.7719 23.6406 30.6821 23.6586L28.9808 23.9988C28.8 24.0349 28.655 24.1695 28.6054 24.3468C28.4988 24.7278 28.3465 25.0953 28.1527 25.4392C28.0623 25.5999 28.0697 25.7977 28.1719 25.951L29.1344 27.3947C29.1852 27.471 29.1751 27.5733 29.1103 27.6381L28.454 28.2944C28.3893 28.3592 28.287 28.3692 28.2107 28.3185L26.7669 27.356C26.6136 27.2538 26.4158 27.2463 26.2552 27.3368C25.9112 27.5305 25.5437 27.6829 25.1627 27.7894C24.9853 27.8391 24.8508 27.9841 24.8147 28.1648L24.4745 29.866C24.4566 29.9558 24.377 30.021 24.2854 30.021H23.3572C23.2656 30.021 23.1861 29.9558 23.1681 29.866L22.8279 28.1647C22.7917 27.984 22.6572 27.839 22.4799 27.7893C22.0989 27.6828 21.7314 27.5304 21.3874 27.3367C21.2268 27.2462 21.0289 27.2537 20.8757 27.3559L19.4319 28.3184C19.3557 28.3692 19.2534 28.3591 19.1886 28.2943L18.5323 27.6379C18.4675 27.5732 18.4574 27.4708 18.5082 27.3946L19.4707 25.9509C19.5729 25.7975 19.5804 25.5998 19.4899 25.4391C19.2961 25.0951 19.1438 24.7276 19.0372 24.3467C18.9876 24.1692 18.8426 24.0347 18.6618 23.9987L16.9606 23.6584C16.8709 23.6405 16.8056 23.561 16.8056 23.4694V22.5411C16.8056 22.4496 16.8709 22.37 16.9606 22.352L17.0648 22.3312C17.3299 22.2782 17.5018 22.0203 17.4487 21.7552C17.3957 21.4901 17.1381 21.3185 16.8727 21.3713L16.7685 21.3921C16.2228 21.5013 15.8267 21.9846 15.8267 22.5412V23.4694C15.8267 24.026 16.2228 24.5093 16.7686 24.6184L18.1841 24.9015C18.2703 25.158 18.3741 25.4085 18.4944 25.6506L17.6936 26.8517C17.3848 27.3149 17.4464 27.9367 17.84 28.3303L18.4964 28.9866C18.89 29.3802 19.5118 29.4418 19.9749 29.133L21.176 28.3322C21.4182 28.4526 21.6686 28.5564 21.9252 28.6426L22.2082 30.058C22.3175 30.6038 22.8008 31 23.3574 31H24.2856C24.8422 31 25.3254 30.6038 25.4346 30.058L25.7177 28.6426C25.9742 28.5564 26.2247 28.4525 26.4668 28.3322L27.6679 29.133C28.1311 29.4417 28.7529 29.3802 29.1465 28.9866L29.8028 28.3302C30.1964 27.9366 30.2579 27.3148 29.9492 26.8517L29.1484 25.6506C29.2688 25.4084 29.3726 25.1579 29.4588 24.9014L30.8742 24.6184C31.42 24.5092 31.8161 24.026 31.8161 23.4694V22.5411C31.8162 21.9846 31.42 21.5013 30.8742 21.3922Z" fill="#787882"/>
<path d="M23.8214 21.2432C24.7931 21.2432 25.5835 22.0336 25.5835 23.0053C25.5835 23.2756 25.8027 23.4947 26.073 23.4947C26.3433 23.4947 26.5624 23.2756 26.5624 23.0053C26.5624 21.4938 25.3328 20.2642 23.8214 20.2642C22.3099 20.2642 21.0803 21.4938 21.0803 23.0053C21.0803 24.5167 22.3099 25.7463 23.8214 25.7463C24.4336 25.7463 25.0126 25.5489 25.496 25.1754C25.7099 25.0102 25.7494 24.7028 25.5841 24.4888C25.4188 24.2749 25.1114 24.2354 24.8975 24.4007C24.587 24.6405 24.2149 24.7674 23.8214 24.7674C22.8497 24.7674 22.0593 23.9769 22.0593 23.0053C22.0593 22.0336 22.8498 21.2432 23.8214 21.2432Z" fill="#787882"/>
<path d="M15.7089 11.9105C15.7089 10.2662 14.371 8.92842 12.7267 8.92842C11.0824 8.92842 9.74463 10.2663 9.74463 11.9105C9.74463 13.5549 11.0824 14.8927 12.7267 14.8927C14.3711 14.8927 15.7089 13.5548 15.7089 11.9105ZM10.7236 11.9105C10.7236 10.806 11.6222 9.90735 12.7267 9.90735C13.8312 9.90735 14.7299 10.806 14.7299 11.9105C14.7299 13.015 13.8313 13.9137 12.7267 13.9137C11.6221 13.9137 10.7236 13.015 10.7236 11.9105Z" fill="#787882"/>
</g>
<defs>
<clipPath id="clip0">
<rect width="31" height="31" fill="white" transform="translate(0.816193)"/>
</clipPath>
</defs>
</svg>
