<svg width="32" height="32" viewBox="0 0 32 32" fill="none" xmlns="http://www.w3.org/2000/svg">
<path d="M21.6667 17.3333H18.3333C17.7813 17.3333 17.3333 16.8853 17.3333 16.3333C17.3333 15.7813 17.7813 15.3333 18.3333 15.3333H20.6667V13C20.6667 12.448 21.1147 12 21.6667 12C22.2187 12 22.6667 12.448 22.6667 13V16.3333C22.6667 16.8853 22.2187 17.3333 21.6667 17.3333Z" fill="#787882"/>
<path d="M10.4813 18.2267C10.3987 18.2267 10.3173 18.2173 10.2347 18.1973C9.7 18.0613 9.37333 17.5173 9.50933 16.9827C10.252 14.048 12.8933 12 15.9333 12C17.448 12 18.9133 12.516 20.06 13.452C20.8907 14.0947 21.556 14.9653 21.9653 15.9507C22.176 16.46 21.9347 17.0453 21.424 17.256C20.916 17.468 20.3307 17.2253 20.1173 16.7147C19.8427 16.0507 19.392 15.4627 18.816 15.016C18.0053 14.3547 16.9893 13.9987 15.9347 13.9987C13.8107 13.9987 11.9667 15.4267 11.452 17.4707C11.336 17.924 10.928 18.2267 10.4813 18.2267Z" fill="#787882"/>
<path d="M16.0667 25.3333C14.552 25.3333 13.0867 24.8173 11.94 23.8813C11.1093 23.2386 10.444 22.368 10.0347 21.3826C9.82399 20.872 10.0653 20.288 10.576 20.076C11.0853 19.872 11.6707 20.1066 11.8827 20.6173C12.1573 21.2826 12.608 21.8693 13.184 22.316C13.9947 22.9773 15.0107 23.3333 16.0653 23.3333C18.1893 23.3333 20.0333 21.9066 20.548 19.8613C20.684 19.3253 21.2373 19.0013 21.7627 19.136C22.2973 19.272 22.624 19.816 22.488 20.3506C21.748 23.2853 19.1067 25.3333 16.0667 25.3333Z" fill="#787882"/>
<path d="M10.3333 25.3333C9.78133 25.3333 9.33333 24.8853 9.33333 24.3333V21C9.33333 20.448 9.78133 20 10.3333 20H13.6667C14.2187 20 14.6667 20.448 14.6667 21C14.6667 21.552 14.2187 22 13.6667 22H11.3333V24.3333C11.3333 24.8853 10.8853 25.3333 10.3333 25.3333Z" fill="#787882"/>
<path d="M28.3333 30.6666H3.66667C1.644 30.6666 0 29.0226 0 27V4.99998C0 2.97731 1.644 1.33331 3.66667 1.33331H28.3333C30.356 1.33331 32 2.97731 32 4.99998V27C32 29.0226 30.356 30.6666 28.3333 30.6666ZM3.66667 3.33331C2.748 3.33331 2 4.08131 2 4.99998V27C2 27.9186 2.748 28.6666 3.66667 28.6666H28.3333C29.252 28.6666 30 27.9186 30 27V4.99998C30 4.08131 29.252 3.33331 28.3333 3.33331H3.66667Z" fill="#787882"/>
<path d="M31 8H1C0.448 8 0 7.552 0 7C0 6.448 0.448 6 1 6H31C31.552 6 32 6.448 32 7C32 7.552 31.552 8 31 8Z" fill="#787882"/>
</svg>
