<svg width="30" height="30" viewBox="0 0 30 30" fill="none" xmlns="http://www.w3.org/2000/svg">
<g clip-path="url(#clip0)">
<path d="M15 6.677C10.4033 6.677 6.67694 10.4033 6.67694 15.0001C6.67694 19.5968 10.4033 23.3231 15 23.3231C19.5967 23.3231 23.323 19.5968 23.323 15.0001C23.3178 10.4056 19.5945 6.68224 15 6.677ZM15 22.0465C11.1084 22.0465 7.95354 18.8917 7.95354 15.0001C7.95354 11.1084 11.1084 7.9536 15 7.9536C18.8916 7.9536 22.0465 11.1084 22.0465 15.0001C22.042 18.8899 18.8899 22.042 15 22.0465Z" fill="#787882"/>
<path d="M15.6383 3.89362V0.638298C15.6383 0.285738 15.3526 0 15 0C14.6474 0 14.3617 0.285738 14.3617 0.638298V3.89362C14.3617 4.24618 14.6474 4.53191 15 4.53191C15.3526 4.53191 15.6383 4.24618 15.6383 3.89362Z" fill="#787882"/>
<path d="M15 25.468C14.6474 25.468 14.3617 25.7538 14.3617 26.1063V29.3616C14.3617 29.7142 14.6474 29.9999 15 29.9999C15.3526 29.9999 15.6383 29.7142 15.6383 29.3616V26.1063C15.6383 25.7538 15.3526 25.468 15 25.468Z" fill="#787882"/>
<path d="M29.3617 14.3616H26.1064C25.7538 14.3616 25.4681 14.6473 25.4681 14.9999C25.4681 15.3524 25.7538 15.6382 26.1064 15.6382H29.3617C29.7143 15.6382 30 15.3524 30 14.9999C30 14.6473 29.7143 14.3616 29.3617 14.3616Z" fill="#787882"/>
<path d="M4.53191 14.9999C4.53191 14.6473 4.24618 14.3616 3.89362 14.3616H0.638298C0.285738 14.3616 0 14.6473 0 14.9999C0 15.3524 0.285738 15.6382 0.638298 15.6382H3.89362C4.24618 15.6382 4.53191 15.3524 4.53191 14.9999Z" fill="#787882"/>
<path d="M23.3143 7.5882L25.5786 5.32399C25.8261 5.07441 25.8251 4.67173 25.5766 4.42339C25.3282 4.17481 24.9255 4.17381 24.676 4.4214L22.4117 6.68561C22.2494 6.84643 22.1854 7.08205 22.2442 7.30321C22.3033 7.52412 22.4758 7.69666 22.6967 7.75576C22.9179 7.8146 23.1535 7.75052 23.3143 7.5882Z" fill="#787882"/>
<path d="M6.68567 22.4119L4.42146 24.6761C4.25889 24.8372 4.19506 25.0728 4.2539 25.2937C4.31275 25.5147 4.48554 25.6874 4.70645 25.7463C4.92736 25.8051 5.16298 25.7413 5.32405 25.5787L7.58826 23.3145C7.75058 23.1537 7.81466 22.9181 7.75581 22.6969C7.69672 22.476 7.52418 22.3035 7.30327 22.2444C7.08211 22.1855 6.84649 22.2496 6.68567 22.4119Z" fill="#787882"/>
<path d="M23.3143 22.4119C23.1535 22.2496 22.9179 22.1855 22.6967 22.2444C22.4758 22.3035 22.3033 22.476 22.2442 22.6969C22.1854 22.9181 22.2494 23.1537 22.4117 23.3145L24.676 25.5787C24.9255 25.8263 25.3282 25.8253 25.5766 25.5767C25.8251 25.3284 25.8261 24.9257 25.5786 24.6761L23.3143 22.4119Z" fill="#787882"/>
<path d="M6.68567 7.5882C6.84649 7.75052 7.08211 7.8146 7.30328 7.75576C7.52419 7.69666 7.69673 7.52412 7.75582 7.30321C7.81466 7.08205 7.75058 6.84643 7.58826 6.68561L5.32405 4.4214C5.07447 4.17381 4.67179 4.17481 4.42345 4.42339C4.17487 4.67173 4.17387 5.07441 4.42146 5.32399L6.68567 7.5882Z" fill="#787882"/>
</g>
<defs>
<clipPath id="clip0">
<rect width="30" height="30" fill="white"/>
</clipPath>
</defs>
</svg>
