<svg width="33" height="33" viewBox="0 0 33 33" fill="none" xmlns="http://www.w3.org/2000/svg">
<g clip-path="url(#clip0)">
<path d="M11.7868 17.4814L14.1783 16.2227L11.7868 14.964L13.2286 12.6781L10.5281 12.7838L10.6338 10.0833L8.34787 11.5251L7.08917 9.13354L5.83047 11.5251L3.54459 10.0833L3.65029 12.7838L0.949778 12.6781L2.39159 14.964L0 16.2227L2.39159 17.4814L0.949778 19.7673L3.65029 19.6616L3.54459 22.362L5.83047 20.9202L7.08917 23.3119L8.34787 20.9203L10.6338 22.362L10.5281 19.6615L13.2286 19.7672L11.7868 17.4814ZM7.08917 19.7673C5.13154 19.7673 3.54459 18.1803 3.54459 16.2227C3.54459 14.2652 5.13154 12.6781 7.08917 12.6781C9.0468 12.6781 10.6338 14.2652 10.6338 16.2227C10.6338 18.1803 9.0468 19.7673 7.08917 19.7673Z" fill="#787882"/>
<path d="M29.6909 30.2547C29.038 30.7138 28.5663 31.0455 27.4971 31.0455C26.428 31.0455 25.9562 30.7138 25.3032 30.2547C24.5792 29.7456 23.6781 29.1121 21.9974 29.1121C20.3167 29.1121 19.4157 29.7457 18.6917 30.2547C18.0387 30.7138 17.567 31.0455 16.498 31.0455C15.429 31.0455 14.9573 30.7138 14.3043 30.2547C13.5803 29.7457 12.6793 29.1121 10.9987 29.1121C9.31795 29.1121 8.41696 29.7457 7.69297 30.2547C7.04006 30.7138 6.56833 31.0455 5.49931 31.0455C4.4303 31.0455 3.95863 30.7138 3.30572 30.2547C2.58172 29.7456 1.68074 29.1121 0 29.1121V31.0455C1.06895 31.0455 1.54075 31.3771 2.19365 31.8363C2.91765 32.3453 3.8187 32.9788 5.49931 32.9788C7.18005 32.9788 8.08104 32.3453 8.80503 31.8363C9.45794 31.3772 9.92967 31.0455 10.9987 31.0455C12.0677 31.0455 12.5394 31.3771 13.1923 31.8363C13.9163 32.3453 14.8173 32.9788 16.4979 32.9788C18.1785 32.9788 19.0797 32.3453 19.8037 31.8363C20.4566 31.3772 20.9283 31.0455 21.9974 31.0455C23.0665 31.0455 23.5382 31.3771 24.1912 31.8363C24.9152 32.3453 25.8163 32.9788 27.4971 32.9788C29.1778 32.9788 30.0789 32.3453 30.8029 31.8363C31.4559 31.3773 31.9276 31.0455 32.9968 31.0455V29.1121C31.316 29.1121 30.415 29.7456 29.6909 30.2547Z" fill="#787882"/>
<path d="M31.998 7.06156C30.9349 4.78166 29.1414 2.98988 26.891 1.93491L27.3468 0.682656L25.5299 0.0212402L25.0739 1.27414C19.8206 -0.116238 14.262 2.71498 12.3681 7.91859L11.9778 8.99089L13.0997 9.19959C14.9127 9.53687 16.6459 10.1677 18.2514 11.0747L18.4771 11.2022L18.7363 11.1997C18.7689 11.1994 18.8015 11.1992 18.834 11.1992C19.6874 11.1992 20.5306 11.3084 21.3451 11.5187L16.8403 23.8956C16.7263 23.8942 16.6125 23.8921 16.4984 23.8921C13.5113 23.8921 10.5778 24.3813 7.77915 25.3459C6.01604 25.9537 4.32847 26.7433 2.73468 27.702C3.47105 28.0084 4.01362 28.3893 4.41754 28.6733C4.98286 29.0709 5.04196 29.1124 5.49926 29.1124C5.95661 29.1124 6.01565 29.0708 6.58078 28.6734C7.376 28.1143 8.70643 27.179 10.9986 27.179C13.2908 27.179 14.6213 28.1144 15.4162 28.6733C15.9815 29.0709 16.0406 29.1124 16.4979 29.1124C16.9552 29.1124 17.0143 29.0708 17.5793 28.6734C18.3746 28.1144 19.7051 27.179 21.9973 27.179C24.2898 27.179 25.6203 28.1145 26.4152 28.6734C26.9805 29.0708 27.0396 29.1124 27.497 29.1124C27.9544 29.1124 28.0135 29.0708 28.5786 28.6734C28.9827 28.3893 29.5254 28.0083 30.2619 27.7019C28.6681 26.7431 26.9806 25.9535 25.2175 25.3458C23.1608 24.6369 21.0312 24.1859 18.8611 23.996L23.1619 12.1798C23.9501 12.5561 24.6918 13.0361 25.3655 13.6127L25.5625 13.7812L25.8173 13.8286C27.6303 14.1659 29.3636 14.7967 30.9691 15.7037L31.9627 16.265L32.353 15.1926C33.3245 12.5235 33.1985 9.6358 31.998 7.06156Z" fill="#787882"/>
</g>
<defs>
<clipPath id="clip0">
<rect width="33" height="33" fill="white"/>
</clipPath>
</defs>
</svg>
