<svg width="36" height="36" viewBox="0 0 36 36" fill="none" xmlns="http://www.w3.org/2000/svg">
<path d="M34.0507 15.1768C32.4731 14.5558 30.6832 15.3211 30.0621 16.8834L28.2762 21.0003H18.7495C18.5503 21.0003 18.3598 21.0794 18.2192 21.2201L16.7193 22.72C16.5728 22.8665 16.4995 23.0584 16.4995 23.2503C16.4995 23.4422 16.5728 23.6341 16.7193 23.7806C16.8657 23.9271 17.0576 24.0003 17.2495 24.0003C17.4414 24.0003 17.6333 23.9271 17.7797 23.7806L19.06 22.5004H19.4994V25.5004H16.4995V23.2504V16.5004H21.7493C21.7903 16.5004 21.8314 16.4967 21.8724 16.4901L30.8721 14.9901C31.1636 14.9417 31.4009 14.7257 31.4741 14.4393C31.5489 14.1529 31.4492 13.8498 31.2178 13.6644C31.2178 13.6644 16.2051 1.65413 16.1963 1.64759C16.0966 1.57432 15.9853 1.5289 15.8696 1.50991C15.7905 1.4967 15.7084 1.4967 15.6293 1.50991C15.5136 1.52897 15.4023 1.57439 15.3027 1.64759C15.294 1.65413 0.28125 13.6644 0.28125 13.6644C0.0497812 13.8497 -0.0497813 14.1529 0.0248906 14.4393C0.0981563 14.7257 0.335461 14.9418 0.626906 14.9901L9.62663 16.4901C9.66804 16.497 9.70854 16.49 9.74967 16.4898V16.5003H14.9995V25.5003H3.03947C1.36371 25.5003 0 26.8458 0 28.5003C0 29.6895 0.710086 30.71 1.72856 31.195L0.149414 33.3007C-0.0981562 33.6317 -0.0307266 34.1019 0.300305 34.3502C0.435094 34.4513 0.593297 34.5003 0.750023 34.5003C0.977062 34.5003 1.20263 34.397 1.35056 34.2L3.37528 31.5003H14.9996V33.7503C14.9996 34.1649 15.335 34.5003 15.7495 34.5003C16.1641 34.5003 16.4995 34.1649 16.4995 33.7503V31.5003H28.1237L30.1485 34.2C30.2964 34.397 30.522 34.5003 30.749 34.5003C30.9057 34.5003 31.0639 34.4512 31.1987 34.3502C31.5297 34.1019 31.5972 33.6317 31.3496 33.3007L29.8714 31.3295C30.7318 31.0371 31.4381 30.3805 31.7466 29.5147L35.8246 19.0016C36.3724 17.462 35.5975 15.7841 34.0507 15.1768ZM21 22.5004H27.6263L26.3248 25.5004H21.0001V22.5004H21ZM28.9702 13.7868L22.1997 14.9154L17.6865 4.75962L28.9702 13.7868ZM9.3003 14.9154L2.52977 13.7868L13.8135 4.75962L9.3003 14.9154ZM10.9043 15.0003L15.75 4.09678L20.5957 15.0003H10.9043ZM34.4209 18.4793L30.3428 28.9918C30.1274 29.5946 29.543 30.0003 28.8882 30.0003H3.03954C2.18995 30.0003 1.49998 29.3272 1.49998 28.5003C1.49998 27.6735 2.18995 27.0004 3.03954 27.0004H26.8169C27.1157 27.0004 27.3867 26.8231 27.5054 26.5492L31.4444 17.4701C31.4473 17.4613 31.4502 17.4532 31.4546 17.4452C31.7681 16.6454 32.6822 16.2542 33.5142 16.5772C34.2934 16.8827 34.6875 17.7271 34.4209 18.4793Z" fill="#787882"/>
</svg>
