<svg width="36" height="36" viewBox="0 0 36 36" fill="none" xmlns="http://www.w3.org/2000/svg">
<g clip-path="url(#clip0)">
<path d="M8.39735 34.8431C8.10759 34.8431 7.84167 34.6592 7.73922 34.3881C7.63445 34.1105 7.72052 33.7844 7.95086 33.5967C8.18226 33.4082 8.51421 33.3867 8.7681 33.5433C9.00717 33.6908 9.13738 33.9779 9.0907 34.255C9.0341 34.5898 8.73759 34.8431 8.39735 34.8431Z" fill="#787882"/>
<path d="M35.2913 23.7574C34.747 23.2131 34.0232 22.9133 33.2535 22.9133C32.9189 22.9133 32.5929 22.9699 32.2867 23.0787C32.2184 23.0172 32.1507 22.957 32.1248 22.9358C30.9753 21.9956 29.3159 22.0791 28.2649 23.13L24.9435 26.4515C24.6657 26.7291 23.532 27.381 23.2023 27.4222H21.1748C20.8192 27.4222 20.6794 27.1514 20.645 27.0683C20.6159 26.998 20.5451 26.7792 20.6765 26.5611L22.2823 26.096C23.1505 25.8445 23.8207 25.1748 24.075 24.3046C24.3242 23.4518 24.126 22.5471 23.5443 21.8842C23.5171 21.8534 23.4893 21.8227 23.4607 21.7925C22.9947 21.3004 22.137 21.2491 20.5008 21.6154C19.348 21.8735 18.0159 22.3047 17.1014 22.621C15.116 23.3076 13.5762 24.8349 12.8931 26.7638H12.1791V26.2124C12.1791 25.824 11.8643 25.5092 11.476 25.5092H0.703121C0.314787 25.5092 0 25.824 0 26.2124V34.1401C0 34.5285 0.314787 34.8432 0.703121 34.8432H5.20563C5.59396 34.8432 5.90875 34.5285 5.90875 34.1401C5.90875 33.7518 5.59396 33.437 5.20563 33.437H1.40624V26.9155H10.7727V34.1401C10.7727 34.5285 11.0875 34.8432 11.4758 34.8432C11.8642 34.8432 12.179 34.5285 12.179 34.1401V33.5887H14.2805C16.348 34.2938 18.4839 34.6489 20.6488 34.6489C21.124 34.6488 21.6008 34.6317 22.0783 34.5975C24.7607 34.405 27.3278 33.6812 29.7084 32.4462C30.2786 32.1504 30.4837 32.0088 30.6031 31.8936L34.9588 27.8506C34.9652 27.8447 34.9715 27.8387 34.9776 27.8326C35.5111 27.2994 35.8734 26.5924 35.9718 25.8929C36.0874 25.0704 35.8458 24.312 35.2913 23.7574ZM29.2592 24.1244C29.7481 23.6355 30.4939 23.5553 31.0673 23.9058L27.894 27.079C27.6727 27.3004 27.3784 27.4223 27.0654 27.4223H25.9613L29.2592 24.1244ZM29.6208 30.8874C29.6237 30.8845 29.627 30.8812 29.6306 30.8778C29.6273 30.881 29.624 30.8842 29.6208 30.8874ZM34.5792 25.6973C34.523 26.097 34.3091 26.509 33.9919 26.8296L29.6396 30.8693C29.6389 30.87 29.6382 30.8705 29.6377 30.8712C29.6107 30.8911 29.4843 30.9785 29.0609 31.1982C24.6459 33.4885 19.4026 33.8673 14.676 32.238L14.6272 32.2211C14.5535 32.1956 14.4761 32.1827 14.398 32.1827H12.179V28.1704H13.4113C13.7304 28.1704 14.0095 27.9554 14.091 27.6468C14.5455 25.9264 15.8427 24.5445 17.5609 23.9502C21.3197 22.6504 22.3085 22.7647 22.4824 22.8065C22.484 22.8084 22.4859 22.8105 22.4876 22.8124C22.7537 23.1157 22.8403 23.5159 22.725 23.9103C22.6063 24.3163 22.2946 24.6284 21.8909 24.7454L20.0764 25.2709C19.9625 25.3039 19.8587 25.3652 19.7749 25.4491C19.1979 26.0262 19.0334 26.8528 19.3457 27.6067C19.6579 28.3604 20.3587 28.8286 21.1746 28.8286H27.0654C27.7541 28.8286 28.4014 28.5604 28.8884 28.0735L32.2101 24.7518C32.4888 24.4731 32.8593 24.3196 33.2535 24.3196C33.6476 24.3196 34.0183 24.4732 34.297 24.7518C34.5385 24.9934 34.6334 25.3115 34.5792 25.6973Z" fill="#787882"/>
<path d="M27.3723 9.91909C27.3379 9.90693 27.3042 9.89497 27.2712 9.88323V8.77012C27.2815 8.78087 27.2905 8.7917 27.298 8.80239C27.5211 9.12027 27.9597 9.19712 28.2775 8.97402C28.5954 8.75099 28.6722 8.31245 28.4491 7.99457C28.2111 7.65538 27.8001 7.36626 27.2683 7.24012C27.2363 6.88145 26.935 6.60034 26.5681 6.60034C26.1857 6.60034 25.8746 6.90557 25.8652 7.28575C25.8372 7.29341 25.809 7.3015 25.7807 7.31001C25.0767 7.52214 24.5454 8.2034 24.4888 8.96678C24.4324 9.72693 24.8341 10.3859 25.5632 10.7297C25.6365 10.7643 25.7386 10.8078 25.865 10.8586V12.3307C25.7535 12.2718 25.6573 12.1986 25.5864 12.1106C25.3428 11.8081 24.9 11.7605 24.5977 12.0041C24.2953 12.2476 24.2477 12.6903 24.4911 12.9927C24.85 13.4382 25.3601 13.6954 25.8713 13.8224C25.9177 14.1658 26.212 14.4306 26.568 14.4306C26.9067 14.4306 27.1894 14.1911 27.2562 13.8723C28.178 13.6953 28.8232 13.0724 28.9305 12.2278C29.0563 11.2372 28.4156 10.2879 27.3723 9.91909ZM27.5355 12.0507C27.5135 12.2237 27.4045 12.3328 27.2712 12.4015V11.4568C27.4727 11.6351 27.5593 11.8632 27.5355 12.0507Z" fill="#787882"/>
<path d="M26.6407 16.744C23.2062 16.744 20.4122 13.9499 20.4122 10.5155C20.4122 7.08106 23.2062 4.28693 26.6407 4.28693C30.0752 4.28693 32.8693 7.08106 32.8693 10.5155C32.8693 13.9499 30.0751 16.744 26.6407 16.744ZM26.6407 5.69317C23.9817 5.69317 21.8184 7.85646 21.8184 10.5155C21.8184 13.1746 23.9817 15.3378 26.6407 15.3378C29.2998 15.3378 31.463 13.1745 31.463 10.5155C31.463 7.85653 29.2998 5.69317 26.6407 5.69317Z" fill="#787882"/>
<path d="M26.6408 19.8746C21.4801 19.8746 17.2817 15.6762 17.2817 10.5155C17.2817 5.3549 21.4802 1.15649 26.6408 1.15649C31.8013 1.15649 35.9998 5.35497 35.9998 10.5155C35.9998 15.6762 31.8013 19.8746 26.6408 19.8746ZM26.6408 2.56274C22.2556 2.56274 18.6879 6.13037 18.6879 10.5155C18.6879 14.9007 22.2556 18.4684 26.6408 18.4684C31.0259 18.4684 34.5936 14.9008 34.5936 10.5155C34.5936 6.1303 31.0259 2.56274 26.6408 2.56274Z" fill="#787882"/>
</g>
<defs>
<clipPath id="clip0">
<rect width="36" height="36" fill="white"/>
</clipPath>
</defs>
</svg>
