<svg width="32" height="32" viewBox="0 0 32 32" fill="none" xmlns="http://www.w3.org/2000/svg">
<g clip-path="url(#clip0)">
<path d="M25.1599 16.2847C25.4186 16.2847 25.6286 16.075 25.6286 15.8159V14.7634C25.6286 14.5044 25.4186 14.2947 25.1599 14.2947C24.9008 14.2947 24.6911 14.5044 24.6911 14.7634V15.8159C24.6911 16.075 24.9008 16.2847 25.1599 16.2847Z" fill="#787882"/>
<path d="M30.3835 16.3642H29.0971C28.7678 15.0746 28.1658 13.8481 27.343 12.7963C26.5141 11.737 25.4573 10.8486 24.2737 10.214V6.81243C24.2737 6.52825 24.1511 6.25775 23.9372 6.07025C23.7241 5.88324 23.4409 5.79705 23.1599 5.83392C21.3157 6.07782 19.7944 7.33172 19.1939 9.06999H18.6992C18.7068 8.96379 18.7107 8.8571 18.7107 8.74944C18.7107 6.3786 16.7825 4.44989 14.4121 4.44989C12.0413 4.44989 10.1126 6.3786 10.1126 8.74944C10.1126 9.07781 10.1507 9.40154 10.2234 9.71526C8.51078 10.37 7.02323 11.4831 5.90165 12.9538C5.74467 13.1596 5.78422 13.4538 5.99027 13.6108C6.07499 13.6754 6.17484 13.7067 6.27397 13.7067C6.41532 13.7067 6.55473 13.6432 6.64726 13.5224C7.65726 12.1979 8.99442 11.194 10.534 10.6003C10.7434 11.0378 11.0257 11.4394 11.3697 11.7856C11.3206 11.798 11.2718 11.8112 11.2229 11.8246C10.9734 11.8937 10.8272 12.1518 10.896 12.4015C10.9536 12.609 11.1421 12.7453 11.3477 12.7453C11.3889 12.7453 11.4312 12.7397 11.4729 12.7282C11.8203 12.632 12.1768 12.5634 12.5322 12.5241C13.0672 12.4652 12.7566 12.4831 18.1926 12.4826C18.4517 12.4826 18.6614 12.2729 18.6614 12.0138C18.6614 11.755 18.4517 11.5451 18.1926 11.5451H17.6816C18.0669 11.0966 18.354 10.5739 18.5256 10.0075H19.5405C19.7532 10.0075 19.9392 9.86443 19.9937 9.65886C20.4043 8.10979 21.6953 6.97332 23.2822 6.7636C23.2873 6.76263 23.303 6.76092 23.3191 6.77508C23.3306 6.78509 23.3362 6.79754 23.3362 6.81268V10.4994C23.3362 10.6774 23.4368 10.84 23.5962 10.9191C25.9717 12.1003 27.7178 14.3476 28.2671 16.9308C28.313 17.1471 28.5041 17.3019 28.7256 17.3019H30.3835C30.6228 17.3019 30.8174 17.4965 30.8174 17.7355V21.205C30.8174 21.4437 30.6228 21.6381 30.3835 21.6381H28.5866C28.2278 21.6381 27.904 21.8519 27.7617 22.184C27.6223 22.5111 27.4612 22.8339 27.2825 23.1427C27.1526 23.3666 27.229 23.6534 27.4531 23.7831C27.5271 23.8261 27.6079 23.8463 27.6875 23.8463C27.8493 23.8463 28.0068 23.7623 28.0935 23.6124C28.2873 23.278 28.4624 22.9288 28.6137 22.5756H30.3835C31.1396 22.5756 31.7549 21.9608 31.7549 21.205V17.7355C31.7549 16.9794 31.1396 16.3642 30.3835 16.3642ZM12.5911 11.5761C11.637 10.9594 11.0498 9.88957 11.0498 8.74944C11.0498 6.89568 12.5581 5.38763 14.4119 5.38763C16.2654 5.38763 17.7732 6.89568 17.7732 8.74944C17.7732 8.97502 17.7512 9.19646 17.7085 9.41155C17.7029 9.43205 17.6985 9.45305 17.6956 9.47453C17.5122 10.3158 17.0122 11.0558 16.2788 11.5451C13.3716 11.5549 13.187 11.5226 12.5911 11.5761Z" fill="#787882"/>
<path d="M26.8283 24.6332C26.6374 24.4586 26.3408 24.4718 26.1662 24.663C25.7419 25.1269 25.2668 25.5463 24.7541 25.9093C24.6342 25.994 24.561 26.13 24.5564 26.2768C24.5234 27.307 24.4196 28.4545 24.248 29.6869C24.1386 30.4725 23.4599 31.0624 22.6672 31.0624H22.6587C21.8821 31.0582 21.2121 30.4662 21.0859 29.6788C21.0022 29.0748 20.9345 28.4894 20.8845 27.9384C20.8576 27.6471 20.8354 27.3651 20.8181 27.1C20.7998 26.8134 20.7864 26.5329 20.7778 26.2663C20.7698 26.0075 20.5508 25.8026 20.2947 25.8126C20.0359 25.8207 19.8327 26.0373 19.8408 26.2958C19.8496 26.5724 19.8635 26.8632 19.8825 27.1601C19.8899 27.2741 19.8982 27.391 19.9074 27.5101C19.8403 27.5116 19.7734 27.5126 19.7073 27.5126H13.616C13.3027 27.5126 12.9775 27.4943 12.6489 27.4581C12.5237 27.4442 12.3982 27.4816 12.3008 27.5614C12.2034 27.641 12.1421 27.7567 12.1309 27.8822C12.0786 28.4645 12.0085 29.0717 11.9229 29.6869C11.8137 30.4711 11.1343 31.0624 10.3423 31.0624C9.55054 31.0624 8.87086 30.4711 8.76173 29.6869C8.75978 29.674 8.75807 29.661 8.75636 29.6481C8.75562 29.6434 8.75489 29.6386 8.7544 29.6339C8.75367 29.6295 8.75318 29.6251 8.75245 29.6207C8.65968 28.9447 8.55274 28.0346 8.49171 27.0712C8.3711 25.1259 8.50538 23.9555 8.62159 23.3559C8.67066 23.1017 8.50465 22.8559 8.2505 22.8065C7.99611 22.7575 7.75026 22.9235 7.70118 23.1776C7.59132 23.7448 7.53322 24.3751 7.51271 25.0319C5.82448 23.3949 4.86989 21.1674 4.86355 18.7839C4.8633 18.7453 4.86355 18.707 4.86403 18.6684C4.86403 18.6681 4.86403 18.6679 4.86403 18.6676C4.86403 18.6633 4.86403 18.6589 4.86403 18.6545C4.87893 17.4284 5.15065 16.2424 5.67311 15.1271C5.78298 14.8925 5.6819 14.6135 5.44753 14.5036C5.21291 14.394 4.9341 14.4951 4.82424 14.7294C4.31008 15.8271 4.01467 16.9867 3.94314 18.1842C2.59182 18.2057 1.64188 18.4928 0.973176 19.0756C0.302035 19.662 0.0339696 20.4987 0.273959 21.2597C0.632112 22.3949 1.95047 22.7758 2.75076 21.9591C3.03713 21.6669 3.17385 21.2846 3.126 20.9098C3.09304 20.653 2.85867 20.4718 2.60159 20.5043C2.34475 20.537 2.16311 20.7719 2.19607 21.0287C2.21219 21.1542 2.12112 21.2624 2.08133 21.3029C1.9761 21.4103 1.82693 21.4711 1.70169 21.4577C1.45389 21.4311 1.25467 21.2516 1.16824 20.9777C1.04007 20.5714 1.19778 20.1244 1.58963 19.7821C2.07278 19.3608 2.84133 19.144 3.93264 19.1225C4.03518 21.9274 5.32619 24.5111 7.51491 26.2858C7.55079 27.4413 7.67286 28.6669 7.83302 29.8161C8.00636 31.0612 9.08521 31.9999 10.3423 31.9999C11.5994 31.9999 12.678 31.0612 12.8513 29.8161C12.9165 29.3478 12.9729 28.8837 13.0195 28.431C13.2212 28.4437 13.4204 28.4501 13.616 28.4501H19.707C19.801 28.4501 19.896 28.4486 19.9914 28.4459C20.0364 28.8795 20.0901 29.3239 20.1518 29.7714C20.1538 29.786 20.156 29.8009 20.1584 29.8156V29.8161C20.1592 29.8207 20.1599 29.8253 20.1606 29.83C20.3598 31.0646 21.4214 31.9933 22.6535 31.9999C22.6582 31.9999 22.6626 32.0001 22.6672 31.9999C23.9253 31.9999 25.0027 31.0634 25.1765 29.8163C25.3401 28.6415 25.4436 27.5397 25.4848 26.537C25.9802 26.1681 26.4411 25.7514 26.8579 25.2956C27.0327 25.1044 27.0195 24.808 26.8283 24.6332Z" fill="#787882"/>
<path d="M14.7356 8.28052H14.0879C13.946 8.28052 13.8306 8.16504 13.8306 8.02319C13.8306 7.88159 13.946 7.76611 14.0879 7.76611H15.3274C15.5864 7.76611 15.7961 7.5564 15.7961 7.29736C15.7961 7.03857 15.5864 6.82861 15.3274 6.82861H14.9502V6.59668C14.9502 6.33765 14.7405 6.12793 14.4814 6.12793C14.2227 6.12793 14.0127 6.33765 14.0127 6.59668V6.83105C13.3889 6.86987 12.8931 7.38989 12.8931 8.02344C12.8931 8.68213 13.429 9.21802 14.0879 9.21802H14.7356C14.8772 9.21802 14.9927 9.3335 14.9927 9.4751C14.9927 9.61694 14.8772 9.73218 14.7356 9.73218H13.4958C13.2371 9.73218 13.0271 9.94214 13.0271 10.2009C13.0271 10.46 13.2371 10.6697 13.4958 10.6697H14.0127V10.9019C14.0127 11.1606 14.2227 11.3706 14.4814 11.3706C14.7405 11.3706 14.9502 11.1606 14.9502 10.9019V10.6504C15.5068 10.5491 15.9302 10.0605 15.9302 9.4751C15.9302 8.81641 15.3943 8.28052 14.7356 8.28052Z" fill="#787882"/>
<path d="M5.95386 8.59839C8.32446 8.59839 10.2532 6.66992 10.2532 4.29907C10.2532 1.92847 8.32446 0 5.95386 0C5.09253 0 4.26123 0.253906 3.5498 0.734619C3.33521 0.879395 3.27881 1.17065 3.42383 1.38525C3.5686 1.59985 3.86011 1.65625 4.07471 1.51147C4.63037 1.13599 5.28027 0.9375 5.95386 0.9375C7.80762 0.9375 9.31567 2.44556 9.31567 4.29907C9.31567 6.15283 7.80762 7.66089 5.95386 7.66089C4.10034 7.66089 2.59229 6.15283 2.59229 4.29907C2.59229 3.76147 2.71533 3.24805 2.95776 2.77295C3.07544 2.54248 2.98413 2.26001 2.75342 2.14233C2.52295 2.02466 2.24072 2.11597 2.1228 2.34668C1.81665 2.94629 1.65479 3.62158 1.65479 4.29907C1.65479 6.66992 3.58325 8.59839 5.95386 8.59839Z" fill="#787882"/>
<path d="M6.02368 1.67804C5.76489 1.67804 5.55493 1.88776 5.55493 2.14679V2.38116C4.93115 2.41998 4.43555 2.94 4.43555 3.57355C4.43555 4.23224 4.97119 4.76813 5.63013 4.76813H6.27783C6.41943 4.76813 6.53491 4.88336 6.53491 5.02521C6.53491 5.16705 6.41943 5.28229 6.27783 5.28229H5.03833C4.7793 5.28229 4.56958 5.492 4.56958 5.75104C4.56958 6.01007 4.7793 6.21979 5.03833 6.21979H5.55518V6.45172C5.55518 6.71075 5.76489 6.92047 6.02393 6.92047C6.28271 6.92047 6.49268 6.71075 6.49268 6.45172V6.2005C7.04907 6.09918 7.47241 5.61066 7.47241 5.02521C7.47241 4.36652 6.93652 3.83063 6.27783 3.83063H5.63013C5.48828 3.83063 5.37305 3.71515 5.37305 3.57355C5.37305 3.4317 5.48828 3.31647 5.63013 3.31647H6.86963C7.12866 3.31647 7.33838 3.10651 7.33838 2.84772C7.33838 2.58868 7.12866 2.37897 6.86963 2.37897H6.49268V2.14679C6.49243 1.88776 6.28271 1.67804 6.02368 1.67804Z" fill="#787882"/>
</g>
<defs>
<clipPath id="clip0">
<rect width="32" height="32" fill="white"/>
</clipPath>
</defs>
</svg>
