<svg width="31" height="31" viewBox="0 0 31 31" fill="none" xmlns="http://www.w3.org/2000/svg">
<path d="M24.113 16.2124L27.7003 14.6871C28.0329 14.5452 28.1873 14.1606 28.0454 13.8281C27.989 13.696 27.8907 13.5861 27.7658 13.5154L25.9852 12.4942L27.733 11.7545C28.0656 11.6126 28.2201 11.2279 28.0781 10.8954C28.0217 10.7634 27.9235 10.6535 27.7985 10.5827L25.9852 9.56151L27.733 8.8218C28.0656 8.67991 28.2201 8.29525 28.0781 7.96279C28.0217 7.83072 27.9235 7.72083 27.7985 7.65005L25.9852 6.62885L27.733 5.88914C28.0656 5.74726 28.2201 5.36259 28.0781 5.03013C28.0217 4.89806 27.9235 4.78817 27.7985 4.71739L19.5308 0.0827443C19.3559 -0.0146291 19.1461 -0.0267394 18.9613 0.0500138L12.8406 2.55717C12.7666 2.56012 12.6935 2.57558 12.6246 2.603L8.88679 4.17406L1.20821 7.32274C0.87133 7.45407 0.704731 7.83358 0.836062 8.17038C0.88884 8.3058 0.985232 8.41987 1.11002 8.49449L2.9102 9.55496L1.20821 10.2619C0.872802 10.3969 0.710214 10.7781 0.845145 11.1135C0.897514 11.2438 0.990387 11.3537 1.11002 11.4272L2.9102 12.4876L1.19512 13.1946C0.859956 13.3302 0.698267 13.7118 0.833853 14.047C0.888104 14.181 0.985232 14.2933 1.11002 14.3664L2.9102 15.4268L1.20821 16.1534C0.877139 16.2986 0.726333 16.6847 0.871493 17.0158C0.922062 17.1312 1.00487 17.2295 1.10994 17.299L3.11304 18.4773V27.6419C3.11304 29.8217 6.87706 31 10.4185 31C12.8078 31 15.2888 30.4632 16.6569 29.442C17.9662 30.3978 20.2835 31 22.9085 31C26.4499 31 30.2139 29.8217 30.2139 27.6419V19.5247C30.2206 17.587 27.2552 16.448 24.113 16.2124ZM21.1346 16.0618V14.5496L24.4469 13.1422L25.9852 14.0063L21.1346 16.0618ZM21.1346 13.1291V11.617L24.4469 10.2096L25.9852 11.0737L21.1346 13.1291ZM21.1346 10.1965V8.67779L24.4469 7.27037L25.9852 8.141L21.1346 10.1965ZM19.1707 1.37887L25.9852 5.2018L20.5192 7.51258L14.3135 3.36889L19.1707 1.37887ZM9.02426 5.53565L15.302 9.72516L9.78361 12.0687L2.92329 8.03627L9.02426 5.53565ZM4.34379 10.3863L9.40394 13.3648C9.58297 13.4708 9.80161 13.4853 9.99309 13.4041L16.0221 10.8445V12.3567L12.9454 13.6659C11.1701 13.3812 9.35926 13.4011 7.59066 13.7248L2.92329 10.9689L4.34379 10.3863ZM16.0155 13.7772V14.6086C15.705 14.4465 15.3834 14.3065 15.0532 14.1896L16.0155 13.7772ZM3.12622 16.8081V16.9455L2.92329 16.8277L3.13276 16.7426L3.12622 16.8081ZM2.92329 13.895L4.34379 13.3124L5.81012 14.1896C5.35173 14.3607 4.91282 14.5801 4.5009 14.8442L2.92329 13.895ZM16.4214 27.6419C16.4214 28.4798 14.0844 29.6908 10.4251 29.6908C6.76585 29.6908 4.42889 28.4798 4.42889 27.6419V26.9087C5.83631 27.8186 8.17327 28.2965 10.4251 28.2965C12.677 28.2965 15.0074 27.8186 16.4214 26.9087V27.6419ZM16.4214 24.9383C16.4214 25.7762 14.0844 26.9873 10.4251 26.9873C6.76585 26.9873 4.42889 25.7762 4.42889 24.9383V24.2052C5.83631 25.1151 8.17327 25.5929 10.4251 25.5929C12.677 25.5929 15.0074 25.1151 16.4214 24.2052V24.9383ZM16.4214 22.2348C16.4214 23.0727 14.0844 24.2837 10.4251 24.2837C6.76585 24.2837 4.42889 23.0727 4.42889 22.2348V21.5016C5.83631 22.4115 8.17327 22.8894 10.4251 22.8894C12.677 22.8894 15.0074 22.4115 16.4214 21.5016V22.2348ZM16.4214 19.5312C16.4214 20.3691 14.0844 21.5802 10.4251 21.5802C6.76585 21.5802 4.42889 20.3626 4.42889 19.5312V18.7719C5.83631 19.6818 8.17327 20.1597 10.4251 20.1597C12.677 20.1597 15.0074 19.6818 16.4214 18.7719V19.5312ZM10.4317 18.8701L10.4251 18.8766C6.76585 18.8766 4.42889 17.659 4.42889 16.8277C4.42889 15.9963 6.76585 14.7788 10.4251 14.7788C14.0844 14.7788 16.4279 15.9832 16.4279 16.8081C16.4279 17.6329 14.091 18.8701 10.4317 18.8701ZM17.0367 9.31276L10.4906 4.93996L12.8537 3.97113L19.8123 8.61232V16.4677C19.0987 16.6094 18.4029 16.8289 17.7371 17.1223V16.8081C17.732 16.3879 17.5894 15.981 17.3313 15.6494V9.85608C17.3301 9.63712 17.2196 9.43321 17.0367 9.31276ZM28.9113 27.6419C28.9113 28.4798 26.5744 29.6908 22.9151 29.6908C20.349 29.6908 18.4507 29.0951 17.5342 28.4536C17.6608 28.2016 17.728 27.9239 17.7306 27.6419V27.3538C19.377 28.0162 21.1409 28.3369 22.9151 28.2965C25.167 28.2965 27.4974 27.8186 28.9113 26.9087V27.6419ZM28.9113 24.9383C28.9113 25.7762 26.5744 26.9873 22.9151 26.9873C21.1212 27.0539 19.339 26.6715 17.7306 25.8744V24.6634C19.377 25.3258 21.1409 25.6464 22.9151 25.606C25.167 25.606 27.4974 25.1282 28.9113 24.2182V24.9383ZM28.9113 22.2348C28.9113 23.0727 26.5744 24.2837 22.9151 24.2837C21.1212 24.3507 19.339 23.9682 17.7306 23.1709V21.9402C19.377 22.6026 21.1409 22.9233 22.9151 22.8828C25.167 22.8828 27.4974 22.405 28.9113 21.4951V22.2348ZM22.9151 21.5802C21.1212 21.6472 19.339 21.2646 17.7306 20.4673V18.5886C19.338 17.7873 21.1202 17.4003 22.9151 17.4627C26.5744 17.4627 28.9113 18.6802 28.9113 19.5116C28.9113 20.343 26.5809 21.5802 22.9151 21.5802Z" fill="#787882"/>
</svg>
