<svg width="32" height="32" viewBox="0 0 32 32" fill="none" xmlns="http://www.w3.org/2000/svg">
<path d="M31.9941 11.2C31.9413 10.2874 30.856 9.57437 28.6853 9.03037C28.7584 8.87037 28.7995 8.70398 28.8 8.53118V4.79998H28.7909C28.6 1.69171 15.8629 1.59998 14.4 1.59998C12.9371 1.59998 0.2 1.69171 0.00906667 4.79998H0V4.86931V8.53277C0.00266667 9.54611 1.3104 10.3392 3.256 10.9296C3.22933 11.0181 3.21333 11.1082 3.208 11.2H3.2V11.2693V14.9264C1.104 15.4661 0.0570667 16.169 0.00533333 17.0666H0V17.136V20.7994C0.0016 21.505 0.637867 22.1034 1.67893 22.6021C1.63947 22.7104 1.61493 22.8208 1.608 22.9338H1.6V23.0032V26.6666C1.60427 28.4405 5.5984 29.5418 10.0363 30.056C10.0688 30.0624 10.0987 30.0757 10.1333 30.0757C10.1435 30.0757 10.152 30.0704 10.1621 30.0698C11.0176 30.1664 11.8869 30.2416 12.7472 30.2954C12.7653 30.2976 12.7813 30.3061 12.8 30.3061C12.8101 30.3061 12.8181 30.3008 12.8277 30.3002C13.92 30.3664 14.9947 30.4 16 30.4C17.0053 30.4 18.08 30.3664 19.1723 30.2997C19.1819 30.3002 19.1904 30.3056 19.2 30.3056C19.2187 30.3056 19.2347 30.2965 19.2528 30.2949C20.1131 30.241 20.9824 30.1664 21.8379 30.0693C21.848 30.0693 21.8565 30.0746 21.8667 30.0746C21.9013 30.0746 21.9312 30.0613 21.9637 30.0549C26.4016 29.5408 30.3952 28.4389 30.4 26.6645V22.9333H30.3915C30.3541 22.2794 29.7968 21.7338 28.696 21.2778C28.7632 21.1237 28.8 20.9637 28.8 20.7978V17.312C30.7147 16.7232 31.9973 15.9354 32 14.9312V11.2H31.9941ZM27.6757 20.9712L27.4939 21.1306C27.2139 21.3776 26.7472 21.6266 26.1333 21.8666V19.3237C26.7675 19.1029 27.3072 18.8581 27.7333 18.5898V20.7968C27.7333 20.8517 27.7131 20.9104 27.6757 20.9712ZM15.7472 23.4496C15.6693 23.4517 15.5909 23.4528 15.5125 23.4544C15.3221 23.4581 15.1269 23.4592 14.9339 23.4608V20.7968C15.0805 20.7952 15.2272 20.793 15.3739 20.7904C15.4021 20.7898 15.4304 20.7893 15.4587 20.7888C15.9957 20.7786 16.5328 20.7621 17.0672 20.7376V23.4005C16.9531 23.4064 16.8384 23.4117 16.7227 23.4165C16.4016 23.4309 16.0773 23.4416 15.7472 23.4496ZM13.4181 23.457C13.1739 23.4528 12.9307 23.4469 12.6891 23.4394C12.6592 23.4384 12.6293 23.4373 12.5995 23.4362C12.3088 23.4266 12.0203 23.4144 11.7339 23.4005V20.7381C12.2683 20.7632 12.8053 20.7797 13.3424 20.7893C13.3707 20.7898 13.3989 20.7904 13.4267 20.7909C13.5733 20.7936 13.72 20.7957 13.8667 20.7973V23.4629C13.7632 23.4618 13.6597 23.4618 13.5568 23.4602C13.5099 23.4592 13.4645 23.4576 13.4181 23.457ZM3.78507 22.241C3.76747 22.2357 3.75093 22.2309 3.73333 22.2261V19.6496C4.23147 19.784 4.76693 19.9066 5.33333 20.0181V22.6213C4.84373 22.5173 4.392 22.408 3.9808 22.296C3.91573 22.2773 3.84853 22.2597 3.78507 22.241ZM15.0267 26.6576C15.1733 26.6602 15.32 26.6624 15.4667 26.664V29.3301C14.7296 29.3232 14.0181 29.3018 13.3333 29.2682V26.6053C13.8677 26.6304 14.4048 26.6469 14.9419 26.6565C14.9701 26.6565 14.9984 26.657 15.0267 26.6576ZM17.0581 26.656C17.5952 26.6458 18.1323 26.6293 18.6667 26.6048V29.2677C17.9819 29.3013 17.2704 29.3226 16.5333 29.3296V26.6634C16.68 26.6618 16.8267 26.6597 16.9733 26.657C17.0016 26.657 17.0299 26.6565 17.0581 26.656ZM21.3333 26.4149V29.0634C20.8208 29.1173 20.2875 29.1648 19.7333 29.2037V26.544C20.2741 26.5088 20.8085 26.4656 21.3333 26.4149ZM22.4 26.2997C22.9499 26.2336 23.4837 26.1584 24 26.0746V28.6933C23.4976 28.7818 22.9637 28.8634 22.4 28.9376V26.2997ZM25.0667 25.8842C25.6331 25.7728 26.1685 25.6501 26.6667 25.5157V28.0922C26.1915 28.2293 25.6565 28.3621 25.0667 28.4874V25.8842ZM6.93333 25.8842V28.4874C6.34347 28.3621 5.80853 28.2293 5.33333 28.0922V25.5157C5.83147 25.6501 6.36693 25.7733 6.93333 25.8842ZM8 26.0752C8.51627 26.1589 9.05013 26.2341 9.6 26.3002V28.9381C9.03627 28.864 8.5024 28.7824 8 28.6938V26.0752ZM10.6667 26.4149C11.1915 26.4656 11.7259 26.5088 12.2667 26.5445V29.2042C11.7125 29.1653 11.1792 29.1178 10.6667 29.064V26.4149ZM9.34347 23.2256C9.28907 23.2202 9.2352 23.2144 9.18133 23.209C9.14293 23.2053 9.10507 23.2005 9.06667 23.1968V20.5488C9.59147 20.5994 10.1259 20.6426 10.6667 20.6784V23.336C10.2187 23.304 9.776 23.2677 9.34347 23.2256ZM8 20.433V23.0709C7.43627 22.9968 6.9024 22.9152 6.4 22.8266V20.208C6.91627 20.2917 7.45013 20.3674 8 20.433ZM18.4885 23.3109C18.3712 23.32 18.2528 23.329 18.1333 23.3376V20.6778C18.6741 20.6421 19.2085 20.5994 19.7333 20.5482V23.1968C19.4037 23.2314 19.0667 23.264 18.7205 23.2922C18.6432 23.2992 18.5659 23.305 18.4885 23.3109ZM20.8 23.0709V20.433C21.3499 20.3669 21.8837 20.2917 22.4 20.208V22.8266C21.8976 22.9152 21.3637 22.9973 20.8 23.0709ZM23.4667 20.0176C24.0331 19.9061 24.5685 19.7834 25.0667 19.649V22.2256C24.5915 22.3626 24.0565 22.4954 23.4667 22.6208V20.0176ZM16.1733 17.5813C15.7723 17.5712 15.3803 17.5557 14.9952 17.537C14.9744 17.536 14.9536 17.5349 14.9333 17.5344V14.8714C15.4677 14.8965 16.0048 14.913 16.5419 14.9226C16.5701 14.9232 16.5984 14.9237 16.6261 14.9242C16.7728 14.9269 16.9195 14.929 17.0661 14.9306V17.5936C16.8064 17.5909 16.5445 17.5898 16.2912 17.584C16.2523 17.5829 16.2123 17.5824 16.1733 17.5813ZM3.73333 9.95944V7.38291C4.23147 7.51731 4.76693 7.63998 5.33333 7.75144V10.3546C5.26773 10.3408 5.2 10.3269 5.136 10.313C4.85227 10.2506 4.57547 10.1856 4.31093 10.1168C4.10933 10.065 3.91787 10.0122 3.73333 9.95944ZM13.4267 8.52424C13.5733 8.52691 13.72 8.52904 13.8667 8.53064V11.1936C13.1488 11.1866 12.4352 11.168 11.7333 11.1328V8.47198C12.2677 8.49704 12.8048 8.51358 13.3419 8.52318C13.3701 8.52318 13.3984 8.52371 13.4267 8.52424ZM15.4581 8.52264C15.9952 8.51251 16.5323 8.49598 17.0667 8.47144V11.1322C16.976 11.1365 16.8891 11.1429 16.7979 11.1472C16.7904 11.1477 16.7829 11.1477 16.7749 11.1482C16.4171 11.1642 16.0523 11.176 15.6827 11.1845C15.6251 11.1861 15.5675 11.1866 15.5099 11.1882C15.32 11.192 15.1259 11.1925 14.9333 11.1946V8.53064C15.08 8.52904 15.2267 8.52691 15.3733 8.52424C15.4016 8.52371 15.4299 8.52317 15.4581 8.52264ZM27.6112 8.79038L27.5963 8.78718L27.4021 8.93811C27.1205 9.15731 26.688 9.37918 26.1333 9.59358V7.05651C26.7675 6.83571 27.3072 6.59091 27.7333 6.32264V8.52958C27.7333 8.61064 27.6907 8.69811 27.6112 8.79038ZM20.8 10.801V8.16638C21.3499 8.10024 21.8837 8.02504 22.4 7.94131V10.5557C21.8944 10.6453 21.3621 10.7274 20.8 10.801ZM23.4667 10.3504V7.75144C24.0331 7.63998 24.5685 7.51731 25.0667 7.38291V9.95358C24.5888 10.0928 24.0507 10.2256 23.4667 10.3504ZM19.7333 8.28158V10.9269C19.2181 10.9813 18.6848 11.0288 18.1333 11.0682V8.41118C18.6741 8.37544 19.2085 8.33224 19.7333 8.28158ZM9.06667 10.928V8.28158C9.59147 8.33224 10.1259 8.37544 10.6667 8.41118V11.0661C10.1237 11.0272 9.58827 10.9829 9.06667 10.928ZM8 8.16638V10.8016C7.8944 10.7877 7.78453 10.7765 7.68 10.7621C7.61173 10.7525 7.54667 10.7424 7.47947 10.7328C7.1712 10.6885 6.86987 10.641 6.5744 10.5914C6.5152 10.5813 6.45813 10.5706 6.4 10.5605V7.94184C6.91627 8.02504 7.45013 8.10078 8 8.16638ZM13.7344 17.4608C13.6624 17.4554 13.5899 17.4501 13.5184 17.4448C13.1771 17.4181 12.8437 17.3888 12.5184 17.3562C12.4485 17.3493 12.3787 17.3418 12.3093 17.3349C12.2949 17.3333 12.2811 17.3312 12.2667 17.3301V14.6816C12.7915 14.7322 13.3259 14.7754 13.8667 14.8112V17.4693C13.8235 17.4661 13.7776 17.464 13.7344 17.4608ZM10.2107 17.0624C9.99947 17.0288 9.80107 16.9925 9.6 16.9573V14.3418C10.1163 14.4256 10.6501 14.5008 11.2 14.5669V17.2048C10.8736 17.1616 10.5541 17.1168 10.2475 17.0688C10.2352 17.0661 10.2229 17.064 10.2107 17.0624ZM8.53333 14.1509V16.7498C7.944 16.6234 7.4096 16.489 6.93333 16.3493V13.7824C7.43147 13.9168 7.96693 14.04 8.53333 14.1509ZM5.86667 13.4565V15.9904C5.02827 15.6666 4.48747 15.336 4.31147 15.0416L4.27573 14.9818C4.27253 14.9653 4.2672 14.9477 4.26667 14.9312V12.7226C4.6928 12.9909 5.23253 13.2357 5.86667 13.4565ZM18.6581 14.9226C19.1952 14.9125 19.7323 14.896 20.2667 14.8714V17.5317C19.5659 17.5664 18.8533 17.5856 18.1333 17.593V14.9306C18.28 14.929 18.4267 14.9269 18.5733 14.9242C18.6016 14.9237 18.6299 14.9232 18.6581 14.9226ZM25.5504 16.969C25.3163 17.0096 25.08 17.0496 24.8373 17.0864C24.6981 17.1077 24.5557 17.128 24.4128 17.1482C24.2779 17.1674 24.1376 17.184 24.0005 17.2016V14.5664C24.5504 14.5002 25.0843 14.425 25.6005 14.3413V16.96C25.5835 16.9632 25.5669 16.9664 25.5504 16.969ZM21.9392 17.4245C21.7403 17.441 21.5349 17.4517 21.3333 17.4661V14.8112C21.8741 14.7754 22.4085 14.7328 22.9333 14.6816V17.3274C22.6235 17.36 22.3141 17.3925 21.9957 17.4192C21.9765 17.4208 21.9584 17.4229 21.9392 17.4245ZM28.0341 16.4245C27.7685 16.4986 27.4875 16.568 27.2005 16.6357C27.0677 16.6666 26.9323 16.6976 26.7936 16.7274C26.7525 16.7365 26.7088 16.7445 26.6672 16.7536V14.1514C27.2336 14.04 27.7691 13.9173 28.2672 13.7829V16.3594C28.1904 16.3808 28.1131 16.4026 28.0341 16.4245ZM30.9275 11.2346C30.8784 11.5968 30.0576 12.0784 28.5925 12.5312C26.7056 13.1141 23.7531 13.648 20.0112 13.8133C19.8197 13.8213 19.6288 13.8293 19.4336 13.8357C19.2741 13.841 19.1141 13.8458 18.9515 13.8501C18.5099 13.8597 18.0619 13.8666 17.6 13.8666C17.1381 13.8666 16.6901 13.8597 16.2485 13.8496C16.0864 13.8458 15.9264 13.8405 15.7664 13.8352C15.5707 13.8293 15.3797 13.8208 15.1888 13.8128C11.4469 13.6474 8.49387 13.1136 6.60747 12.5306C5.15413 12.0816 4.33493 11.6037 4.27413 11.2432C4.2768 11.233 4.2768 11.2245 4.2832 11.2117C4.31947 11.2208 4.36 11.2282 4.3968 11.2373C4.60533 11.2869 4.8192 11.3349 5.0368 11.3808C6.09653 11.609 7.27093 11.7962 8.52213 11.9392C8.5264 11.9392 8.5296 11.9413 8.53333 11.9413C8.5344 11.9413 8.53547 11.9408 8.536 11.9408C9.38827 12.0378 10.2725 12.1141 11.1803 12.168C11.1872 12.168 11.1931 12.1717 11.2 12.1717C11.2037 12.1717 11.2064 12.1696 11.2101 12.1696C11.8635 12.208 12.5253 12.2362 13.1952 12.2512C13.6053 12.2613 14.008 12.2666 14.4 12.2666C14.68 12.2666 14.9669 12.2634 15.2565 12.2581C19.1317 12.1984 22.7232 11.7376 25.2224 11.0234C25.3376 10.9909 25.4501 10.9573 25.5611 10.9237C25.6288 10.9029 25.6981 10.8826 25.7637 10.8618C25.9568 10.8 26.1419 10.7365 26.3205 10.6704C26.3515 10.6586 26.3808 10.6469 26.4117 10.6352C26.5627 10.5781 26.7077 10.5189 26.8464 10.4586C26.8864 10.441 26.9275 10.424 26.9664 10.4064C27.1141 10.3397 27.2571 10.2714 27.3893 10.2005C27.4491 10.169 27.5008 10.1365 27.5568 10.1045C27.6208 10.0677 27.6848 10.0304 27.744 9.99251C27.7776 9.97118 27.8176 9.95091 27.8496 9.92957C30.2373 10.4474 30.8667 11.0138 30.9275 11.2346ZM14.4 2.66664C23.1941 2.66664 27.6421 4.05118 27.7253 4.84584C27.6608 5.20638 26.8421 5.68264 25.3925 6.13064C23.5056 6.71358 20.5531 7.24744 16.8112 7.41278C16.6197 7.42078 16.4288 7.42878 16.2336 7.43518C16.0741 7.44051 15.9141 7.44531 15.7515 7.44958C15.3099 7.45971 14.8619 7.46664 14.4 7.46664C13.9381 7.46664 13.4901 7.45971 13.0485 7.44958C12.8864 7.44584 12.7264 7.44051 12.5664 7.43518C12.3707 7.42931 12.1797 7.42078 11.9888 7.41278C8.24693 7.24744 5.29387 6.71358 3.40747 6.13064C1.95733 5.68264 1.1392 5.20638 1.07467 4.84584C1.15787 4.05118 5.60587 2.66664 14.4 2.66664ZM1.06667 8.53118V6.32264C1.4928 6.59091 2.03253 6.83571 2.66667 7.05651V9.61011C1.62933 9.22131 1.06773 8.83144 1.06667 8.53118ZM3.65013 15.912C3.65813 15.9205 3.6704 15.928 3.6784 15.9365C4.40853 16.6736 5.92053 17.2528 7.80267 17.6848C7.84587 17.6949 7.89173 17.7045 7.93547 17.7146C8.0736 17.7456 8.21387 17.776 8.35573 17.8053C10.0843 18.1733 12.1477 18.4394 14.3957 18.5712C14.3973 18.5712 14.3984 18.5717 14.3995 18.5717C14.4005 18.5717 14.4011 18.5712 14.4016 18.5712C15.1237 18.6133 15.8624 18.6426 16.6165 18.6554C16.9504 18.6624 17.2789 18.6666 17.6 18.6666C17.968 18.6666 18.3456 18.6624 18.7296 18.6533C19.4272 18.6389 20.1147 18.6101 20.7925 18.5706C20.7952 18.5706 20.7973 18.5722 20.8 18.5722C20.8048 18.5722 20.8085 18.5696 20.8133 18.5696C23.0672 18.4368 25.1819 18.168 26.9701 17.7813C26.5829 17.984 26.0528 18.1936 25.3925 18.3978C23.4005 19.0133 20.2192 19.5738 16.176 19.704C16.056 19.7077 15.9376 19.712 15.816 19.7152C15.6853 19.7184 15.5525 19.7205 15.4197 19.7232C15.0843 19.7285 14.7467 19.7333 14.4 19.7333C13.9381 19.7333 13.4901 19.7264 13.0485 19.7162C12.8864 19.7125 12.7264 19.7072 12.5664 19.7018C12.3707 19.696 12.1797 19.6874 11.9888 19.6794C8.24693 19.5141 5.29387 18.9802 3.40747 18.3973C1.9408 17.944 1.12 17.4618 1.07253 17.0997C1.13173 16.8992 1.67093 16.3973 3.65013 15.912ZM1.06667 20.7978V18.5893C1.4928 18.8576 2.03253 19.1024 2.66667 19.3232V21.8666L2.36213 21.7482L2.35573 21.7546C1.5184 21.4074 1.06773 21.0666 1.06667 20.7978ZM2.66667 26.6645V24.456C3.0928 24.7242 3.63253 24.969 4.26667 25.1898V27.7434C3.22933 27.3546 2.66773 26.9648 2.66667 26.6645ZM27.7333 27.7434V25.1904C28.3675 24.9696 28.9072 24.7248 29.3333 24.4565V26.6634C29.3328 26.9637 28.7707 27.3541 27.7333 27.7434ZM29.3264 22.9744C29.2683 23.3354 28.4491 23.8144 26.9925 24.2645C25.1056 24.8474 22.1531 25.3813 18.4112 25.5466C18.2197 25.5546 18.0288 25.5626 17.8336 25.569C17.6741 25.5744 17.5141 25.5792 17.3515 25.5834C16.9099 25.593 16.4619 25.6 16 25.6C15.5381 25.6 15.0896 25.593 14.6475 25.5829C14.4869 25.5792 14.3285 25.5738 14.1701 25.5685C13.9733 25.5621 13.7813 25.5541 13.5888 25.5461C9.84693 25.3808 6.8944 24.8469 5.00747 24.264C3.5968 23.8282 2.78187 23.3653 2.67947 23.008C2.8384 23.0634 3.0032 23.1173 3.17227 23.1701C3.18933 23.1754 3.2064 23.1808 3.22347 23.1856C3.36747 23.2298 3.51467 23.2725 3.6656 23.3141C3.72267 23.3301 3.78027 23.3461 3.8384 23.3616C3.92373 23.3845 4.0112 23.4064 4.09867 23.4288C6.04107 23.9264 8.52053 24.2789 11.1973 24.4373C11.1984 24.4373 11.1989 24.4378 11.2 24.4378C11.2005 24.4378 11.2011 24.4373 11.2016 24.4373C12.0283 24.4864 12.8725 24.5168 13.7259 24.5269C13.9531 24.5312 14.1787 24.5333 14.4 24.5333C14.6939 24.5333 14.9947 24.5296 15.2992 24.5242C16.0773 24.5114 16.8453 24.4826 17.5963 24.4378C17.5979 24.4378 17.5989 24.4389 17.6005 24.4389C17.6032 24.4389 17.6048 24.4373 17.6075 24.4373C18.5221 24.3824 19.4075 24.304 20.2581 24.2064C20.2613 24.2064 20.264 24.208 20.2672 24.208C20.2789 24.208 20.2885 24.2021 20.3003 24.201C21.2475 24.0917 22.1456 23.9573 22.9792 23.801C23.1509 23.7696 23.32 23.737 23.4875 23.7034C23.5248 23.696 23.5621 23.6885 23.5995 23.6805C25.1744 23.3573 26.5376 22.9386 27.4731 22.4197C27.5243 22.392 27.5723 22.3632 27.6208 22.3349C27.68 22.2997 27.7365 22.264 27.7915 22.2277C27.8427 22.1946 27.9019 22.1626 27.9488 22.129C29.0016 22.5045 29.2917 22.8405 29.3264 22.9744ZM29.3333 16.0101V13.457C29.9675 13.2362 30.5072 12.9914 30.9333 12.7232V14.9301C30.9328 15.2304 30.3707 15.6208 29.3333 16.0101Z" fill="#787882"/>
</svg>
