<svg width="32" height="32" viewBox="0 0 32 32" fill="none" xmlns="http://www.w3.org/2000/svg">
<g clip-path="url(#clip0)">
<path d="M27.8871 5.06567C27.5343 5.06567 27.2313 5.27755 27.0973 5.58073C26.9633 5.27755 26.6604 5.06567 26.3075 5.06567C25.8305 5.06567 25.444 5.45236 25.444 5.92923C25.444 6.86535 26.6418 7.80785 26.9983 8.06779C27.0574 8.11085 27.1374 8.11079 27.1964 8.06772C27.5531 7.80779 28.7507 6.86523 28.7507 5.9293C28.7508 5.45236 28.3641 5.06567 27.8871 5.06567Z" fill="#787882"/>
<path d="M27.5842 0.396606C27.3668 0.396606 27.1799 0.527231 27.0973 0.714168C27.0147 0.527231 26.8279 0.396606 26.6104 0.396606C26.3163 0.396606 26.0779 0.634981 26.0779 0.929042C26.0779 1.50616 26.8164 2.08729 27.0363 2.24754C27.0726 2.2741 27.1219 2.27397 27.1584 2.24754C27.3783 2.08729 28.1167 1.5061 28.1167 0.929042C28.1167 0.634981 27.8783 0.396606 27.5842 0.396606Z" fill="#787882"/>
<path d="M23.3286 3.43799C23.1111 3.43799 22.9243 3.56861 22.8417 3.75555C22.7591 3.56861 22.5723 3.43799 22.3548 3.43799C22.0607 3.43799 21.8223 3.67636 21.8223 3.97042C21.8223 4.54761 22.5608 5.12867 22.7806 5.28892C22.817 5.31548 22.8663 5.31548 22.9028 5.28892C23.1226 5.12867 23.8611 4.54755 23.8611 3.97042C23.8611 3.67642 23.6227 3.43799 23.3286 3.43799Z" fill="#787882"/>
<path d="M27.1865 28.3537L24.6164 23.2993V21.7542C23.752 21.9708 23.6992 21.9841 23.1569 22.1201V26.9833L24.5384 29.7002C24.91 30.431 25.8039 30.7231 26.5358 30.351C27.2669 29.9791 27.5583 29.0849 27.1865 28.3537Z" fill="#787882"/>
<path d="M19.1359 23.1281V30.5146C19.1359 31.335 19.8009 32 20.6213 32C21.4418 32 22.1067 31.335 22.1067 30.5146V22.3833L19.1359 23.1281Z" fill="#787882"/>
<path d="M27.0994 19.2015L21.8436 7.63845C21.5322 6.95326 20.8118 6.55183 20.1037 6.72932C19.1139 6.97745 18.4868 7.1347 17.595 7.35832C16.9025 7.53188 16.44 8.21238 16.4898 8.98088C16.5769 10.3257 16.5899 10.5253 16.626 11.0829L17.2075 11.2094L18.3112 9.31663L17.443 12.3993L13.5721 11.5577L14.3638 11.9254C15.3424 12.3799 15.8786 13.3982 15.7673 14.4144L18.0183 14.9037C18.619 15.0344 19.2176 14.6746 19.3843 14.0829L20.5491 9.947L20.4554 14.3845C20.4317 15.5043 19.3957 16.3345 18.2904 16.1019C17.6491 15.9621 17.9504 16.0277 16.9318 15.8063L17.3106 21.6557C17.3386 22.0881 17.7277 22.3985 18.1153 22.3013C19.9881 21.8318 24.8203 20.6203 26.6944 20.1505C27.0804 20.0536 27.2789 19.5963 27.0994 19.2015Z" fill="#787882"/>
<path d="M18.7618 3.14891C18.4173 1.7746 17.0238 0.939794 15.6495 1.28436C14.8228 1.4916 14.1919 2.07854 13.8949 2.81241C13.9873 1.47823 13.0542 0.265796 11.7079 0.0375473C10.2742 -0.205389 8.91498 0.759857 8.67204 2.1936C8.4291 3.62735 9.39429 4.98653 10.828 5.22947C12.0737 5.44053 13.2627 4.73928 13.7126 3.61128C13.6964 3.86878 13.7188 4.13309 13.7848 4.39672C14.1294 5.77103 15.5228 6.60583 16.8971 6.26127C18.2714 5.91671 19.1063 4.52322 18.7618 3.14891Z" fill="#787882"/>
<path d="M13.9065 12.9101L9.92953 11.063L8.97772 8.15082L10.2724 10.0252L11.3058 10.5052L11.6451 8.50313C11.8091 7.53495 11.1573 6.6172 10.1892 6.45308L6.97923 5.90908C6.01104 5.74496 5.0933 6.39683 4.92917 7.36501C4.84761 7.84645 3.41762 16.2854 3.26912 17.1608L3.28343 17.1632L3.24924 30.4589C3.24705 31.3079 3.93349 31.9978 4.78236 32C4.78374 32 4.78511 32 4.78642 32C5.63348 32 6.32123 31.3144 6.32348 30.4669L6.35629 17.6841L6.98092 17.79L6.98192 30.4632C6.98198 31.3121 7.67023 32.0002 8.51922 32.0002C9.36816 32.0001 10.0563 31.3119 10.0563 30.4629L10.0553 17.8845L10.4569 15.5145C10.0482 15.3247 7.74579 14.2553 7.30035 14.0484C6.80117 13.8165 6.50254 13.3272 6.48748 12.8121L6.38336 8.99888L7.51941 12.4749C7.63698 12.8345 7.8986 13.1292 8.24172 13.2886L12.7566 15.3856C13.4401 15.7031 14.2517 15.4064 14.5692 14.7227C14.8867 14.039 14.59 13.2276 13.9065 12.9101Z" fill="#787882"/>
</g>
<defs>
<clipPath id="clip0">
<rect width="32" height="32" fill="white"/>
</clipPath>
</defs>
</svg>
