<svg width="35" height="35" viewBox="0 0 35 35" fill="none" xmlns="http://www.w3.org/2000/svg">
<path d="M16.7212 33.215C16.9269 33.425 17.2069 33.5416 17.5 33.5416C17.7931 33.5416 18.0731 33.425 18.2787 33.215L32.27 19.0385C35.9027 15.3591 35.9027 9.36975 32.27 5.68892C30.5054 3.901 28.159 2.91663 25.6608 2.91663C23.1627 2.91663 20.8177 3.901 19.0531 5.68746L17.5 7.26246L15.9469 5.68892C14.1823 3.901 11.8358 2.91663 9.33916 2.91663C6.84104 2.91663 4.49458 3.901 2.72999 5.68892C-0.902715 9.36975 -0.902715 15.3591 2.72999 19.037L16.7212 33.215ZM4.28604 7.22454C5.63645 5.85808 7.43166 5.10413 9.3377 5.10413C11.2452 5.10413 13.039 5.85808 14.3879 7.226L16.7198 9.5885C17.1296 10.0041 17.866 10.0041 18.2758 9.5885L20.6077 7.22454C21.961 5.85808 23.7548 5.10413 25.6608 5.10413C27.5683 5.10413 29.3621 5.85808 30.7125 7.22454C33.5081 10.0581 33.5081 14.6679 30.7125 17.5029L17.5 30.8918L4.28604 17.5014C1.49041 14.6693 1.49041 10.0581 4.28604 7.22454Z" fill="#787882"/>
</svg>
