<svg width="35" height="35" viewBox="0 0 35 35" fill="none" xmlns="http://www.w3.org/2000/svg">
<g clip-path="url(#clip0)">
<path d="M0.497742 7.50477C0.662967 7.60389 0.844803 7.65106 1.02431 7.65106C1.37267 7.65106 1.71228 7.47346 1.90458 7.15306C2.55386 6.07093 3.33555 5.06974 4.22791 4.17737C5.09805 3.30723 6.07231 2.54181 7.12368 1.90231C7.60753 1.60802 7.76113 0.977198 7.46691 0.493419C7.17269 0.00963955 6.54187 -0.144101 6.05803 0.150186C4.86714 0.874522 3.76354 1.74159 2.77787 2.72727C1.76697 3.7381 0.881512 4.87211 0.146033 6.09793C-0.145383 6.58356 0.0121172 7.21342 0.497742 7.50477Z" fill="#787882"/>
<path d="M27.8477 1.90484C28.9298 2.55405 29.931 3.33574 30.8234 4.22817C31.6935 5.09825 32.4589 6.0725 33.0985 7.12401C33.2915 7.4414 33.6294 7.61667 33.9756 7.61667C34.157 7.61667 34.341 7.56841 34.5074 7.46717C34.9912 7.17288 35.1448 6.54206 34.8506 6.05822C34.1261 4.86719 33.2591 3.7636 32.2735 2.77799C31.2626 1.76709 30.1286 0.881702 28.9029 0.146292C28.417 -0.145124 27.7874 0.0124445 27.496 0.498001C27.2046 0.983626 27.3621 1.61349 27.8477 1.90484Z" fill="#787882"/>
<path d="M2.15907 11.31C2.00047 11.8537 2.3126 12.4229 2.85619 12.5815C2.9521 12.6095 3.04869 12.6228 3.14384 12.6228C3.58783 12.6228 3.9971 12.3321 4.12773 11.8844C4.66674 10.0369 5.67093 8.34104 7.03168 6.98022C8.35798 5.65393 10.0073 4.66361 11.8015 4.11626C12.3432 3.95104 12.6483 3.37799 12.4831 2.83631C12.3179 2.2947 11.7448 1.98948 11.2031 2.15477C9.08853 2.79981 7.14468 3.96704 5.58159 5.53013C3.97775 7.13396 2.79426 9.13264 2.15907 11.31Z" fill="#787882"/>
<path d="M23.1157 4.12762C24.9632 4.66663 26.6591 5.67082 28.0198 7.03164C29.3461 8.35793 30.3365 10.0073 30.8838 11.8014C31.0186 12.2434 31.4249 12.5279 31.8642 12.5279C31.9632 12.5279 32.0641 12.5134 32.1638 12.483C32.7055 12.3178 33.0106 11.7447 32.8454 11.203C32.2003 9.08855 31.0331 7.1447 29.47 5.58154C27.8662 3.9777 25.8676 2.79421 23.6901 2.15895C23.1464 2.00043 22.5772 2.31248 22.4186 2.85614C22.2599 3.3998 22.5721 3.96902 23.1157 4.12762Z" fill="#787882"/>
<path d="M7.12392 33.0984C6.07256 32.4589 5.0983 31.6935 4.22815 30.8233C3.33572 29.9309 2.5541 28.9298 1.90482 27.8477C1.61347 27.362 0.983611 27.2045 0.497986 27.4959C0.0123615 27.7873 -0.14507 28.4172 0.146278 28.9028C0.881756 30.1286 1.76722 31.2626 2.77805 32.2734C3.76372 33.2591 4.86731 34.1262 6.0582 34.8505C6.22472 34.9518 6.40854 35 6.59004 35C6.93621 35 7.27404 34.8247 7.46709 34.5073C7.76144 34.0235 7.60784 33.3927 7.12392 33.0984Z" fill="#787882"/>
<path d="M34.5074 27.5329C34.0235 27.2386 33.3928 27.3923 33.0985 27.876C32.4589 28.9275 31.6934 29.9019 30.8234 30.7719C29.9309 31.6643 28.9298 32.446 27.8477 33.0952C27.3621 33.3865 27.2047 34.0164 27.496 34.502C27.6883 34.8225 28.0279 35 28.3763 35C28.5558 35 28.7377 34.9529 28.9029 34.8537C30.1286 34.1183 31.2626 33.2329 32.2735 32.222C33.2591 31.2364 34.1261 30.1328 34.8506 28.9418C35.1449 28.458 34.9913 27.8272 34.5074 27.5329Z" fill="#787882"/>
<path d="M11.8015 30.8838C10.0073 30.3364 8.35798 29.3461 7.03168 28.0198C5.67093 26.659 4.66667 24.9631 4.12773 23.1157C3.96913 22.572 3.39984 22.2599 2.85618 22.4185C2.31259 22.5771 2.0004 23.1464 2.15906 23.69C2.79425 25.8674 3.97775 27.8661 5.58158 29.47C7.14467 31.0331 9.0886 32.2003 11.2031 32.8453C11.3028 32.8757 11.4036 32.8902 11.5026 32.8902C11.9419 32.8902 12.3482 32.6057 12.4831 32.1638C12.6483 31.622 12.3432 31.049 11.8015 30.8838Z" fill="#787882"/>
<path d="M32.8453 23.797C33.0106 23.2553 32.7054 22.6823 32.1637 22.517C31.6218 22.3519 31.0489 22.657 30.8837 23.1986C30.3364 24.9927 29.3461 26.6421 28.0197 27.9684C26.659 29.3292 24.9631 30.3334 23.1156 30.8724C22.572 31.031 22.2598 31.6002 22.4185 32.1439C22.5491 32.5917 22.9583 32.8824 23.4024 32.8824C23.4975 32.8824 23.5942 32.8691 23.69 32.8411C25.8675 32.2059 27.8661 31.0224 29.4699 29.4185C31.0331 27.8553 32.2002 25.9114 32.8453 23.797Z" fill="#787882"/>
<path d="M24.2092 22.9304C25.8649 21.2163 28.6426 17.7956 28.6426 14.1449C28.6426 10.6424 25.793 7.79297 22.2905 7.79297C21.0771 7.79297 19.8973 8.13654 18.8784 8.78656C18.3617 9.11619 17.8983 9.51629 17.5001 9.97334C17.1019 9.51623 16.6384 9.11612 16.1217 8.78656C15.1029 8.13654 13.923 7.79297 12.7096 7.79297C9.20711 7.79297 6.35757 10.6425 6.35757 14.1449C6.35757 17.6246 9.45074 21.2974 10.7807 22.715C12.8549 24.9259 15.737 27.1569 17.5001 27.1569C19.3145 27.1569 22.1771 25.0342 24.2092 22.9304ZM17.5001 25.1061C17.2797 25.1061 16.6052 24.898 15.4743 24.1178C14.4403 23.4045 13.3046 22.408 12.2763 21.3119C9.85427 18.7302 8.40834 16.0511 8.40834 14.145C8.40834 11.7733 10.3379 9.8438 12.7096 9.8438C14.3684 9.8438 15.8508 10.7709 16.5785 12.2632C16.7502 12.6156 17.108 12.8392 17.5001 12.8392C17.8921 12.8392 18.25 12.6156 18.4217 12.2632C19.1494 10.7709 20.6317 9.8438 22.2905 9.8438C24.6622 9.8438 26.5918 11.7734 26.5918 14.145C26.5918 16.2848 25.1858 18.9677 22.7342 21.5057C20.465 23.855 18.2364 25.1061 17.5001 25.1061Z" fill="#787882"/>
</g>
<defs>
<clipPath id="clip0">
<rect width="35" height="35" fill="white"/>
</clipPath>
</defs>
</svg>
