<svg width="32" height="32" viewBox="0 0 32 32" fill="none" xmlns="http://www.w3.org/2000/svg">
<g clip-path="url(#clip0)">
<path d="M20.0848 3.98726C16.5649 2.20863 12.3249 2.8887 9.53416 5.67945C6.29071 8.92283 5.96609 14.0945 8.77909 17.7091C8.87853 17.8369 9.02716 17.9037 9.17741 17.9037C9.28566 17.9037 9.39472 17.869 9.48678 17.7973C9.70659 17.6263 9.7461 17.3095 9.5751 17.0897C7.0739 13.8758 7.36297 9.27702 10.2474 6.39258C12.7293 3.91057 16.4998 3.3057 19.6301 4.88739C19.8786 5.01314 20.1819 4.91326 20.3076 4.6647C20.4331 4.41614 20.3335 4.11282 20.0848 3.98726Z" fill="#787882"/>
<path d="M24.1118 8.01495C23.9861 7.76639 23.6829 7.66664 23.4342 7.79214C23.1856 7.9177 23.0858 8.22095 23.2114 8.46964C24.7919 11.5994 24.1868 15.3694 21.7054 17.8507C18.8209 20.735 14.2222 21.024 11.0084 18.523C10.7885 18.352 10.4717 18.3915 10.3007 18.6112C10.1296 18.831 10.1692 19.1478 10.389 19.3189C12.0355 20.6003 14.0049 21.2305 15.9681 21.2305C18.3148 21.2305 20.6526 20.3299 22.4187 18.5638C25.2088 15.7738 25.8891 11.5345 24.1118 8.01495Z" fill="#787882"/>
<path d="M22.8088 6.09429C22.6839 5.95291 22.5526 5.81329 22.4187 5.67941C22.2848 5.54547 22.1452 5.41422 22.0038 5.28928C21.7951 5.10478 21.4764 5.12453 21.2921 5.33322C21.1075 5.54185 21.1271 5.86054 21.3358 6.04497C21.4618 6.15622 21.5861 6.27322 21.7055 6.39254C21.8248 6.51191 21.9418 6.63622 22.0531 6.76216C22.1527 6.87491 22.2916 6.93248 22.4311 6.93248C22.5498 6.93248 22.669 6.89079 22.7649 6.80604C22.9736 6.62166 22.9933 6.30297 22.8088 6.09429Z" fill="#787882"/>
<path d="M27.8792 13.0257C28.2154 12.474 28.2154 11.7887 27.8791 11.2372L27.2156 10.1492C27.1283 10.0058 27.0944 9.83559 27.1206 9.66984L27.3183 8.4134C27.4191 7.77309 27.1561 7.13852 26.6319 6.75721L25.6037 6.00933C25.4678 5.91039 25.3712 5.76608 25.3316 5.60271L25.0322 4.36527C24.8802 3.7367 24.3952 3.25183 23.7667 3.0997L22.5292 2.8002C22.3659 2.76064 22.2214 2.66401 22.1226 2.52808L21.3746 1.49964C20.9934 0.97551 20.3587 0.712322 19.7186 0.813197L18.4617 1.01095C18.296 1.03701 18.1257 1.00326 17.9824 0.915885L16.8943 0.252258C16.3427 -0.0841173 15.6574 -0.0840549 15.1058 0.252258L14.0178 0.915697C13.8745 1.00313 13.7044 1.03676 13.5384 1.01076L12.2819 0.81301C11.6418 0.712259 11.0071 0.975322 10.6258 1.49945L9.87797 2.52764C9.77903 2.66358 9.63466 2.7602 9.47122 2.79976L8.23378 3.0992C7.60534 3.2512 7.12034 3.73614 6.96821 4.36464L6.66871 5.60214C6.62915 5.76552 6.53259 5.90996 6.39659 6.00877L5.36815 6.75677C4.84402 7.13796 4.58102 7.77246 4.68171 8.41278L4.87946 9.66971C4.90552 9.83553 4.87177 10.0058 4.7844 10.149L4.12083 11.2372C3.78458 11.7888 3.78458 12.4741 4.12089 13.0257L4.78433 14.1137C4.87171 14.257 4.90552 14.4273 4.8794 14.593L4.68165 15.8495C4.58083 16.4898 4.8439 17.1244 5.36802 17.5057L6.39621 18.2535C6.53215 18.3524 6.62877 18.4968 6.66834 18.6602L6.96778 19.8976C7.11978 20.5262 7.60471 21.011 8.23322 21.1632L8.74997 21.2882L5.25283 29.0891C5.17852 29.2549 5.19908 29.4478 5.30677 29.5942C5.4144 29.7406 5.59234 29.8178 5.77284 29.7961L8.58672 29.4597L10.2077 31.7841C10.3026 31.9201 10.4574 31.9999 10.6212 31.9999C10.6369 31.9999 10.6528 31.9992 10.6685 31.9978C10.8494 31.9808 11.0072 31.8677 11.0815 31.702L14.6531 23.7346L15.1057 24.0105C15.3815 24.1787 15.6907 24.2627 15.9999 24.2627C16.3092 24.2627 16.6184 24.1786 16.8942 24.0105L17.363 23.7246L20.9391 31.702C21.0134 31.8678 21.1712 31.9808 21.3521 31.9978C21.3679 31.9993 21.3837 32 21.3994 32C21.5632 32 21.7181 31.9201 21.8129 31.7842L23.4339 29.4598L26.2478 29.7962C26.4282 29.8176 26.6062 29.7406 26.7139 29.5943C26.8215 29.4479 26.8422 29.255 26.7678 29.0892L23.2689 21.284L23.7662 21.1637C24.3946 21.0117 24.8796 20.5267 25.0317 19.8982L25.3312 18.6607C25.3708 18.4974 25.4674 18.3529 25.6034 18.2541L26.6318 17.5061C27.1559 17.1249 27.4189 16.4904 27.3183 15.8501L27.1205 14.5932C27.0944 14.4274 27.1282 14.2571 27.2156 14.1138L27.8792 13.0257ZM10.5255 30.4768L9.2409 28.6346C9.1344 28.4819 8.95228 28.4001 8.7674 28.4224L6.53746 28.689L9.72366 21.5813C9.78191 21.6241 9.83416 21.6754 9.87722 21.7347L10.6252 22.7632C10.6963 22.8609 10.7762 22.9494 10.8632 23.0283L9.18615 26.7694C9.07228 27.0236 9.1859 27.3219 9.44003 27.4358C9.50703 27.4659 9.57709 27.4801 9.64597 27.4801C9.83859 27.4801 10.0226 27.3691 10.1064 27.1819L11.7775 23.4542C11.942 23.4767 12.1113 23.4764 12.2812 23.4496L13.5381 23.2519C13.6134 23.2401 13.6894 23.2411 13.7635 23.2534L10.5255 30.4768ZM25.4833 28.6889L23.2533 28.4224C23.0682 28.4002 22.8863 28.4819 22.7798 28.6346L21.4952 30.4768L18.2559 23.2506C18.3238 23.2413 18.3931 23.2413 18.4617 23.2521L19.7181 23.4498C19.8949 23.4776 20.0711 23.4767 20.2418 23.4513L21.9142 27.1821C21.9981 27.3692 22.182 27.4802 22.3746 27.4802C22.4436 27.4802 22.5136 27.466 22.5806 27.4359C22.8347 27.3221 22.9484 27.0236 22.8344 26.7695L21.151 23.0142C21.2322 22.9388 21.3072 22.8554 21.3742 22.7634L22.1221 21.7352C22.1692 21.6704 22.2269 21.6148 22.2918 21.5699L25.4833 28.6889ZM27.018 12.5005L26.3544 13.5887C26.1429 13.9358 26.061 14.3482 26.1242 14.7498L26.3219 16.0067C26.3635 16.271 26.2549 16.533 26.0386 16.6904L25.0101 17.4384C24.6809 17.6779 24.4467 18.0277 24.351 18.4234L24.0515 19.6609C23.9887 19.9204 23.7886 20.1206 23.5291 20.1834L22.2916 20.4828C21.8958 20.5785 21.5459 20.8127 21.3064 21.1419L20.5586 22.1701C20.4012 22.3866 20.1393 22.4951 19.8749 22.4534L18.6184 22.2557C18.2167 22.1925 17.8042 22.2742 17.457 22.4859L16.3691 23.1494C16.1414 23.2881 15.8584 23.2881 15.6309 23.1494L14.5427 22.4859C14.272 22.3208 13.9618 22.2348 13.6479 22.2348C13.5591 22.2348 13.4699 22.2417 13.3815 22.2556L12.1245 22.4534C11.8602 22.495 11.5983 22.3863 11.4409 22.17L10.6928 21.1416C10.4533 20.8124 10.1035 20.5782 9.70784 20.4825L8.47034 20.183C8.2109 20.1202 8.01072 19.92 7.9479 19.6605L7.64846 18.4231C7.55271 18.0274 7.31865 17.6774 6.98934 17.4379L5.96121 16.69C5.74484 16.5326 5.63627 16.2706 5.6779 16.0063L5.87565 14.7498C5.93884 14.3481 5.85709 13.9357 5.6454 13.5885L4.98196 12.5005C4.84315 12.2728 4.84315 11.9898 4.98196 11.7622L5.64552 10.674C5.85715 10.3269 5.93896 9.91453 5.87577 9.5129L5.67802 8.25602C5.63646 7.99171 5.74509 7.72977 5.9614 7.5724L6.9899 6.82433C7.31909 6.58483 7.55321 6.23502 7.64896 5.83933L7.94846 4.60183C8.01128 4.34239 8.2114 4.1422 8.4709 4.07939L9.70841 3.77995C10.1042 3.6842 10.454 3.45008 10.6935 3.12083L11.4413 2.09264C11.5987 1.87626 11.8606 1.76757 12.125 1.80926L13.3815 2.00701C13.7833 2.07032 14.1957 1.98845 14.5429 1.77676L15.6308 1.11332C15.8585 0.974572 16.1415 0.974572 16.369 1.11332L17.4572 1.77682C17.8044 1.98857 18.2169 2.07039 18.6184 2.00714L19.8754 1.80939C20.1396 1.76795 20.4016 1.87645 20.559 2.09276L21.3071 3.1212C21.5466 3.45039 21.8964 3.68452 22.2921 3.78027L23.5296 4.07977C23.789 4.14258 23.9892 4.3427 24.052 4.6022L24.3514 5.83964C24.4472 6.23539 24.6812 6.58533 25.0106 6.82483L26.0387 7.57271C26.2551 7.73009 26.3637 7.99209 26.3221 8.2564L26.1243 9.5129C26.0611 9.91459 26.1429 10.327 26.3546 10.6742L27.018 11.7622C27.1569 11.9899 27.1569 12.2728 27.018 12.5005Z" fill="#787882"/>
<path d="M21.901 10.5623C21.7899 10.2202 21.4989 9.98135 21.1417 9.93897L18.1072 9.57916L16.8274 6.80447C16.6767 6.47784 16.3596 6.2749 15.9999 6.2749C15.6402 6.2749 15.323 6.47784 15.1724 6.80447L13.8925 9.57922L10.858 9.93903C10.5008 9.98141 10.2098 10.2203 10.0987 10.5624C9.9876 10.9043 10.0826 11.2687 10.3466 11.5128L12.59 13.5875L11.9945 16.5847C11.9245 16.9375 12.0617 17.288 12.3528 17.4994C12.5134 17.616 12.6997 17.6751 12.8872 17.6751C13.0396 17.6751 13.1927 17.6361 13.3334 17.5574L15.9998 16.0649L18.6662 17.5574C18.9801 17.7331 19.3558 17.7109 19.6469 17.4995C19.9379 17.288 20.0752 16.9375 20.0051 16.5847L19.4096 13.5876L21.653 11.5129C21.9171 11.2687 22.0121 10.9045 21.901 10.5623ZM18.5176 13.0388C18.3889 13.1579 18.3312 13.3353 18.3654 13.5073L18.9747 16.5742L16.2461 15.0469C16.1696 15.0041 16.0847 14.9827 15.9998 14.9827C15.9149 14.9827 15.83 15.004 15.7535 15.0469L13.0249 16.5742L13.6342 13.5073C13.6685 13.3352 13.6108 13.1579 13.482 13.0388L11.1862 10.9157L14.2916 10.5475C14.4657 10.5268 14.6167 10.4172 14.6902 10.258L15.9999 7.41853L17.3096 10.258C17.3831 10.4172 17.5339 10.5268 17.7081 10.5475L20.8134 10.9157L18.5176 13.0388Z" fill="#787882"/>
</g>
<defs>
<clipPath id="clip0">
<rect width="32" height="32" fill="white"/>
</clipPath>
</defs>
</svg>
