<svg width="33" height="33" viewBox="0 0 33 33" fill="none" xmlns="http://www.w3.org/2000/svg">
<path d="M30.4284 28.9112L25.3746 20.1588C27.3509 18.013 28.5367 15.1614 28.5367 12.0275C28.5367 8.69595 27.1815 5.70319 25.0075 3.5292C22.8336 1.35521 19.8408 0 16.5092 0C13.1777 0 10.1849 1.35521 8.01091 3.5292C5.83692 5.70319 4.48171 8.69595 4.48171 12.0275C4.48171 15.1614 5.66752 18.013 7.64387 20.1588L2.59006 28.9112C2.50536 29.0524 2.47712 29.25 2.53359 29.4476C2.64652 29.7582 2.98533 29.8994 3.2959 29.7865L7.3333 28.1771L7.95444 32.4969C7.98267 32.6663 8.06738 32.8357 8.23678 32.9204C8.51911 33.0898 8.88615 32.9768 9.05555 32.6945L14.1658 23.8574C14.8999 23.9986 15.6904 24.0833 16.4528 24.0833C17.2433 24.0833 18.0056 23.9986 18.7397 23.8574L23.85 32.6945C24.0194 32.9768 24.3864 33.0616 24.6687 32.9204C24.8381 32.8357 24.9228 32.6663 24.9511 32.4969L25.5722 28.1771L29.6096 29.7865C29.9202 29.8994 30.259 29.7582 30.3719 29.4476C30.5413 29.25 30.5131 29.0524 30.4284 28.9112ZM8.94262 30.6052L8.43441 27.2454C8.37794 26.9349 8.09561 26.709 7.75681 26.7372C7.70034 26.7372 7.64387 26.7655 7.5874 26.7937L4.45347 28.036L8.51911 21.0058C9.78963 22.1351 11.3142 23.0104 13.0083 23.5186L8.94262 30.6052ZM16.5092 22.8692C13.5165 22.8692 10.806 21.6552 8.85792 19.7071C6.9098 17.7589 5.69575 15.0485 5.69575 12.0557C5.69575 9.06299 6.9098 6.35256 8.85792 4.40444C10.806 2.39986 13.5165 1.18581 16.5092 1.18581C19.502 1.18581 22.2124 2.39986 24.1605 4.34797C26.1086 6.29609 27.3227 9.00652 27.3227 11.9993C27.3227 14.992 26.1086 17.7025 24.1605 19.6506C22.2124 21.6552 19.502 22.8692 16.5092 22.8692ZM25.431 26.7937C25.3746 26.7655 25.3181 26.7372 25.2616 26.7372C24.9511 26.6808 24.6405 26.9066 24.584 27.2454L24.0758 30.6052L20.0102 23.5186C21.7042 23.0104 23.2288 22.1351 24.4993 21.0058L28.565 28.036L25.431 26.7937Z" fill="#787882"/>
<path d="M22.043 9.93821C21.9019 9.74058 21.7325 9.59941 21.5348 9.51471C21.3372 9.43001 21.1113 9.37354 20.8855 9.40177H18.5421L17.808 7.08662C17.6951 6.74781 17.441 6.46548 17.1586 6.29608C16.961 6.21137 16.7634 6.15491 16.5375 6.15491C16.3116 6.15491 16.114 6.21137 15.9164 6.29608C15.6058 6.46548 15.3799 6.71958 15.267 7.08662L14.5329 9.40177H12.1895C11.9637 9.37354 11.7378 9.43001 11.5401 9.51471C11.3425 9.59941 11.1731 9.74058 11.0319 9.93821C10.8061 10.2488 10.7496 10.5876 10.8061 10.9264C10.8625 11.2652 11.0319 11.5758 11.3425 11.8016L13.3189 13.2133L12.5566 15.5285C12.5566 15.5567 12.5566 15.5849 12.5283 15.5849C12.4719 15.7543 12.4719 15.952 12.5001 16.1496C12.5283 16.3472 12.613 16.5449 12.7542 16.7143C12.9801 17.0248 13.2906 17.1942 13.6294 17.2507C13.9682 17.3072 14.3353 17.2225 14.6176 16.9966L16.594 15.5567L18.5703 16.9966C18.8809 17.2225 19.2197 17.2789 19.5585 17.2507C19.8973 17.1942 20.2079 17.0248 20.4337 16.7143C20.5749 16.5449 20.6314 16.3472 20.6878 16.1496C20.7161 15.952 20.7161 15.7826 20.6596 15.5849C20.6596 15.5567 20.6596 15.5285 20.6314 15.5285L19.8691 13.2133L21.8454 11.8016C22.156 11.5758 22.3254 11.2652 22.3818 10.9264C22.3536 10.6158 22.2689 10.2488 22.043 9.93821ZM21.0549 10.8417L21.0266 10.8699L18.7397 12.5357C18.5421 12.6769 18.4291 12.9592 18.5138 13.1851L19.3891 15.8673V15.8955C19.3891 15.9237 19.3891 15.952 19.3891 15.9802C19.3891 16.0084 19.3891 16.0367 19.3609 16.0367C19.3326 16.0649 19.3044 16.0931 19.2479 16.0931C19.2197 16.0931 19.1632 16.0931 19.135 16.0649L16.8198 14.3709C16.7069 14.2862 16.594 14.258 16.4528 14.258C16.3399 14.258 16.1987 14.2862 16.0858 14.3709L13.7706 16.0649C13.7424 16.0931 13.6859 16.0931 13.6577 16.0931C13.6294 16.0931 13.573 16.0649 13.5447 16.0367C13.5165 16.0084 13.5165 15.9802 13.5165 15.9802C13.5165 15.952 13.5165 15.9237 13.5165 15.8955V15.8673L14.3917 13.1851C14.4764 12.931 14.3917 12.6769 14.1659 12.5357L11.9919 10.8699L11.9636 10.8417C11.9354 10.8135 11.9072 10.7852 11.9072 10.757C11.9072 10.7288 11.9072 10.6723 11.9354 10.6441C11.9354 10.6441 11.9354 10.6158 11.9636 10.6158C11.9919 10.5876 11.9919 10.5876 12.0201 10.5876C12.0484 10.5876 12.0766 10.5594 12.1048 10.5594C12.1331 10.5594 12.1613 10.5594 12.1895 10.5594H14.9564C15.2105 10.5594 15.4364 10.3899 15.5211 10.1358L16.3963 7.42542C16.3963 7.39719 16.4246 7.34072 16.481 7.34072C16.5093 7.34072 16.5375 7.31249 16.5375 7.31249C16.5657 7.31249 16.594 7.31249 16.594 7.34072C16.6222 7.36895 16.6504 7.39719 16.6787 7.42542L17.5539 10.1358C17.6386 10.3617 17.8645 10.5594 18.1186 10.5594H20.8855C20.9137 10.5594 20.9419 10.5594 20.9702 10.5594C20.9984 10.5594 21.0266 10.5593 21.0549 10.5876C21.0831 10.5876 21.0831 10.6158 21.1113 10.6158C21.1113 10.6158 21.1113 10.6441 21.1396 10.6441C21.1678 10.6723 21.1678 10.7005 21.1678 10.757C21.1113 10.7852 21.0831 10.8135 21.0549 10.8417Z" fill="#787882"/>
<path d="M23.1441 5.39259C21.4501 3.69857 19.1067 2.65393 16.5092 2.65393C13.9117 2.65393 11.5684 3.69857 9.87434 5.39259C8.18032 7.08661 7.13568 9.43 7.13568 12.0275C7.13568 14.625 8.18032 16.9684 9.87434 18.6624C11.5684 20.3564 13.9117 21.401 16.5092 21.401C19.1067 21.401 21.4501 20.3564 23.1441 18.6624C24.8382 16.9684 25.8828 14.625 25.8828 12.0275C25.8828 9.43 24.8382 7.08661 23.1441 5.39259ZM22.3254 17.8154C20.829 19.3118 18.7679 20.2152 16.5092 20.2152C14.2505 20.2152 12.1895 19.2835 10.7213 17.8154C9.22497 16.319 8.32149 14.2862 8.32149 12.0275C8.32149 9.7688 9.2532 7.70775 10.7213 6.2396C12.1895 4.74322 14.2505 3.81151 16.5092 3.81151C18.7679 3.81151 20.829 4.74322 22.2971 6.21136C23.7935 7.70775 24.697 9.74057 24.697 11.9993C24.697 14.2579 23.7935 16.3472 22.3254 17.8154Z" fill="#787882"/>
</svg>
