<svg width="34" height="34" viewBox="0 0 34 34" fill="none" xmlns="http://www.w3.org/2000/svg">
<g clip-path="url(#clip0)">
<path d="M29.5463 17.2716L27.7194 13.1943L29.5463 9.11709L25.6719 6.89223L24.7534 2.5198L20.3109 2.99735L16.9979 0L13.6846 2.99735L9.24239 2.52006L8.32386 6.89249L4.44922 9.11709L6.27617 13.1943L4.44922 17.2716L8.32386 19.4964L8.82139 21.8653L4.68553 30.6534L9.00193 30.71L11.7967 33.9999L15.862 25.3612L16.9979 26.3887L18.1335 25.3612L22.1991 33.9999L24.9936 30.71L29.31 30.6534L25.1742 21.8653L25.6719 19.4964L29.5463 17.2716ZM11.3116 30.352L9.93395 28.73L7.80558 28.702L10.1249 23.7739L13.6846 23.3913L14.3178 23.9643L11.3116 30.352ZM14.359 21.3153L10.8214 21.6956L10.0898 18.2134L7.00404 16.4415L8.45901 13.1943L7.00404 9.94717L10.0898 8.17548L10.8214 4.6933L14.359 5.07358L16.9979 2.68634L19.6365 5.07358L23.1742 4.6933L23.9057 8.17548L26.9915 9.94717L25.5365 13.1943L26.9915 16.4415L23.9057 18.2134L23.1742 21.6956L19.6365 21.3153L16.9979 23.7023L14.359 21.3153ZM24.0618 28.73L22.6839 30.352L19.6777 23.9643L20.3109 23.3913L23.8707 23.7739L26.19 28.702L24.0618 28.73Z" fill="#787882"/>
<path d="M24.4354 13.1943C24.4354 9.09323 21.0988 5.75684 16.9979 5.75684C12.8968 5.75684 9.56042 9.09323 9.56042 13.1943C9.56042 17.2954 12.8968 20.6318 16.9979 20.6318C21.0988 20.6318 24.4354 17.2954 24.4354 13.1943ZM16.9979 18.6396C13.9954 18.6396 11.5524 16.1969 11.5524 13.1943C11.5524 10.1918 13.9954 7.74902 16.9979 7.74902C20.0005 7.74902 22.4432 10.1918 22.4432 13.1943C22.4432 16.1969 20.0005 18.6396 16.9979 18.6396Z" fill="#787882"/>
</g>
<defs>
<clipPath id="clip0">
<rect width="34" height="34" fill="white"/>
</clipPath>
</defs>
</svg>
