<svg width="31" height="31" viewBox="0 0 31 31" fill="none" xmlns="http://www.w3.org/2000/svg">
<g clip-path="url(#clip0)">
<path d="M0.488739 0H13.1261C13.3961 0 13.6149 0.218732 13.6149 0.488739V13.1261C13.6149 13.3961 13.3961 13.6149 13.1261 13.6149H0.488739C0.218732 13.6149 0 13.3961 0 13.1261V0.488739C0 0.218732 0.218732 0 0.488739 0Z" fill="#787882"/>
<path d="M17.8739 0H30.5112C30.7812 0 31 0.218732 31 0.488739V13.1261C31 13.3961 30.7812 13.6149 30.5112 13.6149H17.8739C17.6038 13.6149 17.3851 13.3961 17.3851 13.1261V0.488739C17.3851 0.218732 17.6038 0 17.8739 0Z" fill="#787882"/>
<path d="M0.488739 17.3851H13.1261C13.3961 17.3851 13.6149 17.6039 13.6149 17.8739V30.5113C13.6149 30.7813 13.3961 31 13.1261 31H0.488739C0.218732 31 0 30.7813 0 30.5113V17.8739C0 17.6039 0.218732 17.3851 0.488739 17.3851Z" fill="#787882"/>
<path d="M17.8739 17.3851H30.5112C30.7812 17.3851 31 17.6039 31 17.8739V30.5113C31 30.7813 30.7812 31 30.5112 31H17.8739C17.6038 31 17.3851 30.7813 17.3851 30.5113V17.8739C17.3851 17.6039 17.6038 17.3851 17.8739 17.3851Z" fill="#787882"/>
</g>
<defs>
<clipPath id="clip0">
<rect width="31" height="31" fill="white"/>
</clipPath>
</defs>
</svg>
