<svg width="29" height="29" viewBox="0 0 29 29" fill="none" xmlns="http://www.w3.org/2000/svg">
<g clip-path="url(#clip0)">
<path d="M12.2693 0H1.11539C0.499358 0 0 0.499358 0 1.11539V12.2693C0 12.8853 0.499358 13.3847 1.11539 13.3847H12.2693C12.8853 13.3847 13.3847 12.8853 13.3847 12.2693V1.11539C13.3847 0.499358 12.8853 0 12.2693 0Z" fill="#787882"/>
<path d="M27.8846 0H16.7307C16.1147 0 15.6153 0.499358 15.6153 1.11539V12.2693C15.6153 12.8853 16.1147 13.3847 16.7307 13.3847H27.8846C28.5006 13.3847 29 12.8853 29 12.2693V1.11539C29 0.499358 28.5006 0 27.8846 0Z" fill="#787882"/>
<path d="M12.2693 15.6154H1.11539C0.499358 15.6154 0 16.1148 0 16.7308V27.8847C0 28.5008 0.499358 29.0001 1.11539 29.0001H12.2693C12.8853 29.0001 13.3847 28.5008 13.3847 27.8847V16.7308C13.3847 16.1148 12.8853 15.6154 12.2693 15.6154Z" fill="#787882"/>
<path d="M27.8846 15.6154H16.7307C16.1147 15.6154 15.6153 16.1148 15.6153 16.7308V27.8847C15.6153 28.5008 16.1147 29.0001 16.7307 29.0001H27.8846C28.5006 29.0001 29 28.5008 29 27.8847V16.7308C29 16.1148 28.5006 15.6154 27.8846 15.6154Z" fill="#787882"/>
</g>
<defs>
<clipPath id="clip0">
<rect width="29" height="29" fill="white"/>
</clipPath>
</defs>
</svg>
