<svg width="31" height="31" viewBox="0 0 31 31" fill="none" xmlns="http://www.w3.org/2000/svg">
<g clip-path="url(#clip0)">
<path d="M12.2021 0H7.25533C3.2547 0 0 3.2547 0 7.25533V12.2021C0 13.4966 1.0141 14.5107 2.30853 14.5107H12.2021C13.4966 14.5107 14.5107 13.4966 14.5107 12.2021V2.30853C14.5107 1.0141 13.4966 0 12.2021 0ZM13.1915 12.2021C13.1915 12.7569 12.7568 13.1915 12.2021 13.1915H2.30853C1.7538 13.1915 1.3192 12.7568 1.3192 12.2021V7.25533C1.3192 3.98217 3.98223 1.31913 7.25539 1.31913H12.2022C12.7569 1.31913 13.1915 1.7538 13.1915 2.30847V12.2021H13.1915Z" fill="#787882"/>
<path d="M23.7447 0H18.7979C17.5034 0 16.4893 1.0141 16.4893 2.30853V12.2021C16.4893 13.4966 17.5034 14.5107 18.7979 14.5107H28.6915C29.9859 14.5107 31 13.4966 31 12.2021V7.25533C31 3.2547 27.7453 0 23.7447 0ZM29.6809 12.2021C29.6809 12.7569 29.2466 13.1915 28.6915 13.1915H18.7979C18.2428 13.1915 17.8085 12.7568 17.8085 12.2021V2.30853C17.8085 1.7538 18.2428 1.3192 18.7979 1.3192H23.7447C27.0178 1.3192 29.6809 3.98223 29.6809 7.25539V12.2021Z" fill="#787882"/>
<path d="M28.6915 16.4893H18.7979C17.5034 16.4893 16.4893 17.5034 16.4893 18.7979V30.3404C16.4893 30.7045 16.7848 31 17.1489 31H23.7447C27.7453 31 31 27.7453 31 23.7447V18.7979C31 17.5034 29.9859 16.4893 28.6915 16.4893ZM29.6809 23.7447C29.6809 27.0178 27.0178 29.6809 23.7447 29.6809H17.8085V18.7979C17.8085 18.2428 18.2428 17.8085 18.7978 17.8085H28.6914C29.2465 17.8085 29.6808 18.2428 29.6808 18.7979V23.7447H29.6809Z" fill="#787882"/>
<path d="M12.2021 16.4893H2.30853C1.0141 16.4893 0 17.5034 0 18.7979V23.7447C0 27.7453 3.2547 31 7.25533 31H13.8511C14.2151 31 14.5107 30.7045 14.5107 30.3404V18.7979C14.5107 17.5034 13.4966 16.4893 12.2021 16.4893ZM13.1915 29.6809H7.25533C3.98217 29.6809 1.31913 27.0178 1.31913 23.7447V18.7979C1.31913 18.2428 1.7538 17.8085 2.30847 17.8085H12.2021C12.7568 17.8085 13.1914 18.2428 13.1914 18.7979V29.6809H13.1915Z" fill="#787882"/>
</g>
<defs>
<clipPath id="clip0">
<rect width="31" height="31" fill="white"/>
</clipPath>
</defs>
</svg>
