<svg width="46" height="30" viewBox="0 0 46 30" fill="none" xmlns="http://www.w3.org/2000/svg">
<path d="M22.1459 13.1053L21.1815 15.496L21.2406 17.0659L20.8938 17.0791L20.8297 15.5113L19.6785 13.2057L20.0499 13.1917L20.9896 15.1102L21.7734 13.1225L22.1459 13.1053ZM19.3619 15.1942C19.3959 15.5113 19.4077 15.7947 19.3959 16.0409C19.3865 16.2899 19.3357 16.5014 19.2493 16.6765C19.1618 16.8544 19.0304 16.9947 18.8569 17.1006C18.6857 17.205 18.4582 17.2719 18.1744 17.3051L17.2335 17.4145L16.784 13.522L17.7209 13.4137C18.0047 13.3797 18.2428 13.3965 18.4335 13.4579C18.6263 13.5208 18.7865 13.6279 18.9132 13.7784C19.0363 13.9301 19.1372 14.1236 19.2048 14.3648C19.2716 14.602 19.3224 14.88 19.3619 15.1942ZM19.0128 15.2396C18.9761 14.9222 18.9253 14.6579 18.8581 14.4492C18.7908 14.2412 18.7072 14.0814 18.6059 13.9629C18.5 13.8453 18.3796 13.7714 18.2361 13.7327C18.0923 13.6948 17.9238 13.6866 17.7358 13.7092L17.1674 13.7765L17.5525 17.0815L18.1169 17.0143C18.3069 16.9928 18.4672 16.9462 18.5989 16.8767C18.7326 16.8067 18.8346 16.7062 18.9038 16.5659C18.9792 16.4283 19.0214 16.2528 19.041 16.0374C19.0609 15.8232 19.0496 15.5562 19.0128 15.2396ZM24.5906 16.5886L24.5773 16.5858L23.1997 13.1248L22.7279 13.1069L22.5907 17.0256L22.9418 17.0362L23.0598 13.6252H23.0704L24.4514 17.0885L24.9216 17.1061L25.0592 13.1889L24.709 13.1768L24.5906 16.5886ZM16.3125 15.5769C16.4536 16.2641 16.4536 16.7875 16.3043 17.1472C16.1566 17.5099 15.8865 17.7276 15.4991 17.8093C15.1031 17.891 14.7685 17.7961 14.4909 17.5244C14.2154 17.2515 14.0027 16.7684 13.8624 16.0824C13.7213 15.3948 13.7213 14.871 13.8651 14.5078C14.0129 14.1482 14.2826 13.9273 14.6758 13.8437C15.0667 13.7628 15.4002 13.8593 15.6812 14.1326C15.9568 14.4074 16.1702 14.8882 16.3125 15.5769ZM16.0678 16.4463C16.0651 16.2258 16.0338 15.9553 15.9662 15.6434C15.9021 15.3326 15.8266 15.075 15.7414 14.8686C15.6566 14.6618 15.5624 14.4988 15.4576 14.3796C15.3568 14.262 15.2415 14.1838 15.1211 14.1482C14.9976 14.1107 14.8701 14.1068 14.736 14.1353C14.5988 14.1627 14.4812 14.2174 14.3854 14.2999C14.2896 14.3823 14.2142 14.4984 14.1689 14.6478C14.1212 14.799 14.0993 14.9847 14.102 15.2083C14.1047 15.4315 14.1388 15.6985 14.2029 16.0077C14.2677 16.322 14.344 16.5804 14.4304 16.786C14.5152 16.992 14.6102 17.155 14.7114 17.2715C14.8158 17.3934 14.9307 17.4697 15.0484 17.5056C15.1715 17.542 15.2993 17.5447 15.4365 17.5177C15.5737 17.4912 15.6914 17.4349 15.7868 17.3543C15.8825 17.2687 15.9552 17.1538 16.0033 17.0053C16.051 16.8571 16.0733 16.6714 16.0678 16.4463ZM12.2828 14.5L13.3374 18.2753L13.6759 18.1815L12.6213 14.4058L12.2828 14.5ZM27.2412 13.4114L27.9339 17.4364L27.5633 17.3954L27.38 16.2235L26.0197 16.0656L25.5705 17.1601L25.1996 17.1178L26.8077 13.3617L27.2412 13.4114ZM27.3417 15.9209L26.9993 13.6608L26.9872 13.658L26.1284 15.7775L27.3417 15.9209ZM31.538 14.2006L29.8548 17.3883L29.8442 17.3856L29.684 13.7855L29.0874 13.6522L28.2337 17.4755L28.5761 17.5529L29.3603 14.0509L29.3708 14.052L29.5765 17.7777L29.8978 17.8512L31.6713 14.5704L31.6818 14.5743L30.9008 18.0755L31.2432 18.1518L32.0993 14.3272L31.538 14.2006ZM31.8417 18.3699L32.1775 18.477L33.3599 14.74L33.023 14.6329L31.8417 18.3699ZM12.479 17.3575C12.5939 17.6796 12.5857 17.9684 12.4567 18.2213C12.3269 18.4743 12.0826 18.6615 11.7297 18.7874L10.7157 19.1443L9.40733 15.4522L10.4241 15.0918C10.6031 15.0289 10.7665 14.9988 10.906 14.9976C11.0471 14.9988 11.173 15.025 11.2801 15.0778C11.39 15.1313 11.483 15.2083 11.5584 15.308C11.6366 15.4096 11.698 15.5285 11.7457 15.668C11.8117 15.8513 11.8227 16.0355 11.7773 16.2203C11.7379 16.4064 11.6308 16.5557 11.4623 16.6711L11.4658 16.6816C11.7093 16.648 11.9173 16.6898 12.0912 16.8126C12.2656 16.931 12.3926 17.1167 12.479 17.3575ZM10.3103 16.9615L10.8318 16.7743C11.1242 16.6722 11.3141 16.5397 11.4044 16.3779C11.4939 16.216 11.5021 16.0265 11.4236 15.8095C11.336 15.5586 11.2101 15.4085 11.0471 15.3545C10.8837 15.2998 10.6731 15.3193 10.4158 15.4092L9.83458 15.6121L10.3103 16.9615ZM12.146 17.4736C11.9704 16.972 11.5956 16.8208 11.0284 17.0233L10.4096 17.2386L10.9475 18.7487L11.5627 18.5345C12.1299 18.3316 12.3258 17.9782 12.146 17.4736ZM42.8122 22.4516L43.4623 26.6733L37.8412 23.011L38.2743 22.2374C37.1509 21.7695 36.0204 21.3505 34.8446 20.9694C34.7965 21.0898 34.7832 21.1941 34.7859 21.2582L34.8606 22.2015C34.9173 22.9063 34.6894 23.5817 34.2184 24.1047C33.7532 24.6239 33.1055 24.9182 32.3991 24.9397L31.4524 24.9663C31.1955 24.9718 30.8234 25.2419 30.7378 25.4854L30.4235 26.3747C29.9685 27.6693 28.3436 28.4027 27.0602 27.8742L26.1811 27.5091C26.1651 27.502 26.101 27.4782 25.979 27.4782C25.7101 27.4782 25.4212 27.5904 25.3223 27.6951L24.668 28.3827C24.1805 28.8936 23.5285 29.1743 22.8272 29.1743C22.1271 29.1743 21.4724 28.8921 20.9873 28.3827L20.3337 27.6936C20.2356 27.5904 19.9467 27.4809 19.6762 27.4809C19.5531 27.4809 19.4878 27.5024 19.4655 27.5102L18.5954 27.8742C17.2601 28.4187 15.7039 27.7057 15.2305 26.3747L14.9174 25.483C14.8338 25.2473 14.4538 24.9718 14.2052 24.9667L13.2526 24.9401C12.5455 24.9198 11.8997 24.6242 11.4306 24.1051C10.9623 23.5809 10.7348 22.9066 10.7911 22.2003L10.8607 21.2571C10.8634 21.1957 10.8419 21.055 10.743 20.8693C9.13527 21.4435 8.16389 21.9423 7.88049 22.0963L8.30383 22.6928L3.11623 26.945L3.30386 22.6776L0 21.7988L4.72165 18.072L3.49423 15.9061L4.08605 15.5691C4.22833 15.4882 5.46396 14.7947 7.57754 14.0047L7.6049 13.8335C7.71201 13.1866 8.04896 12.6171 8.55752 12.2262L9.31195 11.648C9.50662 11.4975 9.65164 11.048 9.58206 10.8088L9.3143 9.89915C9.11299 9.22212 9.1939 8.51498 9.5418 7.91144C9.89244 7.30476 10.4655 6.87712 11.1531 6.71138L12.076 6.49248C12.3168 6.43385 12.633 6.08399 12.6651 5.83656L12.7909 4.8941C12.9817 3.45013 14.2951 2.44865 15.7747 2.73088L16.7003 2.90483C17.1041 2.92945 17.4074 2.71016 17.511 2.54012L18.0004 1.73761C18.7154 0.573124 20.4725 0.191217 21.6014 0.969103L22.382 1.5062C22.5215 1.59767 23.1313 1.59649 23.2642 1.50346L24.0433 0.965194C25.1828 0.188872 26.9328 0.567651 27.647 1.73213L28.1395 2.54012C28.2462 2.7125 28.5726 2.90717 28.8564 2.90717L29.8782 2.72658C31.3202 2.43888 32.6649 3.44544 32.8561 4.88902L32.9788 5.83147C33.0113 6.07813 33.3267 6.42876 33.5702 6.48818L34.4904 6.70708C35.1831 6.87282 35.7558 7.29929 36.1037 7.9044C36.4543 8.50951 36.5321 9.21782 36.3339 9.89641L36.0677 10.8021C35.9942 11.0441 36.14 11.4936 36.339 11.6453L37.0879 12.2219C37.6579 12.6554 38.0097 13.2894 38.0738 14.0032L38.082 14.0896H38.0847V14.0907C39.2058 14.4801 40.3281 14.9081 41.4199 15.3678L42.0512 15.6332L41.0102 18.099L46 21.2172L42.8122 22.4516ZM9.30531 13.4098C11.1093 12.8344 13.8804 12.1144 17.3637 11.707C15.6066 9.8585 14.6489 7.9689 15.2215 7.39623C15.8255 6.79347 17.8918 7.87587 19.8341 9.82214C20.374 10.3631 20.8133 10.8991 21.1952 11.4205C21.3379 11.415 21.49 11.4178 21.6366 11.415C21.5173 10.7236 21.4337 9.96013 21.4337 9.10954C21.4337 6.36192 22.1291 4.13459 22.9773 4.13459C23.8334 4.13459 24.5265 6.36192 24.5265 9.10954C24.5265 9.96834 24.4416 10.7368 24.3212 11.4342C24.4573 11.4397 24.5855 11.4424 24.7199 11.4491C25.1108 10.9038 25.5561 10.342 26.126 9.77094C28.0688 7.82974 30.1382 6.74344 30.7359 7.34698C31.3218 7.93137 30.316 9.88312 28.4831 11.7743C31.0247 12.1011 33.7055 12.6753 36.4774 13.5626C36.4129 13.4723 36.346 13.3809 36.2577 13.3105L35.506 12.7316C34.8555 12.2359 34.5186 11.1942 34.7539 10.4124L35.0189 9.50825C35.1139 9.19202 35.0775 8.86601 34.9173 8.58808C34.7566 8.30859 34.4971 8.11783 34.1707 8.04043L33.2528 7.82114C32.4613 7.63116 31.733 6.81849 31.6263 6.01324L31.5008 5.07079C31.4121 4.39922 30.805 3.93523 30.1335 4.07478L29.1969 4.24756C28.4131 4.39923 27.3992 3.95438 26.9711 3.25702L26.4817 2.4506C26.1604 1.92602 25.3446 1.74621 24.8228 2.09723L24.0445 2.63393C23.4159 3.06705 22.2417 3.06978 21.6076 2.63393L20.827 2.09723C20.3157 1.74464 19.4913 1.92875 19.1708 2.4506L18.6786 3.25585C18.2612 3.93679 17.2554 4.40118 16.4587 4.25068L15.519 4.07517C14.8095 3.94227 14.2396 4.40235 14.1517 5.07235L14.0254 6.01363C13.9214 6.82005 13.1912 7.63155 12.3965 7.8227L11.4736 8.042C11.1558 8.11705 10.8924 8.31445 10.7297 8.59238C10.5718 8.86796 10.5378 9.19397 10.6308 9.50747L10.8986 10.4171C11.1288 11.195 10.7942 12.2352 10.1489 12.732L9.3917 13.3109C9.3573 13.3375 9.33775 13.3797 9.30531 13.4098ZM27.9902 9.93042L26.3715 11.5534C26.4653 11.5616 26.5642 11.5714 26.6631 11.5796L28.1481 10.0895L27.9902 9.93042ZM22.8675 7.90166V11.3978C22.9429 11.3978 23.0141 11.3932 23.0923 11.3943V7.90166H22.8675ZM17.9676 9.9785L17.8077 10.1368L19.1997 11.5288C19.2966 11.5206 19.401 11.5179 19.498 11.5093L17.9676 9.9785ZM6.45019 22.4407L4.6337 19.8858L2.99974 21.1738L4.72282 21.6327L4.62197 23.939L6.45019 22.4407ZM33.4217 21.3649C33.4002 21.0788 33.4725 20.7763 33.5902 20.4807C32.2072 20.1489 30.8617 19.8991 29.5448 19.7103C30.6686 21.1546 31.1932 22.4524 30.7355 22.9102C30.1362 23.5149 28.0684 22.4258 26.1256 20.4862C25.7246 20.0836 25.3661 19.6771 25.0487 19.2811C25.0796 19.2811 25.1132 19.2783 25.1409 19.2795C24.8974 19.265 24.6554 19.2568 24.4143 19.2518C24.4792 19.781 24.5265 20.3404 24.5265 20.9479C24.5265 23.6955 23.8338 25.9232 22.9773 25.9232C22.1291 25.9232 21.4337 23.6959 21.4337 20.9479C21.4337 20.3404 21.4786 19.7732 21.5435 19.2385C21.3133 19.2467 21.094 19.2572 20.8692 19.2662C20.5585 19.6513 20.2238 20.0449 19.8341 20.4366C17.8918 22.375 15.8259 23.4613 15.2215 22.8593C14.7665 22.4016 15.2778 21.123 16.386 19.6892C14.7571 19.9218 13.3042 20.2122 12.0686 20.5155C12.1811 20.8044 12.2531 21.0937 12.2312 21.3638L12.1561 22.3066C12.1327 22.633 12.2339 22.9461 12.4505 23.1857C12.6643 23.4238 12.9614 23.5591 13.2897 23.5684L14.2369 23.595C15.0488 23.6153 15.9349 24.2533 16.2078 25.0237L16.5217 25.9173C16.7402 26.5326 17.4473 26.8657 18.0704 26.6049L18.9433 26.2422C19.1622 26.1515 19.4088 26.1057 19.6758 26.1057C20.3071 26.1057 20.9552 26.3583 21.3266 26.7453L21.9798 27.4356C22.432 27.9144 23.2205 27.9117 23.6727 27.4356L24.3263 26.748C24.8548 26.1941 25.9876 25.94 26.7077 26.2422L27.5825 26.6061C28.1641 26.8481 28.924 26.5056 29.1301 25.9173L29.4447 25.0265C29.716 24.2556 30.6029 23.6153 31.4203 23.595L32.3608 23.5684C32.6884 23.5594 32.9894 23.4242 33.202 23.1857C33.4162 22.9461 33.5202 22.6346 33.4979 22.3082L33.4217 21.3649ZM17.9688 20.279L18.8416 19.4042C18.7212 19.4136 18.6063 19.4284 18.4859 19.4378L17.8089 20.1172L17.9688 20.279ZM23.0923 22.1573V19.2236C23.0141 19.222 22.9433 19.2252 22.8675 19.2264V22.1573H23.0923ZM27.9902 20.3216L28.1536 20.1641L27.4394 19.4496C27.3214 19.439 27.2037 19.4281 27.0864 19.4191L27.9902 20.3216ZM38.5303 20.4526L40.253 16.3701C39.2711 15.9713 38.2692 15.6004 37.2674 15.263C23.5 10.4124 11.8332 13.9055 8.56651 15.1039C8.55439 15.1086 8.54853 15.1075 8.53485 15.1114L8.42266 15.1509C7.00996 15.6629 5.97721 16.1387 5.3721 16.4385L7.70107 20.5425L7.64478 20.3607C8.42149 20.0769 9.62506 19.681 11.1503 19.2865L11.3216 19.2287L11.3298 19.2408C16.1542 18.011 24.2415 16.8274 33.668 19.0278C33.4299 18.8738 33.2556 18.6666 33.1942 18.3722C33.1141 17.9911 33.2102 17.4747 33.4753 16.8247C33.7376 16.173 34.0319 15.7356 34.3528 15.5191C34.6765 15.301 35.0217 15.267 35.3977 15.419C35.5767 15.4929 35.7268 15.5875 35.832 15.7012C35.9391 15.8177 36.0157 15.942 36.0567 16.0745C36.0994 16.2133 36.1154 16.3583 36.097 16.5065C36.081 16.6605 36.0435 16.8098 35.9821 16.9584L35.6557 16.8258C35.7601 16.5757 35.7784 16.3509 35.7225 16.1437C35.6639 15.9366 35.5181 15.7837 35.2851 15.6903C35.1569 15.6379 35.0271 15.6188 34.9036 15.634C34.777 15.6461 34.6511 15.7024 34.5291 15.8013C34.4064 15.899 34.286 16.0421 34.1625 16.2282C34.0421 16.4154 33.9205 16.6589 33.8001 16.9521C33.6793 17.2449 33.5976 17.5044 33.5523 17.7226C33.5112 17.9423 33.496 18.1264 33.5163 18.2847C33.5362 18.4395 33.5871 18.5685 33.6676 18.6646C33.7462 18.7635 33.8509 18.8386 33.9834 18.891C34.216 18.9816 34.4302 18.9695 34.6308 18.8398C34.8313 18.7143 35.0025 18.4919 35.1467 18.1803L35.4731 18.314C35.2781 18.7248 35.0435 19.0043 34.7695 19.149C34.6734 19.2025 34.5635 19.2185 34.4564 19.233C35.7933 19.5703 37.1485 19.9671 38.5303 20.4526ZM41.6403 23.8522L41.2901 21.5713L42.9514 20.9291L41.1884 19.8229L39.662 22.5599L41.6403 23.8522Z" fill="black"/>
</svg>
