<svg width="33" height="33" viewBox="0 0 33 33" fill="none" xmlns="http://www.w3.org/2000/svg">
<g clip-path="url(#clip0)">
<path d="M31.16 21.0882L32.5398 10.2078L22.6409 6.45158L19.5064 7.94835C19.4096 8.42705 19.263 8.89293 19.0711 9.34114L21.444 8.20812L20.4643 18.7532L20.5191 19.3181L13.2891 20.4087L12.6957 21.579L20.6235 20.3837L21.5375 29.7365L22.6013 29.6317L21.6817 20.2249L21.7744 20.2104L30.0633 21.2606L30.0834 21.0986L31.336 31.6176L22.7037 29.6252L11.4707 31.7652L11.3772 31.7475L12.3869 22.1527L12.3803 22.0944L12.3389 21.7349L10.9549 19.0026L11.1501 20.7311L10.9033 20.7682L2.896 19.5277L2.94353 19.1336L1.71662 9.46039L7.31908 11.8258L6.85143 10.9039C6.70014 10.7078 6.56309 10.5023 6.43314 10.2931L0.421936 7.75452L1.86634 19.1376L1.83914 19.364L1.81902 19.3608L1.65478 20.4167L1.71382 20.4247L0.479821 30.7907L11.4722 32.8517L22.6837 30.7166L32.5781 33L31.16 21.0882ZM21.7624 19.1312L21.5779 19.1582L21.5375 18.7563L22.5676 7.67106L22.6893 7.61284L31.3731 10.9077L30.1939 20.1983L21.7624 19.1312ZM10.3233 31.55L1.6588 29.9251L2.7711 20.59L10.9018 21.8498L11.2711 21.7943L11.3124 22.1569L10.3233 31.55ZM12.4783 22.0086L12.3397 21.7353L12.3284 21.6346L12.6962 21.579L12.4783 22.0086ZM7.68262 9.99036L12.404 19.3077L17.0739 10.0901C17.9912 9.02056 18.549 7.63445 18.549 6.11736C18.5489 2.7442 15.8044 0 12.4311 0C9.05803 0 6.31464 2.7442 6.31464 6.11736C6.31464 7.58611 6.83534 8.93431 7.70076 9.99036H7.68262ZM12.4315 2.35755C14.5044 2.35755 16.1915 4.04447 16.1915 6.11736C16.1915 8.19012 14.5044 9.87732 12.4315 9.87732C10.3587 9.87732 8.67171 8.19012 8.67171 6.11736C8.67178 4.04447 10.3583 2.35755 12.4315 2.35755Z" fill="#787882"/>
</g>
<defs>
<clipPath id="clip0">
<rect width="33" height="33" fill="white"/>
</clipPath>
</defs>
</svg>
