<svg width="32" height="26" viewBox="0 0 32 26" fill="none" xmlns="http://www.w3.org/2000/svg">
<path d="M26.9969 14.6481L31.9241 24.77C32.1245 25.1817 31.9139 25.5185 31.456 25.5185H0.543867C0.0860371 25.5185 -0.12463 25.1817 0.0757887 24.77L5.00306 14.6481C5.08144 14.4871 5.2921 14.3554 5.47113 14.3554H9.69602C9.82622 14.3554 10.0021 14.4369 10.0873 14.5354C10.3739 14.8666 10.6659 15.1902 10.957 15.5105C11.2335 15.8146 11.5115 16.1226 11.7873 16.4378H6.77336C6.59427 16.4378 6.38361 16.5695 6.30528 16.7306L3.04117 23.4361H28.9586L25.6947 16.7306C25.6164 16.5695 25.4057 16.4378 25.2266 16.4378H20.2013C20.477 16.1226 20.7551 15.8146 21.0316 15.5105C21.3236 15.1893 21.6172 14.8663 21.9045 14.5349C21.9897 14.4367 22.1651 14.3554 22.2951 14.3554H26.5289C26.7079 14.3554 26.9185 14.487 26.9969 14.6481ZM23.2439 7.73091C23.2439 13.2617 18.6396 14.299 16.4742 19.614C16.2982 20.0459 15.6902 20.0437 15.5142 19.612C13.5608 14.8197 9.6246 13.5056 8.8715 9.23642C8.13001 5.0336 11.0399 0.916687 15.2887 0.515066C19.6097 0.106595 23.2439 3.49436 23.2439 7.73091ZM19.8229 7.73091C19.8229 5.61661 18.109 3.90262 15.9946 3.90262C13.8803 3.90262 12.1664 5.61661 12.1664 7.73091C12.1664 9.84526 13.8803 11.5592 15.9946 11.5592C18.109 11.5592 19.8229 9.84526 19.8229 7.73091Z" fill="#787882"/>
</svg>
