<svg width="29" height="29" viewBox="0 0 29 29" fill="none" xmlns="http://www.w3.org/2000/svg">
<g clip-path="url(#clip0)">
<path d="M7.06861 14.6574C7.06861 14.6574 12.2542 9.49568 12.2542 5.18647C12.2542 2.32161 9.93255 0 7.06861 0C4.20467 0 1.88306 2.32161 1.88306 5.18647C1.88306 9.73977 7.06861 14.6574 7.06861 14.6574ZM4.36618 5.18647C4.36618 3.69256 5.57654 2.48312 7.06861 2.48312C8.56068 2.48312 9.77104 3.69256 9.77104 5.18647C9.77104 6.67854 8.56068 7.88798 7.06861 7.88798C5.57654 7.88798 4.36618 6.67854 4.36618 5.18647Z" fill="#787882"/>
<path d="M26.2352 7.01347L25.814 7.14744L23.5612 7.3484L22.9262 8.36331L22.4665 8.21649L20.6744 6.60145L20.4128 5.76181L20.0669 4.86528L18.9391 3.85405L17.6122 3.59436L17.581 4.20275L18.8822 5.47276L19.5191 6.22247L18.8015 6.59686L18.2179 6.42434L17.3452 6.06096L17.3755 5.3553L16.2284 4.88364L15.8476 6.53905L14.6932 6.80149L14.8079 7.72555L16.311 8.01552L16.5716 6.53905L17.8132 6.72349L18.3904 7.06118H19.3181L19.9513 8.33119L21.6333 10.0371L21.5103 10.7005L20.1541 10.5271L17.8114 11.7099L16.1247 13.7333L15.9054 14.6289H15.2989L14.1711 14.1095L13.0754 14.6289L13.348 15.786L13.8251 15.2336L14.6629 15.2089L14.6042 16.2476L15.2989 16.4495L15.9926 17.2295L17.125 16.9111L18.4188 17.1148L19.9201 17.5195L20.6716 17.6066L21.9416 19.0501L24.3963 20.4944L22.8097 23.5281L21.1341 24.3072L20.4982 26.0406L18.0729 27.6602L17.8141 28.5953C24.0109 27.1023 28.6229 21.5359 28.6229 14.8767C28.6248 11.9641 27.7438 9.25892 26.2352 7.01347Z" fill="#787882"/>
<path d="M16.1257 22.2554L15.098 20.3486L16.0413 18.3793L15.098 18.0939L14.0372 17.0304L11.688 16.5046L10.908 14.8721V15.8421H10.5639L9.07276 13.8205C8.34508 14.6914 7.79266 15.2474 7.72384 15.3153L7.08425 15.9522L6.42998 15.3309C6.26205 15.1694 3.2568 12.289 1.77115 8.78821C0.884712 10.6317 0.376343 12.69 0.376343 14.8721C0.376343 22.6739 6.69976 29 14.5015 29C15.1016 29 15.6907 28.9477 16.2734 28.8761L16.1257 27.1657C16.1257 27.1657 16.7745 24.6238 16.7745 24.5385C16.7745 24.4513 16.1257 22.2554 16.1257 22.2554Z" fill="#787882"/>
<path d="M13.3847 3.45758L14.4244 3.62917L16.9479 3.39243L17.6416 2.62712L18.6217 1.97193L20.0091 2.18115L20.5147 2.10498C18.6877 1.24516 16.6542 0.747803 14.5015 0.747803C13.4957 0.747803 12.5194 0.86526 11.5733 1.06439C12.3083 1.86732 12.8369 2.86111 13.0617 3.96686L13.3847 3.45758ZM15.0979 2.14995L16.5414 1.35619L17.4673 1.89026L16.1257 2.91158L14.8465 3.04097L14.2693 2.66749L15.0979 2.14995Z" fill="#787882"/>
</g>
<defs>
<clipPath id="clip0">
<rect width="29" height="29" fill="white"/>
</clipPath>
</defs>
</svg>
