<svg width="41" height="41" viewBox="0 0 41 41" fill="none" xmlns="http://www.w3.org/2000/svg">
<g clip-path="url(#clip0)">
<path d="M33.3738 22.6086C33.0731 23.2115 32.7314 23.8167 32.4059 24.3688L37.1331 30.2744H12.0798L12.0711 30.2855L12.0625 30.2744H3.86444L8.82311 24.0816C8.82064 24.042 8.80455 23.9925 8.80455 23.9529C8.80455 22.1519 10.2701 20.6876 12.0711 20.6876C12.5551 20.6876 13.0106 20.8002 13.4241 20.9896H16.6981C16.3515 20.3868 16.0086 19.7617 15.688 19.1329H10.4075L0 32.1311H41L33.3738 22.6086Z" fill="#787882"/>
<path d="M25.3121 19.1342C24.9903 19.763 24.6486 20.3881 24.3021 20.9909H26.2628C26.0981 20.5032 25.9991 20.0588 25.9991 19.6887C25.9991 19.4993 26.03 19.3174 26.0548 19.1342H25.3121Z" fill="#787882"/>
<path d="M25.7749 14.1445C25.7749 11.2307 23.4119 8.87018 20.4993 8.87018C17.5867 8.87018 15.2238 11.2319 15.2238 14.1445C15.2238 17.0571 20.4993 24.6943 20.4993 24.6943C20.4993 24.6943 25.7749 17.0571 25.7749 14.1445ZM17.8615 14.1445C17.8615 12.6863 19.0436 11.5067 20.4993 11.5067C21.955 11.5067 23.1358 12.6863 23.1358 14.1445C23.1358 15.6026 21.9537 16.7823 20.4993 16.7823C19.0449 16.7823 17.8615 15.6014 17.8615 14.1445Z" fill="#787882"/>
<path d="M33.281 19.6875C33.281 17.9669 31.8835 16.5731 30.1642 16.5731C28.4449 16.5731 27.0474 17.9669 27.0474 19.6875C27.0474 21.408 30.1642 25.9161 30.1642 25.9161C30.1642 25.9161 33.281 21.4068 33.281 19.6875ZM28.607 19.6875C28.607 18.8272 29.3039 18.1303 30.1654 18.1303C31.0244 18.1303 31.7226 18.8272 31.7226 19.6875C31.7226 20.549 31.0257 21.2446 30.1654 21.2446C29.3051 21.2459 28.607 20.549 28.607 19.6875Z" fill="#787882"/>
<path d="M9.63025 23.9529C9.63025 25.3021 12.0724 28.8361 12.0724 28.8361C12.0724 28.8361 14.5146 25.3021 14.5146 23.9529C14.5146 22.6037 13.4204 21.512 12.0724 21.512C10.7245 21.512 9.63025 22.6037 9.63025 23.9529ZM13.2929 23.9529C13.2929 24.6275 12.7458 25.1734 12.0724 25.1734C11.3991 25.1734 10.852 24.6275 10.852 23.9529C10.852 23.2783 11.3991 22.7337 12.0724 22.7337C12.7458 22.7337 13.2929 23.2783 13.2929 23.9529Z" fill="#787882"/>
</g>
<defs>
<clipPath id="clip0">
<rect width="41" height="41" fill="white"/>
</clipPath>
</defs>
</svg>
