<svg width="17" height="31" viewBox="0 0 17 31" fill="none" xmlns="http://www.w3.org/2000/svg">
<path d="M9.04165 27.1379V16.7581C13.37 16.4261 16.7916 12.8069 16.7916 8.39458C16.7916 6.56946 15.8164 3.53794 15.1034 1.32398L14.8244 0.452104C14.7392 0.183396 14.4912 0 14.2083 0H2.6789C2.41025 0 2.16867 0.166625 2.0744 0.417228C1.45052 2.07058 0 6.15483 0 8.39585C0 12.8069 3.42163 16.4275 7.75 16.7594V27.1392C4.50923 27.271 1.29165 28.3883 1.29165 30.3555C1.29165 30.7107 1.581 31 1.9375 31H14.8541C15.2106 31 15.5 30.7106 15.5 30.3541C15.4999 28.387 12.2811 27.2696 9.04165 27.1379ZM1.32392 9.04165C1.30454 8.82852 1.29165 8.61413 1.29165 8.39579C1.29165 6.82769 2.21262 3.77552 3.12712 1.29165H13.7369L13.8738 1.72177C14.5209 3.7329 15.5 6.7735 15.5 8.39579C15.5 8.61406 15.4871 8.82852 15.4677 9.04165H1.32392Z" fill="#787882"/>
</svg>
