<svg width="19" height="32" viewBox="0 0 19 32" fill="none" xmlns="http://www.w3.org/2000/svg">
<path d="M10.5508 30.0034V16.7479C11.4425 16.5854 12.2882 16.2581 13.0745 15.8122C17.329 13.5652 18.5942 6.76725 18.1922 5.07818H18.1768C18.0275 3.35836 17.5443 1.71103 16.7228 0.270163L16.569 0H1.67274L1.51899 0.270163C0.655789 1.78351 0.168178 3.5187 0.0473737 5.32638C-0.0690379 6.65083 -0.0295017 8.61006 0.853469 10.7033C0.923755 10.879 1.00063 11.0503 1.07751 11.2172C1.09727 11.2612 1.11265 11.2985 1.13461 11.3402C2.48543 14.2022 4.91689 16.2669 7.78545 16.7633V30.0012C5.14752 30.1089 3.1817 30.5064 3.1817 30.9874C3.1817 31.5453 5.86136 32 9.16482 32C12.4771 32 15.1545 31.5453 15.1545 30.9874C15.1545 30.5086 13.1909 30.1111 10.5508 30.0034ZM12.376 14.1693C12.376 14.1693 16.6854 10.3936 14.4319 5.53724H17.1181C17.094 7.167 16.692 12.7548 12.376 14.1693ZM17.1181 5.47793V5.1924C17.1203 5.25829 17.1203 5.35713 17.1181 5.47793ZM1.12802 5.07818C1.2664 3.65269 1.65737 2.2887 2.30093 1.07186H15.9408C16.5866 2.2865 16.9754 3.65269 17.1159 5.07818H14.2188H13.259H1.12802Z" fill="#787882"/>
</svg>
