<svg width="28" height="28" viewBox="0 0 28 28" fill="none" xmlns="http://www.w3.org/2000/svg">
<g clip-path="url(#clip0)">
<path d="M20.1789 0.439714C19.9863 0.164103 19.6712 0 19.3349 0H8.6652C8.32903 0 8.01387 0.164103 7.8212 0.439577C6.07141 2.9415 4.94067 6.25707 4.94067 8.88671C4.94067 11.2896 5.8992 13.4614 7.63966 15.0021C9.0791 16.2763 10.9707 17.0527 13.0423 17.2361V25.9403H10.5629C9.99409 25.9403 9.53296 26.4014 9.53296 26.9702C9.53296 27.539 9.99409 28.0001 10.5629 28.0001H17.5812C18.15 28.0001 18.6111 27.539 18.6111 26.9702C18.6111 26.4014 18.15 25.9403 17.5812 25.9403H15.102V17.221C17.1167 17.015 18.9544 16.2466 20.3602 15.0021C22.1007 13.4614 23.0592 11.2896 23.0592 8.88671C23.0593 6.25721 21.9287 2.9415 20.1789 0.439714ZM14.0001 15.219C9.94438 15.219 7.00055 12.5559 7.00055 8.88671C7.00055 6.8326 7.8786 4.15229 9.21532 2.05987H18.7848C20.1215 4.15229 20.9994 6.83274 20.9994 8.88671C20.9994 12.5559 18.0558 15.219 14.0001 15.219Z" fill="#787882"/>
</g>
<defs>
<clipPath id="clip0">
<rect width="28" height="28" fill="white"/>
</clipPath>
</defs>
</svg>
