<svg width="32" height="32" viewBox="0 0 32 32" fill="none" xmlns="http://www.w3.org/2000/svg">
<path d="M15.9792 28C12.4231 28 8.64575 29.168 8.64575 31.3333C8.64575 31.7014 8.94458 32 9.3125 32H22.6458C23.0139 32 23.3125 31.7014 23.3125 31.3333C23.3125 29.168 19.5352 28 15.9792 28Z" fill="#CFD8DC"/>
<path d="M22.9031 1.36792L22.6152 0.466553C22.5286 0.189453 22.2698 0 21.9792 0H10.0779C9.80054 0 9.55127 0.172119 9.45386 0.430664C8.80981 2.13745 7.3125 6.35327 7.3125 8.66675C7.3125 13.4453 11.2004 17.3333 15.9792 17.3333C20.7578 17.3333 24.6458 13.4453 24.6458 8.66675C24.6458 6.78271 23.6392 3.65332 22.9031 1.36792Z" fill="#ECEFF1"/>
<path d="M15.9792 15.9999C12.6299 15.9999 9.80322 13.7399 8.92993 10.6667H23.0286C22.1553 13.7399 19.3286 15.9999 15.9792 15.9999Z" fill="#DC0101"/>
<path d="M15.9792 17.3333C11.2004 17.3333 7.3125 13.4453 7.3125 8.66675C7.3125 6.35596 8.80981 2.13745 9.45239 0.431885C9.55127 0.172119 9.79907 0 10.0764 0H21.9792C22.2712 0 22.5271 0.189453 22.6152 0.466553L22.9045 1.36792C23.6392 3.65332 24.6458 6.78271 24.6458 8.66675C24.6458 13.4453 20.7578 17.3333 15.9792 17.3333ZM10.5405 1.33325C9.59644 3.89868 8.64575 7.04932 8.64575 8.66675C8.64575 12.7107 11.9365 16 15.9792 16C20.0217 16 23.3125 12.7107 23.3125 8.66675C23.3125 6.99194 22.3018 3.85327 21.6338 1.77734L21.4924 1.33325H10.5405Z" fill="#787882"/>
<path d="M15.9792 29.3333C15.6111 29.3333 15.3125 29.0347 15.3125 28.6667V16.6667C15.3125 16.2986 15.6111 16 15.9792 16C16.3472 16 16.6458 16.2986 16.6458 16.6667V28.6667C16.6458 29.0347 16.3472 29.3333 15.9792 29.3333Z" fill="#787882"/>
<path d="M22.6458 32H9.3125C8.94458 32 8.64575 31.7014 8.64575 31.3333C8.64575 29.168 12.4246 28 15.9792 28C19.5339 28 23.3125 29.168 23.3125 31.3333C23.3125 31.7014 23.0139 32 22.6458 32ZM10.4138 30.6667H21.5444C20.7085 29.9934 18.7124 29.3333 15.9792 29.3333C13.2458 29.3333 11.2498 29.9934 10.4138 30.6667Z" fill="#787882"/>
<path d="M23.3125 10.6668H8.64575C8.27783 10.6668 7.97925 10.368 7.97925 10.0001C7.97925 9.63214 8.27783 9.33331 8.64575 9.33331H23.3125C23.6804 9.33331 23.9792 9.63214 23.9792 10.0001C23.9792 10.368 23.6804 10.6668 23.3125 10.6668Z" fill="#787882"/>
</svg>
