<svg width="34" height="34" viewBox="0 0 34 34" fill="none" xmlns="http://www.w3.org/2000/svg">
<path d="M25.966 16.6981H28.3376C28.8738 16.6981 29.31 16.2619 29.31 15.7257V13.3541C29.31 12.8179 28.8738 12.3817 28.3376 12.3817H25.966C25.4298 12.3817 24.9936 12.8179 24.9936 13.3541V15.7257C24.9936 16.2619 25.4298 16.6981 25.966 16.6981ZM25.9897 13.3778H28.3139V15.702H25.9897V13.3778ZM25.966 23.0067H28.3376C28.8738 23.0067 29.31 22.5705 29.31 22.0343V19.6627C29.31 19.1265 28.8738 18.6903 28.3376 18.6903H25.966C25.4298 18.6903 24.9936 19.1265 24.9936 19.6627V22.0343C24.9936 22.5705 25.4298 23.0067 25.966 23.0067ZM25.9897 19.6864H28.3139V22.0106H25.9897V19.6864ZM19.1981 16.6981H21.5697C22.1059 16.6981 22.5421 16.2619 22.5421 15.7257V13.3541C22.5421 12.8179 22.1059 12.3817 21.5697 12.3817H19.1981C18.6619 12.3817 18.2257 12.8179 18.2257 13.3541V15.7257C18.2257 16.2619 18.6619 16.6981 19.1981 16.6981ZM19.2218 13.3778H21.546V15.702H19.2218V13.3778ZM8.03402 24.7031H5.66238C5.12622 24.7031 4.69 25.1393 4.69 25.6755V28.0471C4.69 28.5833 5.12622 29.0195 5.66238 29.0195H8.03402C8.57018 29.0195 9.0064 28.5833 9.0064 28.0471V25.6755C9.0064 25.1393 8.57018 24.7031 8.03402 24.7031ZM8.01031 28.0234H5.68609V25.6992H8.01031V28.0234ZM8.03402 12.3817H5.66238C5.12622 12.3817 4.69 12.8179 4.69 13.3541V15.7257C4.69 16.2619 5.12622 16.6981 5.66238 16.6981H8.03402C8.57018 16.6981 9.0064 16.2619 9.0064 15.7257V13.3541C9.0064 12.8179 8.57018 12.3817 8.03402 12.3817ZM8.01031 15.702H5.68609V13.3778H8.01031V15.702ZM19.1981 22.8588H21.5697C22.1059 22.8588 22.5421 22.4226 22.5421 21.8864V19.5148C22.5421 18.9786 22.1059 18.5424 21.5697 18.5424H19.1981C18.6619 18.5424 18.2257 18.9786 18.2257 19.5148V21.8864C18.2257 22.4226 18.6619 22.8588 19.1981 22.8588ZM19.2218 19.5385H21.546V21.8627H19.2218V19.5385ZM29.8046 2.27601H27.6753V1.51453C27.6753 0.679402 26.9959 0 26.1607 0H25.932C25.097 0 24.4176 0.679402 24.4176 1.51453V2.27601H9.58241V1.51453C9.58241 0.679402 8.90301 0 8.06788 0H7.83918C7.00406 0 6.32465 0.679402 6.32465 1.51453V2.27601H4.19534C2.8204 2.27601 1.70178 3.39462 1.70178 4.76956V31.5098C1.70178 32.8829 2.81887 34 4.19202 34H29.8081C31.1812 34 32.2983 32.8829 32.2983 31.5098V4.76956C32.2983 3.39462 31.1796 2.27601 29.8046 2.27601ZM25.4137 1.51453C25.4137 1.22865 25.6462 0.996094 25.9321 0.996094H26.1608C26.4467 0.996094 26.6792 1.22865 26.6792 1.51453V2.27601H25.4137V1.51453ZM7.32081 1.51453C7.32081 1.22865 7.55337 0.996094 7.83925 0.996094H8.06795C8.35383 0.996094 8.58638 1.22865 8.58638 1.51453V2.27601H7.32088V1.51453H7.32081ZM31.3022 31.5098C31.3022 32.3337 30.6319 33.0039 29.808 33.0039H4.19195C3.36805 33.0039 2.69781 32.3337 2.69781 31.5098V31.5066C3.11511 31.8211 3.63381 32.0078 4.19534 32.0078H24.3883C25.0544 32.0078 25.6806 31.7484 26.1516 31.2774L31.3022 26.1268V31.5098ZM25.6434 30.3769C25.6824 30.2158 25.7037 30.0477 25.7037 29.8747V26.5501C25.7037 25.9233 26.2137 25.4132 26.8407 25.4132H30.1652C30.3382 25.4132 30.5062 25.392 30.6674 25.3529L25.6434 30.3769ZM31.3022 9.39343H10.0805C9.8054 9.39343 9.58241 9.61642 9.58241 9.89148C9.58241 10.1665 9.8054 10.3895 10.0805 10.3895H31.3022V23.2802C31.3022 23.9071 30.7921 24.4172 30.1652 24.4172H26.8407C25.6645 24.4172 24.7076 25.3741 24.7076 26.5502V29.8748C24.7076 30.5017 24.1975 31.0118 23.5706 31.0118H4.19534C3.36964 31.0118 2.69788 30.34 2.69788 29.5143V10.3895H8.08827C8.36333 10.3895 8.58632 10.1665 8.58632 9.89148C8.58632 9.61642 8.36333 9.39343 8.08827 9.39343H2.69781V4.76956C2.69781 3.94387 3.36957 3.2721 4.19527 3.2721H6.32465V4.73649C6.32465 5.57162 7.00406 6.25102 7.83918 6.25102C8.11424 6.25102 8.33723 6.02803 8.33723 5.75297C8.33723 5.47792 8.11424 5.25493 7.83918 5.25493C7.5533 5.25493 7.32075 5.02237 7.32075 4.73649V3.2721H24.4176V4.73649C24.4176 5.57162 25.097 6.25102 25.9321 6.25102C26.2071 6.25102 26.4301 6.02803 26.4301 5.75297C26.4301 5.47792 26.2071 5.25493 25.9321 5.25493C25.6462 5.25493 25.4137 5.02237 25.4137 4.73649V3.2721H29.8047C30.6304 3.2721 31.3022 3.94387 31.3022 4.76956V9.39343ZM8.03402 18.5424H5.66238C5.12622 18.5424 4.69 18.9786 4.69 19.5148V21.8864C4.69 22.4226 5.12622 22.8588 5.66238 22.8588H8.03402C8.57018 22.8588 9.0064 22.4226 9.0064 21.8864V19.5148C9.0064 18.9786 8.57018 18.5424 8.03402 18.5424ZM8.01031 21.8627H5.68609V19.5385H8.01031V21.8627ZM12.4302 16.6981H14.8019C15.338 16.6981 15.7743 16.2619 15.7743 15.7257V13.3541C15.7743 12.8179 15.338 12.3817 14.8019 12.3817H12.4302C11.8941 12.3817 11.4579 12.8179 11.4579 13.3541V15.7257C11.4579 16.2619 11.8941 16.6981 12.4302 16.6981ZM12.454 13.3778H14.7782V15.702H12.454V13.3778ZM19.2212 28.0234C19.2089 27.7593 18.9908 27.5491 18.7237 27.5491C18.4486 27.5491 18.2256 27.7721 18.2256 28.0471C18.2256 28.5833 18.6619 29.0195 19.198 29.0195H21.5697C22.1058 29.0195 22.5421 28.5833 22.5421 28.0471V25.6755C22.5421 25.1393 22.1058 24.7031 21.5697 24.7031H19.198C18.6619 24.7031 18.2256 25.1393 18.2256 25.6755V26.3595C18.2256 26.6346 18.4486 26.8575 18.7237 26.8575C18.9988 26.8575 19.2217 26.6346 19.2217 26.3595V25.6992H21.546V28.0234H19.2212ZM12.4302 22.8588H14.8019C15.338 22.8588 15.7743 22.4226 15.7743 21.8864V19.5148C15.7743 18.9786 15.338 18.5424 14.8019 18.5424H12.4302C11.8941 18.5424 11.4579 18.9786 11.4579 19.5148V21.8864C11.4579 22.4226 11.8941 22.8588 12.4302 22.8588ZM12.454 19.5385H14.7782V21.8627H12.454V19.5385ZM12.4302 29.0195H14.8019C15.338 29.0195 15.7743 28.5833 15.7743 28.0471V25.6755C15.7743 25.1393 15.338 24.7031 14.8019 24.7031H12.4302C11.8941 24.7031 11.4579 25.1393 11.4579 25.6755V28.0471C11.4579 28.5833 11.8941 29.0195 12.4302 29.0195ZM12.454 25.6992H14.7782V28.0234H12.454V25.6992Z" fill="#787882"/>
</svg>
