<svg width="33" height="33" viewBox="0 0 33 33" fill="none" xmlns="http://www.w3.org/2000/svg">
<path d="M32.0063 2.48931H25.533V1.17885C25.533 -0.13413 23.5455 -0.136144 23.5455 1.17885V2.48931H9.45447V1.17885C9.45447 -0.133879 7.467 -0.136144 7.467 1.17885V2.48931H0.993736C0.444626 2.48931 0 2.93394 0 3.48305V31.786C0 32.3346 0.444626 32.7798 0.993736 32.7798H32.0063C32.5554 32.7798 33 32.3346 33 31.786C33 31.5058 33 4.1948 33 3.48305C33 2.93394 32.5554 2.48931 32.0063 2.48931ZM31.0125 30.7923H1.98747V11.7323H31.0125V30.7923ZM1.98747 4.47679H7.467V5.78649C7.467 7.10451 9.45447 7.09696 9.45447 5.78649V4.47679H23.5455V5.78649C23.5455 7.09922 25.533 7.10199 25.533 5.78649V4.47679H31.0125V9.74482H1.98747V4.47679Z" fill="#787882"/>
<path d="M20.1039 19.871L20.412 19.649V24.4774C20.412 25.7899 22.3995 25.7924 22.3995 24.4774V17.7106C22.3995 16.9009 21.4815 16.4334 20.8262 16.9037L18.944 18.2572C17.877 19.0246 19.0379 20.6374 20.1039 19.871Z" fill="#787882"/>
<path d="M13.8632 25.4711H14.653C16.2356 25.4711 17.5229 24.1838 17.5229 22.6012V19.5867C17.5229 18.0046 16.2356 16.7168 14.653 16.7168H13.8632C12.2806 16.7168 10.9933 18.0046 10.9933 19.5867V22.6012C10.9933 24.1838 12.2806 25.4711 13.8632 25.4711ZM12.9808 19.5867C12.9808 19.1006 13.3763 18.7043 13.8632 18.7043H14.653C15.1392 18.7043 15.5355 19.1006 15.5355 19.5867V22.6012C15.5355 23.0873 15.1392 23.4836 14.653 23.4836H13.8632C13.3763 23.4836 12.9808 23.0873 12.9808 22.6012V19.5867Z" fill="#787882"/>
<path d="M4.31936 25.4711H8.86154C10.174 25.4711 10.1765 23.4836 8.86154 23.4836H5.32845C5.43898 22.6958 6.1175 22.0876 6.9355 22.0876H7.40405C8.75555 22.0876 9.85528 20.9878 9.85528 19.6363V19.168C9.85528 17.8165 8.75555 16.7168 7.40405 16.7168H4.31936C3.00688 16.7168 3.00361 18.7043 4.31936 18.7043H7.40405C7.65909 18.7043 7.86781 18.9122 7.86781 19.168V19.6363C7.86781 20.1827 7.26356 20.1001 6.9355 20.1001C4.94476 20.1001 3.32562 21.72 3.32562 23.7102V24.4774C3.32562 25.0257 3.77025 25.4711 4.31936 25.4711Z" fill="#787882"/>
<path d="M26.4864 22.4977C27.0295 22.4977 27.2866 22.5158 27.6869 22.4096V24.4773C27.6869 25.7901 29.6744 25.7923 29.6744 24.4773C29.6744 23.6961 29.6744 20.1038 29.6744 19.3098C29.6744 17.8379 28.4772 16.6407 27.0058 16.6407H26.4864C25.0151 16.6407 23.8179 17.8379 23.8179 19.3098V19.8287C23.8179 21.3 25.0151 22.4977 26.4864 22.4977ZM25.8054 19.3098C25.8054 18.9336 26.1108 18.6282 26.4864 18.6282H27.0058C27.3815 18.6282 27.6869 18.9336 27.6869 19.3098V19.8287C27.6869 20.2043 27.3815 20.5102 27.0058 20.5102H26.4864C26.1108 20.5102 25.8054 20.2043 25.8054 19.8287V19.3098Z" fill="#787882"/>
</svg>
