<svg width="33" height="33" viewBox="0 0 33 33" fill="none" xmlns="http://www.w3.org/2000/svg">
<path d="M14.2301 18.1121C13.2323 18.1121 12.6366 18.759 12.6366 19.8428V23.1478C12.6366 24.2315 13.2323 24.8785 14.2301 24.8785C15.2356 24.8785 15.836 24.2315 15.836 23.1478V19.8428C15.836 18.759 15.2357 18.1121 14.2301 18.1121ZM14.8691 23.1478C14.8691 23.7838 14.6246 23.9116 14.23 23.9116C13.913 23.9116 13.6033 23.8526 13.6033 23.1478V19.8428C13.6033 19.1379 13.9129 19.0789 14.23 19.0789C14.6245 19.0789 14.8691 19.2067 14.8691 19.8428V23.1478Z" fill="#787882"/>
<path d="M19.8369 16.5497L18.1948 17.5448C17.8344 17.7611 17.6205 18.1263 17.6004 18.554C17.1714 17.1796 15.9951 16.4157 14.23 16.4157C12.2295 16.4157 10.9887 17.4046 10.7387 19.1556C10.5596 17.3735 8.91723 16.4157 7.36616 16.4157C5.7654 16.4157 4.06403 17.4244 4.06403 19.2939C4.06403 20.2431 4.55845 20.7875 5.42052 20.7875C6.39878 20.7875 6.92659 20.1721 6.92659 19.5932C6.92659 19.3141 7.0022 19.1412 7.3786 19.1412C7.76248 19.1412 7.84305 19.3599 7.84305 19.5433C7.84305 20.7335 3.91425 21.9777 3.91425 24.2078V25.4177C3.91425 26.1238 4.68755 26.4998 5.24578 26.4998H9.68589C10.2657 26.4998 10.7555 25.8843 10.7555 25.1558C10.7555 24.4284 10.2757 23.8367 9.68589 23.8367H7.21496C8.19078 23.0264 10.2958 22.0612 10.6908 20.1244V23.1477C10.6908 25.3255 11.9808 26.5746 14.23 26.5746C16.4871 26.5746 17.7815 25.3255 17.7815 23.1477C17.7815 19.56 17.7931 19.6311 17.747 19.2496C17.9654 19.6806 18.4011 19.9525 18.8829 19.8584V25.4176C18.883 26.863 21.7955 26.8649 21.7955 25.4178V17.4855C21.7956 16.5664 20.5101 16.1323 19.8369 16.5497ZM5.93485 24.3202C5.93485 24.5872 6.15122 24.8036 6.41825 24.8036H9.66185C9.70478 24.8376 9.7887 24.9687 9.7887 25.1558C9.7887 25.3511 9.70111 25.4927 9.65457 25.533H5.24591C5.10444 25.533 4.92996 25.4496 4.88124 25.3919V24.2079C4.88124 22.5712 8.81004 21.474 8.81004 19.5433C8.81004 17.7564 5.95979 17.638 5.95979 19.5932C5.95979 19.6558 5.79402 19.8206 5.42052 19.8206C5.19428 19.8206 5.0309 19.8206 5.0309 19.2939C5.0309 16.7537 9.78876 16.6977 9.78876 19.4809C9.78876 22.0001 5.93485 22.5336 5.93485 24.3202ZM16.8149 23.1477C16.8149 24.7801 15.9452 25.6078 14.2302 25.6078C12.5233 25.6078 11.6579 24.7801 11.6579 23.1477V19.8427C11.6579 18.2104 12.5234 17.3827 14.2302 17.3827C15.9453 17.3827 16.8149 18.2104 16.8149 19.8427V23.1477ZM20.8288 25.4067C20.6732 25.5727 20.0056 25.5725 19.85 25.4067V19.0693C19.85 18.6899 19.4321 18.4595 19.1116 18.6586C19.0858 18.6746 18.7218 18.9052 18.693 18.9102C18.6201 18.9102 18.4444 18.523 18.6941 18.3727C20.5254 17.2629 20.3346 17.3577 20.4516 17.3577C20.633 17.3577 20.7952 17.4451 20.8288 17.4955V25.4067Z" fill="#787882"/>
<path d="M25.4176 17.9749C24.5605 17.9749 24.0487 18.496 24.0487 19.3687C24.0486 20.2466 24.5476 20.7501 25.4176 20.7501C26.2876 20.7501 26.7865 20.2466 26.7865 19.3687C26.7865 18.496 26.2748 17.9749 25.4176 17.9749ZM25.4176 19.7833C25.1012 19.7833 25.0156 19.7317 25.0156 19.3688C25.0155 19.0035 25.1159 18.9418 25.4176 18.9418C25.7193 18.9418 25.8197 19.0035 25.8197 19.3688C25.8197 19.7317 25.734 19.7833 25.4176 19.7833Z" fill="#787882"/>
<path d="M27.9191 21.0023C29.1086 19.8993 29.2671 16.4158 25.4175 16.4158C24.4695 16.4158 23.7062 16.6243 23.149 17.0357C21.8547 17.9909 21.9179 20.0751 22.9145 21.0009C22.2321 21.5196 21.866 22.3351 21.866 23.3724V23.5221C21.866 25.4621 23.1605 26.5747 25.4176 26.5747C27.6668 26.5747 28.9567 25.462 28.9567 23.5221C28.9567 22.5236 28.7334 21.6268 27.9191 21.0023ZM25.4176 25.6078C23.7025 25.6078 22.8329 24.9061 22.8329 23.5221V23.3723C22.8329 22.3933 23.2426 21.7585 24.0507 21.4856C24.4872 21.3381 24.4879 20.7178 24.0512 20.5698C23.4496 20.3658 23.1446 19.8777 23.1446 19.1193C23.1446 17.967 23.9094 17.3826 25.4176 17.3826C26.9257 17.3826 27.6905 17.967 27.6905 19.1193C27.6905 19.8778 27.3855 20.3658 26.784 20.5698C26.3475 20.7177 26.3477 21.3381 26.7846 21.4856C27.7507 21.8119 27.9898 22.5744 27.9898 23.5221C27.9898 24.9061 27.1244 25.6078 25.4176 25.6078Z" fill="#787882"/>
<path d="M25.4176 21.3423C24.412 21.3423 23.8118 21.966 23.8118 23.0107V23.285C23.8117 24.3686 24.4121 25.0157 25.4176 25.0157C26.4154 25.0157 27.0112 24.3687 27.0112 23.285V23.0107C27.0112 21.966 26.4154 21.3423 25.4176 21.3423ZM26.0443 23.285C26.0443 23.9898 25.7208 24.0488 25.4176 24.0488C25.0341 24.0488 24.7786 23.9189 24.7786 23.285C24.7785 22.6961 24.7612 22.3091 25.4176 22.3091C26.0609 22.3091 26.0443 22.6959 26.0443 23.285Z" fill="#787882"/>
<path d="M31.495 20.4102C31.762 20.4102 31.9784 20.1938 31.9784 19.9268C31.9784 19.4752 31.9784 5.60762 31.9784 4.69161C31.9784 3.93506 31.3628 3.31959 30.6064 3.31959H26.7214V1.91916C26.7214 1.04002 26.0062 0.324908 25.1273 0.324908C24.2481 0.324908 23.533 1.04014 23.533 1.91916V3.31946H17.9014V1.59418C17.9012 0.715172 17.1861 0 16.3071 0C15.4281 0 14.713 0.715172 14.713 1.59418V3.31946H9.08127V1.80346C9.08127 0.924387 8.36604 0.209279 7.48709 0.209279C6.60814 0.209279 5.89271 0.924387 5.89271 1.80346V3.31946H2.39368C1.63713 3.31946 1.02167 3.93499 1.02167 4.69148C1.02167 5.51145 1.02167 31.1523 1.02167 31.6279C1.02167 32.3845 1.63719 33 2.39368 33H30.6064C31.3628 33 31.9783 32.3845 31.9783 31.6279V22.1827C31.9783 21.9157 31.7619 21.6993 31.4949 21.6993C31.2279 21.6993 31.0115 21.9157 31.0115 22.1827V31.6279C31.0115 31.8513 30.8298 32.0331 30.6064 32.0331H2.39368C2.17029 32.0331 1.98853 31.8513 1.98853 31.6279V11.5865H31.0115V19.9268C31.0115 20.1937 31.2279 20.4102 31.495 20.4102ZM24.4997 1.91916C24.4997 1.57317 24.7812 1.29171 25.1271 1.29171C25.4731 1.29171 25.7545 1.57317 25.7545 1.91916C25.7545 2.67609 25.7545 4.71881 25.7545 5.47368C25.7545 5.81941 25.4732 6.101 25.1271 6.101C24.7812 6.101 24.4997 5.8196 24.4997 5.47368C24.4997 4.71848 24.4997 2.67538 24.4997 1.91916ZM15.6797 1.59418C15.6797 1.24826 15.9611 0.966797 16.307 0.966797C16.6529 0.966797 16.9344 1.2482 16.9344 1.59418C16.9344 1.9762 16.9344 4.74794 16.9344 5.14871C16.9344 5.49463 16.653 5.7761 16.307 5.7761C15.9612 5.7761 15.6797 5.49469 15.6797 5.14871C15.6797 4.748 15.6797 1.97633 15.6797 1.59418ZM6.85957 1.80346C6.85957 1.45754 7.14098 1.17608 7.4869 1.17608C7.83282 1.17608 8.11428 1.45748 8.11428 1.80346C8.11428 2.41403 8.11428 4.58855 8.11428 5.35799C8.11428 5.70391 7.83288 5.98537 7.4869 5.98537C7.14104 5.98537 6.85957 5.70397 6.85957 5.35799C6.85957 4.68961 6.85957 2.56453 6.85957 1.80346ZM1.98853 10.6196V9.49723H15.1791C15.4461 9.49723 15.6625 9.2808 15.6625 9.01383C15.6625 8.74687 15.4461 8.53044 15.1791 8.53044H1.98853V4.69148C1.98853 4.46808 2.17029 4.28633 2.39368 4.28633H5.89271V5.35799C5.89271 6.23706 6.60788 6.95217 7.48683 6.95217C8.36584 6.95217 9.08102 6.237 9.08102 5.35799V4.28633H14.7127V5.14877C14.7127 6.02785 15.4279 6.74296 16.3069 6.74296C17.1859 6.74296 17.901 6.02779 17.901 5.14877V4.28633H23.5326V5.47368C23.5326 6.35276 24.2478 7.0678 25.1268 7.0678C26.0059 7.0678 26.721 6.35263 26.721 5.47368V4.28633H30.606C30.8294 4.28633 31.0111 4.46808 31.0111 4.69148V8.53037H17.4351C17.1681 8.53037 16.9517 8.74681 16.9517 9.01377C16.9517 9.28074 17.1681 9.49717 17.4351 9.49717H31.0115V10.6196H1.98853V10.6196Z" fill="#787882"/>
</svg>
