<svg width="39" height="32" viewBox="0 0 39 32" fill="none" xmlns="http://www.w3.org/2000/svg">
<path d="M15.9653 15.6779C15.9523 17.3978 16.3683 18.2168 17.0482 18.2168C17.7294 18.2168 18.0986 17.3627 18.0986 15.6558C18.0986 13.9931 17.7424 13.1156 17.0378 13.1156C16.393 13.1156 15.9523 13.9359 15.9653 15.6779Z" fill="#787882"/>
<path d="M36.7666 0.796875H2.106C0.9425 0.796875 0 1.73937 0 2.90157V28.1684C0 29.3319 0.9425 30.2744 2.106 30.2744H28.9731V22.8202C28.9731 21.5384 30.0157 20.4971 31.2975 20.4971H38.8739V2.90157C38.8713 1.73937 37.9288 0.796875 36.7666 0.796875ZM27.8902 19.5442C27.4066 19.5442 26.9659 19.4857 26.5967 19.3986C26.3796 19.3466 26.1924 19.2114 26.0767 19.0229C25.9597 18.8331 25.9233 18.6056 25.974 18.3885L25.9909 18.3196C26.0208 18.1935 26.1001 18.0856 26.2132 18.0219C26.3263 17.9569 26.4602 17.9413 26.5837 17.979C26.9308 18.0843 27.3702 18.1701 27.8096 18.1701C28.5363 18.1701 29.3111 17.823 29.3111 17.0274C29.3111 16.2539 28.6988 15.7807 27.1999 15.7807C27.1804 15.7807 27.1609 15.7807 27.1414 15.7807C26.9009 15.782 26.6734 15.6806 26.5135 15.5012C26.3549 15.3218 26.2808 15.0813 26.3107 14.8434L26.5486 12.9571C26.624 12.3617 27.131 11.9145 27.7303 11.9145H30.0911C30.4902 11.9145 30.8126 12.2369 30.8126 12.636C30.8126 13.0351 30.4902 13.3575 30.0911 13.3575H27.9045L27.742 14.5119C27.9045 14.4885 28.0423 14.4885 28.2282 14.4885C28.9432 14.4885 29.6712 14.6497 30.2016 15.0306C30.7671 15.4115 31.1142 16.0342 31.1142 16.913C31.109 18.3092 29.9091 19.5442 27.8902 19.5442ZM36.725 18.6329C36.725 18.9904 36.4351 19.2803 36.0776 19.2803C35.7201 19.2803 35.4289 18.9904 35.4289 18.6329V4.93088C35.4289 4.81778 35.3366 4.72417 35.2222 4.72417H3.6491C3.5347 4.72417 3.4424 4.81648 3.4424 4.93088V26.1391C3.4424 26.2535 3.5347 26.3458 3.6491 26.3458H27.1089C27.4664 26.3458 27.7563 26.6357 27.7563 26.9932C27.7563 27.3507 27.4664 27.6419 27.1089 27.6419H3.6491C2.821 27.6419 2.1463 26.9672 2.1463 26.1391V4.93088C2.1463 4.10148 2.821 3.42808 3.6491 3.42808H35.2235C36.0516 3.42808 36.7263 4.10148 36.7263 4.93088V18.6329H36.725ZM22.5303 13.6006L21.8426 13.9282C21.6632 14.0127 21.4539 14.0127 21.2758 13.9256C21.0964 13.8372 20.9677 13.6721 20.9235 13.4784C20.8585 13.1781 21.008 12.8739 21.2849 12.7465L22.5563 12.155C22.7136 12.0809 22.8852 12.0432 23.0594 12.0432C23.7159 12.0432 24.2502 12.5775 24.2502 13.2353V18.6979C24.2502 19.1659 23.8706 19.5468 23.4013 19.5468C22.9333 19.5468 22.5537 19.1659 22.5537 18.6979V13.6032H22.5303V13.6006ZM19.8549 15.6312C19.8549 17.9517 18.9202 19.5442 17.004 19.5442C15.0644 19.5442 14.2103 17.8022 14.1986 15.678C14.1986 13.5083 15.1216 11.7884 17.0599 11.7884C19.0697 11.7897 19.8549 13.5785 19.8549 15.6312ZM10.0971 13.1976C9.7383 13.1976 9.4042 13.2977 9.1104 13.4381C8.944 13.5174 8.7503 13.5239 8.5774 13.4563C8.4045 13.3887 8.268 13.2522 8.2004 13.0793L8.1822 13.0351C8.0665 12.7426 8.1913 12.4111 8.4695 12.2642C9.0038 11.9847 9.6889 11.7884 10.4546 11.7884C12.1511 11.7884 13.0858 12.7816 13.0858 14.1453C13.0858 15.4024 12.1732 16.4073 11.089 17.3758L10.3974 17.953V17.9764H12.5047C12.9038 17.9764 13.2262 18.2988 13.2262 18.6979C13.2262 19.097 12.9025 19.4194 12.5047 19.4194H8.6398C8.2329 19.4194 7.904 19.0905 7.904 18.6836C7.904 18.4756 7.9924 18.278 8.1458 18.1389L8.8738 17.4811C10.5118 16.016 11.3087 15.1736 11.3321 14.2961C11.3334 13.6825 10.9642 13.1976 10.0971 13.1976Z" fill="#787882"/>
<path d="M31.2961 21.7919C30.728 21.7919 30.2678 22.2521 30.2678 22.8202V29.055L37.5309 21.7919H31.2961Z" fill="#787882"/>
<path d="M36.7666 30.2744C37.9301 30.2744 38.8726 29.3319 38.8726 28.1684V22.282L30.8802 30.2744H36.7666Z" fill="#787882"/>
<rect x="5" y="10" width="27" height="10" fill="#787882"/>
</svg>
