<svg width="32" height="32" viewBox="0 0 32 32" fill="none" xmlns="http://www.w3.org/2000/svg">
<path d="M16 8C14.4178 8 12.871 8.46919 11.5554 9.34824C10.2398 10.2273 9.21447 11.4767 8.60897 12.9385C8.00347 14.4003 7.84504 16.0089 8.15372 17.5607C8.4624 19.1126 9.22433 20.538 10.3431 21.6569C11.462 22.7757 12.8874 23.5376 14.4393 23.8463C15.9911 24.155 17.5997 23.9965 19.0615 23.391C20.5233 22.7855 21.7727 21.7602 22.6518 20.4446C23.5308 19.129 24 17.5823 24 16C23.9976 13.879 23.154 11.8456 21.6542 10.3458C20.1544 8.84605 18.121 8.00242 16 8ZM16 23C14.6155 23 13.2622 22.5895 12.111 21.8203C10.9599 21.0511 10.0627 19.9579 9.53285 18.6788C9.00303 17.3997 8.86441 15.9922 9.13451 14.6344C9.4046 13.2765 10.0713 12.0292 11.0503 11.0503C12.0292 10.0713 13.2765 9.4046 14.6344 9.1345C15.9922 8.86441 17.3997 9.00303 18.6788 9.53284C19.9579 10.0627 21.0511 10.9599 21.8203 12.111C22.5895 13.2622 23 14.6155 23 16C22.9979 17.8559 22.2597 19.6351 20.9474 20.9474C19.6351 22.2597 17.8559 22.9979 16 23Z" fill="#787882"/>
<path d="M30.5 2.5H29.5C28.3069 2.50134 27.1631 2.97588 26.3195 3.8195C25.4759 4.66312 25.0013 5.80694 25 7V8.0625C23.9438 6.86471 22.6591 5.88983 21.2212 5.195C19.7833 4.50018 18.2212 4.0994 16.6264 4.01616C15.0316 3.93292 13.4363 4.16889 11.9339 4.71024C10.4314 5.25159 9.05223 6.08743 7.87706 7.16875L7.60962 2.96813C7.60011 2.8366 7.53902 2.71415 7.43966 2.62745C7.3403 2.54075 7.21071 2.49681 7.07911 2.5052C6.94751 2.51359 6.82455 2.57363 6.737 2.67225C6.64946 2.77087 6.60441 2.90008 6.61168 3.03175L6.92918 8.01856C6.69887 8.18062 6.04418 8.42406 5 8.48538V3C5 2.86739 4.94732 2.74021 4.85355 2.64645C4.75978 2.55268 4.6326 2.5 4.5 2.5C4.36739 2.5 4.24021 2.55268 4.14644 2.64645C4.05267 2.74021 4 2.86739 4 3V8.48531C3.01543 8.42644 2.32831 8.20225 2.07087 8.017L2.38831 3.03181C2.39558 2.90014 2.35054 2.77093 2.26299 2.67231C2.17545 2.5737 2.05249 2.51366 1.92088 2.50526C1.78928 2.49687 1.65969 2.54081 1.56033 2.62752C1.46097 2.71422 1.39988 2.83666 1.39037 2.96819L1.00406 9.03456C0.96979 9.61779 1.15598 10.1926 1.52569 10.645C1.8954 11.0973 2.42162 11.3942 3 11.4768V16.5C2.86739 16.5 2.74021 16.5527 2.64644 16.6464C2.55267 16.7402 2.5 16.8674 2.5 17V26.5C2.5 27.0304 2.71071 27.5391 3.08578 27.9142C3.46085 28.2893 3.96956 28.5 4.5 28.5C5.03043 28.5 5.53914 28.2893 5.91421 27.9142C6.28928 27.5391 6.5 27.0304 6.5 26.5V23.3299C7.77389 24.9793 9.45522 26.2687 11.3786 27.0712C13.302 27.8737 15.4011 28.1617 17.4696 27.9068C19.538 27.652 21.5045 26.863 23.1755 25.6176C24.8466 24.3722 26.1646 22.7133 27 20.8039V26.5C27 27.0304 27.2107 27.5391 27.5858 27.9142C27.9609 28.2893 28.4696 28.5 29 28.5C29.5304 28.5 30.0391 28.2893 30.4142 27.9142C30.7893 27.5391 31 27.0304 31 26.5V3C31 2.86739 30.9473 2.74021 30.8535 2.64645C30.7598 2.55268 30.6326 2.5 30.5 2.5ZM5.5 26.5C5.5 26.7652 5.39464 27.0196 5.2071 27.2071C5.01957 27.3946 4.76521 27.5 4.5 27.5C4.23478 27.5 3.98043 27.3946 3.79289 27.2071C3.60535 27.0196 3.5 26.7652 3.5 26.5V17.5H5.5V26.5ZM4 16.5V11.5H5V16.5H4ZM5.67118 10.5H3.32881C3.14823 10.5 2.96955 10.4632 2.80368 10.3919C2.6378 10.3205 2.48821 10.2161 2.36406 10.0849C2.2399 9.95382 2.14377 9.79876 2.08155 9.62925C2.01934 9.45973 1.99233 9.27931 2.00218 9.099C2.56281 9.32963 3.3875 9.5 4.5 9.5C5.41368 9.5 6.33125 9.37219 6.99768 9.10137C7.00726 9.28149 6.98004 9.46167 6.9177 9.63092C6.85536 9.80017 6.7592 9.95496 6.63508 10.0858C6.51095 10.2167 6.36148 10.3209 6.19576 10.3921C6.03004 10.4633 5.85155 10.5 5.67118 10.5ZM23.455 24.0886C22.2454 25.2034 20.8011 26.0328 19.2286 26.5155C17.656 26.9983 15.9952 27.1223 14.3684 26.8783C12.7416 26.6343 11.1903 26.0286 9.82852 25.1057C8.46679 24.1829 7.32937 22.9664 6.5 21.5457V17C6.5 16.8674 6.44732 16.7402 6.35355 16.6464C6.25978 16.5527 6.1326 16.5 6 16.5V11.4768C6.57879 11.3942 7.10535 11.0969 7.47509 10.644C7.84482 10.1911 8.03068 9.61573 7.99575 9.03213L7.96131 8.49206C9.07815 7.29601 10.4478 6.36426 11.9705 5.76472C13.4931 5.16518 15.1303 4.91298 16.7628 5.02649C18.3953 5.14 19.9819 5.61637 21.4069 6.42086C22.8319 7.22536 24.0594 8.3377 25 9.67681V17C25 17.1326 25.0527 17.2598 25.1464 17.3536C25.2402 17.4473 25.3674 17.5 25.5 17.5H26.8981C26.5527 20.0302 25.335 22.3604 23.455 24.0886ZM30 26.5C30 26.7652 29.8946 27.0196 29.7071 27.2071C29.5196 27.3946 29.2652 27.5 29 27.5C28.7348 27.5 28.4804 27.3946 28.2929 27.2071C28.1054 27.0196 28 26.7652 28 26.5V17.5H30V26.5ZM30 16.5H26V7C26.001 6.07206 26.3701 5.18243 27.0263 4.52628C27.6824 3.87013 28.5721 3.50104 29.5 3.5H30V16.5Z" fill="#787882"/>
</svg>
