<svg width="31" height="31" viewBox="0 0 31 31" fill="none" xmlns="http://www.w3.org/2000/svg">
<g clip-path="url(#clip0)">
<path d="M24.0176 0H6.72494C3.01085 0 0 3.01085 0 6.72494V24.0176C0 27.7317 3.01085 30.7426 6.72494 30.7426H24.0176C27.7317 30.7426 30.7426 27.7317 30.7426 24.0176V6.72494C30.7426 3.01085 27.7317 0 24.0176 0ZM28.8212 24.0176C28.8212 26.6706 26.6706 28.8212 24.0176 28.8212H6.72494C4.07201 28.8212 1.92141 26.6706 1.92141 24.0176V6.72494C1.92141 4.07201 4.07201 1.92141 6.72494 1.92141H24.0176C26.6706 1.92141 28.8212 4.07201 28.8212 6.72494V24.0176Z" fill="#787882"/>
<path d="M9.60706 6.72485H7.68565C7.15504 6.72485 6.72495 7.15495 6.72495 7.68556V9.60697C6.72495 10.1376 7.15504 10.5677 7.68565 10.5677H9.60706C10.1377 10.5677 10.5678 10.1376 10.5678 9.60697V7.68556C10.5678 7.15495 10.1377 6.72485 9.60706 6.72485Z" fill="#787882"/>
<path d="M9.60706 13.4498H7.68565C7.15504 13.4498 6.72495 13.8799 6.72495 14.4105V16.3319C6.72495 16.8626 7.15504 17.2927 7.68565 17.2927H9.60706C10.1377 17.2927 10.5678 16.8626 10.5678 16.3319V14.4105C10.5678 13.8799 10.1377 13.4498 9.60706 13.4498Z" fill="#787882"/>
<path d="M9.60706 20.1748H7.68565C7.15504 20.1748 6.72495 20.6049 6.72495 21.1355V23.0569C6.72495 23.5875 7.15504 24.0176 7.68565 24.0176H9.60706C10.1377 24.0176 10.5678 23.5875 10.5678 23.0569V21.1355C10.5678 20.6049 10.1377 20.1748 9.60706 20.1748Z" fill="#787882"/>
<path d="M24.0176 7.68555H12.4892V9.60696H24.0176V7.68555Z" fill="#787882"/>
<path d="M24.0176 14.4105H12.4892V16.3319H24.0176V14.4105Z" fill="#787882"/>
<path d="M24.0176 21.1355H12.4892V23.0569H24.0176V21.1355Z" fill="#787882"/>
</g>
<defs>
<clipPath id="clip0">
<rect width="30.7426" height="30.7426" fill="white"/>
</clipPath>
</defs>
</svg>
