<svg width="31" height="31" viewBox="0 0 31 31" fill="none" xmlns="http://www.w3.org/2000/svg">
<g clip-path="url(#clip0)">
<path d="M26.6908 1.02477H25.1536V0.512356C25.1536 0.229368 24.9243 0 24.6413 0C24.3583 0 24.1289 0.229368 24.1289 0.512356V1.02471H17.9804V0.512356C17.9804 0.229368 17.751 0 17.4681 0C17.1851 0 16.9557 0.229368 16.9557 0.512356V1.02471H10.8072V0.512356C10.8072 0.229368 10.5778 0 10.2948 0C10.0118 0 9.78248 0.229368 9.78248 0.512356V1.02471H8.24535C7.3968 1.02561 6.70912 1.7133 6.70822 2.56184V12.297C6.70822 12.58 6.93759 12.8094 7.22058 12.8094C7.50356 12.8094 7.73293 12.58 7.73293 12.297V2.5619C7.73329 2.27909 7.96248 2.04991 8.24529 2.04955H9.78242V3.16871C9.0766 3.41825 8.65323 4.13998 8.7798 4.87786C8.90637 5.61574 9.54614 6.15506 10.2948 6.15506C11.0434 6.15506 11.6832 5.61574 11.8097 4.87786C11.9363 4.13998 11.5129 3.41825 10.8071 3.16871V2.04948H16.9556V3.16865C16.2498 3.41819 15.8265 4.13992 15.953 4.8778C16.0796 5.61568 16.7194 6.155 17.468 6.155C18.2166 6.155 18.8564 5.61568 18.983 4.8778C19.1095 4.13992 18.6862 3.41819 17.9804 3.16865V2.04948H24.1289V3.16865C23.4231 3.41819 22.9997 4.13992 23.1263 4.8778C23.2528 5.61568 23.8926 6.155 24.6412 6.155C25.3899 6.155 26.0296 5.61568 26.1562 4.8778C26.2828 4.13992 25.8594 3.41819 25.1536 3.16865V2.04948H26.6907C26.9735 2.04985 27.2027 2.27903 27.2031 2.56184V29.2054C27.2027 29.4883 26.9735 29.7174 26.6907 29.7178H8.24517C7.96236 29.7174 7.73317 29.4883 7.73281 29.2054V22.0322C7.73281 21.7492 7.50344 21.5198 7.22046 21.5198C6.93747 21.5198 6.7081 21.7492 6.7081 22.0322V29.2054C6.709 30.054 7.39668 30.7417 8.24523 30.7426H26.6908C27.5393 30.7417 28.227 30.054 28.2279 29.2054V2.5619C28.227 1.71336 27.5393 1.02567 26.6908 1.02477ZM10.2947 5.12374C10.0117 5.12374 9.78236 4.89437 9.78236 4.61139C9.78236 4.3284 10.0117 4.09903 10.2947 4.09903C10.5777 4.09903 10.8071 4.3284 10.8071 4.61139C10.8068 4.89419 10.5776 5.12338 10.2947 5.12374ZM17.468 5.12374C17.185 5.12374 16.9556 4.89437 16.9556 4.61139C16.9556 4.3284 17.185 4.09903 17.468 4.09903C17.751 4.09903 17.9804 4.3284 17.9804 4.61139C17.98 4.89419 17.7508 5.12338 17.468 5.12374ZM24.6413 5.12374C24.3583 5.12374 24.1289 4.89437 24.1289 4.61139C24.1289 4.3284 24.3583 4.09903 24.6413 4.09903C24.9243 4.09903 25.1536 4.3284 25.1536 4.61139C25.1533 4.89419 24.9241 5.12338 24.6413 5.12374Z" fill="#787882"/>
<path d="M10.2947 10.7599C10.3067 10.7599 10.319 10.7594 10.331 10.7586C10.4791 10.7481 10.6154 10.6738 10.7045 10.555L12.2416 8.50548C12.3515 8.3591 12.3749 8.16521 12.303 7.99685C12.2311 7.82849 12.0749 7.71128 11.8932 7.68936C11.7115 7.66745 11.5318 7.74412 11.422 7.89051L10.2392 9.46745L9.63217 8.86052C9.43156 8.66352 9.10973 8.66502 8.91092 8.86377C8.71211 9.06251 8.71067 9.38441 8.90768 9.58502L9.93245 10.6098C10.0285 10.7059 10.1588 10.76 10.2947 10.7599Z" fill="#787882"/>
<path d="M8.90777 15.2211L9.93254 16.2459C10.0286 16.3421 10.1589 16.3961 10.2948 16.396C10.3068 16.396 10.319 16.3955 10.3311 16.3948C10.4792 16.3843 10.6155 16.3099 10.7046 16.1911L12.2417 14.1416C12.4115 13.9153 12.3657 13.5941 12.1394 13.4243C11.9131 13.2545 11.5919 13.3003 11.4221 13.5266L10.2392 15.1036L9.63226 14.4967C9.43165 14.2996 9.10982 14.3012 8.91101 14.4999C8.71221 14.6987 8.71076 15.0205 8.90777 15.2211Z" fill="#787882"/>
<path d="M13.8814 10.2476H25.6661C25.9491 10.2476 26.1784 10.0182 26.1784 9.73526C26.1784 9.45227 25.9491 9.2229 25.6661 9.2229H13.8814C13.5984 9.2229 13.369 9.45227 13.369 9.73526C13.369 10.0182 13.5984 10.2476 13.8814 10.2476Z" fill="#787882"/>
<path d="M13.8814 15.8836H25.6661C25.9491 15.8836 26.1784 15.6542 26.1784 15.3712C26.1784 15.0883 25.9491 14.8589 25.6661 14.8589H13.8814C13.5984 14.8589 13.369 15.0883 13.369 15.3712C13.369 15.6542 13.5984 15.8836 13.8814 15.8836Z" fill="#787882"/>
<path d="M13.8814 21.5197H25.6661C25.9491 21.5197 26.1784 21.2903 26.1784 21.0074C26.1784 20.7244 25.9491 20.495 25.6661 20.495H13.8814C13.5984 20.495 13.369 20.7244 13.369 21.0074C13.369 21.2903 13.5984 21.5197 13.8814 21.5197Z" fill="#787882"/>
<path d="M13.8814 27.1559H25.6661C25.9491 27.1559 26.1784 26.9266 26.1784 26.6436C26.1784 26.3606 25.9491 26.1312 25.6661 26.1312H13.8814C13.5984 26.1312 13.369 26.3606 13.369 26.6436C13.369 26.9266 13.5984 27.1559 13.8814 27.1559Z" fill="#787882"/>
<path d="M10.0709 20.9957L10.4449 21.3697C10.574 21.5006 10.7634 21.5523 10.9411 21.5051C11.1188 21.4579 11.2576 21.3191 11.3048 21.1414C11.352 20.9637 11.3003 20.7743 11.1694 20.6452L10.8048 20.2806C10.7944 19.2869 10.4152 18.3324 9.74087 17.6025L5.28962 12.7801C5.01552 12.4839 4.63851 12.3038 4.23585 12.2767C4.20595 12.2744 4.17731 12.2666 4.14705 12.266H4.14681C3.82401 12.2636 3.50746 12.3553 3.23606 12.5301C3.14545 12.5893 3.06127 12.6576 2.98471 12.7341C2.3758 13.3398 2.35623 14.319 2.9404 14.9485L3.70818 15.7804L3.70836 15.7805L7.33911 19.7137C8.04937 20.4786 9.02863 20.9381 10.0709 20.9957ZM3.69341 14.2534C3.53886 14.086 3.49803 13.8431 3.5893 13.6344C3.68056 13.4257 3.88669 13.2907 4.1145 13.2905L4.12651 13.2908C4.28262 13.2932 4.43087 13.3599 4.53631 13.4751L4.91135 13.8815L4.09961 14.6934L3.69341 14.2534ZM5.60708 14.635L8.9878 18.2974C9.40697 18.7503 9.67548 19.3219 9.75636 19.9336C9.11731 19.8165 8.53339 19.4955 8.09212 19.0187L4.7951 15.4469L5.60708 14.635Z" fill="#787882"/>
</g>
<defs>
<clipPath id="clip0">
<rect width="30.7426" height="30.7426" fill="white"/>
</clipPath>
</defs>
</svg>
